<svg width="28" height="28" viewBox="0 0 28 28" fill="none" xmlns="http://www.w3.org/2000/svg">
<path d="M0 7.66815L9.99991 0.302246V3.77839L0 11.1443V7.66815Z" fill="white"/>
<path d="M20 7.66815L10.0001 0.302246V3.77839L20 11.1443V7.66815Z" fill="white"/>
<path d="M0 15.6684L9.99991 8.30249V11.7786L0 19.1445V15.6684Z" fill="white"/>
<path d="M20 15.6684L10.0001 8.30249V11.7786L20 19.1445V15.6684Z" fill="white"/>
<path d="M5.25024 11.9603L14.0002 5.51514V8.55676L5.25024 15.0019V11.9603Z" fill="white"/>
<path d="M22.7502 11.9603L14.0003 5.51514V8.55676L22.7502 15.0019V11.9603Z" fill="white"/>
<path d="M5.25 18.9601L13.9999 12.5149V15.5565L5.25 22.0017V18.9601Z" fill="white"/>
<path d="M22.75 18.9603L14.0001 12.5151V15.5568L22.75 22.0019V18.9603Z" fill="white"/>
<rect x="0.000244141" width="27.9999" height="27.9999" rx="1.99999" fill="white"/>
<rect x="0.000244141" width="27.9999" height="27.9999" rx="1.99999" fill="#FEFEFE"/>
<path d="M6.00024 12.3558L14 6.46313V9.244L6.00024 15.1366V12.3558Z" fill="#121212"/>
<path d="M21.9998 12.3558L14 6.46313V9.244L21.9998 15.1366V12.3558Z" fill="#121212"/>
<path d="M6.00024 18.7557L14 12.863V15.6439L6.00024 21.5365V18.7557Z" fill="#121212"/>
<path d="M21.9998 18.7557L14 12.863V15.6439L21.9998 21.5365V18.7557Z" fill="#121212"/>
</svg>
