<svg width="223" height="28" viewBox="0 0 223 28" fill="none" xmlns="http://www.w3.org/2000/svg">
<rect width="28" height="28" rx="2" fill="url(#paint0_linear_10988_37186)"/>
<path d="M6 12.3559L13.9998 6.46326V9.24413L6 15.1368V12.3559Z" fill="white"/>
<path d="M22 12.356L14.0002 6.46333V9.24421L22 15.1369V12.356Z" fill="white"/>
<path d="M6 18.7558L13.9998 12.8632V15.6441L6 21.5367V18.7558Z" fill="white"/>
<path d="M22 18.7559L14.0002 12.8632V15.6441L22 21.5368V18.7559Z" fill="white"/>
<path d="M46.792 26.712C45.848 26.712 44.976 26.56 44.176 26.256C43.376 25.952 42.688 25.528 42.112 24.984C41.536 24.456 41.104 23.832 40.816 23.112L43.312 22.08C43.536 22.688 43.944 23.192 44.536 23.592C45.144 23.992 45.888 24.192 46.768 24.192C47.456 24.192 48.072 24.056 48.616 23.784C49.16 23.528 49.592 23.144 49.912 22.632C50.232 22.136 50.392 21.536 50.392 20.832V17.904L50.872 18.456C50.424 19.288 49.8 19.92 49 20.352C48.216 20.784 47.328 21 46.336 21C45.136 21 44.056 20.72 43.096 20.16C42.136 19.6 41.376 18.832 40.816 17.856C40.272 16.88 40 15.784 40 14.568C40 13.336 40.272 12.24 40.816 11.28C41.376 10.32 42.128 9.56001 43.072 9.00001C44.016 8.44001 45.096 8.16001 46.312 8.16001C47.304 8.16001 48.184 8.37601 48.952 8.80801C49.736 9.22401 50.376 9.83201 50.872 10.632L50.512 11.304V8.44801H53.08V20.832C53.08 21.952 52.808 22.952 52.264 23.832C51.736 24.728 51 25.432 50.056 25.944C49.112 26.456 48.024 26.712 46.792 26.712ZM46.648 18.48C47.368 18.48 48.008 18.312 48.568 17.976C49.128 17.624 49.568 17.16 49.888 16.584C50.224 15.992 50.392 15.328 50.392 14.592C50.392 13.856 50.224 13.192 49.888 12.6C49.552 12.008 49.104 11.544 48.544 11.208C47.984 10.856 47.352 10.68 46.648 10.68C45.912 10.68 45.256 10.856 44.68 11.208C44.104 11.544 43.648 12.008 43.312 12.6C42.992 13.176 42.832 13.84 42.832 14.592C42.832 15.312 42.992 15.968 43.312 16.56C43.648 17.152 44.104 17.624 44.68 17.976C45.256 18.312 45.912 18.48 46.648 18.48Z" fill="white"/>
<path d="M56.2546 21.432V3.26401H58.9666V21.432H56.2546Z" fill="white"/>
<path d="M66.7694 21.72C65.7934 21.72 64.9374 21.504 64.2014 21.072C63.4654 20.624 62.8894 20.008 62.4734 19.224C62.0734 18.424 61.8734 17.504 61.8734 16.464V8.44801H64.5854V16.224C64.5854 16.816 64.7054 17.336 64.9454 17.784C65.1854 18.232 65.5214 18.584 65.9534 18.84C66.3854 19.08 66.8814 19.2 67.4414 19.2C68.0174 19.2 68.5214 19.072 68.9534 18.816C69.3854 18.56 69.7214 18.2 69.9614 17.736C70.2174 17.272 70.3454 16.728 70.3454 16.104V8.44801H73.0334V21.432H70.4654V18.888L70.7534 19.224C70.4494 20.024 69.9454 20.64 69.2414 21.072C68.5374 21.504 67.7134 21.72 66.7694 21.72Z" fill="white"/>
<path d="M82.2959 21.72C80.9999 21.72 79.8479 21.424 78.8399 20.832C77.8479 20.224 77.0719 19.408 76.5119 18.384C75.9519 17.344 75.6719 16.184 75.6719 14.904C75.6719 13.592 75.9519 12.432 76.5119 11.424C77.0879 10.416 77.8559 9.62401 78.8159 9.04801C79.7759 8.45601 80.8639 8.16001 82.0799 8.16001C83.0559 8.16001 83.9279 8.32801 84.6959 8.66401C85.4639 9.00001 86.1119 9.46401 86.6399 10.056C87.1679 10.632 87.5679 11.296 87.8399 12.048C88.1279 12.8 88.2719 13.6 88.2719 14.448C88.2719 14.656 88.2639 14.872 88.2479 15.096C88.2319 15.32 88.1999 15.528 88.1519 15.72H77.8079V13.56H86.6159L85.3199 14.544C85.4799 13.76 85.4239 13.064 85.1519 12.456C84.8959 11.832 84.4959 11.344 83.9519 10.992C83.4239 10.624 82.7999 10.44 82.0799 10.44C81.3599 10.44 80.7199 10.624 80.1599 10.992C79.5999 11.344 79.1679 11.856 78.8639 12.528C78.5599 13.184 78.4399 13.984 78.5039 14.928C78.4239 15.808 78.5439 16.576 78.8639 17.232C79.1999 17.888 79.6639 18.4 80.2559 18.768C80.8639 19.136 81.5519 19.32 82.3199 19.32C83.1039 19.32 83.7679 19.144 84.3119 18.792C84.8719 18.44 85.3119 17.984 85.6319 17.424L87.8399 18.504C87.5839 19.112 87.1839 19.664 86.6399 20.16C86.1119 20.64 85.4719 21.024 84.7199 21.312C83.9839 21.584 83.1759 21.72 82.2959 21.72Z" fill="white"/>
<path d="M95.7186 21.72C94.3906 21.72 93.2226 21.392 92.2146 20.736C91.2226 20.08 90.5266 19.2 90.1266 18.096L92.2146 17.112C92.5666 17.848 93.0466 18.432 93.6546 18.864C94.2786 19.296 94.9666 19.512 95.7186 19.512C96.3586 19.512 96.8786 19.368 97.2786 19.08C97.6786 18.792 97.8786 18.4 97.8786 17.904C97.8786 17.584 97.7906 17.328 97.6146 17.136C97.4386 16.928 97.2146 16.76 96.9426 16.632C96.6866 16.504 96.4226 16.408 96.1506 16.344L94.1106 15.768C92.9906 15.448 92.1506 14.968 91.5906 14.328C91.0466 13.672 90.7746 12.912 90.7746 12.048C90.7746 11.264 90.9746 10.584 91.3746 10.008C91.7746 9.41601 92.3266 8.96001 93.0306 8.64001C93.7346 8.32001 94.5266 8.16001 95.4066 8.16001C96.5906 8.16001 97.6466 8.45601 98.5746 9.04801C99.5026 9.62401 100.159 10.432 100.543 11.472L98.4546 12.456C98.1986 11.832 97.7906 11.336 97.2306 10.968C96.6866 10.6 96.0706 10.416 95.3826 10.416C94.7906 10.416 94.3186 10.56 93.9666 10.848C93.6146 11.12 93.4386 11.48 93.4386 11.928C93.4386 12.232 93.5186 12.488 93.6786 12.696C93.8386 12.888 94.0466 13.048 94.3026 13.176C94.5586 13.288 94.8226 13.384 95.0946 13.464L97.2066 14.088C98.2786 14.392 99.1026 14.872 99.6786 15.528C100.255 16.168 100.543 16.936 100.543 17.832C100.543 18.6 100.335 19.28 99.9186 19.872C99.5186 20.448 98.9586 20.904 98.2386 21.24C97.5186 21.56 96.6786 21.72 95.7186 21.72Z" fill="white"/>
<path d="M108.816 21.576C107.456 21.576 106.4 21.192 105.648 20.424C104.896 19.656 104.52 18.576 104.52 17.184V10.896H102.24V8.44801H102.6C103.208 8.44801 103.68 8.27201 104.016 7.92001C104.352 7.56801 104.52 7.08801 104.52 6.48001V5.47201H107.232V8.44801H110.184V10.896H107.232V17.064C107.232 17.512 107.304 17.896 107.448 18.216C107.592 18.52 107.824 18.76 108.144 18.936C108.464 19.096 108.88 19.176 109.392 19.176C109.52 19.176 109.664 19.168 109.824 19.152C109.984 19.136 110.136 19.12 110.28 19.104V21.432C110.056 21.464 109.808 21.496 109.536 21.528C109.264 21.56 109.024 21.576 108.816 21.576Z" fill="white"/>
<path d="M116.697 21.72C115.817 21.72 115.041 21.568 114.369 21.264C113.713 20.944 113.201 20.512 112.833 19.968C112.465 19.408 112.281 18.752 112.281 18C112.281 17.296 112.433 16.664 112.737 16.104C113.057 15.544 113.545 15.072 114.201 14.688C114.857 14.304 115.681 14.032 116.673 13.872L121.185 13.128V15.264L117.201 15.96C116.481 16.088 115.953 16.32 115.617 16.656C115.281 16.976 115.113 17.392 115.113 17.904C115.113 18.4 115.297 18.808 115.665 19.128C116.049 19.432 116.537 19.584 117.129 19.584C117.865 19.584 118.505 19.424 119.049 19.104C119.609 18.784 120.041 18.36 120.345 17.832C120.649 17.288 120.801 16.688 120.801 16.032V12.696C120.801 12.056 120.561 11.536 120.081 11.136C119.617 10.72 118.993 10.512 118.209 10.512C117.489 10.512 116.857 10.704 116.313 11.088C115.785 11.456 115.393 11.936 115.137 12.528L112.881 11.4C113.121 10.76 113.513 10.2 114.057 9.72001C114.601 9.22401 115.233 8.84001 115.953 8.56801C116.689 8.29601 117.465 8.16001 118.281 8.16001C119.305 8.16001 120.209 8.35201 120.993 8.73601C121.793 9.12001 122.409 9.65601 122.841 10.344C123.289 11.016 123.513 11.8 123.513 12.696V21.432H120.921V19.08L121.473 19.152C121.169 19.68 120.777 20.136 120.297 20.52C119.833 20.904 119.297 21.2 118.689 21.408C118.097 21.616 117.433 21.72 116.697 21.72Z" fill="white"/>
<path d="M132.852 21.72C131.556 21.72 130.404 21.424 129.396 20.832C128.404 20.224 127.612 19.408 127.02 18.384C126.444 17.36 126.156 16.2 126.156 14.904C126.156 13.624 126.444 12.472 127.02 11.448C127.596 10.424 128.388 9.62401 129.396 9.04801C130.404 8.45601 131.556 8.16001 132.852 8.16001C133.732 8.16001 134.556 8.32001 135.324 8.64001C136.092 8.94401 136.756 9.36801 137.316 9.91201C137.892 10.456 138.316 11.088 138.588 11.808L136.212 12.912C135.94 12.24 135.5 11.704 134.892 11.304C134.3 10.888 133.62 10.68 132.852 10.68C132.116 10.68 131.452 10.864 130.86 11.232C130.284 11.584 129.828 12.088 129.492 12.744C129.156 13.384 128.988 14.112 128.988 14.928C128.988 15.744 129.156 16.48 129.492 17.136C129.828 17.776 130.284 18.28 130.86 18.648C131.452 19.016 132.116 19.2 132.852 19.2C133.636 19.2 134.316 19 134.892 18.6C135.484 18.184 135.924 17.632 136.212 16.944L138.588 18.072C138.332 18.76 137.916 19.384 137.34 19.944C136.78 20.488 136.116 20.92 135.348 21.24C134.58 21.56 133.748 21.72 132.852 21.72Z" fill="white"/>
<path d="M141.239 21.432V3.26401H143.951V15.432L142.895 15.168L149.399 8.44801H152.783L147.887 13.656L152.999 21.432H149.879L145.319 14.544L146.927 14.328L143.087 18.408L143.951 16.608V21.432H141.239Z" fill="white"/>
<path d="M155.264 16.128V13.728H164.864V16.128H155.264Z" fill="white"/>
<path d="M173.25 21.72C171.922 21.72 170.754 21.392 169.746 20.736C168.754 20.08 168.058 19.2 167.658 18.096L169.746 17.112C170.098 17.848 170.578 18.432 171.186 18.864C171.81 19.296 172.498 19.512 173.25 19.512C173.89 19.512 174.41 19.368 174.81 19.08C175.21 18.792 175.41 18.4 175.41 17.904C175.41 17.584 175.322 17.328 175.146 17.136C174.97 16.928 174.746 16.76 174.474 16.632C174.218 16.504 173.954 16.408 173.682 16.344L171.642 15.768C170.522 15.448 169.682 14.968 169.122 14.328C168.578 13.672 168.306 12.912 168.306 12.048C168.306 11.264 168.506 10.584 168.906 10.008C169.306 9.41601 169.858 8.96001 170.562 8.64001C171.266 8.32001 172.058 8.16001 172.938 8.16001C174.122 8.16001 175.178 8.45601 176.106 9.04801C177.034 9.62401 177.69 10.432 178.074 11.472L175.986 12.456C175.73 11.832 175.322 11.336 174.762 10.968C174.218 10.6 173.602 10.416 172.914 10.416C172.322 10.416 171.85 10.56 171.498 10.848C171.146 11.12 170.97 11.48 170.97 11.928C170.97 12.232 171.05 12.488 171.21 12.696C171.37 12.888 171.578 13.048 171.834 13.176C172.09 13.288 172.354 13.384 172.626 13.464L174.738 14.088C175.81 14.392 176.634 14.872 177.21 15.528C177.786 16.168 178.074 16.936 178.074 17.832C178.074 18.6 177.866 19.28 177.45 19.872C177.05 20.448 176.49 20.904 175.77 21.24C175.05 21.56 174.21 21.72 173.25 21.72Z" fill="white"/>
<path d="M186.347 21.576C184.987 21.576 183.931 21.192 183.179 20.424C182.427 19.656 182.051 18.576 182.051 17.184V10.896H179.771V8.44801H180.131C180.739 8.44801 181.211 8.27201 181.547 7.92001C181.883 7.56801 182.051 7.08801 182.051 6.48001V5.47201H184.763V8.44801H187.715V10.896H184.763V17.064C184.763 17.512 184.835 17.896 184.979 18.216C185.123 18.52 185.355 18.76 185.675 18.936C185.995 19.096 186.411 19.176 186.923 19.176C187.051 19.176 187.195 19.168 187.355 19.152C187.515 19.136 187.667 19.12 187.811 19.104V21.432C187.587 21.464 187.339 21.496 187.067 21.528C186.795 21.56 186.555 21.576 186.347 21.576Z" fill="white"/>
<path d="M191.61 26.736C191.29 26.736 190.97 26.704 190.65 26.64C190.346 26.592 190.066 26.512 189.81 26.4V24.072C190.002 24.12 190.234 24.16 190.506 24.192C190.778 24.24 191.042 24.264 191.298 24.264C192.05 24.264 192.602 24.096 192.954 23.76C193.322 23.44 193.65 22.936 193.938 22.248L194.802 20.28L194.754 22.56L189.138 8.44801H192.042L196.194 19.272H195.21L199.338 8.44801H202.266L196.53 22.848C196.226 23.616 195.842 24.288 195.378 24.864C194.93 25.456 194.394 25.912 193.77 26.232C193.162 26.568 192.442 26.736 191.61 26.736Z" fill="white"/>
<path d="M204.122 21.432V3.26401H206.834V21.432H204.122Z" fill="white"/>
<path d="M216.101 21.72C214.805 21.72 213.653 21.424 212.645 20.832C211.653 20.224 210.877 19.408 210.317 18.384C209.757 17.344 209.477 16.184 209.477 14.904C209.477 13.592 209.757 12.432 210.317 11.424C210.893 10.416 211.661 9.62401 212.621 9.04801C213.581 8.45601 214.669 8.16001 215.885 8.16001C216.861 8.16001 217.733 8.32801 218.501 8.66401C219.269 9.00001 219.917 9.46401 220.445 10.056C220.973 10.632 221.373 11.296 221.645 12.048C221.933 12.8 222.077 13.6 222.077 14.448C222.077 14.656 222.069 14.872 222.053 15.096C222.037 15.32 222.005 15.528 221.957 15.72H211.613V13.56H220.421L219.125 14.544C219.285 13.76 219.229 13.064 218.957 12.456C218.701 11.832 218.301 11.344 217.757 10.992C217.229 10.624 216.605 10.44 215.885 10.44C215.165 10.44 214.525 10.624 213.965 10.992C213.405 11.344 212.973 11.856 212.669 12.528C212.365 13.184 212.245 13.984 212.309 14.928C212.229 15.808 212.349 16.576 212.669 17.232C213.005 17.888 213.469 18.4 214.061 18.768C214.669 19.136 215.357 19.32 216.125 19.32C216.909 19.32 217.573 19.144 218.117 18.792C218.677 18.44 219.117 17.984 219.437 17.424L221.645 18.504C221.389 19.112 220.989 19.664 220.445 20.16C219.917 20.64 219.277 21.024 218.525 21.312C217.789 21.584 216.981 21.72 216.101 21.72Z" fill="white"/>
<defs>
<linearGradient id="paint0_linear_10988_37186" x1="-7.27666" y1="-40.2774" x2="42.6842" y2="47.8084" gradientUnits="userSpaceOnUse">
<stop stop-color="#066B8B"/>
<stop offset="0.885432" stop-color="#4CCCB5"/>
</linearGradient>
</defs>
</svg>
