<svg width="15" height="15" viewBox="0 0 15 15" fill="none" xmlns="http://www.w3.org/2000/svg">
<g clipPath="url(#clip0_8738_105556)">
<path d="M6.02238 8.73047C6.44466 8.73047 6.787 9.07281 6.787 9.49509V12.7751C6.787 13.1974 6.44466 13.5397 6.02238 13.5397C5.60015 13.5397 5.25781 13.1974 5.25781 12.7751V9.49509C5.25781 9.07286 5.60015 8.73052 6.02238 8.73052V8.73047Z" fill="#F5F5F5"/>
<path d="M4.28207 4.78662C4.27954 4.81561 4.27734 4.84493 4.27734 4.87457V9.8441C4.27734 10.3785 4.70038 10.8091 5.22554 10.8091H10.2792C10.8044 10.8091 11.2274 10.3785 11.2274 9.8441V4.87457C11.2274 4.84493 11.2264 4.81551 11.2239 4.78662H4.28207Z" fill="#F5F5F5"/>
<path d="M9.47425 8.73045C9.89654 8.73045 10.2389 9.07279 10.2389 9.49507V12.7751C10.2389 13.1974 9.89654 13.5397 9.47425 13.5397C9.05202 13.5397 8.70969 13.1974 8.70969 12.7751V9.49507C8.70969 9.07284 9.05202 8.7305 9.47425 8.7305V8.73045ZM3.04587 5.22922C3.4681 5.22922 3.81044 5.57156 3.81044 5.99384V9.27386C3.81044 9.69615 3.4681 10.0385 3.04587 10.0385C2.62359 10.0385 2.28125 9.69615 2.28125 9.27392V5.9939C2.2812 5.57161 2.62353 5.22922 3.04587 5.22922ZM12.4531 5.22922C12.8753 5.22922 13.2177 5.57156 13.2177 5.99384V9.27386C13.2177 9.69615 12.8753 10.0385 12.4531 10.0385C12.0308 10.0385 11.6885 9.69615 11.6885 9.27392V5.9939C11.6885 5.57161 12.0308 5.22922 12.4531 5.22922ZM4.30145 4.46052C4.32271 2.93407 5.65501 1.68252 7.3652 1.51758H8.13363C9.84392 1.68257 11.1761 2.93418 11.1974 4.46052H4.30145Z" fill="#F5F5F5"/>
<path d="M4.57031 1.36987L5.37687 2.76693M10.9345 1.36987L10.1279 2.76693" stroke="#F5F5F5" strokeWidth="0.184085" strokeLinecap="round" strokeLinejoin="round"/>
<path d="M6.72474 3.09252C6.72538 3.30589 6.54879 3.47937 6.33027 3.47996C6.11185 3.48049 5.93424 3.30804 5.9336 3.09467V3.09252C5.933 2.87909 6.1096 2.70567 6.32807 2.70508C6.54648 2.70449 6.7241 2.87689 6.72474 3.09037V3.09252ZM9.67756 3.09252C9.67821 3.30589 9.50161 3.47937 9.28309 3.47996C9.06467 3.48049 8.88706 3.30804 8.88642 3.09467V3.09252C8.88583 2.87909 9.06242 2.70567 9.28089 2.70508C9.49931 2.70449 9.67692 2.87689 9.67756 3.09037V3.09252Z" fill="black"/>
</g>
<defs>
<clipPath id="clip0_8738_105556">
<rect width="10.9368" height="12.25" fill="white" transform="translate(2.28125 1.28955)"/>
</clipPath>
</defs>
</svg>
