<svg width="17" height="16" viewBox="0 0 17 16" fill="none" xmlns="http://www.w3.org/2000/svg">
<path d="M14.6464 11.8365C14.8022 11.9928 14.9189 12.1836 14.9872 12.3935C15.0556 12.6033 15.0735 12.8263 15.0396 13.0443C15.0057 13.2624 14.921 13.4694 14.7922 13.6486C14.6634 13.8278 14.4942 13.9742 14.2984 14.0758C13.1791 14.6741 11.875 14.827 10.6477 14.5038C7.39038 13.6838 2.70838 9.00185 1.88838 5.74451C1.56526 4.51722 1.71815 3.21313 2.31638 2.09385C2.41804 1.89798 2.5644 1.72881 2.74361 1.60003C2.92282 1.47126 3.12983 1.38649 3.34789 1.35261C3.56595 1.31872 3.78893 1.33666 3.99876 1.40498C4.2086 1.4733 4.3994 1.59007 4.55571 1.74585L5.94571 3.13518C6.14616 3.33362 6.2818 3.58812 6.33476 3.86517C6.38771 4.14221 6.35551 4.4288 6.24238 4.68718C6.11858 4.97707 5.9428 5.24188 5.72371 5.46851C4.13438 7.05785 9.33504 12.2585 10.9237 10.6685C11.1504 10.4486 11.4154 10.2722 11.7057 10.1478C11.9641 10.0345 12.2507 10.0022 12.5278 10.0552C12.8049 10.1082 13.0594 10.2439 13.2577 10.4445L14.6464 11.8365Z" fill="white"/>
</svg>
