<svg width="24" height="24" viewBox="0 0 24 24" fill="none" xmlns="http://www.w3.org/2000/svg">
<path d="M19.2052 9.6026C19.2026 9.56673 19.1959 9.5321 19.1845 9.49747C19.1794 9.48357 19.1756 9.46959 19.1693 9.45523C19.149 9.41089 19.1232 9.36865 19.0873 9.33277C19.0873 9.33238 19.0869 9.33192 19.0869 9.33192L11.8784 2.12377C11.8421 2.08743 11.799 2.06165 11.7543 2.041C11.742 2.03549 11.7298 2.03215 11.7171 2.02788C11.6812 2.01522 11.6444 2.00761 11.6064 2.00551C11.5976 2.00466 11.5891 2 11.5802 2H6.81666C5.26328 2 4 3.26367 4 4.81705V19.1834C4 20.7368 5.26367 22 6.81659 22H16.3941C17.947 22 19.2106 20.7368 19.2106 19.1834V9.63087C19.2106 9.62116 19.2056 9.61231 19.2052 9.6026ZM12.0017 3.44188L17.7688 9.20853H13.9736C12.8861 9.20853 12.0017 8.32418 12.0017 7.23662V3.44188ZM16.3941 21.1549H6.81666C5.7291 21.1549 4.84475 20.27 4.84475 19.1829V4.81705C4.84475 3.72949 5.72957 2.84475 6.81666 2.84475H11.1571V7.2367C11.1571 8.79008 12.4207 10.0533 13.9736 10.0533H18.366V19.183C18.366 20.2705 17.4816 21.1549 16.3941 21.1549Z" fill="#A3A3A3"/>
</svg>
