<svg width="74" height="30" viewBox="0 0 74 30" fill="none" xmlns="http://www.w3.org/2000/svg">
<path d="M10.0959 12.6194C10.1447 12.5339 10.216 12.4634 10.302 12.4156C10.388 12.3678 10.4855 12.3445 10.5838 12.3482C10.6912 12.3427 10.7982 12.3648 10.8946 12.4123C10.9911 12.4597 11.0738 12.531 11.135 12.6194C12.4243 14.3904 14.5521 17.9175 16.1214 20.5182C17.1444 22.2149 17.9309 23.5177 18.0931 23.6837C18.6988 24.3029 19.5286 23.9177 20.0116 23.2118C20.3949 22.7255 20.6081 22.1268 20.6185 21.5077C20.6185 21.1535 13.7359 8.35292 13.0424 7.28785C12.3748 6.26366 12.158 6.00482 11.0223 6.00482H10.1627C9.02576 6.00482 8.86104 6.26366 8.1947 7.28785C7.50112 8.35787 0.61853 21.1535 0.61853 21.5077C0.628921 22.1268 0.842113 22.7255 1.22542 23.2118C1.70845 23.9177 2.53827 24.3054 3.14392 23.6837C3.30493 23.5177 4.09141 22.2149 5.11568 20.5182C6.68739 17.9162 8.80654 14.3891 10.0959 12.6194Z" fill="#0072BC"/>
<path d="M28.3799 22V7.45455H37.1583V9.01705H30.1413V13.9318H36.7038V15.4943H30.1413V20.4375H37.2719V22H28.3799ZM41.3557 11.0909L43.9694 15.5511L46.583 11.0909H48.5148L44.9921 16.5455L48.5148 22H46.583L43.9694 17.767L41.3557 22H39.4239L42.8898 16.5455L39.4239 11.0909H41.3557ZM50.9065 26.0909V11.0909H52.5258V12.8239H52.7247C52.8478 12.6345 53.0183 12.393 53.2361 12.0994C53.4586 11.8011 53.7758 11.536 54.1878 11.304C54.6044 11.0672 55.1679 10.9489 55.8781 10.9489C56.7967 10.9489 57.6063 11.1785 58.3071 11.6378C59.0079 12.0971 59.5547 12.7481 59.9477 13.5909C60.3407 14.4337 60.5372 15.428 60.5372 16.5739C60.5372 17.7292 60.3407 18.7306 59.9477 19.5781C59.5547 20.4209 59.0102 21.0743 58.3142 21.5384C57.6182 21.9976 56.8156 22.2273 55.9065 22.2273C55.2058 22.2273 54.6447 22.1113 54.2233 21.8793C53.8019 21.6425 53.4776 21.375 53.2503 21.0767C53.023 20.7737 52.8478 20.5227 52.7247 20.3239H52.5827V26.0909H50.9065ZM52.5543 16.5455C52.5543 17.3693 52.675 18.0961 52.9165 18.7259C53.1579 19.3509 53.5107 19.8409 53.9747 20.196C54.4387 20.5464 55.0069 20.7216 55.6793 20.7216C56.38 20.7216 56.9648 20.5369 57.4335 20.1676C57.907 19.7936 58.2621 19.2917 58.4989 18.6619C58.7403 18.0275 58.8611 17.322 58.8611 16.5455C58.8611 15.7784 58.7427 15.0871 58.506 14.4716C58.274 13.8513 57.9212 13.3613 57.4477 13.0014C56.979 12.6368 56.3895 12.4545 55.6793 12.4545C54.9974 12.4545 54.4245 12.6274 53.9605 12.973C53.4965 13.3139 53.1461 13.7921 52.9094 14.4077C52.6726 15.0185 52.5543 15.7311 52.5543 16.5455ZM67.5258 22.2273C66.541 22.2273 65.6769 21.9929 64.9335 21.5241C64.1949 21.0554 63.6172 20.3996 63.2006 19.5568C62.7886 18.714 62.5827 17.7292 62.5827 16.6023C62.5827 15.4659 62.7886 14.474 63.2006 13.6264C63.6172 12.7789 64.1949 12.1207 64.9335 11.652C65.6769 11.1832 66.541 10.9489 67.5258 10.9489C68.5107 10.9489 69.3724 11.1832 70.1111 11.652C70.8544 12.1207 71.4321 12.7789 71.844 13.6264C72.2607 14.474 72.469 15.4659 72.469 16.6023C72.469 17.7292 72.2607 18.714 71.844 19.5568C71.4321 20.3996 70.8544 21.0554 70.1111 21.5241C69.3724 21.9929 68.5107 22.2273 67.5258 22.2273ZM67.5258 20.7216C68.274 20.7216 68.8895 20.5298 69.3724 20.1463C69.8554 19.7628 70.2129 19.2585 70.4449 18.6335C70.6769 18.0085 70.7929 17.3314 70.7929 16.6023C70.7929 15.8731 70.6769 15.1937 70.4449 14.5639C70.2129 13.9342 69.8554 13.4252 69.3724 13.0369C68.8895 12.6487 68.274 12.4545 67.5258 12.4545C66.7777 12.4545 66.1622 12.6487 65.6793 13.0369C65.1963 13.4252 64.8388 13.9342 64.6068 14.5639C64.3748 15.1937 64.2588 15.8731 64.2588 16.6023C64.2588 17.3314 64.3748 18.0085 64.6068 18.6335C64.8388 19.2585 65.1963 19.7628 65.6793 20.1463C66.1622 20.5298 66.7777 20.7216 67.5258 20.7216Z" fill="white"/>
</svg>
