<svg width="19" height="17" viewBox="0 0 19 17" fill="none" xmlns="http://www.w3.org/2000/svg">
<g id="expo">
<path id="Path 79708" d="M8.96012 6.29734C9.00352 6.22133 9.06692 6.15866 9.14344 6.11614C9.21995 6.07362 9.30665 6.05286 9.39412 6.05613C9.4896 6.05131 9.58473 6.07093 9.67051 6.11314C9.75629 6.15535 9.82987 6.21875 9.8843 6.29734C11.031 7.8724 12.9234 11.0093 14.319 13.3223C15.2289 14.8313 15.9284 15.99 16.0727 16.1376C16.6113 16.6883 17.3493 16.3458 17.7789 15.718C18.1198 15.2854 18.3094 14.753 18.3187 14.2024C18.3187 13.8874 12.1975 2.50288 11.5806 1.55564C10.9869 0.644752 10.7942 0.414551 9.78406 0.414551H9.0196C8.0084 0.414551 7.8619 0.644752 7.26928 1.55564C6.65242 2.50729 0.53125 13.8874 0.53125 14.2024C0.540491 14.753 0.730098 15.2854 1.071 15.718C1.50059 16.3458 2.23861 16.6905 2.77726 16.1376C2.92046 15.99 3.61993 14.8313 4.53089 13.3223C5.92872 11.0082 7.81343 7.8713 8.96012 6.29734Z" fill="#0072BC"/>
</g>
</svg>
