<svg width="24" height="24" viewBox="0 0 24 24" fill="none" xmlns="http://www.w3.org/2000/svg">
<path fillRule="evenodd" clipRule="evenodd" d="M5 5.74286C5 3.67429 6.72143 2 8.84429 2H15.4414C17.5643 2 19.2857 3.67571 19.2857 5.74286C19.2832 6.3683 19.1228 6.98299 18.8194 7.5299C18.516 8.07682 18.0793 8.53826 17.55 8.87143C18.0793 9.2046 18.516 9.66604 18.8194 10.213C19.1228 10.7599 19.2832 11.3746 19.2857 12C19.2857 14.0671 17.5643 15.7429 15.4414 15.7429H15.3571C14.4052 15.7459 13.4853 15.3997 12.7714 14.77V18.2171C12.7714 20.3114 11.0071 22 8.86714 22C6.74714 22 5 20.3286 5 18.2571C5.00251 17.6317 5.16291 17.017 5.46634 16.4701C5.76976 15.9232 6.20639 15.4617 6.73571 15.1286C6.20639 14.7954 5.76976 14.334 5.46634 13.787C5.16291 13.2401 5.00251 12.6254 5 12C5.00251 11.3746 5.16291 10.7599 5.46634 10.213C5.76976 9.66604 6.20639 9.2046 6.73571 8.87143C6.20639 8.53826 5.76976 8.07682 5.46634 7.5299C5.16291 6.98299 5.00251 6.3683 5 5.74286ZM11.5143 9.48429H8.84286C7.41429 9.48429 6.25714 10.61 6.25714 12C6.25714 13.3857 7.40714 14.5071 8.82714 14.5157H11.5114V9.48571L11.5143 9.48429ZM12.7714 12C12.7714 13.39 13.93 14.5157 15.3571 14.5157H15.4414C16.87 14.5157 18.0271 13.39 18.0271 12.0014C18.0271 10.61 16.87 9.48429 15.4414 9.48429H15.3571C13.93 9.48429 12.7714 10.61 12.7714 12ZM8.84429 15.7429H8.82857C7.40857 15.75 6.26 16.8743 6.26 18.2571C6.26 19.6429 7.43143 20.7743 8.86571 20.7743C10.3214 20.7743 11.5129 19.6243 11.5129 18.2171V15.7429H8.84429ZM8.84429 3.22571H11.5143V8.25857H8.84429C7.41571 8.25857 6.25857 7.13143 6.25857 5.74143C6.25857 4.35286 7.41571 3.22571 8.84429 3.22571ZM12.7729 8.25857V3.22571H15.4414C16.87 3.22571 18.0271 4.35286 18.0271 5.74143C18.0271 7.13143 16.87 8.25857 15.4414 8.25857H12.7714H12.7729Z" fill="#A3A3A3"/>
</svg>
