<svg width="24" height="24" viewBox="0 0 24 24" fill="none" xmlns="http://www.w3.org/2000/svg">
<g clipPath="url(#clip0_12434_16760)">
<path fillRule="evenodd" clipRule="evenodd" d="M11.9958 0C9.14698 0.00147807 6.39161 1.01046 4.22235 2.84652C2.05309 4.68259 0.611387 7.22601 0.155028 10.022C-0.301331 12.818 0.25741 15.6842 1.73135 18.1082C3.2053 20.5321 5.49832 22.3558 8.20041 23.253C8.79654 23.3636 9.02108 22.9941 9.02108 22.68C9.02108 22.3658 9.00915 21.455 9.00518 20.4592C5.66688 21.1804 4.96147 19.0505 4.96147 19.0505C4.41701 17.6674 3.63012 17.3039 3.63012 17.3039C2.5412 16.5649 3.7116 16.5788 3.7116 16.5788C4.91776 16.6637 5.55164 17.8097 5.55164 17.8097C6.62069 19.6333 8.35938 19.1058 9.04293 18.7976C9.15024 18.0251 9.46222 17.4995 9.80598 17.2012C7.13931 16.9008 4.33752 15.8774 4.33752 11.3054C4.32099 10.1197 4.76351 8.97305 5.57349 8.10268C5.45029 7.80236 5.03896 6.58923 5.69073 4.94143C5.69073 4.94143 6.69819 4.62135 8.99128 6.16444C10.9582 5.62962 13.0333 5.62962 15.0002 6.16444C17.2913 4.62135 18.2968 4.94143 18.2968 4.94143C18.9505 6.58528 18.5392 7.79841 18.416 8.10268C19.2286 8.97319 19.672 10.1218 19.654 11.3094C19.654 15.8912 16.8462 16.9008 14.1756 17.1952C14.6048 17.5667 14.9883 18.2918 14.9883 19.4061C14.9883 21.0026 14.9744 22.2868 14.9744 22.68C14.9744 22.9981 15.191 23.3695 15.799 23.253C18.5014 22.3557 20.7947 20.5317 22.2686 18.1073C23.7425 15.683 24.301 12.8163 23.8441 10.0201C23.3872 7.2238 21.9448 4.68035 19.7748 2.84461C17.6048 1.00886 14.8488 0.000541194 11.9997 0H11.9958Z" fill="#A3A3A3"/>
<path d="M4.54749 17.632C4.52166 17.6913 4.42628 17.7091 4.34878 17.6676C4.27128 17.6261 4.21366 17.549 4.24148 17.4878C4.2693 17.4265 4.36269 17.4107 4.44019 17.4522C4.51769 17.4937 4.57729 17.5727 4.54749 17.632Z" fill="white"/>
<path d="M5.03514 18.1714C4.99398 18.192 4.9469 18.1978 4.90196 18.1877C4.85701 18.1776 4.81699 18.1523 4.78874 18.1161C4.71124 18.0331 4.69534 17.9185 4.75495 17.8671C4.81456 17.8157 4.92187 17.8395 4.99937 17.9224C5.07687 18.0054 5.09475 18.12 5.03514 18.1714Z" fill="white"/>
<path d="M5.50095 18.857C5.42743 18.9083 5.30223 18.857 5.23269 18.7542C5.21345 18.7358 5.19816 18.7137 5.18771 18.6893C5.17727 18.6648 5.17188 18.6385 5.17188 18.612C5.17188 18.5854 5.17727 18.5591 5.18771 18.5347C5.19816 18.5102 5.21345 18.4881 5.23269 18.4697C5.30621 18.4203 5.4314 18.4697 5.50095 18.5705C5.5705 18.6712 5.57248 18.8056 5.50095 18.857Z" fill="white"/>
<path d="M6.14758 19.5209C6.08201 19.594 5.94887 19.5742 5.83959 19.4754C5.7303 19.3766 5.70446 19.2423 5.77003 19.1712C5.8356 19.1 5.96874 19.1198 6.082 19.2166C6.19527 19.3134 6.21713 19.4497 6.14758 19.5209Z" fill="white"/>
<path d="M7.04227 19.9081C7.01246 20.0009 6.87734 20.0424 6.74222 20.0029C6.60709 19.9634 6.51768 19.8528 6.54351 19.7579C6.56934 19.6631 6.70645 19.6196 6.84356 19.6631C6.98067 19.7066 7.0681 19.8113 7.04227 19.9081Z" fill="white"/>
<path d="M8.03027 19.9752C8.03027 20.0721 7.919 20.155 7.77593 20.157C7.63286 20.159 7.51562 20.08 7.51562 19.9831C7.51562 19.8863 7.6269 19.8033 7.76997 19.8014C7.91304 19.7994 8.03027 19.8764 8.03027 19.9752Z" fill="white"/>
<path d="M8.94238 19.8231C8.96027 19.9199 8.86091 20.0207 8.71784 20.0444C8.57477 20.0681 8.44959 20.0108 8.4317 19.916C8.41382 19.8211 8.51715 19.7184 8.65624 19.6927C8.79534 19.667 8.9245 19.7263 8.94238 19.8231Z" fill="white"/>
</g>
<defs>
<clipPath id="clip0_12434_16760">
<rect width="24" height="24" fill="white"/>
</clipPath>
</defs>
</svg>