<svg width="15" height="15" viewBox="0 0 15 15" fill="none" xmlns="http://www.w3.org/2000/svg">
<path d="M12.3395 5.45108C12.2687 5.50601 11.0186 6.21039 11.0186 7.77661C11.0186 9.5882 12.6093 10.2291 12.6569 10.245C12.6495 10.284 12.4042 11.1227 11.8182 11.9772C11.2957 12.7292 10.7501 13.4799 9.91994 13.4799C9.08983 13.4799 8.8762 12.9977 7.91792 12.9977C6.98404 12.9977 6.652 13.4958 5.89269 13.4958C5.13339 13.4958 4.60358 12.8 3.99443 11.9455C3.28884 10.942 2.71875 9.38311 2.71875 7.90356C2.71875 5.53043 4.26178 4.27184 5.78039 4.27184C6.5873 4.27184 7.25993 4.80164 7.76654 4.80164C8.24874 4.80164 9.00072 4.2401 9.91872 4.2401C10.2666 4.2401 11.5167 4.27184 12.3395 5.45108ZM9.48291 3.23542C9.86257 2.78497 10.1311 2.15994 10.1311 1.53492C10.1311 1.44825 10.1238 1.36035 10.1079 1.28955C9.49024 1.31274 8.75535 1.70094 8.31222 2.21488C7.9643 2.6104 7.63959 3.23542 7.63959 3.86899C7.63959 3.96421 7.65545 4.05943 7.66278 4.08995C7.70184 4.09727 7.76532 4.10582 7.8288 4.10582C8.38302 4.10582 9.08007 3.73471 9.48291 3.23542Z" fill="#E5E5E5"/>
</svg>
