<svg width="25" height="24" viewBox="0 0 25 24" fill="none" xmlns="http://www.w3.org/2000/svg">
<path d="M4.45996 3H19.96C21.693 3 23.1092 4.35646 23.2048 6.06558L23.21 6.25V17.75C23.21 19.483 21.8535 20.8992 20.1444 20.9949L19.96 21H4.45996C2.72693 21 1.31072 19.6435 1.21511 17.9344L1.20996 17.75V6.25C1.20996 4.51697 2.56642 3.10075 4.27554 3.00514L4.45996 3H19.96H4.45996ZM21.71 8.905L12.556 13.6654C12.3752 13.7594 12.1658 13.7751 11.9755 13.7124L11.8639 13.6654L2.70996 8.905V17.75C2.70996 18.6682 3.41707 19.4212 4.31643 19.4942L4.45996 19.5H19.96C20.8781 19.5 21.6312 18.7929 21.7042 17.8935L21.71 17.75V8.905ZM19.96 4.5H4.45996C3.54179 4.5 2.78877 5.20711 2.71576 6.10647L2.70996 6.25V7.214L12.21 12.1547L21.71 7.214V6.25C21.71 5.33183 21.0029 4.57881 20.1035 4.5058L19.96 4.5Z" fill="#A3A3A3"/>
</svg>
