<svg width="61" height="36" viewBox="0 0 61 36" fill="none" xmlns="http://www.w3.org/2000/svg">
<path d="M14.801 9.38929H26.1107V10.2841H15.8379V17.0164H25.5022V17.9112H15.8379V25.308H26.2288V26.2028H14.801V9.38929ZM27.1249 9.38929H28.3264L33.6513 16.7861L39.0944 9.38929L46.4978 6.10352e-05L34.335 17.5533L40.6025 26.1933H39.3545L33.6525 18.3299L27.9255 26.1933H26.7001L33.0154 17.5533L27.1249 9.38929ZM41.0511 10.2841V9.38929H53.937V10.2841H48.0011V26.198H46.9655V10.2841H41.0511Z" fill="white"/>
<path d="M0.647949 9.38922H1.94727L19.818 36L12.4325 26.1968L1.73489 10.6634L1.68836 26.198H0.647949V9.38922Z" fill="white"/>
<path d="M53.8343 25.0336C53.9086 25.0343 53.9814 25.0129 54.0435 24.9722C54.1055 24.9315 54.1541 24.8732 54.183 24.8048C54.2119 24.7364 54.2199 24.661 54.2058 24.5881C54.1918 24.5152 54.1564 24.4481 54.1041 24.3954C54.0519 24.3426 53.9851 24.3066 53.9124 24.2918C53.8396 24.2771 53.7641 24.2843 53.6954 24.3125C53.6267 24.3408 53.568 24.3888 53.5267 24.4505C53.4854 24.5122 53.4633 24.5847 53.4633 24.659C53.4618 24.7083 53.4704 24.7573 53.4885 24.8032C53.5066 24.8491 53.5338 24.8908 53.5685 24.9258C53.6032 24.9609 53.6447 24.9885 53.6904 25.007C53.7361 25.0255 53.785 25.0346 53.8343 25.0336ZM54.8533 24.0481C54.8505 24.191 54.8779 24.3329 54.9337 24.4645C54.9896 24.596 55.0726 24.7143 55.1774 24.8115C55.2822 24.9087 55.4063 24.9827 55.5417 25.0286C55.6771 25.0745 55.8206 25.0912 55.9629 25.0777C56.116 25.0909 56.27 25.0701 56.414 25.0167C56.5581 24.9634 56.6885 24.8788 56.7961 24.7691C56.9036 24.6594 56.9856 24.5273 57.036 24.3823C57.0865 24.2372 57.1043 24.0828 57.088 23.93V21.365H56.5237V23.9229C56.5237 24.3273 56.3196 24.5432 55.9593 24.5432C55.8898 24.5493 55.8197 24.541 55.7536 24.5187C55.6874 24.4964 55.6266 24.4606 55.5749 24.4137C55.5232 24.3667 55.4819 24.3096 55.4533 24.2458C55.4248 24.1821 55.4098 24.1132 55.4093 24.0434L54.8533 24.0481ZM57.8266 24.0159C57.8671 24.6637 58.4088 25.0789 59.2166 25.0789C60.0792 25.0789 60.6185 24.6447 60.6185 23.9503C60.6185 23.4051 60.3107 23.1032 59.565 22.9303L59.1641 22.8324C58.6868 22.7215 58.4983 22.5735 58.4983 22.3146C58.4983 21.9878 58.7954 21.7742 59.2416 21.7742C59.4147 21.7514 59.5899 21.7946 59.7325 21.8952C59.8751 21.9958 59.9746 22.1464 60.0112 22.317H60.5612C60.5247 22.0052 60.3661 21.7206 60.12 21.5256C59.874 21.3306 59.5607 21.2411 59.2488 21.2767C58.4542 21.2767 57.9244 21.7062 57.9244 22.3504C57.9244 22.8825 58.2239 23.1999 58.8789 23.3526L59.3478 23.4659C59.8251 23.5793 60.041 23.7451 60.041 24.0207C60.041 24.3428 59.7082 24.5755 59.2548 24.5755C58.768 24.5755 58.4303 24.3571 58.3826 24.0123L57.8266 24.0159Z" fill="white"/>
</svg>
