<svg width="90" height="24" viewBox="0 0 90 24" fill="none" xmlns="http://www.w3.org/2000/svg">
<path d="M14.3987 14.3861C15.7297 14.3861 16.8087 13.3072 16.8087 11.9763C16.8087 10.6453 15.7297 9.56641 14.3987 9.56641C13.0677 9.56641 11.9886 10.6453 11.9886 11.9763C11.9886 13.3072 13.0677 14.3861 14.3987 14.3861Z" fill="#00D8FF"/>
<path d="M14.3985 17.4952C11.5039 17.566 8.61651 17.1755 5.84469 16.3385C4.5637 15.9329 3.36902 15.2934 2.32124 14.4522C1.92166 14.1653 1.58884 13.7954 1.34558 13.3679C1.10232 12.9403 0.954368 12.4652 0.911865 11.9752C0.911865 10.3816 2.65949 8.82165 5.59209 7.80373C8.43737 6.8993 11.41 6.46004 14.3953 6.50286C17.3411 6.46034 20.2746 6.8915 23.0836 7.77987C24.3161 8.17397 25.4699 8.78162 26.4921 9.57507C26.885 9.84915 27.213 10.2062 27.4527 10.6209C27.6925 11.0356 27.8383 11.4979 27.8798 11.9752C27.8798 13.6316 25.9283 15.3065 22.7767 16.3482C20.0592 17.1572 17.2335 17.544 14.3985 17.4952ZM14.3985 7.65522C11.5426 7.61736 8.69884 8.03377 5.9737 8.88887C3.27637 9.82983 2.07081 11.1155 2.07081 11.9752C2.07081 12.8684 3.37177 14.2745 6.22305 15.249C8.87479 16.0433 11.6356 16.4129 14.4029 16.3439C17.115 16.3942 19.8187 16.0267 22.419 15.2544C25.3808 14.2701 26.7338 12.8695 26.7338 11.9762C26.6855 11.6694 26.5738 11.376 26.4058 11.1147C26.2378 10.8534 26.0173 10.6299 25.7581 10.4586C24.8446 9.75376 23.8146 9.21442 22.7149 8.86502C20.0245 8.02349 17.2172 7.61547 14.3985 7.65629V7.65522Z" fill="#00D8FF"/>
<path d="M8.93118 23.9855C8.48172 23.9961 8.03753 23.8869 7.64431 23.6689C6.26637 22.8721 5.78611 20.5783 6.3672 17.5299C7.7233 11.7303 10.7549 6.45741 15.0848 2.36726C16.0408 1.49351 17.1442 0.796159 18.3437 0.307562C18.7773 0.104988 19.25 0 19.7286 0C20.2072 0 20.68 0.104988 21.1136 0.307562C22.549 1.13361 23.0239 3.66813 22.3517 6.9127C21.6937 9.67134 20.6173 12.313 19.16 14.7461C17.7737 17.2871 15.9931 19.5923 13.8846 21.5756C12.8933 22.4815 11.7428 23.196 10.4913 23.683C9.99229 23.872 9.46465 23.9743 8.93118 23.9855ZM10.1357 9.54262L10.6344 9.83098C9.17151 12.2846 8.11014 14.9561 7.49037 17.7446C6.95805 20.5523 7.47085 22.2423 8.21023 22.6694C8.4303 22.7857 8.67704 22.8421 8.92577 22.8331C10.522 22.6144 11.9991 21.8676 13.1214 20.7116C15.1343 18.8115 16.8339 16.6049 18.1572 14.1737C19.5542 11.8487 20.5871 9.32364 21.2199 6.68613C21.8487 3.6291 21.3066 1.75694 20.5336 1.31031C20.2439 1.19965 19.9345 1.15022 19.6247 1.16515C19.315 1.18007 19.0117 1.25903 18.734 1.39703C17.6667 1.83592 16.6853 2.45979 15.835 3.23993C13.7602 5.1473 12.0035 7.37381 10.6311 9.83531L10.1357 9.54262Z" fill="#00D8FF"/>
<path d="M19.8658 23.9995C18.0898 23.7933 16.4364 22.9907 15.1758 21.723C12.9669 19.7137 11.0979 17.3602 9.64127 14.7536C8.12769 12.2252 7.0296 9.47027 6.38886 6.59395C6.11172 5.32981 6.0596 4.02671 6.23491 2.74447C6.27469 2.26681 6.41917 1.80377 6.65806 1.38822C6.89695 0.972671 7.22442 0.614809 7.61719 0.340045C9.04717 -0.49034 11.4811 0.363891 13.9583 2.56669C16.0192 4.51384 17.7691 6.76559 19.147 9.24338C20.6584 11.7128 21.7669 14.4072 22.4308 17.2253C22.7197 18.537 22.7653 19.8907 22.5653 21.2189C22.5171 21.7088 22.3635 22.1826 22.115 22.6075C21.8665 23.0325 21.5289 23.3986 21.1255 23.6808C20.7417 23.8978 20.3066 24.0078 19.8658 23.9995ZM10.6398 14.1791C12.0367 16.6701 13.8223 18.9222 15.9293 20.8503C18.0975 22.7127 19.8127 23.116 20.5564 22.6835C21.3294 22.2369 21.8953 20.407 21.3153 17.4518C20.6723 14.7592 19.6079 12.185 18.1615 9.82443C16.8448 7.4518 15.1725 5.29483 13.2027 3.42851C10.8696 1.35472 8.97453 0.889659 8.20588 1.33629C7.96451 1.53163 7.76641 1.77505 7.62419 2.05107C7.48197 2.3271 7.39872 2.62968 7.37976 2.9396C7.22714 4.08348 7.27743 5.2453 7.52829 6.37172C8.14395 9.12296 9.19584 11.758 10.6441 14.1769L10.6398 14.1791Z" fill="#00D8FF"/>
<path fillRule="evenodd" clipRule="evenodd" d="M45.2609 19.7068L41.0271 13.3115C42.172 13.2423 43.2429 12.7223 44.0053 11.8654C44.7677 11.0086 45.1596 9.88455 45.0952 8.73943C45.1187 8.09631 45.0062 7.45546 44.765 6.85881C44.5239 6.26215 44.1594 5.72313 43.6956 5.27699C43.2318 4.83085 42.679 4.48765 42.0733 4.26984C41.4677 4.05203 40.823 3.9645 40.1812 4.013H33.8798V19.6954H35.8316V13.4644H38.9595L42.9604 19.6954L45.2609 19.7068ZM39.9469 11.7599H35.8331V5.75898H39.9469C40.3409 5.75898 40.7311 5.83659 41.0952 5.98737C41.4592 6.13816 41.79 6.35917 42.0687 6.63779C42.3473 6.91641 42.5683 7.24717 42.7191 7.6112C42.8699 7.97523 42.9475 8.3654 42.9475 8.75943C42.9475 9.15345 42.8699 9.54362 42.7191 9.90765C42.5683 10.2717 42.3473 10.6024 42.0687 10.8811C41.79 11.1597 41.4592 11.3807 41.0952 11.5315C40.7311 11.6823 40.3409 11.7599 39.9469 11.7599ZM52.5211 19.9883C53.3521 20.0175 54.1804 19.8786 54.9563 19.5798C55.7322 19.281 56.4398 18.8285 57.0364 18.2494L56.1891 17.0964C55.2557 18.0165 53.9962 18.5301 52.6854 18.5252C52.1588 18.5371 51.635 18.445 51.1441 18.254C50.6532 18.063 50.2048 17.777 49.8247 17.4123C49.4447 17.0477 49.1403 16.6115 48.9292 16.129C48.7181 15.6464 48.6044 15.1269 48.5945 14.6003H57.788V14.1531C57.788 10.744 55.7661 8.06361 52.3325 8.06361C51.5705 8.07386 50.8184 8.23737 50.121 8.5444C49.4235 8.85142 48.795 9.29568 48.2729 9.85071C47.7507 10.4057 47.3457 11.0602 47.0818 11.775C46.8179 12.4899 46.7006 13.2505 46.737 14.0116C46.6893 14.7919 46.8049 15.5734 47.0763 16.3065C47.3478 17.0395 47.7691 17.7079 48.3134 18.269C48.8577 18.83 49.513 19.2714 50.2375 19.565C50.962 19.8586 51.7398 19.9979 52.5211 19.974V19.9883ZM56.0491 13.3101H48.6002C48.6008 12.3184 48.9902 11.3664 49.6847 10.6585C50.3793 9.95066 51.3238 9.54327 52.3154 9.52383C52.8126 9.51591 53.3063 9.60879 53.7667 9.79687C54.2271 9.98495 54.6446 10.2643 54.994 10.6182C55.3435 10.972 55.6176 11.3929 55.7999 11.8556C55.9822 12.3182 56.0689 12.813 56.0548 13.3101H56.0491ZM69.505 19.7068V11.8999C69.505 9.14949 67.5045 8.06647 65.1083 8.06647C64.2614 8.03839 63.4183 8.19177 62.6355 8.51632C61.8528 8.84087 61.1486 9.32907 60.5701 9.94818L61.3931 11.1698C61.8231 10.6693 62.3576 10.2691 62.959 9.99758C63.5604 9.72603 64.2141 9.58967 64.8739 9.59812C66.52 9.59812 67.7431 10.4683 67.7431 11.9956V14.0402C67.2702 13.5189 66.6874 13.1093 66.0367 12.8409C65.386 12.5725 64.6838 12.4522 63.9809 12.4886C63.4699 12.4525 62.9569 12.5225 62.4743 12.6941C61.9917 12.8658 61.5497 13.1354 61.1763 13.486C60.8029 13.8366 60.5059 14.2606 60.3042 14.7315C60.1025 15.2023 60.0004 15.7098 60.0042 16.222C60.0063 16.7336 60.1121 17.2395 60.3153 17.709C60.5186 18.1786 60.815 18.602 61.1866 18.9537C61.5582 19.3054 61.9973 19.578 62.4774 19.7551C62.9574 19.9322 63.4684 20.0101 63.9794 19.984C64.6825 20.0066 65.3823 19.878 66.0313 19.6069C66.6804 19.3357 67.2637 18.9283 67.7417 18.4123V19.6982L69.505 19.7068ZM64.6153 18.7195C64.2641 18.7626 63.9077 18.7305 63.5697 18.6256C63.2318 18.5206 62.92 18.3451 62.655 18.1106C62.39 17.8761 62.1778 17.588 62.0325 17.2654C61.8872 16.9428 61.812 16.593 61.812 16.2391C61.812 15.8853 61.8872 15.5355 62.0325 15.2129C62.1778 14.8902 62.39 14.6021 62.655 14.3677C62.92 14.1332 63.2318 13.9576 63.5697 13.8527C63.9077 13.7477 64.2641 13.7157 64.6153 13.7587C65.2108 13.7325 65.8041 13.8466 66.3475 14.0918C66.8908 14.337 67.3689 14.7065 67.7431 15.1704V17.3136C67.3688 17.7774 66.8907 18.1468 66.3474 18.392C65.8041 18.6372 65.2108 18.7513 64.6153 18.7252V18.7195ZM78.0312 19.9897C78.8342 20.0307 79.6349 19.8717 80.3613 19.5271C81.0878 19.1825 81.7174 18.663 82.1936 18.0151L81.0176 16.9335C80.697 17.3993 80.266 17.7783 79.763 18.0366C79.26 18.2949 78.7008 18.4245 78.1355 18.4137C77.5803 18.4097 77.0321 18.2894 76.5262 18.0606C76.0203 17.8319 75.568 17.4998 75.1982 17.0856C74.8284 16.6715 74.5495 16.1845 74.3794 15.6561C74.2092 15.1276 74.1516 14.5694 74.2103 14.0174C74.1527 13.4669 74.2113 12.9106 74.3822 12.3842C74.5531 11.8578 74.8326 11.3732 75.2025 10.9615C75.5724 10.5499 76.0246 10.2204 76.5298 9.99443C77.035 9.76844 77.582 9.65096 78.1355 9.64956C78.702 9.63155 79.2638 9.75797 79.768 10.0169C80.2722 10.2759 80.7022 10.6588 81.0176 11.1298L82.1936 10.0482C81.7174 9.40034 81.0878 8.8808 80.3613 8.53618C79.6349 8.19155 78.8342 8.03261 78.0312 8.07361C77.2605 8.06439 76.4962 8.21402 75.7859 8.51317C75.0756 8.81233 74.4345 9.25459 73.9027 9.81239C73.3709 10.3702 72.9597 11.0316 72.6947 11.7553C72.4298 12.479 72.3168 13.2495 72.3628 14.0188C72.3139 14.7895 72.4247 15.5619 72.6883 16.2877C72.9519 17.0136 73.3626 17.6772 73.8946 18.2369C74.4267 18.7966 75.0686 19.2405 75.7801 19.5406C76.4917 19.8408 77.2575 19.9907 78.0298 19.9811L78.0312 19.9897ZM87.5319 19.9897C87.9154 20.015 88.3 19.9636 88.6634 19.8385C89.0267 19.7133 89.3615 19.517 89.6481 19.261L89.1308 17.9437C88.8092 18.2528 88.3781 18.4218 87.932 18.4137C87.1575 18.4137 86.7789 17.8022 86.7789 16.9564V9.90246H89.0808V8.35079H86.7789V5.24747H85.0156V8.35079H83.1338V9.90246H85.0156V17.3321C84.9633 17.6809 84.9911 18.037 85.0968 18.3735C85.2026 18.71 85.3836 19.0179 85.6261 19.274C85.8686 19.5301 86.1662 19.7277 86.4964 19.8517C86.8266 19.9757 87.1808 20.0229 87.5319 19.9897Z" fill="#00D8FF"/>
</svg>
