<svg width="155" height="30" viewBox="0 0 155 30" fill="none" xmlns="http://www.w3.org/2000/svg">
<path d="M14.4308 17.3861C15.7618 17.3861 16.8408 16.3072 16.8408 14.9763C16.8408 13.6453 15.7618 12.5664 14.4308 12.5664C13.0998 12.5664 12.0208 13.6453 12.0208 14.9763C12.0208 16.3072 13.0998 17.3861 14.4308 17.3861Z" fill="#00D8FF"/>
<path d="M14.4306 20.4952C11.536 20.5661 8.64861 20.1756 5.87679 19.3385C4.5958 18.933 3.40112 18.2934 2.35335 17.4523C1.95377 17.1654 1.62095 16.7955 1.37768 16.3679C1.13442 15.9404 0.986473 15.4653 0.94397 14.9752C0.94397 13.3817 2.6916 11.8217 5.62419 10.8038C8.46947 9.89936 11.4421 9.4601 14.4274 9.50293C17.3732 9.4604 20.3067 9.89157 23.1157 10.7799C24.3482 11.174 25.502 11.7817 26.5242 12.5751C26.9171 12.8492 27.2451 13.2062 27.4848 13.6209C27.7246 14.0357 27.8704 14.498 27.9119 14.9752C27.9119 16.6317 25.9604 18.3065 22.8088 19.3483C20.0913 20.1572 17.2656 20.5441 14.4306 20.4952ZM14.4306 10.6553C11.5747 10.6174 8.73095 11.0338 6.00581 11.8889C3.30847 12.8299 2.10291 14.1156 2.10291 14.9752C2.10291 15.8685 3.40388 17.2745 6.25516 18.2491C8.90689 19.0434 11.6677 19.4129 14.435 19.344C17.1471 19.3942 19.8508 19.0268 22.4511 18.2545C25.4129 17.2702 26.766 15.8696 26.766 14.9763C26.7176 14.6695 26.6059 14.376 26.4379 14.1147C26.2699 13.8534 26.0494 13.63 25.7902 13.4586C24.8767 12.7538 23.8467 12.2145 22.7471 11.8651C20.0566 11.0235 17.2494 10.6155 14.4306 10.6564V10.6553Z" fill="#00D8FF"/>
<path d="M8.96353 26.9855C8.51406 26.9961 8.06988 26.8869 7.67666 26.6689C6.29872 25.8721 5.81846 23.5783 6.39955 20.5299C7.75565 14.7303 10.7872 9.45741 15.1171 5.36726C16.0731 4.49351 17.1765 3.79616 18.376 3.30756C18.8096 3.10499 19.2824 3 19.761 3C20.2396 3 20.7124 3.10499 21.146 3.30756C22.5814 4.13361 23.0562 6.66813 22.3841 9.9127C21.726 12.6713 20.6497 15.313 19.1924 17.7461C17.806 20.2871 16.0254 22.5923 13.917 24.5756C12.9256 25.4815 11.7751 26.196 10.5236 26.683C10.0246 26.872 9.49699 26.9743 8.96353 26.9855ZM10.168 12.5426L10.6667 12.831C9.20386 15.2846 8.14249 17.9561 7.52271 20.7446C6.9904 23.5523 7.5032 25.2423 8.24258 25.6694C8.46265 25.7857 8.70939 25.8421 8.95812 25.8331C10.5544 25.6144 12.0315 24.8676 13.1537 23.7116C15.1666 21.8115 16.8662 19.6049 18.1895 17.1737C19.5866 14.8487 20.6194 12.3236 21.2522 9.68613C21.881 6.6291 21.339 4.75694 20.566 4.31031C20.2763 4.19965 19.9668 4.15022 19.6571 4.16515C19.3473 4.18007 19.044 4.25903 18.7663 4.39703C17.699 4.83592 16.7176 5.45979 15.8673 6.23993C13.7926 8.1473 12.0358 10.3738 10.6635 12.8353L10.168 12.5426Z" fill="#00D8FF"/>
<path d="M19.8981 26.9995C18.1222 26.7933 16.4688 25.9907 15.2081 24.723C12.9993 22.7137 11.1302 20.3602 9.67361 17.7536C8.16003 15.2252 7.06195 12.4703 6.42121 9.59395C6.14407 8.32981 6.09195 7.02671 6.26726 5.74447C6.30704 5.26681 6.45151 4.80377 6.69041 4.38822C6.9293 3.97267 7.25677 3.61481 7.64954 3.34004C9.07952 2.50966 11.5134 3.36389 13.9907 5.56669C16.0515 7.51384 17.8014 9.76559 19.1793 12.2434C20.6908 14.7128 21.7993 17.4072 22.4632 20.2253C22.7521 21.537 22.7976 22.8907 22.5976 24.2189C22.5495 24.7088 22.3959 25.1826 22.1474 25.6075C21.8988 26.0325 21.5613 26.3986 21.1579 26.6808C20.774 26.8978 20.339 27.0078 19.8981 26.9995ZM10.6721 17.1791C12.0691 19.6701 13.8547 21.9222 15.9616 23.8503C18.1299 25.7127 19.845 26.116 20.5887 25.6835C21.3617 25.2369 21.9276 23.407 21.3476 20.4518C20.7046 17.7592 19.6403 15.185 18.1939 12.8244C16.8772 10.4518 15.2048 8.29483 13.235 6.42851C10.9019 4.35472 9.00688 3.88966 8.23823 4.33629C7.99685 4.53163 7.79876 4.77505 7.65654 5.05107C7.51432 5.3271 7.43107 5.62968 7.41211 5.9396C7.25949 7.08348 7.30978 8.2453 7.56064 9.37172C8.1763 12.123 9.22819 14.758 10.6764 17.1769L10.6721 17.1791Z" fill="#00D8FF"/>
<path d="M35.6732 22V7.45455H40.588C41.7244 7.45455 42.6571 7.64867 43.3863 8.03693C44.1155 8.42045 44.6552 8.94839 45.0056 9.62074C45.356 10.2931 45.5312 11.0578 45.5312 11.9148C45.5312 12.7718 45.356 13.5317 45.0056 14.1946C44.6552 14.8575 44.1178 15.3783 43.3934 15.7571C42.669 16.1312 41.7433 16.3182 40.6164 16.3182H36.6391V14.7273H40.5596C41.3361 14.7273 41.9611 14.6136 42.4346 14.3864C42.9128 14.1591 43.2585 13.8371 43.4715 13.4205C43.6893 12.9991 43.7982 12.4972 43.7982 11.9148C43.7982 11.3324 43.6893 10.8234 43.4715 10.3878C43.2537 9.95218 42.9057 9.616 42.4275 9.37926C41.9493 9.13778 41.3172 9.01705 40.5312 9.01705H37.4346V22H35.6732ZM42.5198 15.4659L46.0994 22H44.0539L40.5312 15.4659H42.5198ZM52.6956 22.2273C51.6445 22.2273 50.7377 21.9953 49.9754 21.5312C49.2179 21.0625 48.6331 20.4091 48.2212 19.571C47.814 18.7282 47.6104 17.7481 47.6104 16.6307C47.6104 15.5133 47.814 14.5284 48.2212 13.6761C48.6331 12.8191 49.206 12.1515 49.9399 11.6733C50.6786 11.1903 51.5403 10.9489 52.5251 10.9489C53.0933 10.9489 53.6544 11.0436 54.2084 11.233C54.7624 11.4223 55.2666 11.7301 55.7212 12.1562C56.1757 12.5777 56.5379 13.1364 56.8078 13.8324C57.0777 14.5284 57.2126 15.3854 57.2126 16.4034V17.1136H48.8036V15.6648H55.5081C55.5081 15.0492 55.385 14.5 55.1388 14.017C54.8973 13.5341 54.5517 13.1529 54.1019 12.8736C53.6568 12.5942 53.1312 12.4545 52.5251 12.4545C51.8575 12.4545 51.2799 12.6203 50.7922 12.9517C50.3092 13.2784 49.9376 13.7045 49.6771 14.2301C49.4167 14.7557 49.2865 15.3191 49.2865 15.9205V16.8864C49.2865 17.7102 49.4286 18.4086 49.7126 18.9815C50.0015 19.5497 50.4016 19.983 50.9129 20.2812C51.4243 20.5748 52.0185 20.7216 52.6956 20.7216C53.1359 20.7216 53.5337 20.66 53.8888 20.5369C54.2486 20.4091 54.5588 20.2197 54.8192 19.9688C55.0796 19.7131 55.2808 19.3958 55.4229 19.017L57.0422 19.4716C56.8717 20.0208 56.5853 20.5038 56.1828 20.9205C55.7804 21.3324 55.2832 21.6544 54.6913 21.8864C54.0995 22.1136 53.4342 22.2273 52.6956 22.2273ZM62.9726 22.2557C62.2813 22.2557 61.6539 22.1255 61.0905 21.8651C60.527 21.5999 60.0796 21.2188 59.7482 20.7216C59.4167 20.2197 59.251 19.6136 59.251 18.9034C59.251 18.2784 59.3741 17.7718 59.6203 17.3835C59.8665 16.9905 60.1956 16.6828 60.6075 16.4602C61.0195 16.2377 61.474 16.072 61.9712 15.9631C62.4731 15.8494 62.9773 15.7595 63.484 15.6932C64.1468 15.608 64.6842 15.544 65.0962 15.5014C65.5128 15.4541 65.8159 15.3759 66.0053 15.267C66.1994 15.1581 66.2965 14.9687 66.2965 14.6989V14.642C66.2965 13.9413 66.1047 13.3968 65.7212 13.0085C65.3424 12.6203 64.7671 12.4261 63.9953 12.4261C63.1951 12.4261 62.5678 12.6013 62.1132 12.9517C61.6587 13.3021 61.3391 13.6761 61.1544 14.0739L59.5635 13.5057C59.8476 12.8428 60.2264 12.3267 60.6999 11.9574C61.1781 11.5833 61.6989 11.3229 62.2624 11.1761C62.8305 11.0246 63.3893 10.9489 63.9385 10.9489C64.2889 10.9489 64.6913 10.9915 65.1459 11.0767C65.6052 11.1572 66.0479 11.3253 66.474 11.581C66.9049 11.8366 67.2624 12.2225 67.5465 12.7386C67.8305 13.2547 67.9726 13.946 67.9726 14.8125V22H66.2965V20.5227H66.2112C66.0976 20.7595 65.9082 21.0128 65.643 21.2827C65.3779 21.5526 65.0251 21.7822 64.5848 21.9716C64.1445 22.161 63.6071 22.2557 62.9726 22.2557ZM63.2283 20.75C63.8912 20.75 64.4499 20.6198 64.9044 20.3594C65.3637 20.099 65.7093 19.7628 65.9413 19.3509C66.1781 18.9389 66.2965 18.5057 66.2965 18.0511V16.517C66.2254 16.6023 66.0692 16.6804 65.8277 16.7514C65.591 16.8177 65.3163 16.8769 65.0038 16.929C64.6961 16.9763 64.3954 17.0189 64.1019 17.0568C63.813 17.09 63.5787 17.1184 63.3987 17.142C62.9631 17.1989 62.5559 17.2912 62.1771 17.419C61.8031 17.5421 61.5001 17.7292 61.268 17.9801C61.0408 18.2263 60.9271 18.5625 60.9271 18.9886C60.9271 19.571 61.1426 20.0114 61.5734 20.3097C62.009 20.6032 62.5607 20.75 63.2283 20.75ZM75.4637 22.2273C74.441 22.2273 73.5603 21.9858 72.8217 21.5028C72.083 21.0199 71.5148 20.3546 71.1171 19.5071C70.7194 18.6596 70.5205 17.6913 70.5205 16.6023C70.5205 15.4943 70.7241 14.5166 71.1313 13.669C71.5433 12.8168 72.1162 12.1515 72.8501 11.6733C73.5887 11.1903 74.4505 10.9489 75.4353 10.9489C76.2023 10.9489 76.8936 11.0909 77.5092 11.375C78.1247 11.6591 78.629 12.0568 79.022 12.5682C79.4149 13.0795 79.6588 13.6761 79.7535 14.358H78.0773C77.9495 13.8608 77.6654 13.4205 77.2251 13.0369C76.7895 12.6487 76.2023 12.4545 75.4637 12.4545C74.8103 12.4545 74.2374 12.625 73.745 12.9659C73.2573 13.3021 72.8761 13.7779 72.6015 14.3935C72.3316 15.0043 72.1967 15.7216 72.1967 16.5455C72.1967 17.3883 72.3292 18.1222 72.5944 18.7472C72.8643 19.3722 73.2431 19.8575 73.7308 20.2031C74.2232 20.5488 74.8008 20.7216 75.4637 20.7216C75.8993 20.7216 76.2947 20.6458 76.6498 20.4943C77.0049 20.3428 77.3056 20.125 77.5518 19.8409C77.798 19.5568 77.9732 19.2159 78.0773 18.8182H79.7535C79.6588 19.4621 79.4244 20.0421 79.0504 20.5582C78.681 21.0696 78.191 21.4768 77.5802 21.7798C76.9741 22.0781 76.2686 22.2273 75.4637 22.2273ZM86.9481 11.0909V12.5114H81.2947V11.0909H86.9481ZM82.9424 8.47727H84.6185V18.875C84.6185 19.3485 84.6872 19.7036 84.8245 19.9403C84.9666 20.1723 85.1465 20.3286 85.3643 20.4091C85.5868 20.4848 85.8212 20.5227 86.0674 20.5227C86.2521 20.5227 86.4036 20.5133 86.522 20.4943C86.6403 20.4706 86.735 20.4517 86.806 20.4375L87.147 21.9432C87.0333 21.9858 86.8747 22.0284 86.6711 22.071C86.4675 22.1184 86.2095 22.142 85.897 22.142C85.4235 22.142 84.9595 22.0402 84.5049 21.8366C84.0551 21.633 83.681 21.3229 83.3827 20.9062C83.0892 20.4896 82.9424 19.964 82.9424 19.3295V8.47727ZM106.856 7.45455V22H105.151L97.2251 10.5795H97.083V22H95.3217V7.45455H97.0262L104.981 18.9034H105.123V7.45455H106.856ZM113.363 22.2557C112.672 22.2557 112.045 22.1255 111.481 21.8651C110.918 21.5999 110.47 21.2188 110.139 20.7216C109.807 20.2197 109.642 19.6136 109.642 18.9034C109.642 18.2784 109.765 17.7718 110.011 17.3835C110.257 16.9905 110.586 16.6828 110.998 16.4602C111.41 16.2377 111.865 16.072 112.362 15.9631C112.864 15.8494 113.368 15.7595 113.875 15.6932C114.537 15.608 115.075 15.544 115.487 15.5014C115.903 15.4541 116.206 15.3759 116.396 15.267C116.59 15.1581 116.687 14.9687 116.687 14.6989V14.642C116.687 13.9413 116.495 13.3968 116.112 13.0085C115.733 12.6203 115.158 12.4261 114.386 12.4261C113.586 12.4261 112.958 12.6013 112.504 12.9517C112.049 13.3021 111.73 13.6761 111.545 14.0739L109.954 13.5057C110.238 12.8428 110.617 12.3267 111.09 11.9574C111.569 11.5833 112.09 11.3229 112.653 11.1761C113.221 11.0246 113.78 10.9489 114.329 10.9489C114.68 10.9489 115.082 10.9915 115.537 11.0767C115.996 11.1572 116.438 11.3253 116.865 11.581C117.296 11.8366 117.653 12.2225 117.937 12.7386C118.221 13.2547 118.363 13.946 118.363 14.8125V22H116.687V20.5227H116.602C116.488 20.7595 116.299 21.0128 116.034 21.2827C115.769 21.5526 115.416 21.7822 114.975 21.9716C114.535 22.161 113.998 22.2557 113.363 22.2557ZM113.619 20.75C114.282 20.75 114.84 20.6198 115.295 20.3594C115.754 20.099 116.1 19.7628 116.332 19.3509C116.569 18.9389 116.687 18.5057 116.687 18.0511V16.517C116.616 16.6023 116.46 16.6804 116.218 16.7514C115.982 16.8177 115.707 16.8769 115.394 16.929C115.087 16.9763 114.786 17.0189 114.492 17.0568C114.204 17.09 113.969 17.1184 113.789 17.142C113.354 17.1989 112.947 17.2912 112.568 17.419C112.194 17.5421 111.891 17.7292 111.659 17.9801C111.431 18.2263 111.318 18.5625 111.318 18.9886C111.318 19.571 111.533 20.0114 111.964 20.3097C112.4 20.6032 112.951 20.75 113.619 20.75ZM126.167 11.0909V12.5114H120.513V11.0909H126.167ZM122.161 8.47727H123.837V18.875C123.837 19.3485 123.906 19.7036 124.043 19.9403C124.185 20.1723 124.365 20.3286 124.583 20.4091C124.806 20.4848 125.04 20.5227 125.286 20.5227C125.471 20.5227 125.622 20.5133 125.741 20.4943C125.859 20.4706 125.954 20.4517 126.025 20.4375L126.366 21.9432C126.252 21.9858 126.093 22.0284 125.89 22.071C125.686 22.1184 125.428 22.142 125.116 22.142C124.642 22.142 124.178 22.0402 123.724 21.8366C123.274 21.633 122.9 21.3229 122.601 20.9062C122.308 20.4896 122.161 19.964 122.161 19.3295V8.47727ZM128.688 22V11.0909H130.364V22H128.688ZM129.54 9.27273C129.214 9.27273 128.932 9.16146 128.695 8.93892C128.463 8.71638 128.347 8.44886 128.347 8.13636C128.347 7.82386 128.463 7.55634 128.695 7.33381C128.932 7.11127 129.214 7 129.54 7C129.867 7 130.146 7.11127 130.378 7.33381C130.615 7.55634 130.734 7.82386 130.734 8.13636C130.734 8.44886 130.615 8.71638 130.378 8.93892C130.146 9.16146 129.867 9.27273 129.54 9.27273ZM142.355 11.0909L138.321 22H136.616L132.582 11.0909H134.4L137.412 19.7841H137.525L140.537 11.0909H142.355ZM148.75 22.2273C147.699 22.2273 146.792 21.9953 146.03 21.5312C145.273 21.0625 144.688 20.4091 144.276 19.571C143.869 18.7282 143.665 17.7481 143.665 16.6307C143.665 15.5133 143.869 14.5284 144.276 13.6761C144.688 12.8191 145.261 12.1515 145.995 11.6733C146.733 11.1903 147.595 10.9489 148.58 10.9489C149.148 10.9489 149.709 11.0436 150.263 11.233C150.817 11.4223 151.321 11.7301 151.776 12.1562C152.23 12.5777 152.593 13.1364 152.863 13.8324C153.132 14.5284 153.267 15.3854 153.267 16.4034V17.1136H144.858V15.6648H151.563C151.563 15.0492 151.44 14.5 151.193 14.017C150.952 13.5341 150.606 13.1529 150.157 12.8736C149.711 12.5942 149.186 12.4545 148.58 12.4545C147.912 12.4545 147.335 12.6203 146.847 12.9517C146.364 13.2784 145.992 13.7045 145.732 14.2301C145.471 14.7557 145.341 15.3191 145.341 15.9205V16.8864C145.341 17.7102 145.483 18.4086 145.767 18.9815C146.056 19.5497 146.456 19.983 146.968 20.2812C147.479 20.5748 148.073 20.7216 148.75 20.7216C149.191 20.7216 149.588 20.66 149.943 20.5369C150.303 20.4091 150.613 20.2197 150.874 19.9688C151.134 19.7131 151.336 19.3958 151.478 19.017L153.097 19.4716C152.926 20.0208 152.64 20.5038 152.238 20.9205C151.835 21.3324 151.338 21.6544 150.746 21.8864C150.154 22.1136 149.489 22.2273 148.75 22.2273Z" fill="white"/>
</svg>
