<svg width="21" height="20" viewBox="0 0 21 20" fill="none" xmlns="http://www.w3.org/2000/svg">
<path d="M11.7966 3.20511C11.4957 2.92049 11.021 2.93371 10.7364 3.23464C10.4517 3.53558 10.465 4.01027 10.7659 4.29489L16.0049 9.25H3.28125C2.86704 9.25 2.53125 9.58579 2.53125 10C2.53125 10.4142 2.86704 10.75 3.28125 10.75H16.0072L10.7659 15.7073C10.465 15.9919 10.4517 16.4666 10.7364 16.7675C11.021 17.0684 11.4957 17.0817 11.7966 16.797L18.2138 10.7276C18.3801 10.5703 18.4801 10.3702 18.5138 10.1614C18.5252 10.1094 18.5312 10.0554 18.5312 10C18.5312 9.94241 18.5248 9.88633 18.5125 9.83246C18.4775 9.62667 18.3779 9.42976 18.2138 9.27455L11.7966 3.20511Z" fill="#0077E6"/>
</svg>
