<svg  xmlns="http://www.w3.org/2000/svg" width="105.23" height="63.011" viewBox="0 0 105.23 63.011"><g id="Sanket_s_signature_" data-name="Sanket's signature " transform="translate(-0.046 0.008)"><path id="Path_80070" data-name="Path 80070" d="M201.1,153.07h.007c-.19.138-.473.164-.578.42l.315-.105.184-.1a.263.263,0,0,0,.072-.217Z" transform="translate(-116.001 -120.286)" fill="none"></path><path id="Path_80071" data-name="Path 80071" d="M204.1,151.895l.217-.1.138-.066C204.258,151.619,204.192,151.783,204.1,151.895Z" transform="translate(-117.227 -119.813)" fill="none"></path><path id="Path_80072" data-name="Path 80072" d="M103.688,127.926c.519-1.477.991-2.974,1.431-4.477a23.031,23.031,0,0,0,.657-3.046,10.681,10.681,0,0,0-.053-3.795,1.812,1.812,0,0,0-.158-.545c-.276-.486-.571-.965-1.261-.86h-.249a4.143,4.143,0,0,0-1.123.144,11.384,11.384,0,0,0-3.283,1.805,10.3,10.3,0,0,0-1.871,1.97c-.289.42-.551.853-.814,1.313A26.392,26.392,0,0,0,95,124.7c-.446,1.195-.847,2.4-1.221,3.617-.328,1.07-.657,2.16-.886,3.283a34.322,34.322,0,0,0-.755,4.963,5.154,5.154,0,0,0,.722,3.44,7.445,7.445,0,0,0,2.37.8c1,.236,2.042.361,3.066.519a4.33,4.33,0,0,0,.512,0c.092-.249.171-.466.243-.657.506-1.418,1-2.843,1.517-4.254.394-1.077.808-2.147,1.208-3.217C102.414,131.392,103.077,129.672,103.688,127.926Z" transform="translate(-78.751 -107.274)" fill="none"></path><path id="Path_80073" data-name="Path 80073" d="M105.167,158.81c-.184.611-.361,1.221-.525,1.838q-.44,1.6-.867,3.191a4.967,4.967,0,0,0-.066.525,3.833,3.833,0,0,0,.42-.066c1.4-.394,2.79-.86,4.169-1.352a23.9,23.9,0,0,0,3.637-1.661,6.447,6.447,0,0,0,1.674-1.359,3.59,3.59,0,0,0,.289-.414.42.42,0,0,0-.059-.532,1.668,1.668,0,0,0-1.1-.584c-.886-.079-1.773-.2-2.665-.217-1.372,0-2.751,0-4.129.053C105.437,158.246,105.318,158.331,105.167,158.81Z" transform="translate(-82.745 -122.041)" fill="none"></path><path id="Path_80074" data-name="Path 80074" d="M200.223,153.819l.151-.079-.164.039Z" transform="translate(-115.891 -120.516)" fill="none"></path><path id="Path_80075" data-name="Path 80075" d="M133.045,148.05a3.642,3.642,0,0,0-.5.657,23.128,23.128,0,0,0-2.094,5.095,5.3,5.3,0,0,0-.131.558c-.033.171-.053.341-.072.506a.079.079,0,0,0,.079.1l.532.053c.657.066,1.9-1.891,2.134-2.4a1.549,1.549,0,0,0,0-1.372c-.053-.092-.118-.177-.171-.276a.94.94,0,0,1-.053-.144,1,1,0,0,1,.046-.46c.072-.276.23-1.589.374-2.258a.092.092,0,0,0-.144-.053Z" transform="translate(-91.859 -118.556)" fill="none"></path><path id="Path_80076" data-name="Path 80076" d="M205.405,151.19Z" transform="translate(-117.672 -119.64)" fill="none"></path><path id="Path_80077" data-name="Path 80077" d="M139.73,45.583l.053-.02-.046-.013Z" transform="translate(-47.979 -15.648)" fill="none"></path><path id="Path_80078" data-name="Path 80078" d="M205.45,151.11Z" transform="translate(-117.691 -119.613)" fill="none"></path><path id="Path_80079" data-name="Path 80079" d="M138.289,46.173l.007-.033-.046.02Z" transform="translate(-47.471 -15.851)" fill="none"></path><path id="Path_80080" data-name="Path 80080" d="M100.177,125.911c1-3.342,2.528-7.274,1.7-10.78a4.714,4.714,0,0,0-.716-1.694,5.252,5.252,0,0,0-3.939-2.37,7.648,7.648,0,0,0-4.018.965,14.64,14.64,0,0,0-5.5,5.4,39.391,39.391,0,0,0-4.215,9.762,28.033,28.033,0,0,0-1.11,6.073c-.112,1.727-.263,4.084.762,5.58a4.517,4.517,0,0,0,.781.84,9.2,9.2,0,0,0,5.035,1.891l1.891.263a2.062,2.062,0,0,1,.361.112,2.178,2.178,0,0,1-.046.276c-.335,1.182-.657,2.363-1,3.552a10.26,10.26,0,0,1-.735,2.8c-.46.624-1.07.571-1.878.709q-3.151.545-6.276,1.254c-2.363.538-5.108.88-7.163,2.206a4.34,4.34,0,0,0-1.93,2.423c-.243.8-.657,1.668.079,2.383a1.313,1.313,0,0,0,1.628.1c1.11-.9,1.208-2.042,2.685-2.738a12.907,12.907,0,0,1,2.593-.893c3.092-.709,6.224-1.313,9.369-1.714a3.033,3.033,0,0,1-.177,1.385c-.519,3.132-1.392,6.5-1.077,9.69a7.025,7.025,0,0,0,2.193,4.7,2.8,2.8,0,0,0,1.812.775c1.037,0,1.5-.978,1.9-1.786a2.738,2.738,0,0,0,.046-2.193c-.709-1.635-2.173-.657-2.442.657-.755-.965-.657-2.4-.551-3.558.118-1.313.289-2.574.519-3.847.374-2.068.735-4.136,1.1-6.2a1.728,1.728,0,0,1,.118-.427l.506-.151c.7-.184,1.392-.361,2.088-.565a31.013,31.013,0,0,0,8.627-3.657c1.97-1.313,3.552-3.5,1.759-5.725-1.97-2.409-6.756-1.241-9.414-1.313a3.138,3.138,0,0,1-.4-.072.867.867,0,0,1,.079-.657C96.8,134.853,98.792,130.507,100.177,125.911ZM99.14,142c.893,0,1.779.138,2.665.217a1.667,1.667,0,0,1,1.1.584.42.42,0,0,1,.059.532,3.6,3.6,0,0,1-.289.414A6.447,6.447,0,0,1,101,145.1a23.9,23.9,0,0,1-3.637,1.661c-1.379.492-2.764.959-4.169,1.352a3.83,3.83,0,0,1-.42.066,4.971,4.971,0,0,1,.066-.525q.42-1.6.867-3.191c.164-.617.341-1.228.525-1.838.151-.479.269-.565.781-.578,1.372-.026,2.751-.072,4.123-.053Zm-5.528-7.077c-.512,1.411-1.011,2.836-1.517,4.254-.072.217-.151.433-.243.657a4.337,4.337,0,0,1-.512,0c-1.024-.158-2.061-.282-3.066-.519a7.445,7.445,0,0,1-2.37-.8,5.154,5.154,0,0,1-.722-3.44,34.322,34.322,0,0,1,.755-4.963c.256-1.09.558-2.18.886-3.283.374-1.215.775-2.423,1.221-3.617a26.392,26.392,0,0,1,1.97-4.267c.263-.44.525-.873.814-1.313a10.3,10.3,0,0,1,1.871-1.97,11.384,11.384,0,0,1,3.283-1.805,4.143,4.143,0,0,1,1.123-.144c.079,0,.171.039.249,0,.657-.105.985.374,1.261.86a1.812,1.812,0,0,1,.158.545,10.682,10.682,0,0,1,.053,3.795,23.031,23.031,0,0,1-.657,3.046c-.44,1.5-.913,3-1.431,4.477-.611,1.746-1.274,3.466-1.917,5.193C94.42,132.772,94.006,133.842,93.612,134.918Z" transform="translate(-71.8 -105.857)" fill="#f4f4f5"></path><path id="Path_80081" data-name="Path 80081" d="M178.246,131.5a4,4,0,0,0,5.5.1,8.626,8.626,0,0,0,1.359-1.759l.3-.486c-.112.184,1.622.5,1.759.506a3.69,3.69,0,0,0,2.016-.223,5.411,5.411,0,0,0,1.668-2.167,7.5,7.5,0,0,0,.945-2.915,2.449,2.449,0,0,0-.374-1.681,1.914,1.914,0,0,0-.171-.217c-2.016-2.311-2.3,3.69-3.44,4.077a.578.578,0,0,1-.657-.177.912.912,0,0,1-.125-.512c0-1.346.276-2.692.322-4.031s0-2.744.053-4.11a32.649,32.649,0,0,1,.433-4.445c.072-.414.125-.834.2-1.254a.657.657,0,0,1,.171-.322c.328-.348.657-.657,1-1a1.753,1.753,0,0,0,.584-.88.57.57,0,0,1,.066-.322.36.36,0,0,0,.066-.19.558.558,0,0,0-.046-.256,1.011,1.011,0,0,0-.171-.335c-.256-.269-.906-.23-1.247-.276a3.279,3.279,0,0,1-.033-.4c.053-1.254.433-3.112-.309-4.2a2.167,2.167,0,0,0-1.044-.775,1.51,1.51,0,0,0-1.385.1c-.657.492-.565,1.608-.584,2.344s0,1.53,0,2.291c0,.867-.046,1.74-.066,2.626a.821.821,0,0,1-.368.689c-.538.42-1.037.88-1.569,1.313-.348.276-.722.519-1.09.768s-.565.374-.847.565c-1.07.709,0,1.845.867,2.016a1.969,1.969,0,0,0,1.175-.184,5.323,5.323,0,0,0,.788-.473s.565-.381.538-.151a1.777,1.777,0,0,1-.033.243c-.249,1.484-.341,2.987-.466,4.491a23.445,23.445,0,0,0,0,4.346,5.679,5.679,0,0,1,0,1.668,7.812,7.812,0,0,1-1.851,3.388c-.532.565-1.8,1.352-2.3.341-.427-.86-1.871-4.825-.453-5.285.158-.053.919-.059,1.077-.105a1.313,1.313,0,0,0,.768-1.031,4.294,4.294,0,0,0,.1-2.285,2.4,2.4,0,0,0-1.471-1.668c-1.9-.657-2.9,1.97-3.21,3.4a13.924,13.924,0,0,0,.085,5.587,6.309,6.309,0,0,0,1.477,3.256Z" transform="translate(-107.727 -103.13)" fill="#f4f4f5"></path><path id="Path_80082" data-name="Path 80082" d="M201.082,153.472a.367.367,0,0,0,.112-.072l-.184.1Z" transform="translate(-116.166 -120.4)" fill="#f4f4f5"></path><path id="Path_80083" data-name="Path 80083" d="M204.568,151.72h0l-.138.066Z" transform="translate(-117.34 -119.822)" fill="#f4f4f5"></path><path id="Path_80084" data-name="Path 80084" d="M209.584,145.782a5.331,5.331,0,0,0-3.033-1.851c-5.436-1.53-10.938.939-15.921,2.922-.808.322-1.615.657-2.4,1.018-2.016.978-3.939,2.127-5.955,3.105-.781.387-1.654.657-2.4,1.1a69.2,69.2,0,0,0-12.625,8.955,1.17,1.17,0,0,0-.066,1.543,2.553,2.553,0,0,1,.394.479,1.261,1.261,0,0,0,.893.538,2.055,2.055,0,0,0,1.615-.355c3.046-2.436,6.106-4.95,9.362-7.11,1.6-1.057,3.237-2.134,4.911-3.171s3.283-1.97,4.944-2.856l-.315.105c.105-.256.387-.282.578-.42h-.007a.263.263,0,0,1-.072.217c.657-.361,1.372-.709,2.061-1.037l-.217.1c.092-.092.158-.256.355-.164a37.33,37.33,0,0,1,11.883-3.6,9.349,9.349,0,0,1,2.994.118c.939.2,1.746.9,2.626,1.09a.446.446,0,0,0,.545-.289.6.6,0,0,0-.151-.433Zm-20.792,4.523v-.039l.164-.039Zm3.4-1.753ZM192.193,148.5Zm3.066-1.175h.007Zm.926-.387Z" transform="translate(-104.46 -116.983)" fill="#f4f4f5"></path><path id="Path_80085" data-name="Path 80085" d="M150.568,184.192a1.543,1.543,0,0,0-.6-1.1c-.282,0-.538-.131-.781,0a3.939,3.939,0,0,0-1.471,1.169,10.7,10.7,0,0,1-2.048,2.239,2.009,2.009,0,0,1-1,.506,1.845,1.845,0,0,0-.7.407c-.2.151-.112.394-.125.6a4.219,4.219,0,0,0,0,.5,5.784,5.784,0,0,0,.847.991,2.81,2.81,0,0,0,3.283-.407,17.986,17.986,0,0,0,1.91-2.206,3.869,3.869,0,0,0,.407-.716c.184-.446.328-.913.473-1.313a3.1,3.1,0,0,1-.2-.663Z" transform="translate(-96.527 -130.577)" fill="#f4f4f5"></path><path id="Path_80086" data-name="Path 80086" d="M200.127,153.49a10.154,10.154,0,0,1,.945-.617.112.112,0,0,0,.053-.138.105.105,0,0,0-.138-.059,9.9,9.9,0,0,0-.991.657c-.112.079,0,.243.131.164Z" transform="translate(-115.802 -120.148)" fill="#f4f4f5"></path><path id="Path_80087" data-name="Path 80087" d="M200.434,153.356a5.778,5.778,0,0,0,1.024-.611.1.1,0,1,0-.085-.19,7.024,7.024,0,0,1-1.024.611c-.053,0-.072.092-.053.138A.105.105,0,0,0,200.434,153.356Z" transform="translate(-115.918 -120.106)" fill="#f4f4f5"></path><path id="Path_80088" data-name="Path 80088" d="M201.115,153.35a.105.105,0,1,0-.105-.105A.105.105,0,0,0,201.115,153.35Z" transform="translate(-116.166 -120.31)" fill="#f4f4f5"></path><path id="Path_80089" data-name="Path 80089" d="M203.894,151.689a1.675,1.675,0,0,0,.315-.131.106.106,0,0,0-.079-.2l-.256.125a.107.107,0,0,0,.085.2l.151-.053h.118l-.053-.2a1.267,1.267,0,0,0-.394.21.105.105,0,0,0,.112.177l.5-.276a.105.105,0,0,0,.053-.138.1.1,0,0,0-.138-.053l-.5.276.105.177.079-.059h.046l.184-.085a.1.1,0,0,0,.059-.125.105.105,0,0,0-.112-.079,3.045,3.045,0,0,0-.348.105l.085.2.249-.125-.079-.2a1.968,1.968,0,0,1-.322.131.107.107,0,0,0,.085.2Z" transform="translate(-117.087 -119.693)" fill="#f4f4f5"></path><path id="Path_80090" data-name="Path 80090" d="M159.594,134.665c-.263-1.142-1.628-1.753-2.541-2.626a5.055,5.055,0,0,1-.742-2.055c-.105-1.228-1.97-.184-1.97-.184l-.072-.125a1.843,1.843,0,0,1,.112-.276,23.334,23.334,0,0,0,1.674-3.519,1.812,1.812,0,0,0,.158-1.044,1.747,1.747,0,0,0-.46-.748,1.97,1.97,0,0,0-1.116-.748,1.372,1.372,0,0,0-1.182.538,8.979,8.979,0,0,0-1.09,2.626c-.223.617-.492,1.215-.748,1.819a.132.132,0,0,1-.105.112.085.085,0,0,1-.092-.053.23.23,0,0,1,0-.085c.092-1.654.289-3.283.545-4.93a47.312,47.312,0,0,0,.492-6.014c.066-1.8.125-3.578.335-5.37a3.211,3.211,0,0,0,0-1.175,1.608,1.608,0,0,0-1.845-1.1c-1.49.348-1.313,2.521-1.412,3.683-.138,1.773-.269,3.545-.414,5.324-.131,1.6-.3,3.21-.427,4.812s-.249,3.381-.374,5.075a3.283,3.283,0,0,1-.289,1.313,4.523,4.523,0,0,0-.276.775,10.285,10.285,0,0,1-.834,1.786.7.7,0,0,1-.184.19.092.092,0,0,1-.151-.053,5.364,5.364,0,0,0-1.077-1.97.88.88,0,0,0-.6-.427.492.492,0,0,1-.236-.085,1.018,1.018,0,0,0-.735-.072,1.746,1.746,0,0,0-1.352,1.037,24.993,24.993,0,0,0-1.123,2.672c0,.059-.066.138-.131.118a.171.171,0,0,1-.059-.059,4.1,4.1,0,0,0-.617-.919,1.405,1.405,0,0,0-2.416,0,4.037,4.037,0,0,0-.309,1.11,14.719,14.719,0,0,1-1.858,4.839c-.223.368-.368.893-.657.368a2.974,2.974,0,0,1-.236-1.149c-.118-1.72.578-3.361-.256-4.99a5.061,5.061,0,0,0-1.228-1.648,1.7,1.7,0,0,0-1.444-.341l-.867.184a2.449,2.449,0,0,0-1.195.7,16.173,16.173,0,0,0-1.2,1.313,9.344,9.344,0,0,0-.978,1.411,20.4,20.4,0,0,0-1.97,5.095,8.954,8.954,0,0,0-.177,2.711,1.93,1.93,0,0,0,.84,1.49,2.311,2.311,0,0,0,1.09.479,4.727,4.727,0,0,0,2.009-.19,9.361,9.361,0,0,0,2.258-1.313,1.424,1.424,0,0,0,.355-.361c.164-.2.3-.414.46-.611a2.277,2.277,0,0,1,.223-.21.1.1,0,0,1,.112,0,1.09,1.09,0,0,1,.223.158,2.364,2.364,0,0,0,1.011.657,2.167,2.167,0,0,0,1.97-.118,2.744,2.744,0,0,0,.88-.722c.3-.414.6-.814.873-1.247s.479-.847.729-1.267a.656.656,0,0,1,.151-.151.1.1,0,0,1,.144.033c0,.085.066.158.085.223a2.626,2.626,0,0,0,1,1.457,2.127,2.127,0,0,0,1.313.328,1.2,1.2,0,0,0,.657-.171,1.313,1.313,0,0,0,.473-.716c.282-.886.492-1.792.742-2.692.19-.657.374-1.359.578-2.035a.12.12,0,0,1,.085-.112.112.112,0,0,1,.1.039c.276.236.42.657.689.893a2.272,2.272,0,0,0,1.024.558,1.6,1.6,0,0,0,.427.066,1.648,1.648,0,0,0,1.037-.427c.144-.131.3-.243.473-.381a.092.092,0,0,1,.144.046.524.524,0,0,1,.046.158c0,.335.033.657.046,1.011a5.4,5.4,0,0,0,.341,2.469,1.779,1.779,0,0,0,1.5.913,1.314,1.314,0,0,0,.355-.053,2.062,2.062,0,0,0,1.221-1.582q.486-1.97.9-3.939c.118-.565.269-1.116.394-1.674a1.359,1.359,0,0,1,.775-.9h.066a.138.138,0,0,1,.066,0,6.133,6.133,0,0,1,.584.3,2.626,2.626,0,0,1,.5.506,4.005,4.005,0,0,0,.814.972,5.168,5.168,0,0,0,1.668.394,15.438,15.438,0,0,0,1.622.414c.486,0,.781.223.781-.289a1.161,1.161,0,0,0-.1-.243Zm-27.909.289c-.144.657-.3,1.97-.374,2.258a1,1,0,0,0-.046.46.937.937,0,0,0,.053.144c.053.1.118.184.171.276a1.549,1.549,0,0,1,0,1.372c-.23.512-1.451,2.469-2.134,2.4l-.532-.053a.079.079,0,0,1-.079-.1,2.759,2.759,0,0,1,.072-.506,5.31,5.31,0,0,1,.131-.558,23.13,23.13,0,0,1,2.094-5.095,3.645,3.645,0,0,1,.5-.657.092.092,0,0,1,.144.053Z" transform="translate(-90.342 -105.381)" fill="#f4f4f5"></path></g></svg>