<svg id="Layer_1" data-name="Layer 1" xmlns="http://www.w3.org/2000/svg" viewBox="0 0 1444.27 470.12"><path d="M235.93,283.77l-1.8,2.21a95.74,95.74,0,0,1-17.88,17.47,59.44,59.44,0,0,1-23.35,10.61,49.74,49.74,0,0,1-21.72,0A34.24,34.24,0,0,1,149,297.73a51.7,51.7,0,0,1-6.78-18.61,109.48,109.48,0,0,1-1-27.36,156,156,0,0,1,35.11-87.94,103.08,103.08,0,0,1,27.85-23.68,71.59,71.59,0,0,1,23.51-8.58,47.86,47.86,0,0,1,20.66.74,40.77,40.77,0,0,1,17.8,10.53l2,2c.82-3,1.63-5.88,2.45-8.73h28.66a10.59,10.59,0,0,0,0,1.38c-7.51,26.13-14,52.59-20.09,79.05-3.18,13.71-6.28,27.35-10,40.82-.73,2.94-1.47,5.88-2.28,8.74a95.38,95.38,0,0,0-2.94,15.35,157.73,157.73,0,0,0-1.64,27,64.16,64.16,0,0,0,4.58,22.05,31.41,31.41,0,0,0,6.28,9.71,17.75,17.75,0,0,0,12,5.31,33.32,33.32,0,0,0,15.59-3.26,57.41,57.41,0,0,0,14.05-8.9c2.69-2.29,5.39-4.58,8.16-6.7a35.61,35.61,0,0,1,18-6.94,24,24,0,0,1,13.23,2.61,104.09,104.09,0,0,0,12.9,5.31,64.42,64.42,0,0,0,24.5,3.18A39.48,39.48,0,0,0,410.26,325a31.63,31.63,0,0,0,3.27-2.37,15,15,0,0,0,5.31-15.84c0-2-1.31-3.84-1.88-5.8s-1.39-4.74-1.88-7.1a6.22,6.22,0,0,1,1.55-5.72c1.55-1.8,3.27-3.59,5.07-5.31a26.09,26.09,0,0,0,5.22-6.69,11,11,0,0,0,1.39-6.37,5.56,5.56,0,0,0-3-4.66,11.5,11.5,0,0,0-5.72-1.39h-5.88a65.4,65.4,0,0,0,7.19-1.46A21.21,21.21,0,0,0,431,255.68a6.18,6.18,0,0,0,1-7,12.39,12.39,0,0,0-2.94-4.25c-1.06-1.14-2.28-2.2-3.34-3.35a7.18,7.18,0,0,1-.64-10.14,6.34,6.34,0,0,1,.64-.63,48.1,48.1,0,0,1,6-5c2.61-2.05,5.39-3.92,8.16-6a28.39,28.39,0,0,0,5.56-5.71,7.45,7.45,0,0,0,0-9.8,62.16,62.16,0,0,0-5.56-5.8,115.39,115.39,0,0,1-14-14.86A61,61,0,0,1,417,167.82a47.34,47.34,0,0,1-2.61-14.29,155.22,155.22,0,0,1,.4-17.39,48.35,48.35,0,0,0-2.77-18.7,64.38,64.38,0,0,0-19.52-28.5,88.29,88.29,0,0,0-27.11-15.76,189.86,189.86,0,0,0-40.5-10.37,254.42,254.42,0,0,0-45.24-2.29,246.91,246.91,0,0,0-74.79,14.54,227.53,227.53,0,0,0-63.12,34.7A143.81,143.81,0,0,0,128,122.5a199.19,199.19,0,0,0-30,39.44,174.72,174.72,0,0,0-17.64,42.3c-1.22,4.41-2.45,8.82-3.26,13.39a170.14,170.14,0,0,0-2.7,40.17,151.14,151.14,0,0,0,13.15,54.47A153.75,153.75,0,0,0,133,369.92a192.89,192.89,0,0,0,39.11,24.49,198.41,198.41,0,0,0,51,15.27,203.6,203.6,0,0,0,38,2.29,210.65,210.65,0,0,0,31.19-3.35,225.42,225.42,0,0,0,39.36-10.12c5.06-1.8,10-4,14.86-6.05h1.06l6.29,18-.82.49a241.52,241.52,0,0,1-66.95,26.45A226.94,226.94,0,0,1,253,442.51a220.81,220.81,0,0,1-33.73,0A204.15,204.15,0,0,1,114,405.44a184.33,184.33,0,0,1-59.45-69.82A201.79,201.79,0,0,1,39,294.3,194.08,194.08,0,0,1,33.51,234a209.92,209.92,0,0,1,12.08-57.16c2.7-7.43,5.39-14.86,8.66-22a201.19,201.19,0,0,1,49-65.33A236.16,236.16,0,0,1,180.81,43.3,252,252,0,0,1,234.3,30.07a299.62,299.62,0,0,1,49.81-3,231.21,231.21,0,0,1,54.79,8.73,195.09,195.09,0,0,1,33.48,12.41A129.38,129.38,0,0,1,409.12,75a76.84,76.84,0,0,1,20.17,39.52,67.36,67.36,0,0,1,0,22.13,77.65,77.65,0,0,0-1.14,15.68,43.2,43.2,0,0,0,11.1,28c4.08,4.66,8.17,9.15,12.49,13.72L458.2,201a7.14,7.14,0,0,1,1.71,7.11,20.33,20.33,0,0,1-3,6.77,50,50,0,0,1-10.62,11.35,93.38,93.38,0,0,1-8.16,5.8,4,4,0,0,0-1.69,5.4,3.73,3.73,0,0,0,.71,1,22.71,22.71,0,0,1,3.67,5.23,14,14,0,0,1,.49,11.59,19.09,19.09,0,0,1-3.59,6l-2.45,2.78a2,2,0,0,0,0,2.28c.49,1,.9,2,1.31,2.94a11.41,11.41,0,0,1,.41,8.17,21.92,21.92,0,0,1-6,9.14L428.55,289a13.71,13.71,0,0,0-3.1,6.69,9.5,9.5,0,0,0,.82,5.23c.57,1.47,1.22,2.94,1.88,4.33a30.51,30.51,0,0,1,2.77,10A20.25,20.25,0,0,1,421.7,335a55.91,55.91,0,0,1-22.62,8.9,91.82,91.82,0,0,1-24.5.73,167.34,167.34,0,0,1-20.17-2.85,30.14,30.14,0,0,0-22.21,4.73,56.74,56.74,0,0,0-11.35,9.31,87.14,87.14,0,0,1-11.68,10.37,55.83,55.83,0,0,1-21.06,9.8,35.68,35.68,0,0,1-23.93-2.86,42.24,42.24,0,0,1-13.72-10.86A60.6,60.6,0,0,1,238.87,339a130.63,130.63,0,0,1-4.74-38.13,75,75,0,0,1,2-15.93A5.51,5.51,0,0,0,235.93,283.77Zm-62.79-13.06a71.6,71.6,0,0,0,1.47,15.1,31.14,31.14,0,0,0,5.14,12.09,13.72,13.72,0,0,0,13.88,5.47,31.54,31.54,0,0,0,12.17-4.82A64.89,64.89,0,0,0,218.29,288a92.65,92.65,0,0,0,18.29-29.24,371.91,371.91,0,0,0,22.21-79.37,63.37,63.37,0,0,0,0-18.45A30.23,30.23,0,0,0,255.12,149a17,17,0,0,0-11.84-8.66,24.73,24.73,0,0,0-9.47,0,36.63,36.63,0,0,0-15.35,7.27A69.11,69.11,0,0,0,205.55,161a129.68,129.68,0,0,0-16.33,28.66,221.09,221.09,0,0,0-13.14,44.91,193.62,193.62,0,0,0-3.76,35.77Z" style="fill:#ff5c35"/><path d="M548.49,198.22a73.9,73.9,0,0,1,66.32-39.71q19.11,0,33.37,7.5A67.82,67.82,0,0,1,671,184.69V161.16H704.8v162H671V299.09q-8.54,11.46-23.24,19.11t-33.52,7.65A71.18,71.18,0,0,1,576,315.11a76,76,0,0,1-27.5-30q-10.14-19.26-10.15-43.67T548.49,198.22Zm115.58,14.7A48.55,48.55,0,0,0,646,194.1a47.36,47.36,0,0,0-24.12-6.47,47.54,47.54,0,0,0-42.2,24.85q-6.92,12.21-6.91,29t6.91,29.4a48.73,48.73,0,0,0,18.24,19.27,46.72,46.72,0,0,0,24,6.61A47.26,47.26,0,0,0,646,290.26a48.27,48.27,0,0,0,18.09-19Q671,258.81,671,242T664.07,212.92Z"/><path d="M782.14,188.51v89.7q0,9.12,4.26,13.08t14.56,4h20.59V323.2H795.08q-22.65,0-34.7-10.59t-12.06-34.4v-89.7H729.2V161.16h19.12V120.87h33.82v40.29h39.41v27.35Z"/><path d="M871.1,318.94q-15.15-6.92-24-18.82a46.91,46.91,0,0,1-9.41-26.62h34.7q.89,10.31,9.86,17.21t22.49,6.91q14.12,0,21.91-5.44t7.8-14q0-9.12-8.68-13.53T898.3,255a264.83,264.83,0,0,1-29.7-9.7,52,52,0,0,1-19.85-14.41q-8.38-9.71-8.38-25.59A39.83,39.83,0,0,1,848,181.6q7.63-10.72,21.9-16.91t32.79-6.18q27.64,0,44.56,14t18.08,38.09H931.83A23.89,23.89,0,0,0,923,193.22q-7.95-6.47-21.47-6.47-13.23,0-20.29,5A15.46,15.46,0,0,0,874.19,205a14.34,14.34,0,0,0,4.7,10.88,33.45,33.45,0,0,0,11.47,6.91q6.76,2.5,20,6.32a219,219,0,0,1,29,9.56,54.1,54.1,0,0,1,19.56,14.27q8.22,9.41,8.52,25a42,42,0,0,1-7.64,24.71q-7.65,10.88-21.62,17.05t-32.79,6.18Q886.24,325.85,871.1,318.94Z"/><path d="M999.47,133.52a22,22,0,0,1,0-30.59,20.79,20.79,0,0,1,15.29-6.17,20.45,20.45,0,0,1,15,6.17,22,22,0,0,1,0,30.59,20.45,20.45,0,0,1-15,6.17A20.79,20.79,0,0,1,999.47,133.52Zm31.76,27.64v162H997.7v-162Z"/><path d="M1168.13,166q14.55,7.5,22.79,18.68V161.16h33.82V325.85q0,22.35-9.41,39.85a68,68,0,0,1-27.21,27.49q-17.79,10-42.49,10-32.94,0-54.7-15.44t-24.7-41.9h33.23q3.81,12.63,16.32,20.44t29.85,7.79q20.3,0,32.79-12.35t12.5-35.88V298.79q-8.54,11.47-23.09,19.27t-33.08,7.79a72.46,72.46,0,0,1-38.67-10.74,75.73,75.73,0,0,1-27.65-30q-10.14-19.26-10.14-43.67t10.14-43.23a73.92,73.92,0,0,1,66.32-39.71Q1153.56,158.51,1168.13,166ZM1184,212.92a48.55,48.55,0,0,0-18.09-18.82,47.35,47.35,0,0,0-24.11-6.47,47.54,47.54,0,0,0-42.21,24.85q-6.9,12.21-6.91,29t6.91,29.4a48.73,48.73,0,0,0,18.24,19.27,46.73,46.73,0,0,0,24,6.61,47.25,47.25,0,0,0,24.11-6.47,48.27,48.27,0,0,0,18.09-19q6.9-12.49,6.91-29.27T1184,212.92Z"/><path d="M1379,166.45A56.57,56.57,0,0,1,1402.66,190q8.52,15.6,8.53,37.64V323.2H1378V232.62q0-21.75-10.88-33.37t-29.71-11.62q-18.82,0-29.85,11.62t-11,33.37V323.2H1263v-162h33.52v18.53a55.62,55.62,0,0,1,21-15.59,67.32,67.32,0,0,1,27.2-5.59Q1363.85,158.51,1379,166.45Z"/></svg>