<svg width="20" height="21" viewBox="0 0 20 21" fill="none" xmlns="http://www.w3.org/2000/svg">
<path d="M8 2.2998C6.89543 2.2998 6 3.19524 6 4.29981V14.2998C6 15.4044 6.89543 16.2998 8 16.2998H14C15.1046 16.2998 16 15.4044 16 14.2998V4.2998C16 3.19524 15.1046 2.2998 14 2.2998H8ZM7 4.29981C7 3.74752 7.44772 3.2998 8 3.2998H14C14.5523 3.2998 15 3.74752 15 4.2998V14.2998C15 14.8521 14.5523 15.2998 14 15.2998H8C7.44772 15.2998 7 14.8521 7 14.2998V4.29981ZM4 6.29982C4 5.55954 4.4022 4.91319 5 4.56738V14.7998C5 16.1805 6.11929 17.2998 7.5 17.2998H13.7324C13.3866 17.8976 12.7403 18.2998 12 18.2998H7.5C5.567 18.2998 4 16.7328 4 14.7998V6.29982Z" fill="#FAFAFA"/>
</svg>
