<svg width="87" height="87" viewBox="0 0 87 87" fill="none" xmlns="http://www.w3.org/2000/svg">
<g clipPath="url(#clip0_10623_33780)">
<path d="M43.8903 86.4775C20.3935 86.4775 1.27734 67.188 1.27734 43.4775C1.27734 19.7671 20.3935 0.477539 43.8903 0.477539C67.3872 0.477539 86.5033 19.7671 86.5033 43.4775H83.8158C83.8158 21.2492 65.9057 3.16504 43.8903 3.16504C21.875 3.16504 3.96484 21.2492 3.96484 43.4775C3.96484 65.7058 21.875 83.79 43.8903 83.79V86.4775Z" fill="#71717A"/>
<path d="M86.4821 44.8334L83.796 44.744C83.8101 44.3234 83.8161 43.9008 83.8161 43.4775H86.5036C86.5036 43.9311 86.4969 44.3826 86.4821 44.8334ZM46.6379 86.3895L46.4659 83.7074C47.3386 83.6513 48.2091 83.5664 49.0762 83.4528L49.4255 86.1181C48.4995 86.239 47.5698 86.3295 46.6379 86.3895ZM52.2622 85.6471L51.7348 83.012C52.6082 82.8367 53.489 82.6284 54.3537 82.3919L55.0639 84.9833C54.1379 85.2368 53.2035 85.4582 52.2622 85.6471ZM57.8119 84.1293L56.9277 81.5917C57.7751 81.2962 58.6123 80.9722 59.4378 80.6201L60.4927 83.0913C59.6111 83.4675 58.7169 83.8137 57.8119 84.1293ZM63.0968 81.8725L61.8767 79.4779C62.6764 79.0696 63.4623 78.6346 64.233 78.1738L65.6137 80.4797C64.7904 80.9717 63.951 81.4362 63.0968 81.8725ZM68.0291 78.9176L66.4952 76.7105C67.2334 76.1977 67.9543 75.6603 68.6566 75.0993L70.3336 77.1989C69.5844 77.7969 68.8159 78.3701 68.0291 78.9176ZM72.5192 75.3278L70.7045 73.3464C71.3675 72.739 72.01 72.1096 72.6308 71.4591L74.5745 73.3162C73.912 74.0094 73.2266 74.6803 72.5192 75.3278ZM76.49 71.1716L74.4287 69.4475C75.0054 68.7578 75.5587 68.0488 76.0875 67.3217L78.2604 68.9033C77.6953 69.6786 77.1048 70.4351 76.49 71.1716ZM79.8742 66.5215L77.6013 65.0884C78.0808 64.3274 78.5346 63.5505 78.9618 62.759L81.3268 64.0369C80.8704 64.881 80.3859 65.7097 79.8742 66.5215ZM82.6101 61.4596L80.1652 60.3443C80.5384 59.5254 80.8846 58.6946 81.2032 57.853L83.7174 58.803C83.3776 59.7005 83.0083 60.5865 82.6101 61.4596ZM84.6452 56.0772L82.0733 55.2978C82.334 54.4375 82.5661 53.5687 82.7693 52.693L85.387 53.299C85.1707 54.2331 84.9233 55.1596 84.6452 56.0772ZM85.9426 50.4771L83.2894 50.0478C83.4332 49.1636 83.5487 48.2633 83.6334 47.3724L86.3088 47.627C86.2173 48.5808 86.0952 49.5313 85.9426 50.4771ZM43.8906 86.4775V83.79C44.3166 83.79 44.7419 83.782 45.1645 83.7712L45.2377 86.4574C44.7903 86.4695 44.3415 86.4775 43.8906 86.4775Z" fill="#71717A"/>
<g clipPath="url(#clip1_10623_33780)">
<path d="M47.0898 59.5062C46.6585 59.5066 46.2301 59.4047 45.8342 59.203L43.3518 57.95C43.2586 57.9194 43.1659 57.8861 43.0749 57.8524L41.4973 57.2671L42.8828 56.3116C43.0364 56.2057 43.155 56.0692 43.2363 55.9056L43.914 54.5384C44.1752 54.0112 43.963 53.3663 43.4411 53.1029C43.1943 52.9778 42.9121 52.9568 42.6492 53.0447C42.3828 53.1336 42.1666 53.3226 42.0411 53.5767L41.3643 54.9417C41.2807 55.1132 41.244 55.2983 41.2575 55.4895L41.3686 57.0299L37.2929 54.9702L38.5599 54.1407C38.7183 54.037 38.8421 53.8974 38.9261 53.7268L40.9014 49.7421C41.1621 49.2131 40.9513 48.5665 40.4311 48.3031C40.1848 48.1793 39.9043 48.1587 39.641 48.2458C39.3741 48.3346 39.158 48.5241 39.0315 48.7782L37.0588 52.7647C36.9731 52.9376 36.9368 53.1204 36.9503 53.3099L37.061 54.8503L32.9835 52.7901L34.2536 51.9602C34.4085 51.8591 34.5345 51.7165 34.6171 51.5489L36.218 48.3193C36.4791 47.7912 36.2687 47.1468 35.749 46.8852C35.5009 46.7592 35.2213 46.7382 34.9588 46.8248C34.6924 46.9132 34.4758 47.1031 34.349 47.3586L32.749 50.5864C32.6655 50.7544 32.6287 50.9426 32.6423 51.1311L32.7516 52.6698L28.5114 50.5304L29.7683 49.6983C29.9324 49.5898 30.0571 49.4502 30.1393 49.2836L30.8161 47.9155C31.0786 47.3874 30.8686 46.7439 30.3489 46.4805C30.1013 46.3545 29.82 46.3339 29.5575 46.421C29.291 46.5094 29.0745 46.6988 28.948 46.9543L28.2721 48.3193C28.1898 48.4856 28.1526 48.6645 28.161 48.8526L28.2406 50.5641L26.8078 49.6252C26.2373 49.2516 25.7481 48.7809 25.3535 48.227L26.7798 47.212C26.7968 47.2365 26.8143 47.2601 26.8323 47.2842L27.38 46.1782C27.7151 45.5009 28.2922 44.9974 29.0058 44.7602C29.715 44.5244 30.4731 44.5804 31.1403 44.9195C31.9414 45.3255 32.4651 46.0706 32.6261 46.8957L32.781 46.5824C33.1161 45.9056 33.694 45.4016 34.4071 45.1645C35.1159 44.9291 35.8728 44.9856 36.5391 45.3237C37.3213 45.7184 37.8402 46.4381 38.0143 47.2409C38.314 46.9469 38.6785 46.7229 39.0875 46.5868C39.7967 46.351 40.5545 46.4057 41.2208 46.7426C42.5941 47.4382 43.1541 49.1322 42.4698 50.5191L42.0288 51.4089C42.0507 51.4006 42.073 51.3932 42.0953 51.3857C42.8045 51.1486 43.5627 51.2046 44.2299 51.5415C45.6063 52.2376 46.1676 53.9307 45.4816 55.3162L44.8035 56.6839C44.7982 56.6944 44.793 56.7049 44.7877 56.7154L46.6248 57.6424C46.8733 57.7684 47.152 57.7894 47.4136 57.7037C47.68 57.6153 47.8966 57.4263 48.0239 57.1708C48.2055 56.8037 48.1613 56.3544 47.9115 56.0276L47.5107 55.5031L47.9045 54.9732C47.9845 54.8661 48.0659 54.7401 48.1534 54.5878L48.5668 53.8699L50.9368 55.0682C51.1844 55.1937 51.4653 55.2134 51.7286 55.1255C51.9946 55.0367 52.2112 54.8481 52.3368 54.5944C52.5971 54.0654 52.3862 53.4192 51.866 53.1567L49.4725 51.9427L50.4249 50.0426L55.0077 52.3636C55.2545 52.4878 55.5362 52.5075 55.7996 52.4204C56.0656 52.3316 56.2817 52.1422 56.4064 51.8889C56.6706 51.3573 56.4602 50.7129 55.9391 50.4499L51.3935 48.1513L51.7081 47.4001C51.7475 47.3065 51.7772 47.212 51.8074 47.1179L52.1171 46.1353L58.6232 49.4266C58.8695 49.5517 59.1473 49.5727 59.409 49.4861C59.6771 49.3973 59.895 49.207 60.0219 48.9506C60.2835 48.4221 60.0731 47.7777 59.5533 47.5147L50.0141 42.6869C49.5293 42.6581 49.0376 42.5889 48.5502 42.4817C46.6576 42.0591 44.9688 41.059 43.8375 39.7054L41.1788 40.0024L41.1621 40.0921C40.9338 41.2204 40.2885 42.1803 39.3426 42.8059C38.4072 43.4246 37.289 43.6407 36.193 43.4158L35.1036 43.1909C35.0398 43.1761 35.003 43.1656 34.9658 43.1551L34.1617 42.9472L34.2886 42.123L35.7468 34.9458L41.0965 33.8306L43.7255 33.3196L44.7523 33.5493L44.6691 33.2829L40.3795 32.8493L38.1036 32.6533L30.3585 35.2595L29.8007 33.6005L37.891 30.8779L40.5431 31.1067L46.0009 31.6759L47.3278 35.9192L43.701 35.1072L41.4435 35.5465L37.2334 36.4237L36.1768 41.6251L36.5474 41.7017C37.184 41.8325 37.8341 41.7065 38.3788 41.346C38.934 40.9789 39.3133 40.4141 39.4458 39.7557L39.7009 38.4069L44.642 37.8539L44.9413 38.2717C45.8128 39.4892 47.2666 40.401 48.9313 40.7724C49.3797 40.8717 49.8338 40.9304 50.2783 40.947L50.4695 40.9544L60.3448 45.9529C61.7181 46.6476 62.2781 48.3403 61.5921 49.7267C61.2552 50.4057 60.676 50.9097 59.9606 51.1469C59.4002 51.3315 58.8113 51.335 58.2614 51.1617C58.3051 51.6631 58.2163 52.182 57.977 52.6646C57.6445 53.3379 57.0692 53.841 56.357 54.079C55.6473 54.3148 54.8887 54.2614 54.2211 53.9241L54.1891 53.9097C54.2255 54.3971 54.1366 54.9002 53.9065 55.3683C53.5714 56.0451 52.9956 56.5474 52.2834 56.7849C51.5751 57.0216 50.8165 56.9665 50.1488 56.6301L49.8763 56.4922C49.9108 56.9866 49.8181 57.4906 49.5928 57.9469C49.2555 58.6251 48.6771 59.1282 47.9635 59.3644C47.677 59.4594 47.3825 59.5062 47.0898 59.5062Z" fill="#71717A"/>
<path d="M59.7983 47.6371L50.0149 42.6885C49.9812 42.6863 49.9475 42.6841 49.9139 42.6819L49.7865 42.6736C49.6623 42.6614 49.535 42.6474 49.4085 42.6316L49.3679 42.6264C49.2572 42.6119 49.139 42.5931 49.0183 42.573L48.9514 42.5612C48.8227 42.5389 48.6836 42.5131 48.544 42.4807C48.4176 42.4522 48.2899 42.4203 48.1634 42.3884L47.9368 42.3219C47.8769 42.3048 47.8174 42.2873 47.757 42.2676C47.7001 42.2501 47.6319 42.2261 47.5619 42.2007L47.5317 42.1911C47.4835 42.1753 47.4345 42.1596 47.3877 42.1425L47.0347 42.0056C46.9345 41.9631 46.8535 41.9277 46.7713 41.8905L47.078 41.0689L46.7306 41.8721L46.6715 41.8459C46.6212 41.8227 46.57 41.7977 46.5184 41.7724L46.3093 41.6665C46.2367 41.6315 46.1339 41.5751 46.0337 41.5164C46.0337 41.5164 46.0026 41.5016 45.9689 41.4797C45.9142 41.4504 45.828 41.397 45.741 41.3427C45.7125 41.3287 45.6771 41.3064 45.6399 41.2784C45.0099 40.8689 44.2657 40.1475 43.8527 39.7249L41.1792 40.0071L41.1634 40.0924C40.935 41.2207 40.2893 42.1806 39.3434 42.8062C38.4085 43.4244 37.2902 43.6414 36.1943 43.4161L35.1049 43.1907C35.0437 43.1767 35.006 43.1662 34.9684 43.1557L34.1621 42.9492L34.2894 42.1232L35.7467 34.95L36.3584 34.8179L43.6642 33.3076L52.3052 35.2361L58.0369 33.3085L58.5947 34.9675L52.4002 37.0513L43.6502 35.0974L37.2329 36.4244L36.1764 41.6249L36.5474 41.7015C37.1835 41.8319 37.8336 41.7063 38.3783 41.3458C38.9335 40.9787 39.3128 40.4144 39.4454 39.7555L39.7013 38.4027L44.5322 37.8935L44.8305 38.2146C45.1307 38.5388 46.0372 39.4597 46.6199 39.8272L46.7022 39.8793C46.7652 39.9187 46.8137 39.9484 46.8645 39.9769C46.8706 39.9795 46.8938 39.9917 46.9157 40.0044C46.9861 40.046 47.053 40.0823 47.1213 40.1164C47.155 40.1335 47.1821 40.1475 47.2053 40.1602L47.4017 40.2556C47.4555 40.2792 47.4857 40.2923 47.5159 40.3067C47.5632 40.3282 47.631 40.3575 47.6988 40.3864L48.128 40.5452C48.1993 40.571 48.2422 40.5867 48.2846 40.5999C48.3375 40.6169 48.3782 40.6283 48.4194 40.6401L48.4872 40.6598C48.5082 40.6655 48.5506 40.6782 48.5922 40.6913C48.7055 40.7211 48.8188 40.7491 48.9334 40.7749C49.0437 40.8002 49.1522 40.8204 49.2624 40.8392C49.4046 40.8632 49.5026 40.8794 49.6041 40.8926L49.6282 40.8956C49.7301 40.9083 49.8338 40.9197 49.9349 40.9297L50.025 40.9354C50.1085 40.9407 50.1917 40.9459 50.2717 40.9486L50.4647 40.9556L59.9344 45.7453L62.1814 44.9897L62.7383 46.6487L59.7983 47.6371Z" fill="#71717A"/>
<path d="M42.2964 58.2415C41.865 58.2415 41.4319 58.1383 41.0451 57.9423C39.6714 57.2462 39.1114 55.5522 39.7961 54.1654L40.4724 52.7999C40.948 51.8379 41.9079 51.2402 42.9771 51.2402C43.4098 51.2402 43.8429 51.3439 44.231 51.5408C45.6069 52.236 46.1687 53.9291 45.4814 55.3155L44.8032 56.6823C44.3246 57.6435 43.3643 58.2415 42.2964 58.2415ZM42.9762 52.9907C42.5777 52.9907 42.2194 53.2151 42.0404 53.5765L41.3636 54.941C41.1024 55.4704 41.3137 56.117 41.8348 56.3809C42.3384 56.6355 42.9824 56.4115 43.2352 55.9031L43.9129 54.5377C44.1741 54.0105 43.9619 53.366 43.44 53.1027C43.2939 53.0283 43.1377 52.9907 42.9762 52.9907Z" fill="#71717A"/>
<path d="M29.2045 51.6171C28.7731 51.6171 28.3404 51.5143 27.9532 51.3187C26.576 50.624 26.016 48.9291 26.705 47.54L27.3805 46.1763C27.8565 45.2138 28.8155 44.6162 29.8835 44.6162C30.317 44.6162 30.7519 44.7208 31.1413 44.9181C32.5142 45.6128 33.0728 47.306 32.386 48.6911L31.7105 50.0565C31.2353 51.0186 30.2755 51.6171 29.2045 51.6171ZM29.883 46.3666C29.4858 46.3666 29.1275 46.5915 28.9485 46.9529L28.2726 48.3175C28.0092 48.8481 28.2197 49.4935 28.7407 49.756C29.2487 50.0123 29.89 49.7888 30.1403 49.2817L30.8167 47.9141C31.0792 47.386 30.8687 46.7425 30.3494 46.4795C30.202 46.4047 30.0458 46.3666 29.883 46.3666Z" fill="#71717A"/>
<path d="M37.9917 56.0634C37.9913 56.0634 37.9913 56.0634 37.9917 56.0634C37.559 56.0634 37.1255 55.9593 36.7379 55.762C35.3619 55.0651 34.8032 53.3711 35.4927 51.9859L37.465 48.0021C37.941 47.04 38.9013 46.4424 39.971 46.4424C40.4023 46.4424 40.8355 46.5456 41.2227 46.7416C42.596 47.4368 43.156 49.1308 42.4717 50.5177L40.4964 54.5033C40.02 55.4649 39.0601 56.0634 37.9917 56.0634ZM39.9705 48.1919C39.5711 48.1919 39.2123 48.4164 39.033 48.7778L37.0603 52.7643C36.7965 53.2932 37.0078 53.9372 37.5293 54.201C38.0385 54.4596 38.676 54.2334 38.9275 53.7259L40.9024 49.7416C41.1632 49.2126 40.9523 48.566 40.4321 48.3026C40.2877 48.2291 40.1315 48.1919 39.9705 48.1919Z" fill="#71717A"/>
<path d="M33.6849 53.8835C33.2518 53.8835 32.8178 53.7794 32.4293 53.582C31.0586 52.8882 30.4986 51.1955 31.182 49.8099L32.7824 46.5812C33.2584 45.6195 34.217 45.0215 35.2849 45.0215C35.7176 45.0215 36.152 45.1256 36.5409 45.3229C37.9129 46.0142 38.4738 47.7069 37.7887 49.0955L36.1883 52.3234C35.7114 53.285 34.752 53.8835 33.6849 53.8835ZM35.2849 46.7715C34.8881 46.7715 34.5298 46.9964 34.3508 47.3577L32.7509 50.5856C32.4906 51.1128 32.7014 51.7577 33.2212 52.0206C33.3682 52.0954 33.5235 52.133 33.6849 52.133C34.0822 52.133 34.4405 51.9077 34.6199 51.5455L36.2198 48.3189C36.481 47.7904 36.2706 47.1464 35.7513 46.8848C35.6021 46.8091 35.4459 46.7715 35.2849 46.7715Z" fill="#71717A"/>
<path d="M62.8553 49.7704L57.2129 32.6414L66.2477 28.8789L71.8897 46.0118L62.8553 49.7704ZM59.3829 33.6337L63.9268 47.4285L69.7197 45.0183L65.1758 31.2208L59.3829 33.6337Z" fill="#71717A"/>
<path d="M25.5646 51.2789L15.8906 47.7173L22.2361 28.4502L31.9084 32.0119L25.5646 51.2789ZM18.0816 46.6594L24.4696 49.0109L29.7174 33.0698L23.3316 30.7182L18.0816 46.6594Z" fill="#71717A"/>
<path d="M23.9397 45.0173L21.9414 44.3447L21.383 46.0038L23.3813 46.6763L23.9397 45.0173Z" fill="#71717A"/>
<path d="M66.6808 44.8736L66.1348 43.2109L64.416 43.7754L64.962 45.438L66.6808 44.8736Z" fill="#71717A"/>
</g>
</g>
<defs>
<clipPath id="clip0_10623_33780">
<rect width="86" height="86" fill="white" transform="translate(0.890625 0.477539)"/>
</clipPath>
<clipPath id="clip1_10623_33780">
<rect width="56" height="56" fill="white" transform="translate(15.8906 15.9775)"/>
</clipPath>
</defs>
</svg>
