<svg width="87" height="87" viewBox="0 0 87 87" fill="none" xmlns="http://www.w3.org/2000/svg">
<g clipPath="url(#clip0_10623_33754)">
<path d="M43.8903 86.4775C20.3935 86.4775 1.27734 67.188 1.27734 43.4775C1.27734 19.7671 20.3935 0.477539 43.8903 0.477539C67.3872 0.477539 86.5033 19.7671 86.5033 43.4775H83.8158C83.8158 21.2492 65.9057 3.16504 43.8903 3.16504C21.875 3.16504 3.96484 21.2492 3.96484 43.4775C3.96484 65.7058 21.875 83.79 43.8903 83.79V86.4775Z" fill="#71717A"/>
<path d="M86.4821 44.8334L83.796 44.744C83.8101 44.3234 83.8161 43.9008 83.8161 43.4775H86.5036C86.5036 43.9311 86.4969 44.3826 86.4821 44.8334ZM46.6379 86.3895L46.4659 83.7074C47.3386 83.6513 48.2091 83.5664 49.0762 83.4528L49.4255 86.1181C48.4995 86.239 47.5698 86.3295 46.6379 86.3895ZM52.2622 85.6471L51.7348 83.012C52.6082 82.8367 53.489 82.6284 54.3537 82.3919L55.0639 84.9833C54.1379 85.2368 53.2035 85.4582 52.2622 85.6471ZM57.8119 84.1293L56.9277 81.5917C57.7751 81.2962 58.6123 80.9722 59.4378 80.6201L60.4927 83.0913C59.6111 83.4675 58.7169 83.8137 57.8119 84.1293ZM63.0968 81.8725L61.8767 79.4779C62.6764 79.0696 63.4623 78.6346 64.233 78.1738L65.6137 80.4797C64.7904 80.9717 63.951 81.4362 63.0968 81.8725ZM68.0291 78.9176L66.4952 76.7105C67.2334 76.1977 67.9543 75.6603 68.6566 75.0993L70.3336 77.1989C69.5844 77.7969 68.8159 78.3701 68.0291 78.9176ZM72.5192 75.3278L70.7045 73.3464C71.3675 72.739 72.01 72.1096 72.6308 71.4591L74.5745 73.3162C73.912 74.0094 73.2266 74.6803 72.5192 75.3278ZM76.49 71.1716L74.4287 69.4475C75.0054 68.7578 75.5587 68.0488 76.0875 67.3217L78.2604 68.9033C77.6953 69.6786 77.1048 70.4351 76.49 71.1716ZM79.8742 66.5215L77.6013 65.0884C78.0808 64.3274 78.5346 63.5505 78.9618 62.759L81.3268 64.0369C80.8704 64.881 80.3859 65.7097 79.8742 66.5215ZM82.6101 61.4596L80.1652 60.3443C80.5384 59.5254 80.8846 58.6946 81.2032 57.853L83.7174 58.803C83.3776 59.7005 83.0083 60.5865 82.6101 61.4596ZM84.6452 56.0772L82.0733 55.2978C82.334 54.4375 82.5661 53.5687 82.7693 52.693L85.387 53.299C85.1707 54.2331 84.9233 55.1596 84.6452 56.0772ZM85.9426 50.4771L83.2894 50.0478C83.4332 49.1636 83.5487 48.2633 83.6334 47.3724L86.3088 47.627C86.2173 48.5808 86.0952 49.5313 85.9426 50.4771ZM43.8906 86.4775V83.79C44.3166 83.79 44.7419 83.782 45.1645 83.7712L45.2377 86.4574C44.7903 86.4695 44.3415 86.4775 43.8906 86.4775Z" fill="#71717A"/>
<g clipPath="url(#clip1_10623_33754)">
<path d="M38.74 50.6417L60.188 29.1914L63.4896 32.4907L38.74 57.2404L23.8906 42.3911L27.19 39.0917L38.74 50.6417Z" fill="#71717A"/>
</g>
</g>
<defs>
<clipPath id="clip0_10623_33754">
<rect width="86" height="86" fill="white" transform="translate(0.890625 0.477539)"/>
</clipPath>
<clipPath id="clip1_10623_33754">
<rect width="56" height="56" fill="white" transform="translate(15.8906 15.4775)"/>
</clipPath>
</defs>
</svg>
