<svg width="56" height="15" viewBox="0 0 56 15" fill="none" xmlns="http://www.w3.org/2000/svg">
<path opacity="0.4" d="M35.5642 4.73098C35.5642 3.79209 36.3253 3.03098 37.2642 3.03098H50.8488C51.7877 3.03098 52.5488 3.7921 52.5488 4.73098V9.99444C52.5488 10.9333 51.7877 11.6944 50.8488 11.6944H37.2642C36.3253 11.6944 35.5642 10.9333 35.5642 9.99444V4.73098Z" stroke="#A3A3A3" strokeWidth="0.784615"/>
<path opacity="0.5" d="M53.75 5.69531V9.02993C54.4026 8.74751 54.8269 8.09051 54.8269 7.36262C54.8269 6.63473 54.4026 5.97773 53.75 5.69531Z" fill="#A3A3A3"/>
<path d="M36.7812 5.35279C36.7812 4.77502 37.2496 4.30664 37.8274 4.30664H50.2736C50.8513 4.30664 51.3197 4.77502 51.3197 5.35279V9.37395C51.3197 9.95172 50.8513 10.4201 50.2736 10.4201H37.8274C37.2496 10.4201 36.7812 9.95172 36.7812 9.37395V5.35279Z" fill="#A3A3A3"/>
<path fillRule="evenodd" clipRule="evenodd" d="M24.9426 4.50653C26.7395 4.50661 28.4677 5.20495 29.77 6.45723C29.8681 6.55391 30.0248 6.55269 30.1214 6.45449L31.0588 5.4976C31.1077 5.44779 31.135 5.38033 31.1346 5.31014C31.1342 5.23994 31.1062 5.17281 31.0567 5.12359C27.6386 1.81037 22.2462 1.81037 18.8281 5.12359C18.7786 5.17277 18.7505 5.23989 18.75 5.31008C18.7495 5.38027 18.7768 5.44776 18.8256 5.4976L19.7633 6.45449C19.8598 6.55284 20.0167 6.55406 20.1147 6.45723C21.4172 5.20487 23.1456 4.50652 24.9426 4.50653ZM24.9438 7.61226C25.9321 7.6122 26.8853 7.99285 27.6179 8.68024C27.717 8.7778 27.8731 8.77568 27.9697 8.67548L28.9071 7.69413C28.9565 7.64266 28.9839 7.57283 28.9832 7.50027C28.9824 7.4277 28.9537 7.35847 28.9033 7.30804C26.6723 5.15774 23.2171 5.15774 20.9861 7.30804C20.9357 7.35847 20.9069 7.42774 20.9063 7.50032C20.9056 7.57291 20.9331 7.64273 20.9826 7.69413L21.9197 8.67548C22.0163 8.77568 22.1724 8.7778 22.2715 8.68024C23.0036 7.9933 23.956 7.61268 24.9438 7.61226ZM26.8239 9.88216C26.8253 9.9534 26.7976 10.0221 26.7473 10.072L25.12 11.7319C25.0723 11.7807 25.0072 11.8081 24.9394 11.8081C24.8715 11.8081 24.8065 11.7807 24.7588 11.7319L23.1312 10.072C23.0809 10.022 23.0533 9.95334 23.0547 9.8821C23.0562 9.81086 23.0867 9.7434 23.1391 9.69565C24.1783 8.80718 25.7004 8.80718 26.7397 9.69565C26.792 9.74344 26.8224 9.81092 26.8239 9.88216Z" fill="#A3A3A3"/>
<path fillRule="evenodd" clipRule="evenodd" d="M14.7043 3.75162C14.7043 3.29121 14.3427 2.91797 13.8966 2.91797H13.0889C12.6429 2.91797 12.2812 3.29121 12.2812 3.75162V10.9766C12.2812 11.437 12.6429 11.8103 13.0889 11.8103H13.8966C14.3427 11.8103 14.7043 11.437 14.7043 10.9766V3.75162ZM9.32332 4.86328H10.131C10.5771 4.86328 10.9387 5.23652 10.9387 5.69694V10.9767C10.9387 11.4372 10.5771 11.8104 10.131 11.8104H9.32332C8.87724 11.8104 8.51562 11.4372 8.51562 10.9767V5.69694C8.51562 5.23652 8.87724 4.86328 9.32332 4.86328ZM6.36539 6.80859H5.55769C5.11162 6.80859 4.75 7.18183 4.75 7.64225V10.9769C4.75 11.4373 5.11162 11.8105 5.55769 11.8105H6.36539C6.81146 11.8105 7.17308 11.4373 7.17308 10.9769V7.64225C7.17308 7.18183 6.81146 6.80859 6.36539 6.80859ZM3.39964 9.31022C3.39964 8.8498 3.03802 8.47656 2.59195 8.47656H1.78425C1.33818 8.47656 0.976562 8.8498 0.976562 9.31022V10.9775C0.976562 11.4379 1.33818 11.8112 1.78425 11.8112H2.59195C3.03802 11.8112 3.39964 11.4379 3.39964 10.9775V9.31022Z" fill="#A3A3A3"/>
</svg>
