<svg width="24" height="24" viewBox="0 0 24 24" fill="none" xmlns="http://www.w3.org/2000/svg">
<g clipPath="url(#clip0_13411_167135)">
<path fillRule="evenodd" clipRule="evenodd" d="M20.9888 2C21.257 2 21.5142 2.10654 21.7038 2.29618C21.8935 2.48583 22 2.74304 22 3.01124V12C22 12.2682 21.8935 12.5254 21.7038 12.7151C21.5142 12.9047 21.257 13.0112 20.9888 13.0112C20.7206 13.0112 20.4634 12.9047 20.2737 12.7151C20.0841 12.5254 19.9775 12.2682 19.9775 12V5.45169L5.45169 19.9775H12C12.2682 19.9775 12.5254 20.0841 12.7151 20.2737C12.9047 20.4634 13.0112 20.7206 13.0112 20.9888C13.0112 21.257 12.9047 21.5142 12.7151 21.7038C12.5254 21.8935 12.2682 22 12 22H3.01124C2.74304 22 2.48583 21.8935 2.29618 21.7038C2.10654 21.5142 2 21.257 2 20.9888V12C2 11.8672 2.02616 11.7357 2.07698 11.613C2.1278 11.4903 2.20228 11.3788 2.29618 11.2849C2.39009 11.191 2.50156 11.1166 2.62425 11.0657C2.74694 11.0149 2.87844 10.9888 3.01124 10.9888C3.14403 10.9888 3.27553 11.0149 3.39822 11.0657C3.52091 11.1166 3.63239 11.191 3.72629 11.2849C3.82019 11.3788 3.89468 11.4903 3.9455 11.613C3.99632 11.7357 4.02247 11.8672 4.02247 12V18.5483L18.5483 4.02247H12C11.7318 4.02247 11.4746 3.91593 11.2849 3.72629C11.0953 3.53664 10.9888 3.27943 10.9888 3.01124C10.9888 2.74304 11.0953 2.48583 11.2849 2.29618C11.4746 2.10654 11.7318 2 12 2H20.9888Z" fill="#FAFAFA"/>
</g>
<defs>
<clipPath id="clip0_13411_167135">
<rect width="20" height="20" fill="white" transform="translate(2 2)"/>
</clipPath>
</defs>
</svg>
