<svg width="20" height="20" viewBox="0 0 20 20" fill="none" xmlns="http://www.w3.org/2000/svg">
<g clipPath="url(#clip0_13414_168490)">
<path d="M16.5611 8.88888H16.1111V4.90555C16.1111 4.61086 15.9941 4.32825 15.7857 4.11987C15.5773 3.9115 15.2947 3.79444 15 3.79444H11.6667C11.6315 3.12566 11.3625 2.4905 10.9065 2C10.4505 1.5095 9.83667 1.19487 9.17222 1.1111C8.79218 1.07198 8.40816 1.11167 8.04415 1.22769C7.68014 1.34372 7.34398 1.53359 7.05669 1.78543C6.76939 2.03727 6.53713 2.34567 6.37443 2.69134C6.21174 3.03702 6.1221 3.41254 6.11111 3.79444H2.22223C1.92754 3.79444 1.64493 3.9115 1.43655 4.11987C1.22818 4.32825 1.11111 4.61086 1.11111 4.90555V9.44444H2.67223C3.0997 9.43202 3.51677 9.57756 3.8437 9.85325C4.17063 10.1289 4.38451 10.5154 4.44445 10.9389C4.46607 11.1712 4.43868 11.4055 4.36403 11.6266C4.28939 11.8476 4.16915 12.0506 4.01111 12.2222C3.85579 12.3959 3.66578 12.535 3.45334 12.6307C3.24091 12.7264 3.01077 12.7765 2.77778 12.7778H1.11111V17.6833C1.11111 17.978 1.22818 18.2606 1.43655 18.469C1.64493 18.6774 1.92754 18.7944 2.22223 18.7944H15C15.2947 18.7944 15.5773 18.6774 15.7857 18.469C15.9941 18.2606 16.1111 17.978 16.1111 17.6833V14.4444H16.6667C17.0566 14.4465 17.4425 14.3664 17.7994 14.2094C18.1564 14.0525 18.4762 13.8221 18.7382 13.5334C19.0003 13.2446 19.1985 12.904 19.3202 12.5335C19.4419 12.1631 19.4842 11.7712 19.4444 11.3833C19.3544 10.6859 19.0107 10.046 18.4788 9.58587C17.947 9.12575 17.2643 8.87763 16.5611 8.88888ZM17.9 12.7778C17.7447 12.9514 17.5547 13.0906 17.3422 13.1863C17.1298 13.282 16.8997 13.3321 16.6667 13.3333H15V17.6833H2.22223V13.8889H2.77778C3.16768 13.8909 3.55364 13.8108 3.91055 13.6539C4.26746 13.4969 4.58733 13.2666 4.84935 12.9778C5.11137 12.6891 5.30966 12.3484 5.43133 11.978C5.55301 11.6075 5.59533 11.2156 5.55556 10.8278C5.46552 10.1303 5.12176 9.49042 4.58992 9.03031C4.05807 8.57019 3.37539 8.32208 2.67223 8.33333H2.22223V4.90555H7.22223V3.88888C7.22348 3.65589 7.27356 3.42575 7.36925 3.21332C7.46495 3.00088 7.60412 2.81087 7.77778 2.65555C7.94944 2.49751 8.15237 2.37728 8.37344 2.30263C8.59451 2.22798 8.82879 2.20059 9.06111 2.22221C9.48455 2.28215 9.87105 2.49603 10.1467 2.82296C10.4224 3.1499 10.568 3.56696 10.5556 3.99444V4.90555H15V9.99999H16.5611C16.9886 9.98757 17.4057 10.1331 17.7326 10.4088C18.0595 10.6845 18.2734 11.071 18.3333 11.4944C18.355 11.7268 18.3276 11.961 18.2529 12.1821C18.1783 12.4032 18.058 12.6061 17.9 12.7778Z" fill="#DCDEE2"/>
</g>
<defs>
<clipPath id="clip0_13414_168490">
<rect width="20" height="20" fill="white"/>
</clipPath>
</defs>
</svg>
