<svg width="24" height="24" viewBox="0 0 24 24" fill="none" xmlns="http://www.w3.org/2000/svg">
<mask id="mask0_13411_166928" style="mask-type:alpha" maskUnits="userSpaceOnUse" x="0" y="0" width="24" height="24">
<rect width="24" height="24" fill="#D9D9D9"/>
</mask>
<g mask="url(#mask0_13411_166928)">
<path d="M12.001 22C10.6343 22 9.34264 21.7375 8.12598 21.2125C6.90931 20.6875 5.84681 19.9708 4.93848 19.0625C4.03014 18.1542 3.31348 17.0917 2.78848 15.875C2.26348 14.6583 2.00098 13.3667 2.00098 12C2.00098 10.6167 2.27181 9.31667 2.81348 8.1C3.35514 6.88333 4.08848 5.825 5.01348 4.925C5.93848 4.025 7.01764 3.3125 8.25098 2.7875C9.48431 2.2625 10.801 2 12.201 2C13.5343 2 14.7926 2.22917 15.976 2.6875C17.1593 3.14583 18.1968 3.77917 19.0885 4.5875C19.9801 5.39583 20.6885 6.35417 21.2135 7.4625C21.7385 8.57083 22.001 9.76667 22.001 11.05C22.001 12.9667 21.4176 14.4375 20.251 15.4625C19.0843 16.4875 17.6676 17 16.001 17H14.151C14.001 17 13.8968 17.0417 13.8385 17.125C13.7801 17.2083 13.751 17.3 13.751 17.4C13.751 17.6 13.876 17.8875 14.126 18.2625C14.376 18.6375 14.501 19.0667 14.501 19.55C14.501 20.3833 14.2718 21 13.8135 21.4C13.3551 21.8 12.751 22 12.001 22ZM6.50098 13C6.93431 13 7.29264 12.8583 7.57598 12.575C7.85931 12.2917 8.00098 11.9333 8.00098 11.5C8.00098 11.0667 7.85931 10.7083 7.57598 10.425C7.29264 10.1417 6.93431 10 6.50098 10C6.06764 10 5.70931 10.1417 5.42598 10.425C5.14264 10.7083 5.00098 11.0667 5.00098 11.5C5.00098 11.9333 5.14264 12.2917 5.42598 12.575C5.70931 12.8583 6.06764 13 6.50098 13ZM9.50098 9C9.93431 9 10.2926 8.85833 10.576 8.575C10.8593 8.29167 11.001 7.93333 11.001 7.5C11.001 7.06667 10.8593 6.70833 10.576 6.425C10.2926 6.14167 9.93431 6 9.50098 6C9.06764 6 8.70931 6.14167 8.42598 6.425C8.14264 6.70833 8.00098 7.06667 8.00098 7.5C8.00098 7.93333 8.14264 8.29167 8.42598 8.575C8.70931 8.85833 9.06764 9 9.50098 9ZM14.501 9C14.9343 9 15.2926 8.85833 15.576 8.575C15.8593 8.29167 16.001 7.93333 16.001 7.5C16.001 7.06667 15.8593 6.70833 15.576 6.425C15.2926 6.14167 14.9343 6 14.501 6C14.0676 6 13.7093 6.14167 13.426 6.425C13.1426 6.70833 13.001 7.06667 13.001 7.5C13.001 7.93333 13.1426 8.29167 13.426 8.575C13.7093 8.85833 14.0676 9 14.501 9ZM17.501 13C17.9343 13 18.2926 12.8583 18.576 12.575C18.8593 12.2917 19.001 11.9333 19.001 11.5C19.001 11.0667 18.8593 10.7083 18.576 10.425C18.2926 10.1417 17.9343 10 17.501 10C17.0676 10 16.7093 10.1417 16.426 10.425C16.1426 10.7083 16.001 11.0667 16.001 11.5C16.001 11.9333 16.1426 12.2917 16.426 12.575C16.7093 12.8583 17.0676 13 17.501 13ZM12.001 20C12.151 20 12.2718 19.9583 12.3635 19.875C12.4551 19.7917 12.501 19.6833 12.501 19.55C12.501 19.3167 12.376 19.0417 12.126 18.725C11.876 18.4083 11.751 17.9333 11.751 17.3C11.751 16.6 11.9926 16.0417 12.476 15.625C12.9593 15.2083 13.551 15 14.251 15H16.001C17.101 15 18.0426 14.6792 18.826 14.0375C19.6093 13.3958 20.001 12.4 20.001 11.05C20.001 9.03333 19.2301 7.35417 17.6885 6.0125C16.1468 4.67083 14.3176 4 12.201 4C9.93431 4 8.00098 4.775 6.40098 6.325C4.80098 7.875 4.00098 9.76667 4.00098 12C4.00098 14.2167 4.78014 16.1042 6.33848 17.6625C7.89681 19.2208 9.78431 20 12.001 20Z" fill="#FAFAFA"/>
</g>
</svg>
