<svg width="25" height="25" viewBox="0 0 25 25" fill="none" xmlns="http://www.w3.org/2000/svg">
<mask id="mask0_11127_119484" style="mask-type:alpha" maskUnits="userSpaceOnUse" x="0" y="0" width="25" height="25">
<path fillRule="evenodd" clipRule="evenodd" d="M17.8001 24.499C17.9911 24.5738 18.1953 24.6084 18.4002 24.6005C18.605 24.5925 18.806 24.5423 18.9907 24.453L23.9319 22.0629C24.1863 21.9398 24.4011 21.747 24.5513 21.5066C24.7016 21.2662 24.7813 20.9881 24.7812 20.7042V4.49866C24.7813 4.21475 24.7016 3.93659 24.5514 3.69619C24.4011 3.45578 24.1864 3.26291 23.9319 3.13976L18.9907 0.750101C18.7115 0.61506 18.3974 0.570599 18.092 0.622869C17.7865 0.67514 17.5048 0.821558 17.2858 1.04186L7.82642 9.71657L3.70631 6.57263C3.52045 6.43078 3.29105 6.35881 3.05792 6.36921C2.82479 6.3796 2.60263 6.47171 2.43 6.62955L1.1085 7.83786C1.00552 7.93201 0.923219 8.04674 0.866868 8.17469C0.810517 8.30265 0.781356 8.44102 0.78125 8.58095C0.781144 8.72088 0.810096 8.8593 0.866253 8.98734C0.922411 9.11538 1.00454 9.23023 1.10738 9.32454L4.68056 12.6014L1.10757 15.8784C1.00478 15.9727 0.922703 16.0875 0.866581 16.2155C0.810459 16.3436 0.781526 16.482 0.781632 16.6219C0.781737 16.7618 0.81088 16.9001 0.867196 17.028C0.923512 17.156 1.00576 17.2707 1.10869 17.3649L2.43019 18.5732C2.60278 18.7311 2.82493 18.8232 3.05807 18.8337C3.29121 18.8441 3.52063 18.7721 3.7065 18.6303L7.82661 15.4865L17.286 24.161C17.4322 24.3083 17.6072 24.4234 17.8001 24.499ZM18.7848 7.12486L11.6075 12.6014L18.785 18.078L18.7848 7.12486Z" fill="white"/>
</mask>
<g mask="url(#mask0_11127_119484)">
<path d="M23.9466 3.14385L19.0015 0.750228C18.7222 0.615098 18.408 0.570588 18.1024 0.622859C17.7968 0.67513 17.5149 0.821597 17.2958 1.04199L1.10746 15.8785C1.0046 15.9728 0.922449 16.0876 0.866276 16.2156C0.810104 16.3436 0.781144 16.4821 0.78125 16.622C0.781356 16.7619 0.810526 16.9003 0.866891 17.0282C0.923257 17.1562 1.00558 17.2709 1.10858 17.365L2.43083 18.5733C2.60358 18.7312 2.82584 18.8233 3.05909 18.8338C3.29235 18.8442 3.52188 18.7722 3.70789 18.6304L23.2024 3.7645C23.8564 3.26579 24.7958 3.73472 24.7958 4.55986V4.50218C24.7958 4.21836 24.7161 3.9403 24.5658 3.69998C24.4156 3.45965 24.201 3.26701 23.9466 3.14385Z" fill="#0065A9"/>
<g filter="url(#filter0_d_11127_119484)">
<path d="M23.9466 22.0602L19.0015 24.4535C18.7222 24.5886 18.408 24.6332 18.1024 24.581C17.7969 24.5288 17.515 24.3824 17.2958 24.1621L1.10746 9.32541C1.0046 9.23113 0.922449 9.1163 0.866276 8.98827C0.810104 8.86024 0.781144 8.72184 0.78125 8.58191C0.781356 8.44198 0.810526 8.30362 0.866891 8.17568C0.923257 8.04774 1.00558 7.93303 1.10858 7.83891L2.43083 6.63061C2.60358 6.47271 2.82584 6.38056 3.05909 6.37013C3.29235 6.3597 3.52188 6.43165 3.70789 6.5735L23.2024 21.4392C23.8564 21.9381 24.7958 21.4692 24.7958 20.644V20.7017C24.7958 20.9855 24.7161 21.2636 24.5658 21.5039C24.4156 21.7442 24.201 21.9371 23.9466 22.0602Z" fill="#007ACC"/>
</g>
<g filter="url(#filter1_d_11127_119484)">
<path d="M18.9754 24.4533C18.696 24.5884 18.3818 24.6328 18.0762 24.5805C17.7706 24.5282 17.4887 24.3818 17.2695 24.1614C17.823 24.7178 18.7695 24.3237 18.7695 23.5368V1.66643C18.7695 0.879552 17.823 0.485453 17.2695 1.04202C17.4887 0.821654 17.7706 0.675193 18.0762 0.622892C18.3818 0.570591 18.696 0.615032 18.9754 0.750071L23.9196 3.1403C24.1742 3.26337 24.389 3.4562 24.5394 3.69661C24.6898 3.93702 24.7695 4.21522 24.7695 4.4992V20.7046C24.7695 20.9886 24.6898 21.2668 24.5394 21.5072C24.389 21.7476 24.1742 21.9404 23.9196 22.0635L18.9754 24.4533Z" fill="#1F9CF0"/>
</g>
<path opacity="0.25" fillRule="evenodd" clipRule="evenodd" d="M17.8002 24.499C17.9911 24.5738 18.1954 24.6083 18.4002 24.6004C18.6049 24.5925 18.8059 24.5423 18.9906 24.453L23.9318 22.0629C24.1863 21.9398 24.401 21.7469 24.5513 21.5065C24.7015 21.2661 24.7812 20.988 24.7812 20.7041V4.49866C24.7812 4.21475 24.7015 3.93659 24.5513 3.69619C24.401 3.45578 24.1863 3.26291 23.9318 3.13977L18.9906 0.750101C18.7114 0.61506 18.3973 0.570599 18.0919 0.622869C17.7864 0.67514 17.5047 0.821558 17.2857 1.04186L7.82633 9.71657L3.70622 6.57282C3.52036 6.43097 3.29096 6.359 3.05783 6.3694C2.8247 6.37979 2.60254 6.4719 2.42991 6.62974L1.10841 7.83805C1.00545 7.93222 0.923177 8.04695 0.866843 8.1749C0.810508 8.30285 0.781356 8.44122 0.78125 8.58114C0.781144 8.72107 0.810087 8.85947 0.866228 8.98751C0.922369 9.11555 1.00447 9.23041 1.10729 9.32473L4.68046 12.6014L1.10748 15.8782C1.00463 15.9725 0.922507 16.0873 0.86635 16.2154C0.810193 16.3434 0.781241 16.4818 0.781347 16.6218C0.781453 16.7617 0.810614 16.9001 0.866965 17.028C0.923316 17.156 1.00562 17.2707 1.1086 17.3649L2.4301 18.5732C2.60271 18.731 2.82485 18.8232 3.05798 18.8336C3.29112 18.844 3.52052 18.7721 3.70641 18.6303L7.82671 15.4863L17.2861 24.161C17.4323 24.3083 17.6073 24.4234 17.8002 24.499ZM18.7849 7.12467L11.6074 12.6014L18.7849 18.0779V7.12467Z" fill="url(#paint0_linear_11127_119484)"/>
</g>
<defs>
<filter id="filter0_d_11127_119484" x="-6.19985" y="-0.611963" width="37.9759" height="32.1946" filterUnits="userSpaceOnUse" color-interpolation-filters="sRGB">
<feFlood flood-opacity="0" result="BackgroundImageFix"/>
<feColorMatrix in="SourceAlpha" type="matrix" values="0 0 0 0 0 0 0 0 0 0 0 0 0 0 0 0 0 0 127 0" result="hardAlpha"/>
<feOffset/>
<feGaussianBlur stdDeviation="3.49055"/>
<feColorMatrix type="matrix" values="0 0 0 0 0 0 0 0 0 0 0 0 0 0 0 0 0 0 0.25 0"/>
<feBlend mode="overlay" in2="BackgroundImageFix" result="effect1_dropShadow_11127_119484"/>
<feBlend mode="normal" in="SourceGraphic" in2="effect1_dropShadow_11127_119484" result="shape"/>
</filter>
<filter id="filter1_d_11127_119484" x="10.2884" y="-6.37954" width="21.4622" height="37.9622" filterUnits="userSpaceOnUse" color-interpolation-filters="sRGB">
<feFlood flood-opacity="0" result="BackgroundImageFix"/>
<feColorMatrix in="SourceAlpha" type="matrix" values="0 0 0 0 0 0 0 0 0 0 0 0 0 0 0 0 0 0 127 0" result="hardAlpha"/>
<feOffset/>
<feGaussianBlur stdDeviation="3.49055"/>
<feColorMatrix type="matrix" values="0 0 0 0 0 0 0 0 0 0 0 0 0 0 0 0 0 0 0.25 0"/>
<feBlend mode="overlay" in2="BackgroundImageFix" result="effect1_dropShadow_11127_119484"/>
<feBlend mode="normal" in="SourceGraphic" in2="effect1_dropShadow_11127_119484" result="shape"/>
</filter>
<linearGradient id="paint0_linear_11127_119484" x1="12.7812" y1="0.601206" x2="12.7812" y2="24.6015" gradientUnits="userSpaceOnUse">
<stop stop-color="white"/>
<stop offset="1" stop-color="white" stop-opacity="0"/>
</linearGradient>
</defs>
</svg>
