<svg width="24" height="24" viewBox="0 0 24 24" fill="none" xmlns="http://www.w3.org/2000/svg">
<g id="bxs:file-gif">
<path id="Vector" d="M14 2H6C5.46957 2 4.96086 2.21071 4.58579 2.58579C4.21071 2.96086 4 3.46957 4 4V20C4 20.5304 4.21071 21.0391 4.58579 21.4142C4.96086 21.7893 5.46957 22 6 22H18C18.5304 22 19.0391 21.7893 19.4142 21.4142C19.7893 21.0391 20 20.5304 20 20V8L14 2ZM11.333 17.772C10.8975 17.9161 10.4426 17.993 9.984 18C9.247 18 8.713 17.814 8.34 17.454C7.969 17.106 7.765 16.579 7.771 15.985C7.777 14.641 8.754 13.874 10.08 13.874C10.601 13.874 11.004 13.977 11.201 14.072L11.01 14.803C10.788 14.707 10.512 14.629 10.069 14.629C9.307 14.629 8.731 15.061 8.731 15.937C8.731 16.77 9.253 17.262 10.002 17.262C10.212 17.262 10.38 17.238 10.452 17.201V16.355H9.828V15.642H11.333V17.772ZM12.967 17.958H12.049V13.916H12.967V17.958ZM16.229 14.666H14.676V15.589H16.127V16.333H14.676V17.958H13.758V13.916H16.229V14.666ZM14 9H13V4L18 9H14Z" fill="#272625"/>
</g>
</svg>
