<svg width="25" height="24" viewBox="0 0 25 24" fill="none" xmlns="http://www.w3.org/2000/svg">
<path d="M12.666 2.00098C16.6701 2.00098 19.916 5.24691 19.916 9.25098C19.916 11.347 19.0153 13.2707 17.253 14.9929C17.176 15.0681 17.1164 15.1586 17.0779 15.2582L17.0464 15.3605L15.9153 20.2561C15.6926 21.22 14.8695 21.9183 13.8963 21.993L13.7231 21.9996H11.6093C10.6198 21.9996 9.75392 21.3545 9.46231 20.4228L9.4169 20.2555L8.28733 15.3607C8.25505 15.2208 8.18329 15.0931 8.08058 14.9928C6.40117 13.3526 5.5038 11.5297 5.42214 9.54923L5.41602 9.25098L5.41989 9.01166C5.54616 5.11837 8.74203 2.00098 12.666 2.00098ZM14.781 18.499H10.55L10.8785 19.9182C10.9492 20.2245 11.2017 20.4504 11.5061 20.4925L11.6093 20.4996H13.7231C14.0373 20.4996 14.3141 20.3044 14.4237 20.0174L14.4538 19.9184L14.781 18.499ZM12.666 3.50098C9.56423 3.50098 7.03608 5.95699 6.92017 9.03042L6.91602 9.25098L6.92273 9.52799C6.99888 11.0913 7.72323 12.5471 9.12864 13.9197C9.23715 14.0257 9.33415 14.1419 9.41852 14.2662C10.3954 13.776 11.4985 13.5 12.666 13.5C13.834 13.5 14.9375 13.7762 15.9147 14.2668C15.9649 14.1928 16.0195 14.1217 16.0784 14.0539L16.2046 13.9201C17.6092 12.5475 18.3332 11.0916 18.4093 9.52803L18.416 9.25098L18.4118 9.03042C18.2959 5.95699 15.7678 3.50098 12.666 3.50098ZM15.4268 15.7049C14.6074 15.2555 13.6665 15 12.666 15C11.6657 15 10.7251 15.2554 9.90583 15.7046L10.204 16.999H15.127L15.4268 15.7049ZM12.666 7.5C11.6995 7.5 10.916 8.2835 10.916 9.25C10.916 10.2165 11.6995 11 12.666 11C13.6325 11 14.416 10.2165 14.416 9.25C14.416 8.2835 13.6325 7.5 12.666 7.5ZM9.41602 9.25C9.41602 7.45507 10.8711 6 12.666 6C14.4609 6 15.916 7.45507 15.916 9.25C15.916 11.0449 14.4609 12.5 12.666 12.5C10.8711 12.5 9.41602 11.0449 9.41602 9.25Z" fill="#FAFAFA"/>
</svg>
