<svg width="229" height="52" viewBox="0 0 229 52" fill="none" xmlns="http://www.w3.org/2000/svg">
<g id="shadcnui 1">
<path id="Vector" d="M221.767 38.4302V19.8371H226.161V38.4302H221.767ZM223.964 17.201C223.476 17.2064 222.997 17.0719 222.583 16.8136C222.168 16.5553 221.837 16.1838 221.627 15.7431C221.488 15.4635 221.428 15.1439 221.428 14.8244C221.425 14.5065 221.492 14.1919 221.623 13.9023C221.754 13.6126 221.946 13.3549 222.187 13.1468C222.666 12.6875 223.305 12.4279 223.984 12.4479C224.683 12.4479 225.262 12.6875 225.781 13.1468C226.018 13.3568 226.207 13.6153 226.334 13.9049C226.462 14.1944 226.525 14.5081 226.52 14.8244C226.52 15.4835 226.261 16.0426 225.761 16.502C225.278 16.9625 224.632 17.2137 223.964 17.201ZM212.88 30.6015V19.8571H217.274V38.4302H213.02V35.135H212.82C212.397 36.1689 211.673 37.0523 210.743 37.6713C209.805 38.3503 208.626 38.6698 207.228 38.6698C206.114 38.7314 205.007 38.4605 204.047 37.8916C203.087 37.3227 202.317 36.4814 201.836 35.4745C201.297 34.436 201.037 33.1578 201.037 31.68V19.8371H205.431V31.001C205.431 32.1792 205.73 33.1179 206.389 33.7969C207.029 34.4959 207.867 34.8554 208.926 34.8554C209.565 34.8554 210.204 34.6956 210.803 34.3761C211.402 34.0565 211.921 33.5772 212.281 32.9781C212.68 32.339 212.88 31.5601 212.88 30.6215V30.6015ZM198.241 12.4678L190.253 42.1648H186.398L194.387 12.4678H198.221H198.241Z" fill="black"/>
<path id="Vector_2" fillRule="evenodd" clipRule="evenodd" d="M43.1472 24.5106C43.2982 24.6593 43.4181 24.8365 43.4999 25.0319C43.5817 25.2274 43.6239 25.4371 43.6239 25.649C43.6239 25.8608 43.5817 26.0706 43.4999 26.266C43.4181 26.4615 43.2982 26.6387 43.1472 26.7873L27.1704 42.7642C26.8685 43.0661 26.459 43.2357 26.032 43.2357C25.6051 43.2357 25.1956 43.0661 24.8937 42.7642C24.5918 42.4622 24.4222 42.0528 24.4222 41.6258C24.4222 41.1988 24.5918 40.7894 24.8937 40.4875L40.8705 24.5106C41.0192 24.3597 41.1964 24.2398 41.3918 24.158C41.5873 24.0761 41.797 24.034 42.0089 24.034C42.2207 24.034 42.4305 24.0761 42.6259 24.158C42.8214 24.2398 42.9986 24.3597 43.1472 24.5106ZM39.9519 6.93611C40.1028 7.08477 40.2227 7.26197 40.3045 7.4574C40.3864 7.65283 40.4285 7.86259 40.4285 8.07446C40.4285 8.28633 40.3864 8.49608 40.3045 8.69151C40.2227 8.88694 40.1028 9.06414 39.9519 9.21281L9.59588 39.5688C9.44639 39.7183 9.26891 39.8369 9.0736 39.9178C8.87828 39.9987 8.66894 40.0403 8.45753 40.0403C8.24611 40.0403 8.03677 39.9987 7.84146 39.9178C7.64614 39.8369 7.46867 39.7183 7.31918 39.5688C7.16969 39.4193 7.0511 39.2418 6.9702 39.0465C6.8893 38.8512 6.84766 38.6419 6.84766 38.4304C6.84766 38.219 6.8893 38.0097 6.9702 37.8144C7.0511 37.6191 7.16969 37.4416 7.31918 37.2921L37.6752 6.93611C37.8238 6.78515 38.001 6.66527 38.1965 6.58344C38.3919 6.50161 38.6016 6.45947 38.8135 6.45947C39.0254 6.45947 39.2351 6.50161 39.4306 6.58344C39.626 6.66527 39.8032 6.78515 39.9519 6.93611Z" fill="black"/>
<path id="Vector_3" d="M171.722 27.5463V38.4305H167.349V19.8375H171.543V22.9929H171.742C172.162 21.9944 172.881 21.1157 173.799 20.5165C174.738 19.9174 175.916 19.5979 177.294 19.5979C178.466 19.5677 179.624 19.8503 180.649 20.4167C181.608 20.9759 182.387 21.8146 182.886 22.8132C183.405 23.8517 183.685 25.1099 183.665 26.6077V38.4305H179.271V27.2667C179.271 26.0285 178.972 25.0699 178.313 24.351C177.974 23.992 177.56 23.7113 177.102 23.5285C176.643 23.3457 176.15 23.2651 175.657 23.2925C174.898 23.2925 174.219 23.4722 173.62 23.8117C173.02 24.1513 172.541 24.6505 172.222 25.2497C171.902 25.8887 171.722 26.6476 171.722 27.5463ZM155.785 38.79C154.169 38.8885 152.56 38.5045 151.163 37.6866C149.765 36.8688 148.642 35.654 147.937 34.1967C147.202 32.6367 146.84 30.9277 146.878 29.2039C146.847 27.4764 147.223 25.7659 147.977 24.2112C148.656 22.8132 149.714 21.6149 151.052 20.8161C152.37 20.0172 153.948 19.5979 155.765 19.5979C157.143 19.5744 158.508 19.8611 159.76 20.4366C160.896 20.9553 161.868 21.7746 162.572 22.8059C163.276 23.8372 163.685 25.0414 163.754 26.2882H159.56C159.418 25.425 158.997 24.6322 158.362 24.0314C157.723 23.4323 156.884 23.1327 155.825 23.1327C154.987 23.1327 154.148 23.3724 153.469 23.8517C152.79 24.331 152.271 25.01 151.871 25.9087C151.473 26.9398 151.283 28.0393 151.312 29.144C151.312 30.4022 151.512 31.5006 151.871 32.3993C152.251 33.298 152.77 33.997 153.449 34.4963C154.144 34.9823 154.977 35.2341 155.825 35.2152C156.464 35.2152 157.044 35.0954 157.563 34.8557C158.062 34.6161 158.521 34.2566 158.841 33.7773C159.22 33.278 159.44 32.6989 159.56 32.0798H163.754C163.693 33.3183 163.299 34.5175 162.614 35.5509C161.929 36.5843 160.977 37.4136 159.859 37.9512C158.584 38.5393 157.19 38.8263 155.785 38.79ZM133.098 38.7501C131.675 38.777 130.278 38.3714 129.09 37.5869C127.903 36.8024 126.981 35.6759 126.448 34.3565C125.739 32.7196 125.398 30.947 125.449 29.164C125.449 27.087 125.789 25.3495 126.448 23.9316C127.147 22.4937 128.066 21.4152 129.244 20.6963C130.215 20.0841 131.319 19.7155 132.463 19.6216C133.607 19.5277 134.757 19.7114 135.814 20.157C136.453 20.4766 137.013 20.9159 137.472 21.4751C137.851 21.9145 138.171 22.3938 138.431 22.913H138.63V13.6465H143.024V38.4305H138.71V35.4948H138.431C138.171 36.0141 137.831 36.4934 137.452 36.9327C136.911 37.5458 136.239 38.028 135.484 38.3428C134.73 38.6577 133.914 38.7969 133.098 38.7501ZM134.337 35.1553C135.189 35.1832 136.026 34.9229 136.713 34.4164C137.352 33.8971 137.851 33.1981 138.191 32.2994C138.544 31.2859 138.714 30.2172 138.69 29.144C138.69 27.9458 138.53 26.8873 138.191 26.0086C137.91 25.1876 137.397 24.4659 136.713 23.9316C136.02 23.4222 135.176 23.1618 134.317 23.1926C133.358 23.1926 132.539 23.4523 131.88 23.9515C131.241 24.4708 130.742 25.1498 130.402 26.0685C130.056 27.0561 129.887 28.0974 129.903 29.144C129.903 30.3023 130.083 31.3408 130.402 32.2395C130.742 33.1582 131.241 33.8572 131.9 34.3964C132.559 34.8957 133.378 35.1553 134.337 35.1553ZM111.989 38.81C110.811 38.81 109.752 38.6103 108.794 38.1709C107.891 37.7688 107.122 37.1176 106.577 36.2936C106.038 35.4549 105.778 34.4363 105.778 33.2181C105.778 32.1596 105.978 31.3009 106.357 30.6219C106.717 29.9429 107.276 29.3637 107.935 28.9643C108.634 28.5375 109.396 28.2209 110.192 28.0256C111.05 27.8259 111.929 27.6462 112.828 27.5663L115.484 27.2667C116.163 27.1669 116.642 27.0071 116.962 26.8274C117.261 26.6277 117.421 26.3081 117.421 25.8887V25.8288C117.421 24.9102 117.141 24.1912 116.622 23.6919C116.063 23.1926 115.284 22.953 114.266 22.953C113.367 22.9079 112.478 23.153 111.729 23.652C111.15 24.063 110.711 24.6415 110.471 25.3096L106.377 24.7304C106.656 23.6704 107.198 22.6977 107.951 21.9019C108.705 21.1062 109.647 20.513 110.691 20.177C112.705 19.5245 114.86 19.4347 116.922 19.9174C117.8 20.1171 118.619 20.4566 119.358 20.9559C120.097 21.4352 120.716 22.1142 121.136 22.8931C121.575 23.7319 121.795 24.7504 121.795 25.9886V38.4305H117.601V35.8743H117.441C116.819 37.0533 115.779 37.9578 114.525 38.4106C113.806 38.6702 112.948 38.81 111.989 38.81ZM113.127 35.5947C114.006 35.5947 114.765 35.3949 115.404 35.0754C116.023 34.7359 116.542 34.2566 116.902 33.6774C117.261 33.0783 117.441 32.4392 117.441 31.7602V29.5634C117.301 29.6832 117.062 29.7831 116.722 29.8829C115.968 30.0585 115.209 30.2117 114.445 30.3423L113.407 30.4821C112.768 30.562 112.169 30.7217 111.669 30.9214C111.19 31.0812 110.771 31.3808 110.431 31.7602C110.132 32.1197 109.992 32.5591 109.992 33.1582C109.992 33.957 110.291 34.5562 110.871 34.9556C111.47 35.375 112.209 35.5947 113.127 35.5947ZM90.1206 27.5463V38.4305H85.727V13.6465H90.0208V22.9929H90.2205C90.6399 21.9944 91.3588 21.1157 92.2575 20.5165C93.3109 19.8657 94.5353 19.5457 95.7724 19.5979C97.0506 19.5979 98.169 19.8575 99.1475 20.3967C100.106 20.9559 100.845 21.7348 101.364 22.7932C101.904 23.8117 102.163 25.0899 102.163 26.5877V38.4305H97.7895V27.2667C97.7895 26.0285 97.47 25.0499 96.8109 24.351C96.4679 23.9915 96.0511 23.7107 95.5891 23.528C95.127 23.3452 94.6309 23.2649 94.1348 23.2925C93.3559 23.2925 92.6569 23.4722 92.0578 23.8117C91.4587 24.1313 90.9594 24.6505 90.6199 25.2497C90.2804 25.8887 90.1206 26.6476 90.1206 27.5463ZM81.7328 24.7504L77.7386 25.1897C77.6107 24.7539 77.3913 24.3504 77.0952 24.006C76.799 23.6616 76.4328 23.3843 76.0211 23.1926C75.479 22.9613 74.8926 22.8522 74.3036 22.8731C73.3849 22.8731 72.626 23.0728 72.0069 23.4722C71.4078 23.8717 71.0882 24.3709 71.0882 24.99C71.0772 25.2414 71.1258 25.4918 71.2299 25.7208C71.334 25.9499 71.4908 26.1511 71.6873 26.3081C72.0868 26.6476 72.7858 26.9272 73.7244 27.1469L76.8998 27.8259C78.3445 28.0554 79.6985 28.6771 80.8141 29.6233C81.6729 30.4621 82.1122 31.5405 82.1322 32.8586C82.1322 33.977 81.7727 35.0554 81.0937 35.9541C80.3674 36.892 79.4015 37.6165 78.2978 38.0511C76.9892 38.5684 75.5906 38.8196 74.1837 38.79C72.2517 38.8847 70.3364 38.3903 68.6917 37.3721C68.0173 36.9202 67.4461 36.3307 67.0159 35.6422C66.5856 34.9538 66.306 34.1821 66.1953 33.3779L70.4691 32.9385C70.6688 33.7773 71.0682 34.4164 71.7073 34.8557C72.3464 35.2751 73.1652 35.4948 74.1638 35.4948C75.2023 35.4948 76.041 35.2751 76.6801 34.8557C77.3192 34.4164 77.6387 33.8971 77.6387 33.258C77.6427 33.0057 77.589 32.7558 77.4817 32.5274C77.3744 32.299 77.2163 32.098 77.0196 31.94C76.6202 31.6005 75.9811 31.3408 75.1224 31.1411L71.947 30.4821C70.1695 30.1026 68.8515 29.4835 67.9927 28.6048C67.5664 28.156 67.2352 27.6257 67.019 27.0457C66.8028 26.4657 66.706 25.848 66.7345 25.2297C66.7345 24.0913 67.0341 23.0928 67.6532 22.254C68.2923 21.4152 69.171 20.7562 70.3093 20.2968C71.5625 19.8089 72.8991 19.5714 74.2436 19.5979C76.4205 19.5979 78.138 20.0572 79.3962 20.9958C80.6543 21.9145 81.4332 23.1727 81.7328 24.7504Z" fill="black"/>
</g>
</svg>
