<svg width="1368" height="460" viewBox="0 0 1368 460" fill="none" xmlns="http://www.w3.org/2000/svg">
<rect width="1368" height="459.531" rx="8" fill="black"/>
<path d="M150.221 94.8331C149.245 94.8331 148.341 94.6731 147.509 94.3531C146.677 94.0331 145.957 93.5851 145.349 93.0091C144.757 92.4491 144.325 91.7851 144.053 91.0171L146.981 89.9131C147.173 90.5211 147.549 91.0091 148.109 91.3771C148.685 91.7611 149.389 91.9531 150.221 91.9531C150.861 91.9531 151.421 91.8331 151.901 91.5931C152.397 91.3531 152.781 91.0011 153.053 90.5371C153.325 90.0891 153.461 89.5451 153.461 88.9051V85.9291L154.061 86.6491C153.613 87.4331 153.013 88.0251 152.261 88.4251C151.509 88.8251 150.653 89.0251 149.693 89.0251C148.477 89.0251 147.389 88.7451 146.429 88.1851C145.469 87.6251 144.717 86.8571 144.173 85.8811C143.629 84.9051 143.357 83.8091 143.357 82.5931C143.357 81.3611 143.629 80.2651 144.173 79.3051C144.717 78.3451 145.461 77.5931 146.405 77.0491C147.349 76.4891 148.421 76.2091 149.621 76.2091C150.597 76.2091 151.453 76.4171 152.189 76.8331C152.941 77.2331 153.565 77.8171 154.061 78.5851L153.629 79.3771V76.4971H156.605V88.9051C156.605 90.0411 156.325 91.0571 155.765 91.9531C155.221 92.8491 154.469 93.5531 153.509 94.0651C152.565 94.5771 151.469 94.8331 150.221 94.8331ZM150.077 86.1211C150.749 86.1211 151.333 85.9771 151.829 85.6891C152.341 85.3851 152.741 84.9691 153.029 84.4411C153.317 83.9131 153.461 83.3051 153.461 82.6171C153.461 81.9451 153.309 81.3451 153.005 80.8171C152.717 80.2731 152.317 79.8491 151.805 79.5451C151.309 79.2411 150.733 79.0891 150.077 79.0891C149.421 79.0891 148.829 79.2411 148.301 79.5451C147.773 79.8491 147.357 80.2731 147.053 80.8171C146.765 81.3451 146.621 81.9451 146.621 82.6171C146.621 83.2891 146.765 83.8891 147.053 84.4171C147.357 84.9451 147.765 85.3611 148.277 85.6651C148.805 85.9691 149.405 86.1211 150.077 86.1211ZM159.061 89.5531V71.3851H162.205V89.5531H159.061ZM169.284 89.8411C168.276 89.8411 167.396 89.6171 166.644 89.1691C165.908 88.7211 165.34 88.0971 164.94 87.2971C164.556 86.4971 164.364 85.5611 164.364 84.4891V76.4971H167.508V84.2251C167.508 84.7691 167.612 85.2491 167.82 85.6651C168.044 86.0651 168.356 86.3851 168.756 86.6251C169.172 86.8491 169.636 86.9611 170.148 86.9611C170.66 86.9611 171.116 86.8491 171.516 86.6251C171.916 86.3851 172.228 86.0571 172.452 85.6411C172.676 85.2251 172.788 84.7291 172.788 84.1531V76.4971H175.932V89.5531H172.956V86.9851L173.22 87.4411C172.916 88.2411 172.412 88.8411 171.708 89.2411C171.02 89.6411 170.212 89.8411 169.284 89.8411ZM184.566 89.8411C183.222 89.8411 182.046 89.5371 181.038 88.9291C180.03 88.3211 179.246 87.4971 178.686 86.4571C178.126 85.4171 177.846 84.2651 177.846 83.0011C177.846 81.6891 178.126 80.5291 178.686 79.5211C179.262 78.4971 180.038 77.6891 181.014 77.0971C182.006 76.5051 183.11 76.2091 184.326 76.2091C185.35 76.2091 186.246 76.3771 187.014 76.7131C187.798 77.0491 188.462 77.5131 189.006 78.1051C189.55 78.6971 189.966 79.3771 190.254 80.1451C190.542 80.8971 190.686 81.7131 190.686 82.5931C190.686 82.8171 190.67 83.0491 190.638 83.2891C190.622 83.5291 190.582 83.7371 190.518 83.9131H180.438V81.5131H188.742L187.254 82.6411C187.398 81.9051 187.358 81.2491 187.134 80.6731C186.926 80.0971 186.574 79.6411 186.078 79.3051C185.598 78.9691 185.014 78.8011 184.326 78.8011C183.67 78.8011 183.086 78.9691 182.574 79.3051C182.062 79.6251 181.67 80.1051 181.398 80.7451C181.142 81.3691 181.046 82.1291 181.11 83.0251C181.046 83.8251 181.15 84.5371 181.422 85.1611C181.71 85.7691 182.126 86.2411 182.67 86.5771C183.23 86.9131 183.87 87.0811 184.59 87.0811C185.31 87.0811 185.918 86.9291 186.414 86.6251C186.926 86.3211 187.326 85.9131 187.614 85.4011L190.158 86.6491C189.902 87.2731 189.502 87.8251 188.958 88.3051C188.414 88.7851 187.766 89.1611 187.014 89.4331C186.278 89.7051 185.462 89.8411 184.566 89.8411ZM197.558 89.8411C196.166 89.8411 194.95 89.5131 193.91 88.8571C192.886 88.1851 192.182 87.2811 191.798 86.1451L194.15 85.0171C194.486 85.7531 194.95 86.3291 195.542 86.7451C196.15 87.1611 196.822 87.3691 197.558 87.3691C198.134 87.3691 198.59 87.2411 198.926 86.9851C199.262 86.7291 199.43 86.3931 199.43 85.9771C199.43 85.7211 199.358 85.5131 199.214 85.3531C199.086 85.1771 198.902 85.0331 198.662 84.9211C198.438 84.7931 198.19 84.6891 197.918 84.6091L195.782 84.0091C194.678 83.6891 193.838 83.2011 193.262 82.5451C192.702 81.8891 192.422 81.1131 192.422 80.2171C192.422 79.4171 192.622 78.7211 193.022 78.1291C193.438 77.5211 194.006 77.0491 194.726 76.7131C195.462 76.3771 196.302 76.2091 197.246 76.2091C198.478 76.2091 199.566 76.5051 200.51 77.0971C201.454 77.6891 202.126 78.5211 202.526 79.5931L200.126 80.7211C199.902 80.1291 199.526 79.6571 198.998 79.3051C198.47 78.9531 197.878 78.7771 197.222 78.7771C196.694 78.7771 196.278 78.8971 195.974 79.1371C195.67 79.3771 195.518 79.6891 195.518 80.0731C195.518 80.3131 195.582 80.5211 195.71 80.6971C195.838 80.8731 196.014 81.0171 196.238 81.1291C196.478 81.2411 196.75 81.3451 197.054 81.4411L199.142 82.0651C200.214 82.3851 201.038 82.8651 201.614 83.5051C202.206 84.1451 202.502 84.9291 202.502 85.8571C202.502 86.6411 202.294 87.3371 201.878 87.9451C201.462 88.5371 200.886 89.0011 200.15 89.3371C199.414 89.6731 198.55 89.8411 197.558 89.8411ZM210.39 89.6971C208.918 89.6971 207.774 89.2971 206.958 88.4971C206.158 87.6811 205.758 86.5371 205.758 85.0651V79.3051H203.502V76.4971H203.742C204.382 76.4971 204.878 76.3291 205.23 75.9931C205.582 75.6571 205.758 75.1691 205.758 74.5291V73.5211H208.902V76.4971H211.902V79.3051H208.902V84.8971C208.902 85.3291 208.974 85.6971 209.118 86.0011C209.278 86.3051 209.518 86.5371 209.838 86.6971C210.174 86.8571 210.598 86.9371 211.11 86.9371C211.222 86.9371 211.35 86.9291 211.494 86.9131C211.654 86.8971 211.806 86.8811 211.95 86.8651V89.5531C211.726 89.5851 211.47 89.6171 211.182 89.6491C210.894 89.6811 210.63 89.6971 210.39 89.6971ZM217.785 89.8411C216.873 89.8411 216.081 89.6891 215.409 89.3851C214.737 89.0811 214.217 88.6491 213.849 88.0891C213.481 87.5131 213.297 86.8491 213.297 86.0971C213.297 85.3771 213.457 84.7371 213.777 84.1771C214.097 83.6011 214.593 83.1211 215.265 82.7371C215.937 82.3531 216.785 82.0811 217.809 81.9211L222.081 81.2251V83.6251L218.409 84.2491C217.785 84.3611 217.321 84.5611 217.017 84.8491C216.713 85.1371 216.561 85.5131 216.561 85.9771C216.561 86.4251 216.729 86.7851 217.065 87.0571C217.417 87.3131 217.849 87.4411 218.361 87.4411C219.017 87.4411 219.593 87.3051 220.089 87.0331C220.601 86.7451 220.993 86.3531 221.265 85.8571C221.553 85.3611 221.697 84.8171 221.697 84.2251V80.8651C221.697 80.3051 221.473 79.8411 221.025 79.4731C220.593 79.0891 220.017 78.8971 219.297 78.8971C218.625 78.8971 218.025 79.0811 217.497 79.4491C216.985 79.8011 216.609 80.2731 216.369 80.8651L213.801 79.6171C214.057 78.9291 214.457 78.3371 215.001 77.8411C215.561 77.3291 216.217 76.9291 216.969 76.6411C217.721 76.3531 218.537 76.2091 219.417 76.2091C220.489 76.2091 221.433 76.4091 222.249 76.8091C223.065 77.1931 223.697 77.7371 224.145 78.4411C224.609 79.1291 224.841 79.9371 224.841 80.8651V89.5531H221.865V87.3211L222.537 87.2731C222.201 87.8331 221.801 88.3051 221.337 88.6891C220.873 89.0571 220.345 89.3451 219.753 89.5531C219.161 89.7451 218.505 89.8411 217.785 89.8411ZM233.555 89.8411C232.259 89.8411 231.091 89.5451 230.051 88.9531C229.027 88.3451 228.219 87.5291 227.627 86.5051C227.035 85.4651 226.739 84.2971 226.739 83.0011C226.739 81.7051 227.035 80.5451 227.627 79.5211C228.219 78.4971 229.027 77.6891 230.051 77.0971C231.091 76.5051 232.259 76.2091 233.555 76.2091C234.483 76.2091 235.347 76.3771 236.147 76.7131C236.947 77.0331 237.635 77.4811 238.211 78.0571C238.803 78.6171 239.227 79.2891 239.483 80.0731L236.723 81.2731C236.483 80.6171 236.075 80.0891 235.499 79.6891C234.939 79.2891 234.291 79.0891 233.555 79.0891C232.867 79.0891 232.251 79.2571 231.707 79.5931C231.179 79.9291 230.763 80.3931 230.459 80.9851C230.155 81.5771 230.003 82.2571 230.003 83.0251C230.003 83.7931 230.155 84.4731 230.459 85.0651C230.763 85.6571 231.179 86.1211 231.707 86.4571C232.251 86.7931 232.867 86.9611 233.555 86.9611C234.307 86.9611 234.963 86.7611 235.523 86.3611C236.083 85.9611 236.483 85.4251 236.723 84.7531L239.483 86.0011C239.227 86.7371 238.811 87.4011 238.235 87.9931C237.659 88.5691 236.971 89.0251 236.171 89.3611C235.371 89.6811 234.499 89.8411 233.555 89.8411ZM241.388 89.5531V71.3851H244.532V83.2891L243.332 82.9291L249.476 76.4971H253.388L248.564 81.7531L253.484 89.5531H249.884L245.612 82.7851L247.484 82.4011L243.548 86.6251L244.532 84.7051V89.5531H241.388ZM255.408 84.4171V81.6571H265.608V84.4171H255.408ZM273.327 89.8411C272.319 89.8411 271.439 89.6171 270.687 89.1691C269.951 88.7211 269.383 88.0971 268.983 87.2971C268.599 86.4971 268.407 85.5611 268.407 84.4891V76.4971H271.551V84.2251C271.551 84.7691 271.655 85.2491 271.863 85.6651C272.087 86.0651 272.399 86.3851 272.799 86.6251C273.215 86.8491 273.679 86.9611 274.191 86.9611C274.703 86.9611 275.159 86.8491 275.559 86.6251C275.959 86.3851 276.271 86.0571 276.495 85.6411C276.719 85.2251 276.831 84.7291 276.831 84.1531V76.4971H279.975V89.5531H276.999V86.9851L277.263 87.4411C276.959 88.2411 276.455 88.8411 275.751 89.2411C275.063 89.6411 274.255 89.8411 273.327 89.8411ZM282.417 89.5531V76.4971H285.561V89.5531H282.417ZM282.417 75.0331V71.6731H285.561V75.0331H282.417Z" fill="#FAFAFA"/>
<g clipPath="url(#clip0_12140_48078)">
<g filter="url(#filter0_i_12140_48078)">
<rect x="323" y="73.1351" width="865" height="12" rx="6" fill="url(#paint0_linear_12140_48078)"/>
<rect width="1728" height="172" transform="matrix(0 -1 -1 0 1250 1147)" fill="url(#paint1_linear_12140_48078)"/>
<rect x="323.5" y="73.6351" width="864" height="11" rx="5.5" stroke="white" stroke-opacity="0.04"/>
</g>
<path d="M323 79.2914C323 75.9777 325.686 73.2914 329 73.2914H587V85.2914H329C325.686 85.2914 323 82.6051 323 79.2914Z" fill="#0177E5"/>
</g>
<path d="M1227.43 88.0531V74.1331L1224.72 74.7571V72.8851L1228.44 71.2531H1230.07V88.0531H1227.43ZM1239.34 88.3411C1238.16 88.3411 1237.13 88.1331 1236.27 87.7171C1235.41 87.2851 1234.72 86.7011 1234.21 85.9651C1233.71 85.2131 1233.41 84.3651 1233.29 83.4211H1235.79C1235.95 84.2211 1236.35 84.8851 1236.99 85.4131C1237.63 85.9251 1238.42 86.1811 1239.37 86.1811C1240.07 86.1811 1240.68 86.0131 1241.19 85.6771C1241.7 85.3251 1242.1 84.8611 1242.39 84.2851C1242.68 83.7091 1242.82 83.0611 1242.82 82.3411C1242.82 81.2051 1242.5 80.3011 1241.86 79.6291C1241.22 78.9411 1240.41 78.5971 1239.44 78.5971C1238.61 78.5971 1237.89 78.7971 1237.3 79.1971C1236.71 79.5811 1236.28 80.0691 1236.01 80.6611H1233.58L1235.02 71.2531H1244.09V73.4851H1236.94L1236.08 77.9731C1236.45 77.5571 1236.95 77.2131 1237.59 76.9411C1238.25 76.6531 1238.98 76.5091 1239.8 76.5091C1240.93 76.5091 1241.91 76.7731 1242.73 77.3011C1243.54 77.8131 1244.17 78.5091 1244.6 79.3891C1245.05 80.2691 1245.27 81.2451 1245.27 82.3171C1245.27 83.4371 1245.03 84.4531 1244.55 85.3651C1244.07 86.2771 1243.38 87.0051 1242.49 87.5491C1241.61 88.0771 1240.56 88.3411 1239.34 88.3411ZM1253.65 88.3411C1252.56 88.3411 1251.57 88.1491 1250.67 87.7651C1249.79 87.3651 1249.09 86.7651 1248.56 85.9651C1248.03 85.1651 1247.75 84.1651 1247.72 82.9651H1250.24C1250.27 83.8611 1250.58 84.6211 1251.15 85.2451C1251.75 85.8531 1252.58 86.1571 1253.65 86.1571C1254.67 86.1571 1255.46 85.8771 1256 85.3171C1256.55 84.7411 1256.82 84.0291 1256.82 83.1811C1256.82 82.1571 1256.45 81.3971 1255.71 80.9011C1254.99 80.4051 1254.11 80.1571 1253.05 80.1571H1251.8V78.0451H1253.07C1254.02 78.0451 1254.78 77.8211 1255.35 77.3731C1255.95 76.9251 1256.24 76.2931 1256.24 75.4771C1256.24 74.7891 1256.01 74.2291 1255.55 73.7971C1255.1 73.3651 1254.46 73.1491 1253.63 73.1491C1252.76 73.1491 1252.08 73.4051 1251.59 73.9171C1251.09 74.4131 1250.82 75.0371 1250.77 75.7891H1248.25C1248.28 74.8131 1248.52 73.9651 1248.97 73.2451C1249.43 72.5251 1250.07 71.9651 1250.87 71.5651C1251.67 71.1651 1252.59 70.9651 1253.63 70.9651C1254.75 70.9651 1255.68 71.1651 1256.43 71.5651C1257.2 71.9491 1257.78 72.4771 1258.16 73.1491C1258.56 73.8051 1258.76 74.5251 1258.76 75.3091C1258.76 76.2051 1258.51 76.9891 1258.02 77.6611C1257.52 78.3331 1256.86 78.7811 1256.03 79.0051C1256.99 79.2131 1257.78 79.6851 1258.4 80.4211C1259.03 81.1411 1259.34 82.0771 1259.34 83.2291C1259.34 84.1571 1259.12 85.0131 1258.69 85.7971C1258.26 86.5651 1257.62 87.1811 1256.77 87.6451C1255.92 88.1091 1254.88 88.3411 1253.65 88.3411ZM1268.43 88.0531V76.1491H1270.68L1270.9 77.8291C1271.28 77.2211 1271.79 76.7411 1272.41 76.3891C1273.05 76.0371 1273.79 75.8611 1274.62 75.8611C1276.51 75.8611 1277.82 76.6051 1278.56 78.0931C1278.99 77.4051 1279.56 76.8611 1280.28 76.4611C1281.02 76.0611 1281.81 75.8611 1282.66 75.8611C1284.15 75.8611 1285.32 76.3091 1286.16 77.2051C1287.01 78.1011 1287.44 79.4371 1287.44 81.2131V88.0531H1284.89V81.4771C1284.89 79.1731 1284.01 78.0211 1282.25 78.0211C1281.36 78.0211 1280.62 78.3571 1280.04 79.0291C1279.48 79.7011 1279.2 80.6611 1279.2 81.9091V88.0531H1276.66V81.4771C1276.66 79.1731 1275.77 78.0211 1274 78.0211C1273.12 78.0211 1272.39 78.3571 1271.81 79.0291C1271.25 79.7011 1270.97 80.6611 1270.97 81.9091V88.0531H1268.43ZM1295.16 88.3411C1293.66 88.3411 1292.42 87.9731 1291.44 87.2371C1290.47 86.5011 1289.91 85.5251 1289.76 84.3091H1292.33C1292.46 84.8531 1292.76 85.3251 1293.24 85.7251C1293.72 86.1091 1294.36 86.3011 1295.14 86.3011C1295.91 86.3011 1296.47 86.1411 1296.82 85.8211C1297.17 85.5011 1297.35 85.1331 1297.35 84.7171C1297.35 84.1091 1297.1 83.7011 1296.6 83.4931C1296.12 83.2691 1295.45 83.0691 1294.59 82.8931C1293.92 82.7491 1293.24 82.5571 1292.57 82.3171C1291.92 82.0771 1291.36 81.7411 1290.92 81.3091C1290.48 80.8611 1290.27 80.2611 1290.27 79.5091C1290.27 78.4691 1290.67 77.6051 1291.47 76.9171C1292.27 76.2131 1293.39 75.8611 1294.83 75.8611C1296.16 75.8611 1297.23 76.1811 1298.04 76.8211C1298.88 77.4611 1299.36 78.3651 1299.51 79.5331H1297.06C1296.98 79.0211 1296.74 78.6211 1296.34 78.3331C1295.96 78.0451 1295.44 77.9011 1294.78 77.9011C1294.14 77.9011 1293.64 78.0371 1293.29 78.3091C1292.94 78.5651 1292.76 78.9011 1292.76 79.3171C1292.76 79.7331 1293 80.0611 1293.48 80.3011C1293.98 80.5411 1294.63 80.7571 1295.43 80.9491C1296.23 81.1251 1296.96 81.3331 1297.64 81.5731C1298.32 81.7971 1298.88 82.1331 1299.29 82.5811C1299.71 83.0291 1299.92 83.6851 1299.92 84.5491C1299.93 85.6371 1299.51 86.5411 1298.64 87.2611C1297.8 87.9811 1296.64 88.3411 1295.16 88.3411Z" fill="#A3A3A3"/>
<path d="M146.024 164.659V146.779H152.672C153.888 146.779 154.96 147.003 155.888 147.451C156.832 147.883 157.568 148.523 158.096 149.371C158.624 150.203 158.888 151.219 158.888 152.419C158.888 153.651 158.592 154.699 158 155.563C157.424 156.427 156.64 157.067 155.648 157.483L159.752 164.659H156.056L151.664 156.811L153.776 158.059H149.288V164.659H146.024ZM149.288 155.179H152.72C153.312 155.179 153.824 155.067 154.256 154.843C154.688 154.603 155.024 154.275 155.264 153.859C155.504 153.443 155.624 152.963 155.624 152.419C155.624 151.859 155.504 151.379 155.264 150.979C155.024 150.563 154.688 150.243 154.256 150.019C153.824 149.779 153.312 149.659 152.72 149.659H149.288V155.179ZM166.612 164.947C165.268 164.947 164.092 164.643 163.084 164.035C162.076 163.427 161.292 162.603 160.732 161.563C160.172 160.523 159.892 159.371 159.892 158.107C159.892 156.795 160.172 155.635 160.732 154.627C161.308 153.603 162.084 152.795 163.06 152.203C164.052 151.611 165.156 151.315 166.372 151.315C167.396 151.315 168.292 151.483 169.06 151.819C169.844 152.155 170.508 152.619 171.052 153.211C171.596 153.803 172.012 154.483 172.3 155.251C172.588 156.003 172.732 156.819 172.732 157.699C172.732 157.923 172.716 158.155 172.684 158.395C172.668 158.635 172.628 158.843 172.564 159.019H162.484V156.619H170.788L169.3 157.747C169.444 157.011 169.404 156.355 169.18 155.779C168.972 155.203 168.62 154.747 168.124 154.411C167.644 154.075 167.06 153.907 166.372 153.907C165.716 153.907 165.132 154.075 164.62 154.411C164.108 154.731 163.716 155.211 163.444 155.851C163.188 156.475 163.092 157.235 163.156 158.131C163.092 158.931 163.196 159.643 163.468 160.267C163.756 160.875 164.172 161.347 164.716 161.683C165.276 162.019 165.916 162.187 166.636 162.187C167.356 162.187 167.964 162.035 168.46 161.731C168.972 161.427 169.372 161.019 169.66 160.507L172.204 161.755C171.948 162.379 171.548 162.931 171.004 163.411C170.46 163.891 169.812 164.267 169.06 164.539C168.324 164.811 167.508 164.947 166.612 164.947ZM178.549 164.947C177.637 164.947 176.845 164.795 176.173 164.491C175.501 164.187 174.981 163.755 174.613 163.195C174.245 162.619 174.061 161.955 174.061 161.203C174.061 160.483 174.221 159.843 174.541 159.283C174.861 158.707 175.357 158.227 176.029 157.843C176.701 157.459 177.549 157.187 178.573 157.027L182.845 156.331V158.731L179.173 159.355C178.549 159.467 178.085 159.667 177.781 159.955C177.477 160.243 177.325 160.619 177.325 161.083C177.325 161.531 177.493 161.891 177.829 162.163C178.181 162.419 178.613 162.547 179.125 162.547C179.781 162.547 180.357 162.411 180.853 162.139C181.365 161.851 181.757 161.459 182.029 160.963C182.317 160.467 182.461 159.923 182.461 159.331V155.971C182.461 155.411 182.237 154.947 181.789 154.579C181.357 154.195 180.781 154.003 180.061 154.003C179.389 154.003 178.789 154.187 178.261 154.555C177.749 154.907 177.373 155.379 177.133 155.971L174.565 154.723C174.821 154.035 175.221 153.443 175.765 152.947C176.325 152.435 176.981 152.035 177.733 151.747C178.485 151.459 179.301 151.315 180.181 151.315C181.253 151.315 182.197 151.515 183.013 151.915C183.829 152.299 184.461 152.843 184.909 153.547C185.373 154.235 185.605 155.043 185.605 155.971V164.659H182.629V162.427L183.301 162.379C182.965 162.939 182.565 163.411 182.101 163.795C181.637 164.163 181.109 164.451 180.517 164.659C179.925 164.851 179.269 164.947 178.549 164.947ZM194.319 164.947C193.023 164.947 191.855 164.651 190.815 164.059C189.791 163.451 188.983 162.635 188.391 161.611C187.799 160.571 187.503 159.403 187.503 158.107C187.503 156.811 187.799 155.651 188.391 154.627C188.983 153.603 189.791 152.795 190.815 152.203C191.855 151.611 193.023 151.315 194.319 151.315C195.247 151.315 196.111 151.483 196.911 151.819C197.711 152.139 198.399 152.587 198.975 153.163C199.567 153.723 199.991 154.395 200.247 155.179L197.487 156.379C197.247 155.723 196.839 155.195 196.263 154.795C195.703 154.395 195.055 154.195 194.319 154.195C193.631 154.195 193.015 154.363 192.471 154.699C191.943 155.035 191.527 155.499 191.223 156.091C190.919 156.683 190.767 157.363 190.767 158.131C190.767 158.899 190.919 159.579 191.223 160.171C191.527 160.763 191.943 161.227 192.471 161.563C193.015 161.899 193.631 162.067 194.319 162.067C195.071 162.067 195.727 161.867 196.287 161.467C196.847 161.067 197.247 160.531 197.487 159.859L200.247 161.107C199.991 161.843 199.575 162.507 198.999 163.099C198.423 163.675 197.735 164.131 196.935 164.467C196.135 164.787 195.263 164.947 194.319 164.947ZM208.104 164.803C206.632 164.803 205.488 164.403 204.672 163.603C203.872 162.787 203.472 161.643 203.472 160.171V154.411H201.216V151.603H201.456C202.096 151.603 202.592 151.435 202.944 151.099C203.296 150.763 203.472 150.275 203.472 149.635V148.627H206.616V151.603H209.616V154.411H206.616V160.003C206.616 160.435 206.688 160.803 206.832 161.107C206.992 161.411 207.232 161.643 207.552 161.803C207.888 161.963 208.312 162.043 208.824 162.043C208.936 162.043 209.064 162.035 209.208 162.019C209.368 162.003 209.52 161.987 209.664 161.971V164.659C209.44 164.691 209.184 164.723 208.896 164.755C208.608 164.787 208.344 164.803 208.104 164.803ZM215.636 164.659V146.779H218.18L228.02 160.027L226.7 160.291V146.779H229.964V164.659H227.396L217.7 151.315L218.9 151.051V164.659H215.636ZM236.641 164.947C235.729 164.947 234.937 164.795 234.265 164.491C233.593 164.187 233.073 163.755 232.705 163.195C232.337 162.619 232.153 161.955 232.153 161.203C232.153 160.483 232.313 159.843 232.633 159.283C232.953 158.707 233.449 158.227 234.121 157.843C234.793 157.459 235.641 157.187 236.665 157.027L240.937 156.331V158.731L237.265 159.355C236.641 159.467 236.177 159.667 235.873 159.955C235.569 160.243 235.417 160.619 235.417 161.083C235.417 161.531 235.585 161.891 235.921 162.163C236.273 162.419 236.705 162.547 237.217 162.547C237.873 162.547 238.449 162.411 238.945 162.139C239.457 161.851 239.849 161.459 240.121 160.963C240.409 160.467 240.553 159.923 240.553 159.331V155.971C240.553 155.411 240.329 154.947 239.881 154.579C239.449 154.195 238.873 154.003 238.153 154.003C237.481 154.003 236.881 154.187 236.353 154.555C235.841 154.907 235.465 155.379 235.225 155.971L232.657 154.723C232.913 154.035 233.313 153.443 233.857 152.947C234.417 152.435 235.073 152.035 235.825 151.747C236.577 151.459 237.393 151.315 238.273 151.315C239.345 151.315 240.289 151.515 241.105 151.915C241.921 152.299 242.553 152.843 243.001 153.547C243.465 154.235 243.697 155.043 243.697 155.971V164.659H240.721V162.427L241.393 162.379C241.057 162.939 240.657 163.411 240.193 163.795C239.729 164.163 239.201 164.451 238.609 164.659C238.017 164.851 237.361 164.947 236.641 164.947ZM251.84 164.803C250.368 164.803 249.224 164.403 248.408 163.603C247.608 162.787 247.208 161.643 247.208 160.171V154.411H244.952V151.603H245.192C245.832 151.603 246.328 151.435 246.68 151.099C247.032 150.763 247.208 150.275 247.208 149.635V148.627H250.352V151.603H253.352V154.411H250.352V160.003C250.352 160.435 250.424 160.803 250.568 161.107C250.728 161.411 250.968 161.643 251.288 161.803C251.624 161.963 252.048 162.043 252.56 162.043C252.672 162.043 252.8 162.035 252.944 162.019C253.104 162.003 253.256 161.987 253.4 161.971V164.659C253.176 164.691 252.92 164.723 252.632 164.755C252.344 164.787 252.08 164.803 251.84 164.803ZM255.322 164.659V151.603H258.466V164.659H255.322ZM255.322 150.139V146.779H258.466V150.139H255.322ZM264.825 164.659L259.689 151.603H263.121L266.841 161.875H265.569L269.313 151.603H272.745L267.609 164.659H264.825ZM279.961 164.947C278.617 164.947 277.441 164.643 276.433 164.035C275.425 163.427 274.641 162.603 274.081 161.563C273.521 160.523 273.241 159.371 273.241 158.107C273.241 156.795 273.521 155.635 274.081 154.627C274.657 153.603 275.433 152.795 276.409 152.203C277.401 151.611 278.505 151.315 279.721 151.315C280.745 151.315 281.641 151.483 282.409 151.819C283.193 152.155 283.857 152.619 284.401 153.211C284.945 153.803 285.361 154.483 285.649 155.251C285.937 156.003 286.081 156.819 286.081 157.699C286.081 157.923 286.065 158.155 286.033 158.395C286.017 158.635 285.977 158.843 285.913 159.019H275.833V156.619H284.137L282.649 157.747C282.793 157.011 282.753 156.355 282.529 155.779C282.321 155.203 281.969 154.747 281.473 154.411C280.993 154.075 280.409 153.907 279.721 153.907C279.065 153.907 278.481 154.075 277.969 154.411C277.457 154.731 277.065 155.211 276.793 155.851C276.537 156.475 276.441 157.235 276.505 158.131C276.441 158.931 276.545 159.643 276.817 160.267C277.105 160.875 277.521 161.347 278.065 161.683C278.625 162.019 279.265 162.187 279.985 162.187C280.705 162.187 281.313 162.035 281.809 161.731C282.321 161.427 282.721 161.019 283.009 160.507L285.553 161.755C285.297 162.379 284.897 162.931 284.353 163.411C283.809 163.891 283.161 164.267 282.409 164.539C281.673 164.811 280.857 164.947 279.961 164.947Z" fill="#FAFAFA"/>
<g clipPath="url(#clip1_12140_48078)">
<g filter="url(#filter1_i_12140_48078)">
<rect x="323" y="148.132" width="865" height="12" rx="6" fill="url(#paint2_linear_12140_48078)"/>
<rect width="1728" height="172" transform="matrix(0 -1 -1 0 1250 1222)" fill="url(#paint3_linear_12140_48078)"/>
<rect x="323.5" y="148.632" width="864" height="11" rx="5.5" stroke="white" stroke-opacity="0.04"/>
</g>
<path d="M323 154.398C323 151.084 325.686 148.398 329 148.398H450V160.398H329C325.686 160.398 323 157.711 323 154.398Z" fill="#61DAFB"/>
</g>
<path d="M1226.88 163.159L1233.38 148.543H1224.65V146.359H1236V148.207L1229.54 163.159H1226.88ZM1244.25 163.447C1243.02 163.447 1241.98 163.215 1241.13 162.751C1240.28 162.287 1239.59 161.671 1239.06 160.903C1238.55 160.135 1238.18 159.271 1237.96 158.311C1237.74 157.351 1237.62 156.367 1237.62 155.359C1237.62 153.503 1237.88 151.879 1238.39 150.487C1238.92 149.095 1239.67 148.015 1240.65 147.247C1241.62 146.463 1242.81 146.071 1244.2 146.071C1245.3 146.071 1246.25 146.287 1247.03 146.719C1247.82 147.151 1248.42 147.727 1248.86 148.447C1249.3 149.167 1249.58 149.951 1249.67 150.799H1247.3C1247.15 149.967 1246.81 149.327 1246.26 148.879C1245.72 148.431 1245.02 148.207 1244.18 148.207C1243.01 148.207 1242.04 148.759 1241.27 149.863C1240.52 150.951 1240.12 152.631 1240.07 154.903C1240.46 154.199 1241.05 153.599 1241.85 153.103C1242.66 152.607 1243.6 152.359 1244.66 152.359C1245.6 152.359 1246.48 152.583 1247.3 153.031C1248.13 153.479 1248.8 154.111 1249.31 154.927C1249.84 155.727 1250.1 156.679 1250.1 157.783C1250.1 158.759 1249.86 159.679 1249.38 160.543C1248.9 161.407 1248.22 162.111 1247.34 162.655C1246.48 163.183 1245.45 163.447 1244.25 163.447ZM1244.1 161.239C1244.78 161.239 1245.38 161.095 1245.9 160.807C1246.43 160.519 1246.85 160.127 1247.15 159.631C1247.46 159.119 1247.61 158.543 1247.61 157.903C1247.61 156.879 1247.27 156.063 1246.6 155.455C1245.94 154.847 1245.1 154.543 1244.08 154.543C1243.41 154.543 1242.8 154.695 1242.26 154.999C1241.73 155.303 1241.31 155.711 1241.01 156.223C1240.7 156.719 1240.55 157.271 1240.55 157.879C1240.55 158.535 1240.7 159.119 1241.01 159.631C1241.33 160.127 1241.75 160.519 1242.28 160.807C1242.82 161.095 1243.43 161.239 1244.1 161.239ZM1259.19 163.159V151.255H1261.45L1261.67 152.935C1262.05 152.327 1262.55 151.847 1263.18 151.495C1263.82 151.143 1264.55 150.967 1265.39 150.967C1267.27 150.967 1268.59 151.711 1269.32 153.199C1269.75 152.511 1270.33 151.967 1271.05 151.567C1271.79 151.167 1272.58 150.967 1273.43 150.967C1274.91 150.967 1276.08 151.415 1276.93 152.311C1277.78 153.207 1278.2 154.543 1278.2 156.319V163.159H1275.66V156.583C1275.66 154.279 1274.78 153.127 1273.02 153.127C1272.12 153.127 1271.39 153.463 1270.81 154.135C1270.25 154.807 1269.97 155.767 1269.97 157.015V163.159H1267.43V156.583C1267.43 154.279 1266.54 153.127 1264.76 153.127C1263.88 153.127 1263.15 153.463 1262.58 154.135C1262.02 154.807 1261.74 155.767 1261.74 157.015V163.159H1259.19ZM1285.93 163.447C1284.43 163.447 1283.19 163.079 1282.21 162.343C1281.23 161.607 1280.67 160.631 1280.53 159.415H1283.1C1283.23 159.959 1283.53 160.431 1284.01 160.831C1284.49 161.215 1285.12 161.407 1285.91 161.407C1286.67 161.407 1287.23 161.247 1287.59 160.927C1287.94 160.607 1288.11 160.239 1288.11 159.823C1288.11 159.215 1287.87 158.807 1287.37 158.599C1286.89 158.375 1286.22 158.175 1285.35 157.999C1284.68 157.855 1284.01 157.663 1283.34 157.423C1282.68 157.183 1282.13 156.847 1281.68 156.415C1281.25 155.967 1281.03 155.367 1281.03 154.615C1281.03 153.575 1281.43 152.711 1282.23 152.023C1283.03 151.319 1284.15 150.967 1285.59 150.967C1286.92 150.967 1287.99 151.287 1288.81 151.927C1289.64 152.567 1290.13 153.471 1290.27 154.639H1287.83C1287.75 154.127 1287.51 153.727 1287.11 153.439C1286.72 153.151 1286.2 153.007 1285.55 153.007C1284.91 153.007 1284.41 153.143 1284.06 153.415C1283.71 153.671 1283.53 154.007 1283.53 154.423C1283.53 154.839 1283.77 155.167 1284.25 155.407C1284.75 155.647 1285.39 155.863 1286.19 156.055C1286.99 156.231 1287.73 156.439 1288.4 156.679C1289.09 156.903 1289.64 157.239 1290.06 157.687C1290.47 158.135 1290.68 158.791 1290.68 159.655C1290.7 160.743 1290.27 161.647 1289.41 162.367C1288.56 163.087 1287.4 163.447 1285.93 163.447Z" fill="#A3A3A3"/>
<path d="M197.253 239.766V224.766H192.621V221.886H205.101V224.766H200.541V239.766H197.253ZM208.879 240.054C207.967 240.054 207.175 239.902 206.503 239.598C205.831 239.294 205.311 238.862 204.943 238.302C204.575 237.726 204.391 237.062 204.391 236.31C204.391 235.59 204.551 234.95 204.871 234.39C205.191 233.814 205.687 233.334 206.359 232.95C207.031 232.566 207.879 232.294 208.903 232.134L213.175 231.438V233.838L209.503 234.462C208.879 234.574 208.415 234.774 208.111 235.062C207.807 235.35 207.655 235.726 207.655 236.19C207.655 236.638 207.823 236.998 208.159 237.27C208.511 237.526 208.943 237.654 209.455 237.654C210.111 237.654 210.687 237.518 211.183 237.246C211.695 236.958 212.087 236.566 212.359 236.07C212.647 235.574 212.791 235.03 212.791 234.438V231.078C212.791 230.518 212.567 230.054 212.119 229.686C211.687 229.302 211.111 229.11 210.391 229.11C209.719 229.11 209.119 229.294 208.591 229.662C208.079 230.014 207.703 230.486 207.463 231.078L204.895 229.83C205.151 229.142 205.551 228.55 206.095 228.054C206.655 227.542 207.311 227.142 208.063 226.854C208.815 226.566 209.631 226.422 210.511 226.422C211.583 226.422 212.527 226.622 213.343 227.022C214.159 227.406 214.791 227.95 215.239 228.654C215.703 229.342 215.935 230.15 215.935 231.078V239.766H212.959V237.534L213.631 237.486C213.295 238.046 212.895 238.518 212.431 238.902C211.967 239.27 211.439 239.558 210.847 239.766C210.255 239.958 209.599 240.054 208.879 240.054ZM218.361 239.766V226.71H221.313V229.734L220.977 229.23C221.217 228.286 221.697 227.582 222.417 227.118C223.137 226.654 223.985 226.422 224.961 226.422C226.033 226.422 226.977 226.702 227.793 227.262C228.609 227.822 229.137 228.558 229.377 229.47L228.489 229.542C228.889 228.502 229.489 227.726 230.289 227.214C231.089 226.686 232.009 226.422 233.049 226.422C233.977 226.422 234.801 226.63 235.521 227.046C236.257 227.462 236.833 228.046 237.249 228.798C237.665 229.534 237.873 230.39 237.873 231.366V239.766H234.729V232.11C234.729 231.534 234.625 231.038 234.417 230.622C234.209 230.206 233.921 229.886 233.553 229.662C233.185 229.422 232.737 229.302 232.209 229.302C231.713 229.302 231.273 229.422 230.889 229.662C230.505 229.886 230.209 230.206 230.001 230.622C229.793 231.038 229.689 231.534 229.689 232.11V239.766H226.545V232.11C226.545 231.534 226.441 231.038 226.233 230.622C226.025 230.206 225.729 229.886 225.345 229.662C224.977 229.422 224.537 229.302 224.025 229.302C223.529 229.302 223.089 229.422 222.705 229.662C222.321 229.886 222.025 230.206 221.817 230.622C221.609 231.038 221.505 231.534 221.505 232.11V239.766H218.361ZM244.012 240.054C243.1 240.054 242.308 239.902 241.636 239.598C240.964 239.294 240.444 238.862 240.076 238.302C239.708 237.726 239.524 237.062 239.524 236.31C239.524 235.59 239.684 234.95 240.004 234.39C240.324 233.814 240.82 233.334 241.492 232.95C242.164 232.566 243.012 232.294 244.036 232.134L248.308 231.438V233.838L244.636 234.462C244.012 234.574 243.548 234.774 243.244 235.062C242.94 235.35 242.788 235.726 242.788 236.19C242.788 236.638 242.956 236.998 243.292 237.27C243.644 237.526 244.076 237.654 244.588 237.654C245.244 237.654 245.82 237.518 246.316 237.246C246.828 236.958 247.22 236.566 247.492 236.07C247.78 235.574 247.924 235.03 247.924 234.438V231.078C247.924 230.518 247.7 230.054 247.252 229.686C246.82 229.302 246.244 229.11 245.524 229.11C244.852 229.11 244.252 229.294 243.724 229.662C243.212 230.014 242.836 230.486 242.596 231.078L240.028 229.83C240.284 229.142 240.684 228.55 241.228 228.054C241.788 227.542 242.444 227.142 243.196 226.854C243.948 226.566 244.764 226.422 245.644 226.422C246.716 226.422 247.66 226.622 248.476 227.022C249.292 227.406 249.924 227.95 250.372 228.654C250.836 229.342 251.068 230.15 251.068 231.078V239.766H248.092V237.534L248.764 237.486C248.428 238.046 248.028 238.518 247.564 238.902C247.1 239.27 246.572 239.558 245.98 239.766C245.388 239.958 244.732 240.054 244.012 240.054ZM259.83 245.046C258.854 245.046 257.95 244.886 257.118 244.566C256.286 244.246 255.566 243.798 254.958 243.222C254.366 242.662 253.934 241.998 253.662 241.23L256.59 240.126C256.782 240.734 257.158 241.222 257.718 241.59C258.294 241.974 258.998 242.166 259.83 242.166C260.47 242.166 261.03 242.046 261.51 241.806C262.006 241.566 262.39 241.214 262.662 240.75C262.934 240.302 263.07 239.758 263.07 239.118V236.142L263.67 236.862C263.222 237.646 262.622 238.238 261.87 238.638C261.118 239.038 260.262 239.238 259.302 239.238C258.086 239.238 256.998 238.958 256.038 238.398C255.078 237.838 254.326 237.07 253.782 236.094C253.238 235.118 252.966 234.022 252.966 232.806C252.966 231.574 253.238 230.478 253.782 229.518C254.326 228.558 255.07 227.806 256.014 227.262C256.958 226.702 258.03 226.422 259.23 226.422C260.206 226.422 261.062 226.63 261.798 227.046C262.55 227.446 263.174 228.03 263.67 228.798L263.238 229.59V226.71H266.214V239.118C266.214 240.254 265.934 241.27 265.374 242.166C264.83 243.062 264.078 243.766 263.118 244.278C262.174 244.79 261.078 245.046 259.83 245.046ZM259.686 236.334C260.358 236.334 260.942 236.19 261.438 235.902C261.95 235.598 262.35 235.182 262.638 234.654C262.926 234.126 263.07 233.518 263.07 232.83C263.07 232.158 262.918 231.558 262.614 231.03C262.326 230.486 261.926 230.062 261.414 229.758C260.918 229.454 260.342 229.302 259.686 229.302C259.03 229.302 258.438 229.454 257.91 229.758C257.382 230.062 256.966 230.486 256.662 231.03C256.374 231.558 256.23 232.158 256.23 232.83C256.23 233.502 256.374 234.102 256.662 234.63C256.966 235.158 257.374 235.574 257.886 235.878C258.414 236.182 259.014 236.334 259.686 236.334ZM273.327 240.054C272.319 240.054 271.439 239.83 270.687 239.382C269.951 238.934 269.383 238.31 268.983 237.51C268.599 236.71 268.407 235.774 268.407 234.702V226.71H271.551V234.438C271.551 234.982 271.655 235.462 271.863 235.878C272.087 236.278 272.399 236.598 272.799 236.838C273.215 237.062 273.679 237.174 274.191 237.174C274.703 237.174 275.159 237.062 275.559 236.838C275.959 236.598 276.271 236.27 276.495 235.854C276.719 235.438 276.831 234.942 276.831 234.366V226.71H279.975V239.766H276.999V237.198L277.263 237.654C276.959 238.454 276.455 239.054 275.751 239.454C275.063 239.854 274.255 240.054 273.327 240.054ZM282.417 239.766V226.71H285.561V239.766H282.417ZM282.417 225.246V221.886H285.561V225.246H282.417Z" fill="#FAFAFA"/>
<g clipPath="url(#clip2_12140_48078)">
<g filter="url(#filter2_i_12140_48078)">
<rect x="323" y="223.137" width="865" height="12" rx="6" fill="url(#paint4_linear_12140_48078)"/>
<rect width="1728" height="172" transform="matrix(0 -1 -1 0 1250 1297)" fill="url(#paint5_linear_12140_48078)"/>
<rect x="323.5" y="223.637" width="864" height="11" rx="5.5" stroke="white" stroke-opacity="0.04"/>
</g>
<path d="M323 229.504C323 226.19 325.686 223.504 329 223.504H596V235.504H329C325.686 235.504 323 232.818 323 229.504Z" fill="#D6409F"/>
</g>
<path d="M1227.43 238.266V224.346L1224.72 224.97V223.098L1228.44 221.466H1230.07V238.266H1227.43ZM1239.65 238.554C1238.42 238.554 1237.38 238.322 1236.53 237.858C1235.69 237.394 1235 236.778 1234.47 236.01C1233.96 235.242 1233.59 234.378 1233.37 233.418C1233.14 232.458 1233.03 231.474 1233.03 230.466C1233.03 228.61 1233.29 226.986 1233.8 225.594C1234.33 224.202 1235.08 223.122 1236.05 222.354C1237.03 221.57 1238.21 221.178 1239.61 221.178C1240.71 221.178 1241.65 221.394 1242.44 221.826C1243.22 222.258 1243.83 222.834 1244.26 223.554C1244.71 224.274 1244.98 225.058 1245.08 225.906H1242.7C1242.56 225.074 1242.21 224.434 1241.67 223.986C1241.13 223.538 1240.43 223.314 1239.58 223.314C1238.41 223.314 1237.45 223.866 1236.68 224.97C1235.93 226.058 1235.53 227.738 1235.48 230.01C1235.86 229.306 1236.45 228.706 1237.25 228.21C1238.07 227.714 1239.01 227.466 1240.06 227.466C1241.01 227.466 1241.89 227.69 1242.7 228.138C1243.53 228.586 1244.21 229.218 1244.72 230.034C1245.25 230.834 1245.51 231.786 1245.51 232.89C1245.51 233.866 1245.27 234.786 1244.79 235.65C1244.31 236.514 1243.63 237.218 1242.75 237.762C1241.89 238.29 1240.85 238.554 1239.65 238.554ZM1239.51 236.346C1240.18 236.346 1240.78 236.202 1241.31 235.914C1241.84 235.626 1242.25 235.234 1242.56 234.738C1242.86 234.226 1243.01 233.65 1243.01 233.01C1243.01 231.986 1242.68 231.17 1242.01 230.562C1241.35 229.954 1240.51 229.65 1239.49 229.65C1238.81 229.65 1238.21 229.802 1237.66 230.106C1237.13 230.41 1236.72 230.818 1236.41 231.33C1236.11 231.826 1235.96 232.378 1235.96 232.986C1235.96 233.642 1236.11 234.226 1236.41 234.738C1236.73 235.234 1237.16 235.626 1237.69 235.914C1238.23 236.202 1238.84 236.346 1239.51 236.346ZM1255.37 238.554C1253.85 238.554 1252.54 238.194 1251.43 237.474C1250.35 236.738 1249.51 235.722 1248.91 234.426C1248.34 233.114 1248.05 231.594 1248.05 229.866C1248.05 228.138 1248.34 226.626 1248.91 225.33C1249.51 224.018 1250.35 223.002 1251.43 222.282C1252.54 221.546 1253.85 221.178 1255.37 221.178C1256.89 221.178 1258.19 221.546 1259.28 222.282C1260.37 223.002 1261.2 224.018 1261.78 225.33C1262.37 226.626 1262.67 228.138 1262.67 229.866C1262.67 231.594 1262.37 233.114 1261.78 234.426C1261.2 235.722 1260.37 236.738 1259.28 237.474C1258.19 238.194 1256.89 238.554 1255.37 238.554ZM1255.37 236.274C1256.28 236.274 1257.09 236.018 1257.79 235.506C1258.51 234.994 1259.07 234.258 1259.47 233.298C1259.87 232.338 1260.07 231.194 1260.07 229.866C1260.07 228.538 1259.87 227.394 1259.47 226.434C1259.07 225.474 1258.51 224.738 1257.79 224.226C1257.09 223.714 1256.28 223.458 1255.37 223.458C1254.44 223.458 1253.63 223.714 1252.92 224.226C1252.22 224.738 1251.67 225.474 1251.27 226.434C1250.87 227.394 1250.67 228.538 1250.67 229.866C1250.67 231.194 1250.87 232.338 1251.27 233.298C1251.67 234.258 1252.22 234.994 1252.92 235.506C1253.63 236.018 1254.44 236.274 1255.37 236.274ZM1271.45 238.266V226.362H1273.71L1273.92 228.042C1274.31 227.434 1274.81 226.954 1275.44 226.602C1276.08 226.25 1276.81 226.074 1277.64 226.074C1279.53 226.074 1280.84 226.818 1281.58 228.306C1282.01 227.618 1282.59 227.074 1283.31 226.674C1284.04 226.274 1284.84 226.074 1285.68 226.074C1287.17 226.074 1288.34 226.522 1289.19 227.418C1290.04 228.314 1290.46 229.65 1290.46 231.426V238.266H1287.92V231.69C1287.92 229.386 1287.04 228.234 1285.28 228.234C1284.38 228.234 1283.64 228.57 1283.07 229.242C1282.51 229.914 1282.23 230.874 1282.23 232.122V238.266H1279.68V231.69C1279.68 229.386 1278.8 228.234 1277.02 228.234C1276.14 228.234 1275.41 228.57 1274.84 229.242C1274.28 229.914 1274 230.874 1274 232.122V238.266H1271.45ZM1298.19 238.554C1296.68 238.554 1295.44 238.186 1294.47 237.45C1293.49 236.714 1292.93 235.738 1292.79 234.522H1295.36C1295.48 235.066 1295.79 235.538 1296.27 235.938C1296.75 236.322 1297.38 236.514 1298.16 236.514C1298.93 236.514 1299.49 236.354 1299.84 236.034C1300.2 235.714 1300.37 235.346 1300.37 234.93C1300.37 234.322 1300.12 233.914 1299.63 233.706C1299.15 233.482 1298.48 233.282 1297.61 233.106C1296.94 232.962 1296.27 232.77 1295.6 232.53C1294.94 232.29 1294.39 231.954 1293.94 231.522C1293.51 231.074 1293.29 230.474 1293.29 229.722C1293.29 228.682 1293.69 227.818 1294.49 227.13C1295.29 226.426 1296.41 226.074 1297.85 226.074C1299.18 226.074 1300.25 226.394 1301.07 227.034C1301.9 227.674 1302.39 228.578 1302.53 229.746H1300.08C1300 229.234 1299.76 228.834 1299.36 228.546C1298.98 228.258 1298.46 228.114 1297.8 228.114C1297.16 228.114 1296.67 228.25 1296.32 228.522C1295.96 228.778 1295.79 229.114 1295.79 229.53C1295.79 229.946 1296.03 230.274 1296.51 230.514C1297 230.754 1297.65 230.97 1298.45 231.162C1299.25 231.338 1299.99 231.546 1300.66 231.786C1301.35 232.01 1301.9 232.346 1302.32 232.794C1302.73 233.242 1302.94 233.898 1302.94 234.762C1302.96 235.85 1302.53 236.754 1301.67 237.474C1300.82 238.194 1299.66 238.554 1298.19 238.554Z" fill="#A3A3A3"/>
<path d="M68.792 315.16C67.656 315.16 66.6 314.952 65.624 314.536C64.664 314.12 63.832 313.544 63.128 312.808C62.44 312.056 61.936 311.184 61.616 310.192L64.328 309.016C64.76 310.04 65.384 310.848 66.2 311.44C67.016 312.016 67.936 312.304 68.96 312.304C69.536 312.304 70.032 312.216 70.448 312.04C70.88 311.848 71.208 311.592 71.432 311.272C71.672 310.952 71.792 310.568 71.792 310.12C71.792 309.592 71.632 309.16 71.312 308.824C71.008 308.472 70.544 308.2 69.92 308.008L66.488 306.904C65.096 306.472 64.048 305.824 63.344 304.96C62.64 304.096 62.288 303.08 62.288 301.912C62.288 300.888 62.536 299.984 63.032 299.2C63.544 298.416 64.248 297.808 65.144 297.376C66.056 296.928 67.096 296.704 68.264 296.704C69.336 296.704 70.32 296.896 71.216 297.28C72.112 297.648 72.88 298.168 73.52 298.84C74.176 299.496 74.664 300.272 74.984 301.168L72.296 302.368C71.944 301.472 71.416 300.784 70.712 300.304C70.008 299.808 69.192 299.56 68.264 299.56C67.72 299.56 67.24 299.656 66.824 299.848C66.408 300.024 66.08 300.28 65.84 300.616C65.616 300.936 65.504 301.32 65.504 301.768C65.504 302.264 65.664 302.704 65.984 303.088C66.304 303.456 66.792 303.744 67.448 303.952L70.736 304.984C72.16 305.448 73.224 306.088 73.928 306.904C74.648 307.72 75.008 308.728 75.008 309.928C75.008 310.952 74.744 311.856 74.216 312.64C73.688 313.424 72.96 314.04 72.032 314.488C71.104 314.936 70.024 315.16 68.792 315.16ZM83.1551 315.016C81.6831 315.016 80.5391 314.616 79.7231 313.816C78.9231 313 78.5231 311.856 78.5231 310.384V304.624H76.2671V301.816H76.5071C77.1471 301.816 77.6431 301.648 77.9951 301.312C78.3471 300.976 78.5231 300.488 78.5231 299.848V298.84H81.6671V301.816H84.6671V304.624H81.6671V310.216C81.6671 310.648 81.7391 311.016 81.8831 311.32C82.0431 311.624 82.2831 311.856 82.6031 312.016C82.9391 312.176 83.3631 312.256 83.8751 312.256C83.9871 312.256 84.1151 312.248 84.2591 312.232C84.4191 312.216 84.5711 312.2 84.7151 312.184V314.872C84.4911 314.904 84.2351 314.936 83.9471 314.968C83.6591 315 83.3951 315.016 83.1551 315.016ZM88.2211 320.152C87.8691 320.152 87.5251 320.12 87.1891 320.056C86.8531 320.008 86.5491 319.912 86.2771 319.768V317.152C86.4851 317.2 86.7331 317.248 87.0211 317.296C87.3251 317.344 87.6051 317.368 87.8611 317.368C88.5811 317.368 89.1011 317.2 89.4211 316.864C89.7571 316.544 90.0531 316.112 90.3091 315.568L91.1731 313.552L91.1251 316.192L85.4371 301.816H88.8211L92.8051 312.424H91.6051L95.5651 301.816H98.9731L93.2851 316.192C92.9491 317.024 92.5411 317.736 92.0611 318.328C91.5811 318.92 91.0211 319.368 90.3811 319.672C89.7571 319.992 89.0371 320.152 88.2211 320.152ZM100.22 314.872V296.704H103.364V314.872H100.22ZM111.978 315.16C110.634 315.16 109.458 314.856 108.45 314.248C107.442 313.64 106.658 312.816 106.098 311.776C105.538 310.736 105.258 309.584 105.258 308.32C105.258 307.008 105.538 305.848 106.098 304.84C106.674 303.816 107.45 303.008 108.426 302.416C109.418 301.824 110.522 301.528 111.738 301.528C112.762 301.528 113.658 301.696 114.426 302.032C115.21 302.368 115.874 302.832 116.418 303.424C116.962 304.016 117.378 304.696 117.666 305.464C117.954 306.216 118.098 307.032 118.098 307.912C118.098 308.136 118.082 308.368 118.05 308.608C118.034 308.848 117.994 309.056 117.93 309.232H107.85V306.832H116.154L114.666 307.96C114.81 307.224 114.77 306.568 114.546 305.992C114.338 305.416 113.986 304.96 113.49 304.624C113.01 304.288 112.426 304.12 111.738 304.12C111.082 304.12 110.498 304.288 109.986 304.624C109.474 304.944 109.082 305.424 108.81 306.064C108.554 306.688 108.458 307.448 108.522 308.344C108.458 309.144 108.562 309.856 108.834 310.48C109.122 311.088 109.538 311.56 110.082 311.896C110.642 312.232 111.282 312.4 112.002 312.4C112.722 312.4 113.33 312.248 113.826 311.944C114.338 311.64 114.738 311.232 115.026 310.72L117.57 311.968C117.314 312.592 116.914 313.144 116.37 313.624C115.826 314.104 115.178 314.48 114.426 314.752C113.69 315.024 112.874 315.16 111.978 315.16ZM126.074 315.16C124.81 315.16 123.682 314.864 122.69 314.272C121.698 313.664 120.914 312.84 120.338 311.8C119.762 310.76 119.474 309.608 119.474 308.344C119.474 307.064 119.762 305.912 120.338 304.888C120.914 303.864 121.698 303.048 122.69 302.44C123.698 301.832 124.818 301.528 126.05 301.528C127.042 301.528 127.922 301.728 128.69 302.128C129.474 302.512 130.09 303.056 130.538 303.76L130.058 304.408V296.704H133.202V314.872H130.226V312.352L130.562 312.976C130.114 313.68 129.49 314.224 128.69 314.608C127.89 314.976 127.018 315.16 126.074 315.16ZM126.41 312.28C127.13 312.28 127.762 312.112 128.306 311.776C128.85 311.44 129.274 310.976 129.578 310.384C129.898 309.792 130.058 309.112 130.058 308.344C130.058 307.592 129.898 306.92 129.578 306.328C129.274 305.72 128.85 305.248 128.306 304.912C127.762 304.576 127.13 304.408 126.41 304.408C125.706 304.408 125.074 304.584 124.514 304.936C123.954 305.272 123.514 305.736 123.194 306.328C122.89 306.904 122.738 307.576 122.738 308.344C122.738 309.112 122.89 309.792 123.194 310.384C123.514 310.976 123.954 311.44 124.514 311.776C125.074 312.112 125.706 312.28 126.41 312.28ZM148.096 315.16C146.816 315.16 145.632 314.928 144.544 314.464C143.472 314 142.528 313.352 141.712 312.52C140.912 311.688 140.288 310.712 139.84 309.592C139.392 308.472 139.168 307.248 139.168 305.92C139.168 304.592 139.384 303.368 139.816 302.248C140.264 301.112 140.888 300.136 141.688 299.32C142.504 298.488 143.456 297.848 144.544 297.4C145.632 296.936 146.816 296.704 148.096 296.704C149.376 296.704 150.52 296.92 151.528 297.352C152.552 297.784 153.416 298.36 154.12 299.08C154.824 299.784 155.328 300.56 155.632 301.408L152.704 302.776C152.368 301.88 151.8 301.144 151 300.568C150.2 299.976 149.232 299.68 148.096 299.68C146.976 299.68 145.984 299.944 145.12 300.472C144.272 301 143.608 301.728 143.128 302.656C142.664 303.584 142.432 304.672 142.432 305.92C142.432 307.168 142.664 308.264 143.128 309.208C143.608 310.136 144.272 310.864 145.12 311.392C145.984 311.92 146.976 312.184 148.096 312.184C149.232 312.184 150.2 311.896 151 311.32C151.8 310.728 152.368 309.984 152.704 309.088L155.632 310.456C155.328 311.304 154.824 312.088 154.12 312.808C153.416 313.512 152.552 314.08 151.528 314.512C150.52 314.944 149.376 315.16 148.096 315.16ZM163.688 315.16C162.408 315.16 161.24 314.864 160.184 314.272C159.144 313.68 158.312 312.872 157.688 311.848C157.08 310.824 156.776 309.656 156.776 308.344C156.776 307.032 157.08 305.864 157.688 304.84C158.312 303.816 159.144 303.008 160.184 302.416C161.224 301.824 162.392 301.528 163.688 301.528C164.968 301.528 166.128 301.824 167.168 302.416C168.208 303.008 169.032 303.816 169.64 304.84C170.264 305.848 170.576 307.016 170.576 308.344C170.576 309.656 170.264 310.824 169.64 311.848C169.016 312.872 168.184 313.68 167.144 314.272C166.104 314.864 164.952 315.16 163.688 315.16ZM163.688 312.28C164.392 312.28 165.008 312.112 165.536 311.776C166.08 311.44 166.504 310.976 166.808 310.384C167.128 309.776 167.288 309.096 167.288 308.344C167.288 307.576 167.128 306.904 166.808 306.328C166.504 305.736 166.08 305.272 165.536 304.936C165.008 304.584 164.392 304.408 163.688 304.408C162.968 304.408 162.336 304.584 161.792 304.936C161.248 305.272 160.816 305.736 160.496 306.328C160.192 306.904 160.04 307.576 160.04 308.344C160.04 309.096 160.192 309.776 160.496 310.384C160.816 310.976 161.248 311.44 161.792 311.776C162.336 312.112 162.968 312.28 163.688 312.28ZM172.48 314.872V301.816H175.432V304.84L175.096 304.336C175.336 303.392 175.816 302.688 176.536 302.224C177.256 301.76 178.104 301.528 179.08 301.528C180.152 301.528 181.096 301.808 181.912 302.368C182.728 302.928 183.256 303.664 183.496 304.576L182.608 304.648C183.008 303.608 183.608 302.832 184.408 302.32C185.208 301.792 186.128 301.528 187.168 301.528C188.096 301.528 188.92 301.736 189.64 302.152C190.376 302.568 190.952 303.152 191.368 303.904C191.784 304.64 191.992 305.496 191.992 306.472V314.872H188.848V307.216C188.848 306.64 188.744 306.144 188.536 305.728C188.328 305.312 188.04 304.992 187.672 304.768C187.304 304.528 186.856 304.408 186.328 304.408C185.832 304.408 185.392 304.528 185.008 304.768C184.624 304.992 184.328 305.312 184.12 305.728C183.912 306.144 183.808 306.64 183.808 307.216V314.872H180.664V307.216C180.664 306.64 180.56 306.144 180.352 305.728C180.144 305.312 179.848 304.992 179.464 304.768C179.096 304.528 178.656 304.408 178.144 304.408C177.648 304.408 177.208 304.528 176.824 304.768C176.44 304.992 176.144 305.312 175.936 305.728C175.728 306.144 175.624 306.64 175.624 307.216V314.872H172.48ZM194.172 319.672V301.816H197.124V304.408L196.836 303.76C197.284 303.056 197.892 302.512 198.66 302.128C199.428 301.728 200.316 301.528 201.324 301.528C202.556 301.528 203.668 301.832 204.66 302.44C205.652 303.048 206.436 303.864 207.012 304.888C207.604 305.912 207.9 307.064 207.9 308.344C207.9 309.608 207.612 310.76 207.036 311.8C206.46 312.84 205.676 313.664 204.684 314.272C203.692 314.864 202.564 315.16 201.3 315.16C200.356 315.16 199.484 314.976 198.684 314.608C197.9 314.224 197.276 313.68 196.812 312.976L197.316 312.352V319.672H194.172ZM200.94 312.28C201.66 312.28 202.3 312.112 202.86 311.776C203.42 311.44 203.852 310.976 204.156 310.384C204.476 309.792 204.636 309.112 204.636 308.344C204.636 307.576 204.476 306.904 204.156 306.328C203.852 305.736 203.42 305.272 202.86 304.936C202.3 304.584 201.66 304.408 200.94 304.408C200.252 304.408 199.628 304.576 199.068 304.912C198.524 305.248 198.092 305.72 197.772 306.328C197.468 306.92 197.316 307.592 197.316 308.344C197.316 309.112 197.468 309.792 197.772 310.384C198.092 310.976 198.524 311.44 199.068 311.776C199.628 312.112 200.252 312.28 200.94 312.28ZM216.201 315.16C214.921 315.16 213.753 314.864 212.697 314.272C211.657 313.68 210.825 312.872 210.201 311.848C209.593 310.824 209.289 309.656 209.289 308.344C209.289 307.032 209.593 305.864 210.201 304.84C210.825 303.816 211.657 303.008 212.697 302.416C213.737 301.824 214.905 301.528 216.201 301.528C217.481 301.528 218.641 301.824 219.681 302.416C220.721 303.008 221.545 303.816 222.153 304.84C222.777 305.848 223.089 307.016 223.089 308.344C223.089 309.656 222.777 310.824 222.153 311.848C221.529 312.872 220.697 313.68 219.657 314.272C218.617 314.864 217.465 315.16 216.201 315.16ZM216.201 312.28C216.905 312.28 217.521 312.112 218.049 311.776C218.593 311.44 219.017 310.976 219.321 310.384C219.641 309.776 219.801 309.096 219.801 308.344C219.801 307.576 219.641 306.904 219.321 306.328C219.017 305.736 218.593 305.272 218.049 304.936C217.521 304.584 216.905 304.408 216.201 304.408C215.481 304.408 214.849 304.584 214.305 304.936C213.761 305.272 213.329 305.736 213.009 306.328C212.705 306.904 212.553 307.576 212.553 308.344C212.553 309.096 212.705 309.776 213.009 310.384C213.329 310.976 213.761 311.44 214.305 311.776C214.849 312.112 215.481 312.28 216.201 312.28ZM224.993 314.872V301.816H227.945V304.384L227.705 303.928C228.009 303.144 228.505 302.552 229.193 302.152C229.897 301.736 230.713 301.528 231.641 301.528C232.601 301.528 233.449 301.736 234.185 302.152C234.937 302.568 235.521 303.152 235.937 303.904C236.353 304.64 236.561 305.496 236.561 306.472V314.872H233.417V307.216C233.417 306.64 233.305 306.144 233.081 305.728C232.857 305.312 232.545 304.992 232.145 304.768C231.761 304.528 231.305 304.408 230.777 304.408C230.265 304.408 229.809 304.528 229.409 304.768C229.009 304.992 228.697 305.312 228.473 305.728C228.249 306.144 228.137 306.64 228.137 307.216V314.872H224.993ZM244.932 315.16C243.588 315.16 242.412 314.856 241.404 314.248C240.396 313.64 239.612 312.816 239.052 311.776C238.492 310.736 238.212 309.584 238.212 308.32C238.212 307.008 238.492 305.848 239.052 304.84C239.628 303.816 240.404 303.008 241.38 302.416C242.372 301.824 243.476 301.528 244.692 301.528C245.716 301.528 246.612 301.696 247.38 302.032C248.164 302.368 248.828 302.832 249.372 303.424C249.916 304.016 250.332 304.696 250.62 305.464C250.908 306.216 251.052 307.032 251.052 307.912C251.052 308.136 251.036 308.368 251.004 308.608C250.988 308.848 250.948 309.056 250.884 309.232H240.804V306.832H249.108L247.62 307.96C247.764 307.224 247.724 306.568 247.5 305.992C247.292 305.416 246.94 304.96 246.444 304.624C245.964 304.288 245.38 304.12 244.692 304.12C244.036 304.12 243.452 304.288 242.94 304.624C242.428 304.944 242.036 305.424 241.764 306.064C241.508 306.688 241.412 307.448 241.476 308.344C241.412 309.144 241.516 309.856 241.788 310.48C242.076 311.088 242.492 311.56 243.036 311.896C243.596 312.232 244.236 312.4 244.956 312.4C245.676 312.4 246.284 312.248 246.78 311.944C247.292 311.64 247.692 311.232 247.98 310.72L250.524 311.968C250.268 312.592 249.868 313.144 249.324 313.624C248.78 314.104 248.132 314.48 247.38 314.752C246.644 315.024 245.828 315.16 244.932 315.16ZM252.955 314.872V301.816H255.907V304.384L255.667 303.928C255.971 303.144 256.467 302.552 257.155 302.152C257.859 301.736 258.675 301.528 259.603 301.528C260.563 301.528 261.411 301.736 262.147 302.152C262.899 302.568 263.483 303.152 263.899 303.904C264.315 304.64 264.523 305.496 264.523 306.472V314.872H261.379V307.216C261.379 306.64 261.267 306.144 261.043 305.728C260.819 305.312 260.507 304.992 260.107 304.768C259.723 304.528 259.267 304.408 258.739 304.408C258.227 304.408 257.771 304.528 257.371 304.768C256.971 304.992 256.659 305.312 256.435 305.728C256.211 306.144 256.099 306.64 256.099 307.216V314.872H252.955ZM272.654 315.016C271.182 315.016 270.038 314.616 269.222 313.816C268.422 313 268.022 311.856 268.022 310.384V304.624H265.766V301.816H266.006C266.646 301.816 267.142 301.648 267.494 301.312C267.846 300.976 268.022 300.488 268.022 299.848V298.84H271.166V301.816H274.166V304.624H271.166V310.216C271.166 310.648 271.238 311.016 271.382 311.32C271.542 311.624 271.782 311.856 272.102 312.016C272.438 312.176 272.862 312.256 273.374 312.256C273.486 312.256 273.614 312.248 273.758 312.232C273.918 312.216 274.07 312.2 274.214 312.184V314.872C273.99 314.904 273.734 314.936 273.446 314.968C273.158 315 272.894 315.016 272.654 315.016ZM281.104 315.16C279.712 315.16 278.496 314.832 277.456 314.176C276.432 313.504 275.728 312.6 275.344 311.464L277.696 310.336C278.032 311.072 278.496 311.648 279.088 312.064C279.696 312.48 280.368 312.688 281.104 312.688C281.68 312.688 282.136 312.56 282.472 312.304C282.808 312.048 282.976 311.712 282.976 311.296C282.976 311.04 282.904 310.832 282.76 310.672C282.632 310.496 282.448 310.352 282.208 310.24C281.984 310.112 281.736 310.008 281.464 309.928L279.328 309.328C278.224 309.008 277.384 308.52 276.808 307.864C276.248 307.208 275.968 306.432 275.968 305.536C275.968 304.736 276.168 304.04 276.568 303.448C276.984 302.84 277.552 302.368 278.272 302.032C279.008 301.696 279.848 301.528 280.792 301.528C282.024 301.528 283.112 301.824 284.056 302.416C285 303.008 285.672 303.84 286.072 304.912L283.672 306.04C283.448 305.448 283.072 304.976 282.544 304.624C282.016 304.272 281.424 304.096 280.768 304.096C280.24 304.096 279.824 304.216 279.52 304.456C279.216 304.696 279.064 305.008 279.064 305.392C279.064 305.632 279.128 305.84 279.256 306.016C279.384 306.192 279.56 306.336 279.784 306.448C280.024 306.56 280.296 306.664 280.6 306.76L282.688 307.384C283.76 307.704 284.584 308.184 285.16 308.824C285.752 309.464 286.048 310.248 286.048 311.176C286.048 311.96 285.84 312.656 285.424 313.264C285.008 313.856 284.432 314.32 283.696 314.656C282.96 314.992 282.096 315.16 281.104 315.16Z" fill="#FAFAFA"/>
<g clipPath="url(#clip3_12140_48078)">
<g filter="url(#filter3_i_12140_48078)">
<rect x="323" y="298.134" width="865" height="12" rx="6" fill="url(#paint6_linear_12140_48078)"/>
<rect x="323.5" y="298.634" width="864" height="11" rx="5.5" stroke="white" stroke-opacity="0.04"/>
</g>
<path d="M323 304.61C323 301.296 325.686 298.61 329 298.61H478V310.61H329C325.686 310.61 323 307.924 323 304.61Z" fill="#EAB305"/>
<rect width="1728" height="172" transform="matrix(0 -1 -1 0 1250 1372)" fill="url(#paint7_linear_12140_48078)"/>
</g>
<path d="M1231.34 313.66C1230.24 313.66 1229.3 313.444 1228.51 313.012C1227.73 312.58 1227.11 312.004 1226.66 311.284C1226.23 310.564 1225.97 309.78 1225.87 308.932H1228.25C1228.39 309.764 1228.74 310.404 1229.28 310.852C1229.82 311.3 1230.52 311.524 1231.37 311.524C1232.54 311.524 1233.5 310.98 1234.25 309.892C1235.02 308.788 1235.42 307.1 1235.47 304.828C1235.09 305.532 1234.49 306.132 1233.67 306.628C1232.87 307.124 1231.94 307.372 1230.89 307.372C1229.94 307.372 1229.06 307.148 1228.22 306.7C1227.39 306.252 1226.72 305.628 1226.21 304.828C1225.7 304.012 1225.44 303.052 1225.44 301.948C1225.44 300.972 1225.68 300.052 1226.16 299.188C1226.64 298.324 1227.31 297.628 1228.18 297.1C1229.06 296.556 1230.1 296.284 1231.3 296.284C1232.53 296.284 1233.57 296.516 1234.42 296.98C1235.26 297.444 1235.94 298.06 1236.46 298.828C1236.97 299.596 1237.34 300.46 1237.56 301.42C1237.8 302.38 1237.92 303.364 1237.92 304.372C1237.92 306.228 1237.66 307.852 1237.13 309.244C1236.62 310.636 1235.87 311.724 1234.9 312.508C1233.92 313.276 1232.74 313.66 1231.34 313.66ZM1231.46 305.188C1232.14 305.188 1232.74 305.036 1233.26 304.732C1233.79 304.428 1234.21 304.028 1234.51 303.532C1234.83 303.02 1234.99 302.46 1234.99 301.852C1234.99 301.196 1234.83 300.62 1234.51 300.124C1234.21 299.612 1233.78 299.212 1233.24 298.924C1232.71 298.636 1232.11 298.492 1231.44 298.492C1230.77 298.492 1230.17 298.636 1229.64 298.924C1229.11 299.212 1228.69 299.612 1228.37 300.124C1228.06 300.62 1227.91 301.188 1227.91 301.828C1227.91 302.852 1228.25 303.668 1228.92 304.276C1229.59 304.884 1230.44 305.188 1231.46 305.188ZM1242.29 313.372V299.452L1239.58 300.076V298.204L1243.3 296.572H1244.93V313.372H1242.29ZM1254.3 313.372V301.468H1256.55L1256.77 303.148C1257.15 302.54 1257.66 302.06 1258.28 301.708C1258.92 301.356 1259.66 301.18 1260.49 301.18C1262.38 301.18 1263.69 301.924 1264.42 303.412C1264.86 302.724 1265.43 302.18 1266.15 301.78C1266.89 301.38 1267.68 301.18 1268.53 301.18C1270.02 301.18 1271.18 301.628 1272.03 302.524C1272.88 303.42 1273.3 304.756 1273.3 306.532V313.372H1270.76V306.796C1270.76 304.492 1269.88 303.34 1268.12 303.34C1267.22 303.34 1266.49 303.676 1265.91 304.348C1265.35 305.02 1265.07 305.98 1265.07 307.228V313.372H1262.53V306.796C1262.53 304.492 1261.64 303.34 1259.86 303.34C1258.98 303.34 1258.26 303.676 1257.68 304.348C1257.12 305.02 1256.84 305.98 1256.84 307.228V313.372H1254.3ZM1281.03 313.66C1279.53 313.66 1278.29 313.292 1277.31 312.556C1276.34 311.82 1275.78 310.844 1275.63 309.628H1278.2C1278.33 310.172 1278.63 310.644 1279.11 311.044C1279.59 311.428 1280.22 311.62 1281.01 311.62C1281.78 311.62 1282.34 311.46 1282.69 311.14C1283.04 310.82 1283.22 310.452 1283.22 310.036C1283.22 309.428 1282.97 309.02 1282.47 308.812C1281.99 308.588 1281.32 308.388 1280.46 308.212C1279.78 308.068 1279.11 307.876 1278.44 307.636C1277.78 307.396 1277.23 307.06 1276.78 306.628C1276.35 306.18 1276.14 305.58 1276.14 304.828C1276.14 303.788 1276.54 302.924 1277.34 302.236C1278.14 301.532 1279.26 301.18 1280.7 301.18C1282.02 301.18 1283.1 301.5 1283.91 302.14C1284.74 302.78 1285.23 303.684 1285.38 304.852H1282.93C1282.85 304.34 1282.61 303.94 1282.21 303.652C1281.82 303.364 1281.3 303.22 1280.65 303.22C1280.01 303.22 1279.51 303.356 1279.16 303.628C1278.81 303.884 1278.63 304.22 1278.63 304.636C1278.63 305.052 1278.87 305.38 1279.35 305.62C1279.85 305.86 1280.5 306.076 1281.3 306.268C1282.1 306.444 1282.83 306.652 1283.5 306.892C1284.19 307.116 1284.74 307.452 1285.16 307.9C1285.58 308.348 1285.78 309.004 1285.78 309.868C1285.8 310.956 1285.38 311.86 1284.51 312.58C1283.66 313.3 1282.5 313.66 1281.03 313.66Z" fill="#A3A3A3"/>
<path d="M160.017 389.978V372.098H162.561L172.401 385.346L171.081 385.61V372.098H174.345V389.978H171.777L162.081 376.634L163.281 376.37V389.978H160.017ZM181.022 390.266C180.11 390.266 179.318 390.114 178.646 389.81C177.974 389.506 177.454 389.074 177.086 388.514C176.718 387.938 176.534 387.274 176.534 386.522C176.534 385.802 176.694 385.162 177.014 384.602C177.334 384.026 177.83 383.546 178.502 383.162C179.174 382.778 180.022 382.506 181.046 382.346L185.318 381.65V384.05L181.646 384.674C181.022 384.786 180.558 384.986 180.254 385.274C179.95 385.562 179.798 385.938 179.798 386.402C179.798 386.85 179.966 387.21 180.302 387.482C180.654 387.738 181.086 387.866 181.598 387.866C182.254 387.866 182.83 387.73 183.326 387.458C183.838 387.17 184.23 386.778 184.502 386.282C184.79 385.786 184.934 385.242 184.934 384.65V381.29C184.934 380.73 184.71 380.266 184.262 379.898C183.83 379.514 183.254 379.322 182.534 379.322C181.862 379.322 181.262 379.506 180.734 379.874C180.222 380.226 179.846 380.698 179.606 381.29L177.038 380.042C177.294 379.354 177.694 378.762 178.238 378.266C178.798 377.754 179.454 377.354 180.206 377.066C180.958 376.778 181.774 376.634 182.654 376.634C183.726 376.634 184.67 376.834 185.486 377.234C186.302 377.618 186.934 378.162 187.382 378.866C187.846 379.554 188.078 380.362 188.078 381.29V389.978H185.102V387.746L185.774 387.698C185.438 388.258 185.038 388.73 184.574 389.114C184.11 389.482 183.582 389.77 182.99 389.978C182.398 390.17 181.742 390.266 181.022 390.266ZM196.221 390.122C194.749 390.122 193.605 389.722 192.789 388.922C191.989 388.106 191.589 386.962 191.589 385.49V379.73H189.333V376.922H189.573C190.213 376.922 190.709 376.754 191.061 376.418C191.413 376.082 191.589 375.594 191.589 374.954V373.946H194.733V376.922H197.733V379.73H194.733V385.322C194.733 385.754 194.805 386.122 194.949 386.426C195.109 386.73 195.349 386.962 195.669 387.122C196.005 387.282 196.429 387.362 196.941 387.362C197.053 387.362 197.181 387.354 197.325 387.338C197.485 387.322 197.637 387.306 197.781 387.29V389.978C197.557 390.01 197.301 390.042 197.013 390.074C196.725 390.106 196.461 390.122 196.221 390.122ZM199.703 389.978V376.922H202.847V389.978H199.703ZM199.703 375.458V372.098H202.847V375.458H199.703ZM209.206 389.978L204.07 376.922H207.502L211.222 387.194H209.95L213.694 376.922H217.126L211.99 389.978H209.206ZM224.342 390.266C222.998 390.266 221.822 389.962 220.814 389.354C219.806 388.746 219.022 387.922 218.462 386.882C217.902 385.842 217.622 384.69 217.622 383.426C217.622 382.114 217.902 380.954 218.462 379.946C219.038 378.922 219.814 378.114 220.79 377.522C221.782 376.93 222.886 376.634 224.102 376.634C225.126 376.634 226.022 376.802 226.79 377.138C227.574 377.474 228.238 377.938 228.782 378.53C229.326 379.122 229.742 379.802 230.03 380.57C230.318 381.322 230.462 382.138 230.462 383.018C230.462 383.242 230.446 383.474 230.414 383.714C230.398 383.954 230.358 384.162 230.294 384.338H220.214V381.938H228.518L227.03 383.066C227.174 382.33 227.134 381.674 226.91 381.098C226.702 380.522 226.35 380.066 225.854 379.73C225.374 379.394 224.79 379.226 224.102 379.226C223.446 379.226 222.862 379.394 222.35 379.73C221.838 380.05 221.446 380.53 221.174 381.17C220.918 381.794 220.822 382.554 220.886 383.45C220.822 384.25 220.926 384.962 221.198 385.586C221.486 386.194 221.902 386.666 222.446 387.002C223.006 387.338 223.646 387.506 224.366 387.506C225.086 387.506 225.694 387.354 226.19 387.05C226.702 386.746 227.102 386.338 227.39 385.826L229.934 387.074C229.678 387.698 229.278 388.25 228.734 388.73C228.19 389.21 227.542 389.586 226.79 389.858C226.054 390.13 225.238 390.266 224.342 390.266ZM232.629 389.978V372.098H240.165C241.349 372.098 242.357 372.306 243.189 372.722C244.037 373.122 244.685 373.698 245.133 374.45C245.597 375.186 245.829 376.082 245.829 377.138C245.829 377.954 245.605 378.722 245.157 379.442C244.725 380.146 244.029 380.73 243.069 381.194V379.682C243.949 380.018 244.645 380.434 245.157 380.93C245.669 381.426 246.029 381.978 246.237 382.586C246.445 383.194 246.549 383.834 246.549 384.506C246.549 386.218 245.981 387.562 244.845 388.538C243.725 389.498 242.165 389.978 240.165 389.978H232.629ZM235.893 387.098H240.501C241.349 387.098 242.021 386.866 242.517 386.402C243.029 385.922 243.285 385.29 243.285 384.506C243.285 383.722 243.029 383.09 242.517 382.61C242.021 382.13 241.349 381.89 240.501 381.89H235.893V387.098ZM235.893 379.034H240.333C241.005 379.034 241.541 378.842 241.941 378.458C242.341 378.058 242.541 377.546 242.541 376.922C242.541 376.298 242.341 375.802 241.941 375.434C241.541 375.066 241.005 374.882 240.333 374.882H235.893V379.034ZM252.439 390.266C251.527 390.266 250.735 390.114 250.063 389.81C249.391 389.506 248.871 389.074 248.503 388.514C248.135 387.938 247.951 387.274 247.951 386.522C247.951 385.802 248.111 385.162 248.431 384.602C248.751 384.026 249.247 383.546 249.919 383.162C250.591 382.778 251.439 382.506 252.463 382.346L256.735 381.65V384.05L253.063 384.674C252.439 384.786 251.975 384.986 251.671 385.274C251.367 385.562 251.215 385.938 251.215 386.402C251.215 386.85 251.383 387.21 251.719 387.482C252.071 387.738 252.503 387.866 253.015 387.866C253.671 387.866 254.247 387.73 254.743 387.458C255.255 387.17 255.647 386.778 255.919 386.282C256.207 385.786 256.351 385.242 256.351 384.65V381.29C256.351 380.73 256.127 380.266 255.679 379.898C255.247 379.514 254.671 379.322 253.951 379.322C253.279 379.322 252.679 379.506 252.151 379.874C251.639 380.226 251.263 380.698 251.023 381.29L248.455 380.042C248.711 379.354 249.111 378.762 249.655 378.266C250.215 377.754 250.871 377.354 251.623 377.066C252.375 376.778 253.191 376.634 254.071 376.634C255.143 376.634 256.087 376.834 256.903 377.234C257.719 377.618 258.351 378.162 258.799 378.866C259.263 379.554 259.495 380.362 259.495 381.29V389.978H256.519V387.746L257.191 387.698C256.855 388.258 256.455 388.73 255.991 389.114C255.527 389.482 254.999 389.77 254.407 389.978C253.815 390.17 253.159 390.266 252.439 390.266ZM266.889 390.266C265.497 390.266 264.281 389.938 263.241 389.282C262.217 388.61 261.513 387.706 261.129 386.57L263.481 385.442C263.817 386.178 264.281 386.754 264.873 387.17C265.481 387.586 266.153 387.794 266.889 387.794C267.465 387.794 267.921 387.666 268.257 387.41C268.593 387.154 268.761 386.818 268.761 386.402C268.761 386.146 268.689 385.938 268.545 385.778C268.417 385.602 268.233 385.458 267.993 385.346C267.769 385.218 267.521 385.114 267.249 385.034L265.113 384.434C264.009 384.114 263.169 383.626 262.593 382.97C262.033 382.314 261.753 381.538 261.753 380.642C261.753 379.842 261.953 379.146 262.353 378.554C262.769 377.946 263.337 377.474 264.057 377.138C264.793 376.802 265.633 376.634 266.577 376.634C267.809 376.634 268.897 376.93 269.841 377.522C270.785 378.114 271.457 378.946 271.857 380.018L269.457 381.146C269.233 380.554 268.857 380.082 268.329 379.73C267.801 379.378 267.209 379.202 266.553 379.202C266.025 379.202 265.609 379.322 265.305 379.562C265.001 379.802 264.849 380.114 264.849 380.498C264.849 380.738 264.913 380.946 265.041 381.122C265.169 381.298 265.345 381.442 265.569 381.554C265.809 381.666 266.081 381.77 266.385 381.866L268.473 382.49C269.545 382.81 270.369 383.29 270.945 383.93C271.537 384.57 271.833 385.354 271.833 386.282C271.833 387.066 271.625 387.762 271.209 388.37C270.793 388.962 270.217 389.426 269.481 389.762C268.745 390.098 267.881 390.266 266.889 390.266ZM279.961 390.266C278.617 390.266 277.441 389.962 276.433 389.354C275.425 388.746 274.641 387.922 274.081 386.882C273.521 385.842 273.241 384.69 273.241 383.426C273.241 382.114 273.521 380.954 274.081 379.946C274.657 378.922 275.433 378.114 276.409 377.522C277.401 376.93 278.505 376.634 279.721 376.634C280.745 376.634 281.641 376.802 282.409 377.138C283.193 377.474 283.857 377.938 284.401 378.53C284.945 379.122 285.361 379.802 285.649 380.57C285.937 381.322 286.081 382.138 286.081 383.018C286.081 383.242 286.065 383.474 286.033 383.714C286.017 383.954 285.977 384.162 285.913 384.338H275.833V381.938H284.137L282.649 383.066C282.793 382.33 282.753 381.674 282.529 381.098C282.321 380.522 281.969 380.066 281.473 379.73C280.993 379.394 280.409 379.226 279.721 379.226C279.065 379.226 278.481 379.394 277.969 379.73C277.457 380.05 277.065 380.53 276.793 381.17C276.537 381.794 276.441 382.554 276.505 383.45C276.441 384.25 276.545 384.962 276.817 385.586C277.105 386.194 277.521 386.666 278.065 387.002C278.625 387.338 279.265 387.506 279.985 387.506C280.705 387.506 281.313 387.354 281.809 387.05C282.321 386.746 282.721 386.338 283.009 385.826L285.553 387.074C285.297 387.698 284.897 388.25 284.353 388.73C283.809 389.21 283.161 389.586 282.409 389.858C281.673 390.13 280.857 390.266 279.961 390.266Z" fill="#FAFAFA"/>
<g clipPath="url(#clip4_12140_48078)">
<g filter="url(#filter4_i_12140_48078)">
<rect x="323" y="373.24" width="865" height="12" rx="6" fill="url(#paint8_linear_12140_48078)"/>
<rect x="323.5" y="373.74" width="864" height="11" rx="5.5" stroke="white" stroke-opacity="0.04"/>
</g>
<path d="M323 379.716C323 376.403 325.686 373.716 329 373.716H1252V385.716H329C325.686 385.716 323 383.03 323 379.716Z" fill="#0991B1"/>
<rect width="1728" height="172" transform="matrix(0 -1 -1 0 1230 1447.11)" fill="url(#paint9_linear_12140_48078)"/>
</g>
<path d="M1231.56 388.766C1230.38 388.766 1229.35 388.558 1228.49 388.142C1227.62 387.71 1226.94 387.126 1226.42 386.39C1225.93 385.638 1225.62 384.79 1225.51 383.846H1228.01C1228.17 384.646 1228.57 385.31 1229.21 385.838C1229.85 386.35 1230.64 386.606 1231.58 386.606C1232.29 386.606 1232.9 386.438 1233.41 386.102C1233.92 385.75 1234.32 385.286 1234.61 384.71C1234.9 384.134 1235.04 383.486 1235.04 382.766C1235.04 381.63 1234.72 380.726 1234.08 380.054C1233.44 379.366 1232.63 379.022 1231.66 379.022C1230.82 379.022 1230.11 379.222 1229.52 379.622C1228.93 380.006 1228.5 380.494 1228.22 381.086H1225.8L1227.24 371.678H1236.31V373.91H1229.16L1228.3 378.398C1228.66 377.982 1229.17 377.638 1229.81 377.366C1230.46 377.078 1231.2 376.934 1232.02 376.934C1233.15 376.934 1234.13 377.198 1234.94 377.726C1235.76 378.238 1236.38 378.934 1236.82 379.814C1237.26 380.694 1237.49 381.67 1237.49 382.742C1237.49 383.862 1237.25 384.878 1236.77 385.79C1236.29 386.702 1235.6 387.43 1234.7 387.974C1233.82 388.502 1232.78 388.766 1231.56 388.766ZM1239.85 388.478V386.654C1240.94 385.79 1241.98 384.918 1242.97 384.038C1243.96 383.158 1244.84 382.294 1245.61 381.446C1246.4 380.582 1247.01 379.742 1247.46 378.926C1247.91 378.094 1248.13 377.294 1248.13 376.526C1248.13 376.014 1248.04 375.534 1247.87 375.086C1247.69 374.622 1247.4 374.254 1247 373.982C1246.6 373.694 1246.07 373.55 1245.4 373.55C1244.39 373.55 1243.63 373.87 1243.12 374.51C1242.62 375.15 1242.38 375.918 1242.4 376.814H1239.92C1239.94 375.63 1240.19 374.638 1240.67 373.838C1241.16 373.038 1241.82 372.43 1242.64 372.014C1243.47 371.598 1244.4 371.39 1245.44 371.39C1247.03 371.39 1248.29 371.838 1249.24 372.734C1250.2 373.614 1250.68 374.846 1250.68 376.43C1250.68 377.374 1250.44 378.31 1249.98 379.238C1249.53 380.166 1248.94 381.062 1248.2 381.926C1247.48 382.774 1246.71 383.574 1245.88 384.326C1245.04 385.078 1244.25 385.758 1243.5 386.366H1251.18V388.478H1239.85ZM1259.38 388.766C1258.27 388.766 1257.33 388.55 1256.54 388.118C1255.76 387.686 1255.14 387.11 1254.7 386.39C1254.26 385.67 1254 384.886 1253.9 384.038H1256.28C1256.42 384.87 1256.77 385.51 1257.31 385.958C1257.86 386.406 1258.55 386.63 1259.4 386.63C1260.57 386.63 1261.53 386.086 1262.28 384.998C1263.05 383.894 1263.46 382.206 1263.5 379.934C1263.12 380.638 1262.52 381.238 1261.7 381.734C1260.9 382.23 1259.98 382.478 1258.92 382.478C1257.98 382.478 1257.09 382.254 1256.26 381.806C1255.42 381.358 1254.75 380.734 1254.24 379.934C1253.73 379.118 1253.47 378.158 1253.47 377.054C1253.47 376.078 1253.71 375.158 1254.19 374.294C1254.67 373.43 1255.34 372.734 1256.21 372.206C1257.09 371.662 1258.13 371.39 1259.33 371.39C1260.56 371.39 1261.6 371.622 1262.45 372.086C1263.3 372.55 1263.98 373.166 1264.49 373.934C1265 374.702 1265.37 375.566 1265.59 376.526C1265.83 377.486 1265.95 378.47 1265.95 379.478C1265.95 381.334 1265.69 382.958 1265.16 384.35C1264.65 385.742 1263.9 386.83 1262.93 387.614C1261.95 388.382 1260.77 388.766 1259.38 388.766ZM1259.5 380.294C1260.17 380.294 1260.77 380.142 1261.3 379.838C1261.82 379.534 1262.24 379.134 1262.54 378.638C1262.86 378.126 1263.02 377.566 1263.02 376.958C1263.02 376.302 1262.86 375.726 1262.54 375.23C1262.24 374.718 1261.82 374.318 1261.27 374.03C1260.74 373.742 1260.14 373.598 1259.47 373.598C1258.8 373.598 1258.2 373.742 1257.67 374.03C1257.14 374.318 1256.72 374.718 1256.4 375.23C1256.1 375.726 1255.94 376.294 1255.94 376.934C1255.94 377.958 1256.28 378.774 1256.95 379.382C1257.62 379.99 1258.47 380.294 1259.5 380.294ZM1274.85 388.478V376.574H1277.11L1277.32 378.254C1277.71 377.646 1278.21 377.166 1278.83 376.814C1279.47 376.462 1280.21 376.286 1281.04 376.286C1282.93 376.286 1284.24 377.03 1284.98 378.518C1285.41 377.83 1285.99 377.286 1286.71 376.886C1287.44 376.486 1288.23 376.286 1289.08 376.286C1290.57 376.286 1291.74 376.734 1292.59 377.63C1293.43 378.526 1293.86 379.862 1293.86 381.638V388.478H1291.31V381.902C1291.31 379.598 1290.43 378.446 1288.67 378.446C1287.78 378.446 1287.04 378.782 1286.47 379.454C1285.91 380.126 1285.63 381.086 1285.63 382.334V388.478H1283.08V381.902C1283.08 379.598 1282.19 378.446 1280.42 378.446C1279.54 378.446 1278.81 378.782 1278.23 379.454C1277.67 380.126 1277.39 381.086 1277.39 382.334V388.478H1274.85ZM1301.59 388.766C1300.08 388.766 1298.84 388.398 1297.87 387.662C1296.89 386.926 1296.33 385.95 1296.19 384.734H1298.75C1298.88 385.278 1299.19 385.75 1299.67 386.15C1300.15 386.534 1300.78 386.726 1301.56 386.726C1302.33 386.726 1302.89 386.566 1303.24 386.246C1303.59 385.926 1303.77 385.558 1303.77 385.142C1303.77 384.534 1303.52 384.126 1303.03 383.918C1302.55 383.694 1301.87 383.494 1301.01 383.318C1300.34 383.174 1299.67 382.982 1298.99 382.742C1298.34 382.502 1297.79 382.166 1297.34 381.734C1296.91 381.286 1296.69 380.686 1296.69 379.934C1296.69 378.894 1297.09 378.03 1297.89 377.342C1298.69 376.638 1299.81 376.286 1301.25 376.286C1302.58 376.286 1303.65 376.606 1304.47 377.246C1305.3 377.886 1305.79 378.79 1305.93 379.958H1303.48C1303.4 379.446 1303.16 379.046 1302.76 378.758C1302.38 378.47 1301.86 378.326 1301.2 378.326C1300.56 378.326 1300.07 378.462 1299.71 378.734C1299.36 378.99 1299.19 379.326 1299.19 379.742C1299.19 380.158 1299.43 380.486 1299.91 380.726C1300.4 380.966 1301.05 381.182 1301.85 381.374C1302.65 381.55 1303.39 381.758 1304.06 381.998C1304.75 382.222 1305.3 382.558 1305.71 383.006C1306.13 383.454 1306.34 384.11 1306.34 384.974C1306.35 386.062 1305.93 386.966 1305.07 387.686C1304.22 388.406 1303.06 388.766 1301.59 388.766Z" fill="#A3A3A3"/>
<defs>
<filter id="filter0_i_12140_48078" x="323" y="-580.998" width="927" height="1728" filterUnits="userSpaceOnUse" color-interpolation-filters="sRGB">
<feFlood flood-opacity="0" result="BackgroundImageFix"/>
<feBlend mode="normal" in="SourceGraphic" in2="BackgroundImageFix" result="shape"/>
<feColorMatrix in="SourceAlpha" type="matrix" values="0 0 0 0 0 0 0 0 0 0 0 0 0 0 0 0 0 0 127 0" result="hardAlpha"/>
<feOffset dy="1"/>
<feComposite in2="hardAlpha" operator="arithmetic" k2="-1" k3="1"/>
<feColorMatrix type="matrix" values="0 0 0 0 1 0 0 0 0 1 0 0 0 0 1 0 0 0 0.08 0"/>
<feBlend mode="normal" in2="shape" result="effect1_innerShadow_12140_48078"/>
</filter>
<filter id="filter1_i_12140_48078" x="323" y="-506.001" width="927" height="1728" filterUnits="userSpaceOnUse" color-interpolation-filters="sRGB">
<feFlood flood-opacity="0" result="BackgroundImageFix"/>
<feBlend mode="normal" in="SourceGraphic" in2="BackgroundImageFix" result="shape"/>
<feColorMatrix in="SourceAlpha" type="matrix" values="0 0 0 0 0 0 0 0 0 0 0 0 0 0 0 0 0 0 127 0" result="hardAlpha"/>
<feOffset dy="1"/>
<feComposite in2="hardAlpha" operator="arithmetic" k2="-1" k3="1"/>
<feColorMatrix type="matrix" values="0 0 0 0 1 0 0 0 0 1 0 0 0 0 1 0 0 0 0.08 0"/>
<feBlend mode="normal" in2="shape" result="effect1_innerShadow_12140_48078"/>
</filter>
<filter id="filter2_i_12140_48078" x="323" y="-430.996" width="927" height="1728" filterUnits="userSpaceOnUse" color-interpolation-filters="sRGB">
<feFlood flood-opacity="0" result="BackgroundImageFix"/>
<feBlend mode="normal" in="SourceGraphic" in2="BackgroundImageFix" result="shape"/>
<feColorMatrix in="SourceAlpha" type="matrix" values="0 0 0 0 0 0 0 0 0 0 0 0 0 0 0 0 0 0 127 0" result="hardAlpha"/>
<feOffset dy="1"/>
<feComposite in2="hardAlpha" operator="arithmetic" k2="-1" k3="1"/>
<feColorMatrix type="matrix" values="0 0 0 0 1 0 0 0 0 1 0 0 0 0 1 0 0 0 0.08 0"/>
<feBlend mode="normal" in2="shape" result="effect1_innerShadow_12140_48078"/>
</filter>
<filter id="filter3_i_12140_48078" x="323" y="298.134" width="865" height="12" filterUnits="userSpaceOnUse" color-interpolation-filters="sRGB">
<feFlood flood-opacity="0" result="BackgroundImageFix"/>
<feBlend mode="normal" in="SourceGraphic" in2="BackgroundImageFix" result="shape"/>
<feColorMatrix in="SourceAlpha" type="matrix" values="0 0 0 0 0 0 0 0 0 0 0 0 0 0 0 0 0 0 127 0" result="hardAlpha"/>
<feOffset dy="1"/>
<feComposite in2="hardAlpha" operator="arithmetic" k2="-1" k3="1"/>
<feColorMatrix type="matrix" values="0 0 0 0 1 0 0 0 0 1 0 0 0 0 1 0 0 0 0.08 0"/>
<feBlend mode="normal" in2="shape" result="effect1_innerShadow_12140_48078"/>
</filter>
<filter id="filter4_i_12140_48078" x="323" y="373.24" width="865" height="12" filterUnits="userSpaceOnUse" color-interpolation-filters="sRGB">
<feFlood flood-opacity="0" result="BackgroundImageFix"/>
<feBlend mode="normal" in="SourceGraphic" in2="BackgroundImageFix" result="shape"/>
<feColorMatrix in="SourceAlpha" type="matrix" values="0 0 0 0 0 0 0 0 0 0 0 0 0 0 0 0 0 0 127 0" result="hardAlpha"/>
<feOffset dy="1"/>
<feComposite in2="hardAlpha" operator="arithmetic" k2="-1" k3="1"/>
<feColorMatrix type="matrix" values="0 0 0 0 1 0 0 0 0 1 0 0 0 0 1 0 0 0 0.08 0"/>
<feBlend mode="normal" in2="shape" result="effect1_innerShadow_12140_48078"/>
</filter>
<linearGradient id="paint0_linear_12140_48078" x1="755.5" y1="73.1351" x2="755.5" y2="85.1351" gradientUnits="userSpaceOnUse">
<stop stop-color="white" stop-opacity="0.12"/>
<stop offset="1" stop-color="white" stop-opacity="0.02"/>
</linearGradient>
<linearGradient id="paint1_linear_12140_48078" x1="864" y1="13.9051" x2="864" y2="90.6854" gradientUnits="userSpaceOnUse">
<stop/>
<stop offset="1" stop-opacity="0"/>
</linearGradient>
<linearGradient id="paint2_linear_12140_48078" x1="755.5" y1="148.132" x2="755.5" y2="160.132" gradientUnits="userSpaceOnUse">
<stop stop-color="white" stop-opacity="0.12"/>
<stop offset="1" stop-color="white" stop-opacity="0.02"/>
</linearGradient>
<linearGradient id="paint3_linear_12140_48078" x1="864" y1="13.9051" x2="864" y2="90.6854" gradientUnits="userSpaceOnUse">
<stop/>
<stop offset="1" stop-opacity="0"/>
</linearGradient>
<linearGradient id="paint4_linear_12140_48078" x1="755.5" y1="223.137" x2="755.5" y2="235.137" gradientUnits="userSpaceOnUse">
<stop stop-color="white" stop-opacity="0.12"/>
<stop offset="1" stop-color="white" stop-opacity="0.02"/>
</linearGradient>
<linearGradient id="paint5_linear_12140_48078" x1="864" y1="13.9051" x2="864" y2="90.6854" gradientUnits="userSpaceOnUse">
<stop/>
<stop offset="1" stop-opacity="0"/>
</linearGradient>
<linearGradient id="paint6_linear_12140_48078" x1="755.5" y1="298.134" x2="755.5" y2="310.134" gradientUnits="userSpaceOnUse">
<stop stop-color="white" stop-opacity="0.12"/>
<stop offset="1" stop-color="white" stop-opacity="0.02"/>
</linearGradient>
<linearGradient id="paint7_linear_12140_48078" x1="864" y1="13.9051" x2="864" y2="90.6854" gradientUnits="userSpaceOnUse">
<stop/>
<stop offset="1" stop-opacity="0"/>
</linearGradient>
<linearGradient id="paint8_linear_12140_48078" x1="755.5" y1="373.24" x2="755.5" y2="385.24" gradientUnits="userSpaceOnUse">
<stop stop-color="white" stop-opacity="0.12"/>
<stop offset="1" stop-color="white" stop-opacity="0.02"/>
</linearGradient>
<linearGradient id="paint9_linear_12140_48078" x1="864" y1="13.9051" x2="864" y2="90.6854" gradientUnits="userSpaceOnUse">
<stop/>
<stop offset="1" stop-opacity="0"/>
</linearGradient>
<clipPath id="clip0_12140_48078">
<rect width="865" height="63.4766" fill="white" transform="translate(323 47.8148)"/>
</clipPath>
<clipPath id="clip1_12140_48078">
<rect width="865" height="63.4766" fill="white" transform="translate(323 122.921)"/>
</clipPath>
<clipPath id="clip2_12140_48078">
<rect width="865" height="63.4766" fill="white" transform="translate(323 198.027)"/>
</clipPath>
<clipPath id="clip3_12140_48078">
<rect width="865" height="63.4766" fill="white" transform="translate(323 273.134)"/>
</clipPath>
<clipPath id="clip4_12140_48078">
<rect width="865" height="63.4766" fill="white" transform="translate(323 348.24)"/>
</clipPath>
</defs>
</svg>
