<svg width="1368" height="460" viewBox="0 0 1368 460" fill="none" xmlns="http://www.w3.org/2000/svg">
<rect width="1368" height="459.531" rx="8" fill="black"/>
<path d="M150.221 94.8331C149.245 94.8331 148.341 94.6731 147.509 94.3531C146.677 94.0331 145.957 93.5851 145.349 93.0091C144.757 92.4491 144.325 91.7851 144.053 91.0171L146.981 89.9131C147.173 90.5211 147.549 91.0091 148.109 91.3771C148.685 91.7611 149.389 91.9531 150.221 91.9531C150.861 91.9531 151.421 91.8331 151.901 91.5931C152.397 91.3531 152.781 91.0011 153.053 90.5371C153.325 90.0891 153.461 89.5451 153.461 88.9051V85.9291L154.061 86.6491C153.613 87.4331 153.013 88.0251 152.261 88.4251C151.509 88.8251 150.653 89.0251 149.693 89.0251C148.477 89.0251 147.389 88.7451 146.429 88.1851C145.469 87.6251 144.717 86.8571 144.173 85.8811C143.629 84.9051 143.357 83.8091 143.357 82.5931C143.357 81.3611 143.629 80.2651 144.173 79.3051C144.717 78.3451 145.461 77.5931 146.405 77.0491C147.349 76.4891 148.421 76.2091 149.621 76.2091C150.597 76.2091 151.453 76.4171 152.189 76.8331C152.941 77.2331 153.565 77.8171 154.061 78.5851L153.629 79.3771V76.4971H156.605V88.9051C156.605 90.0411 156.325 91.0571 155.765 91.9531C155.221 92.8491 154.469 93.5531 153.509 94.0651C152.565 94.5771 151.469 94.8331 150.221 94.8331ZM150.077 86.1211C150.749 86.1211 151.333 85.9771 151.829 85.6891C152.341 85.3851 152.741 84.9691 153.029 84.4411C153.317 83.9131 153.461 83.3051 153.461 82.6171C153.461 81.9451 153.309 81.3451 153.005 80.8171C152.717 80.2731 152.317 79.8491 151.805 79.5451C151.309 79.2411 150.733 79.0891 150.077 79.0891C149.421 79.0891 148.829 79.2411 148.301 79.5451C147.773 79.8491 147.357 80.2731 147.053 80.8171C146.765 81.3451 146.621 81.9451 146.621 82.6171C146.621 83.2891 146.765 83.8891 147.053 84.4171C147.357 84.9451 147.765 85.3611 148.277 85.6651C148.805 85.9691 149.405 86.1211 150.077 86.1211ZM159.061 89.5531V71.3851H162.205V89.5531H159.061ZM169.284 89.8411C168.276 89.8411 167.396 89.6171 166.644 89.1691C165.908 88.7211 165.34 88.0971 164.94 87.2971C164.556 86.4971 164.364 85.5611 164.364 84.4891V76.4971H167.508V84.2251C167.508 84.7691 167.612 85.2491 167.82 85.6651C168.044 86.0651 168.356 86.3851 168.756 86.6251C169.172 86.8491 169.636 86.9611 170.148 86.9611C170.66 86.9611 171.116 86.8491 171.516 86.6251C171.916 86.3851 172.228 86.0571 172.452 85.6411C172.676 85.2251 172.788 84.7291 172.788 84.1531V76.4971H175.932V89.5531H172.956V86.9851L173.22 87.4411C172.916 88.2411 172.412 88.8411 171.708 89.2411C171.02 89.6411 170.212 89.8411 169.284 89.8411ZM184.566 89.8411C183.222 89.8411 182.046 89.5371 181.038 88.9291C180.03 88.3211 179.246 87.4971 178.686 86.4571C178.126 85.4171 177.846 84.2651 177.846 83.0011C177.846 81.6891 178.126 80.5291 178.686 79.5211C179.262 78.4971 180.038 77.6891 181.014 77.0971C182.006 76.5051 183.11 76.2091 184.326 76.2091C185.35 76.2091 186.246 76.3771 187.014 76.7131C187.798 77.0491 188.462 77.5131 189.006 78.1051C189.55 78.6971 189.966 79.3771 190.254 80.1451C190.542 80.8971 190.686 81.7131 190.686 82.5931C190.686 82.8171 190.67 83.0491 190.638 83.2891C190.622 83.5291 190.582 83.7371 190.518 83.9131H180.438V81.5131H188.742L187.254 82.6411C187.398 81.9051 187.358 81.2491 187.134 80.6731C186.926 80.0971 186.574 79.6411 186.078 79.3051C185.598 78.9691 185.014 78.8011 184.326 78.8011C183.67 78.8011 183.086 78.9691 182.574 79.3051C182.062 79.6251 181.67 80.1051 181.398 80.7451C181.142 81.3691 181.046 82.1291 181.11 83.0251C181.046 83.8251 181.15 84.5371 181.422 85.1611C181.71 85.7691 182.126 86.2411 182.67 86.5771C183.23 86.9131 183.87 87.0811 184.59 87.0811C185.31 87.0811 185.918 86.9291 186.414 86.6251C186.926 86.3211 187.326 85.9131 187.614 85.4011L190.158 86.6491C189.902 87.2731 189.502 87.8251 188.958 88.3051C188.414 88.7851 187.766 89.1611 187.014 89.4331C186.278 89.7051 185.462 89.8411 184.566 89.8411ZM197.558 89.8411C196.166 89.8411 194.95 89.5131 193.91 88.8571C192.886 88.1851 192.182 87.2811 191.798 86.1451L194.15 85.0171C194.486 85.7531 194.95 86.3291 195.542 86.7451C196.15 87.1611 196.822 87.3691 197.558 87.3691C198.134 87.3691 198.59 87.2411 198.926 86.9851C199.262 86.7291 199.43 86.3931 199.43 85.9771C199.43 85.7211 199.358 85.5131 199.214 85.3531C199.086 85.1771 198.902 85.0331 198.662 84.9211C198.438 84.7931 198.19 84.6891 197.918 84.6091L195.782 84.0091C194.678 83.6891 193.838 83.2011 193.262 82.5451C192.702 81.8891 192.422 81.1131 192.422 80.2171C192.422 79.4171 192.622 78.7211 193.022 78.1291C193.438 77.5211 194.006 77.0491 194.726 76.7131C195.462 76.3771 196.302 76.2091 197.246 76.2091C198.478 76.2091 199.566 76.5051 200.51 77.0971C201.454 77.6891 202.126 78.5211 202.526 79.5931L200.126 80.7211C199.902 80.1291 199.526 79.6571 198.998 79.3051C198.47 78.9531 197.878 78.7771 197.222 78.7771C196.694 78.7771 196.278 78.8971 195.974 79.1371C195.67 79.3771 195.518 79.6891 195.518 80.0731C195.518 80.3131 195.582 80.5211 195.71 80.6971C195.838 80.8731 196.014 81.0171 196.238 81.1291C196.478 81.2411 196.75 81.3451 197.054 81.4411L199.142 82.0651C200.214 82.3851 201.038 82.8651 201.614 83.5051C202.206 84.1451 202.502 84.9291 202.502 85.8571C202.502 86.6411 202.294 87.3371 201.878 87.9451C201.462 88.5371 200.886 89.0011 200.15 89.3371C199.414 89.6731 198.55 89.8411 197.558 89.8411ZM210.39 89.6971C208.918 89.6971 207.774 89.2971 206.958 88.4971C206.158 87.6811 205.758 86.5371 205.758 85.0651V79.3051H203.502V76.4971H203.742C204.382 76.4971 204.878 76.3291 205.23 75.9931C205.582 75.6571 205.758 75.1691 205.758 74.5291V73.5211H208.902V76.4971H211.902V79.3051H208.902V84.8971C208.902 85.3291 208.974 85.6971 209.118 86.0011C209.278 86.3051 209.518 86.5371 209.838 86.6971C210.174 86.8571 210.598 86.9371 211.11 86.9371C211.222 86.9371 211.35 86.9291 211.494 86.9131C211.654 86.8971 211.806 86.8811 211.95 86.8651V89.5531C211.726 89.5851 211.47 89.6171 211.182 89.6491C210.894 89.6811 210.63 89.6971 210.39 89.6971ZM217.785 89.8411C216.873 89.8411 216.081 89.6891 215.409 89.3851C214.737 89.0811 214.217 88.6491 213.849 88.0891C213.481 87.5131 213.297 86.8491 213.297 86.0971C213.297 85.3771 213.457 84.7371 213.777 84.1771C214.097 83.6011 214.593 83.1211 215.265 82.7371C215.937 82.3531 216.785 82.0811 217.809 81.9211L222.081 81.2251V83.6251L218.409 84.2491C217.785 84.3611 217.321 84.5611 217.017 84.8491C216.713 85.1371 216.561 85.5131 216.561 85.9771C216.561 86.4251 216.729 86.7851 217.065 87.0571C217.417 87.3131 217.849 87.4411 218.361 87.4411C219.017 87.4411 219.593 87.3051 220.089 87.0331C220.601 86.7451 220.993 86.3531 221.265 85.8571C221.553 85.3611 221.697 84.8171 221.697 84.2251V80.8651C221.697 80.3051 221.473 79.8411 221.025 79.4731C220.593 79.0891 220.017 78.8971 219.297 78.8971C218.625 78.8971 218.025 79.0811 217.497 79.4491C216.985 79.8011 216.609 80.2731 216.369 80.8651L213.801 79.6171C214.057 78.9291 214.457 78.3371 215.001 77.8411C215.561 77.3291 216.217 76.9291 216.969 76.6411C217.721 76.3531 218.537 76.2091 219.417 76.2091C220.489 76.2091 221.433 76.4091 222.249 76.8091C223.065 77.1931 223.697 77.7371 224.145 78.4411C224.609 79.1291 224.841 79.9371 224.841 80.8651V89.5531H221.865V87.3211L222.537 87.2731C222.201 87.8331 221.801 88.3051 221.337 88.6891C220.873 89.0571 220.345 89.3451 219.753 89.5531C219.161 89.7451 218.505 89.8411 217.785 89.8411ZM233.555 89.8411C232.259 89.8411 231.091 89.5451 230.051 88.9531C229.027 88.3451 228.219 87.5291 227.627 86.5051C227.035 85.4651 226.739 84.2971 226.739 83.0011C226.739 81.7051 227.035 80.5451 227.627 79.5211C228.219 78.4971 229.027 77.6891 230.051 77.0971C231.091 76.5051 232.259 76.2091 233.555 76.2091C234.483 76.2091 235.347 76.3771 236.147 76.7131C236.947 77.0331 237.635 77.4811 238.211 78.0571C238.803 78.6171 239.227 79.2891 239.483 80.0731L236.723 81.2731C236.483 80.6171 236.075 80.0891 235.499 79.6891C234.939 79.2891 234.291 79.0891 233.555 79.0891C232.867 79.0891 232.251 79.2571 231.707 79.5931C231.179 79.9291 230.763 80.3931 230.459 80.9851C230.155 81.5771 230.003 82.2571 230.003 83.0251C230.003 83.7931 230.155 84.4731 230.459 85.0651C230.763 85.6571 231.179 86.1211 231.707 86.4571C232.251 86.7931 232.867 86.9611 233.555 86.9611C234.307 86.9611 234.963 86.7611 235.523 86.3611C236.083 85.9611 236.483 85.4251 236.723 84.7531L239.483 86.0011C239.227 86.7371 238.811 87.4011 238.235 87.9931C237.659 88.5691 236.971 89.0251 236.171 89.3611C235.371 89.6811 234.499 89.8411 233.555 89.8411ZM241.388 89.5531V71.3851H244.532V83.2891L243.332 82.9291L249.476 76.4971H253.388L248.564 81.7531L253.484 89.5531H249.884L245.612 82.7851L247.484 82.4011L243.548 86.6251L244.532 84.7051V89.5531H241.388ZM255.408 84.4171V81.6571H265.608V84.4171H255.408ZM273.327 89.8411C272.319 89.8411 271.439 89.6171 270.687 89.1691C269.951 88.7211 269.383 88.0971 268.983 87.2971C268.599 86.4971 268.407 85.5611 268.407 84.4891V76.4971H271.551V84.2251C271.551 84.7691 271.655 85.2491 271.863 85.6651C272.087 86.0651 272.399 86.3851 272.799 86.6251C273.215 86.8491 273.679 86.9611 274.191 86.9611C274.703 86.9611 275.159 86.8491 275.559 86.6251C275.959 86.3851 276.271 86.0571 276.495 85.6411C276.719 85.2251 276.831 84.7291 276.831 84.1531V76.4971H279.975V89.5531H276.999V86.9851L277.263 87.4411C276.959 88.2411 276.455 88.8411 275.751 89.2411C275.063 89.6411 274.255 89.8411 273.327 89.8411ZM282.417 89.5531V76.4971H285.561V89.5531H282.417ZM282.417 75.0331V71.6731H285.561V75.0331H282.417Z" fill="#FAFAFA"/>
<g clipPath="url(#clip0_12140_57111)">
<g filter="url(#filter0_i_12140_57111)">
<rect x="322" y="73.1351" width="865" height="12" rx="6" fill="url(#paint0_linear_12140_57111)"/>
<rect width="1728" height="172" transform="matrix(0 -1 -1 0 1249 1147)" fill="url(#paint1_linear_12140_57111)"/>
<rect x="322.5" y="73.6351" width="864" height="11" rx="5.5" stroke="white" stroke-opacity="0.04"/>
</g>
<path d="M323 79.2914C323 75.9777 325.686 73.2914 329 73.2914H829V85.2914H329C325.686 85.2914 323 82.6051 323 79.2914Z" fill="#0177E5"/>
</g>
<path d="M1229.08 88.3411C1227.99 88.3411 1227 88.1491 1226.1 87.7651C1225.22 87.3651 1224.52 86.7651 1223.99 85.9651C1223.46 85.1651 1223.18 84.1651 1223.15 82.9651H1225.67C1225.7 83.8611 1226.01 84.6211 1226.58 85.2451C1227.18 85.8531 1228.01 86.1571 1229.08 86.1571C1230.1 86.1571 1230.89 85.8771 1231.43 85.3171C1231.98 84.7411 1232.25 84.0291 1232.25 83.1811C1232.25 82.1571 1231.88 81.3971 1231.14 80.9011C1230.42 80.4051 1229.54 80.1571 1228.48 80.1571H1227.23V78.0451H1228.5C1229.45 78.0451 1230.21 77.8211 1230.78 77.3731C1231.38 76.9251 1231.67 76.2931 1231.67 75.4771C1231.67 74.7891 1231.44 74.2291 1230.98 73.7971C1230.53 73.3651 1229.89 73.1491 1229.06 73.1491C1228.19 73.1491 1227.51 73.4051 1227.02 73.9171C1226.52 74.4131 1226.25 75.0371 1226.2 75.7891H1223.68C1223.71 74.8131 1223.95 73.9651 1224.4 73.2451C1224.86 72.5251 1225.5 71.9651 1226.3 71.5651C1227.1 71.1651 1228.02 70.9651 1229.06 70.9651C1230.18 70.9651 1231.11 71.1651 1231.86 71.5651C1232.63 71.9491 1233.21 72.4771 1233.59 73.1491C1233.99 73.8051 1234.19 74.5251 1234.19 75.3091C1234.19 76.2051 1233.94 76.9891 1233.45 77.6611C1232.95 78.3331 1232.29 78.7811 1231.46 79.0051C1232.42 79.2131 1233.21 79.6851 1233.83 80.4211C1234.46 81.1411 1234.77 82.0771 1234.77 83.2291C1234.77 84.1571 1234.55 85.0131 1234.12 85.7971C1233.69 86.5651 1233.05 87.1811 1232.2 87.6451C1231.35 88.1091 1230.31 88.3411 1229.08 88.3411ZM1242.91 88.3411C1241.81 88.3411 1240.87 88.1251 1240.08 87.6931C1239.3 87.2611 1238.68 86.6851 1238.23 85.9651C1237.8 85.2451 1237.54 84.4611 1237.44 83.6131H1239.82C1239.96 84.4451 1240.31 85.0851 1240.85 85.5331C1241.39 85.9811 1242.09 86.2051 1242.94 86.2051C1244.11 86.2051 1245.07 85.6611 1245.82 84.5731C1246.59 83.4691 1246.99 81.7811 1247.04 79.5091C1246.66 80.2131 1246.06 80.8131 1245.24 81.3091C1244.44 81.8051 1243.51 82.0531 1242.46 82.0531C1241.51 82.0531 1240.63 81.8291 1239.79 81.3811C1238.96 80.9331 1238.29 80.3091 1237.78 79.5091C1237.27 78.6931 1237.01 77.7331 1237.01 76.6291C1237.01 75.6531 1237.25 74.7331 1237.73 73.8691C1238.21 73.0051 1238.88 72.3091 1239.75 71.7811C1240.63 71.2371 1241.67 70.9651 1242.87 70.9651C1244.1 70.9651 1245.14 71.1971 1245.99 71.6611C1246.83 72.1251 1247.51 72.7411 1248.03 73.5091C1248.54 74.2771 1248.91 75.1411 1249.13 76.1011C1249.37 77.0611 1249.49 78.0451 1249.49 79.0531C1249.49 80.9091 1249.23 82.5331 1248.7 83.9251C1248.19 85.3171 1247.44 86.4051 1246.47 87.1891C1245.49 87.9571 1244.31 88.3411 1242.91 88.3411ZM1243.03 79.8691C1243.71 79.8691 1244.31 79.7171 1244.83 79.4131C1245.36 79.1091 1245.78 78.7091 1246.08 78.2131C1246.4 77.7011 1246.56 77.1411 1246.56 76.5331C1246.56 75.8771 1246.4 75.3011 1246.08 74.8051C1245.78 74.2931 1245.35 73.8931 1244.81 73.6051C1244.28 73.3171 1243.68 73.1731 1243.01 73.1731C1242.34 73.1731 1241.74 73.3171 1241.21 73.6051C1240.68 73.8931 1240.26 74.2931 1239.94 74.8051C1239.63 75.3011 1239.48 75.8691 1239.48 76.5091C1239.48 77.5331 1239.82 78.3491 1240.49 78.9571C1241.16 79.5651 1242.01 79.8691 1243.03 79.8691ZM1258.29 88.3411C1257.11 88.3411 1256.09 88.1331 1255.22 87.7171C1254.36 87.2851 1253.67 86.7011 1253.16 85.9651C1252.66 85.2131 1252.36 84.3651 1252.25 83.4211H1254.74C1254.9 84.2211 1255.3 84.8851 1255.94 85.4131C1256.58 85.9251 1257.37 86.1811 1258.32 86.1811C1259.02 86.1811 1259.63 86.0131 1260.14 85.6771C1260.65 85.3251 1261.05 84.8611 1261.34 84.2851C1261.63 83.7091 1261.77 83.0611 1261.77 82.3411C1261.77 81.2051 1261.45 80.3011 1260.81 79.6291C1260.17 78.9411 1259.37 78.5971 1258.39 78.5971C1257.56 78.5971 1256.85 78.7971 1256.25 79.1971C1255.66 79.5811 1255.23 80.0691 1254.96 80.6611H1252.53L1253.97 71.2531H1263.05V73.4851H1255.89L1255.03 77.9731C1255.4 77.5571 1255.9 77.2131 1256.54 76.9411C1257.2 76.6531 1257.93 76.5091 1258.75 76.5091C1259.89 76.5091 1260.86 76.7731 1261.68 77.3011C1262.49 77.8131 1263.12 78.5091 1263.55 79.3891C1264 80.2691 1264.22 81.2451 1264.22 82.3171C1264.22 83.4371 1263.98 84.4531 1263.5 85.3651C1263.02 86.2771 1262.33 87.0051 1261.44 87.5491C1260.56 88.0771 1259.51 88.3411 1258.29 88.3411ZM1273.18 88.0531V76.1491H1275.43L1275.65 77.8291C1276.03 77.2211 1276.54 76.7411 1277.16 76.3891C1277.8 76.0371 1278.54 75.8611 1279.37 75.8611C1281.26 75.8611 1282.57 76.6051 1283.31 78.0931C1283.74 77.4051 1284.31 76.8611 1285.03 76.4611C1285.77 76.0611 1286.56 75.8611 1287.41 75.8611C1288.9 75.8611 1290.07 76.3091 1290.91 77.2051C1291.76 78.1011 1292.19 79.4371 1292.19 81.2131V88.0531H1289.64V81.4771C1289.64 79.1731 1288.76 78.0211 1287 78.0211C1286.11 78.0211 1285.37 78.3571 1284.79 79.0291C1284.23 79.7011 1283.95 80.6611 1283.95 81.9091V88.0531H1281.41V81.4771C1281.41 79.1731 1280.52 78.0211 1278.75 78.0211C1277.87 78.0211 1277.14 78.3571 1276.56 79.0291C1276 79.7011 1275.72 80.6611 1275.72 81.9091V88.0531H1273.18ZM1299.91 88.3411C1298.41 88.3411 1297.17 87.9731 1296.19 87.2371C1295.22 86.5011 1294.66 85.5251 1294.51 84.3091H1297.08C1297.21 84.8531 1297.51 85.3251 1297.99 85.7251C1298.47 86.1091 1299.11 86.3011 1299.89 86.3011C1300.66 86.3011 1301.22 86.1411 1301.57 85.8211C1301.92 85.5011 1302.1 85.1331 1302.1 84.7171C1302.1 84.1091 1301.85 83.7011 1301.35 83.4931C1300.87 83.2691 1300.2 83.0691 1299.34 82.8931C1298.67 82.7491 1297.99 82.5571 1297.32 82.3171C1296.67 82.0771 1296.11 81.7411 1295.67 81.3091C1295.23 80.8611 1295.02 80.2611 1295.02 79.5091C1295.02 78.4691 1295.42 77.6051 1296.22 76.9171C1297.02 76.2131 1298.14 75.8611 1299.58 75.8611C1300.91 75.8611 1301.98 76.1811 1302.79 76.8211C1303.63 77.4611 1304.11 78.3651 1304.26 79.5331H1301.81C1301.73 79.0211 1301.49 78.6211 1301.09 78.3331C1300.71 78.0451 1300.19 77.9011 1299.53 77.9011C1298.89 77.9011 1298.39 78.0371 1298.04 78.3091C1297.69 78.5651 1297.51 78.9011 1297.51 79.3171C1297.51 79.7331 1297.75 80.0611 1298.23 80.3011C1298.73 80.5411 1299.38 80.7571 1300.18 80.9491C1300.98 81.1251 1301.71 81.3331 1302.39 81.5731C1303.07 81.7971 1303.63 82.1331 1304.04 82.5811C1304.46 83.0291 1304.67 83.6851 1304.67 84.5491C1304.68 85.6371 1304.26 86.5411 1303.39 87.2611C1302.55 87.9811 1301.39 88.3411 1299.91 88.3411Z" fill="#A3A3A3"/>
<path d="M146.024 164.659V146.779H152.672C153.888 146.779 154.96 147.003 155.888 147.451C156.832 147.883 157.568 148.523 158.096 149.371C158.624 150.203 158.888 151.219 158.888 152.419C158.888 153.651 158.592 154.699 158 155.563C157.424 156.427 156.64 157.067 155.648 157.483L159.752 164.659H156.056L151.664 156.811L153.776 158.059H149.288V164.659H146.024ZM149.288 155.179H152.72C153.312 155.179 153.824 155.067 154.256 154.843C154.688 154.603 155.024 154.275 155.264 153.859C155.504 153.443 155.624 152.963 155.624 152.419C155.624 151.859 155.504 151.379 155.264 150.979C155.024 150.563 154.688 150.243 154.256 150.019C153.824 149.779 153.312 149.659 152.72 149.659H149.288V155.179ZM166.612 164.947C165.268 164.947 164.092 164.643 163.084 164.035C162.076 163.427 161.292 162.603 160.732 161.563C160.172 160.523 159.892 159.371 159.892 158.107C159.892 156.795 160.172 155.635 160.732 154.627C161.308 153.603 162.084 152.795 163.06 152.203C164.052 151.611 165.156 151.315 166.372 151.315C167.396 151.315 168.292 151.483 169.06 151.819C169.844 152.155 170.508 152.619 171.052 153.211C171.596 153.803 172.012 154.483 172.3 155.251C172.588 156.003 172.732 156.819 172.732 157.699C172.732 157.923 172.716 158.155 172.684 158.395C172.668 158.635 172.628 158.843 172.564 159.019H162.484V156.619H170.788L169.3 157.747C169.444 157.011 169.404 156.355 169.18 155.779C168.972 155.203 168.62 154.747 168.124 154.411C167.644 154.075 167.06 153.907 166.372 153.907C165.716 153.907 165.132 154.075 164.62 154.411C164.108 154.731 163.716 155.211 163.444 155.851C163.188 156.475 163.092 157.235 163.156 158.131C163.092 158.931 163.196 159.643 163.468 160.267C163.756 160.875 164.172 161.347 164.716 161.683C165.276 162.019 165.916 162.187 166.636 162.187C167.356 162.187 167.964 162.035 168.46 161.731C168.972 161.427 169.372 161.019 169.66 160.507L172.204 161.755C171.948 162.379 171.548 162.931 171.004 163.411C170.46 163.891 169.812 164.267 169.06 164.539C168.324 164.811 167.508 164.947 166.612 164.947ZM178.549 164.947C177.637 164.947 176.845 164.795 176.173 164.491C175.501 164.187 174.981 163.755 174.613 163.195C174.245 162.619 174.061 161.955 174.061 161.203C174.061 160.483 174.221 159.843 174.541 159.283C174.861 158.707 175.357 158.227 176.029 157.843C176.701 157.459 177.549 157.187 178.573 157.027L182.845 156.331V158.731L179.173 159.355C178.549 159.467 178.085 159.667 177.781 159.955C177.477 160.243 177.325 160.619 177.325 161.083C177.325 161.531 177.493 161.891 177.829 162.163C178.181 162.419 178.613 162.547 179.125 162.547C179.781 162.547 180.357 162.411 180.853 162.139C181.365 161.851 181.757 161.459 182.029 160.963C182.317 160.467 182.461 159.923 182.461 159.331V155.971C182.461 155.411 182.237 154.947 181.789 154.579C181.357 154.195 180.781 154.003 180.061 154.003C179.389 154.003 178.789 154.187 178.261 154.555C177.749 154.907 177.373 155.379 177.133 155.971L174.565 154.723C174.821 154.035 175.221 153.443 175.765 152.947C176.325 152.435 176.981 152.035 177.733 151.747C178.485 151.459 179.301 151.315 180.181 151.315C181.253 151.315 182.197 151.515 183.013 151.915C183.829 152.299 184.461 152.843 184.909 153.547C185.373 154.235 185.605 155.043 185.605 155.971V164.659H182.629V162.427L183.301 162.379C182.965 162.939 182.565 163.411 182.101 163.795C181.637 164.163 181.109 164.451 180.517 164.659C179.925 164.851 179.269 164.947 178.549 164.947ZM194.319 164.947C193.023 164.947 191.855 164.651 190.815 164.059C189.791 163.451 188.983 162.635 188.391 161.611C187.799 160.571 187.503 159.403 187.503 158.107C187.503 156.811 187.799 155.651 188.391 154.627C188.983 153.603 189.791 152.795 190.815 152.203C191.855 151.611 193.023 151.315 194.319 151.315C195.247 151.315 196.111 151.483 196.911 151.819C197.711 152.139 198.399 152.587 198.975 153.163C199.567 153.723 199.991 154.395 200.247 155.179L197.487 156.379C197.247 155.723 196.839 155.195 196.263 154.795C195.703 154.395 195.055 154.195 194.319 154.195C193.631 154.195 193.015 154.363 192.471 154.699C191.943 155.035 191.527 155.499 191.223 156.091C190.919 156.683 190.767 157.363 190.767 158.131C190.767 158.899 190.919 159.579 191.223 160.171C191.527 160.763 191.943 161.227 192.471 161.563C193.015 161.899 193.631 162.067 194.319 162.067C195.071 162.067 195.727 161.867 196.287 161.467C196.847 161.067 197.247 160.531 197.487 159.859L200.247 161.107C199.991 161.843 199.575 162.507 198.999 163.099C198.423 163.675 197.735 164.131 196.935 164.467C196.135 164.787 195.263 164.947 194.319 164.947ZM208.104 164.803C206.632 164.803 205.488 164.403 204.672 163.603C203.872 162.787 203.472 161.643 203.472 160.171V154.411H201.216V151.603H201.456C202.096 151.603 202.592 151.435 202.944 151.099C203.296 150.763 203.472 150.275 203.472 149.635V148.627H206.616V151.603H209.616V154.411H206.616V160.003C206.616 160.435 206.688 160.803 206.832 161.107C206.992 161.411 207.232 161.643 207.552 161.803C207.888 161.963 208.312 162.043 208.824 162.043C208.936 162.043 209.064 162.035 209.208 162.019C209.368 162.003 209.52 161.987 209.664 161.971V164.659C209.44 164.691 209.184 164.723 208.896 164.755C208.608 164.787 208.344 164.803 208.104 164.803ZM215.636 164.659V146.779H218.18L228.02 160.027L226.7 160.291V146.779H229.964V164.659H227.396L217.7 151.315L218.9 151.051V164.659H215.636ZM236.641 164.947C235.729 164.947 234.937 164.795 234.265 164.491C233.593 164.187 233.073 163.755 232.705 163.195C232.337 162.619 232.153 161.955 232.153 161.203C232.153 160.483 232.313 159.843 232.633 159.283C232.953 158.707 233.449 158.227 234.121 157.843C234.793 157.459 235.641 157.187 236.665 157.027L240.937 156.331V158.731L237.265 159.355C236.641 159.467 236.177 159.667 235.873 159.955C235.569 160.243 235.417 160.619 235.417 161.083C235.417 161.531 235.585 161.891 235.921 162.163C236.273 162.419 236.705 162.547 237.217 162.547C237.873 162.547 238.449 162.411 238.945 162.139C239.457 161.851 239.849 161.459 240.121 160.963C240.409 160.467 240.553 159.923 240.553 159.331V155.971C240.553 155.411 240.329 154.947 239.881 154.579C239.449 154.195 238.873 154.003 238.153 154.003C237.481 154.003 236.881 154.187 236.353 154.555C235.841 154.907 235.465 155.379 235.225 155.971L232.657 154.723C232.913 154.035 233.313 153.443 233.857 152.947C234.417 152.435 235.073 152.035 235.825 151.747C236.577 151.459 237.393 151.315 238.273 151.315C239.345 151.315 240.289 151.515 241.105 151.915C241.921 152.299 242.553 152.843 243.001 153.547C243.465 154.235 243.697 155.043 243.697 155.971V164.659H240.721V162.427L241.393 162.379C241.057 162.939 240.657 163.411 240.193 163.795C239.729 164.163 239.201 164.451 238.609 164.659C238.017 164.851 237.361 164.947 236.641 164.947ZM251.84 164.803C250.368 164.803 249.224 164.403 248.408 163.603C247.608 162.787 247.208 161.643 247.208 160.171V154.411H244.952V151.603H245.192C245.832 151.603 246.328 151.435 246.68 151.099C247.032 150.763 247.208 150.275 247.208 149.635V148.627H250.352V151.603H253.352V154.411H250.352V160.003C250.352 160.435 250.424 160.803 250.568 161.107C250.728 161.411 250.968 161.643 251.288 161.803C251.624 161.963 252.048 162.043 252.56 162.043C252.672 162.043 252.8 162.035 252.944 162.019C253.104 162.003 253.256 161.987 253.4 161.971V164.659C253.176 164.691 252.92 164.723 252.632 164.755C252.344 164.787 252.08 164.803 251.84 164.803ZM255.322 164.659V151.603H258.466V164.659H255.322ZM255.322 150.139V146.779H258.466V150.139H255.322ZM264.825 164.659L259.689 151.603H263.121L266.841 161.875H265.569L269.313 151.603H272.745L267.609 164.659H264.825ZM279.961 164.947C278.617 164.947 277.441 164.643 276.433 164.035C275.425 163.427 274.641 162.603 274.081 161.563C273.521 160.523 273.241 159.371 273.241 158.107C273.241 156.795 273.521 155.635 274.081 154.627C274.657 153.603 275.433 152.795 276.409 152.203C277.401 151.611 278.505 151.315 279.721 151.315C280.745 151.315 281.641 151.483 282.409 151.819C283.193 152.155 283.857 152.619 284.401 153.211C284.945 153.803 285.361 154.483 285.649 155.251C285.937 156.003 286.081 156.819 286.081 157.699C286.081 157.923 286.065 158.155 286.033 158.395C286.017 158.635 285.977 158.843 285.913 159.019H275.833V156.619H284.137L282.649 157.747C282.793 157.011 282.753 156.355 282.529 155.779C282.321 155.203 281.969 154.747 281.473 154.411C280.993 154.075 280.409 153.907 279.721 153.907C279.065 153.907 278.481 154.075 277.969 154.411C277.457 154.731 277.065 155.211 276.793 155.851C276.537 156.475 276.441 157.235 276.505 158.131C276.441 158.931 276.545 159.643 276.817 160.267C277.105 160.875 277.521 161.347 278.065 161.683C278.625 162.019 279.265 162.187 279.985 162.187C280.705 162.187 281.313 162.035 281.809 161.731C282.321 161.427 282.721 161.019 283.009 160.507L285.553 161.755C285.297 162.379 284.897 162.931 284.353 163.411C283.809 163.891 283.161 164.267 282.409 164.539C281.673 164.811 280.857 164.947 279.961 164.947Z" fill="#FAFAFA"/>
<g clipPath="url(#clip1_12140_57111)">
<g filter="url(#filter1_i_12140_57111)">
<rect x="322" y="148.132" width="865" height="12" rx="6" fill="url(#paint2_linear_12140_57111)"/>
<rect width="1728" height="172" transform="matrix(0 -1 -1 0 1249 1222)" fill="url(#paint3_linear_12140_57111)"/>
<rect x="322.5" y="148.632" width="864" height="11" rx="5.5" stroke="white" stroke-opacity="0.04"/>
</g>
<path d="M323 154.398C323 151.084 325.686 148.398 329 148.398H569V160.398H329C325.686 160.398 323 157.711 323 154.398Z" fill="#61DAFB"/>
</g>
<path d="M1225.43 163.159V149.239L1222.72 149.863V147.991L1226.44 146.359H1228.07V163.159H1225.43ZM1237.13 163.447C1236.02 163.447 1235.08 163.231 1234.29 162.799C1233.51 162.367 1232.89 161.791 1232.45 161.071C1232.01 160.351 1231.75 159.567 1231.65 158.719H1234.03C1234.17 159.551 1234.52 160.191 1235.06 160.639C1235.61 161.087 1236.3 161.311 1237.15 161.311C1238.32 161.311 1239.28 160.767 1240.03 159.679C1240.8 158.575 1241.21 156.887 1241.25 154.615C1240.87 155.319 1240.27 155.919 1239.45 156.415C1238.65 156.911 1237.73 157.159 1236.67 157.159C1235.73 157.159 1234.84 156.935 1234.01 156.487C1233.17 156.039 1232.5 155.415 1231.99 154.615C1231.48 153.799 1231.22 152.839 1231.22 151.735C1231.22 150.759 1231.46 149.839 1231.94 148.975C1232.42 148.111 1233.09 147.415 1233.96 146.887C1234.84 146.343 1235.88 146.071 1237.08 146.071C1238.31 146.071 1239.35 146.303 1240.2 146.767C1241.05 147.231 1241.73 147.847 1242.24 148.615C1242.75 149.383 1243.12 150.247 1243.34 151.207C1243.58 152.167 1243.7 153.151 1243.7 154.159C1243.7 156.015 1243.44 157.639 1242.91 159.031C1242.4 160.423 1241.65 161.511 1240.68 162.295C1239.7 163.063 1238.52 163.447 1237.13 163.447ZM1237.25 154.975C1237.92 154.975 1238.52 154.823 1239.05 154.519C1239.57 154.215 1239.99 153.815 1240.29 153.319C1240.61 152.807 1240.77 152.247 1240.77 151.639C1240.77 150.983 1240.61 150.407 1240.29 149.911C1239.99 149.399 1239.57 148.999 1239.02 148.711C1238.49 148.423 1237.89 148.279 1237.22 148.279C1236.55 148.279 1235.95 148.423 1235.42 148.711C1234.89 148.999 1234.47 149.399 1234.15 149.911C1233.85 150.407 1233.69 150.975 1233.69 151.615C1233.69 152.639 1234.03 153.455 1234.7 154.063C1235.37 154.671 1236.22 154.975 1237.25 154.975ZM1252.51 163.447C1251.32 163.447 1250.3 163.239 1249.43 162.823C1248.57 162.391 1247.88 161.807 1247.37 161.071C1246.87 160.319 1246.57 159.471 1246.46 158.527H1248.95C1249.11 159.327 1249.51 159.991 1250.15 160.519C1250.79 161.031 1251.59 161.287 1252.53 161.287C1253.23 161.287 1253.84 161.119 1254.35 160.783C1254.87 160.431 1255.27 159.967 1255.55 159.391C1255.84 158.815 1255.99 158.167 1255.99 157.447C1255.99 156.311 1255.67 155.407 1255.03 154.735C1254.39 154.047 1253.58 153.703 1252.6 153.703C1251.77 153.703 1251.06 153.903 1250.47 154.303C1249.87 154.687 1249.44 155.175 1249.17 155.767H1246.75L1248.19 146.359H1257.26V148.591H1250.11L1249.24 153.079C1249.61 152.663 1250.11 152.319 1250.75 152.047C1251.41 151.759 1252.15 151.615 1252.96 151.615C1254.1 151.615 1255.07 151.879 1255.89 152.407C1256.71 152.919 1257.33 153.615 1257.76 154.495C1258.21 155.375 1258.43 156.351 1258.43 157.423C1258.43 158.543 1258.19 159.559 1257.71 160.471C1257.23 161.383 1256.55 162.111 1255.65 162.655C1254.77 163.183 1253.72 163.447 1252.51 163.447ZM1267.39 163.159V151.255H1269.65L1269.86 152.935C1270.25 152.327 1270.75 151.847 1271.37 151.495C1272.01 151.143 1272.75 150.967 1273.58 150.967C1275.47 150.967 1276.78 151.711 1277.52 153.199C1277.95 152.511 1278.53 151.967 1279.25 151.567C1279.98 151.167 1280.77 150.967 1281.62 150.967C1283.11 150.967 1284.28 151.415 1285.13 152.311C1285.97 153.207 1286.4 154.543 1286.4 156.319V163.159H1283.85V156.583C1283.85 154.279 1282.97 153.127 1281.21 153.127C1280.32 153.127 1279.58 153.463 1279.01 154.135C1278.45 154.807 1278.17 155.767 1278.17 157.015V163.159H1275.62V156.583C1275.62 154.279 1274.73 153.127 1272.96 153.127C1272.08 153.127 1271.35 153.463 1270.77 154.135C1270.21 154.807 1269.93 155.767 1269.93 157.015V163.159H1267.39ZM1294.13 163.447C1292.62 163.447 1291.38 163.079 1290.41 162.343C1289.43 161.607 1288.87 160.631 1288.73 159.415H1291.29C1291.42 159.959 1291.73 160.431 1292.21 160.831C1292.69 161.215 1293.32 161.407 1294.1 161.407C1294.87 161.407 1295.43 161.247 1295.78 160.927C1296.13 160.607 1296.31 160.239 1296.31 159.823C1296.31 159.215 1296.06 158.807 1295.57 158.599C1295.09 158.375 1294.41 158.175 1293.55 157.999C1292.88 157.855 1292.21 157.663 1291.53 157.423C1290.88 157.183 1290.33 156.847 1289.88 156.415C1289.45 155.967 1289.23 155.367 1289.23 154.615C1289.23 153.575 1289.63 152.711 1290.43 152.023C1291.23 151.319 1292.35 150.967 1293.79 150.967C1295.12 150.967 1296.19 151.287 1297.01 151.927C1297.84 152.567 1298.33 153.471 1298.47 154.639H1296.02C1295.94 154.127 1295.7 153.727 1295.3 153.439C1294.92 153.151 1294.4 153.007 1293.74 153.007C1293.1 153.007 1292.61 153.143 1292.25 153.415C1291.9 153.671 1291.73 154.007 1291.73 154.423C1291.73 154.839 1291.97 155.167 1292.45 155.407C1292.94 155.647 1293.59 155.863 1294.39 156.055C1295.19 156.231 1295.93 156.439 1296.6 156.679C1297.29 156.903 1297.84 157.239 1298.25 157.687C1298.67 158.135 1298.88 158.791 1298.88 159.655C1298.89 160.743 1298.47 161.647 1297.61 162.367C1296.76 163.087 1295.6 163.447 1294.13 163.447Z" fill="#A3A3A3"/>
<path d="M197.253 239.766V224.766H192.621V221.886H205.101V224.766H200.541V239.766H197.253ZM208.879 240.054C207.967 240.054 207.175 239.902 206.503 239.598C205.831 239.294 205.311 238.862 204.943 238.302C204.575 237.726 204.391 237.062 204.391 236.31C204.391 235.59 204.551 234.95 204.871 234.39C205.191 233.814 205.687 233.334 206.359 232.95C207.031 232.566 207.879 232.294 208.903 232.134L213.175 231.438V233.838L209.503 234.462C208.879 234.574 208.415 234.774 208.111 235.062C207.807 235.35 207.655 235.726 207.655 236.19C207.655 236.638 207.823 236.998 208.159 237.27C208.511 237.526 208.943 237.654 209.455 237.654C210.111 237.654 210.687 237.518 211.183 237.246C211.695 236.958 212.087 236.566 212.359 236.07C212.647 235.574 212.791 235.03 212.791 234.438V231.078C212.791 230.518 212.567 230.054 212.119 229.686C211.687 229.302 211.111 229.11 210.391 229.11C209.719 229.11 209.119 229.294 208.591 229.662C208.079 230.014 207.703 230.486 207.463 231.078L204.895 229.83C205.151 229.142 205.551 228.55 206.095 228.054C206.655 227.542 207.311 227.142 208.063 226.854C208.815 226.566 209.631 226.422 210.511 226.422C211.583 226.422 212.527 226.622 213.343 227.022C214.159 227.406 214.791 227.95 215.239 228.654C215.703 229.342 215.935 230.15 215.935 231.078V239.766H212.959V237.534L213.631 237.486C213.295 238.046 212.895 238.518 212.431 238.902C211.967 239.27 211.439 239.558 210.847 239.766C210.255 239.958 209.599 240.054 208.879 240.054ZM218.361 239.766V226.71H221.313V229.734L220.977 229.23C221.217 228.286 221.697 227.582 222.417 227.118C223.137 226.654 223.985 226.422 224.961 226.422C226.033 226.422 226.977 226.702 227.793 227.262C228.609 227.822 229.137 228.558 229.377 229.47L228.489 229.542C228.889 228.502 229.489 227.726 230.289 227.214C231.089 226.686 232.009 226.422 233.049 226.422C233.977 226.422 234.801 226.63 235.521 227.046C236.257 227.462 236.833 228.046 237.249 228.798C237.665 229.534 237.873 230.39 237.873 231.366V239.766H234.729V232.11C234.729 231.534 234.625 231.038 234.417 230.622C234.209 230.206 233.921 229.886 233.553 229.662C233.185 229.422 232.737 229.302 232.209 229.302C231.713 229.302 231.273 229.422 230.889 229.662C230.505 229.886 230.209 230.206 230.001 230.622C229.793 231.038 229.689 231.534 229.689 232.11V239.766H226.545V232.11C226.545 231.534 226.441 231.038 226.233 230.622C226.025 230.206 225.729 229.886 225.345 229.662C224.977 229.422 224.537 229.302 224.025 229.302C223.529 229.302 223.089 229.422 222.705 229.662C222.321 229.886 222.025 230.206 221.817 230.622C221.609 231.038 221.505 231.534 221.505 232.11V239.766H218.361ZM244.012 240.054C243.1 240.054 242.308 239.902 241.636 239.598C240.964 239.294 240.444 238.862 240.076 238.302C239.708 237.726 239.524 237.062 239.524 236.31C239.524 235.59 239.684 234.95 240.004 234.39C240.324 233.814 240.82 233.334 241.492 232.95C242.164 232.566 243.012 232.294 244.036 232.134L248.308 231.438V233.838L244.636 234.462C244.012 234.574 243.548 234.774 243.244 235.062C242.94 235.35 242.788 235.726 242.788 236.19C242.788 236.638 242.956 236.998 243.292 237.27C243.644 237.526 244.076 237.654 244.588 237.654C245.244 237.654 245.82 237.518 246.316 237.246C246.828 236.958 247.22 236.566 247.492 236.07C247.78 235.574 247.924 235.03 247.924 234.438V231.078C247.924 230.518 247.7 230.054 247.252 229.686C246.82 229.302 246.244 229.11 245.524 229.11C244.852 229.11 244.252 229.294 243.724 229.662C243.212 230.014 242.836 230.486 242.596 231.078L240.028 229.83C240.284 229.142 240.684 228.55 241.228 228.054C241.788 227.542 242.444 227.142 243.196 226.854C243.948 226.566 244.764 226.422 245.644 226.422C246.716 226.422 247.66 226.622 248.476 227.022C249.292 227.406 249.924 227.95 250.372 228.654C250.836 229.342 251.068 230.15 251.068 231.078V239.766H248.092V237.534L248.764 237.486C248.428 238.046 248.028 238.518 247.564 238.902C247.1 239.27 246.572 239.558 245.98 239.766C245.388 239.958 244.732 240.054 244.012 240.054ZM259.83 245.046C258.854 245.046 257.95 244.886 257.118 244.566C256.286 244.246 255.566 243.798 254.958 243.222C254.366 242.662 253.934 241.998 253.662 241.23L256.59 240.126C256.782 240.734 257.158 241.222 257.718 241.59C258.294 241.974 258.998 242.166 259.83 242.166C260.47 242.166 261.03 242.046 261.51 241.806C262.006 241.566 262.39 241.214 262.662 240.75C262.934 240.302 263.07 239.758 263.07 239.118V236.142L263.67 236.862C263.222 237.646 262.622 238.238 261.87 238.638C261.118 239.038 260.262 239.238 259.302 239.238C258.086 239.238 256.998 238.958 256.038 238.398C255.078 237.838 254.326 237.07 253.782 236.094C253.238 235.118 252.966 234.022 252.966 232.806C252.966 231.574 253.238 230.478 253.782 229.518C254.326 228.558 255.07 227.806 256.014 227.262C256.958 226.702 258.03 226.422 259.23 226.422C260.206 226.422 261.062 226.63 261.798 227.046C262.55 227.446 263.174 228.03 263.67 228.798L263.238 229.59V226.71H266.214V239.118C266.214 240.254 265.934 241.27 265.374 242.166C264.83 243.062 264.078 243.766 263.118 244.278C262.174 244.79 261.078 245.046 259.83 245.046ZM259.686 236.334C260.358 236.334 260.942 236.19 261.438 235.902C261.95 235.598 262.35 235.182 262.638 234.654C262.926 234.126 263.07 233.518 263.07 232.83C263.07 232.158 262.918 231.558 262.614 231.03C262.326 230.486 261.926 230.062 261.414 229.758C260.918 229.454 260.342 229.302 259.686 229.302C259.03 229.302 258.438 229.454 257.91 229.758C257.382 230.062 256.966 230.486 256.662 231.03C256.374 231.558 256.23 232.158 256.23 232.83C256.23 233.502 256.374 234.102 256.662 234.63C256.966 235.158 257.374 235.574 257.886 235.878C258.414 236.182 259.014 236.334 259.686 236.334ZM273.327 240.054C272.319 240.054 271.439 239.83 270.687 239.382C269.951 238.934 269.383 238.31 268.983 237.51C268.599 236.71 268.407 235.774 268.407 234.702V226.71H271.551V234.438C271.551 234.982 271.655 235.462 271.863 235.878C272.087 236.278 272.399 236.598 272.799 236.838C273.215 237.062 273.679 237.174 274.191 237.174C274.703 237.174 275.159 237.062 275.559 236.838C275.959 236.598 276.271 236.27 276.495 235.854C276.719 235.438 276.831 234.942 276.831 234.366V226.71H279.975V239.766H276.999V237.198L277.263 237.654C276.959 238.454 276.455 239.054 275.751 239.454C275.063 239.854 274.255 240.054 273.327 240.054ZM282.417 239.766V226.71H285.561V239.766H282.417ZM282.417 225.246V221.886H285.561V225.246H282.417Z" fill="#FAFAFA"/>
<g clipPath="url(#clip2_12140_57111)">
<g filter="url(#filter2_i_12140_57111)">
<rect x="322" y="223.137" width="865" height="12" rx="6" fill="url(#paint4_linear_12140_57111)"/>
<rect width="1728" height="172" transform="matrix(0 -1 -1 0 1249 1297)" fill="url(#paint5_linear_12140_57111)"/>
<rect x="322.5" y="223.637" width="864" height="11" rx="5.5" stroke="white" stroke-opacity="0.04"/>
</g>
<path d="M323 229.504C323 226.19 325.686 223.504 329 223.504H969V235.504H329C325.686 235.504 323 232.817 323 229.504Z" fill="#D6409F"/>
</g>
<path d="M1229.56 238.554C1228.38 238.554 1227.35 238.346 1226.49 237.93C1225.62 237.498 1224.94 236.914 1224.42 236.178C1223.93 235.426 1223.62 234.578 1223.51 233.634H1226.01C1226.17 234.434 1226.57 235.098 1227.21 235.626C1227.85 236.138 1228.64 236.394 1229.58 236.394C1230.29 236.394 1230.9 236.226 1231.41 235.89C1231.92 235.538 1232.32 235.074 1232.61 234.498C1232.9 233.922 1233.04 233.274 1233.04 232.554C1233.04 231.418 1232.72 230.514 1232.08 229.842C1231.44 229.154 1230.63 228.81 1229.66 228.81C1228.82 228.81 1228.11 229.01 1227.52 229.41C1226.93 229.794 1226.5 230.282 1226.22 230.874H1223.8L1225.24 221.466H1234.31V223.698H1227.16L1226.3 228.186C1226.66 227.77 1227.17 227.426 1227.81 227.154C1228.46 226.866 1229.2 226.722 1230.02 226.722C1231.15 226.722 1232.13 226.986 1232.94 227.514C1233.76 228.026 1234.38 228.722 1234.82 229.602C1235.26 230.482 1235.49 231.458 1235.49 232.53C1235.49 233.65 1235.25 234.666 1234.77 235.578C1234.29 236.49 1233.6 237.218 1232.7 237.762C1231.82 238.29 1230.78 238.554 1229.56 238.554ZM1243.87 238.554C1242.78 238.554 1241.79 238.362 1240.89 237.978C1240.01 237.578 1239.31 236.978 1238.78 236.178C1238.25 235.378 1237.97 234.378 1237.94 233.178H1240.46C1240.49 234.074 1240.8 234.834 1241.37 235.458C1241.97 236.066 1242.8 236.37 1243.87 236.37C1244.89 236.37 1245.68 236.09 1246.22 235.53C1246.77 234.954 1247.04 234.242 1247.04 233.394C1247.04 232.37 1246.67 231.61 1245.93 231.114C1245.21 230.618 1244.33 230.37 1243.27 230.37H1242.02V228.258H1243.29C1244.24 228.258 1245 228.034 1245.57 227.586C1246.17 227.138 1246.46 226.506 1246.46 225.69C1246.46 225.002 1246.23 224.442 1245.77 224.01C1245.32 223.578 1244.68 223.362 1243.85 223.362C1242.98 223.362 1242.3 223.618 1241.81 224.13C1241.31 224.626 1241.04 225.25 1240.99 226.002H1238.47C1238.5 225.026 1238.74 224.178 1239.19 223.458C1239.65 222.738 1240.29 222.178 1241.09 221.778C1241.89 221.378 1242.81 221.178 1243.85 221.178C1244.97 221.178 1245.9 221.378 1246.65 221.778C1247.42 222.162 1248 222.69 1248.38 223.362C1248.78 224.018 1248.98 224.738 1248.98 225.522C1248.98 226.418 1248.73 227.202 1248.24 227.874C1247.74 228.546 1247.08 228.994 1246.25 229.218C1247.21 229.426 1248 229.898 1248.62 230.634C1249.25 231.354 1249.56 232.29 1249.56 233.442C1249.56 234.37 1249.34 235.226 1248.91 236.01C1248.48 236.778 1247.84 237.394 1246.99 237.858C1246.14 238.322 1245.1 238.554 1243.87 238.554ZM1258.07 238.554C1256.98 238.554 1255.99 238.362 1255.1 237.978C1254.22 237.578 1253.51 236.978 1252.98 236.178C1252.46 235.378 1252.18 234.378 1252.14 233.178H1254.66C1254.7 234.074 1255 234.834 1255.58 235.458C1256.17 236.066 1257 236.37 1258.07 236.37C1259.1 236.37 1259.88 236.09 1260.42 235.53C1260.97 234.954 1261.24 234.242 1261.24 233.394C1261.24 232.37 1260.87 231.61 1260.14 231.114C1259.42 230.618 1258.53 230.37 1257.47 230.37H1256.22V228.258H1257.5C1258.44 228.258 1259.2 228.034 1259.78 227.586C1260.37 227.138 1260.66 226.506 1260.66 225.69C1260.66 225.002 1260.43 224.442 1259.97 224.01C1259.52 223.578 1258.88 223.362 1258.05 223.362C1257.18 223.362 1256.5 223.618 1256.01 224.13C1255.51 224.626 1255.24 225.25 1255.19 226.002H1252.67C1252.7 225.026 1252.94 224.178 1253.39 223.458C1253.86 222.738 1254.49 222.178 1255.29 221.778C1256.09 221.378 1257.01 221.178 1258.05 221.178C1259.17 221.178 1260.1 221.378 1260.86 221.778C1261.62 222.162 1262.2 222.69 1262.58 223.362C1262.98 224.018 1263.18 224.738 1263.18 225.522C1263.18 226.418 1262.94 227.202 1262.44 227.874C1261.94 228.546 1261.28 228.994 1260.45 229.218C1261.41 229.426 1262.2 229.898 1262.82 230.634C1263.45 231.354 1263.76 232.29 1263.76 233.442C1263.76 234.37 1263.54 235.226 1263.11 236.01C1262.68 236.778 1262.04 237.394 1261.19 237.858C1260.34 238.322 1259.3 238.554 1258.07 238.554ZM1272.85 238.266V226.362H1275.11L1275.32 228.042C1275.71 227.434 1276.21 226.954 1276.83 226.602C1277.47 226.25 1278.21 226.074 1279.04 226.074C1280.93 226.074 1282.24 226.818 1282.98 228.306C1283.41 227.618 1283.99 227.074 1284.71 226.674C1285.44 226.274 1286.23 226.074 1287.08 226.074C1288.57 226.074 1289.74 226.522 1290.59 227.418C1291.43 228.314 1291.86 229.65 1291.86 231.426V238.266H1289.31V231.69C1289.31 229.386 1288.43 228.234 1286.67 228.234C1285.78 228.234 1285.04 228.57 1284.47 229.242C1283.91 229.914 1283.63 230.874 1283.63 232.122V238.266H1281.08V231.69C1281.08 229.386 1280.19 228.234 1278.42 228.234C1277.54 228.234 1276.81 228.57 1276.23 229.242C1275.67 229.914 1275.39 230.874 1275.39 232.122V238.266H1272.85ZM1299.59 238.554C1298.08 238.554 1296.84 238.186 1295.87 237.45C1294.89 236.714 1294.33 235.738 1294.19 234.522H1296.75C1296.88 235.066 1297.19 235.538 1297.67 235.938C1298.15 236.322 1298.78 236.514 1299.56 236.514C1300.33 236.514 1300.89 236.354 1301.24 236.034C1301.59 235.714 1301.77 235.346 1301.77 234.93C1301.77 234.322 1301.52 233.914 1301.03 233.706C1300.55 233.482 1299.87 233.282 1299.01 233.106C1298.34 232.962 1297.67 232.77 1296.99 232.53C1296.34 232.29 1295.79 231.954 1295.34 231.522C1294.91 231.074 1294.69 230.474 1294.69 229.722C1294.69 228.682 1295.09 227.818 1295.89 227.13C1296.69 226.426 1297.81 226.074 1299.25 226.074C1300.58 226.074 1301.65 226.394 1302.47 227.034C1303.3 227.674 1303.79 228.578 1303.93 229.746H1301.48C1301.4 229.234 1301.16 228.834 1300.76 228.546C1300.38 228.258 1299.86 228.114 1299.2 228.114C1298.56 228.114 1298.07 228.25 1297.71 228.522C1297.36 228.778 1297.19 229.114 1297.19 229.53C1297.19 229.946 1297.43 230.274 1297.91 230.514C1298.4 230.754 1299.05 230.97 1299.85 231.162C1300.65 231.338 1301.39 231.546 1302.06 231.786C1302.75 232.01 1303.3 232.346 1303.71 232.794C1304.13 233.242 1304.34 233.898 1304.34 234.762C1304.35 235.85 1303.93 236.754 1303.07 237.474C1302.22 238.194 1301.06 238.554 1299.59 238.554Z" fill="#A3A3A3"/>
<path d="M68.792 315.16C67.656 315.16 66.6 314.952 65.624 314.536C64.664 314.12 63.832 313.544 63.128 312.808C62.44 312.056 61.936 311.184 61.616 310.192L64.328 309.016C64.76 310.04 65.384 310.848 66.2 311.44C67.016 312.016 67.936 312.304 68.96 312.304C69.536 312.304 70.032 312.216 70.448 312.04C70.88 311.848 71.208 311.592 71.432 311.272C71.672 310.952 71.792 310.568 71.792 310.12C71.792 309.592 71.632 309.16 71.312 308.824C71.008 308.472 70.544 308.2 69.92 308.008L66.488 306.904C65.096 306.472 64.048 305.824 63.344 304.96C62.64 304.096 62.288 303.08 62.288 301.912C62.288 300.888 62.536 299.984 63.032 299.2C63.544 298.416 64.248 297.808 65.144 297.376C66.056 296.928 67.096 296.704 68.264 296.704C69.336 296.704 70.32 296.896 71.216 297.28C72.112 297.648 72.88 298.168 73.52 298.84C74.176 299.496 74.664 300.272 74.984 301.168L72.296 302.368C71.944 301.472 71.416 300.784 70.712 300.304C70.008 299.808 69.192 299.56 68.264 299.56C67.72 299.56 67.24 299.656 66.824 299.848C66.408 300.024 66.08 300.28 65.84 300.616C65.616 300.936 65.504 301.32 65.504 301.768C65.504 302.264 65.664 302.704 65.984 303.088C66.304 303.456 66.792 303.744 67.448 303.952L70.736 304.984C72.16 305.448 73.224 306.088 73.928 306.904C74.648 307.72 75.008 308.728 75.008 309.928C75.008 310.952 74.744 311.856 74.216 312.64C73.688 313.424 72.96 314.04 72.032 314.488C71.104 314.936 70.024 315.16 68.792 315.16ZM83.1551 315.016C81.6831 315.016 80.5391 314.616 79.7231 313.816C78.9231 313 78.5231 311.856 78.5231 310.384V304.624H76.2671V301.816H76.5071C77.1471 301.816 77.6431 301.648 77.9951 301.312C78.3471 300.976 78.5231 300.488 78.5231 299.848V298.84H81.6671V301.816H84.6671V304.624H81.6671V310.216C81.6671 310.648 81.7391 311.016 81.8831 311.32C82.0431 311.624 82.2831 311.856 82.6031 312.016C82.9391 312.176 83.3631 312.256 83.8751 312.256C83.9871 312.256 84.1151 312.248 84.2591 312.232C84.4191 312.216 84.5711 312.2 84.7151 312.184V314.872C84.4911 314.904 84.2351 314.936 83.9471 314.968C83.6591 315 83.3951 315.016 83.1551 315.016ZM88.2211 320.152C87.8691 320.152 87.5251 320.12 87.1891 320.056C86.8531 320.008 86.5491 319.912 86.2771 319.768V317.152C86.4851 317.2 86.7331 317.248 87.0211 317.296C87.3251 317.344 87.6051 317.368 87.8611 317.368C88.5811 317.368 89.1011 317.2 89.4211 316.864C89.7571 316.544 90.0531 316.112 90.3091 315.568L91.1731 313.552L91.1251 316.192L85.4371 301.816H88.8211L92.8051 312.424H91.6051L95.5651 301.816H98.9731L93.2851 316.192C92.9491 317.024 92.5411 317.736 92.0611 318.328C91.5811 318.92 91.0211 319.368 90.3811 319.672C89.7571 319.992 89.0371 320.152 88.2211 320.152ZM100.22 314.872V296.704H103.364V314.872H100.22ZM111.978 315.16C110.634 315.16 109.458 314.856 108.45 314.248C107.442 313.64 106.658 312.816 106.098 311.776C105.538 310.736 105.258 309.584 105.258 308.32C105.258 307.008 105.538 305.848 106.098 304.84C106.674 303.816 107.45 303.008 108.426 302.416C109.418 301.824 110.522 301.528 111.738 301.528C112.762 301.528 113.658 301.696 114.426 302.032C115.21 302.368 115.874 302.832 116.418 303.424C116.962 304.016 117.378 304.696 117.666 305.464C117.954 306.216 118.098 307.032 118.098 307.912C118.098 308.136 118.082 308.368 118.05 308.608C118.034 308.848 117.994 309.056 117.93 309.232H107.85V306.832H116.154L114.666 307.96C114.81 307.224 114.77 306.568 114.546 305.992C114.338 305.416 113.986 304.96 113.49 304.624C113.01 304.288 112.426 304.12 111.738 304.12C111.082 304.12 110.498 304.288 109.986 304.624C109.474 304.944 109.082 305.424 108.81 306.064C108.554 306.688 108.458 307.448 108.522 308.344C108.458 309.144 108.562 309.856 108.834 310.48C109.122 311.088 109.538 311.56 110.082 311.896C110.642 312.232 111.282 312.4 112.002 312.4C112.722 312.4 113.33 312.248 113.826 311.944C114.338 311.64 114.738 311.232 115.026 310.72L117.57 311.968C117.314 312.592 116.914 313.144 116.37 313.624C115.826 314.104 115.178 314.48 114.426 314.752C113.69 315.024 112.874 315.16 111.978 315.16ZM126.074 315.16C124.81 315.16 123.682 314.864 122.69 314.272C121.698 313.664 120.914 312.84 120.338 311.8C119.762 310.76 119.474 309.608 119.474 308.344C119.474 307.064 119.762 305.912 120.338 304.888C120.914 303.864 121.698 303.048 122.69 302.44C123.698 301.832 124.818 301.528 126.05 301.528C127.042 301.528 127.922 301.728 128.69 302.128C129.474 302.512 130.09 303.056 130.538 303.76L130.058 304.408V296.704H133.202V314.872H130.226V312.352L130.562 312.976C130.114 313.68 129.49 314.224 128.69 314.608C127.89 314.976 127.018 315.16 126.074 315.16ZM126.41 312.28C127.13 312.28 127.762 312.112 128.306 311.776C128.85 311.44 129.274 310.976 129.578 310.384C129.898 309.792 130.058 309.112 130.058 308.344C130.058 307.592 129.898 306.92 129.578 306.328C129.274 305.72 128.85 305.248 128.306 304.912C127.762 304.576 127.13 304.408 126.41 304.408C125.706 304.408 125.074 304.584 124.514 304.936C123.954 305.272 123.514 305.736 123.194 306.328C122.89 306.904 122.738 307.576 122.738 308.344C122.738 309.112 122.89 309.792 123.194 310.384C123.514 310.976 123.954 311.44 124.514 311.776C125.074 312.112 125.706 312.28 126.41 312.28ZM148.096 315.16C146.816 315.16 145.632 314.928 144.544 314.464C143.472 314 142.528 313.352 141.712 312.52C140.912 311.688 140.288 310.712 139.84 309.592C139.392 308.472 139.168 307.248 139.168 305.92C139.168 304.592 139.384 303.368 139.816 302.248C140.264 301.112 140.888 300.136 141.688 299.32C142.504 298.488 143.456 297.848 144.544 297.4C145.632 296.936 146.816 296.704 148.096 296.704C149.376 296.704 150.52 296.92 151.528 297.352C152.552 297.784 153.416 298.36 154.12 299.08C154.824 299.784 155.328 300.56 155.632 301.408L152.704 302.776C152.368 301.88 151.8 301.144 151 300.568C150.2 299.976 149.232 299.68 148.096 299.68C146.976 299.68 145.984 299.944 145.12 300.472C144.272 301 143.608 301.728 143.128 302.656C142.664 303.584 142.432 304.672 142.432 305.92C142.432 307.168 142.664 308.264 143.128 309.208C143.608 310.136 144.272 310.864 145.12 311.392C145.984 311.92 146.976 312.184 148.096 312.184C149.232 312.184 150.2 311.896 151 311.32C151.8 310.728 152.368 309.984 152.704 309.088L155.632 310.456C155.328 311.304 154.824 312.088 154.12 312.808C153.416 313.512 152.552 314.08 151.528 314.512C150.52 314.944 149.376 315.16 148.096 315.16ZM163.688 315.16C162.408 315.16 161.24 314.864 160.184 314.272C159.144 313.68 158.312 312.872 157.688 311.848C157.08 310.824 156.776 309.656 156.776 308.344C156.776 307.032 157.08 305.864 157.688 304.84C158.312 303.816 159.144 303.008 160.184 302.416C161.224 301.824 162.392 301.528 163.688 301.528C164.968 301.528 166.128 301.824 167.168 302.416C168.208 303.008 169.032 303.816 169.64 304.84C170.264 305.848 170.576 307.016 170.576 308.344C170.576 309.656 170.264 310.824 169.64 311.848C169.016 312.872 168.184 313.68 167.144 314.272C166.104 314.864 164.952 315.16 163.688 315.16ZM163.688 312.28C164.392 312.28 165.008 312.112 165.536 311.776C166.08 311.44 166.504 310.976 166.808 310.384C167.128 309.776 167.288 309.096 167.288 308.344C167.288 307.576 167.128 306.904 166.808 306.328C166.504 305.736 166.08 305.272 165.536 304.936C165.008 304.584 164.392 304.408 163.688 304.408C162.968 304.408 162.336 304.584 161.792 304.936C161.248 305.272 160.816 305.736 160.496 306.328C160.192 306.904 160.04 307.576 160.04 308.344C160.04 309.096 160.192 309.776 160.496 310.384C160.816 310.976 161.248 311.44 161.792 311.776C162.336 312.112 162.968 312.28 163.688 312.28ZM172.48 314.872V301.816H175.432V304.84L175.096 304.336C175.336 303.392 175.816 302.688 176.536 302.224C177.256 301.76 178.104 301.528 179.08 301.528C180.152 301.528 181.096 301.808 181.912 302.368C182.728 302.928 183.256 303.664 183.496 304.576L182.608 304.648C183.008 303.608 183.608 302.832 184.408 302.32C185.208 301.792 186.128 301.528 187.168 301.528C188.096 301.528 188.92 301.736 189.64 302.152C190.376 302.568 190.952 303.152 191.368 303.904C191.784 304.64 191.992 305.496 191.992 306.472V314.872H188.848V307.216C188.848 306.64 188.744 306.144 188.536 305.728C188.328 305.312 188.04 304.992 187.672 304.768C187.304 304.528 186.856 304.408 186.328 304.408C185.832 304.408 185.392 304.528 185.008 304.768C184.624 304.992 184.328 305.312 184.12 305.728C183.912 306.144 183.808 306.64 183.808 307.216V314.872H180.664V307.216C180.664 306.64 180.56 306.144 180.352 305.728C180.144 305.312 179.848 304.992 179.464 304.768C179.096 304.528 178.656 304.408 178.144 304.408C177.648 304.408 177.208 304.528 176.824 304.768C176.44 304.992 176.144 305.312 175.936 305.728C175.728 306.144 175.624 306.64 175.624 307.216V314.872H172.48ZM194.172 319.672V301.816H197.124V304.408L196.836 303.76C197.284 303.056 197.892 302.512 198.66 302.128C199.428 301.728 200.316 301.528 201.324 301.528C202.556 301.528 203.668 301.832 204.66 302.44C205.652 303.048 206.436 303.864 207.012 304.888C207.604 305.912 207.9 307.064 207.9 308.344C207.9 309.608 207.612 310.76 207.036 311.8C206.46 312.84 205.676 313.664 204.684 314.272C203.692 314.864 202.564 315.16 201.3 315.16C200.356 315.16 199.484 314.976 198.684 314.608C197.9 314.224 197.276 313.68 196.812 312.976L197.316 312.352V319.672H194.172ZM200.94 312.28C201.66 312.28 202.3 312.112 202.86 311.776C203.42 311.44 203.852 310.976 204.156 310.384C204.476 309.792 204.636 309.112 204.636 308.344C204.636 307.576 204.476 306.904 204.156 306.328C203.852 305.736 203.42 305.272 202.86 304.936C202.3 304.584 201.66 304.408 200.94 304.408C200.252 304.408 199.628 304.576 199.068 304.912C198.524 305.248 198.092 305.72 197.772 306.328C197.468 306.92 197.316 307.592 197.316 308.344C197.316 309.112 197.468 309.792 197.772 310.384C198.092 310.976 198.524 311.44 199.068 311.776C199.628 312.112 200.252 312.28 200.94 312.28ZM216.201 315.16C214.921 315.16 213.753 314.864 212.697 314.272C211.657 313.68 210.825 312.872 210.201 311.848C209.593 310.824 209.289 309.656 209.289 308.344C209.289 307.032 209.593 305.864 210.201 304.84C210.825 303.816 211.657 303.008 212.697 302.416C213.737 301.824 214.905 301.528 216.201 301.528C217.481 301.528 218.641 301.824 219.681 302.416C220.721 303.008 221.545 303.816 222.153 304.84C222.777 305.848 223.089 307.016 223.089 308.344C223.089 309.656 222.777 310.824 222.153 311.848C221.529 312.872 220.697 313.68 219.657 314.272C218.617 314.864 217.465 315.16 216.201 315.16ZM216.201 312.28C216.905 312.28 217.521 312.112 218.049 311.776C218.593 311.44 219.017 310.976 219.321 310.384C219.641 309.776 219.801 309.096 219.801 308.344C219.801 307.576 219.641 306.904 219.321 306.328C219.017 305.736 218.593 305.272 218.049 304.936C217.521 304.584 216.905 304.408 216.201 304.408C215.481 304.408 214.849 304.584 214.305 304.936C213.761 305.272 213.329 305.736 213.009 306.328C212.705 306.904 212.553 307.576 212.553 308.344C212.553 309.096 212.705 309.776 213.009 310.384C213.329 310.976 213.761 311.44 214.305 311.776C214.849 312.112 215.481 312.28 216.201 312.28ZM224.993 314.872V301.816H227.945V304.384L227.705 303.928C228.009 303.144 228.505 302.552 229.193 302.152C229.897 301.736 230.713 301.528 231.641 301.528C232.601 301.528 233.449 301.736 234.185 302.152C234.937 302.568 235.521 303.152 235.937 303.904C236.353 304.64 236.561 305.496 236.561 306.472V314.872H233.417V307.216C233.417 306.64 233.305 306.144 233.081 305.728C232.857 305.312 232.545 304.992 232.145 304.768C231.761 304.528 231.305 304.408 230.777 304.408C230.265 304.408 229.809 304.528 229.409 304.768C229.009 304.992 228.697 305.312 228.473 305.728C228.249 306.144 228.137 306.64 228.137 307.216V314.872H224.993ZM244.932 315.16C243.588 315.16 242.412 314.856 241.404 314.248C240.396 313.64 239.612 312.816 239.052 311.776C238.492 310.736 238.212 309.584 238.212 308.32C238.212 307.008 238.492 305.848 239.052 304.84C239.628 303.816 240.404 303.008 241.38 302.416C242.372 301.824 243.476 301.528 244.692 301.528C245.716 301.528 246.612 301.696 247.38 302.032C248.164 302.368 248.828 302.832 249.372 303.424C249.916 304.016 250.332 304.696 250.62 305.464C250.908 306.216 251.052 307.032 251.052 307.912C251.052 308.136 251.036 308.368 251.004 308.608C250.988 308.848 250.948 309.056 250.884 309.232H240.804V306.832H249.108L247.62 307.96C247.764 307.224 247.724 306.568 247.5 305.992C247.292 305.416 246.94 304.96 246.444 304.624C245.964 304.288 245.38 304.12 244.692 304.12C244.036 304.12 243.452 304.288 242.94 304.624C242.428 304.944 242.036 305.424 241.764 306.064C241.508 306.688 241.412 307.448 241.476 308.344C241.412 309.144 241.516 309.856 241.788 310.48C242.076 311.088 242.492 311.56 243.036 311.896C243.596 312.232 244.236 312.4 244.956 312.4C245.676 312.4 246.284 312.248 246.78 311.944C247.292 311.64 247.692 311.232 247.98 310.72L250.524 311.968C250.268 312.592 249.868 313.144 249.324 313.624C248.78 314.104 248.132 314.48 247.38 314.752C246.644 315.024 245.828 315.16 244.932 315.16ZM252.955 314.872V301.816H255.907V304.384L255.667 303.928C255.971 303.144 256.467 302.552 257.155 302.152C257.859 301.736 258.675 301.528 259.603 301.528C260.563 301.528 261.411 301.736 262.147 302.152C262.899 302.568 263.483 303.152 263.899 303.904C264.315 304.64 264.523 305.496 264.523 306.472V314.872H261.379V307.216C261.379 306.64 261.267 306.144 261.043 305.728C260.819 305.312 260.507 304.992 260.107 304.768C259.723 304.528 259.267 304.408 258.739 304.408C258.227 304.408 257.771 304.528 257.371 304.768C256.971 304.992 256.659 305.312 256.435 305.728C256.211 306.144 256.099 306.64 256.099 307.216V314.872H252.955ZM272.654 315.016C271.182 315.016 270.038 314.616 269.222 313.816C268.422 313 268.022 311.856 268.022 310.384V304.624H265.766V301.816H266.006C266.646 301.816 267.142 301.648 267.494 301.312C267.846 300.976 268.022 300.488 268.022 299.848V298.84H271.166V301.816H274.166V304.624H271.166V310.216C271.166 310.648 271.238 311.016 271.382 311.32C271.542 311.624 271.782 311.856 272.102 312.016C272.438 312.176 272.862 312.256 273.374 312.256C273.486 312.256 273.614 312.248 273.758 312.232C273.918 312.216 274.07 312.2 274.214 312.184V314.872C273.99 314.904 273.734 314.936 273.446 314.968C273.158 315 272.894 315.016 272.654 315.016ZM281.104 315.16C279.712 315.16 278.496 314.832 277.456 314.176C276.432 313.504 275.728 312.6 275.344 311.464L277.696 310.336C278.032 311.072 278.496 311.648 279.088 312.064C279.696 312.48 280.368 312.688 281.104 312.688C281.68 312.688 282.136 312.56 282.472 312.304C282.808 312.048 282.976 311.712 282.976 311.296C282.976 311.04 282.904 310.832 282.76 310.672C282.632 310.496 282.448 310.352 282.208 310.24C281.984 310.112 281.736 310.008 281.464 309.928L279.328 309.328C278.224 309.008 277.384 308.52 276.808 307.864C276.248 307.208 275.968 306.432 275.968 305.536C275.968 304.736 276.168 304.04 276.568 303.448C276.984 302.84 277.552 302.368 278.272 302.032C279.008 301.696 279.848 301.528 280.792 301.528C282.024 301.528 283.112 301.824 284.056 302.416C285 303.008 285.672 303.84 286.072 304.912L283.672 306.04C283.448 305.448 283.072 304.976 282.544 304.624C282.016 304.272 281.424 304.096 280.768 304.096C280.24 304.096 279.824 304.216 279.52 304.456C279.216 304.696 279.064 305.008 279.064 305.392C279.064 305.632 279.128 305.84 279.256 306.016C279.384 306.192 279.56 306.336 279.784 306.448C280.024 306.56 280.296 306.664 280.6 306.76L282.688 307.384C283.76 307.704 284.584 308.184 285.16 308.824C285.752 309.464 286.048 310.248 286.048 311.176C286.048 311.96 285.84 312.656 285.424 313.264C285.008 313.856 284.432 314.32 283.696 314.656C282.96 314.992 282.096 315.16 281.104 315.16Z" fill="#FAFAFA"/>
<g clipPath="url(#clip3_12140_57111)">
<g filter="url(#filter3_i_12140_57111)">
<rect x="322" y="298.134" width="865" height="12" rx="6" fill="url(#paint6_linear_12140_57111)"/>
<rect width="1728" height="172" transform="matrix(0 -1 -1 0 1249 1372)" fill="url(#paint7_linear_12140_57111)"/>
<rect x="322.5" y="298.634" width="864" height="11" rx="5.5" stroke="white" stroke-opacity="0.04"/>
</g>
<path d="M323 304.61C323 301.296 325.686 298.61 329 298.61H626V310.61H329C325.686 310.61 323 307.924 323 304.61Z" fill="#EAB305"/>
</g>
<path d="M1223.37 313.372V311.548C1224.46 310.684 1225.5 309.812 1226.49 308.932C1227.48 308.052 1228.36 307.188 1229.13 306.34C1229.91 305.476 1230.53 304.636 1230.98 303.82C1231.42 302.988 1231.65 302.188 1231.65 301.42C1231.65 300.908 1231.56 300.428 1231.38 299.98C1231.21 299.516 1230.92 299.148 1230.52 298.876C1230.12 298.588 1229.58 298.444 1228.91 298.444C1227.9 298.444 1227.14 298.764 1226.63 299.404C1226.14 300.044 1225.9 300.812 1225.91 301.708H1223.44C1223.46 300.524 1223.7 299.532 1224.18 298.732C1224.68 297.932 1225.34 297.324 1226.15 296.908C1226.98 296.492 1227.92 296.284 1228.96 296.284C1230.54 296.284 1231.81 296.732 1232.75 297.628C1233.71 298.508 1234.19 299.74 1234.19 301.324C1234.19 302.268 1233.96 303.204 1233.5 304.132C1233.05 305.06 1232.46 305.956 1231.72 306.82C1231 307.668 1230.22 308.468 1229.39 309.22C1228.56 309.972 1227.77 310.652 1227.02 311.26H1234.7V313.372H1223.37ZM1242.81 313.66C1241.73 313.66 1240.73 313.468 1239.84 313.084C1238.96 312.684 1238.25 312.084 1237.73 311.284C1237.2 310.484 1236.92 309.484 1236.89 308.284H1239.41C1239.44 309.18 1239.74 309.94 1240.32 310.564C1240.91 311.172 1241.74 311.476 1242.81 311.476C1243.84 311.476 1244.62 311.196 1245.17 310.636C1245.71 310.06 1245.98 309.348 1245.98 308.5C1245.98 307.476 1245.61 306.716 1244.88 306.22C1244.16 305.724 1243.27 305.476 1242.21 305.476H1240.97V303.364H1242.24C1243.18 303.364 1243.94 303.14 1244.52 302.692C1245.11 302.244 1245.41 301.612 1245.41 300.796C1245.41 300.108 1245.17 299.548 1244.71 299.116C1244.26 298.684 1243.62 298.468 1242.79 298.468C1241.93 298.468 1241.25 298.724 1240.75 299.236C1240.25 299.732 1239.98 300.356 1239.93 301.108H1237.41C1237.45 300.132 1237.69 299.284 1238.13 298.564C1238.6 297.844 1239.23 297.284 1240.03 296.884C1240.83 296.484 1241.75 296.284 1242.79 296.284C1243.91 296.284 1244.85 296.484 1245.6 296.884C1246.37 297.268 1246.94 297.796 1247.33 298.468C1247.73 299.124 1247.93 299.844 1247.93 300.628C1247.93 301.524 1247.68 302.308 1247.18 302.98C1246.69 303.652 1246.02 304.1 1245.19 304.324C1246.15 304.532 1246.94 305.004 1247.57 305.74C1248.19 306.46 1248.5 307.396 1248.5 308.548C1248.5 309.476 1248.29 310.332 1247.85 311.116C1247.42 311.884 1246.78 312.5 1245.93 312.964C1245.09 313.428 1244.05 313.66 1242.81 313.66ZM1256.65 313.66C1255.54 313.66 1254.6 313.444 1253.82 313.012C1253.03 312.58 1252.42 312.004 1251.97 311.284C1251.54 310.564 1251.27 309.78 1251.18 308.932H1253.55C1253.7 309.764 1254.04 310.404 1254.58 310.852C1255.13 311.3 1255.82 311.524 1256.67 311.524C1257.84 311.524 1258.8 310.98 1259.55 309.892C1260.32 308.788 1260.73 307.1 1260.78 304.828C1260.39 305.532 1259.79 306.132 1258.98 306.628C1258.18 307.124 1257.25 307.372 1256.19 307.372C1255.25 307.372 1254.36 307.148 1253.53 306.7C1252.7 306.252 1252.02 305.628 1251.51 304.828C1251 304.012 1250.74 303.052 1250.74 301.948C1250.74 300.972 1250.98 300.052 1251.46 299.188C1251.94 298.324 1252.62 297.628 1253.48 297.1C1254.36 296.556 1255.4 296.284 1256.6 296.284C1257.83 296.284 1258.87 296.516 1259.72 296.98C1260.57 297.444 1261.25 298.06 1261.76 298.828C1262.27 299.596 1262.64 300.46 1262.86 301.42C1263.1 302.38 1263.22 303.364 1263.22 304.372C1263.22 306.228 1262.96 307.852 1262.43 309.244C1261.92 310.636 1261.18 311.724 1260.2 312.508C1259.22 313.276 1258.04 313.66 1256.65 313.66ZM1256.77 305.188C1257.44 305.188 1258.04 305.036 1258.57 304.732C1259.1 304.428 1259.51 304.028 1259.82 303.532C1260.14 303.02 1260.3 302.46 1260.3 301.852C1260.3 301.196 1260.14 300.62 1259.82 300.124C1259.51 299.612 1259.09 299.212 1258.54 298.924C1258.02 298.636 1257.42 298.492 1256.74 298.492C1256.07 298.492 1255.47 298.636 1254.94 298.924C1254.42 299.212 1253.99 299.612 1253.67 300.124C1253.37 300.62 1253.22 301.188 1253.22 301.828C1253.22 302.852 1253.55 303.668 1254.22 304.276C1254.9 304.884 1255.74 305.188 1256.77 305.188ZM1272.12 313.372V301.468H1274.38L1274.6 303.148C1274.98 302.54 1275.48 302.06 1276.11 301.708C1276.75 301.356 1277.48 301.18 1278.32 301.18C1280.2 301.18 1281.52 301.924 1282.25 303.412C1282.68 302.724 1283.26 302.18 1283.98 301.78C1284.72 301.38 1285.51 301.18 1286.36 301.18C1287.84 301.18 1289.01 301.628 1289.86 302.524C1290.71 303.42 1291.13 304.756 1291.13 306.532V313.372H1288.59V306.796C1288.59 304.492 1287.71 303.34 1285.95 303.34C1285.05 303.34 1284.32 303.676 1283.74 304.348C1283.18 305.02 1282.9 305.98 1282.9 307.228V313.372H1280.36V306.796C1280.36 304.492 1279.47 303.34 1277.69 303.34C1276.81 303.34 1276.08 303.676 1275.51 304.348C1274.95 305.02 1274.67 305.98 1274.67 307.228V313.372H1272.12ZM1298.86 313.66C1297.36 313.66 1296.12 313.292 1295.14 312.556C1294.16 311.82 1293.6 310.844 1293.46 309.628H1296.03C1296.16 310.172 1296.46 310.644 1296.94 311.044C1297.42 311.428 1298.05 311.62 1298.84 311.62C1299.6 311.62 1300.16 311.46 1300.52 311.14C1300.87 310.82 1301.04 310.452 1301.04 310.036C1301.04 309.428 1300.8 309.02 1300.3 308.812C1299.82 308.588 1299.15 308.388 1298.28 308.212C1297.61 308.068 1296.94 307.876 1296.27 307.636C1295.61 307.396 1295.06 307.06 1294.61 306.628C1294.18 306.18 1293.96 305.58 1293.96 304.828C1293.96 303.788 1294.36 302.924 1295.16 302.236C1295.96 301.532 1297.08 301.18 1298.52 301.18C1299.85 301.18 1300.92 301.5 1301.74 302.14C1302.57 302.78 1303.06 303.684 1303.2 304.852H1300.76C1300.68 304.34 1300.44 303.94 1300.04 303.652C1299.65 303.364 1299.13 303.22 1298.48 303.22C1297.84 303.22 1297.34 303.356 1296.99 303.628C1296.64 303.884 1296.46 304.22 1296.46 304.636C1296.46 305.052 1296.7 305.38 1297.18 305.62C1297.68 305.86 1298.32 306.076 1299.12 306.268C1299.92 306.444 1300.66 306.652 1301.33 306.892C1302.02 307.116 1302.57 307.452 1302.99 307.9C1303.4 308.348 1303.61 309.004 1303.61 309.868C1303.63 310.956 1303.2 311.86 1302.34 312.58C1301.49 313.3 1300.33 313.66 1298.86 313.66Z" fill="#A3A3A3"/>
<path d="M160.017 389.978V372.098H162.561L172.401 385.346L171.081 385.61V372.098H174.345V389.978H171.777L162.081 376.634L163.281 376.37V389.978H160.017ZM181.022 390.266C180.11 390.266 179.318 390.114 178.646 389.81C177.974 389.506 177.454 389.074 177.086 388.514C176.718 387.938 176.534 387.274 176.534 386.522C176.534 385.802 176.694 385.162 177.014 384.602C177.334 384.026 177.83 383.546 178.502 383.162C179.174 382.778 180.022 382.506 181.046 382.346L185.318 381.65V384.05L181.646 384.674C181.022 384.786 180.558 384.986 180.254 385.274C179.95 385.562 179.798 385.938 179.798 386.402C179.798 386.85 179.966 387.21 180.302 387.482C180.654 387.738 181.086 387.866 181.598 387.866C182.254 387.866 182.83 387.73 183.326 387.458C183.838 387.17 184.23 386.778 184.502 386.282C184.79 385.786 184.934 385.242 184.934 384.65V381.29C184.934 380.73 184.71 380.266 184.262 379.898C183.83 379.514 183.254 379.322 182.534 379.322C181.862 379.322 181.262 379.506 180.734 379.874C180.222 380.226 179.846 380.698 179.606 381.29L177.038 380.042C177.294 379.354 177.694 378.762 178.238 378.266C178.798 377.754 179.454 377.354 180.206 377.066C180.958 376.778 181.774 376.634 182.654 376.634C183.726 376.634 184.67 376.834 185.486 377.234C186.302 377.618 186.934 378.162 187.382 378.866C187.846 379.554 188.078 380.362 188.078 381.29V389.978H185.102V387.746L185.774 387.698C185.438 388.258 185.038 388.73 184.574 389.114C184.11 389.482 183.582 389.77 182.99 389.978C182.398 390.17 181.742 390.266 181.022 390.266ZM196.221 390.122C194.749 390.122 193.605 389.722 192.789 388.922C191.989 388.106 191.589 386.962 191.589 385.49V379.73H189.333V376.922H189.573C190.213 376.922 190.709 376.754 191.061 376.418C191.413 376.082 191.589 375.594 191.589 374.954V373.946H194.733V376.922H197.733V379.73H194.733V385.322C194.733 385.754 194.805 386.122 194.949 386.426C195.109 386.73 195.349 386.962 195.669 387.122C196.005 387.282 196.429 387.362 196.941 387.362C197.053 387.362 197.181 387.354 197.325 387.338C197.485 387.322 197.637 387.306 197.781 387.29V389.978C197.557 390.01 197.301 390.042 197.013 390.074C196.725 390.106 196.461 390.122 196.221 390.122ZM199.703 389.978V376.922H202.847V389.978H199.703ZM199.703 375.458V372.098H202.847V375.458H199.703ZM209.206 389.978L204.07 376.922H207.502L211.222 387.194H209.95L213.694 376.922H217.126L211.99 389.978H209.206ZM224.342 390.266C222.998 390.266 221.822 389.962 220.814 389.354C219.806 388.746 219.022 387.922 218.462 386.882C217.902 385.842 217.622 384.69 217.622 383.426C217.622 382.114 217.902 380.954 218.462 379.946C219.038 378.922 219.814 378.114 220.79 377.522C221.782 376.93 222.886 376.634 224.102 376.634C225.126 376.634 226.022 376.802 226.79 377.138C227.574 377.474 228.238 377.938 228.782 378.53C229.326 379.122 229.742 379.802 230.03 380.57C230.318 381.322 230.462 382.138 230.462 383.018C230.462 383.242 230.446 383.474 230.414 383.714C230.398 383.954 230.358 384.162 230.294 384.338H220.214V381.938H228.518L227.03 383.066C227.174 382.33 227.134 381.674 226.91 381.098C226.702 380.522 226.35 380.066 225.854 379.73C225.374 379.394 224.79 379.226 224.102 379.226C223.446 379.226 222.862 379.394 222.35 379.73C221.838 380.05 221.446 380.53 221.174 381.17C220.918 381.794 220.822 382.554 220.886 383.45C220.822 384.25 220.926 384.962 221.198 385.586C221.486 386.194 221.902 386.666 222.446 387.002C223.006 387.338 223.646 387.506 224.366 387.506C225.086 387.506 225.694 387.354 226.19 387.05C226.702 386.746 227.102 386.338 227.39 385.826L229.934 387.074C229.678 387.698 229.278 388.25 228.734 388.73C228.19 389.21 227.542 389.586 226.79 389.858C226.054 390.13 225.238 390.266 224.342 390.266ZM232.629 389.978V372.098H240.165C241.349 372.098 242.357 372.306 243.189 372.722C244.037 373.122 244.685 373.698 245.133 374.45C245.597 375.186 245.829 376.082 245.829 377.138C245.829 377.954 245.605 378.722 245.157 379.442C244.725 380.146 244.029 380.73 243.069 381.194V379.682C243.949 380.018 244.645 380.434 245.157 380.93C245.669 381.426 246.029 381.978 246.237 382.586C246.445 383.194 246.549 383.834 246.549 384.506C246.549 386.218 245.981 387.562 244.845 388.538C243.725 389.498 242.165 389.978 240.165 389.978H232.629ZM235.893 387.098H240.501C241.349 387.098 242.021 386.866 242.517 386.402C243.029 385.922 243.285 385.29 243.285 384.506C243.285 383.722 243.029 383.09 242.517 382.61C242.021 382.13 241.349 381.89 240.501 381.89H235.893V387.098ZM235.893 379.034H240.333C241.005 379.034 241.541 378.842 241.941 378.458C242.341 378.058 242.541 377.546 242.541 376.922C242.541 376.298 242.341 375.802 241.941 375.434C241.541 375.066 241.005 374.882 240.333 374.882H235.893V379.034ZM252.439 390.266C251.527 390.266 250.735 390.114 250.063 389.81C249.391 389.506 248.871 389.074 248.503 388.514C248.135 387.938 247.951 387.274 247.951 386.522C247.951 385.802 248.111 385.162 248.431 384.602C248.751 384.026 249.247 383.546 249.919 383.162C250.591 382.778 251.439 382.506 252.463 382.346L256.735 381.65V384.05L253.063 384.674C252.439 384.786 251.975 384.986 251.671 385.274C251.367 385.562 251.215 385.938 251.215 386.402C251.215 386.85 251.383 387.21 251.719 387.482C252.071 387.738 252.503 387.866 253.015 387.866C253.671 387.866 254.247 387.73 254.743 387.458C255.255 387.17 255.647 386.778 255.919 386.282C256.207 385.786 256.351 385.242 256.351 384.65V381.29C256.351 380.73 256.127 380.266 255.679 379.898C255.247 379.514 254.671 379.322 253.951 379.322C253.279 379.322 252.679 379.506 252.151 379.874C251.639 380.226 251.263 380.698 251.023 381.29L248.455 380.042C248.711 379.354 249.111 378.762 249.655 378.266C250.215 377.754 250.871 377.354 251.623 377.066C252.375 376.778 253.191 376.634 254.071 376.634C255.143 376.634 256.087 376.834 256.903 377.234C257.719 377.618 258.351 378.162 258.799 378.866C259.263 379.554 259.495 380.362 259.495 381.29V389.978H256.519V387.746L257.191 387.698C256.855 388.258 256.455 388.73 255.991 389.114C255.527 389.482 254.999 389.77 254.407 389.978C253.815 390.17 253.159 390.266 252.439 390.266ZM266.889 390.266C265.497 390.266 264.281 389.938 263.241 389.282C262.217 388.61 261.513 387.706 261.129 386.57L263.481 385.442C263.817 386.178 264.281 386.754 264.873 387.17C265.481 387.586 266.153 387.794 266.889 387.794C267.465 387.794 267.921 387.666 268.257 387.41C268.593 387.154 268.761 386.818 268.761 386.402C268.761 386.146 268.689 385.938 268.545 385.778C268.417 385.602 268.233 385.458 267.993 385.346C267.769 385.218 267.521 385.114 267.249 385.034L265.113 384.434C264.009 384.114 263.169 383.626 262.593 382.97C262.033 382.314 261.753 381.538 261.753 380.642C261.753 379.842 261.953 379.146 262.353 378.554C262.769 377.946 263.337 377.474 264.057 377.138C264.793 376.802 265.633 376.634 266.577 376.634C267.809 376.634 268.897 376.93 269.841 377.522C270.785 378.114 271.457 378.946 271.857 380.018L269.457 381.146C269.233 380.554 268.857 380.082 268.329 379.73C267.801 379.378 267.209 379.202 266.553 379.202C266.025 379.202 265.609 379.322 265.305 379.562C265.001 379.802 264.849 380.114 264.849 380.498C264.849 380.738 264.913 380.946 265.041 381.122C265.169 381.298 265.345 381.442 265.569 381.554C265.809 381.666 266.081 381.77 266.385 381.866L268.473 382.49C269.545 382.81 270.369 383.29 270.945 383.93C271.537 384.57 271.833 385.354 271.833 386.282C271.833 387.066 271.625 387.762 271.209 388.37C270.793 388.962 270.217 389.426 269.481 389.762C268.745 390.098 267.881 390.266 266.889 390.266ZM279.961 390.266C278.617 390.266 277.441 389.962 276.433 389.354C275.425 388.746 274.641 387.922 274.081 386.882C273.521 385.842 273.241 384.69 273.241 383.426C273.241 382.114 273.521 380.954 274.081 379.946C274.657 378.922 275.433 378.114 276.409 377.522C277.401 376.93 278.505 376.634 279.721 376.634C280.745 376.634 281.641 376.802 282.409 377.138C283.193 377.474 283.857 377.938 284.401 378.53C284.945 379.122 285.361 379.802 285.649 380.57C285.937 381.322 286.081 382.138 286.081 383.018C286.081 383.242 286.065 383.474 286.033 383.714C286.017 383.954 285.977 384.162 285.913 384.338H275.833V381.938H284.137L282.649 383.066C282.793 382.33 282.753 381.674 282.529 381.098C282.321 380.522 281.969 380.066 281.473 379.73C280.993 379.394 280.409 379.226 279.721 379.226C279.065 379.226 278.481 379.394 277.969 379.73C277.457 380.05 277.065 380.53 276.793 381.17C276.537 381.794 276.441 382.554 276.505 383.45C276.441 384.25 276.545 384.962 276.817 385.586C277.105 386.194 277.521 386.666 278.065 387.002C278.625 387.338 279.265 387.506 279.985 387.506C280.705 387.506 281.313 387.354 281.809 387.05C282.321 386.746 282.721 386.338 283.009 385.826L285.553 387.074C285.297 387.698 284.897 388.25 284.353 388.73C283.809 389.21 283.161 389.586 282.409 389.858C281.673 390.13 280.857 390.266 279.961 390.266Z" fill="#FAFAFA"/>
<g clipPath="url(#clip4_12140_57111)">
<g filter="url(#filter4_i_12140_57111)">
<rect x="323" y="373.24" width="857" height="12" rx="6" fill="url(#paint8_linear_12140_57111)"/>
<rect x="323.5" y="373.74" width="856" height="11" rx="5.5" stroke="white" stroke-opacity="0.04"/>
</g>
<path d="M323 379.716C323 376.403 325.686 373.716 329 373.716H1252V385.716H329C325.686 385.716 323 383.03 323 379.716Z" fill="#0991B1"/>
<rect width="1728" height="172" transform="matrix(0 -1 -1 0 1191 1447.11)" fill="url(#paint9_linear_12140_57111)"/>
</g>
<path d="M1219.43 388.478V374.558L1216.72 375.182V373.31L1220.44 371.678H1222.07V388.478H1219.43ZM1225.15 388.478V386.654C1226.24 385.79 1227.28 384.918 1228.27 384.038C1229.26 383.158 1230.14 382.294 1230.91 381.446C1231.69 380.582 1232.31 379.742 1232.76 378.926C1233.21 378.094 1233.43 377.294 1233.43 376.526C1233.43 376.014 1233.34 375.534 1233.17 375.086C1232.99 374.622 1232.7 374.254 1232.3 373.982C1231.9 373.694 1231.37 373.55 1230.69 373.55C1229.69 373.55 1228.93 373.87 1228.41 374.51C1227.92 375.15 1227.68 375.918 1227.69 376.814H1225.22C1225.24 375.63 1225.49 374.638 1225.97 373.838C1226.46 373.038 1227.12 372.43 1227.93 372.014C1228.77 371.598 1229.7 371.39 1230.74 371.39C1232.33 371.39 1233.59 371.838 1234.53 372.734C1235.49 373.614 1235.97 374.846 1235.97 376.43C1235.97 377.374 1235.74 378.31 1235.28 379.238C1234.83 380.166 1234.24 381.062 1233.5 381.926C1232.78 382.774 1232.01 383.574 1231.17 384.326C1230.34 385.078 1229.55 385.758 1228.8 386.366H1236.48V388.478H1225.15ZM1245.75 388.766C1244.23 388.766 1242.92 388.406 1241.82 387.686C1240.73 386.95 1239.89 385.934 1239.3 384.638C1238.72 383.326 1238.43 381.806 1238.43 380.078C1238.43 378.35 1238.72 376.838 1239.3 375.542C1239.89 374.23 1240.73 373.214 1241.82 372.494C1242.92 371.758 1244.23 371.39 1245.75 371.39C1247.27 371.39 1248.58 371.758 1249.66 372.494C1250.75 373.214 1251.58 374.23 1252.16 375.542C1252.75 376.838 1253.05 378.35 1253.05 380.078C1253.05 381.806 1252.75 383.326 1252.16 384.638C1251.58 385.934 1250.75 386.95 1249.66 387.686C1248.58 388.406 1247.27 388.766 1245.75 388.766ZM1245.75 386.486C1246.66 386.486 1247.47 386.23 1248.18 385.718C1248.9 385.206 1249.46 384.47 1249.86 383.51C1250.26 382.55 1250.46 381.406 1250.46 380.078C1250.46 378.75 1250.26 377.606 1249.86 376.646C1249.46 375.686 1248.9 374.95 1248.18 374.438C1247.47 373.926 1246.66 373.67 1245.75 373.67C1244.82 373.67 1244.01 373.926 1243.3 374.438C1242.6 374.95 1242.05 375.686 1241.65 376.646C1241.25 377.606 1241.05 378.75 1241.05 380.078C1241.05 381.406 1241.25 382.55 1241.65 383.51C1242.05 384.47 1242.6 385.206 1243.3 385.718C1244.01 386.23 1244.82 386.486 1245.75 386.486ZM1256.83 388.478L1263.33 373.862H1254.59V371.678H1265.95V373.526L1259.49 388.478H1256.83ZM1274.42 388.478V376.574H1276.68L1276.89 378.254C1277.28 377.646 1277.78 377.166 1278.4 376.814C1279.04 376.462 1279.78 376.286 1280.61 376.286C1282.5 376.286 1283.81 377.03 1284.55 378.518C1284.98 377.83 1285.56 377.286 1286.28 376.886C1287.01 376.486 1287.8 376.286 1288.65 376.286C1290.14 376.286 1291.31 376.734 1292.16 377.63C1293 378.526 1293.43 379.862 1293.43 381.638V388.478H1290.88V381.902C1290.88 379.598 1290 378.446 1288.24 378.446C1287.35 378.446 1286.61 378.782 1286.04 379.454C1285.48 380.126 1285.2 381.086 1285.2 382.334V388.478H1282.65V381.902C1282.65 379.598 1281.76 378.446 1279.99 378.446C1279.11 378.446 1278.38 378.782 1277.8 379.454C1277.24 380.126 1276.96 381.086 1276.96 382.334V388.478H1274.42ZM1301.16 388.766C1299.65 388.766 1298.41 388.398 1297.44 387.662C1296.46 386.926 1295.9 385.95 1295.76 384.734H1298.32C1298.45 385.278 1298.76 385.75 1299.24 386.15C1299.72 386.534 1300.35 386.726 1301.13 386.726C1301.9 386.726 1302.46 386.566 1302.81 386.246C1303.16 385.926 1303.34 385.558 1303.34 385.142C1303.34 384.534 1303.09 384.126 1302.6 383.918C1302.12 383.694 1301.44 383.494 1300.58 383.318C1299.91 383.174 1299.24 382.982 1298.56 382.742C1297.91 382.502 1297.36 382.166 1296.91 381.734C1296.48 381.286 1296.26 380.686 1296.26 379.934C1296.26 378.894 1296.66 378.03 1297.46 377.342C1298.26 376.638 1299.38 376.286 1300.82 376.286C1302.15 376.286 1303.22 376.606 1304.04 377.246C1304.87 377.886 1305.36 378.79 1305.5 379.958H1303.05C1302.97 379.446 1302.73 379.046 1302.33 378.758C1301.95 378.47 1301.43 378.326 1300.77 378.326C1300.13 378.326 1299.64 378.462 1299.28 378.734C1298.93 378.99 1298.76 379.326 1298.76 379.742C1298.76 380.158 1299 380.486 1299.48 380.726C1299.97 380.966 1300.62 381.182 1301.42 381.374C1302.22 381.55 1302.96 381.758 1303.63 381.998C1304.32 382.222 1304.87 382.558 1305.28 383.006C1305.7 383.454 1305.91 384.11 1305.91 384.974C1305.92 386.062 1305.5 386.966 1304.64 387.686C1303.79 388.406 1302.63 388.766 1301.16 388.766Z" fill="#A3A3A3"/>
<defs>
<filter id="filter0_i_12140_57111" x="322" y="-580.998" width="927" height="1728" filterUnits="userSpaceOnUse" color-interpolation-filters="sRGB">
<feFlood flood-opacity="0" result="BackgroundImageFix"/>
<feBlend mode="normal" in="SourceGraphic" in2="BackgroundImageFix" result="shape"/>
<feColorMatrix in="SourceAlpha" type="matrix" values="0 0 0 0 0 0 0 0 0 0 0 0 0 0 0 0 0 0 127 0" result="hardAlpha"/>
<feOffset dy="1"/>
<feComposite in2="hardAlpha" operator="arithmetic" k2="-1" k3="1"/>
<feColorMatrix type="matrix" values="0 0 0 0 1 0 0 0 0 1 0 0 0 0 1 0 0 0 0.08 0"/>
<feBlend mode="normal" in2="shape" result="effect1_innerShadow_12140_57111"/>
</filter>
<filter id="filter1_i_12140_57111" x="322" y="-506.001" width="927" height="1728" filterUnits="userSpaceOnUse" color-interpolation-filters="sRGB">
<feFlood flood-opacity="0" result="BackgroundImageFix"/>
<feBlend mode="normal" in="SourceGraphic" in2="BackgroundImageFix" result="shape"/>
<feColorMatrix in="SourceAlpha" type="matrix" values="0 0 0 0 0 0 0 0 0 0 0 0 0 0 0 0 0 0 127 0" result="hardAlpha"/>
<feOffset dy="1"/>
<feComposite in2="hardAlpha" operator="arithmetic" k2="-1" k3="1"/>
<feColorMatrix type="matrix" values="0 0 0 0 1 0 0 0 0 1 0 0 0 0 1 0 0 0 0.08 0"/>
<feBlend mode="normal" in2="shape" result="effect1_innerShadow_12140_57111"/>
</filter>
<filter id="filter2_i_12140_57111" x="322" y="-430.996" width="927" height="1728" filterUnits="userSpaceOnUse" color-interpolation-filters="sRGB">
<feFlood flood-opacity="0" result="BackgroundImageFix"/>
<feBlend mode="normal" in="SourceGraphic" in2="BackgroundImageFix" result="shape"/>
<feColorMatrix in="SourceAlpha" type="matrix" values="0 0 0 0 0 0 0 0 0 0 0 0 0 0 0 0 0 0 127 0" result="hardAlpha"/>
<feOffset dy="1"/>
<feComposite in2="hardAlpha" operator="arithmetic" k2="-1" k3="1"/>
<feColorMatrix type="matrix" values="0 0 0 0 1 0 0 0 0 1 0 0 0 0 1 0 0 0 0.08 0"/>
<feBlend mode="normal" in2="shape" result="effect1_innerShadow_12140_57111"/>
</filter>
<filter id="filter3_i_12140_57111" x="322" y="-355.999" width="927" height="1728" filterUnits="userSpaceOnUse" color-interpolation-filters="sRGB">
<feFlood flood-opacity="0" result="BackgroundImageFix"/>
<feBlend mode="normal" in="SourceGraphic" in2="BackgroundImageFix" result="shape"/>
<feColorMatrix in="SourceAlpha" type="matrix" values="0 0 0 0 0 0 0 0 0 0 0 0 0 0 0 0 0 0 127 0" result="hardAlpha"/>
<feOffset dy="1"/>
<feComposite in2="hardAlpha" operator="arithmetic" k2="-1" k3="1"/>
<feColorMatrix type="matrix" values="0 0 0 0 1 0 0 0 0 1 0 0 0 0 1 0 0 0 0.08 0"/>
<feBlend mode="normal" in2="shape" result="effect1_innerShadow_12140_57111"/>
</filter>
<filter id="filter4_i_12140_57111" x="323" y="373.24" width="857" height="12" filterUnits="userSpaceOnUse" color-interpolation-filters="sRGB">
<feFlood flood-opacity="0" result="BackgroundImageFix"/>
<feBlend mode="normal" in="SourceGraphic" in2="BackgroundImageFix" result="shape"/>
<feColorMatrix in="SourceAlpha" type="matrix" values="0 0 0 0 0 0 0 0 0 0 0 0 0 0 0 0 0 0 127 0" result="hardAlpha"/>
<feOffset dy="1"/>
<feComposite in2="hardAlpha" operator="arithmetic" k2="-1" k3="1"/>
<feColorMatrix type="matrix" values="0 0 0 0 1 0 0 0 0 1 0 0 0 0 1 0 0 0 0.08 0"/>
<feBlend mode="normal" in2="shape" result="effect1_innerShadow_12140_57111"/>
</filter>
<linearGradient id="paint0_linear_12140_57111" x1="754.5" y1="73.1351" x2="754.5" y2="85.1351" gradientUnits="userSpaceOnUse">
<stop stop-color="white" stop-opacity="0.12"/>
<stop offset="1" stop-color="white" stop-opacity="0.02"/>
</linearGradient>
<linearGradient id="paint1_linear_12140_57111" x1="864" y1="13.9051" x2="864" y2="90.6854" gradientUnits="userSpaceOnUse">
<stop/>
<stop offset="1" stop-opacity="0"/>
</linearGradient>
<linearGradient id="paint2_linear_12140_57111" x1="754.5" y1="148.132" x2="754.5" y2="160.132" gradientUnits="userSpaceOnUse">
<stop stop-color="white" stop-opacity="0.12"/>
<stop offset="1" stop-color="white" stop-opacity="0.02"/>
</linearGradient>
<linearGradient id="paint3_linear_12140_57111" x1="864" y1="13.9051" x2="864" y2="90.6854" gradientUnits="userSpaceOnUse">
<stop/>
<stop offset="1" stop-opacity="0"/>
</linearGradient>
<linearGradient id="paint4_linear_12140_57111" x1="754.5" y1="223.137" x2="754.5" y2="235.137" gradientUnits="userSpaceOnUse">
<stop stop-color="white" stop-opacity="0.12"/>
<stop offset="1" stop-color="white" stop-opacity="0.02"/>
</linearGradient>
<linearGradient id="paint5_linear_12140_57111" x1="864" y1="13.9051" x2="864" y2="90.6854" gradientUnits="userSpaceOnUse">
<stop/>
<stop offset="1" stop-opacity="0"/>
</linearGradient>
<linearGradient id="paint6_linear_12140_57111" x1="754.5" y1="298.134" x2="754.5" y2="310.134" gradientUnits="userSpaceOnUse">
<stop stop-color="white" stop-opacity="0.12"/>
<stop offset="1" stop-color="white" stop-opacity="0.02"/>
</linearGradient>
<linearGradient id="paint7_linear_12140_57111" x1="864" y1="13.9051" x2="864" y2="90.6854" gradientUnits="userSpaceOnUse">
<stop/>
<stop offset="1" stop-opacity="0"/>
</linearGradient>
<linearGradient id="paint8_linear_12140_57111" x1="751.5" y1="373.24" x2="751.5" y2="385.24" gradientUnits="userSpaceOnUse">
<stop stop-color="white" stop-opacity="0.12"/>
<stop offset="1" stop-color="white" stop-opacity="0.02"/>
</linearGradient>
<linearGradient id="paint9_linear_12140_57111" x1="864" y1="13.9051" x2="864" y2="90.6854" gradientUnits="userSpaceOnUse">
<stop/>
<stop offset="1" stop-opacity="0"/>
</linearGradient>
<clipPath id="clip0_12140_57111">
<rect width="863" height="63.4766" fill="white" transform="translate(323 47.8148)"/>
</clipPath>
<clipPath id="clip1_12140_57111">
<rect width="863" height="63.4766" fill="white" transform="translate(323 122.921)"/>
</clipPath>
<clipPath id="clip2_12140_57111">
<rect width="863" height="63.4766" fill="white" transform="translate(323 198.027)"/>
</clipPath>
<clipPath id="clip3_12140_57111">
<rect width="863" height="63.4766" fill="white" transform="translate(323 273.134)"/>
</clipPath>
<clipPath id="clip4_12140_57111">
<rect width="857" height="63.4766" fill="white" transform="translate(323 348.24)"/>
</clipPath>
</defs>
</svg>
