<svg width="24" height="24" viewBox="0 0 24 24" fill="none" xmlns="http://www.w3.org/2000/svg">
<path d="M12.0005 9.75196C12.4257 9.75196 12.773 10.0983 12.773 10.5236C12.773 10.9116 13.0883 11.226 13.4763 11.226C13.8635 11.226 14.1788 10.9116 14.1788 10.5236C14.1788 9.57035 13.5578 8.76598 12.703 8.47188V8.07323C12.703 7.68611 12.3885 7.36985 12.0005 7.36985C11.6116 7.36985 11.2971 7.68611 11.2971 8.07323V8.47188C10.4422 8.76598 9.82301 9.57035 9.82301 10.5236C9.82301 11.7257 10.7992 12.7019 12.0005 12.7019C12.4257 12.7019 12.773 13.0492 12.773 13.4744C12.773 13.9005 12.4257 14.2469 12.0005 14.2469C11.5753 14.2469 11.2289 13.9005 11.2289 13.4744C11.2289 13.0864 10.9135 12.771 10.5255 12.771C10.1366 12.771 9.82301 13.0864 9.82301 13.4744C9.82301 14.4276 10.4422 15.2311 11.2971 15.5252V15.9238C11.2971 16.3127 11.6116 16.6281 12.0005 16.6281C12.3885 16.6281 12.703 16.3127 12.703 15.9238V15.5252C13.5578 15.2311 14.1788 14.4276 14.1788 13.4744C14.1788 12.2731 13.2017 11.296 12.0005 11.296C11.5753 11.296 11.2289 10.9497 11.2289 10.5236C11.2289 10.0983 11.5753 9.75196 12.0005 9.75196ZM17.8906 15.9026C18.2352 16.0842 18.6596 15.9522 18.8403 15.6102C19.425 14.5055 19.7332 13.2565 19.7332 11.9985C19.7332 7.73572 16.2633 4.26665 12.0005 4.26665C7.73678 4.26665 4.26772 7.73572 4.26772 11.9985C4.26772 16.2622 7.73678 19.7313 12.0005 19.7313C13.2398 19.7313 14.4712 19.4319 15.5617 18.864C15.9063 18.686 16.04 18.2599 15.8611 17.9161C15.6822 17.5733 15.2578 17.4369 14.9123 17.6167C14.0096 18.088 13.029 18.3263 12.0005 18.3263C8.51192 18.3263 5.67271 15.488 5.67271 11.9985C5.67271 8.51085 8.51192 5.67164 12.0005 5.67164C15.489 5.67164 18.3283 8.51085 18.3283 11.9985C18.3283 13.0288 18.0749 14.0502 17.5983 14.952C17.4158 15.2957 17.5469 15.721 17.8906 15.9026ZM12.0005 1.45312C9.96386 1.45312 7.9866 2.03603 6.28307 3.13716C5.95619 3.348 5.86317 3.78296 6.07401 4.10896C6.28573 4.43496 6.71892 4.52709 7.04669 4.31803C8.52078 3.36483 10.2358 2.85989 12.0005 2.85989C17.0402 2.85989 21.1391 6.9597 21.1391 11.9985C21.1391 17.0382 17.0402 21.1381 12.0005 21.1381C6.96076 21.1381 2.86095 17.0382 2.86095 11.9985C2.86095 10.2507 3.35616 8.55072 4.29429 7.0846C4.50336 6.75683 4.40768 6.32187 4.07991 6.1128C3.75303 5.90374 3.31806 5.99941 3.10988 6.3263C2.02735 8.0192 1.45508 9.98229 1.45508 11.9985C1.45508 17.8143 6.18474 22.5439 12.0005 22.5439C17.8153 22.5439 22.5459 17.8143 22.5459 11.9985C22.5459 6.18456 17.8153 1.45312 12.0005 1.45312Z" fill="white"/>
</svg>
