<svg width="126" height="79" viewBox="0 0 126 79" fill="none" xmlns="http://www.w3.org/2000/svg">
<rect x="1.88049" y="0.976191" width="123" height="76.1429" rx="6.83333" fill="white"/>
<rect x="1.88049" y="0.976191" width="123" height="76.1429" rx="6.83333" stroke="#E6E6E6" stroke-width="1.95238"/>
<g clip-path="url(#clip0_8341_36166)">
<path d="M36.124 25.9907C35.1173 27.1732 33.5063 28.1062 31.8954 27.9728C31.694 26.3739 32.4826 24.6747 33.4056 23.6253C34.4123 22.4094 36.1743 21.5432 37.6007 21.4766C37.7684 23.1423 37.1139 24.7747 36.124 25.9907ZM37.5841 28.2894C35.2515 28.1562 33.2548 29.6052 32.1472 29.6052C31.0231 29.6052 29.3281 28.3561 27.4824 28.3894C25.0829 28.4227 22.8511 29.7718 21.6261 31.9207C19.109 36.2182 20.9717 42.5814 23.4047 46.0794C24.5962 47.8117 26.0225 49.7106 27.9018 49.644C29.6806 49.5774 30.3853 48.4948 32.5333 48.4948C34.6979 48.4948 35.3188 49.644 37.1982 49.6107C39.1446 49.5774 40.3696 47.8785 41.561 46.146C42.92 44.1805 43.4739 42.2648 43.5075 42.1649C43.4739 42.1316 39.7488 40.7159 39.7152 36.4514C39.6817 32.8868 42.6518 31.1878 42.786 31.0879C41.1078 28.6226 38.4902 28.3561 37.5841 28.2894ZM51.0587 23.4587V49.4276H55.1194V40.5493H60.7408C65.8754 40.5493 69.4832 37.0513 69.4832 31.9874C69.4832 26.9237 65.9425 23.4589 60.875 23.4589L51.0587 23.4587ZM55.1194 26.8569H59.801C63.3249 26.8569 65.3385 28.7225 65.3385 32.0039C65.3385 35.2854 63.3249 37.1678 59.7842 37.1678H55.1194V26.8569ZM76.8999 49.6273C79.4505 49.6273 81.8164 48.3449 82.8904 46.3126H82.9743V49.4275H86.7332V36.5014C86.7332 32.7536 83.7127 30.3382 79.0645 30.3382C74.752 30.3382 71.5637 32.7869 71.4463 36.1516H75.1045C75.4065 34.5525 76.8997 33.5031 78.947 33.5031C81.4305 33.5031 82.8233 34.6525 82.8233 36.768V38.2004L77.7556 38.5002C73.0404 38.7833 70.4899 40.699 70.4899 44.0306C70.4899 47.3953 73.1243 49.6273 76.8999 49.6273ZM77.9905 46.5457C75.8261 46.5457 74.4499 45.5131 74.4499 43.9305C74.4499 42.2983 75.7756 41.3488 78.3095 41.1989L82.8233 40.9157V42.3814C82.8233 44.8134 80.7426 46.5457 77.9907 46.5457M91.7505 56.4902C95.7107 56.4902 97.5733 54.9912 99.2009 50.4436L106.332 30.5881H102.204L97.4221 45.9293H97.3382L92.5559 30.5881H88.3105L95.1902 49.4941L94.8211 50.6435C94.2003 52.5923 93.1935 53.342 91.398 53.342C91.0792 53.342 90.4584 53.3087 90.2066 53.2754V56.3902C90.4415 56.4569 91.4482 56.4902 91.7504 56.4902" fill="black"/>
</g>
<defs>
<clipPath id="clip0_8341_36166">
<rect width="85.9048" height="35.1429" fill="white" transform="translate(20.4277 21.4766)"/>
</clipPath>
</defs>
</svg>
