<svg width="126" height="79" viewBox="0 0 126 79" fill="none" xmlns="http://www.w3.org/2000/svg">
<rect x="1.35705" y="1.88244" width="123" height="76.1429" rx="6.83333" fill="white"/>
<rect x="1.35705" y="1.88244" width="123" height="76.1429" rx="6.83333" stroke="#E6E6E6" stroke-width="1.95238"/>
<g clip-path="url(#clip0_8341_36161)">
<path d="M54.3926 24.5781H71.2685V55.092H54.3926V24.5781Z" fill="#FF5F00"/>
<path d="M55.4599 39.8378C55.4599 33.6381 58.3528 28.139 62.7994 24.5808C59.5316 21.9931 55.4065 20.4297 50.9062 20.4297C40.2445 20.4297 31.6191 29.1093 31.6191 39.8378C31.6191 50.5663 40.2445 59.246 50.906 59.246C55.4062 59.246 59.5314 57.6826 62.7994 55.0946C58.3528 51.5904 55.4599 46.0376 55.4599 39.8378Z" fill="#EB001B"/>
<path d="M94.0299 39.8378C94.0299 50.5661 85.4045 59.246 74.743 59.246C70.2428 59.246 66.1177 57.6826 62.8496 55.0946C67.3498 51.5366 70.1893 46.0376 70.1893 39.8378C70.1893 33.6381 67.2962 28.139 62.8496 24.5808C66.1174 21.9931 70.2428 20.4297 74.743 20.4297C85.4045 20.4297 94.0299 29.1633 94.0299 39.8378Z" fill="#F79E1B"/>
</g>
<defs>
<clipPath id="clip0_8341_36161">
<rect width="62.4762" height="39.0476" fill="white" transform="translate(31.6191 20.4297)"/>
</clipPath>
</defs>
</svg>
