<svg width="125" height="79" viewBox="0 0 125 79" fill="none" xmlns="http://www.w3.org/2000/svg">
<rect x="0.976191" y="0.976191" width="123" height="76.1429" rx="6.83333" fill="white"/>
<rect x="0.976191" y="0.976191" width="123" height="76.1429" rx="6.83333" stroke="#E6E6E6" stroke-width="1.95238"/>
<g clip-path="url(#clip0_8341_36158)">
<path d="M63.8167 34.4606C63.7722 37.9737 66.9475 39.934 69.3395 41.0996C71.7971 42.2955 72.6225 43.0624 72.6128 44.1319C72.5945 45.7686 70.6525 46.491 68.8352 46.519C65.6648 46.5681 63.8213 45.663 62.3558 44.9785L61.2136 50.3228C62.684 51.0004 65.4067 51.5913 68.23 51.6172C74.8574 51.6172 79.1932 48.3457 79.2167 43.2735C79.2426 36.8361 70.3126 36.4798 70.3736 33.6025C70.3947 32.73 71.2272 31.799 73.0515 31.5623C73.9544 31.4427 76.4471 31.3512 79.2731 32.6525L80.3823 27.4818C78.8625 26.9284 76.9092 26.3985 74.4773 26.3985C68.2395 26.3985 63.8521 29.7145 63.8167 34.4606ZM91.0405 26.8439C89.8303 26.8439 88.8105 27.5498 88.3554 28.6331L78.8885 51.2374H85.511L86.8289 47.5953H94.9215L95.686 51.2374H101.523L96.4294 26.8439H91.0405ZM91.967 33.4335L93.8782 42.5935H88.644L91.967 33.4335ZM55.7872 26.8442L50.567 51.2371H56.8778L62.0956 26.8436L55.7872 26.8442ZM46.4515 26.8442L39.8829 43.4471L37.2259 29.3298C36.9141 27.7539 35.6829 26.8439 34.3156 26.8439H23.5781L23.4277 27.5523C25.6321 28.0306 28.1366 28.8021 29.654 29.6276C30.5826 30.1318 30.8474 30.5727 31.1525 31.7709L36.185 51.2374H42.8539L53.0783 26.8439L46.4515 26.8442Z" fill="url(#paint0_linear_8341_36158)"/>
</g>
<defs>
<linearGradient id="paint0_linear_8341_36158" x1="3613.78" y1="102.206" x2="3686.78" y2="-2487.79" gradientUnits="userSpaceOnUse">
<stop stop-color="#222357"/>
<stop offset="1" stop-color="#254AA5"/>
</linearGradient>
<clipPath id="clip0_8341_36158">
<rect width="78.0952" height="25.3199" fill="white" transform="translate(23.4277 26.3906)"/>
</clipPath>
</defs>
</svg>
