<svg width="24" height="24" viewBox="0 0 24 24" fill="none" xmlns="http://www.w3.org/2000/svg">
<rect width="24" height="24" rx="1.5" fill="#313131"/>
<path d="M15.0341 10.0745C15.0347 9.41908 14.8189 8.7818 14.4201 8.26165C14.0213 7.74149 13.4619 7.36758 12.8288 7.198C12.1957 7.02841 11.5244 7.07263 10.919 7.3238C10.3136 7.57498 9.8081 8.01903 9.48101 8.587C9.3683 8.78234 9.33779 9.01445 9.39622 9.23228C9.45464 9.45011 9.5972 9.63581 9.79254 9.74853C9.98788 9.86124 10.22 9.89174 10.4378 9.83332C10.6556 9.7749 10.8413 9.63234 10.9541 9.437C11.0662 9.24323 11.2274 9.08234 11.4213 8.97045C11.6152 8.85857 11.8352 8.79961 12.0591 8.7995C12.3972 8.7995 12.7215 8.93383 12.9606 9.17294C13.1997 9.41205 13.3341 9.73635 13.3341 10.0745C13.3341 10.4127 13.1997 10.737 12.9606 10.9761C12.7215 11.2152 12.3972 11.3495 12.0591 11.3495H12.0565C12.0017 11.355 11.9476 11.3661 11.895 11.3826C11.8379 11.3885 11.7816 11.3998 11.7267 11.4167C11.6801 11.4421 11.6359 11.472 11.595 11.5059C11.5461 11.5325 11.5 11.5638 11.4573 11.5994C11.419 11.6451 11.3857 11.6947 11.3578 11.7473C11.3268 11.7856 11.2992 11.8265 11.2754 11.8697C11.2568 11.9283 11.2446 11.9887 11.2388 12.0499C11.2242 12.0987 11.2142 12.1488 11.2091 12.1995V13.0495L11.2108 13.0588V13.4762C11.2112 13.7013 11.301 13.9171 11.4603 14.0761C11.6197 14.2352 11.8356 14.3245 12.0608 14.3245H12.0633C12.1749 14.3243 12.2854 14.3021 12.3885 14.2591C12.4915 14.2162 12.5851 14.1534 12.6639 14.0743C12.7426 13.9953 12.8051 13.9014 12.8476 13.7982C12.8901 13.695 12.9118 13.5844 12.9116 13.4728L12.9099 12.9101C13.5216 12.7284 14.0585 12.3545 14.4411 11.8437C14.8237 11.333 15.0316 10.7126 15.0341 10.0745ZM11.4615 15.846C11.3422 15.9644 11.2606 16.1155 11.2271 16.2802C11.1936 16.445 11.2097 16.6159 11.2734 16.7715C11.3371 16.9271 11.4455 17.0603 11.5849 17.1543C11.7243 17.2483 11.8884 17.2988 12.0565 17.2995C12.2818 17.2976 12.4978 17.2093 12.66 17.053C12.8178 16.8918 12.9062 16.6751 12.9062 16.4495C12.9062 16.2239 12.8178 16.0072 12.66 15.846C12.4973 15.6944 12.2832 15.61 12.0608 15.61C11.8384 15.61 11.6242 15.6944 11.4615 15.846Z" fill="#D5D4D4"/>
</svg>
