<svg width="16" height="17" viewBox="0 0 16 17" fill="none" xmlns="http://www.w3.org/2000/svg">
<path d="M2.5 8.03126C2.22386 8.03126 2 8.25511 2 8.53126C2 8.8074 2.22386 9.03126 2.5 9.03126L12.197 9.03125L8.16552 12.6596C7.96026 12.8443 7.94362 13.1605 8.12835 13.3657C8.31308 13.571 8.62923 13.5876 8.83448 13.4029L13.8345 8.9029C13.9398 8.80808 14 8.673 14 8.53125C14 8.38951 13.9398 8.25443 13.8345 8.15961L8.83448 3.65961C8.62923 3.47488 8.31308 3.49152 8.12835 3.69677C7.94362 3.90203 7.96026 4.21817 8.16552 4.4029L12.197 8.03125L2.5 8.03126Z" fill="#FAFAFA"/>
</svg>
