<svg width="166" height="20" viewBox="0 0 166 20" fill="none" xmlns="http://www.w3.org/2000/svg">
<path d="M0 5.47664L7.14282 0.215263V2.69823L0 7.95961V5.47664Z" fill="white"/>
<path d="M14.2861 5.47664L7.14331 0.215263V2.69823L14.2861 7.95961V5.47664Z" fill="white"/>
<path d="M0 11.1918L7.14282 5.93043V8.41339L0 13.6748V11.1918Z" fill="white"/>
<path d="M14.2861 11.1918L7.14331 5.93043V8.41339L14.2861 13.6748V11.1918Z" fill="white"/>
<path d="M3.75 8.5423L9.99997 3.93859V6.11119L3.75 10.7149V8.5423Z" fill="white"/>
<path d="M16.25 8.5423L10 3.93859V6.11119L16.25 10.7149V8.5423Z" fill="white"/>
<path d="M3.75 13.5423L9.99997 8.93863V11.1112L3.75 15.7149V13.5423Z" fill="white"/>
<path d="M16.25 13.5423L10 8.93863V11.1112L16.25 15.7149V13.5423Z" fill="white"/>
<rect width="20" height="20" rx="1.42857" fill="white"/>
<rect width="20" height="20" rx="1.42857" fill="#181718"/>
<path d="M4.28516 8.82571L9.99927 4.61668V6.60302L4.28516 10.8121V8.82571Z" fill="white"/>
<path d="M15.7139 8.82582L9.99975 4.61679V6.60313L15.7139 10.8122V8.82582Z" fill="white"/>
<path d="M4.28516 13.3971L9.99927 9.18806V11.1744L4.28516 15.3834V13.3971Z" fill="white"/>
<path d="M15.7139 13.3971L9.99975 9.18806V11.1744L15.7139 15.3834V13.3971Z" fill="white"/>
<path d="M33.4237 18.7988C32.7494 18.7988 32.1266 18.6902 31.5551 18.473C30.9837 18.2559 30.4923 17.953 30.0808 17.5645C29.6694 17.1873 29.3608 16.7416 29.1551 16.2273L30.938 15.4902C31.098 15.9245 31.3894 16.2845 31.8123 16.5702C32.2466 16.8559 32.778 16.9988 33.4066 16.9988C33.898 16.9988 34.338 16.9016 34.7266 16.7073C35.1151 16.5245 35.4237 16.2502 35.6523 15.8845C35.8808 15.5302 35.9951 15.1016 35.9951 14.5988V12.5073L36.338 12.9016C36.018 13.4959 35.5723 13.9473 35.0008 14.2559C34.4408 14.5645 33.8066 14.7188 33.098 14.7188C32.2408 14.7188 31.4694 14.5188 30.7837 14.1188C30.098 13.7188 29.5551 13.1702 29.1551 12.473C28.7666 11.7759 28.5723 10.993 28.5723 10.1245C28.5723 9.24448 28.7666 8.46162 29.1551 7.7759C29.5551 7.09019 30.0923 6.54733 30.7666 6.14733C31.4408 5.74733 32.2123 5.54733 33.0808 5.54733C33.7894 5.54733 34.418 5.70162 34.9666 6.01019C35.5266 6.30733 35.9837 6.74162 36.338 7.31305L36.0808 7.79305V5.75305H37.9151V14.5988C37.9151 15.3988 37.7208 16.113 37.3323 16.7416C36.9551 17.3816 36.4294 17.8845 35.7551 18.2502C35.0808 18.6159 34.3037 18.7988 33.4237 18.7988ZM33.3208 12.9188C33.8351 12.9188 34.2923 12.7988 34.6923 12.5588C35.0923 12.3073 35.4066 11.9759 35.6351 11.5645C35.8751 11.1416 35.9951 10.6673 35.9951 10.1416C35.9951 9.6159 35.8751 9.14162 35.6351 8.71876C35.3951 8.2959 35.0751 7.96448 34.6751 7.72448C34.2751 7.47305 33.8237 7.34733 33.3208 7.34733C32.7951 7.34733 32.3266 7.47305 31.9151 7.72448C31.5037 7.96448 31.178 8.2959 30.938 8.71876C30.7094 9.13019 30.5951 9.60448 30.5951 10.1416C30.5951 10.6559 30.7094 11.1245 30.938 11.5473C31.178 11.9702 31.5037 12.3073 31.9151 12.5588C32.3266 12.7988 32.7951 12.9188 33.3208 12.9188Z" fill="#272625"/>
<path d="M40.1827 15.0273V2.05019H42.1198V15.0273H40.1827Z" fill="#272625"/>
<path d="M47.6932 15.233C46.9961 15.233 46.3847 15.0788 45.859 14.7702C45.3332 14.4502 44.9218 14.0102 44.6247 13.4502C44.339 12.8788 44.1961 12.2216 44.1961 11.4788V5.75305H46.1332V11.3073C46.1332 11.7302 46.219 12.1016 46.3904 12.4216C46.5618 12.7416 46.8018 12.993 47.1104 13.1759C47.419 13.3473 47.7732 13.433 48.1732 13.433C48.5847 13.433 48.9447 13.3416 49.2532 13.1588C49.5618 12.9759 49.8018 12.7188 49.9732 12.3873C50.1561 12.0559 50.2475 11.6673 50.2475 11.2216V5.75305H52.1675V15.0273H50.3332V13.2102L50.539 13.4502C50.3218 14.0216 49.9618 14.4616 49.459 14.7702C48.9561 15.0788 48.3675 15.233 47.6932 15.233Z" fill="#272625"/>
<path d="M58.7836 15.233C57.8579 15.233 57.035 15.0216 56.315 14.5988C55.6065 14.1645 55.0522 13.5816 54.6522 12.8502C54.2522 12.1073 54.0522 11.2788 54.0522 10.3645C54.0522 9.42733 54.2522 8.59876 54.6522 7.87876C55.0636 7.15876 55.6122 6.59305 56.2979 6.18162C56.9836 5.75876 57.7607 5.54733 58.6293 5.54733C59.3265 5.54733 59.9493 5.66733 60.4979 5.90733C61.0465 6.14733 61.5093 6.47876 61.8865 6.90162C62.2636 7.31305 62.5493 7.78733 62.7436 8.32448C62.9493 8.86162 63.0522 9.43305 63.0522 10.0388C63.0522 10.1873 63.0465 10.3416 63.035 10.5016C63.0236 10.6616 63.0007 10.8102 62.9665 10.9473H55.5779V9.40448H61.8693L60.9436 10.1073C61.0579 9.54733 61.0179 9.05019 60.8236 8.6159C60.6407 8.17019 60.355 7.82162 59.9665 7.57019C59.5893 7.30733 59.1436 7.1759 58.6293 7.1759C58.115 7.1759 57.6579 7.30733 57.2579 7.57019C56.8579 7.82162 56.5493 8.18733 56.3322 8.66733C56.115 9.1359 56.0293 9.70733 56.075 10.3816C56.0179 11.0102 56.1036 11.5588 56.3322 12.0273C56.5722 12.4959 56.9036 12.8616 57.3265 13.1245C57.7607 13.3873 58.2522 13.5188 58.8007 13.5188C59.3607 13.5188 59.835 13.393 60.2236 13.1416C60.6236 12.8902 60.9379 12.5645 61.1665 12.1645L62.7436 12.9359C62.5607 13.3702 62.275 13.7645 61.8865 14.1188C61.5093 14.4616 61.0522 14.7359 60.515 14.9416C59.9893 15.1359 59.4122 15.233 58.7836 15.233Z" fill="#272625"/>
<path d="M68.3713 15.233C67.4227 15.233 66.5884 14.9988 65.8684 14.5302C65.1599 14.0616 64.6627 13.433 64.377 12.6445L65.8684 11.9416C66.1199 12.4673 66.4627 12.8845 66.897 13.193C67.3427 13.5016 67.8341 13.6559 68.3713 13.6559C68.8284 13.6559 69.1999 13.553 69.4856 13.3473C69.7713 13.1416 69.9141 12.8616 69.9141 12.5073C69.9141 12.2788 69.8513 12.0959 69.7256 11.9588C69.5999 11.8102 69.4399 11.6902 69.2456 11.5988C69.0627 11.5073 68.8741 11.4388 68.6799 11.393L67.2227 10.9816C66.4227 10.753 65.8227 10.4102 65.4227 9.95305C65.0341 9.48448 64.8399 8.94162 64.8399 8.32448C64.8399 7.76448 64.9827 7.27876 65.2684 6.86733C65.5541 6.44448 65.9484 6.11876 66.4513 5.89019C66.9541 5.66162 67.5198 5.54733 68.1484 5.54733C68.9941 5.54733 69.7484 5.75876 70.4113 6.18162C71.0741 6.59305 71.5427 7.17019 71.817 7.91305L70.3256 8.6159C70.1427 8.17019 69.8513 7.8159 69.4513 7.55305C69.0627 7.29019 68.6227 7.15876 68.1313 7.15876C67.7084 7.15876 67.3713 7.26162 67.1199 7.46733C66.8684 7.66162 66.7427 7.91876 66.7427 8.23876C66.7427 8.4559 66.7999 8.63876 66.9141 8.78733C67.0284 8.92448 67.177 9.03876 67.3598 9.13019C67.5427 9.21019 67.7313 9.27876 67.9256 9.3359L69.4341 9.78162C70.1999 9.99876 70.7884 10.3416 71.1999 10.8102C71.6113 11.2673 71.817 11.8159 71.817 12.4559C71.817 13.0045 71.6684 13.4902 71.3713 13.913C71.0856 14.3245 70.6856 14.6502 70.1713 14.8902C69.657 15.1188 69.057 15.233 68.3713 15.233Z" fill="#272625"/>
<path d="M77.7265 15.1302C76.755 15.1302 76.0007 14.8559 75.4636 14.3073C74.9265 13.7588 74.6579 12.9873 74.6579 11.993V7.50162H73.0293V5.75305H73.2865C73.7207 5.75305 74.0579 5.62733 74.2979 5.3759C74.5379 5.12448 74.6579 4.78162 74.6579 4.34733V3.62733H76.595V5.75305H78.7036V7.50162H76.595V11.9073C76.595 12.2273 76.6465 12.5016 76.7493 12.7302C76.8522 12.9473 77.0179 13.1188 77.2465 13.2445C77.475 13.3588 77.7722 13.4159 78.1379 13.4159C78.2293 13.4159 78.3322 13.4102 78.4465 13.3988C78.5607 13.3873 78.6693 13.3759 78.7722 13.3645V15.0273C78.6122 15.0502 78.435 15.073 78.2407 15.0959C78.0465 15.1188 77.875 15.1302 77.7265 15.1302Z" fill="#272625"/>
<path d="M83.356 15.233C82.7274 15.233 82.1732 15.1245 81.6932 14.9073C81.2246 14.6788 80.8589 14.3702 80.596 13.9816C80.3332 13.5816 80.2017 13.113 80.2017 12.5759C80.2017 12.073 80.3103 11.6216 80.5274 11.2216C80.756 10.8216 81.1046 10.4845 81.5732 10.2102C82.0417 9.9359 82.6303 9.74162 83.3389 9.62733L86.5617 9.0959V10.6216L83.716 11.1188C83.2017 11.2102 82.8246 11.3759 82.5846 11.6159C82.3446 11.8445 82.2246 12.1416 82.2246 12.5073C82.2246 12.8616 82.356 13.153 82.6189 13.3816C82.8932 13.5988 83.2417 13.7073 83.6646 13.7073C84.1903 13.7073 84.6474 13.593 85.036 13.3645C85.436 13.1359 85.7446 12.833 85.9617 12.4559C86.1789 12.0673 86.2874 11.6388 86.2874 11.1702V8.78733C86.2874 8.33019 86.116 7.95876 85.7732 7.67305C85.4417 7.3759 84.996 7.22733 84.436 7.22733C83.9217 7.22733 83.4703 7.36448 83.0817 7.63876C82.7046 7.90162 82.4246 8.24448 82.2417 8.66733L80.6303 7.86162C80.8017 7.40448 81.0817 7.00448 81.4703 6.66162C81.8589 6.30733 82.3103 6.03305 82.8246 5.83876C83.3503 5.64448 83.9046 5.54733 84.4874 5.54733C85.2189 5.54733 85.8646 5.68448 86.4246 5.95876C86.996 6.23305 87.436 6.6159 87.7446 7.10733C88.0646 7.58733 88.2246 8.14733 88.2246 8.78733V15.0273H86.3732V13.3473L86.7674 13.3988C86.5503 13.7759 86.2703 14.1016 85.9274 14.3759C85.596 14.6502 85.2132 14.8616 84.7789 15.0102C84.356 15.1588 83.8817 15.233 83.356 15.233Z" fill="#272625"/>
<path d="M94.8953 15.233C93.9696 15.233 93.1467 15.0216 92.4267 14.5988C91.7182 14.1645 91.1524 13.5816 90.7296 12.8502C90.3182 12.1188 90.1124 11.2902 90.1124 10.3645C90.1124 9.45019 90.3182 8.62733 90.7296 7.8959C91.141 7.16448 91.7067 6.59305 92.4267 6.18162C93.1467 5.75876 93.9696 5.54733 94.8953 5.54733C95.5239 5.54733 96.1124 5.66162 96.661 5.89019C97.2096 6.10733 97.6839 6.41019 98.0839 6.79876C98.4953 7.18733 98.7982 7.63876 98.9924 8.15305L97.2953 8.94162C97.101 8.46162 96.7867 8.07876 96.3524 7.79305C95.9296 7.4959 95.4439 7.34733 94.8953 7.34733C94.3696 7.34733 93.8953 7.47876 93.4724 7.74162C93.061 7.99305 92.7353 8.35305 92.4953 8.82162C92.2553 9.27876 92.1353 9.79876 92.1353 10.3816C92.1353 10.9645 92.2553 11.4902 92.4953 11.9588C92.7353 12.4159 93.061 12.7759 93.4724 13.0388C93.8953 13.3016 94.3696 13.433 94.8953 13.433C95.4553 13.433 95.941 13.2902 96.3524 13.0045C96.7753 12.7073 97.0896 12.313 97.2953 11.8216L98.9924 12.6273C98.8096 13.1188 98.5124 13.5645 98.101 13.9645C97.701 14.353 97.2267 14.6616 96.6782 14.8902C96.1296 15.1188 95.5353 15.233 94.8953 15.233Z" fill="#272625"/>
<path d="M100.886 15.0273V2.05019H102.823V10.7416L102.069 10.553L106.714 5.75305H109.131L105.634 9.47305L109.286 15.0273H107.057L103.8 10.1073L104.949 9.95305L102.206 12.8673L102.823 11.5816V15.0273H100.886Z" fill="#272625"/>
<path d="M110.904 11.2388V9.52448H117.761V11.2388H110.904Z" fill="#272625"/>
<path d="M123.631 15.233C122.934 15.233 122.322 15.0788 121.796 14.7702C121.271 14.4502 120.859 14.0102 120.562 13.4502C120.276 12.8788 120.134 12.2216 120.134 11.4788V5.75305H122.071V11.3073C122.071 11.7302 122.156 12.1016 122.328 12.4216C122.499 12.7416 122.739 12.993 123.048 13.1759C123.356 13.3473 123.711 13.433 124.111 13.433C124.522 13.433 124.882 13.3416 125.191 13.1588C125.499 12.9759 125.739 12.7188 125.911 12.3873C126.094 12.0559 126.185 11.6673 126.185 11.2216V5.75305H128.105V15.0273H126.271V13.2102L126.476 13.4502C126.259 14.0216 125.899 14.4616 125.396 14.7702C124.894 15.0788 124.305 15.233 123.631 15.233Z" fill="#272625"/>
<path d="M130.367 15.0273V5.75305H132.304V15.0273H130.367ZM130.367 4.48448V2.2559H132.304V4.48448H130.367Z" fill="#272625"/>
<rect x="136.59" y="2.07159" width="29.1427" height="15.8571" rx="7.92856" fill="#F6F6F6"/>
<path d="M147.718 12.4743L149.141 7.68863H150.484L148.464 13.5001H147.626L147.718 12.4743ZM146.627 7.68863L148.078 12.4958L148.147 13.5001H147.31L145.279 7.68863H146.627ZM156.596 10.7126V11.7438H150.957L150.914 10.965L154.287 5.67984H155.323L154.201 7.60269L152.262 10.7126H156.596ZM155.619 5.67984V13.5001H154.324V5.67984H155.619Z" fill="#404040"/>
</svg>
