<svg width="166" height="20" viewBox="0 0 166 20" fill="none" xmlns="http://www.w3.org/2000/svg">
<path d="M0 5.47671L7.14282 0.215332V2.6983L0 7.95968V5.47671Z" fill="white"/>
<path d="M14.2852 5.47671L7.14234 0.215332V2.6983L14.2852 7.95968V5.47671Z" fill="white"/>
<path d="M0 11.1916L7.14282 5.93018V8.41314L0 13.6745V11.1916Z" fill="white"/>
<path d="M14.2852 11.1916L7.14234 5.93018V8.41314L14.2852 13.6745V11.1916Z" fill="white"/>
<path d="M3.75 8.54218L9.99997 3.93848V6.11107L3.75 10.7148V8.54218Z" fill="white"/>
<path d="M16.25 8.54218L10 3.93848V6.11107L16.25 10.7148V8.54218Z" fill="white"/>
<path d="M3.75 13.5422L9.99997 8.93848V11.1111L3.75 15.7148V13.5422Z" fill="white"/>
<path d="M16.25 13.5422L10 8.93848V11.1111L16.25 15.7148V13.5422Z" fill="white"/>
<rect width="20" height="20" rx="1.42857" fill="white"/>
<rect width="20" height="20" rx="1.42857" fill="#181718"/>
<path d="M4.28516 8.82573L9.99927 4.6167V6.60304L4.28516 10.8121V8.82573Z" fill="white"/>
<path d="M15.7148 8.82573L10.0007 4.6167V6.60304L15.7148 10.8121V8.82573Z" fill="white"/>
<path d="M4.28516 13.397L9.99927 9.18799V11.1743L4.28516 15.3834V13.397Z" fill="white"/>
<path d="M15.7148 13.397L10.0007 9.18799V11.1743L15.7148 15.3834V13.397Z" fill="white"/>
<path d="M33.4237 18.7984C32.7494 18.7984 32.1266 18.6898 31.5551 18.4727C30.9837 18.2555 30.4923 17.9527 30.0808 17.5641C29.6694 17.1869 29.3608 16.7412 29.1551 16.2269L30.938 15.4898C31.098 15.9241 31.3894 16.2841 31.8123 16.5698C32.2466 16.8555 32.778 16.9984 33.4066 16.9984C33.898 16.9984 34.338 16.9012 34.7266 16.7069C35.1151 16.5241 35.4237 16.2498 35.6523 15.8841C35.8808 15.5298 35.9951 15.1012 35.9951 14.5984V12.5069L36.338 12.9012C36.018 13.4955 35.5723 13.9469 35.0008 14.2555C34.4408 14.5641 33.8066 14.7184 33.098 14.7184C32.2408 14.7184 31.4694 14.5184 30.7837 14.1184C30.098 13.7184 29.5551 13.1698 29.1551 12.4727C28.7666 11.7755 28.5723 10.9927 28.5723 10.1241C28.5723 9.24409 28.7666 8.46123 29.1551 7.77552C29.5551 7.0898 30.0923 6.54695 30.7666 6.14695C31.4408 5.74695 32.2123 5.54695 33.0808 5.54695C33.7894 5.54695 34.418 5.70123 34.9666 6.0098C35.5266 6.30695 35.9837 6.74123 36.338 7.31266L36.0808 7.79266V5.75266H37.9151V14.5984C37.9151 15.3984 37.7208 16.1127 37.3323 16.7412C36.9551 17.3812 36.4294 17.8841 35.7551 18.2498C35.0808 18.6155 34.3037 18.7984 33.4237 18.7984ZM33.3208 12.9184C33.8351 12.9184 34.2923 12.7984 34.6923 12.5584C35.0923 12.3069 35.4066 11.9755 35.6351 11.5641C35.8751 11.1412 35.9951 10.6669 35.9951 10.1412C35.9951 9.61552 35.8751 9.14123 35.6351 8.71838C35.3951 8.29552 35.0751 7.96409 34.6751 7.72409C34.2751 7.47266 33.8237 7.34695 33.3208 7.34695C32.7951 7.34695 32.3266 7.47266 31.9151 7.72409C31.5037 7.96409 31.178 8.29552 30.938 8.71838C30.7094 9.1298 30.5951 9.60409 30.5951 10.1412C30.5951 10.6555 30.7094 11.1241 30.938 11.5469C31.178 11.9698 31.5037 12.3069 31.9151 12.5584C32.3266 12.7984 32.7951 12.9184 33.3208 12.9184Z" fill="#272625"/>
<path d="M40.1827 15.0269V2.0498H42.1198V15.0269H40.1827Z" fill="#272625"/>
<path d="M47.6932 15.2327C46.9961 15.2327 46.3847 15.0784 45.859 14.7698C45.3332 14.4498 44.9218 14.0098 44.6247 13.4498C44.339 12.8784 44.1961 12.2212 44.1961 11.4784V5.75266H46.1332V11.3069C46.1332 11.7298 46.219 12.1012 46.3904 12.4212C46.5618 12.7412 46.8018 12.9927 47.1104 13.1755C47.419 13.3469 47.7732 13.4327 48.1732 13.4327C48.5847 13.4327 48.9447 13.3412 49.2532 13.1584C49.5618 12.9755 49.8018 12.7184 49.9732 12.3869C50.1561 12.0555 50.2475 11.6669 50.2475 11.2212V5.75266H52.1675V15.0269H50.3332V13.2098L50.539 13.4498C50.3218 14.0212 49.9618 14.4612 49.459 14.7698C48.9561 15.0784 48.3675 15.2327 47.6932 15.2327Z" fill="#272625"/>
<path d="M58.7836 15.2327C57.8579 15.2327 57.035 15.0212 56.315 14.5984C55.6065 14.1641 55.0522 13.5812 54.6522 12.8498C54.2522 12.1069 54.0522 11.2784 54.0522 10.3641C54.0522 9.42695 54.2522 8.59838 54.6522 7.87838C55.0636 7.15838 55.6122 6.59266 56.2979 6.18123C56.9836 5.75838 57.7607 5.54695 58.6293 5.54695C59.3265 5.54695 59.9493 5.66695 60.4979 5.90695C61.0465 6.14695 61.5093 6.47838 61.8865 6.90123C62.2636 7.31266 62.5493 7.78695 62.7436 8.32409C62.9493 8.86123 63.0522 9.43266 63.0522 10.0384C63.0522 10.1869 63.0465 10.3412 63.035 10.5012C63.0236 10.6612 63.0007 10.8098 62.9665 10.9469H55.5779V9.40409H61.8693L60.9436 10.1069C61.0579 9.54695 61.0179 9.0498 60.8236 8.61552C60.6407 8.1698 60.355 7.82123 59.9665 7.5698C59.5893 7.30695 59.1436 7.17552 58.6293 7.17552C58.115 7.17552 57.6579 7.30695 57.2579 7.5698C56.8579 7.82123 56.5493 8.18695 56.3322 8.66695C56.115 9.13552 56.0293 9.70695 56.075 10.3812C56.0179 11.0098 56.1036 11.5584 56.3322 12.0269C56.5722 12.4955 56.9036 12.8612 57.3265 13.1241C57.7607 13.3869 58.2522 13.5184 58.8007 13.5184C59.3607 13.5184 59.835 13.3927 60.2236 13.1412C60.6236 12.8898 60.9379 12.5641 61.1665 12.1641L62.7436 12.9355C62.5607 13.3698 62.275 13.7641 61.8865 14.1184C61.5093 14.4612 61.0522 14.7355 60.515 14.9412C59.9893 15.1355 59.4122 15.2327 58.7836 15.2327Z" fill="#272625"/>
<path d="M68.3713 15.2327C67.4227 15.2327 66.5884 14.9984 65.8684 14.5298C65.1599 14.0612 64.6627 13.4327 64.377 12.6441L65.8684 11.9412C66.1199 12.4669 66.4627 12.8841 66.897 13.1927C67.3427 13.5012 67.8341 13.6555 68.3713 13.6555C68.8284 13.6555 69.1999 13.5527 69.4856 13.3469C69.7713 13.1412 69.9141 12.8612 69.9141 12.5069C69.9141 12.2784 69.8513 12.0955 69.7256 11.9584C69.5998 11.8098 69.4398 11.6898 69.2456 11.5984C69.0627 11.5069 68.8741 11.4384 68.6799 11.3927L67.2227 10.9812C66.4227 10.7527 65.8227 10.4098 65.4227 9.95266C65.0341 9.48409 64.8399 8.94123 64.8399 8.32409C64.8399 7.76409 64.9827 7.27838 65.2684 6.86695C65.5541 6.44409 65.9484 6.11838 66.4513 5.8898C66.9541 5.66123 67.5199 5.54695 68.1484 5.54695C68.9941 5.54695 69.7484 5.75838 70.4113 6.18123C71.0741 6.59266 71.5427 7.16981 71.817 7.91266L70.3256 8.61552C70.1427 8.1698 69.8513 7.81552 69.4513 7.55266C69.0627 7.2898 68.6227 7.15838 68.1313 7.15838C67.7084 7.15838 67.3713 7.26123 67.1199 7.46695C66.8684 7.66123 66.7427 7.91838 66.7427 8.23838C66.7427 8.45552 66.7999 8.63838 66.9141 8.78695C67.0284 8.92409 67.177 9.03838 67.3598 9.1298C67.5427 9.20981 67.7313 9.27838 67.9256 9.33552L69.4341 9.78123C70.1999 9.99838 70.7884 10.3412 71.1999 10.8098C71.6113 11.2669 71.817 11.8155 71.817 12.4555C71.817 13.0041 71.6684 13.4898 71.3713 13.9127C71.0856 14.3241 70.6856 14.6498 70.1713 14.8898C69.657 15.1184 69.057 15.2327 68.3713 15.2327Z" fill="#272625"/>
<path d="M77.7265 15.1298C76.755 15.1298 76.0007 14.8555 75.4636 14.3069C74.9265 13.7584 74.6579 12.9869 74.6579 11.9927V7.50123H73.0293V5.75266H73.2865C73.7207 5.75266 74.0579 5.62695 74.2979 5.37552C74.5379 5.12409 74.6579 4.78123 74.6579 4.34695V3.62695H76.595V5.75266H78.7036V7.50123H76.595V11.9069C76.595 12.2269 76.6465 12.5012 76.7493 12.7298C76.8522 12.9469 77.0179 13.1184 77.2465 13.2441C77.475 13.3584 77.7722 13.4155 78.1379 13.4155C78.2293 13.4155 78.3322 13.4098 78.4465 13.3984C78.5607 13.3869 78.6693 13.3755 78.7722 13.3641V15.0269C78.6122 15.0498 78.435 15.0727 78.2407 15.0955C78.0465 15.1184 77.875 15.1298 77.7265 15.1298Z" fill="#272625"/>
<path d="M83.356 15.2327C82.7274 15.2327 82.1732 15.1241 81.6932 14.9069C81.2246 14.6784 80.8589 14.3698 80.596 13.9812C80.3332 13.5812 80.2017 13.1127 80.2017 12.5755C80.2017 12.0727 80.3103 11.6212 80.5274 11.2212C80.756 10.8212 81.1046 10.4841 81.5732 10.2098C82.0417 9.93552 82.6303 9.74123 83.3389 9.62695L86.5617 9.09552V10.6212L83.716 11.1184C83.2017 11.2098 82.8246 11.3755 82.5846 11.6155C82.3446 11.8441 82.2246 12.1412 82.2246 12.5069C82.2246 12.8612 82.356 13.1527 82.6189 13.3812C82.8932 13.5984 83.2417 13.7069 83.6646 13.7069C84.1903 13.7069 84.6474 13.5927 85.036 13.3641C85.436 13.1355 85.7446 12.8327 85.9617 12.4555C86.1789 12.0669 86.2874 11.6384 86.2874 11.1698V8.78695C86.2874 8.3298 86.116 7.95838 85.7732 7.67266C85.4417 7.37552 84.996 7.22695 84.436 7.22695C83.9217 7.22695 83.4703 7.36409 83.0817 7.63838C82.7046 7.90123 82.4246 8.24409 82.2417 8.66695L80.6303 7.86123C80.8017 7.40409 81.0817 7.00409 81.4703 6.66123C81.8589 6.30695 82.3103 6.03266 82.8246 5.83838C83.3503 5.64409 83.9046 5.54695 84.4874 5.54695C85.2189 5.54695 85.8646 5.68409 86.4246 5.95838C86.996 6.23266 87.436 6.61552 87.7446 7.10695C88.0646 7.58695 88.2246 8.14695 88.2246 8.78695V15.0269H86.3732V13.3469L86.7674 13.3984C86.5503 13.7755 86.2703 14.1012 85.9274 14.3755C85.596 14.6498 85.2132 14.8612 84.7789 15.0098C84.356 15.1584 83.8817 15.2327 83.356 15.2327Z" fill="#272625"/>
<path d="M94.8953 15.2327C93.9696 15.2327 93.1467 15.0212 92.4267 14.5984C91.7182 14.1641 91.1524 13.5812 90.7296 12.8498C90.3182 12.1184 90.1124 11.2898 90.1124 10.3641C90.1124 9.4498 90.3182 8.62695 90.7296 7.89552C91.141 7.16409 91.7067 6.59266 92.4267 6.18123C93.1467 5.75838 93.9696 5.54695 94.8953 5.54695C95.5239 5.54695 96.1124 5.66123 96.661 5.8898C97.2096 6.10695 97.6839 6.4098 98.0839 6.79838C98.4953 7.18695 98.7981 7.63838 98.9924 8.15266L97.2953 8.94123C97.101 8.46123 96.7867 8.07838 96.3524 7.79266C95.9296 7.49552 95.4439 7.34695 94.8953 7.34695C94.3696 7.34695 93.8953 7.47838 93.4724 7.74123C93.061 7.99266 92.7353 8.35266 92.4953 8.82123C92.2553 9.27838 92.1353 9.79838 92.1353 10.3812C92.1353 10.9641 92.2553 11.4898 92.4953 11.9584C92.7353 12.4155 93.061 12.7755 93.4724 13.0384C93.8953 13.3012 94.3696 13.4327 94.8953 13.4327C95.4553 13.4327 95.941 13.2898 96.3524 13.0041C96.7753 12.7069 97.0896 12.3127 97.2953 11.8212L98.9924 12.6269C98.8096 13.1184 98.5124 13.5641 98.101 13.9641C97.701 14.3527 97.2267 14.6612 96.6782 14.8898C96.1296 15.1184 95.5353 15.2327 94.8953 15.2327Z" fill="#272625"/>
<path d="M100.886 15.0269V2.0498H102.823V10.7412L102.069 10.5527L106.714 5.75266H109.132L105.634 9.47266L109.286 15.0269H107.057L103.8 10.1069L104.949 9.95266L102.206 12.8669L102.823 11.5812V15.0269H100.886Z" fill="#272625"/>
<path d="M110.904 11.2384V9.52409H117.761V11.2384H110.904Z" fill="#272625"/>
<path d="M123.631 15.2327C122.934 15.2327 122.322 15.0784 121.796 14.7698C121.271 14.4498 120.859 14.0098 120.562 13.4498C120.276 12.8784 120.134 12.2212 120.134 11.4784V5.75266H122.071V11.3069C122.071 11.7298 122.156 12.1012 122.328 12.4212C122.499 12.7412 122.739 12.9927 123.048 13.1755C123.356 13.3469 123.711 13.4327 124.111 13.4327C124.522 13.4327 124.882 13.3412 125.191 13.1584C125.499 12.9755 125.739 12.7184 125.911 12.3869C126.094 12.0555 126.185 11.6669 126.185 11.2212V5.75266H128.105V15.0269H126.271V13.2098L126.476 13.4498C126.259 14.0212 125.899 14.4612 125.396 14.7698C124.894 15.0784 124.305 15.2327 123.631 15.2327Z" fill="#272625"/>
<path d="M130.367 15.0269V5.75266H132.304V15.0269H130.367ZM130.367 4.48409V2.25552H132.304V4.48409H130.367Z" fill="#272625"/>
<rect x="136.59" y="2.07129" width="29.1427" height="15.8571" rx="7.92856" fill="#F6F6F6"/>
<path d="M147.719 12.4741L149.142 7.68848H150.485L148.465 13.5H147.627L147.719 12.4741ZM146.628 7.68848L148.079 12.4956L148.148 13.5H147.311L145.28 7.68848H146.628ZM156.597 10.7124V11.7437H150.958L150.915 10.9648L154.288 5.67969H155.324L154.202 7.60254L152.263 10.7124H156.597ZM155.62 5.67969V13.5H154.325V5.67969H155.62Z" fill="#404040"/>
</svg>
