<svg width="166" height="20" viewBox="0 0 166 20" fill="none" xmlns="http://www.w3.org/2000/svg">
<path d="M0 5.47665L7.14282 0.215271V2.69824L0 7.95962V5.47665Z" fill="white"/>
<path d="M14.2856 5.47665L7.14283 0.215271V2.69824L14.2856 7.95962V5.47665Z" fill="white"/>
<path d="M0 11.1918L7.14282 5.93044V8.4134L0 13.6748V11.1918Z" fill="white"/>
<path d="M14.2856 11.1918L7.14283 5.93044V8.4134L14.2856 13.6748V11.1918Z" fill="white"/>
<path d="M3.74951 8.5423L9.99948 3.93859V6.11119L3.74951 10.7149V8.5423Z" fill="white"/>
<path d="M16.2495 8.5423L9.99955 3.93859V6.11119L16.2495 10.7149V8.5423Z" fill="white"/>
<path d="M3.74951 13.5423L9.99948 8.93864V11.1112L3.74951 15.7149V13.5423Z" fill="white"/>
<path d="M16.2495 13.5423L9.99955 8.93864V11.1112L16.2495 15.7149V13.5423Z" fill="white"/>
<rect width="20" height="20" rx="1.42857" fill="white"/>
<rect width="20" height="20" rx="1.42857" fill="#FEFEFE"/>
<path d="M4.28564 8.82572L9.99976 4.61668V6.60302L4.28564 10.8121V8.82572Z" fill="black"/>
<path d="M15.7144 8.82583L10.0002 4.61679V6.60313L15.7144 10.8122V8.82583Z" fill="black"/>
<path d="M4.28564 13.3971L9.99976 9.18806V11.1744L4.28564 15.3834V13.3971Z" fill="black"/>
<path d="M15.7144 13.3971L10.0002 9.18806V11.1744L15.7144 15.3834V13.3971Z" fill="black"/>
<path d="M33.4242 18.7988C32.7499 18.7988 32.127 18.6902 31.5556 18.4731C30.9842 18.2559 30.4928 17.9531 30.0813 17.5645C29.6699 17.1873 29.3613 16.7416 29.1556 16.2273L30.9385 15.4902C31.0985 15.9245 31.3899 16.2845 31.8128 16.5702C32.247 16.8559 32.7785 16.9988 33.407 16.9988C33.8985 16.9988 34.3385 16.9016 34.727 16.7073C35.1156 16.5245 35.4242 16.2502 35.6528 15.8845C35.8813 15.5302 35.9956 15.1016 35.9956 14.5988V12.5073L36.3385 12.9016C36.0185 13.4959 35.5728 13.9473 35.0013 14.2559C34.4413 14.5645 33.807 14.7188 33.0985 14.7188C32.2413 14.7188 31.4699 14.5188 30.7842 14.1188C30.0985 13.7188 29.5556 13.1702 29.1556 12.4731C28.767 11.7759 28.5728 10.9931 28.5728 10.1245C28.5728 9.24449 28.767 8.46163 29.1556 7.77592C29.5556 7.0902 30.0928 6.54734 30.767 6.14734C31.4413 5.74734 32.2128 5.54734 33.0813 5.54734C33.7899 5.54734 34.4185 5.70163 34.967 6.0102C35.527 6.30734 35.9842 6.74163 36.3385 7.31306L36.0813 7.79306V5.75306H37.9156V14.5988C37.9156 15.3988 37.7213 16.1131 37.3328 16.7416C36.9556 17.3816 36.4299 17.8845 35.7556 18.2502C35.0813 18.6159 34.3042 18.7988 33.4242 18.7988ZM33.3213 12.9188C33.8356 12.9188 34.2928 12.7988 34.6928 12.5588C35.0928 12.3073 35.407 11.9759 35.6356 11.5645C35.8756 11.1416 35.9956 10.6673 35.9956 10.1416C35.9956 9.61592 35.8756 9.14163 35.6356 8.71877C35.3956 8.29592 35.0756 7.96449 34.6756 7.72449C34.2756 7.47306 33.8242 7.34734 33.3213 7.34734C32.7956 7.34734 32.327 7.47306 31.9156 7.72449C31.5042 7.96449 31.1785 8.29592 30.9385 8.71877C30.7099 9.1302 30.5956 9.60449 30.5956 10.1416C30.5956 10.6559 30.7099 11.1245 30.9385 11.5473C31.1785 11.9702 31.5042 12.3073 31.9156 12.5588C32.327 12.7988 32.7956 12.9188 33.3213 12.9188Z" fill="#F6F6F6"/>
<path d="M40.1832 15.0273V2.0502H42.1203V15.0273H40.1832Z" fill="#F6F6F6"/>
<path d="M47.6937 15.2331C46.9966 15.2331 46.3852 15.0788 45.8594 14.7702C45.3337 14.4502 44.9223 14.0102 44.6252 13.4502C44.3394 12.8788 44.1966 12.2216 44.1966 11.4788V5.75306H46.1337V11.3073C46.1337 11.7302 46.2195 12.1016 46.3909 12.4216C46.5623 12.7416 46.8023 12.9931 47.1109 13.1759C47.4194 13.3473 47.7737 13.4331 48.1737 13.4331C48.5852 13.4331 48.9452 13.3416 49.2537 13.1588C49.5623 12.9759 49.8023 12.7188 49.9737 12.3873C50.1566 12.0559 50.248 11.6673 50.248 11.2216V5.75306H52.168V15.0273H50.3337V13.2102L50.5394 13.4502C50.3223 14.0216 49.9623 14.4616 49.4594 14.7702C48.9566 15.0788 48.368 15.2331 47.6937 15.2331Z" fill="#F6F6F6"/>
<path d="M58.7841 15.2331C57.8584 15.2331 57.0355 15.0216 56.3155 14.5988C55.6069 14.1645 55.0527 13.5816 54.6527 12.8502C54.2527 12.1073 54.0527 11.2788 54.0527 10.3645C54.0527 9.42734 54.2527 8.59877 54.6527 7.87877C55.0641 7.15877 55.6127 6.59306 56.2984 6.18163C56.9841 5.75877 57.7612 5.54734 58.6298 5.54734C59.3269 5.54734 59.9498 5.66734 60.4984 5.90734C61.047 6.14734 61.5098 6.47877 61.887 6.90163C62.2641 7.31306 62.5498 7.78734 62.7441 8.32449C62.9498 8.86163 63.0527 9.43306 63.0527 10.0388C63.0527 10.1873 63.0469 10.3416 63.0355 10.5016C63.0241 10.6616 63.0012 10.8102 62.9669 10.9473H55.5784V9.40449H61.8698L60.9441 10.1073C61.0584 9.54734 61.0184 9.0502 60.8241 8.61592C60.6412 8.1702 60.3555 7.82163 59.9669 7.5702C59.5898 7.30734 59.1441 7.17592 58.6298 7.17592C58.1155 7.17592 57.6584 7.30734 57.2584 7.5702C56.8584 7.82163 56.5498 8.18734 56.3327 8.66734C56.1155 9.13592 56.0298 9.70734 56.0755 10.3816C56.0184 11.0102 56.1041 11.5588 56.3327 12.0273C56.5727 12.4959 56.9041 12.8616 57.3269 13.1245C57.7612 13.3873 58.2527 13.5188 58.8012 13.5188C59.3612 13.5188 59.8355 13.3931 60.2241 13.1416C60.6241 12.8902 60.9384 12.5645 61.1669 12.1645L62.7441 12.9359C62.5612 13.3702 62.2755 13.7645 61.887 14.1188C61.5098 14.4616 61.0527 14.7359 60.5155 14.9416C59.9898 15.1359 59.4127 15.2331 58.7841 15.2331Z" fill="#F6F6F6"/>
<path d="M68.3718 15.2331C67.4232 15.2331 66.5889 14.9988 65.8689 14.5302C65.1603 14.0616 64.6632 13.4331 64.3775 12.6445L65.8689 11.9416C66.1203 12.4673 66.4632 12.8845 66.8975 13.1931C67.3432 13.5016 67.8346 13.6559 68.3718 13.6559C68.8289 13.6559 69.2003 13.5531 69.4861 13.3473C69.7718 13.1416 69.9146 12.8616 69.9146 12.5073C69.9146 12.2788 69.8518 12.0959 69.7261 11.9588C69.6003 11.8102 69.4403 11.6902 69.2461 11.5988C69.0632 11.5073 68.8746 11.4388 68.6803 11.3931L67.2232 10.9816C66.4232 10.7531 65.8232 10.4102 65.4232 9.95306C65.0346 9.48449 64.8403 8.94163 64.8403 8.32449C64.8403 7.76449 64.9832 7.27877 65.2689 6.86734C65.5546 6.44449 65.9489 6.11877 66.4518 5.8902C66.9546 5.66163 67.5203 5.54734 68.1489 5.54734C68.9946 5.54734 69.7489 5.75877 70.4118 6.18163C71.0746 6.59306 71.5432 7.1702 71.8175 7.91306L70.3261 8.61592C70.1432 8.1702 69.8518 7.81592 69.4518 7.55306C69.0632 7.2902 68.6232 7.15877 68.1318 7.15877C67.7089 7.15877 67.3718 7.26163 67.1203 7.46734C66.8689 7.66163 66.7432 7.91877 66.7432 8.23877C66.7432 8.45592 66.8003 8.63877 66.9146 8.78734C67.0289 8.92449 67.1775 9.03877 67.3603 9.1302C67.5432 9.2102 67.7318 9.27877 67.9261 9.33592L69.4346 9.78163C70.2003 9.99877 70.7889 10.3416 71.2003 10.8102C71.6118 11.2673 71.8175 11.8159 71.8175 12.4559C71.8175 13.0045 71.6689 13.4902 71.3718 13.9131C71.0861 14.3245 70.6861 14.6502 70.1718 14.8902C69.6575 15.1188 69.0575 15.2331 68.3718 15.2331Z" fill="#F6F6F6"/>
<path d="M77.7269 15.1302C76.7555 15.1302 76.0012 14.8559 75.4641 14.3073C74.9269 13.7588 74.6584 12.9873 74.6584 11.9931V7.50163H73.0298V5.75306H73.2869C73.7212 5.75306 74.0584 5.62734 74.2984 5.37592C74.5384 5.12449 74.6584 4.78163 74.6584 4.34734V3.62734H76.5955V5.75306H78.7041V7.50163H76.5955V11.9073C76.5955 12.2273 76.6469 12.5016 76.7498 12.7302C76.8527 12.9473 77.0184 13.1188 77.2469 13.2445C77.4755 13.3588 77.7727 13.4159 78.1384 13.4159C78.2298 13.4159 78.3327 13.4102 78.4469 13.3988C78.5612 13.3873 78.6698 13.3759 78.7727 13.3645V15.0273C78.6127 15.0502 78.4355 15.0731 78.2412 15.0959C78.0469 15.1188 77.8755 15.1302 77.7269 15.1302Z" fill="#F6F6F6"/>
<path d="M83.3565 15.2331C82.7279 15.2331 82.1736 15.1245 81.6936 14.9073C81.2251 14.6788 80.8594 14.3702 80.5965 13.9816C80.3336 13.5816 80.2022 13.1131 80.2022 12.5759C80.2022 12.0731 80.3108 11.6216 80.5279 11.2216C80.7565 10.8216 81.1051 10.4845 81.5736 10.2102C82.0422 9.93591 82.6308 9.74163 83.3394 9.62734L86.5622 9.09592V10.6216L83.7165 11.1188C83.2022 11.2102 82.8251 11.3759 82.5851 11.6159C82.3451 11.8445 82.2251 12.1416 82.2251 12.5073C82.2251 12.8616 82.3565 13.1531 82.6194 13.3816C82.8936 13.5988 83.2422 13.7073 83.6651 13.7073C84.1908 13.7073 84.6479 13.5931 85.0365 13.3645C85.4365 13.1359 85.7451 12.8331 85.9622 12.4559C86.1794 12.0673 86.2879 11.6388 86.2879 11.1702V8.78734C86.2879 8.3302 86.1165 7.95877 85.7736 7.67306C85.4422 7.37592 84.9965 7.22734 84.4365 7.22734C83.9222 7.22734 83.4708 7.36449 83.0822 7.63877C82.7051 7.90163 82.4251 8.24449 82.2422 8.66734L80.6308 7.86163C80.8022 7.40449 81.0822 7.00449 81.4708 6.66163C81.8594 6.30734 82.3108 6.03306 82.8251 5.83877C83.3508 5.64449 83.9051 5.54734 84.4879 5.54734C85.2194 5.54734 85.8651 5.68449 86.4251 5.95877C86.9965 6.23306 87.4365 6.61592 87.7451 7.10734C88.0651 7.58734 88.2251 8.14734 88.2251 8.78734V15.0273H86.3736V13.3473L86.7679 13.3988C86.5508 13.7759 86.2708 14.1016 85.9279 14.3759C85.5965 14.6502 85.2136 14.8616 84.7794 15.0102C84.3565 15.1588 83.8822 15.2331 83.3565 15.2331Z" fill="#F6F6F6"/>
<path d="M94.8958 15.2331C93.9701 15.2331 93.1472 15.0216 92.4272 14.5988C91.7186 14.1645 91.1529 13.5816 90.7301 12.8502C90.3186 12.1188 90.1129 11.2902 90.1129 10.3645C90.1129 9.4502 90.3186 8.62734 90.7301 7.89592C91.1415 7.16449 91.7072 6.59306 92.4272 6.18163C93.1472 5.75877 93.9701 5.54734 94.8958 5.54734C95.5244 5.54734 96.1129 5.66163 96.6615 5.8902C97.2101 6.10734 97.6844 6.4102 98.0844 6.79877C98.4958 7.18734 98.7986 7.63877 98.9929 8.15306L97.2958 8.94163C97.1015 8.46163 96.7872 8.07877 96.3529 7.79306C95.9301 7.49592 95.4444 7.34734 94.8958 7.34734C94.3701 7.34734 93.8958 7.47877 93.4729 7.74163C93.0615 7.99306 92.7358 8.35306 92.4958 8.82163C92.2558 9.27877 92.1358 9.79877 92.1358 10.3816C92.1358 10.9645 92.2558 11.4902 92.4958 11.9588C92.7358 12.4159 93.0615 12.7759 93.4729 13.0388C93.8958 13.3016 94.3701 13.4331 94.8958 13.4331C95.4558 13.4331 95.9415 13.2902 96.3529 13.0045C96.7758 12.7073 97.0901 12.3131 97.2958 11.8216L98.9929 12.6273C98.8101 13.1188 98.5129 13.5645 98.1015 13.9645C97.7015 14.3531 97.2272 14.6616 96.6786 14.8902C96.1301 15.1188 95.5358 15.2331 94.8958 15.2331Z" fill="#F6F6F6"/>
<path d="M100.886 15.0273V2.0502H102.823V10.7416L102.069 10.5531L106.715 5.75306H109.132L105.635 9.47306L109.286 15.0273H107.058L103.801 10.1073L104.949 9.95306L102.206 12.8673L102.823 11.5816V15.0273H100.886Z" fill="#F6F6F6"/>
<path d="M110.904 11.2388V9.52449H117.761V11.2388H110.904Z" fill="#F6F6F6"/>
<path d="M123.631 15.2331C122.934 15.2331 122.323 15.0788 121.797 14.7702C121.271 14.4502 120.86 14.0102 120.563 13.4502C120.277 12.8788 120.134 12.2216 120.134 11.4788V5.75306H122.071V11.3073C122.071 11.7302 122.157 12.1016 122.328 12.4216C122.5 12.7416 122.74 12.9931 123.048 13.1759C123.357 13.3473 123.711 13.4331 124.111 13.4331C124.523 13.4331 124.883 13.3416 125.191 13.1588C125.5 12.9759 125.74 12.7188 125.911 12.3873C126.094 12.0559 126.186 11.6673 126.186 11.2216V5.75306H128.106V15.0273H126.271V13.2102L126.477 13.4502C126.26 14.0216 125.9 14.4616 125.397 14.7702C124.894 15.0788 124.306 15.2331 123.631 15.2331Z" fill="#F6F6F6"/>
<path d="M130.367 15.0273V5.75306H132.304V15.0273H130.367ZM130.367 4.48449V2.25592H132.304V4.48449H130.367Z" fill="#F6F6F6"/>
<rect x="136.59" y="2.0716" width="29.1427" height="15.8571" rx="7.92856" fill="#414040"/>
<path d="M147.718 12.4743L149.141 7.68864H150.484L148.464 13.5002H147.626L147.718 12.4743ZM146.627 7.68864L148.078 12.4958L148.147 13.5002H147.31L145.279 7.68864H146.627ZM156.596 10.7126V11.7438H150.957L150.914 10.965L154.287 5.67985H155.323L154.201 7.6027L152.262 10.7126H156.596ZM155.619 5.67985V13.5002H154.324V5.67985H155.619Z" fill="#E5E5E5"/>
</svg>
