<svg width="240" height="28" viewBox="0 0 240 28" fill="none" xmlns="http://www.w3.org/2000/svg">
<path d="M0 7.66809L9.99991 0.302185V3.77833L0 11.1442V7.66809Z" fill="white"/>
<path d="M20 7.66803L10.0001 0.302124V3.77826L20 11.1442V7.66803Z" fill="white"/>
<path d="M0 15.6683L9.99991 8.30241V11.7786L0 19.1445V15.6683Z" fill="white"/>
<path d="M20 15.6682L10.0001 8.30234V11.7785L20 19.1444V15.6682Z" fill="white"/>
<path d="M5.25049 11.9603L14.0004 5.51511V8.55673L5.25049 15.0019V11.9603Z" fill="white"/>
<path d="M22.7505 11.9602L14.0006 5.51508V8.5567L22.7505 15.0019V11.9602Z" fill="white"/>
<path d="M5.25 18.9601L13.9999 12.5149V15.5565L5.25 22.0017V18.9601Z" fill="white"/>
<path d="M22.75 18.9604L14.0001 12.5152V15.5568L22.75 22.002V18.9604Z" fill="white"/>
<rect x="0.000488281" width="27.9999" height="27.9999" rx="1.99999" fill="white"/>
<rect x="0.000488281" width="27.9999" height="27.9999" rx="1.99999" fill="#FEFEFE"/>
<path d="M6.00049 12.3558L14.0002 6.46313V9.244L6.00049 15.1366V12.3558Z" fill="#121212"/>
<path d="M22 12.3557L14.0003 6.46312V9.24399L22 15.1366V12.3557Z" fill="#121212"/>
<path d="M6.00049 18.7557L14.0002 12.8631V15.6439L6.00049 21.5365V18.7557Z" fill="#121212"/>
<path d="M22 18.7557L14.0003 12.8631V15.6439L22 21.5366V18.7557Z" fill="#121212"/>
<path d="M50.792 26.4479C49.848 26.4479 48.976 26.2959 48.176 25.9919C47.376 25.6879 46.688 25.2639 46.112 24.7199C45.536 24.1919 45.104 23.5679 44.816 22.8479L47.312 21.8159C47.536 22.4239 47.944 22.9279 48.536 23.3279C49.144 23.7279 49.888 23.9279 50.768 23.9279C51.456 23.9279 52.072 23.7919 52.616 23.5199C53.16 23.2639 53.592 22.8799 53.912 22.3679C54.232 21.8719 54.392 21.2719 54.392 20.5679V17.6399L54.872 18.1919C54.424 19.0239 53.8 19.6559 53 20.0879C52.216 20.5199 51.328 20.7359 50.336 20.7359C49.136 20.7359 48.056 20.4559 47.096 19.8959C46.136 19.3359 45.376 18.5679 44.816 17.5919C44.272 16.616 44 15.52 44 14.304C44 13.072 44.272 11.976 44.816 11.016C45.376 10.056 46.128 9.29598 47.072 8.73598C48.016 8.17598 49.096 7.89598 50.312 7.89598C51.304 7.89598 52.184 8.11198 52.952 8.54398C53.736 8.95998 54.376 9.56798 54.872 10.368L54.512 11.04V8.18398H57.08V20.5679C57.08 21.6879 56.808 22.6879 56.264 23.5679C55.736 24.4639 55 25.1679 54.056 25.6799C53.112 26.1919 52.024 26.4479 50.792 26.4479ZM50.648 18.2159C51.368 18.2159 52.008 18.0479 52.568 17.7119C53.128 17.3599 53.568 16.896 53.888 16.32C54.224 15.728 54.392 15.064 54.392 14.328C54.392 13.592 54.224 12.928 53.888 12.336C53.552 11.744 53.104 11.28 52.544 10.944C51.984 10.592 51.352 10.416 50.648 10.416C49.912 10.416 49.256 10.592 48.68 10.944C48.104 11.28 47.648 11.744 47.312 12.336C46.992 12.912 46.832 13.576 46.832 14.328C46.832 15.048 46.992 15.704 47.312 16.296C47.648 16.8879 48.104 17.3599 48.68 17.7119C49.256 18.0479 49.912 18.2159 50.648 18.2159Z" fill="#F6F6F6"/>
<path d="M60.2545 21.1679V3H62.9665V21.1679H60.2545Z" fill="#F6F6F6"/>
<path d="M70.7693 21.4559C69.7933 21.4559 68.9373 21.2399 68.2013 20.8079C67.4653 20.3599 66.8893 19.7439 66.4733 18.9599C66.0733 18.1599 65.8733 17.2399 65.8733 16.2V8.18398H68.5853V15.96C68.5853 16.552 68.7053 17.0719 68.9453 17.5199C69.1853 17.9679 69.5213 18.3199 69.9533 18.5759C70.3853 18.8159 70.8813 18.9359 71.4413 18.9359C72.0173 18.9359 72.5213 18.8079 72.9533 18.5519C73.3853 18.2959 73.7213 17.9359 73.9613 17.4719C74.2173 17.0079 74.3453 16.464 74.3453 15.84V8.18398H77.0333V21.1679H74.4653V18.6239L74.7533 18.9599C74.4493 19.7599 73.9453 20.3759 73.2413 20.8079C72.5373 21.2399 71.7133 21.4559 70.7693 21.4559Z" fill="#F6F6F6"/>
<path d="M86.2957 21.4559C84.9997 21.4559 83.8477 21.1599 82.8397 20.5679C81.8477 19.9599 81.0717 19.1439 80.5117 18.1199C79.9517 17.0799 79.6717 15.92 79.6717 14.64C79.6717 13.328 79.9517 12.168 80.5117 11.16C81.0877 10.152 81.8557 9.35998 82.8157 8.78398C83.7757 8.19198 84.8637 7.89598 86.0797 7.89598C87.0557 7.89598 87.9277 8.06398 88.6957 8.39998C89.4637 8.73598 90.1117 9.19998 90.6397 9.79198C91.1677 10.368 91.5677 11.032 91.8397 11.784C92.1277 12.536 92.2717 13.336 92.2717 14.184C92.2717 14.392 92.2637 14.608 92.2477 14.832C92.2317 15.056 92.1997 15.264 92.1517 15.456H81.8077V13.296H90.6157L89.3197 14.28C89.4797 13.496 89.4237 12.8 89.1517 12.192C88.8957 11.568 88.4957 11.08 87.9517 10.728C87.4237 10.36 86.7997 10.176 86.0797 10.176C85.3597 10.176 84.7197 10.36 84.1597 10.728C83.5997 11.08 83.1677 11.592 82.8637 12.264C82.5597 12.92 82.4397 13.72 82.5037 14.664C82.4237 15.544 82.5437 16.312 82.8637 16.9679C83.1997 17.6239 83.6637 18.1359 84.2557 18.5039C84.8637 18.8719 85.5517 19.0559 86.3197 19.0559C87.1037 19.0559 87.7677 18.8799 88.3117 18.5279C88.8717 18.1759 89.3117 17.7199 89.6317 17.1599L91.8397 18.2399C91.5837 18.8479 91.1837 19.3999 90.6397 19.8959C90.1117 20.3759 89.4717 20.7599 88.7197 21.0479C87.9837 21.3199 87.1757 21.4559 86.2957 21.4559Z" fill="#F6F6F6"/>
<path d="M99.7184 21.4559C98.3904 21.4559 97.2224 21.1279 96.2144 20.4719C95.2224 19.8159 94.5264 18.9359 94.1264 17.8319L96.2144 16.848C96.5664 17.5839 97.0464 18.1679 97.6544 18.5999C98.2784 19.0319 98.9664 19.2479 99.7184 19.2479C100.358 19.2479 100.878 19.1039 101.278 18.8159C101.678 18.5279 101.878 18.1359 101.878 17.6399C101.878 17.3199 101.79 17.0639 101.614 16.872C101.438 16.664 101.214 16.496 100.942 16.368C100.686 16.24 100.422 16.144 100.15 16.08L98.1104 15.504C96.9904 15.184 96.1504 14.704 95.5904 14.064C95.0464 13.408 94.7744 12.648 94.7744 11.784C94.7744 11 94.9744 10.32 95.3744 9.74398C95.7744 9.15198 96.3264 8.69598 97.0304 8.37598C97.7344 8.05598 98.5264 7.89598 99.4064 7.89598C100.59 7.89598 101.646 8.19198 102.574 8.78398C103.502 9.35998 104.158 10.168 104.542 11.208L102.454 12.192C102.198 11.568 101.79 11.072 101.23 10.704C100.686 10.336 100.07 10.152 99.3824 10.152C98.7904 10.152 98.3184 10.296 97.9664 10.584C97.6144 10.856 97.4384 11.216 97.4384 11.664C97.4384 11.968 97.5184 12.224 97.6784 12.432C97.8384 12.624 98.0464 12.784 98.3024 12.912C98.5584 13.024 98.8224 13.12 99.0944 13.2L101.206 13.824C102.278 14.128 103.102 14.608 103.678 15.264C104.254 15.904 104.542 16.672 104.542 17.5679C104.542 18.3359 104.334 19.0159 103.918 19.6079C103.518 20.1839 102.958 20.6399 102.238 20.9759C101.518 21.2959 100.678 21.4559 99.7184 21.4559Z" fill="#F6F6F6"/>
<path d="M112.816 21.3119C111.456 21.3119 110.4 20.9279 109.648 20.1599C108.896 19.3919 108.52 18.3119 108.52 16.92V10.632H106.24V8.18398H106.6C107.208 8.18398 107.68 8.00798 108.016 7.65598C108.352 7.30398 108.52 6.82399 108.52 6.21599V5.20799H111.232V8.18398H114.184V10.632H111.232V16.8C111.232 17.2479 111.304 17.6319 111.448 17.9519C111.592 18.2559 111.824 18.4959 112.144 18.6719C112.464 18.8319 112.88 18.9119 113.392 18.9119C113.52 18.9119 113.664 18.9039 113.824 18.8879C113.984 18.8719 114.136 18.8559 114.28 18.8399V21.1679C114.056 21.1999 113.808 21.2319 113.536 21.2639C113.264 21.2959 113.024 21.3119 112.816 21.3119Z" fill="#F6F6F6"/>
<path d="M120.697 21.4559C119.817 21.4559 119.041 21.3039 118.369 20.9999C117.713 20.6799 117.201 20.2479 116.833 19.7039C116.465 19.1439 116.281 18.4879 116.281 17.7359C116.281 17.0319 116.433 16.4 116.737 15.84C117.057 15.28 117.545 14.808 118.201 14.424C118.857 14.04 119.681 13.768 120.673 13.608L125.185 12.864V15L121.201 15.696C120.481 15.824 119.953 16.056 119.617 16.392C119.281 16.712 119.113 17.1279 119.113 17.6399C119.113 18.1359 119.297 18.5439 119.665 18.8639C120.049 19.1679 120.537 19.3199 121.129 19.3199C121.865 19.3199 122.505 19.1599 123.049 18.8399C123.609 18.5199 124.041 18.0959 124.345 17.5679C124.649 17.0239 124.801 16.424 124.801 15.768V12.432C124.801 11.792 124.561 11.272 124.081 10.872C123.617 10.456 122.993 10.248 122.209 10.248C121.489 10.248 120.857 10.44 120.313 10.824C119.785 11.192 119.393 11.672 119.137 12.264L116.881 11.136C117.121 10.496 117.513 9.93597 118.057 9.45598C118.601 8.95998 119.233 8.57598 119.953 8.30398C120.689 8.03198 121.465 7.89598 122.281 7.89598C123.305 7.89598 124.209 8.08798 124.993 8.47198C125.793 8.85598 126.409 9.39198 126.841 10.08C127.289 10.752 127.513 11.536 127.513 12.432V21.1679H124.921V18.8159L125.473 18.8879C125.169 19.4159 124.777 19.8719 124.297 20.2559C123.833 20.6399 123.297 20.9359 122.689 21.1439C122.097 21.3519 121.433 21.4559 120.697 21.4559Z" fill="#F6F6F6"/>
<path d="M136.852 21.4559C135.556 21.4559 134.404 21.1599 133.396 20.5679C132.404 19.9599 131.612 19.1439 131.02 18.1199C130.444 17.0959 130.156 15.936 130.156 14.64C130.156 13.36 130.444 12.208 131.02 11.184C131.596 10.16 132.388 9.35998 133.396 8.78398C134.404 8.19198 135.556 7.89598 136.852 7.89598C137.732 7.89598 138.556 8.05598 139.324 8.37598C140.092 8.67998 140.756 9.10398 141.316 9.64798C141.892 10.192 142.316 10.824 142.588 11.544L140.212 12.648C139.94 11.976 139.5 11.44 138.892 11.04C138.3 10.624 137.62 10.416 136.852 10.416C136.116 10.416 135.452 10.6 134.86 10.968C134.284 11.32 133.828 11.824 133.492 12.48C133.156 13.12 132.988 13.848 132.988 14.664C132.988 15.48 133.156 16.216 133.492 16.872C133.828 17.5119 134.284 18.0159 134.86 18.3839C135.452 18.7519 136.116 18.9359 136.852 18.9359C137.636 18.9359 138.316 18.7359 138.892 18.3359C139.484 17.9199 139.924 17.3679 140.212 16.68L142.588 17.8079C142.332 18.4959 141.916 19.1199 141.34 19.6799C140.78 20.2239 140.116 20.6559 139.348 20.9759C138.58 21.2959 137.748 21.4559 136.852 21.4559Z" fill="#F6F6F6"/>
<path d="M145.239 21.1679V3H147.951V15.168L146.895 14.904L153.399 8.18398H156.783L151.887 13.392L156.999 21.1679H153.879L149.319 14.28L150.927 14.064L147.087 18.1439L147.951 16.344V21.1679H145.239Z" fill="#F6F6F6"/>
<path d="M159.264 15.864V13.464H168.864V15.864H159.264Z" fill="#F6F6F6"/>
<path d="M177.081 21.4559C176.105 21.4559 175.249 21.2399 174.513 20.8079C173.777 20.3599 173.201 19.7439 172.785 18.9599C172.385 18.1599 172.185 17.2399 172.185 16.2V8.18398H174.897V15.96C174.897 16.552 175.017 17.0719 175.257 17.5199C175.497 17.9679 175.833 18.3199 176.265 18.5759C176.697 18.8159 177.193 18.9359 177.753 18.9359C178.329 18.9359 178.833 18.8079 179.265 18.5519C179.697 18.2959 180.033 17.9359 180.273 17.4719C180.529 17.0079 180.657 16.464 180.657 15.84V8.18398H183.345V21.1679H180.777V18.6239L181.065 18.9599C180.761 19.7599 180.257 20.3759 179.553 20.8079C178.849 21.2399 178.025 21.4559 177.081 21.4559Z" fill="#F6F6F6"/>
<path d="M186.512 21.1679V8.18398H189.224V21.1679H186.512ZM186.512 6.40799V3.288H189.224V6.40799H186.512Z" fill="#F6F6F6"/>
<rect x="195.224" y="1.49997" width="43.9997" height="25" rx="12.5" fill="#414040"/>
<path d="M211.442 18.6543L213.552 10.9903H216.197L212.989 20.5H211.39L211.442 18.6543ZM209.992 10.9903L212.11 18.6631L212.154 20.5H210.546L207.338 10.9903H209.992ZM226.19 15.7188V17.7051H216.971L216.848 16.167L222.182 7.70322H224.195L222.015 11.3506L219.361 15.7188H226.19ZM224.74 7.70322V20.5H222.209V7.70322H224.74Z" fill="#E5E5E5"/>
</svg>
