<svg width="236" height="28" viewBox="0 0 236 28" fill="none" xmlns="http://www.w3.org/2000/svg">
<path d="M0 7.66809L9.99991 0.302185V3.77833L0 11.1442V7.66809Z" fill="white"/>
<path d="M20 7.66803L10.0001 0.302124V3.77826L20 11.1442V7.66803Z" fill="white"/>
<path d="M0 15.6683L9.99991 8.30241V11.7786L0 19.1445V15.6683Z" fill="white"/>
<path d="M20 15.6682L10.0001 8.30234V11.7785L20 19.1444V15.6682Z" fill="white"/>
<path d="M5.25 11.9603L13.9999 5.51511V8.55673L5.25 15.0019V11.9603Z" fill="white"/>
<path d="M22.75 11.9602L14.0001 5.51508V8.5567L22.75 15.0019V11.9602Z" fill="white"/>
<path d="M5.25 18.9601L13.9999 12.5149V15.5565L5.25 22.0017V18.9601Z" fill="white"/>
<path d="M22.75 18.9604L14.0001 12.5152V15.5568L22.75 22.002V18.9604Z" fill="white"/>
<rect width="27.9999" height="27.9999" rx="1.99999" fill="white"/>
<rect width="27.9999" height="27.9999" rx="1.99999" fill="#181718"/>
<path d="M6 12.3558L13.9997 6.46313V9.244L6 15.1366V12.3558Z" fill="white"/>
<path d="M21.999 12.3557L13.9993 6.46312V9.24399L21.999 15.1366V12.3557Z" fill="white"/>
<path d="M6 18.7557L13.9997 12.8631V15.6439L6 21.5365V18.7557Z" fill="white"/>
<path d="M21.999 18.7557L13.9993 12.8631V15.6439L21.999 21.5366V18.7557Z" fill="white"/>
<path d="M46.792 26.318C45.848 26.318 44.976 26.166 44.176 25.862C43.376 25.558 42.688 25.134 42.112 24.59C41.536 24.062 41.104 23.438 40.816 22.718L43.312 21.686C43.536 22.294 43.944 22.798 44.536 23.198C45.144 23.598 45.888 23.798 46.768 23.798C47.456 23.798 48.072 23.662 48.616 23.39C49.16 23.134 49.592 22.75 49.912 22.238C50.232 21.742 50.392 21.142 50.392 20.438V17.51L50.872 18.062C50.424 18.894 49.8 19.526 49 19.958C48.216 20.39 47.328 20.606 46.336 20.606C45.136 20.606 44.056 20.326 43.096 19.766C42.136 19.206 41.376 18.438 40.816 17.462C40.272 16.486 40 15.39 40 14.174C40 12.942 40.272 11.846 40.816 10.886C41.376 9.92603 42.128 9.16603 43.072 8.60604C44.016 8.04604 45.096 7.76604 46.312 7.76604C47.304 7.76604 48.184 7.98204 48.952 8.41404C49.736 8.83004 50.376 9.43803 50.872 10.238L50.512 10.91V8.05404H53.08V20.438C53.08 21.558 52.808 22.558 52.264 23.438C51.736 24.334 51 25.038 50.056 25.55C49.112 26.062 48.024 26.318 46.792 26.318ZM46.648 18.086C47.368 18.086 48.008 17.918 48.568 17.582C49.128 17.23 49.568 16.766 49.888 16.19C50.224 15.598 50.392 14.934 50.392 14.198C50.392 13.462 50.224 12.798 49.888 12.206C49.552 11.614 49.104 11.15 48.544 10.814C47.984 10.462 47.352 10.286 46.648 10.286C45.912 10.286 45.256 10.462 44.68 10.814C44.104 11.15 43.648 11.614 43.312 12.206C42.992 12.782 42.832 13.446 42.832 14.198C42.832 14.918 42.992 15.574 43.312 16.166C43.648 16.758 44.104 17.23 44.68 17.582C45.256 17.918 45.912 18.086 46.648 18.086Z" fill="#272625"/>
<path d="M56.2545 21.038V2.87006H58.9665V21.038H56.2545Z" fill="#272625"/>
<path d="M66.7693 21.326C65.7933 21.326 64.9373 21.11 64.2013 20.678C63.4653 20.23 62.8893 19.614 62.4733 18.83C62.0733 18.03 61.8733 17.11 61.8733 16.07V8.05404H64.5853V15.83C64.5853 16.422 64.7053 16.942 64.9453 17.39C65.1853 17.838 65.5213 18.19 65.9533 18.446C66.3853 18.686 66.8813 18.806 67.4413 18.806C68.0173 18.806 68.5213 18.678 68.9533 18.422C69.3853 18.166 69.7213 17.806 69.9613 17.342C70.2173 16.878 70.3453 16.334 70.3453 15.71V8.05404H73.0333V21.038H70.4653V18.494L70.7533 18.83C70.4493 19.63 69.9453 20.246 69.2413 20.678C68.5373 21.11 67.7133 21.326 66.7693 21.326Z" fill="#272625"/>
<path d="M82.2957 21.326C80.9997 21.326 79.8477 21.03 78.8397 20.438C77.8477 19.83 77.0717 19.014 76.5117 17.99C75.9517 16.95 75.6717 15.79 75.6717 14.51C75.6717 13.198 75.9517 12.038 76.5117 11.03C77.0877 10.022 77.8557 9.23003 78.8157 8.65404C79.7757 8.06204 80.8637 7.76604 82.0797 7.76604C83.0557 7.76604 83.9277 7.93404 84.6957 8.27004C85.4637 8.60604 86.1117 9.07003 86.6397 9.66203C87.1677 10.238 87.5677 10.902 87.8397 11.654C88.1277 12.406 88.2717 13.206 88.2717 14.054C88.2717 14.262 88.2637 14.478 88.2477 14.702C88.2317 14.926 88.1997 15.134 88.1517 15.326H77.8077V13.166H86.6157L85.3197 14.15C85.4797 13.366 85.4237 12.67 85.1517 12.062C84.8957 11.438 84.4957 10.95 83.9517 10.598C83.4237 10.23 82.7997 10.046 82.0797 10.046C81.3597 10.046 80.7197 10.23 80.1597 10.598C79.5997 10.95 79.1677 11.462 78.8637 12.134C78.5597 12.79 78.4397 13.59 78.5037 14.534C78.4237 15.414 78.5437 16.182 78.8637 16.838C79.1997 17.494 79.6637 18.006 80.2557 18.374C80.8637 18.742 81.5517 18.926 82.3197 18.926C83.1037 18.926 83.7677 18.75 84.3117 18.398C84.8717 18.046 85.3117 17.59 85.6317 17.03L87.8397 18.11C87.5837 18.718 87.1837 19.27 86.6397 19.766C86.1117 20.246 85.4717 20.63 84.7197 20.918C83.9837 21.19 83.1757 21.326 82.2957 21.326Z" fill="#272625"/>
<path d="M95.7184 21.326C94.3904 21.326 93.2224 20.998 92.2144 20.342C91.2224 19.686 90.5264 18.806 90.1264 17.702L92.2144 16.718C92.5664 17.454 93.0464 18.038 93.6544 18.47C94.2784 18.902 94.9664 19.118 95.7184 19.118C96.3584 19.118 96.8784 18.974 97.2784 18.686C97.6784 18.398 97.8784 18.006 97.8784 17.51C97.8784 17.19 97.7904 16.934 97.6144 16.742C97.4384 16.534 97.2144 16.366 96.9424 16.238C96.6864 16.11 96.4224 16.014 96.1504 15.95L94.1104 15.374C92.9904 15.054 92.1504 14.574 91.5904 13.934C91.0464 13.278 90.7744 12.518 90.7744 11.654C90.7744 10.87 90.9744 10.19 91.3744 9.61403C91.7744 9.02203 92.3264 8.56604 93.0304 8.24604C93.7344 7.92604 94.5264 7.76604 95.4064 7.76604C96.5904 7.76604 97.6464 8.06204 98.5744 8.65404C99.5024 9.23003 100.158 10.038 100.542 11.078L98.4544 12.062C98.1984 11.438 97.7904 10.942 97.2304 10.574C96.6864 10.206 96.0704 10.022 95.3824 10.022C94.7904 10.022 94.3184 10.166 93.9664 10.454C93.6144 10.726 93.4384 11.086 93.4384 11.534C93.4384 11.838 93.5184 12.094 93.6784 12.302C93.8384 12.494 94.0464 12.654 94.3024 12.782C94.5584 12.894 94.8224 12.99 95.0944 13.07L97.2064 13.694C98.2784 13.998 99.1024 14.478 99.6784 15.134C100.254 15.774 100.542 16.542 100.542 17.438C100.542 18.206 100.334 18.886 99.9184 19.478C99.5184 20.054 98.9584 20.51 98.2384 20.846C97.5184 21.166 96.6784 21.326 95.7184 21.326Z" fill="#272625"/>
<path d="M108.816 21.182C107.456 21.182 106.4 20.798 105.648 20.03C104.896 19.262 104.52 18.182 104.52 16.79V10.502H102.24V8.05404H102.6C103.208 8.05404 103.68 7.87804 104.016 7.52604C104.352 7.17404 104.52 6.69404 104.52 6.08604V5.07805H107.232V8.05404H110.184V10.502H107.232V16.67C107.232 17.118 107.304 17.502 107.448 17.822C107.592 18.126 107.824 18.366 108.144 18.542C108.464 18.702 108.88 18.782 109.392 18.782C109.52 18.782 109.664 18.774 109.824 18.758C109.984 18.742 110.136 18.726 110.28 18.71V21.038C110.056 21.07 109.808 21.102 109.536 21.134C109.264 21.166 109.024 21.182 108.816 21.182Z" fill="#272625"/>
<path d="M116.697 21.326C115.817 21.326 115.041 21.174 114.369 20.87C113.713 20.55 113.201 20.118 112.833 19.574C112.465 19.014 112.281 18.358 112.281 17.606C112.281 16.902 112.433 16.27 112.737 15.71C113.057 15.15 113.545 14.678 114.201 14.294C114.857 13.91 115.681 13.638 116.673 13.478L121.185 12.734V14.87L117.201 15.566C116.481 15.694 115.953 15.926 115.617 16.262C115.281 16.582 115.113 16.998 115.113 17.51C115.113 18.006 115.297 18.414 115.665 18.734C116.049 19.038 116.537 19.19 117.129 19.19C117.865 19.19 118.505 19.03 119.049 18.71C119.609 18.39 120.041 17.966 120.345 17.438C120.649 16.894 120.801 16.294 120.801 15.638V12.302C120.801 11.662 120.561 11.142 120.081 10.742C119.617 10.326 118.993 10.118 118.209 10.118C117.489 10.118 116.857 10.31 116.313 10.694C115.785 11.062 115.393 11.542 115.137 12.134L112.881 11.006C113.121 10.366 113.513 9.80603 114.057 9.32603C114.601 8.83003 115.233 8.44604 115.953 8.17404C116.689 7.90204 117.465 7.76604 118.281 7.76604C119.305 7.76604 120.209 7.95804 120.993 8.34204C121.793 8.72604 122.409 9.26203 122.841 9.95003C123.289 10.622 123.513 11.406 123.513 12.302V21.038H120.921V18.686L121.473 18.758C121.169 19.286 120.777 19.742 120.297 20.126C119.833 20.51 119.297 20.806 118.689 21.014C118.097 21.222 117.433 21.326 116.697 21.326Z" fill="#272625"/>
<path d="M132.852 21.326C131.556 21.326 130.404 21.03 129.396 20.438C128.404 19.83 127.612 19.014 127.02 17.99C126.444 16.966 126.156 15.806 126.156 14.51C126.156 13.23 126.444 12.078 127.02 11.054C127.596 10.03 128.388 9.23003 129.396 8.65404C130.404 8.06204 131.556 7.76604 132.852 7.76604C133.732 7.76604 134.556 7.92604 135.324 8.24604C136.092 8.55004 136.756 8.97403 137.316 9.51803C137.892 10.062 138.316 10.694 138.588 11.414L136.212 12.518C135.94 11.846 135.5 11.31 134.892 10.91C134.3 10.494 133.62 10.286 132.852 10.286C132.116 10.286 131.452 10.47 130.86 10.838C130.284 11.19 129.828 11.694 129.492 12.35C129.156 12.99 128.988 13.718 128.988 14.534C128.988 15.35 129.156 16.086 129.492 16.742C129.828 17.382 130.284 17.886 130.86 18.254C131.452 18.622 132.116 18.806 132.852 18.806C133.636 18.806 134.316 18.606 134.892 18.206C135.484 17.79 135.924 17.238 136.212 16.55L138.588 17.678C138.332 18.366 137.916 18.99 137.34 19.55C136.78 20.094 136.116 20.526 135.348 20.846C134.58 21.166 133.748 21.326 132.852 21.326Z" fill="#272625"/>
<path d="M141.239 21.038V2.87006H143.951V15.038L142.895 14.774L149.399 8.05404H152.783L147.887 13.262L152.999 21.038H149.879L145.319 14.15L146.927 13.934L143.087 18.014L143.951 16.214V21.038H141.239Z" fill="#272625"/>
<path d="M155.264 15.734V13.334H164.864V15.734H155.264Z" fill="#272625"/>
<path d="M173.081 21.326C172.105 21.326 171.249 21.11 170.513 20.678C169.777 20.23 169.201 19.614 168.785 18.83C168.385 18.03 168.185 17.11 168.185 16.07V8.05404H170.897V15.83C170.897 16.422 171.017 16.942 171.257 17.39C171.497 17.838 171.833 18.19 172.265 18.446C172.697 18.686 173.193 18.806 173.753 18.806C174.329 18.806 174.833 18.678 175.265 18.422C175.697 18.166 176.033 17.806 176.273 17.342C176.529 16.878 176.657 16.334 176.657 15.71V8.05404H179.345V21.038H176.777V18.494L177.065 18.83C176.761 19.63 176.257 20.246 175.553 20.678C174.849 21.11 174.025 21.326 173.081 21.326Z" fill="#272625"/>
<path d="M182.512 21.038V8.05404H185.224V21.038H182.512ZM182.512 6.27804V3.15805H185.224V6.27804H182.512Z" fill="#272625"/>
<rect x="191.224" y="1.5" width="43.9997" height="25" rx="12.5" fill="#F2F1F1"/>
<path d="M207.442 18.6541L209.552 10.9901H212.197L208.989 20.4998H207.39L207.442 18.6541ZM205.992 10.9901L208.11 18.6629L208.154 20.4998H206.546L203.338 10.9901H205.992ZM222.19 15.7186V17.7049H212.971L212.848 16.1668L218.182 7.70303H220.195L218.015 11.3505L215.361 15.7186H222.19ZM220.74 7.70303V20.4998H218.209V7.70303H220.74Z" fill="#404040"/>
</svg>
