<svg width="430" height="218" viewBox="0 0 430 218" fill="none" xmlns="http://www.w3.org/2000/svg">
<rect width="430" height="217.141" rx="3.78022" fill="black"/>
<path d="M70.9833 44.086C70.5221 44.086 70.0949 44.0104 69.7018 43.8592C69.3087 43.708 68.9684 43.4963 68.6811 43.2241C68.4014 42.9595 68.1973 42.6457 68.0687 42.2828L69.4523 41.7612C69.543 42.0485 69.7207 42.2791 69.9853 42.453C70.2575 42.6344 70.5901 42.7251 70.9833 42.7251C71.2857 42.7251 71.5503 42.6684 71.7771 42.555C72.0115 42.4416 72.193 42.2753 72.3215 42.056C72.45 41.8443 72.5143 41.5873 72.5143 41.2849V39.8786L72.7978 40.2188C72.5861 40.5893 72.3026 40.869 71.9472 41.0581C71.5919 41.2471 71.1874 41.3416 70.7338 41.3416C70.1592 41.3416 69.6451 41.2093 69.1915 40.9446C68.7378 40.68 68.3825 40.3171 68.1254 39.8559C67.8684 39.3948 67.7399 38.8769 67.7399 38.3023C67.7399 37.7201 67.8684 37.2022 68.1254 36.7486C68.3825 36.295 68.7341 35.9396 69.1801 35.6826C69.6262 35.418 70.1327 35.2857 70.6998 35.2857C71.161 35.2857 71.5654 35.3839 71.9132 35.5805C72.2686 35.7695 72.5634 36.0455 72.7978 36.4084L72.5937 36.7826V35.4217H73.9999V41.2849C73.9999 41.8217 73.8676 42.3017 73.603 42.7251C73.3459 43.1485 72.9906 43.4812 72.537 43.7231C72.0909 43.965 71.573 44.086 70.9833 44.086ZM70.9152 39.9694C71.2328 39.9694 71.5087 39.9013 71.7431 39.7652C71.985 39.6216 72.1741 39.425 72.3101 39.1755C72.4462 38.926 72.5143 38.6387 72.5143 38.3136C72.5143 37.9961 72.4425 37.7126 72.2988 37.4631C72.1627 37.206 71.9737 37.0057 71.7318 36.862C71.4974 36.7184 71.2252 36.6465 70.9152 36.6465C70.6053 36.6465 70.3255 36.7184 70.076 36.862C69.8265 37.0057 69.63 37.206 69.4863 37.4631C69.3502 37.7126 69.2822 37.9961 69.2822 38.3136C69.2822 38.6312 69.3502 38.9147 69.4863 39.1642C69.63 39.4137 69.8228 39.6102 70.0647 39.7539C70.3142 39.8975 70.5977 39.9694 70.9152 39.9694ZM75.1606 41.5911V33.0062H76.6462V41.5911H75.1606ZM79.9911 41.7272C79.5148 41.7272 79.099 41.6213 78.7437 41.4096C78.3959 41.1979 78.1275 40.9031 77.9385 40.525C77.757 40.147 77.6663 39.7047 77.6663 39.1982V35.4217H79.1519V39.0734C79.1519 39.3305 79.2011 39.5573 79.2994 39.7539C79.4052 39.9429 79.5526 40.0941 79.7416 40.2075C79.9382 40.3134 80.1575 40.3663 80.3994 40.3663C80.6413 40.3663 80.8568 40.3134 81.0458 40.2075C81.2348 40.0941 81.3823 39.9391 81.4881 39.7425C81.594 39.546 81.6469 39.3116 81.6469 39.0394V35.4217H83.1325V41.5911H81.7263V40.3776L81.851 40.5931C81.7074 40.9711 81.4692 41.2546 81.1365 41.4436C80.8114 41.6326 80.4296 41.7272 79.9911 41.7272ZM87.2126 41.7272C86.5775 41.7272 86.0218 41.5835 85.5455 41.2962C85.0692 41.0089 84.6987 40.6195 84.4341 40.1281C84.1695 39.6367 84.0372 39.0923 84.0372 38.4951C84.0372 37.8751 84.1695 37.327 84.4341 36.8507C84.7063 36.3668 85.073 35.985 85.5342 35.7053C86.0029 35.4255 86.5246 35.2857 87.0992 35.2857C87.583 35.2857 88.0064 35.365 88.3693 35.5238C88.7398 35.6826 89.0535 35.9018 89.3106 36.1816C89.5676 36.4613 89.7642 36.7826 89.9003 37.1455C90.0364 37.5009 90.1044 37.8864 90.1044 38.3023C90.1044 38.4081 90.0969 38.5177 90.0818 38.6312C90.0742 38.7446 90.0553 38.8428 90.0251 38.926H85.262V37.7919H89.1858L88.4827 38.325C88.5508 37.9772 88.5319 37.6672 88.426 37.395C88.3277 37.1228 88.1614 36.9074 87.927 36.7486C87.7002 36.5898 87.4243 36.5104 87.0992 36.5104C86.7892 36.5104 86.5132 36.5898 86.2713 36.7486C86.0294 36.8998 85.8441 37.1266 85.7156 37.429C85.5946 37.7239 85.5493 38.083 85.5795 38.5064C85.5493 38.8844 85.5984 39.2209 85.7269 39.5157C85.863 39.803 86.0596 40.0261 86.3167 40.1848C86.5813 40.3436 86.8837 40.423 87.2239 40.423C87.5641 40.423 87.8514 40.3512 88.0858 40.2075C88.3277 40.0639 88.5167 39.8711 88.6528 39.6291L89.8549 40.2188C89.734 40.5137 89.545 40.7745 89.2879 41.0014C89.0309 41.2282 88.7247 41.4058 88.3693 41.5344C88.0215 41.6629 87.636 41.7272 87.2126 41.7272ZM93.3513 41.7272C92.6936 41.7272 92.119 41.5722 91.6275 41.2622C91.1437 40.9446 90.811 40.5175 90.6296 39.9807L91.741 39.4477C91.8997 39.7955 92.119 40.0676 92.3987 40.2642C92.686 40.4608 93.0035 40.5591 93.3513 40.5591C93.6235 40.5591 93.839 40.4986 93.9977 40.3776C94.1565 40.2566 94.2359 40.0979 94.2359 39.9013C94.2359 39.7803 94.2019 39.6821 94.1338 39.6064C94.0733 39.5233 93.9864 39.4552 93.873 39.4023C93.7671 39.3418 93.65 39.2927 93.5214 39.2549L92.5121 38.9714C91.9904 38.8202 91.5935 38.5896 91.3213 38.2796C91.0567 37.9696 90.9244 37.6029 90.9244 37.1795C90.9244 36.8015 91.0189 36.4726 91.2079 36.1929C91.4045 35.9056 91.6729 35.6826 92.0131 35.5238C92.3609 35.365 92.7578 35.2857 93.2039 35.2857C93.786 35.2857 94.3002 35.4255 94.7462 35.7053C95.1923 35.985 95.5098 36.3781 95.6988 36.8847L94.5648 37.4177C94.4589 37.138 94.2813 36.9149 94.0318 36.7486C93.7823 36.5823 93.5025 36.4991 93.1926 36.4991C92.9431 36.4991 92.7465 36.5558 92.6028 36.6692C92.4592 36.7826 92.3874 36.9301 92.3874 37.1115C92.3874 37.2249 92.4176 37.3232 92.4781 37.4064C92.5386 37.4895 92.6217 37.5576 92.7276 37.6105C92.841 37.6634 92.9695 37.7126 93.1132 37.7579L94.0998 38.0528C94.6064 38.204 94.9957 38.4308 95.2679 38.7332C95.5476 39.0356 95.6875 39.4061 95.6875 39.8446C95.6875 40.2151 95.5892 40.5439 95.3926 40.8312C95.1961 41.111 94.9239 41.3302 94.5761 41.489C94.2283 41.6478 93.8201 41.7272 93.3513 41.7272ZM99.4149 41.6591C98.7193 41.6591 98.1787 41.4701 97.7931 41.0921C97.4151 40.7065 97.2261 40.1659 97.2261 39.4704V36.7486H96.1601V35.4217H96.2735C96.5759 35.4217 96.8103 35.3424 96.9766 35.1836C97.1429 35.0248 97.2261 34.7942 97.2261 34.4918V34.0155H98.7117V35.4217H100.129V36.7486H98.7117V39.391C98.7117 39.5951 98.7458 39.769 98.8138 39.9126C98.8894 40.0563 99.0028 40.1659 99.154 40.2415C99.3128 40.3171 99.5131 40.3549 99.7551 40.3549C99.808 40.3549 99.8685 40.3512 99.9365 40.3436C100.012 40.336 100.084 40.3285 100.152 40.3209V41.5911C100.046 41.6062 99.9252 41.6213 99.7891 41.6364C99.653 41.6515 99.5283 41.6591 99.4149 41.6591ZM102.909 41.7272C102.478 41.7272 102.104 41.6553 101.787 41.5117C101.469 41.368 101.223 41.1639 101.049 40.8993C100.876 40.6271 100.789 40.3134 100.789 39.958C100.789 39.6178 100.864 39.3154 101.015 39.0508C101.167 38.7786 101.401 38.5518 101.719 38.3703C102.036 38.1889 102.437 38.0603 102.921 37.9847L104.939 37.6559V38.7899L103.204 39.0848C102.909 39.1377 102.69 39.2322 102.546 39.3683C102.403 39.5044 102.331 39.6821 102.331 39.9013C102.331 40.113 102.41 40.2831 102.569 40.4116C102.735 40.5326 102.94 40.5931 103.181 40.5931C103.491 40.5931 103.764 40.5288 103.998 40.4003C104.24 40.2642 104.425 40.079 104.554 39.8446C104.69 39.6102 104.758 39.3532 104.758 39.0734V37.4857C104.758 37.2211 104.652 37.0019 104.44 36.828C104.236 36.6465 103.964 36.5558 103.624 36.5558C103.306 36.5558 103.023 36.6428 102.773 36.8166C102.531 36.983 102.354 37.206 102.24 37.4857L101.027 36.896C101.148 36.5709 101.337 36.2912 101.594 36.0568C101.858 35.8149 102.168 35.6259 102.524 35.4898C102.879 35.3537 103.265 35.2857 103.68 35.2857C104.187 35.2857 104.633 35.3802 105.019 35.5692C105.404 35.7506 105.703 36.0077 105.915 36.3403C106.134 36.6654 106.243 37.0472 106.243 37.4857V41.5911H104.837V40.5364L105.155 40.5137C104.996 40.7783 104.807 41.0014 104.588 41.1828C104.368 41.3567 104.119 41.4928 103.839 41.5911C103.559 41.6818 103.25 41.7272 102.909 41.7272ZM110.361 41.7272C109.749 41.7272 109.197 41.5873 108.705 41.3075C108.221 41.0203 107.84 40.6347 107.56 40.1508C107.28 39.6594 107.14 39.1075 107.14 38.4951C107.14 37.8827 107.28 37.3345 107.56 36.8507C107.84 36.3668 108.221 35.985 108.705 35.7053C109.197 35.4255 109.749 35.2857 110.361 35.2857C110.799 35.2857 111.208 35.365 111.586 35.5238C111.964 35.675 112.289 35.8867 112.561 36.1589C112.841 36.4235 113.041 36.741 113.162 37.1115L111.858 37.6785C111.745 37.3686 111.552 37.1191 111.28 36.9301C111.015 36.741 110.709 36.6465 110.361 36.6465C110.036 36.6465 109.745 36.7259 109.488 36.8847C109.238 37.0435 109.042 37.2627 108.898 37.5424C108.754 37.8222 108.683 38.1435 108.683 38.5064C108.683 38.8693 108.754 39.1906 108.898 39.4704C109.042 39.7501 109.238 39.9694 109.488 40.1281C109.745 40.2869 110.036 40.3663 110.361 40.3663C110.716 40.3663 111.026 40.2718 111.291 40.0828C111.556 39.8937 111.745 39.6405 111.858 39.3229L113.162 39.9126C113.041 40.2604 112.845 40.5742 112.572 40.8539C112.3 41.1261 111.975 41.3416 111.597 41.5003C111.219 41.6515 110.807 41.7272 110.361 41.7272ZM114.063 41.5911V33.0062H115.548V38.6312L114.981 38.461L117.884 35.4217H119.733L117.453 37.9054L119.778 41.5911H118.077L116.059 38.393L116.943 38.2115L115.083 40.2075L115.548 39.3003V41.5911H114.063ZM120.687 39.1642V37.86H125.507V39.1642H120.687ZM129.154 41.7272C128.678 41.7272 128.262 41.6213 127.907 41.4096C127.559 41.1979 127.291 40.9031 127.102 40.525C126.92 40.147 126.829 39.7047 126.829 39.1982V35.4217H128.315V39.0734C128.315 39.3305 128.364 39.5573 128.462 39.7539C128.568 39.9429 128.716 40.0941 128.905 40.2075C129.101 40.3134 129.321 40.3663 129.562 40.3663C129.804 40.3663 130.02 40.3134 130.209 40.2075C130.398 40.0941 130.545 39.9391 130.651 39.7425C130.757 39.546 130.81 39.3116 130.81 39.0394V35.4217H132.296V41.5911H130.889V40.3776L131.014 40.5931C130.87 40.9711 130.632 41.2546 130.3 41.4436C129.975 41.6326 129.593 41.7272 129.154 41.7272ZM133.45 41.5911V35.4217H134.935V41.5911H133.45ZM133.45 34.73V33.1423H134.935V34.73H133.45Z" fill="#FAFAFA"/>
<g clipPath="url(#clip0_12265_35936)">
<g filter="url(#filter0_i_12265_35936)">
<rect x="152.626" y="34.5627" width="192.319" height="5.67033" rx="2.83516" fill="url(#paint0_linear_12265_35936)"/>
<rect x="152.862" y="34.799" width="191.846" height="5.1978" rx="2.5989" stroke="white" stroke-opacity="0.04" strokeWidth="0.472527"/>
</g>
<path d="M153.001 37.0002C153.001 35.3434 154.344 34.0002 156.001 34.0002H263.001V40.0002H156.001C154.344 40.0002 153.001 38.6571 153.001 37.0002Z" fill="#0177E5"/>
</g>
<path d="M363.578 41.0911V34.5135L362.296 34.8083V33.9238L364.054 33.1526H364.825V41.0911H363.578ZM369.353 41.2272C368.77 41.2272 368.279 41.1175 367.878 40.8983C367.478 40.679 367.153 40.3879 366.903 40.025C366.661 39.6621 366.487 39.2539 366.381 38.8003C366.276 38.3466 366.223 37.8817 366.223 37.4054C366.223 36.5283 366.344 35.761 366.586 35.1032C366.835 34.4454 367.19 33.9351 367.652 33.5722C368.113 33.2017 368.672 33.0165 369.33 33.0165C369.852 33.0165 370.298 33.1186 370.668 33.3227C371.039 33.5268 371.326 33.799 371.53 34.1392C371.742 34.4795 371.87 34.8499 371.916 35.2506H370.793C370.725 34.8575 370.562 34.5551 370.305 34.3434C370.048 34.1317 369.719 34.0258 369.319 34.0258C368.767 34.0258 368.309 34.2867 367.946 34.8083C367.591 35.3224 367.402 36.1163 367.379 37.1899C367.561 36.8572 367.841 36.5737 368.219 36.3393C368.604 36.105 369.046 35.9878 369.545 35.9878C369.992 35.9878 370.407 36.0936 370.793 36.3053C371.186 36.517 371.504 36.8156 371.746 37.2012C371.995 37.5792 372.12 38.0291 372.12 38.5508C372.12 39.0119 372.006 39.4467 371.78 39.8549C371.553 40.2632 371.231 40.5959 370.816 40.8529C370.407 41.1024 369.92 41.2272 369.353 41.2272ZM369.285 40.1838C369.602 40.1838 369.886 40.1158 370.135 39.9797C370.385 39.8436 370.581 39.6584 370.725 39.424C370.869 39.1821 370.94 38.9099 370.94 38.6075C370.94 38.1236 370.782 37.738 370.464 37.4507C370.154 37.1634 369.757 37.0198 369.273 37.0198C368.956 37.0198 368.668 37.0916 368.411 37.2352C368.162 37.3789 367.965 37.5717 367.822 37.8136C367.678 38.048 367.606 38.3088 367.606 38.5961C367.606 38.9061 367.678 39.1821 367.822 39.424C367.973 39.6584 368.173 39.8436 368.423 39.9797C368.68 40.1158 368.967 40.1838 369.285 40.1838ZM377.221 41.0911V39.5034H373.241V38.5508L377.028 33.1526H378.412V38.46H379.523V39.5034H378.412V41.0911H377.221ZM374.545 38.46H377.289V34.4795L374.545 38.46ZM383.481 41.0911V35.4661H384.547L384.649 36.2599C384.831 35.9726 385.069 35.7458 385.364 35.5795C385.666 35.4132 386.014 35.33 386.407 35.33C387.299 35.33 387.919 35.6816 388.267 36.3847C388.471 36.0596 388.743 35.8025 389.084 35.6135C389.431 35.4245 389.806 35.33 390.206 35.33C390.909 35.33 391.461 35.5417 391.862 35.9651C392.263 36.3885 392.463 37.0198 392.463 37.859V41.0911H391.261V37.9837C391.261 36.895 390.845 36.3507 390.013 36.3507C389.59 36.3507 389.242 36.5094 388.97 36.827C388.706 37.1445 388.573 37.5981 388.573 38.1879V41.0911H387.371V37.9837C387.371 36.895 386.951 36.3507 386.112 36.3507C385.696 36.3507 385.352 36.5094 385.08 36.827C384.816 37.1445 384.683 37.5981 384.683 38.1879V41.0911H383.481ZM396.115 41.2272C395.404 41.2272 394.818 41.0533 394.357 40.7055C393.896 40.3577 393.631 39.8965 393.563 39.3219H394.777C394.837 39.579 394.981 39.802 395.208 39.991C395.434 40.1725 395.733 40.2632 396.104 40.2632C396.466 40.2632 396.731 40.1876 396.897 40.0364C397.064 39.8852 397.147 39.7113 397.147 39.5147C397.147 39.2274 397.03 39.0346 396.795 38.9363C396.569 38.8305 396.251 38.736 395.843 38.6528C395.525 38.5848 395.208 38.4941 394.89 38.3806C394.58 38.2672 394.319 38.1085 394.108 37.9043C393.903 37.6926 393.801 37.4091 393.801 37.0538C393.801 36.5624 393.99 36.1541 394.368 35.829C394.746 35.4963 395.276 35.33 395.956 35.33C396.584 35.33 397.09 35.4812 397.476 35.7836C397.869 36.0861 398.1 36.5132 398.168 37.0651H397.011C396.973 36.8232 396.86 36.6342 396.671 36.4981C396.489 36.362 396.243 36.294 395.933 36.294C395.631 36.294 395.397 36.3582 395.23 36.4868C395.064 36.6077 394.981 36.7665 394.981 36.9631C394.981 37.1596 395.094 37.3146 395.321 37.428C395.555 37.5414 395.862 37.6435 396.24 37.7342C396.618 37.8174 396.965 37.9157 397.283 38.0291C397.608 38.1349 397.869 38.2937 398.066 38.5054C398.262 38.7171 398.36 39.0271 398.36 39.4353C398.368 39.9494 398.168 40.3766 397.759 40.7168C397.359 41.057 396.81 41.2272 396.115 41.2272Z" fill="#A3A3A3"/>
<path d="M69.0001 77.0808V68.632H72.1415C72.716 68.632 73.2226 68.7379 73.6611 68.9496C74.1072 69.1537 74.4549 69.4561 74.7044 69.8568C74.9539 70.25 75.0787 70.73 75.0787 71.2971C75.0787 71.8792 74.9388 72.3744 74.6591 72.7827C74.3869 73.191 74.0164 73.4934 73.5477 73.69L75.4869 77.0808H73.7405L71.6651 73.3724L72.6631 73.9621H70.5424V77.0808H69.0001ZM70.5424 72.6013H72.1641C72.4439 72.6013 72.6858 72.5483 72.8899 72.4425C73.0941 72.3291 73.2528 72.1741 73.3662 71.9775C73.4797 71.7809 73.5364 71.5541 73.5364 71.2971C73.5364 71.0325 73.4797 70.8056 73.3662 70.6166C73.2528 70.4201 73.0941 70.2689 72.8899 70.163C72.6858 70.0496 72.4439 69.9929 72.1641 69.9929H70.5424V72.6013ZM78.7288 77.2169C78.0937 77.2169 77.538 77.0733 77.0617 76.786C76.5854 76.4987 76.2149 76.1093 75.9503 75.6179C75.6857 75.1264 75.5534 74.5821 75.5534 73.9848C75.5534 73.3649 75.6857 72.8167 75.9503 72.3404C76.2225 71.8565 76.5892 71.4747 77.0504 71.195C77.5191 70.9153 78.0408 70.7754 78.6154 70.7754C79.0992 70.7754 79.5226 70.8548 79.8855 71.0136C80.256 71.1723 80.5697 71.3916 80.8268 71.6713C81.0839 71.9511 81.2804 72.2724 81.4165 72.6353C81.5526 72.9906 81.6206 73.3762 81.6206 73.792C81.6206 73.8979 81.6131 74.0075 81.598 74.1209C81.5904 74.2343 81.5715 74.3326 81.5413 74.4158H76.7782V73.2817H80.7021L79.9989 73.8147C80.067 73.4669 80.0481 73.1569 79.9422 72.8848C79.8439 72.6126 79.6776 72.3971 79.4432 72.2383C79.2164 72.0796 78.9405 72.0002 78.6154 72.0002C78.3054 72.0002 78.0294 72.0796 77.7875 72.2383C77.5456 72.3896 77.3603 72.6164 77.2318 72.9188C77.1108 73.2136 77.0655 73.5728 77.0957 73.9962C77.0655 74.3742 77.1146 74.7106 77.2432 75.0055C77.3792 75.2928 77.5758 75.5158 77.8329 75.6746C78.0975 75.8333 78.3999 75.9127 78.7401 75.9127C79.0803 75.9127 79.3676 75.8409 79.602 75.6973C79.8439 75.5536 80.033 75.3608 80.169 75.1189L81.3712 75.7086C81.2502 76.0034 81.0612 76.2643 80.8041 76.4911C80.5471 76.7179 80.2409 76.8956 79.8855 77.0241C79.5377 77.1526 79.1522 77.2169 78.7288 77.2169ZM84.3691 77.2169C83.9381 77.2169 83.5639 77.1451 83.2464 77.0014C82.9288 76.8578 82.6831 76.6536 82.5092 76.389C82.3353 76.1169 82.2484 75.8031 82.2484 75.4478C82.2484 75.1075 82.324 74.8051 82.4752 74.5405C82.6264 74.2683 82.8608 74.0415 83.1783 73.8601C83.4958 73.6786 83.8965 73.5501 84.3804 73.4745L86.3991 73.1456V74.2797L84.6639 74.5745C84.3691 74.6274 84.1498 74.722 84.0062 74.858C83.8625 74.9941 83.7907 75.1718 83.7907 75.3911C83.7907 75.6027 83.8701 75.7729 84.0289 75.9014C84.1952 76.0223 84.3993 76.0828 84.6413 76.0828C84.9512 76.0828 85.2234 76.0186 85.4578 75.89C85.6997 75.754 85.8849 75.5687 86.0135 75.3343C86.1496 75.1 86.2176 74.8429 86.2176 74.5632V72.9755C86.2176 72.7109 86.1118 72.4916 85.9001 72.3177C85.6959 72.1363 85.4238 72.0456 85.0835 72.0456C84.766 72.0456 84.4825 72.1325 84.233 72.3064C83.9911 72.4727 83.8134 72.6958 83.7 72.9755L82.4865 72.3858C82.6075 72.0607 82.7965 71.7809 83.0536 71.5466C83.3182 71.3046 83.6282 71.1156 83.9835 70.9795C84.3388 70.8434 84.7244 70.7754 85.1402 70.7754C85.6468 70.7754 86.0929 70.8699 86.4784 71.0589C86.864 71.2404 87.1627 71.4974 87.3744 71.8301C87.5936 72.1552 87.7032 72.537 87.7032 72.9755V77.0808H86.297V76.0261L86.6145 76.0034C86.4558 76.2681 86.2667 76.4911 86.0475 76.6725C85.8282 76.8464 85.5787 76.9825 85.299 77.0808C85.0193 77.1715 84.7093 77.2169 84.3691 77.2169ZM91.8208 77.2169C91.2084 77.2169 90.6565 77.077 90.165 76.7973C89.6812 76.51 89.2994 76.1244 89.0196 75.6405C88.7399 75.1491 88.6 74.5972 88.6 73.9848C88.6 73.3724 88.7399 72.8243 89.0196 72.3404C89.2994 71.8565 89.6812 71.4747 90.165 71.195C90.6565 70.9153 91.2084 70.7754 91.8208 70.7754C92.2593 70.7754 92.6675 70.8548 93.0456 71.0136C93.4236 71.1648 93.7487 71.3765 94.0209 71.6486C94.3006 71.9132 94.501 72.2308 94.6219 72.6013L93.3177 73.1683C93.2043 72.8583 93.0115 72.6088 92.7394 72.4198C92.4748 72.2308 92.1686 72.1363 91.8208 72.1363C91.4957 72.1363 91.2046 72.2157 90.9475 72.3744C90.698 72.5332 90.5015 72.7525 90.3578 73.0322C90.2142 73.3119 90.1424 73.6332 90.1424 73.9962C90.1424 74.3591 90.2142 74.6804 90.3578 74.9601C90.5015 75.2398 90.698 75.4591 90.9475 75.6179C91.2046 75.7766 91.4957 75.856 91.8208 75.856C92.1761 75.856 92.4861 75.7615 92.7507 75.5725C93.0153 75.3835 93.2043 75.1302 93.3177 74.8127L94.6219 75.4024C94.501 75.7502 94.3044 76.0639 94.0322 76.3437C93.76 76.6158 93.4349 76.8313 93.0569 76.9901C92.6789 77.1413 92.2668 77.2169 91.8208 77.2169ZM98.3348 77.1489C97.6393 77.1489 97.0987 76.9598 96.7131 76.5818C96.3351 76.1962 96.1461 75.6557 96.1461 74.9601V72.2383H95.0801V70.9115H95.1935C95.4959 70.9115 95.7303 70.8321 95.8966 70.6733C96.0629 70.5146 96.1461 70.284 96.1461 69.9816V69.5052H97.6317V70.9115H99.0493V72.2383H97.6317V74.8807C97.6317 75.0849 97.6657 75.2587 97.7338 75.4024C97.8094 75.546 97.9228 75.6557 98.074 75.7313C98.2328 75.8069 98.4331 75.8447 98.6751 75.8447C98.728 75.8447 98.7885 75.8409 98.8565 75.8333C98.9321 75.8258 99.0039 75.8182 99.072 75.8107V77.0808C98.9661 77.0959 98.8452 77.1111 98.7091 77.1262C98.573 77.1413 98.4482 77.1489 98.3348 77.1489ZM101.894 77.0808V68.632H103.096L107.746 74.8921L107.122 75.0168V68.632H108.664V77.0808H107.451L102.869 70.7754L103.436 70.6507V77.0808H101.894ZM111.819 77.2169C111.388 77.2169 111.014 77.1451 110.697 77.0014C110.379 76.8578 110.133 76.6536 109.959 76.389C109.785 76.1169 109.699 75.8031 109.699 75.4478C109.699 75.1075 109.774 74.8051 109.925 74.5405C110.077 74.2683 110.311 74.0415 110.628 73.8601C110.946 73.6786 111.347 73.5501 111.831 73.4745L113.849 73.1456V74.2797L112.114 74.5745C111.819 74.6274 111.6 74.722 111.456 74.858C111.313 74.9941 111.241 75.1718 111.241 75.3911C111.241 75.6027 111.32 75.7729 111.479 75.9014C111.645 76.0223 111.849 76.0828 112.091 76.0828C112.401 76.0828 112.674 76.0186 112.908 75.89C113.15 75.754 113.335 75.5687 113.464 75.3343C113.6 75.1 113.668 74.8429 113.668 74.5632V72.9755C113.668 72.7109 113.562 72.4916 113.35 72.3177C113.146 72.1363 112.874 72.0456 112.534 72.0456C112.216 72.0456 111.933 72.1325 111.683 72.3064C111.441 72.4727 111.264 72.6958 111.15 72.9755L109.937 72.3858C110.058 72.0607 110.247 71.7809 110.504 71.5466C110.768 71.3046 111.078 71.1156 111.434 70.9795C111.789 70.8434 112.175 70.7754 112.59 70.7754C113.097 70.7754 113.543 70.8699 113.929 71.0589C114.314 71.2404 114.613 71.4974 114.825 71.8301C115.044 72.1552 115.153 72.537 115.153 72.9755V77.0808H113.747V76.0261L114.065 76.0034C113.906 76.2681 113.717 76.4911 113.498 76.6725C113.278 76.8464 113.029 76.9825 112.749 77.0808C112.469 77.1715 112.159 77.2169 111.819 77.2169ZM119.001 77.1489C118.306 77.1489 117.765 76.9598 117.38 76.5818C117.002 76.1962 116.813 75.6557 116.813 74.9601V72.2383H115.747V70.9115H115.86C116.162 70.9115 116.397 70.8321 116.563 70.6733C116.729 70.5146 116.813 70.284 116.813 69.9816V69.5052H118.298V70.9115H119.716V72.2383H118.298V74.8807C118.298 75.0849 118.332 75.2587 118.4 75.4024C118.476 75.546 118.589 75.6557 118.741 75.7313C118.899 75.8069 119.1 75.8447 119.342 75.8447C119.395 75.8447 119.455 75.8409 119.523 75.8333C119.599 75.8258 119.671 75.8182 119.739 75.8107V77.0808C119.633 77.0959 119.512 77.1111 119.376 77.1262C119.24 77.1413 119.115 77.1489 119.001 77.1489ZM120.647 77.0808V70.9115H122.132V77.0808H120.647ZM120.647 70.2197V68.632H122.132V70.2197H120.647ZM125.137 77.0808L122.71 70.9115H124.332L126.09 75.7653H125.489L127.258 70.9115H128.88L126.453 77.0808H125.137ZM132.289 77.2169C131.654 77.2169 131.098 77.0733 130.622 76.786C130.146 76.4987 129.775 76.1093 129.511 75.6179C129.246 75.1264 129.114 74.5821 129.114 73.9848C129.114 73.3649 129.246 72.8167 129.511 72.3404C129.783 71.8565 130.149 71.4747 130.611 71.195C131.079 70.9153 131.601 70.7754 132.176 70.7754C132.659 70.7754 133.083 70.8548 133.446 71.0136C133.816 71.1723 134.13 71.3916 134.387 71.6713C134.644 71.9511 134.841 72.2724 134.977 72.6353C135.113 72.9906 135.181 73.3762 135.181 73.792C135.181 73.8979 135.173 74.0075 135.158 74.1209C135.151 74.2343 135.132 74.3326 135.102 74.4158H130.338V73.2817H134.262L133.559 73.8147C133.627 73.4669 133.608 73.1569 133.502 72.8848C133.404 72.6126 133.238 72.3971 133.003 72.2383C132.777 72.0796 132.501 72.0002 132.176 72.0002C131.866 72.0002 131.59 72.0796 131.348 72.2383C131.106 72.3896 130.921 72.6164 130.792 72.9188C130.671 73.2136 130.626 73.5728 130.656 73.9962C130.626 74.3742 130.675 74.7106 130.803 75.0055C130.939 75.2928 131.136 75.5158 131.393 75.6746C131.658 75.8333 131.96 75.9127 132.3 75.9127C132.641 75.9127 132.928 75.8409 133.162 75.6973C133.404 75.5536 133.593 75.3608 133.729 75.1189L134.931 75.7086C134.81 76.0034 134.621 76.2643 134.364 76.4911C134.107 76.7179 133.801 76.8956 133.446 77.0241C133.098 77.1526 132.712 77.2169 132.289 77.2169Z" fill="#FAFAFA"/>
<g clipPath="url(#clip1_12265_35936)">
<g filter="url(#filter1_i_12265_35936)">
<rect x="152.626" y="69.9978" width="192.319" height="5.67033" rx="2.83516" fill="url(#paint1_linear_12265_35936)"/>
<rect x="152.862" y="70.2341" width="191.846" height="5.1978" rx="2.5989" stroke="white" stroke-opacity="0.04" strokeWidth="0.472527"/>
</g>
<path d="M153.001 72.9978C153.001 71.3409 154.344 69.9978 156.001 69.9978H201.001V75.9978H156.001C154.344 75.9978 153.001 74.6547 153.001 72.9978Z" fill="#61DAFB"/>
</g>
<path d="M363.317 76.5808L366.39 69.6743H362.262V68.6423H367.626V69.5156L364.576 76.5808H363.317ZM371.523 76.7169C370.941 76.7169 370.45 76.6073 370.049 76.388C369.648 76.1688 369.323 75.8777 369.074 75.5148C368.832 75.1519 368.658 74.7436 368.552 74.29C368.446 73.8364 368.393 73.3714 368.393 72.8951C368.393 72.0181 368.514 71.2507 368.756 70.5929C369.006 69.9352 369.361 69.4249 369.822 69.062C370.283 68.6915 370.843 68.5063 371.501 68.5063C372.022 68.5063 372.468 68.6083 372.839 68.8125C373.209 69.0166 373.497 69.2888 373.701 69.629C373.912 69.9692 374.041 70.3397 374.086 70.7404H372.964C372.896 70.3472 372.733 70.0448 372.476 69.8331C372.219 69.6214 371.89 69.5156 371.489 69.5156C370.937 69.5156 370.48 69.7764 370.117 70.2981C369.762 70.8122 369.573 71.606 369.55 72.6796C369.731 72.347 370.011 72.0634 370.389 71.8291C370.775 71.5947 371.217 71.4775 371.716 71.4775C372.162 71.4775 372.578 71.5834 372.964 71.7951C373.357 72.0067 373.674 72.3054 373.916 72.691C374.166 73.069 374.29 73.5188 374.29 74.0405C374.29 74.5017 374.177 74.9364 373.95 75.3447C373.723 75.7529 373.402 76.0856 372.986 76.3427C372.578 76.5922 372.09 76.7169 371.523 76.7169ZM371.455 75.6736C371.773 75.6736 372.056 75.6055 372.306 75.4694C372.555 75.3333 372.752 75.1481 372.896 74.9137C373.039 74.6718 373.111 74.3996 373.111 74.0972C373.111 73.6133 372.952 73.2278 372.635 72.9405C372.325 72.6532 371.928 72.5095 371.444 72.5095C371.126 72.5095 370.839 72.5813 370.582 72.725C370.333 72.8686 370.136 73.0614 369.992 73.3034C369.849 73.5377 369.777 73.7986 369.777 74.0859C369.777 74.3958 369.849 74.6718 369.992 74.9137C370.144 75.1481 370.344 75.3333 370.593 75.4694C370.85 75.6055 371.138 75.6736 371.455 75.6736ZM378.586 76.5808V70.9558H379.652L379.754 71.7497C379.936 71.4624 380.174 71.2356 380.469 71.0692C380.771 70.9029 381.119 70.8198 381.512 70.8198C382.404 70.8198 383.024 71.1713 383.372 71.8744C383.576 71.5493 383.848 71.2923 384.188 71.1033C384.536 70.9143 384.91 70.8198 385.311 70.8198C386.014 70.8198 386.566 71.0314 386.967 71.4548C387.368 71.8782 387.568 72.5095 387.568 73.3487V76.5808H386.366V73.4735C386.366 72.3848 385.95 71.8404 385.118 71.8404C384.695 71.8404 384.347 71.9992 384.075 72.3167C383.81 72.6343 383.678 73.0879 383.678 73.6776V76.5808H382.476V73.4735C382.476 72.3848 382.056 71.8404 381.217 71.8404C380.801 71.8404 380.457 71.9992 380.185 72.3167C379.921 72.6343 379.788 73.0879 379.788 73.6776V76.5808H378.586ZM391.22 76.7169C390.509 76.7169 389.923 76.543 389.462 76.1952C389.001 75.8474 388.736 75.3863 388.668 74.8117H389.882C389.942 75.0687 390.086 75.2918 390.313 75.4808C390.539 75.6622 390.838 75.7529 391.208 75.7529C391.571 75.7529 391.836 75.6773 392.002 75.5261C392.169 75.3749 392.252 75.201 392.252 75.0045C392.252 74.7172 392.135 74.5244 391.9 74.4261C391.673 74.3202 391.356 74.2257 390.948 74.1426C390.63 74.0745 390.313 73.9838 389.995 73.8704C389.685 73.757 389.424 73.5982 389.213 73.3941C389.008 73.1824 388.906 72.8989 388.906 72.5435C388.906 72.0521 389.095 71.6438 389.473 71.3187C389.851 70.9861 390.381 70.8198 391.061 70.8198C391.689 70.8198 392.195 70.971 392.581 71.2734C392.974 71.5758 393.204 72.003 393.272 72.5549H392.116C392.078 72.3129 391.965 72.1239 391.776 71.9878C391.594 71.8518 391.348 71.7837 391.038 71.7837C390.736 71.7837 390.502 71.848 390.335 71.9765C390.169 72.0975 390.086 72.2562 390.086 72.4528C390.086 72.6494 390.199 72.8044 390.426 72.9178C390.66 73.0312 390.967 73.1332 391.345 73.224C391.723 73.3071 392.07 73.4054 392.388 73.5188C392.713 73.6247 392.974 73.7834 393.17 73.9951C393.367 74.2068 393.465 74.5168 393.465 74.9251C393.473 75.4392 393.272 75.8663 392.864 76.2066C392.464 76.5468 391.915 76.7169 391.22 76.7169Z" fill="#A3A3A3"/>
<path d="M93.2072 112.571V105.483H91.0184V104.122H96.9156V105.483H94.7608V112.571H93.2072ZM98.7008 112.707C98.2699 112.707 97.8957 112.635 97.5781 112.491C97.2606 112.348 97.0149 112.143 96.841 111.879C96.6671 111.607 96.5801 111.293 96.5801 110.938C96.5801 110.597 96.6557 110.295 96.8069 110.03C96.9582 109.758 97.1925 109.531 97.5101 109.35C97.8276 109.168 98.2283 109.04 98.7122 108.964L100.731 108.635V109.769L98.9957 110.064C98.7008 110.117 98.4816 110.212 98.3379 110.348C98.1943 110.484 98.1225 110.662 98.1225 110.881C98.1225 111.092 98.2018 111.263 98.3606 111.391C98.5269 111.512 98.7311 111.573 98.973 111.573C99.283 111.573 99.5552 111.508 99.7895 111.38C100.031 111.244 100.217 111.058 100.345 110.824C100.481 110.59 100.549 110.333 100.549 110.053V108.465C100.549 108.201 100.444 107.981 100.232 107.807C100.028 107.626 99.7555 107.535 99.4153 107.535C99.0978 107.535 98.8142 107.622 98.5647 107.796C98.3228 107.962 98.1451 108.186 98.0317 108.465L96.8183 107.876C96.9393 107.55 97.1283 107.271 97.3853 107.036C97.6499 106.794 97.9599 106.605 98.3153 106.469C98.6706 106.333 99.0562 106.265 99.472 106.265C99.9786 106.265 100.425 106.36 100.81 106.549C101.196 106.73 101.494 106.987 101.706 107.32C101.925 107.645 102.035 108.027 102.035 108.465V112.571H100.629V111.516L100.946 111.493C100.788 111.758 100.599 111.981 100.379 112.162C100.16 112.336 99.9105 112.472 99.6308 112.571C99.351 112.661 99.0411 112.707 98.7008 112.707ZM103.181 112.571V106.401H104.576V107.83L104.417 107.592C104.531 107.146 104.758 106.813 105.098 106.594C105.438 106.375 105.839 106.265 106.3 106.265C106.807 106.265 107.253 106.397 107.638 106.662C108.024 106.927 108.273 107.274 108.387 107.705L107.967 107.739C108.156 107.248 108.44 106.881 108.818 106.639C109.196 106.39 109.63 106.265 110.122 106.265C110.56 106.265 110.95 106.363 111.29 106.56C111.638 106.757 111.91 107.033 112.106 107.388C112.303 107.736 112.401 108.14 112.401 108.601V112.571H110.916V108.953C110.916 108.681 110.866 108.446 110.768 108.25C110.67 108.053 110.534 107.902 110.36 107.796C110.186 107.683 109.974 107.626 109.725 107.626C109.49 107.626 109.283 107.683 109.101 107.796C108.92 107.902 108.78 108.053 108.682 108.25C108.583 108.446 108.534 108.681 108.534 108.953V112.571H107.048V108.953C107.048 108.681 106.999 108.446 106.901 108.25C106.803 108.053 106.663 107.902 106.481 107.796C106.308 107.683 106.1 107.626 105.858 107.626C105.623 107.626 105.415 107.683 105.234 107.796C105.052 107.902 104.913 108.053 104.814 108.25C104.716 108.446 104.667 108.681 104.667 108.953V112.571H103.181ZM115.302 112.707C114.872 112.707 114.497 112.635 114.18 112.491C113.862 112.348 113.617 112.143 113.443 111.879C113.269 111.607 113.182 111.293 113.182 110.938C113.182 110.597 113.257 110.295 113.409 110.03C113.56 109.758 113.794 109.531 114.112 109.35C114.429 109.168 114.83 109.04 115.314 108.964L117.332 108.635V109.769L115.597 110.064C115.302 110.117 115.083 110.212 114.94 110.348C114.796 110.484 114.724 110.662 114.724 110.881C114.724 111.092 114.804 111.263 114.962 111.391C115.129 111.512 115.333 111.573 115.575 111.573C115.885 111.573 116.157 111.508 116.391 111.38C116.633 111.244 116.818 111.058 116.947 110.824C117.083 110.59 117.151 110.333 117.151 110.053V108.465C117.151 108.201 117.045 107.981 116.833 107.807C116.629 107.626 116.357 107.535 116.017 107.535C115.699 107.535 115.416 107.622 115.166 107.796C114.924 107.962 114.747 108.186 114.633 108.465L113.42 107.876C113.541 107.55 113.73 107.271 113.987 107.036C114.252 106.794 114.562 106.605 114.917 106.469C115.272 106.333 115.658 106.265 116.074 106.265C116.58 106.265 117.026 106.36 117.412 106.549C117.797 106.73 118.096 106.987 118.308 107.32C118.527 107.645 118.637 108.027 118.637 108.465V112.571H117.23V111.516L117.548 111.493C117.389 111.758 117.2 111.981 116.981 112.162C116.762 112.336 116.512 112.472 116.232 112.571C115.953 112.661 115.643 112.707 115.302 112.707ZM122.777 115.066C122.316 115.066 121.889 114.99 121.495 114.839C121.102 114.687 120.762 114.476 120.475 114.204C120.195 113.939 119.991 113.625 119.862 113.262L121.246 112.741C121.337 113.028 121.514 113.259 121.779 113.432C122.051 113.614 122.384 113.705 122.777 113.705C123.079 113.705 123.344 113.648 123.571 113.535C123.805 113.421 123.987 113.255 124.115 113.036C124.244 112.824 124.308 112.567 124.308 112.264V110.858L124.591 111.198C124.38 111.569 124.096 111.849 123.741 112.038C123.386 112.227 122.981 112.321 122.527 112.321C121.953 112.321 121.439 112.189 120.985 111.924C120.531 111.66 120.176 111.297 119.919 110.835C119.662 110.374 119.533 109.856 119.533 109.282C119.533 108.7 119.662 108.182 119.919 107.728C120.176 107.274 120.528 106.919 120.974 106.662C121.42 106.397 121.926 106.265 122.493 106.265C122.955 106.265 123.359 106.363 123.707 106.56C124.062 106.749 124.357 107.025 124.591 107.388L124.387 107.762V106.401H125.794V112.264C125.794 112.801 125.661 113.281 125.397 113.705C125.14 114.128 124.784 114.461 124.331 114.703C123.884 114.945 123.367 115.066 122.777 115.066ZM122.709 110.949C123.026 110.949 123.302 110.881 123.537 110.745C123.779 110.601 123.968 110.404 124.104 110.155C124.24 109.906 124.308 109.618 124.308 109.293C124.308 108.976 124.236 108.692 124.092 108.443C123.956 108.186 123.767 107.985 123.525 107.842C123.291 107.698 123.019 107.626 122.709 107.626C122.399 107.626 122.119 107.698 121.87 107.842C121.62 107.985 121.424 108.186 121.28 108.443C121.144 108.692 121.076 108.976 121.076 109.293C121.076 109.611 121.144 109.894 121.28 110.144C121.424 110.393 121.616 110.59 121.858 110.733C122.108 110.877 122.391 110.949 122.709 110.949ZM129.154 112.707C128.678 112.707 128.262 112.601 127.907 112.389C127.559 112.177 127.291 111.883 127.102 111.505C126.92 111.127 126.829 110.684 126.829 110.178V106.401H128.315V110.053C128.315 110.31 128.364 110.537 128.462 110.733C128.568 110.922 128.716 111.074 128.905 111.187C129.101 111.293 129.321 111.346 129.562 111.346C129.804 111.346 130.02 111.293 130.209 111.187C130.398 111.074 130.545 110.919 130.651 110.722C130.757 110.525 130.81 110.291 130.81 110.019V106.401H132.296V112.571H130.889V111.357L131.014 111.573C130.87 111.951 130.632 112.234 130.3 112.423C129.975 112.612 129.593 112.707 129.154 112.707ZM133.45 112.571V106.401H134.935V112.571H133.45ZM133.45 105.709V104.122H134.935V105.709H133.45Z" fill="#FAFAFA"/>
<g clipPath="url(#clip2_12265_35936)">
<g filter="url(#filter2_i_12265_35936)">
<rect x="152.626" y="105.433" width="192.319" height="5.67033" rx="2.83516" fill="url(#paint2_linear_12265_35936)"/>
<rect x="152.862" y="105.669" width="191.846" height="5.1978" rx="2.5989" stroke="white" stroke-opacity="0.04" strokeWidth="0.472527"/>
</g>
<path d="M153.001 108.347C153.001 106.69 154.344 105.347 156.001 105.347H290.001V111.347H156.001C154.344 111.347 153.001 110.004 153.001 108.347Z" fill="#D6409F"/>
</g>
<path d="M363.578 112.071V105.493L362.296 105.788V104.903L364.054 104.132H364.825V112.071H363.578ZM369.149 112.207C368.619 112.207 368.139 112.112 367.708 111.923C367.285 111.727 366.945 111.454 366.688 111.107C366.438 110.759 366.313 110.351 366.313 109.882C366.313 109.406 366.446 108.978 366.71 108.6C366.982 108.222 367.342 107.965 367.788 107.829C367.387 107.67 367.077 107.44 366.858 107.137C366.638 106.827 366.529 106.487 366.529 106.117C366.529 105.731 366.631 105.38 366.835 105.062C367.039 104.737 367.334 104.48 367.72 104.291C368.113 104.094 368.589 103.996 369.149 103.996C369.708 103.996 370.181 104.094 370.566 104.291C370.959 104.48 371.258 104.737 371.462 105.062C371.666 105.38 371.768 105.731 371.768 106.117C371.768 106.48 371.655 106.82 371.428 107.137C371.209 107.447 370.899 107.678 370.498 107.829C370.944 107.973 371.299 108.234 371.564 108.612C371.836 108.982 371.972 109.406 371.972 109.882C371.972 110.351 371.848 110.759 371.598 111.107C371.349 111.454 371.008 111.727 370.577 111.923C370.154 112.112 369.678 112.207 369.149 112.207ZM369.149 107.444C369.587 107.444 369.931 107.33 370.181 107.103C370.438 106.877 370.566 106.585 370.566 106.23C370.566 105.829 370.441 105.523 370.192 105.312C369.942 105.1 369.595 104.994 369.149 104.994C368.702 104.994 368.355 105.1 368.105 105.312C367.856 105.523 367.731 105.829 367.731 106.23C367.731 106.585 367.856 106.877 368.105 107.103C368.355 107.33 368.702 107.444 369.149 107.444ZM369.149 111.186C369.693 111.186 370.101 111.057 370.373 110.8C370.645 110.536 370.782 110.199 370.782 109.791C370.782 109.337 370.634 108.99 370.339 108.748C370.052 108.498 369.655 108.374 369.149 108.374C368.642 108.374 368.241 108.498 367.946 108.748C367.652 108.99 367.504 109.337 367.504 109.791C367.504 110.199 367.64 110.536 367.912 110.8C368.192 111.057 368.604 111.186 369.149 111.186ZM376.385 112.207C375.803 112.207 375.312 112.097 374.911 111.878C374.51 111.659 374.185 111.367 373.936 111.005C373.694 110.642 373.52 110.233 373.414 109.78C373.308 109.326 373.255 108.861 373.255 108.385C373.255 107.508 373.376 106.74 373.618 106.083C373.868 105.425 374.223 104.915 374.684 104.552C375.145 104.181 375.705 103.996 376.363 103.996C376.884 103.996 377.33 104.098 377.701 104.302C378.071 104.506 378.358 104.779 378.563 105.119C378.774 105.459 378.903 105.829 378.948 106.23H377.825C377.757 105.837 377.595 105.535 377.338 105.323C377.081 105.111 376.752 105.005 376.351 105.005C375.799 105.005 375.342 105.266 374.979 105.788C374.624 106.302 374.435 107.096 374.412 108.169C374.593 107.837 374.873 107.553 375.251 107.319C375.637 107.084 376.079 106.967 376.578 106.967C377.024 106.967 377.44 107.073 377.825 107.285C378.219 107.496 378.536 107.795 378.778 108.181C379.028 108.559 379.152 109.009 379.152 109.53C379.152 109.991 379.039 110.426 378.812 110.834C378.585 111.243 378.264 111.575 377.848 111.832C377.44 112.082 376.952 112.207 376.385 112.207ZM376.317 111.163C376.635 111.163 376.918 111.095 377.168 110.959C377.417 110.823 377.614 110.638 377.757 110.403C377.901 110.162 377.973 109.889 377.973 109.587C377.973 109.103 377.814 108.718 377.497 108.43C377.187 108.143 376.79 107.999 376.306 107.999C375.988 107.999 375.701 108.071 375.444 108.215C375.194 108.358 374.998 108.551 374.854 108.793C374.711 109.027 374.639 109.288 374.639 109.576C374.639 109.886 374.711 110.162 374.854 110.403C375.005 110.638 375.206 110.823 375.455 110.959C375.712 111.095 376 111.163 376.317 111.163ZM383.448 112.071V106.446H384.514L384.616 107.239C384.798 106.952 385.036 106.725 385.331 106.559C385.633 106.393 385.981 106.31 386.374 106.31C387.266 106.31 387.886 106.661 388.234 107.364C388.438 107.039 388.71 106.782 389.05 106.593C389.398 106.404 389.772 106.31 390.173 106.31C390.876 106.31 391.428 106.521 391.829 106.945C392.229 107.368 392.43 107.999 392.43 108.838V112.071H391.228V108.963C391.228 107.875 390.812 107.33 389.98 107.33C389.557 107.33 389.209 107.489 388.937 107.806C388.672 108.124 388.54 108.578 388.54 109.167V112.071H387.338V108.963C387.338 107.875 386.918 107.33 386.079 107.33C385.663 107.33 385.319 107.489 385.047 107.806C384.782 108.124 384.65 108.578 384.65 109.167V112.071H383.448ZM396.082 112.207C395.371 112.207 394.785 112.033 394.324 111.685C393.863 111.337 393.598 110.876 393.53 110.301H394.743C394.804 110.558 394.948 110.782 395.174 110.971C395.401 111.152 395.7 111.243 396.07 111.243C396.433 111.243 396.698 111.167 396.864 111.016C397.031 110.865 397.114 110.691 397.114 110.494C397.114 110.207 396.997 110.014 396.762 109.916C396.535 109.81 396.218 109.715 395.81 109.632C395.492 109.564 395.174 109.474 394.857 109.36C394.547 109.247 394.286 109.088 394.074 108.884C393.87 108.672 393.768 108.389 393.768 108.033C393.768 107.542 393.957 107.134 394.335 106.808C394.713 106.476 395.242 106.31 395.923 106.31C396.55 106.31 397.057 106.461 397.443 106.763C397.836 107.066 398.066 107.493 398.134 108.045H396.978C396.94 107.803 396.826 107.614 396.637 107.478C396.456 107.342 396.21 107.273 395.9 107.273C395.598 107.273 395.363 107.338 395.197 107.466C395.031 107.587 394.948 107.746 394.948 107.943C394.948 108.139 395.061 108.294 395.288 108.408C395.522 108.521 395.828 108.623 396.206 108.714C396.584 108.797 396.932 108.895 397.25 109.009C397.575 109.114 397.836 109.273 398.032 109.485C398.229 109.697 398.327 110.007 398.327 110.415C398.335 110.929 398.134 111.356 397.726 111.696C397.325 112.037 396.777 112.207 396.082 112.207Z" fill="#A3A3A3"/>
<path d="M32.506 148.196C31.9692 148.196 31.4703 148.098 31.0091 147.902C30.5554 147.705 30.1623 147.433 29.8296 147.085C29.5045 146.73 29.2664 146.318 29.1152 145.849L30.3967 145.293C30.6008 145.777 30.8957 146.159 31.2812 146.439C31.6668 146.711 32.1015 146.847 32.5854 146.847C32.8576 146.847 33.092 146.805 33.2885 146.722C33.4927 146.631 33.6477 146.51 33.7535 146.359C33.8669 146.208 33.9236 146.027 33.9236 145.815C33.9236 145.565 33.848 145.361 33.6968 145.202C33.5532 145.036 33.3339 144.908 33.039 144.817L31.4173 144.295C30.7596 144.091 30.2644 143.785 29.9317 143.377C29.599 142.968 29.4327 142.488 29.4327 141.936C29.4327 141.452 29.5499 141.025 29.7843 140.655C30.0262 140.284 30.3589 139.997 30.7823 139.793C31.2132 139.581 31.7046 139.475 32.2565 139.475C32.7631 139.475 33.2281 139.566 33.6514 139.748C34.0748 139.921 34.4377 140.167 34.7401 140.485C35.0501 140.795 35.2807 141.161 35.4319 141.585L34.1618 142.152C33.9954 141.728 33.7459 141.403 33.4133 141.177C33.0806 140.942 32.695 140.825 32.2565 140.825C31.9995 140.825 31.7727 140.87 31.5761 140.961C31.3795 141.044 31.2245 141.165 31.1111 141.324C31.0053 141.475 30.9524 141.657 30.9524 141.868C30.9524 142.103 31.028 142.311 31.1792 142.492C31.3304 142.666 31.561 142.802 31.871 142.9L33.4246 143.388C34.0975 143.607 34.6003 143.91 34.9329 144.295C35.2732 144.681 35.4433 145.157 35.4433 145.724C35.4433 146.208 35.3185 146.635 35.069 147.006C34.8195 147.376 34.4755 147.667 34.037 147.879C33.5985 148.091 33.0882 148.196 32.506 148.196ZM39.293 148.128C38.5974 148.128 38.0568 147.939 37.6713 147.561C37.2932 147.176 37.1042 146.635 37.1042 145.94V143.218H36.0382V141.891H36.1516C36.454 141.891 36.6884 141.812 36.8547 141.653C37.0211 141.494 37.1042 141.263 37.1042 140.961V140.485H38.5899V141.891H40.0074V143.218H38.5899V145.86C38.5899 146.064 38.6239 146.238 38.6919 146.382C38.7675 146.526 38.8809 146.635 39.0321 146.711C39.1909 146.786 39.3913 146.824 39.6332 146.824C39.6861 146.824 39.7466 146.82 39.8146 146.813C39.8902 146.805 39.9621 146.798 40.0301 146.79V148.06C39.9243 148.075 39.8033 148.091 39.6672 148.106C39.5311 148.121 39.4064 148.128 39.293 148.128ZM41.6868 150.555C41.5205 150.555 41.3579 150.54 41.1992 150.51C41.0404 150.487 40.8968 150.442 40.7682 150.374V149.138C40.8665 149.16 40.9837 149.183 41.1198 149.206C41.2634 149.228 41.3958 149.24 41.5167 149.24C41.8569 149.24 42.1027 149.16 42.2539 149.002C42.4126 148.85 42.5525 148.646 42.6735 148.389L43.0817 147.437L43.059 148.684L40.3713 141.891H41.9703L43.8529 146.904H43.2859L45.1571 141.891H46.7674L44.0797 148.684C43.9209 149.077 43.7281 149.414 43.5013 149.693C43.2745 149.973 43.0099 150.185 42.7075 150.328C42.4126 150.48 42.0724 150.555 41.6868 150.555ZM47.3564 148.06V139.475H48.8421V148.06H47.3564ZM52.9128 148.196C52.2778 148.196 51.7221 148.053 51.2458 147.765C50.7695 147.478 50.399 147.089 50.1344 146.597C49.8698 146.106 49.7375 145.562 49.7375 144.964C49.7375 144.344 49.8698 143.796 50.1344 143.32C50.4066 142.836 50.7732 142.454 51.2344 142.175C51.7032 141.895 52.2248 141.755 52.7994 141.755C53.2833 141.755 53.7067 141.834 54.0696 141.993C54.44 142.152 54.7538 142.371 55.0109 142.651C55.2679 142.931 55.4645 143.252 55.6006 143.615C55.7367 143.97 55.8047 144.356 55.8047 144.772C55.8047 144.877 55.7971 144.987 55.782 145.1C55.7745 145.214 55.7556 145.312 55.7253 145.395H50.9622V144.261H54.8861L54.183 144.794C54.251 144.446 54.2321 144.136 54.1263 143.864C54.028 143.592 53.8617 143.377 53.6273 143.218C53.4005 143.059 53.1245 142.98 52.7994 142.98C52.4895 142.98 52.2135 143.059 51.9716 143.218C51.7296 143.369 51.5444 143.596 51.4159 143.898C51.2949 144.193 51.2495 144.552 51.2798 144.976C51.2495 145.354 51.2987 145.69 51.4272 145.985C51.5633 146.272 51.7599 146.495 52.0169 146.654C52.2815 146.813 52.584 146.892 52.9242 146.892C53.2644 146.892 53.5517 146.82 53.7861 146.677C54.028 146.533 54.217 146.34 54.3531 146.098L55.5552 146.688C55.4342 146.983 55.2452 147.244 54.9882 147.471C54.7311 147.697 54.4249 147.875 54.0696 148.004C53.7218 148.132 53.3362 148.196 52.9128 148.196ZM59.5733 148.196C58.976 148.196 58.443 148.057 57.9742 147.777C57.5055 147.489 57.135 147.1 56.8628 146.609C56.5907 146.117 56.4546 145.573 56.4546 144.976C56.4546 144.371 56.5907 143.826 56.8628 143.343C57.135 142.859 57.5055 142.473 57.9742 142.186C58.4505 141.899 58.9798 141.755 59.5619 141.755C60.0307 141.755 60.4465 141.849 60.8094 142.038C61.1799 142.22 61.4709 142.477 61.6826 142.81L61.4558 143.116V139.475H62.9414V148.06H61.5352V146.87L61.694 147.164C61.4823 147.497 61.1874 147.754 60.8094 147.936C60.4314 148.109 60.0193 148.196 59.5733 148.196ZM59.732 146.836C60.0723 146.836 60.3709 146.756 60.6279 146.597C60.885 146.439 61.0853 146.219 61.229 145.94C61.3802 145.66 61.4558 145.339 61.4558 144.976C61.4558 144.62 61.3802 144.303 61.229 144.023C61.0853 143.736 60.885 143.513 60.6279 143.354C60.3709 143.195 60.0723 143.116 59.732 143.116C59.3994 143.116 59.1007 143.199 58.8361 143.365C58.5715 143.524 58.3636 143.743 58.2124 144.023C58.0687 144.295 57.9969 144.613 57.9969 144.976C57.9969 145.339 58.0687 145.66 58.2124 145.94C58.3636 146.219 58.5715 146.439 58.8361 146.597C59.1007 146.756 59.3994 146.836 59.732 146.836ZM69.9796 148.196C69.3747 148.196 68.8152 148.087 68.3011 147.868C67.7946 147.648 67.3485 147.342 66.9629 146.949C66.5849 146.556 66.2901 146.095 66.0784 145.565C65.8667 145.036 65.7608 144.458 65.7608 143.83C65.7608 143.203 65.8629 142.624 66.067 142.095C66.2787 141.558 66.5736 141.097 66.9516 140.712C67.3372 140.318 67.787 140.016 68.3011 139.804C68.8152 139.585 69.3747 139.475 69.9796 139.475C70.5844 139.475 71.125 139.577 71.6013 139.782C72.0851 139.986 72.4934 140.258 72.8261 140.598C73.1587 140.931 73.3969 141.297 73.5405 141.698L72.157 142.345C71.9982 141.921 71.7298 141.573 71.3518 141.301C70.9738 141.022 70.5163 140.882 69.9796 140.882C69.4503 140.882 68.9816 141.006 68.5733 141.256C68.1726 141.505 67.8589 141.849 67.632 142.288C67.4128 142.726 67.3032 143.241 67.3032 143.83C67.3032 144.42 67.4128 144.938 67.632 145.384C67.8589 145.822 68.1726 146.166 68.5733 146.416C68.9816 146.665 69.4503 146.79 69.9796 146.79C70.5163 146.79 70.9738 146.654 71.3518 146.382C71.7298 146.102 71.9982 145.751 72.157 145.327L73.5405 145.974C73.3969 146.374 73.1587 146.745 72.8261 147.085C72.4934 147.418 72.0851 147.686 71.6013 147.89C71.125 148.094 70.5844 148.196 69.9796 148.196ZM77.347 148.196C76.7422 148.196 76.1903 148.057 75.6913 147.777C75.1998 147.497 74.8067 147.115 74.5118 146.631C74.2245 146.148 74.0809 145.596 74.0809 144.976C74.0809 144.356 74.2245 143.804 74.5118 143.32C74.8067 142.836 75.1998 142.454 75.6913 142.175C76.1827 141.895 76.7346 141.755 77.347 141.755C77.9518 141.755 78.5 141.895 78.9914 142.175C79.4828 142.454 79.8722 142.836 80.1595 143.32C80.4543 143.796 80.6018 144.348 80.6018 144.976C80.6018 145.596 80.4543 146.148 80.1595 146.631C79.8646 147.115 79.4715 147.497 78.9801 147.777C78.4886 148.057 77.9443 148.196 77.347 148.196ZM77.347 146.836C77.6797 146.836 77.9707 146.756 78.2202 146.597C78.4773 146.439 78.6776 146.219 78.8213 145.94C78.9725 145.652 79.0481 145.331 79.0481 144.976C79.0481 144.613 78.9725 144.295 78.8213 144.023C78.6776 143.743 78.4773 143.524 78.2202 143.365C77.9707 143.199 77.6797 143.116 77.347 143.116C77.0068 143.116 76.7081 143.199 76.4511 143.365C76.194 143.524 75.9899 143.743 75.8387 144.023C75.695 144.295 75.6232 144.613 75.6232 144.976C75.6232 145.331 75.695 145.652 75.8387 145.94C75.9899 146.219 76.194 146.439 76.4511 146.597C76.7081 146.756 77.0068 146.836 77.347 146.836ZM81.5016 148.06V141.891H82.8965V143.32L82.7377 143.082C82.8511 142.636 83.0779 142.303 83.4182 142.084C83.7584 141.865 84.1591 141.755 84.6203 141.755C85.1268 141.755 85.5729 141.887 85.9585 142.152C86.344 142.416 86.5935 142.764 86.7069 143.195L86.2873 143.229C86.4763 142.738 86.7599 142.371 87.1379 142.129C87.5159 141.88 87.9506 141.755 88.4421 141.755C88.8806 141.755 89.2699 141.853 89.6102 142.05C89.9579 142.246 90.2301 142.522 90.4267 142.878C90.6232 143.225 90.7215 143.63 90.7215 144.091V148.06H89.2359V144.443C89.2359 144.17 89.1868 143.936 89.0885 143.74C88.9902 143.543 88.8541 143.392 88.6802 143.286C88.5063 143.172 88.2946 143.116 88.0451 143.116C87.8108 143.116 87.6029 143.172 87.4214 143.286C87.24 143.392 87.1001 143.543 87.0018 143.74C86.9035 143.936 86.8544 144.17 86.8544 144.443V148.06H85.3687V144.443C85.3687 144.17 85.3196 143.936 85.2213 143.74C85.123 143.543 84.9832 143.392 84.8017 143.286C84.6278 143.172 84.4199 143.116 84.178 143.116C83.9436 143.116 83.7357 143.172 83.5542 143.286C83.3728 143.392 83.2329 143.543 83.1346 143.74C83.0363 143.936 82.9872 144.17 82.9872 144.443V148.06H81.5016ZM91.7516 150.328V141.891H93.1465V143.116L93.0104 142.81C93.2221 142.477 93.5094 142.22 93.8723 142.038C94.2352 141.849 94.6548 141.755 95.1311 141.755C95.7133 141.755 96.2387 141.899 96.7075 142.186C97.1762 142.473 97.5467 142.859 97.8188 143.343C98.0986 143.826 98.2384 144.371 98.2384 144.976C98.2384 145.573 98.1024 146.117 97.8302 146.609C97.558 147.1 97.1875 147.489 96.7188 147.777C96.25 148.057 95.717 148.196 95.1198 148.196C94.6737 148.196 94.2617 148.109 93.8836 147.936C93.5132 147.754 93.2183 147.497 92.9991 147.164L93.2372 146.87V150.328H91.7516ZM94.9497 146.836C95.2899 146.836 95.5923 146.756 95.8569 146.597C96.1215 146.439 96.3257 146.219 96.4693 145.94C96.6205 145.66 96.6961 145.339 96.6961 144.976C96.6961 144.613 96.6205 144.295 96.4693 144.023C96.3257 143.743 96.1215 143.524 95.8569 143.365C95.5923 143.199 95.2899 143.116 94.9497 143.116C94.6246 143.116 94.3297 143.195 94.0651 143.354C93.808 143.513 93.6039 143.736 93.4527 144.023C93.309 144.303 93.2372 144.62 93.2372 144.976C93.2372 145.339 93.309 145.66 93.4527 145.94C93.6039 146.219 93.808 146.439 94.0651 146.597C94.3297 146.756 94.6246 146.836 94.9497 146.836ZM102.161 148.196C101.556 148.196 101.004 148.057 100.505 147.777C100.014 147.497 99.6206 147.115 99.3257 146.631C99.0384 146.148 98.8948 145.596 98.8948 144.976C98.8948 144.356 99.0384 143.804 99.3257 143.32C99.6206 142.836 100.014 142.454 100.505 142.175C100.997 141.895 101.548 141.755 102.161 141.755C102.766 141.755 103.314 141.895 103.805 142.175C104.297 142.454 104.686 142.836 104.973 143.32C105.268 143.796 105.416 144.348 105.416 144.976C105.416 145.596 105.268 146.148 104.973 146.631C104.679 147.115 104.285 147.497 103.794 147.777C103.303 148.057 102.758 148.196 102.161 148.196ZM102.161 146.836C102.494 146.836 102.785 146.756 103.034 146.597C103.291 146.439 103.492 146.219 103.635 145.94C103.786 145.652 103.862 145.331 103.862 144.976C103.862 144.613 103.786 144.295 103.635 144.023C103.492 143.743 103.291 143.524 103.034 143.365C102.785 143.199 102.494 143.116 102.161 143.116C101.821 143.116 101.522 143.199 101.265 143.365C101.008 143.524 100.804 143.743 100.653 144.023C100.509 144.295 100.437 144.613 100.437 144.976C100.437 145.331 100.509 145.652 100.653 145.94C100.804 146.219 101.008 146.439 101.265 146.597C101.522 146.756 101.821 146.836 102.161 146.836ZM106.315 148.06V141.891H107.71V143.104L107.597 142.889C107.741 142.519 107.975 142.239 108.3 142.05C108.633 141.853 109.018 141.755 109.457 141.755C109.91 141.755 110.311 141.853 110.659 142.05C111.014 142.246 111.29 142.522 111.487 142.878C111.683 143.225 111.782 143.63 111.782 144.091V148.06H110.296V144.443C110.296 144.17 110.243 143.936 110.137 143.74C110.031 143.543 109.884 143.392 109.695 143.286C109.514 143.172 109.298 143.116 109.049 143.116C108.807 143.116 108.591 143.172 108.402 143.286C108.213 143.392 108.066 143.543 107.96 143.74C107.854 143.936 107.801 144.17 107.801 144.443V148.06H106.315ZM115.737 148.196C115.102 148.196 114.546 148.053 114.07 147.765C113.594 147.478 113.223 147.089 112.959 146.597C112.694 146.106 112.562 145.562 112.562 144.964C112.562 144.344 112.694 143.796 112.959 143.32C113.231 142.836 113.597 142.454 114.059 142.175C114.527 141.895 115.049 141.755 115.624 141.755C116.107 141.755 116.531 141.834 116.894 141.993C117.264 142.152 117.578 142.371 117.835 142.651C118.092 142.931 118.289 143.252 118.425 143.615C118.561 143.97 118.629 144.356 118.629 144.772C118.629 144.877 118.621 144.987 118.606 145.1C118.599 145.214 118.58 145.312 118.549 145.395H113.786V144.261H117.71L117.007 144.794C117.075 144.446 117.056 144.136 116.95 143.864C116.852 143.592 116.686 143.377 116.451 143.218C116.225 143.059 115.949 142.98 115.624 142.98C115.314 142.98 115.038 143.059 114.796 143.218C114.554 143.369 114.369 143.596 114.24 143.898C114.119 144.193 114.074 144.552 114.104 144.976C114.074 145.354 114.123 145.69 114.251 145.985C114.387 146.272 114.584 146.495 114.841 146.654C115.106 146.813 115.408 146.892 115.748 146.892C116.089 146.892 116.376 146.82 116.61 146.677C116.852 146.533 117.041 146.34 117.177 146.098L118.379 146.688C118.258 146.983 118.069 147.244 117.812 147.471C117.555 147.697 117.249 147.875 116.894 148.004C116.546 148.132 116.16 148.196 115.737 148.196ZM119.528 148.06V141.891H120.923V143.104L120.81 142.889C120.953 142.519 121.188 142.239 121.513 142.05C121.846 141.853 122.231 141.755 122.67 141.755C123.123 141.755 123.524 141.853 123.872 142.05C124.227 142.246 124.503 142.522 124.7 142.878C124.896 143.225 124.994 143.63 124.994 144.091V148.06H123.509V144.443C123.509 144.17 123.456 143.936 123.35 143.74C123.244 143.543 123.097 143.392 122.908 143.286C122.726 143.172 122.511 143.116 122.261 143.116C122.019 143.116 121.804 143.172 121.615 143.286C121.426 143.392 121.278 143.543 121.173 143.74C121.067 143.936 121.014 144.17 121.014 144.443V148.06H119.528ZM128.836 148.128C128.141 148.128 127.6 147.939 127.215 147.561C126.837 147.176 126.648 146.635 126.648 145.94V143.218H125.582V141.891H125.695C125.997 141.891 126.232 141.812 126.398 141.653C126.564 141.494 126.648 141.263 126.648 140.961V140.485H128.133V141.891H129.551V143.218H128.133V145.86C128.133 146.064 128.167 146.238 128.235 146.382C128.311 146.526 128.424 146.635 128.576 146.711C128.734 146.786 128.935 146.824 129.177 146.824C129.229 146.824 129.29 146.82 129.358 146.813C129.434 146.805 129.505 146.798 129.573 146.79V148.06C129.468 148.075 129.347 148.091 129.211 148.106C129.074 148.121 128.95 148.128 128.836 148.128ZM132.829 148.196C132.171 148.196 131.597 148.041 131.105 147.731C130.622 147.414 130.289 146.987 130.107 146.45L131.219 145.917C131.378 146.265 131.597 146.537 131.877 146.733C132.164 146.93 132.481 147.028 132.829 147.028C133.101 147.028 133.317 146.968 133.476 146.847C133.634 146.726 133.714 146.567 133.714 146.371C133.714 146.25 133.68 146.151 133.612 146.076C133.551 145.993 133.464 145.924 133.351 145.872C133.245 145.811 133.128 145.762 132.999 145.724L131.99 145.441C131.468 145.289 131.071 145.059 130.799 144.749C130.535 144.439 130.402 144.072 130.402 143.649C130.402 143.271 130.497 142.942 130.686 142.662C130.882 142.375 131.151 142.152 131.491 141.993C131.839 141.834 132.236 141.755 132.682 141.755C133.264 141.755 133.778 141.895 134.224 142.175C134.67 142.454 134.988 142.847 135.177 143.354L134.043 143.887C133.937 143.607 133.759 143.384 133.51 143.218C133.26 143.052 132.98 142.968 132.67 142.968C132.421 142.968 132.224 143.025 132.081 143.138C131.937 143.252 131.865 143.399 131.865 143.581C131.865 143.694 131.896 143.792 131.956 143.876C132.016 143.959 132.1 144.027 132.205 144.08C132.319 144.133 132.447 144.182 132.591 144.227L133.578 144.522C134.084 144.673 134.474 144.9 134.746 145.202C135.026 145.505 135.165 145.875 135.165 146.314C135.165 146.684 135.067 147.013 134.871 147.3C134.674 147.58 134.402 147.799 134.054 147.958C133.706 148.117 133.298 148.196 132.829 148.196Z" fill="#FAFAFA"/>
<g clipPath="url(#clip3_12265_35936)">
<g filter="url(#filter3_i_12265_35936)">
<rect x="152.626" y="140.876" width="192.319" height="5.67033" rx="2.83516" fill="url(#paint3_linear_12265_35936)"/>
<rect x="152.862" y="141.112" width="191.846" height="5.1978" rx="2.5989" stroke="white" stroke-opacity="0.04" strokeWidth="0.472527"/>
</g>
<path d="M153.001 144.001C153.001 142.344 154.344 141.001 156.001 141.001H216.001V147.001H156.001C154.344 147.001 153.001 145.658 153.001 144.001Z" fill="#EAB305"/>
</g>
<path d="M363.578 147.56V140.983L362.296 141.278V140.393L364.054 139.622H364.825V147.56H363.578ZM369.613 147.696C368.895 147.696 368.275 147.526 367.754 147.186C367.24 146.838 366.843 146.358 366.563 145.746C366.291 145.126 366.155 144.408 366.155 143.591C366.155 142.775 366.291 142.06 366.563 141.448C366.843 140.828 367.24 140.348 367.754 140.007C368.275 139.66 368.895 139.486 369.613 139.486C370.332 139.486 370.948 139.66 371.462 140.007C371.976 140.348 372.369 140.828 372.641 141.448C372.921 142.06 373.061 142.775 373.061 143.591C373.061 144.408 372.921 145.126 372.641 145.746C372.369 146.358 371.976 146.838 371.462 147.186C370.948 147.526 370.332 147.696 369.613 147.696ZM369.613 146.619C370.044 146.619 370.426 146.498 370.759 146.256C371.099 146.014 371.364 145.666 371.553 145.213C371.742 144.759 371.836 144.219 371.836 143.591C371.836 142.964 371.742 142.423 371.553 141.969C371.364 141.516 371.099 141.168 370.759 140.926C370.426 140.684 370.044 140.563 369.613 140.563C369.175 140.563 368.789 140.684 368.457 140.926C368.124 141.168 367.863 141.516 367.674 141.969C367.485 142.423 367.391 142.964 367.391 143.591C367.391 144.219 367.485 144.759 367.674 145.213C367.863 145.666 368.124 146.014 368.457 146.256C368.789 146.498 369.175 146.619 369.613 146.619ZM376.941 147.696C376.427 147.696 375.958 147.606 375.535 147.424C375.119 147.235 374.787 146.952 374.537 146.574C374.288 146.196 374.155 145.723 374.14 145.156H375.331C375.346 145.579 375.49 145.939 375.762 146.233C376.042 146.521 376.435 146.664 376.941 146.664C377.425 146.664 377.796 146.532 378.053 146.267C378.31 145.995 378.438 145.659 378.438 145.258C378.438 144.774 378.264 144.415 377.917 144.181C377.576 143.946 377.157 143.829 376.658 143.829H376.068V142.831H376.669C377.115 142.831 377.474 142.725 377.746 142.514C378.026 142.302 378.166 142.003 378.166 141.618C378.166 141.293 378.056 141.028 377.837 140.824C377.625 140.62 377.323 140.518 376.93 140.518C376.522 140.518 376.2 140.639 375.966 140.881C375.732 141.115 375.603 141.41 375.58 141.765H374.39C374.405 141.304 374.518 140.903 374.73 140.563C374.949 140.223 375.248 139.958 375.626 139.769C376.004 139.58 376.438 139.486 376.93 139.486C377.459 139.486 377.901 139.58 378.257 139.769C378.62 139.951 378.892 140.2 379.073 140.518C379.262 140.828 379.357 141.168 379.357 141.538C379.357 141.962 379.24 142.332 379.005 142.65C378.771 142.967 378.457 143.179 378.064 143.285C378.518 143.383 378.892 143.606 379.187 143.954C379.482 144.294 379.629 144.736 379.629 145.281C379.629 145.719 379.527 146.124 379.323 146.494C379.119 146.857 378.816 147.148 378.416 147.368C378.015 147.587 377.523 147.696 376.941 147.696ZM381.067 147.56V141.935H382.133L382.235 142.729C382.416 142.442 382.655 142.215 382.949 142.049C383.252 141.882 383.6 141.799 383.993 141.799C384.885 141.799 385.505 142.151 385.853 142.854C386.057 142.529 386.329 142.272 386.669 142.083C387.017 141.894 387.391 141.799 387.792 141.799C388.495 141.799 389.047 142.011 389.448 142.434C389.848 142.858 390.049 143.489 390.049 144.328V147.56H388.847V144.453C388.847 143.364 388.431 142.82 387.599 142.82C387.176 142.82 386.828 142.979 386.556 143.296C386.291 143.614 386.159 144.067 386.159 144.657V147.56H384.957V144.453C384.957 143.364 384.537 142.82 383.698 142.82C383.282 142.82 382.938 142.979 382.666 143.296C382.401 143.614 382.269 144.067 382.269 144.657V147.56H381.067ZM393.701 147.696C392.99 147.696 392.404 147.523 391.943 147.175C391.482 146.827 391.217 146.366 391.149 145.791H392.362C392.423 146.048 392.567 146.271 392.793 146.46C393.02 146.642 393.319 146.732 393.689 146.732C394.052 146.732 394.317 146.657 394.483 146.506C394.649 146.354 394.733 146.181 394.733 145.984C394.733 145.697 394.615 145.504 394.381 145.406C394.154 145.3 393.837 145.205 393.428 145.122C393.111 145.054 392.793 144.963 392.476 144.85C392.166 144.736 391.905 144.578 391.693 144.374C391.489 144.162 391.387 143.878 391.387 143.523C391.387 143.032 391.576 142.623 391.954 142.298C392.332 141.966 392.861 141.799 393.542 141.799C394.169 141.799 394.676 141.95 395.061 142.253C395.455 142.555 395.685 142.982 395.753 143.534H394.597C394.559 143.292 394.445 143.103 394.256 142.967C394.075 142.831 393.829 142.763 393.519 142.763C393.217 142.763 392.982 142.827 392.816 142.956C392.65 143.077 392.567 143.236 392.567 143.432C392.567 143.629 392.68 143.784 392.907 143.897C393.141 144.011 393.447 144.113 393.825 144.203C394.203 144.287 394.551 144.385 394.869 144.498C395.194 144.604 395.455 144.763 395.651 144.975C395.848 145.186 395.946 145.496 395.946 145.905C395.954 146.419 395.753 146.846 395.345 147.186C394.944 147.526 394.396 147.696 393.701 147.696Z" fill="#A3A3A3"/>
<path d="M75.6122 183.55V175.101H76.8143L81.464 181.361L80.8403 181.486V175.101H82.3826V183.55H81.1692L76.5875 177.245L77.1546 177.12V183.55H75.6122ZM85.5377 183.686C85.1068 183.686 84.7325 183.614 84.415 183.471C84.0974 183.327 83.8517 183.123 83.6778 182.858C83.5039 182.586 83.417 182.272 83.417 181.917C83.417 181.577 83.4926 181.274 83.6438 181.01C83.795 180.738 84.0294 180.511 84.3469 180.329C84.6645 180.148 85.0652 180.019 85.549 179.944L87.5677 179.615V180.749L85.8326 181.044C85.5377 181.097 85.3184 181.191 85.1748 181.327C85.0312 181.463 84.9593 181.641 84.9593 181.86C84.9593 182.072 85.0387 182.242 85.1975 182.371C85.3638 182.492 85.5679 182.552 85.8099 182.552C86.1199 182.552 86.392 182.488 86.6264 182.359C86.8683 182.223 87.0536 182.038 87.1821 181.804C87.3182 181.569 87.3862 181.312 87.3862 181.032V179.445C87.3862 179.18 87.2804 178.961 87.0687 178.787C86.8646 178.606 86.5924 178.515 86.2522 178.515C85.9346 178.515 85.6511 178.602 85.4016 178.776C85.1597 178.942 84.982 179.165 84.8686 179.445L83.6552 178.855C83.7761 178.53 83.9651 178.25 84.2222 178.016C84.4868 177.774 84.7968 177.585 85.1521 177.449C85.5075 177.313 85.893 177.245 86.3089 177.245C86.8154 177.245 87.2615 177.339 87.6471 177.528C88.0326 177.71 88.3313 177.967 88.543 178.299C88.7622 178.624 88.8719 179.006 88.8719 179.445V183.55H87.4656V182.495L87.7832 182.473C87.6244 182.737 87.4354 182.96 87.2161 183.142C86.9969 183.316 86.7474 183.452 86.4676 183.55C86.1879 183.641 85.8779 183.686 85.5377 183.686ZM92.7199 183.618C92.0243 183.618 91.4838 183.429 91.0982 183.051C90.7201 182.665 90.5311 182.125 90.5311 181.429V178.708H89.4651V177.381H89.5785C89.8809 177.381 90.1153 177.301 90.2816 177.143C90.448 176.984 90.5311 176.753 90.5311 176.451V175.974H92.0168V177.381H93.4343V178.708H92.0168V181.35C92.0168 181.554 92.0508 181.728 92.1188 181.872C92.1944 182.015 92.3078 182.125 92.459 182.201C92.6178 182.276 92.8182 182.314 93.0601 182.314C93.113 182.314 93.1735 182.31 93.2416 182.303C93.3172 182.295 93.389 182.287 93.457 182.28V183.55C93.3512 183.565 93.2302 183.58 93.0941 183.595C92.958 183.611 92.8333 183.618 92.7199 183.618ZM94.3652 183.55V177.381H95.8509V183.55H94.3652ZM94.3652 176.689V175.101H95.8509V176.689H94.3652ZM98.8556 183.55L96.4287 177.381H98.0504L99.8082 182.235H99.2072L100.976 177.381H102.598L100.171 183.55H98.8556ZM106.008 183.686C105.372 183.686 104.817 183.542 104.34 183.255C103.864 182.968 103.494 182.579 103.229 182.087C102.964 181.596 102.832 181.051 102.832 180.454C102.832 179.834 102.964 179.286 103.229 178.81C103.501 178.326 103.868 177.944 104.329 177.664C104.798 177.385 105.32 177.245 105.894 177.245C106.378 177.245 106.801 177.324 107.164 177.483C107.535 177.642 107.848 177.861 108.106 178.141C108.363 178.42 108.559 178.742 108.695 179.105C108.831 179.46 108.899 179.845 108.899 180.261C108.899 180.367 108.892 180.477 108.877 180.59C108.869 180.704 108.85 180.802 108.82 180.885H104.057V179.751H107.981L107.278 180.284C107.346 179.936 107.327 179.626 107.221 179.354C107.123 179.082 106.956 178.866 106.722 178.708C106.495 178.549 106.219 178.469 105.894 178.469C105.584 178.469 105.308 178.549 105.066 178.708C104.824 178.859 104.639 179.086 104.511 179.388C104.39 179.683 104.344 180.042 104.374 180.465C104.344 180.843 104.393 181.18 104.522 181.475C104.658 181.762 104.855 181.985 105.112 182.144C105.376 182.303 105.679 182.382 106.019 182.382C106.359 182.382 106.646 182.31 106.881 182.166C107.123 182.023 107.312 181.83 107.448 181.588L108.65 182.178C108.529 182.473 108.34 182.734 108.083 182.96C107.826 183.187 107.52 183.365 107.164 183.493C106.816 183.622 106.431 183.686 106.008 183.686ZM109.923 183.55V175.101H113.484C114.044 175.101 114.52 175.2 114.913 175.396C115.314 175.585 115.62 175.857 115.832 176.213C116.051 176.56 116.161 176.984 116.161 177.483C116.161 177.868 116.055 178.231 115.843 178.571C115.639 178.904 115.31 179.18 114.857 179.399V178.685C115.272 178.844 115.601 179.04 115.843 179.275C116.085 179.509 116.255 179.77 116.354 180.057C116.452 180.344 116.501 180.647 116.501 180.964C116.501 181.773 116.233 182.408 115.696 182.87C115.167 183.323 114.43 183.55 113.484 183.55H109.923ZM111.466 182.189H113.643C114.044 182.189 114.361 182.08 114.596 181.86C114.838 181.633 114.959 181.335 114.959 180.964C114.959 180.594 114.838 180.295 114.596 180.068C114.361 179.842 114.044 179.728 113.643 179.728H111.466V182.189ZM111.466 178.379H113.564C113.881 178.379 114.135 178.288 114.324 178.107C114.513 177.918 114.607 177.676 114.607 177.381C114.607 177.086 114.513 176.851 114.324 176.678C114.135 176.504 113.881 176.417 113.564 176.417H111.466V178.379ZM119.284 183.686C118.853 183.686 118.479 183.614 118.161 183.471C117.844 183.327 117.598 183.123 117.424 182.858C117.25 182.586 117.163 182.272 117.163 181.917C117.163 181.577 117.239 181.274 117.39 181.01C117.541 180.738 117.776 180.511 118.093 180.329C118.411 180.148 118.812 180.019 119.295 179.944L121.314 179.615V180.749L119.579 181.044C119.284 181.097 119.065 181.191 118.921 181.327C118.778 181.463 118.706 181.641 118.706 181.86C118.706 182.072 118.785 182.242 118.944 182.371C119.11 182.492 119.314 182.552 119.556 182.552C119.866 182.552 120.138 182.488 120.373 182.359C120.615 182.223 120.8 182.038 120.929 181.804C121.065 181.569 121.133 181.312 121.133 181.032V179.445C121.133 179.18 121.027 178.961 120.815 178.787C120.611 178.606 120.339 178.515 119.999 178.515C119.681 178.515 119.398 178.602 119.148 178.776C118.906 178.942 118.728 179.165 118.615 179.445L117.402 178.855C117.523 178.53 117.712 178.25 117.969 178.016C118.233 177.774 118.543 177.585 118.899 177.449C119.254 177.313 119.639 177.245 120.055 177.245C120.562 177.245 121.008 177.339 121.393 177.528C121.779 177.71 122.078 177.967 122.289 178.299C122.509 178.624 122.618 179.006 122.618 179.445V183.55H121.212V182.495L121.53 182.473C121.371 182.737 121.182 182.96 120.963 183.142C120.743 183.316 120.494 183.452 120.214 183.55C119.934 183.641 119.624 183.686 119.284 183.686ZM126.112 183.686C125.454 183.686 124.88 183.531 124.388 183.221C123.904 182.904 123.572 182.476 123.39 181.94L124.502 181.407C124.66 181.754 124.88 182.027 125.159 182.223C125.447 182.42 125.764 182.518 126.112 182.518C126.384 182.518 126.6 182.458 126.759 182.337C126.917 182.216 126.997 182.057 126.997 181.86C126.997 181.739 126.963 181.641 126.895 181.565C126.834 181.482 126.747 181.414 126.634 181.361C126.528 181.301 126.411 181.252 126.282 181.214L125.273 180.93C124.751 180.779 124.354 180.549 124.082 180.239C123.818 179.929 123.685 179.562 123.685 179.139C123.685 178.761 123.78 178.432 123.969 178.152C124.165 177.865 124.434 177.642 124.774 177.483C125.122 177.324 125.519 177.245 125.965 177.245C126.547 177.245 127.061 177.385 127.507 177.664C127.953 177.944 128.271 178.337 128.46 178.844L127.326 179.377C127.22 179.097 127.042 178.874 126.793 178.708C126.543 178.541 126.263 178.458 125.953 178.458C125.704 178.458 125.507 178.515 125.364 178.628C125.22 178.742 125.148 178.889 125.148 179.07C125.148 179.184 125.178 179.282 125.239 179.365C125.299 179.449 125.383 179.517 125.488 179.569C125.602 179.622 125.73 179.672 125.874 179.717L126.861 180.012C127.367 180.163 127.756 180.39 128.029 180.692C128.308 180.995 128.448 181.365 128.448 181.804C128.448 182.174 128.35 182.503 128.153 182.79C127.957 183.07 127.685 183.289 127.337 183.448C126.989 183.607 126.581 183.686 126.112 183.686ZM132.289 183.686C131.654 183.686 131.098 183.542 130.622 183.255C130.146 182.968 129.775 182.579 129.511 182.087C129.246 181.596 129.114 181.051 129.114 180.454C129.114 179.834 129.246 179.286 129.511 178.81C129.783 178.326 130.149 177.944 130.611 177.664C131.079 177.385 131.601 177.245 132.176 177.245C132.659 177.245 133.083 177.324 133.446 177.483C133.816 177.642 134.13 177.861 134.387 178.141C134.644 178.42 134.841 178.742 134.977 179.105C135.113 179.46 135.181 179.845 135.181 180.261C135.181 180.367 135.173 180.477 135.158 180.59C135.151 180.704 135.132 180.802 135.102 180.885H130.338V179.751H134.262L133.559 180.284C133.627 179.936 133.608 179.626 133.502 179.354C133.404 179.082 133.238 178.866 133.003 178.708C132.777 178.549 132.501 178.469 132.176 178.469C131.866 178.469 131.59 178.549 131.348 178.708C131.106 178.859 130.921 179.086 130.792 179.388C130.671 179.683 130.626 180.042 130.656 180.465C130.626 180.843 130.675 181.18 130.803 181.475C130.939 181.762 131.136 181.985 131.393 182.144C131.658 182.303 131.96 182.382 132.3 182.382C132.641 182.382 132.928 182.31 133.162 182.166C133.404 182.023 133.593 181.83 133.729 181.588L134.931 182.178C134.81 182.473 134.621 182.734 134.364 182.96C134.107 183.187 133.801 183.365 133.446 183.493C133.098 183.622 132.712 183.686 132.289 183.686Z" fill="#FAFAFA"/>
<g clipPath="url(#clip4_12265_35936)">
<g filter="url(#filter4_i_12265_35936)">
<rect x="152.626" y="176.365" width="190.319" height="5.67033" rx="2.83516" fill="url(#paint4_linear_12265_35936)"/>
<rect x="152.862" y="176.602" width="189.846" height="5.1978" rx="2.5989" stroke="white" stroke-opacity="0.04" strokeWidth="0.472527"/>
</g>
<path d="M153.001 179.35C153.001 177.693 154.344 176.35 156.001 176.35H343.001V182.35H156.001C154.344 182.35 153.001 181.007 153.001 179.35Z" fill="#0991B1"/>
</g>
<path d="M363.368 183.186C362.786 183.186 362.295 183.077 361.894 182.857C361.493 182.638 361.168 182.347 360.919 181.984C360.677 181.621 360.503 181.213 360.397 180.759C360.291 180.306 360.238 179.841 360.238 179.364C360.238 178.487 360.359 177.72 360.601 177.062C360.851 176.404 361.206 175.894 361.667 175.531C362.128 175.161 362.688 174.975 363.345 174.975C363.867 174.975 364.313 175.078 364.684 175.282C365.054 175.486 365.341 175.758 365.546 176.098C365.757 176.438 365.886 176.809 365.931 177.21H364.808C364.74 176.816 364.578 176.514 364.321 176.302C364.064 176.091 363.735 175.985 363.334 175.985C362.782 175.985 362.325 176.246 361.962 176.767C361.607 177.281 361.418 178.075 361.395 179.149C361.576 178.816 361.856 178.533 362.234 178.298C362.62 178.064 363.062 177.947 363.561 177.947C364.007 177.947 364.423 178.053 364.808 178.264C365.202 178.476 365.519 178.775 365.761 179.16C366.011 179.538 366.135 179.988 366.135 180.51C366.135 180.971 366.022 181.406 365.795 181.814C365.568 182.222 365.247 182.555 364.831 182.812C364.423 183.061 363.935 183.186 363.368 183.186ZM363.3 182.143C363.618 182.143 363.901 182.075 364.151 181.939C364.4 181.803 364.597 181.617 364.74 181.383C364.884 181.141 364.956 180.869 364.956 180.566C364.956 180.083 364.797 179.697 364.48 179.41C364.17 179.122 363.773 178.979 363.289 178.979C362.971 178.979 362.684 179.051 362.427 179.194C362.177 179.338 361.981 179.531 361.837 179.773C361.694 180.007 361.622 180.268 361.622 180.555C361.622 180.865 361.694 181.141 361.837 181.383C361.988 181.617 362.189 181.803 362.438 181.939C362.695 182.075 362.983 182.143 363.3 182.143ZM370.534 183.186C369.951 183.186 369.46 183.077 369.059 182.857C368.659 182.638 368.334 182.347 368.084 181.984C367.842 181.621 367.668 181.213 367.562 180.759C367.457 180.306 367.404 179.841 367.404 179.364C367.404 178.487 367.525 177.72 367.766 177.062C368.016 176.404 368.371 175.894 368.833 175.531C369.294 175.161 369.853 174.975 370.511 174.975C371.033 174.975 371.479 175.078 371.849 175.282C372.22 175.486 372.507 175.758 372.711 176.098C372.923 176.438 373.051 176.809 373.097 177.21H371.974C371.906 176.816 371.743 176.514 371.486 176.302C371.229 176.091 370.9 175.985 370.5 175.985C369.948 175.985 369.49 176.246 369.127 176.767C368.772 177.281 368.583 178.075 368.56 179.149C368.742 178.816 369.022 178.533 369.4 178.298C369.785 178.064 370.227 177.947 370.726 177.947C371.172 177.947 371.588 178.053 371.974 178.264C372.367 178.476 372.685 178.775 372.926 179.16C373.176 179.538 373.301 179.988 373.301 180.51C373.301 180.971 373.187 181.406 372.961 181.814C372.734 182.222 372.412 182.555 371.997 182.812C371.588 183.061 371.101 183.186 370.534 183.186ZM370.466 182.143C370.783 182.143 371.067 182.075 371.316 181.939C371.566 181.803 371.762 181.617 371.906 181.383C372.049 181.141 372.121 180.869 372.121 180.566C372.121 180.083 371.963 179.697 371.645 179.41C371.335 179.122 370.938 178.979 370.454 178.979C370.137 178.979 369.849 179.051 369.592 179.194C369.343 179.338 369.146 179.531 369.003 179.773C368.859 180.007 368.787 180.268 368.787 180.555C368.787 180.865 368.859 181.141 369.003 181.383C369.154 181.617 369.354 181.803 369.604 181.939C369.861 182.075 370.148 182.143 370.466 182.143ZM377.699 183.186C377.117 183.186 376.625 183.077 376.225 182.857C375.824 182.638 375.499 182.347 375.249 181.984C375.008 181.621 374.834 181.213 374.728 180.759C374.622 180.306 374.569 179.841 374.569 179.364C374.569 178.487 374.69 177.72 374.932 177.062C375.181 176.404 375.537 175.894 375.998 175.531C376.459 175.161 377.019 174.975 377.676 174.975C378.198 174.975 378.644 175.078 379.015 175.282C379.385 175.486 379.672 175.758 379.876 176.098C380.088 176.438 380.217 176.809 380.262 177.21H379.139C379.071 176.816 378.909 176.514 378.652 176.302C378.395 176.091 378.066 175.985 377.665 175.985C377.113 175.985 376.656 176.246 376.293 176.767C375.937 177.281 375.748 178.075 375.726 179.149C375.907 178.816 376.187 178.533 376.565 178.298C376.951 178.064 377.393 177.947 377.892 177.947C378.338 177.947 378.754 178.053 379.139 178.264C379.532 178.476 379.85 178.775 380.092 179.16C380.341 179.538 380.466 179.988 380.466 180.51C380.466 180.971 380.353 181.406 380.126 181.814C379.899 182.222 379.578 182.555 379.162 182.812C378.754 183.061 378.266 183.186 377.699 183.186ZM377.631 182.143C377.949 182.143 378.232 182.075 378.482 181.939C378.731 181.803 378.928 181.617 379.071 181.383C379.215 181.141 379.287 180.869 379.287 180.566C379.287 180.083 379.128 179.697 378.81 179.41C378.5 179.122 378.104 178.979 377.62 178.979C377.302 178.979 377.015 179.051 376.758 179.194C376.508 179.338 376.312 179.531 376.168 179.773C376.024 180.007 375.953 180.268 375.953 180.555C375.953 180.865 376.024 181.141 376.168 181.383C376.319 181.617 376.52 181.803 376.769 181.939C377.026 182.075 377.313 182.143 377.631 182.143ZM384.762 183.05V177.425H385.828L385.93 178.219C386.111 177.932 386.35 177.705 386.644 177.538C386.947 177.372 387.295 177.289 387.688 177.289C388.58 177.289 389.2 177.641 389.548 178.344C389.752 178.019 390.024 177.762 390.364 177.573C390.712 177.383 391.086 177.289 391.487 177.289C392.19 177.289 392.742 177.501 393.143 177.924C393.543 178.347 393.744 178.979 393.744 179.818V183.05H392.542V179.943C392.542 178.854 392.126 178.31 391.294 178.31C390.871 178.31 390.523 178.468 390.251 178.786C389.986 179.103 389.854 179.557 389.854 180.147V183.05H388.652V179.943C388.652 178.854 388.232 178.31 387.393 178.31C386.977 178.31 386.633 178.468 386.361 178.786C386.096 179.103 385.964 179.557 385.964 180.147V183.05H384.762ZM397.396 183.186C396.685 183.186 396.099 183.012 395.638 182.664C395.177 182.317 394.912 181.855 394.844 181.281H396.057C396.118 181.538 396.261 181.761 396.488 181.95C396.715 182.131 397.014 182.222 397.384 182.222C397.747 182.222 398.012 182.147 398.178 181.995C398.344 181.844 398.428 181.67 398.428 181.474C398.428 181.186 398.31 180.994 398.076 180.895C397.849 180.789 397.532 180.695 397.123 180.612C396.806 180.544 396.488 180.453 396.171 180.34C395.861 180.226 395.6 180.067 395.388 179.863C395.184 179.652 395.082 179.368 395.082 179.013C395.082 178.521 395.271 178.113 395.649 177.788C396.027 177.455 396.556 177.289 397.237 177.289C397.864 177.289 398.371 177.44 398.756 177.743C399.15 178.045 399.38 178.472 399.448 179.024H398.291C398.254 178.782 398.14 178.593 397.951 178.457C397.77 178.321 397.524 178.253 397.214 178.253C396.912 178.253 396.677 178.317 396.511 178.446C396.345 178.567 396.261 178.725 396.261 178.922C396.261 179.119 396.375 179.274 396.602 179.387C396.836 179.5 397.142 179.602 397.52 179.693C397.898 179.776 398.246 179.875 398.564 179.988C398.889 180.094 399.15 180.253 399.346 180.464C399.543 180.676 399.641 180.986 399.641 181.394C399.649 181.908 399.448 182.336 399.04 182.676C398.639 183.016 398.091 183.186 397.396 183.186Z" fill="#A3A3A3"/>
<rect width="172" height="41" transform="matrix(0 -1 -1 0 349 188)" fill="url(#paint5_linear_12265_35936)"/>
<defs>
<filter id="filter0_i_12265_35936" x="152.626" y="-274.535" width="329.82" height="816.528" filterUnits="userSpaceOnUse" color-interpolation-filters="sRGB">
<feFlood flood-opacity="0" result="BackgroundImageFix"/>
<feBlend mode="normal" in="SourceGraphic" in2="BackgroundImageFix" result="shape"/>
<feColorMatrix in="SourceAlpha" type="matrix" values="0 0 0 0 0 0 0 0 0 0 0 0 0 0 0 0 0 0 127 0" result="hardAlpha"/>
<feOffset dy="0.472527"/>
<feComposite in2="hardAlpha" operator="arithmetic" k2="-1" k3="1"/>
<feColorMatrix type="matrix" values="0 0 0 0 1 0 0 0 0 1 0 0 0 0 1 0 0 0 0.08 0"/>
<feBlend mode="normal" in2="shape" result="effect1_innerShadow_12265_35936"/>
</filter>
<filter id="filter1_i_12265_35936" x="152.626" y="-239.092" width="329.82" height="816.528" filterUnits="userSpaceOnUse" color-interpolation-filters="sRGB">
<feFlood flood-opacity="0" result="BackgroundImageFix"/>
<feBlend mode="normal" in="SourceGraphic" in2="BackgroundImageFix" result="shape"/>
<feColorMatrix in="SourceAlpha" type="matrix" values="0 0 0 0 0 0 0 0 0 0 0 0 0 0 0 0 0 0 127 0" result="hardAlpha"/>
<feOffset dy="0.472527"/>
<feComposite in2="hardAlpha" operator="arithmetic" k2="-1" k3="1"/>
<feColorMatrix type="matrix" values="0 0 0 0 1 0 0 0 0 1 0 0 0 0 1 0 0 0 0.08 0"/>
<feBlend mode="normal" in2="shape" result="effect1_innerShadow_12265_35936"/>
</filter>
<filter id="filter2_i_12265_35936" x="152.626" y="-203.665" width="329.82" height="816.528" filterUnits="userSpaceOnUse" color-interpolation-filters="sRGB">
<feFlood flood-opacity="0" result="BackgroundImageFix"/>
<feBlend mode="normal" in="SourceGraphic" in2="BackgroundImageFix" result="shape"/>
<feColorMatrix in="SourceAlpha" type="matrix" values="0 0 0 0 0 0 0 0 0 0 0 0 0 0 0 0 0 0 127 0" result="hardAlpha"/>
<feOffset dy="0.472527"/>
<feComposite in2="hardAlpha" operator="arithmetic" k2="-1" k3="1"/>
<feColorMatrix type="matrix" values="0 0 0 0 1 0 0 0 0 1 0 0 0 0 1 0 0 0 0.08 0"/>
<feBlend mode="normal" in2="shape" result="effect1_innerShadow_12265_35936"/>
</filter>
<filter id="filter3_i_12265_35936" x="152.626" y="140.876" width="192.319" height="5.67041" filterUnits="userSpaceOnUse" color-interpolation-filters="sRGB">
<feFlood flood-opacity="0" result="BackgroundImageFix"/>
<feBlend mode="normal" in="SourceGraphic" in2="BackgroundImageFix" result="shape"/>
<feColorMatrix in="SourceAlpha" type="matrix" values="0 0 0 0 0 0 0 0 0 0 0 0 0 0 0 0 0 0 127 0" result="hardAlpha"/>
<feOffset dy="0.472527"/>
<feComposite in2="hardAlpha" operator="arithmetic" k2="-1" k3="1"/>
<feColorMatrix type="matrix" values="0 0 0 0 1 0 0 0 0 1 0 0 0 0 1 0 0 0 0.08 0"/>
<feBlend mode="normal" in2="shape" result="effect1_innerShadow_12265_35936"/>
</filter>
<filter id="filter4_i_12265_35936" x="152.626" y="176.365" width="190.319" height="5.67041" filterUnits="userSpaceOnUse" color-interpolation-filters="sRGB">
<feFlood flood-opacity="0" result="BackgroundImageFix"/>
<feBlend mode="normal" in="SourceGraphic" in2="BackgroundImageFix" result="shape"/>
<feColorMatrix in="SourceAlpha" type="matrix" values="0 0 0 0 0 0 0 0 0 0 0 0 0 0 0 0 0 0 127 0" result="hardAlpha"/>
<feOffset dy="0.472527"/>
<feComposite in2="hardAlpha" operator="arithmetic" k2="-1" k3="1"/>
<feColorMatrix type="matrix" values="0 0 0 0 1 0 0 0 0 1 0 0 0 0 1 0 0 0 0.08 0"/>
<feBlend mode="normal" in2="shape" result="effect1_innerShadow_12265_35936"/>
</filter>
<linearGradient id="paint0_linear_12265_35936" x1="248.786" y1="34.5627" x2="248.786" y2="40.2331" gradientUnits="userSpaceOnUse">
<stop stop-color="white" stop-opacity="0.12"/>
<stop offset="1" stop-color="white" stop-opacity="0.02"/>
</linearGradient>
<linearGradient id="paint1_linear_12265_35936" x1="248.786" y1="69.9978" x2="248.786" y2="75.6681" gradientUnits="userSpaceOnUse">
<stop stop-color="white" stop-opacity="0.12"/>
<stop offset="1" stop-color="white" stop-opacity="0.02"/>
</linearGradient>
<linearGradient id="paint2_linear_12265_35936" x1="248.786" y1="105.433" x2="248.786" y2="111.103" gradientUnits="userSpaceOnUse">
<stop stop-color="white" stop-opacity="0.12"/>
<stop offset="1" stop-color="white" stop-opacity="0.02"/>
</linearGradient>
<linearGradient id="paint3_linear_12265_35936" x1="248.786" y1="140.876" x2="248.786" y2="146.546" gradientUnits="userSpaceOnUse">
<stop stop-color="white" stop-opacity="0.12"/>
<stop offset="1" stop-color="white" stop-opacity="0.02"/>
</linearGradient>
<linearGradient id="paint4_linear_12265_35936" x1="247.786" y1="176.365" x2="247.786" y2="182.036" gradientUnits="userSpaceOnUse">
<stop stop-color="white" stop-opacity="0.12"/>
<stop offset="1" stop-color="white" stop-opacity="0.02"/>
</linearGradient>
<linearGradient id="paint5_linear_12265_35936" x1="86" y1="3.31459" x2="86" y2="21.6169" gradientUnits="userSpaceOnUse">
<stop/>
<stop offset="1" stop-opacity="0"/>
</linearGradient>
<clipPath id="clip0_12265_35936">
<rect width="192.319" height="29.9944" fill="white" transform="translate(152.626 22.594)"/>
</clipPath>
<clipPath id="clip1_12265_35936">
<rect width="192.319" height="29.9944" fill="white" transform="translate(152.626 58.0837)"/>
</clipPath>
<clipPath id="clip2_12265_35936">
<rect width="192.319" height="29.9944" fill="white" transform="translate(152.626 93.5735)"/>
</clipPath>
<clipPath id="clip3_12265_35936">
<rect width="192.319" height="29.9944" fill="white" transform="translate(152.626 129.063)"/>
</clipPath>
<clipPath id="clip4_12265_35936">
<rect width="190.011" height="29.9944" fill="white" transform="translate(152.626 164.553)"/>
</clipPath>
</defs>
</svg>
