<svg width="430" height="218" viewBox="0 0 430 218" fill="none" xmlns="http://www.w3.org/2000/svg">
<rect width="430" height="217.14" rx="3.78022" fill="black"/>
<path d="M70.9833 61.8302C70.5221 61.8302 70.0949 61.7545 69.7018 61.6033C69.3087 61.4521 68.9684 61.2404 68.6811 60.9683C68.4014 60.7036 68.1973 60.3899 68.0687 60.027L69.4523 59.5053C69.543 59.7926 69.7207 60.0232 69.9853 60.1971C70.2575 60.3785 70.5901 60.4693 70.9833 60.4693C71.2857 60.4693 71.5503 60.4126 71.7771 60.2992C72.0115 60.1858 72.193 60.0194 72.3215 59.8002C72.45 59.5885 72.5143 59.3314 72.5143 59.029V57.6228L72.7978 57.963C72.5861 58.3334 72.3026 58.6132 71.9472 58.8022C71.5919 58.9912 71.1874 59.0857 70.7338 59.0857C70.1592 59.0857 69.6451 58.9534 69.1915 58.6888C68.7378 58.4242 68.3825 58.0613 68.1254 57.6001C67.8684 57.1389 67.7399 56.621 67.7399 56.0464C67.7399 55.4643 67.8684 54.9464 68.1254 54.4927C68.3825 54.0391 68.7341 53.6838 69.1801 53.4267C69.6262 53.1621 70.1327 53.0298 70.6998 53.0298C71.161 53.0298 71.5654 53.1281 71.9132 53.3247C72.2686 53.5137 72.5634 53.7896 72.7978 54.1525L72.5937 54.5268V53.1659H73.9999V59.029C73.9999 59.5658 73.8676 60.0459 73.603 60.4693C73.3459 60.8927 72.9906 61.2253 72.537 61.4672C72.0909 61.7092 71.573 61.8302 70.9833 61.8302ZM70.9152 57.7135C71.2328 57.7135 71.5087 57.6454 71.7431 57.5094C71.985 57.3657 72.1741 57.1691 72.3101 56.9196C72.4462 56.6702 72.5143 56.3829 72.5143 56.0578C72.5143 55.7402 72.4425 55.4567 72.2988 55.2072C72.1627 54.9501 71.9737 54.7498 71.7318 54.6061C71.4974 54.4625 71.2252 54.3907 70.9152 54.3907C70.6053 54.3907 70.3255 54.4625 70.076 54.6061C69.8265 54.7498 69.63 54.9501 69.4863 55.2072C69.3502 55.4567 69.2822 55.7402 69.2822 56.0578C69.2822 56.3753 69.3502 56.6588 69.4863 56.9083C69.63 57.1578 69.8228 57.3544 70.0647 57.498C70.3142 57.6417 70.5977 57.7135 70.9152 57.7135ZM75.1606 59.3352V50.7503H76.6462V59.3352H75.1606ZM79.9911 59.4713C79.5148 59.4713 79.099 59.3654 78.7437 59.1538C78.3959 58.9421 78.1275 58.6472 77.9385 58.2692C77.757 57.8912 77.6663 57.4489 77.6663 56.9423V53.1659H79.1519V56.8176C79.1519 57.0746 79.2011 57.3014 79.2994 57.498C79.4052 57.687 79.5526 57.8382 79.7416 57.9516C79.9382 58.0575 80.1575 58.1104 80.3994 58.1104C80.6413 58.1104 80.8568 58.0575 81.0458 57.9516C81.2348 57.8382 81.3823 57.6832 81.4881 57.4867C81.594 57.2901 81.6469 57.0557 81.6469 56.7836V53.1659H83.1325V59.3352H81.7263V58.1218L81.851 58.3372C81.7074 58.7152 81.4692 58.9988 81.1365 59.1878C80.8114 59.3768 80.4296 59.4713 79.9911 59.4713ZM87.2126 59.4713C86.5775 59.4713 86.0218 59.3276 85.5455 59.0403C85.0692 58.7531 84.6987 58.3637 84.4341 57.8723C84.1695 57.3808 84.0372 56.8365 84.0372 56.2392C84.0372 55.6192 84.1695 55.0711 84.4341 54.5948C84.7063 54.1109 85.073 53.7291 85.5342 53.4494C86.0029 53.1697 86.5246 53.0298 87.0992 53.0298C87.583 53.0298 88.0064 53.1092 88.3693 53.268C88.7398 53.4267 89.0535 53.646 89.3106 53.9257C89.5676 54.2054 89.7642 54.5268 89.9003 54.8897C90.0364 55.245 90.1044 55.6306 90.1044 56.0464C90.1044 56.1523 90.0969 56.2619 90.0818 56.3753C90.0742 56.4887 90.0553 56.587 90.0251 56.6702H85.262V55.5361H89.1858L88.4827 56.0691C88.5508 55.7213 88.5319 55.4113 88.426 55.1392C88.3277 54.867 88.1614 54.6515 87.927 54.4927C87.7002 54.334 87.4243 54.2546 87.0992 54.2546C86.7892 54.2546 86.5132 54.334 86.2713 54.4927C86.0294 54.644 85.8441 54.8708 85.7156 55.1732C85.5946 55.468 85.5493 55.8272 85.5795 56.2505C85.5493 56.6286 85.5984 56.965 85.7269 57.2599C85.863 57.5472 86.0596 57.7702 86.3167 57.929C86.5813 58.0877 86.8837 58.1671 87.2239 58.1671C87.5641 58.1671 87.8514 58.0953 88.0858 57.9516C88.3277 57.808 88.5167 57.6152 88.6528 57.3733L89.8549 57.963C89.734 58.2578 89.545 58.5187 89.2879 58.7455C89.0309 58.9723 88.7247 59.15 88.3693 59.2785C88.0215 59.407 87.636 59.4713 87.2126 59.4713ZM93.3513 59.4713C92.6936 59.4713 92.119 59.3163 91.6275 59.0063C91.1437 58.6888 90.811 58.2616 90.6296 57.7248L91.741 57.1918C91.8997 57.5396 92.119 57.8118 92.3987 58.0083C92.686 58.2049 93.0035 58.3032 93.3513 58.3032C93.6235 58.3032 93.839 58.2427 93.9977 58.1218C94.1565 58.0008 94.2359 57.842 94.2359 57.6454C94.2359 57.5245 94.2019 57.4262 94.1338 57.3506C94.0733 57.2674 93.9864 57.1994 93.873 57.1465C93.7671 57.086 93.65 57.0368 93.5214 56.999L92.5121 56.7155C91.9904 56.5643 91.5935 56.3337 91.3213 56.0237C91.0567 55.7138 90.9244 55.3471 90.9244 54.9237C90.9244 54.5457 91.0189 54.2168 91.2079 53.9371C91.4045 53.6498 91.6729 53.4267 92.0131 53.268C92.3609 53.1092 92.7578 53.0298 93.2039 53.0298C93.786 53.0298 94.3002 53.1697 94.7462 53.4494C95.1923 53.7291 95.5098 54.1223 95.6988 54.6288L94.5648 55.1618C94.4589 54.8821 94.2813 54.6591 94.0318 54.4927C93.7823 54.3264 93.5025 54.2432 93.1926 54.2432C92.9431 54.2432 92.7465 54.3 92.6028 54.4134C92.4592 54.5268 92.3874 54.6742 92.3874 54.8556C92.3874 54.9691 92.4176 55.0673 92.4781 55.1505C92.5386 55.2337 92.6217 55.3017 92.7276 55.3546C92.841 55.4076 92.9695 55.4567 93.1132 55.5021L94.0998 55.7969C94.6064 55.9481 94.9957 56.1749 95.2679 56.4774C95.5476 56.7798 95.6875 57.1502 95.6875 57.5887C95.6875 57.9592 95.5892 58.2881 95.3926 58.5754C95.1961 58.8551 94.9239 59.0744 94.5761 59.2331C94.2283 59.3919 93.8201 59.4713 93.3513 59.4713ZM99.4149 59.4032C98.7193 59.4032 98.1787 59.2142 97.7931 58.8362C97.4151 58.4506 97.2261 57.9101 97.2261 57.2145V54.4927H96.1601V53.1659H96.2735C96.5759 53.1659 96.8103 53.0865 96.9766 52.9277C97.1429 52.769 97.2261 52.5384 97.2261 52.236V51.7596H98.7117V53.1659H100.129V54.4927H98.7117V57.1351C98.7117 57.3392 98.7458 57.5131 98.8138 57.6568C98.8894 57.8004 99.0028 57.9101 99.154 57.9857C99.3128 58.0613 99.5131 58.0991 99.7551 58.0991C99.808 58.0991 99.8685 58.0953 99.9365 58.0877C100.012 58.0802 100.084 58.0726 100.152 58.0651V59.3352C100.046 59.3503 99.9252 59.3654 99.7891 59.3806C99.653 59.3957 99.5283 59.4032 99.4149 59.4032ZM102.909 59.4713C102.478 59.4713 102.104 59.3995 101.787 59.2558C101.469 59.1122 101.223 58.908 101.049 58.6434C100.876 58.3712 100.789 58.0575 100.789 57.7022C100.789 57.3619 100.864 57.0595 101.015 56.7949C101.167 56.5227 101.401 56.2959 101.719 56.1145C102.036 55.933 102.437 55.8045 102.921 55.7289L104.939 55.4V56.5341L103.204 56.8289C102.909 56.8818 102.69 56.9763 102.546 57.1124C102.403 57.2485 102.331 57.4262 102.331 57.6454C102.331 57.8571 102.41 58.0272 102.569 58.1558C102.735 58.2767 102.94 58.3372 103.181 58.3372C103.491 58.3372 103.764 58.273 103.998 58.1444C104.24 58.0083 104.425 57.8231 104.554 57.5887C104.69 57.3544 104.758 57.0973 104.758 56.8176V55.2299C104.758 54.9653 104.652 54.746 104.44 54.5721C104.236 54.3907 103.964 54.3 103.624 54.3C103.306 54.3 103.023 54.3869 102.773 54.5608C102.531 54.7271 102.354 54.9501 102.24 55.2299L101.027 54.6402C101.148 54.3151 101.337 54.0353 101.594 53.801C101.858 53.559 102.168 53.37 102.524 53.2339C102.879 53.0978 103.265 53.0298 103.68 53.0298C104.187 53.0298 104.633 53.1243 105.019 53.3133C105.404 53.4948 105.703 53.7518 105.915 54.0845C106.134 54.4096 106.243 54.7914 106.243 55.2299V59.3352H104.837V58.2805L105.155 58.2578C104.996 58.5225 104.807 58.7455 104.588 58.9269C104.368 59.1008 104.119 59.2369 103.839 59.3352C103.559 59.4259 103.25 59.4713 102.909 59.4713ZM110.361 59.4713C109.749 59.4713 109.197 59.3314 108.705 59.0517C108.221 58.7644 107.84 58.3788 107.56 57.8949C107.28 57.4035 107.14 56.8516 107.14 56.2392C107.14 55.6268 107.28 55.0787 107.56 54.5948C107.84 54.1109 108.221 53.7291 108.705 53.4494C109.197 53.1697 109.749 53.0298 110.361 53.0298C110.799 53.0298 111.208 53.1092 111.586 53.268C111.964 53.4192 112.289 53.6309 112.561 53.903C112.841 54.1676 113.041 54.4852 113.162 54.8556L111.858 55.4227C111.745 55.1127 111.552 54.8632 111.28 54.6742C111.015 54.4852 110.709 54.3907 110.361 54.3907C110.036 54.3907 109.745 54.4701 109.488 54.6288C109.238 54.7876 109.042 55.0069 108.898 55.2866C108.754 55.5663 108.683 55.8876 108.683 56.2505C108.683 56.6134 108.754 56.9348 108.898 57.2145C109.042 57.4942 109.238 57.7135 109.488 57.8723C109.745 58.031 110.036 58.1104 110.361 58.1104C110.716 58.1104 111.026 58.0159 111.291 57.8269C111.556 57.6379 111.745 57.3846 111.858 57.0671L113.162 57.6568C113.041 58.0046 112.845 58.3183 112.572 58.5981C112.3 58.8702 111.975 59.0857 111.597 59.2445C111.219 59.3957 110.807 59.4713 110.361 59.4713ZM114.063 59.3352V50.7503H115.548V56.3753L114.981 56.2052L117.884 53.1659H119.733L117.453 55.6495L119.778 59.3352H118.077L116.059 56.1371L116.943 55.9557L115.083 57.9516L115.548 57.0444V59.3352H114.063ZM120.687 56.9083V55.6041H125.507V56.9083H120.687ZM129.154 59.4713C128.678 59.4713 128.262 59.3654 127.907 59.1538C127.559 58.9421 127.291 58.6472 127.102 58.2692C126.92 57.8912 126.829 57.4489 126.829 56.9423V53.1659H128.315V56.8176C128.315 57.0746 128.364 57.3014 128.462 57.498C128.568 57.687 128.716 57.8382 128.905 57.9516C129.101 58.0575 129.321 58.1104 129.562 58.1104C129.804 58.1104 130.02 58.0575 130.209 57.9516C130.398 57.8382 130.545 57.6832 130.651 57.4867C130.757 57.2901 130.81 57.0557 130.81 56.7836V53.1659H132.296V59.3352H130.889V58.1218L131.014 58.3372C130.87 58.7152 130.632 58.9988 130.3 59.1878C129.975 59.3768 129.593 59.4713 129.154 59.4713ZM133.45 59.3352V53.1659H134.935V59.3352H133.45ZM133.45 52.4741V50.8864H134.935V52.4741H133.45Z" fill="#FAFAFA"/>
<g clipPath="url(#clip0_12265_36028)">
<g filter="url(#filter0_i_12265_36028)">
<rect x="152.626" y="52.3069" width="192.319" height="5.67033" rx="2.83516" fill="url(#paint0_linear_12265_36028)"/>
<rect x="152.863" y="52.5431" width="191.846" height="5.1978" rx="2.5989" stroke="white" stroke-opacity="0.04" strokeWidth="0.472527"/>
</g>
<path d="M153.001 54.7444C153.001 53.0875 154.345 51.7444 156.001 51.7444H281.001V57.7444H156.001C154.345 57.7444 153.001 56.4012 153.001 54.7444Z" fill="#0177E5"/>
</g>
<path d="M363.578 58.8352V52.2576L362.296 52.5525V51.6679L364.054 50.8967H364.825V58.8352H363.578ZM366.279 58.8352V57.9733C366.793 57.5651 367.285 57.153 367.754 56.7372C368.222 56.3214 368.638 55.9131 369.001 55.5124C369.372 55.1041 369.663 54.7072 369.874 54.3216C370.086 53.9285 370.192 53.5505 370.192 53.1876C370.192 52.9456 370.15 52.7188 370.067 52.5071C369.984 52.2879 369.848 52.114 369.659 51.9854C369.47 51.8494 369.217 51.7813 368.899 51.7813C368.423 51.7813 368.064 51.9325 367.822 52.2349C367.587 52.5374 367.474 52.9003 367.481 53.3236H366.313C366.321 52.7642 366.438 52.2954 366.665 51.9174C366.899 51.5394 367.209 51.2521 367.595 51.0555C367.988 50.8589 368.43 50.7607 368.922 50.7607C369.67 50.7607 370.267 50.9723 370.714 51.3957C371.167 51.8116 371.394 52.3937 371.394 53.1422C371.394 53.5883 371.284 54.0305 371.065 54.4691C370.853 54.9076 370.574 55.3309 370.226 55.7392C369.886 56.1399 369.519 56.5179 369.126 56.8733C368.733 57.2286 368.358 57.5499 368.003 57.8372H371.632V58.8352H366.279ZM376.015 58.9713C375.297 58.9713 374.677 58.8012 374.155 58.461C373.641 58.1132 373.244 57.6331 372.964 57.0207C372.692 56.4007 372.556 55.6825 372.556 54.866C372.556 54.0494 372.692 53.335 372.964 52.7226C373.244 52.1026 373.641 51.6225 374.155 51.2823C374.677 50.9345 375.297 50.7607 376.015 50.7607C376.733 50.7607 377.349 50.9345 377.863 51.2823C378.377 51.6225 378.771 52.1026 379.043 52.7226C379.322 53.335 379.462 54.0494 379.462 54.866C379.462 55.6825 379.322 56.4007 379.043 57.0207C378.771 57.6331 378.377 58.1132 377.863 58.461C377.349 58.8012 376.733 58.9713 376.015 58.9713ZM376.015 57.8939C376.446 57.8939 376.827 57.773 377.16 57.531C377.5 57.2891 377.765 56.9413 377.954 56.4877C378.143 56.0341 378.238 55.4935 378.238 54.866C378.238 54.2385 378.143 53.6979 377.954 53.2443C377.765 52.7906 377.5 52.4429 377.16 52.2009C376.827 51.959 376.446 51.838 376.015 51.838C375.576 51.838 375.191 51.959 374.858 52.2009C374.525 52.4429 374.265 52.7906 374.075 53.2443C373.886 53.6979 373.792 54.2385 373.792 54.866C373.792 55.4935 373.886 56.0341 374.075 56.4877C374.265 56.9413 374.525 57.2891 374.858 57.531C375.191 57.773 375.576 57.8939 376.015 57.8939ZM383.614 58.8352V53.2102H384.68L384.782 54.0041C384.964 53.7168 385.202 53.49 385.497 53.3236C385.799 53.1573 386.147 53.0742 386.54 53.0742C387.432 53.0742 388.052 53.4257 388.4 54.1288C388.604 53.8037 388.876 53.5467 389.216 53.3577C389.564 53.1687 389.938 53.0742 390.339 53.0742C391.042 53.0742 391.594 53.2858 391.995 53.7092C392.396 54.1326 392.596 54.7639 392.596 55.6031V58.8352H391.394V55.7279C391.394 54.6392 390.978 54.0948 390.146 54.0948C389.723 54.0948 389.375 54.2536 389.103 54.5711C388.838 54.8887 388.706 55.3423 388.706 55.932V58.8352H387.504V55.7279C387.504 54.6392 387.084 54.0948 386.245 54.0948C385.829 54.0948 385.485 54.2536 385.213 54.5711C384.949 54.8887 384.816 55.3423 384.816 55.932V58.8352H383.614ZM396.248 58.9713C395.537 58.9713 394.951 58.7974 394.49 58.4496C394.029 58.1018 393.764 57.6407 393.696 57.0661H394.91C394.97 57.3231 395.114 57.5462 395.341 57.7352C395.567 57.9166 395.866 58.0073 396.236 58.0073C396.599 58.0073 396.864 57.9317 397.03 57.7805C397.197 57.6293 397.28 57.4554 397.28 57.2589C397.28 56.9716 397.163 56.7788 396.928 56.6805C396.701 56.5746 396.384 56.4801 395.976 56.397C395.658 56.3289 395.341 56.2382 395.023 56.1248C394.713 56.0114 394.452 55.8526 394.241 55.6485C394.036 55.4368 393.934 55.1533 393.934 54.7979C393.934 54.3065 394.123 53.8982 394.501 53.5731C394.879 53.2405 395.409 53.0742 396.089 53.0742C396.717 53.0742 397.223 53.2254 397.609 53.5278C398.002 53.8302 398.232 54.2574 398.3 54.8093H397.144C397.106 54.5673 396.993 54.3783 396.804 54.2422C396.622 54.1062 396.376 54.0381 396.066 54.0381C395.764 54.0381 395.53 54.1024 395.363 54.2309C395.197 54.3519 395.114 54.5106 395.114 54.7072C395.114 54.9038 395.227 55.0588 395.454 55.1722C395.688 55.2856 395.995 55.3876 396.373 55.4784C396.751 55.5615 397.098 55.6598 397.416 55.7732C397.741 55.8791 398.002 56.0378 398.198 56.2495C398.395 56.4612 398.493 56.7712 398.493 57.1795C398.501 57.6936 398.3 58.1207 397.892 58.461C397.492 58.8012 396.943 58.9713 396.248 58.9713Z" fill="#A3A3A3"/>
<path d="M69.0001 94.8252V86.3764H72.1415C72.716 86.3764 73.2226 86.4822 73.6611 86.6939C74.1072 86.8981 74.4549 87.2005 74.7044 87.6012C74.9539 87.9943 75.0787 88.4744 75.0787 89.0415C75.0787 89.6236 74.9388 90.1188 74.6591 90.5271C74.3869 90.9353 74.0164 91.2378 73.5477 91.4343L75.4869 94.8252H73.7405L71.6651 91.1168L72.6631 91.7065H70.5424V94.8252H69.0001ZM70.5424 90.3456H72.1641C72.4439 90.3456 72.6858 90.2927 72.8899 90.1869C73.0941 90.0735 73.2528 89.9185 73.3662 89.7219C73.4797 89.5253 73.5364 89.2985 73.5364 89.0415C73.5364 88.7768 73.4797 88.55 73.3662 88.361C73.2528 88.1644 73.0941 88.0132 72.8899 87.9074C72.6858 87.794 72.4439 87.7373 72.1641 87.7373H70.5424V90.3456ZM78.7288 94.9613C78.0937 94.9613 77.538 94.8176 77.0617 94.5303C76.5854 94.243 76.2149 93.8537 75.9503 93.3623C75.6857 92.8708 75.5534 92.3265 75.5534 91.7292C75.5534 91.1092 75.6857 90.5611 75.9503 90.0848C76.2225 89.6009 76.5892 89.2191 77.0504 88.9394C77.5191 88.6597 78.0408 88.5198 78.6154 88.5198C79.0992 88.5198 79.5226 88.5992 79.8855 88.7579C80.256 88.9167 80.5697 89.136 80.8268 89.4157C81.0839 89.6954 81.2804 90.0168 81.4165 90.3797C81.5526 90.735 81.6206 91.1206 81.6206 91.5364C81.6206 91.6423 81.6131 91.7519 81.598 91.8653C81.5904 91.9787 81.5715 92.077 81.5413 92.1601H76.7782V91.0261H80.7021L79.9989 91.5591C80.067 91.2113 80.0481 90.9013 79.9422 90.6292C79.8439 90.357 79.6776 90.1415 79.4432 89.9827C79.2164 89.824 78.9405 89.7446 78.6154 89.7446C78.3054 89.7446 78.0294 89.824 77.7875 89.9827C77.5456 90.1339 77.3603 90.3608 77.2318 90.6632C77.1108 90.958 77.0655 91.3172 77.0957 91.7405C77.0655 92.1186 77.1146 92.455 77.2432 92.7499C77.3792 93.0372 77.5758 93.2602 77.8329 93.419C78.0975 93.5777 78.3999 93.6571 78.7401 93.6571C79.0803 93.6571 79.3676 93.5853 79.602 93.4416C79.8439 93.298 80.033 93.1052 80.169 92.8633L81.3712 93.453C81.2502 93.7478 81.0612 94.0087 80.8041 94.2355C80.5471 94.4623 80.2409 94.64 79.8855 94.7685C79.5377 94.897 79.1522 94.9613 78.7288 94.9613ZM84.3691 94.9613C83.9381 94.9613 83.5639 94.8895 83.2464 94.7458C82.9288 94.6022 82.6831 94.398 82.5092 94.1334C82.3353 93.8612 82.2484 93.5475 82.2484 93.1921C82.2484 92.8519 82.324 92.5495 82.4752 92.2849C82.6264 92.0127 82.8608 91.7859 83.1783 91.6044C83.4958 91.423 83.8965 91.2945 84.3804 91.2189L86.3991 90.89V92.0241L84.6639 92.3189C84.3691 92.3718 84.1498 92.4663 84.0062 92.6024C83.8625 92.7385 83.7907 92.9162 83.7907 93.1354C83.7907 93.3471 83.8701 93.5172 84.0289 93.6458C84.1952 93.7667 84.3993 93.8272 84.6413 93.8272C84.9512 93.8272 85.2234 93.763 85.4578 93.6344C85.6997 93.4983 85.8849 93.3131 86.0135 93.0787C86.1496 92.8444 86.2176 92.5873 86.2176 92.3076V90.7199C86.2176 90.4553 86.1118 90.236 85.9001 90.0621C85.6959 89.8807 85.4238 89.7899 85.0835 89.7899C84.766 89.7899 84.4825 89.8769 84.233 90.0508C83.9911 90.2171 83.8134 90.4401 83.7 90.7199L82.4865 90.1302C82.6075 89.8051 82.7965 89.5253 83.0536 89.291C83.3182 89.049 83.6282 88.86 83.9835 88.7239C84.3388 88.5878 84.7244 88.5198 85.1402 88.5198C85.6468 88.5198 86.0929 88.6143 86.4784 88.8033C86.864 88.9848 87.1627 89.2418 87.3744 89.5745C87.5936 89.8996 87.7032 90.2814 87.7032 90.7199V94.8252H86.297V93.7705L86.6145 93.7478C86.4558 94.0124 86.2667 94.2355 86.0475 94.4169C85.8282 94.5908 85.5787 94.7269 85.299 94.8252C85.0193 94.9159 84.7093 94.9613 84.3691 94.9613ZM91.8208 94.9613C91.2084 94.9613 90.6565 94.8214 90.165 94.5417C89.6812 94.2544 89.2994 93.8688 89.0196 93.3849C88.7399 92.8935 88.6 92.3416 88.6 91.7292C88.6 91.1168 88.7399 90.5687 89.0196 90.0848C89.2994 89.6009 89.6812 89.2191 90.165 88.9394C90.6565 88.6597 91.2084 88.5198 91.8208 88.5198C92.2593 88.5198 92.6675 88.5992 93.0456 88.7579C93.4236 88.9092 93.7487 89.1208 94.0209 89.393C94.3006 89.6576 94.501 89.9752 94.6219 90.3456L93.3177 90.9127C93.2043 90.6027 93.0115 90.3532 92.7394 90.1642C92.4748 89.9752 92.1686 89.8807 91.8208 89.8807C91.4957 89.8807 91.2046 89.9601 90.9475 90.1188C90.698 90.2776 90.5015 90.4968 90.3578 90.7766C90.2142 91.0563 90.1424 91.3776 90.1424 91.7405C90.1424 92.1034 90.2142 92.4248 90.3578 92.7045C90.5015 92.9842 90.698 93.2035 90.9475 93.3623C91.2046 93.521 91.4957 93.6004 91.8208 93.6004C92.1761 93.6004 92.4861 93.5059 92.7507 93.3169C93.0153 93.1279 93.2043 92.8746 93.3177 92.5571L94.6219 93.1468C94.501 93.4946 94.3044 93.8083 94.0322 94.0881C93.76 94.3602 93.4349 94.5757 93.0569 94.7345C92.6789 94.8857 92.2668 94.9613 91.8208 94.9613ZM98.3348 94.8932C97.6393 94.8932 97.0987 94.7042 96.7131 94.3262C96.3351 93.9406 96.1461 93.4001 96.1461 92.7045V89.9827H95.0801V88.6559H95.1935C95.4959 88.6559 95.7303 88.5765 95.8966 88.4177C96.0629 88.259 96.1461 88.0284 96.1461 87.7259V87.2496H97.6317V88.6559H99.0493V89.9827H97.6317V92.6251C97.6317 92.8292 97.6657 93.0031 97.7338 93.1468C97.8094 93.2904 97.9228 93.4001 98.074 93.4757C98.2328 93.5513 98.4331 93.5891 98.6751 93.5891C98.728 93.5891 98.7885 93.5853 98.8565 93.5777C98.9321 93.5702 99.0039 93.5626 99.072 93.555V94.8252C98.9661 94.8403 98.8452 94.8554 98.7091 94.8706C98.573 94.8857 98.4482 94.8932 98.3348 94.8932ZM101.894 94.8252V86.3764H103.096L107.746 92.6364L107.122 92.7612V86.3764H108.664V94.8252H107.451L102.869 88.5198L103.436 88.395V94.8252H101.894ZM111.819 94.9613C111.388 94.9613 111.014 94.8895 110.697 94.7458C110.379 94.6022 110.133 94.398 109.959 94.1334C109.785 93.8612 109.699 93.5475 109.699 93.1921C109.699 92.8519 109.774 92.5495 109.925 92.2849C110.077 92.0127 110.311 91.7859 110.628 91.6044C110.946 91.423 111.347 91.2945 111.831 91.2189L113.849 90.89V92.0241L112.114 92.3189C111.819 92.3718 111.6 92.4663 111.456 92.6024C111.313 92.7385 111.241 92.9162 111.241 93.1354C111.241 93.3471 111.32 93.5172 111.479 93.6458C111.645 93.7667 111.849 93.8272 112.091 93.8272C112.401 93.8272 112.674 93.763 112.908 93.6344C113.15 93.4983 113.335 93.3131 113.464 93.0787C113.6 92.8444 113.668 92.5873 113.668 92.3076V90.7199C113.668 90.4553 113.562 90.236 113.35 90.0621C113.146 89.8807 112.874 89.7899 112.534 89.7899C112.216 89.7899 111.933 89.8769 111.683 90.0508C111.441 90.2171 111.264 90.4401 111.15 90.7199L109.937 90.1302C110.058 89.8051 110.247 89.5253 110.504 89.291C110.768 89.049 111.078 88.86 111.434 88.7239C111.789 88.5878 112.175 88.5198 112.59 88.5198C113.097 88.5198 113.543 88.6143 113.929 88.8033C114.314 88.9848 114.613 89.2418 114.825 89.5745C115.044 89.8996 115.153 90.2814 115.153 90.7199V94.8252H113.747V93.7705L114.065 93.7478C113.906 94.0124 113.717 94.2355 113.498 94.4169C113.278 94.5908 113.029 94.7269 112.749 94.8252C112.469 94.9159 112.159 94.9613 111.819 94.9613ZM119.001 94.8932C118.306 94.8932 117.765 94.7042 117.38 94.3262C117.002 93.9406 116.813 93.4001 116.813 92.7045V89.9827H115.747V88.6559H115.86C116.162 88.6559 116.397 88.5765 116.563 88.4177C116.729 88.259 116.813 88.0284 116.813 87.7259V87.2496H118.298V88.6559H119.716V89.9827H118.298V92.6251C118.298 92.8292 118.332 93.0031 118.4 93.1468C118.476 93.2904 118.589 93.4001 118.741 93.4757C118.899 93.5513 119.1 93.5891 119.342 93.5891C119.395 93.5891 119.455 93.5853 119.523 93.5777C119.599 93.5702 119.671 93.5626 119.739 93.555V94.8252C119.633 94.8403 119.512 94.8554 119.376 94.8706C119.24 94.8857 119.115 94.8932 119.001 94.8932ZM120.647 94.8252V88.6559H122.132V94.8252H120.647ZM120.647 87.9641V86.3764H122.132V87.9641H120.647ZM125.137 94.8252L122.71 88.6559H124.332L126.09 93.5097H125.489L127.258 88.6559H128.88L126.453 94.8252H125.137ZM132.289 94.9613C131.654 94.9613 131.098 94.8176 130.622 94.5303C130.146 94.243 129.775 93.8537 129.511 93.3623C129.246 92.8708 129.114 92.3265 129.114 91.7292C129.114 91.1092 129.246 90.5611 129.511 90.0848C129.783 89.6009 130.149 89.2191 130.611 88.9394C131.079 88.6597 131.601 88.5198 132.176 88.5198C132.659 88.5198 133.083 88.5992 133.446 88.7579C133.816 88.9167 134.13 89.136 134.387 89.4157C134.644 89.6954 134.841 90.0168 134.977 90.3797C135.113 90.735 135.181 91.1206 135.181 91.5364C135.181 91.6423 135.173 91.7519 135.158 91.8653C135.151 91.9787 135.132 92.077 135.102 92.1601H130.338V91.0261H134.262L133.559 91.5591C133.627 91.2113 133.608 90.9013 133.502 90.6292C133.404 90.357 133.238 90.1415 133.003 89.9827C132.777 89.824 132.501 89.7446 132.176 89.7446C131.866 89.7446 131.59 89.824 131.348 89.9827C131.106 90.1339 130.921 90.3608 130.792 90.6632C130.671 90.958 130.626 91.3172 130.656 91.7405C130.626 92.1186 130.675 92.455 130.803 92.7499C130.939 93.0372 131.136 93.2602 131.393 93.419C131.658 93.5777 131.96 93.6571 132.3 93.6571C132.641 93.6571 132.928 93.5853 133.162 93.4416C133.404 93.298 133.593 93.1052 133.729 92.8633L134.931 93.453C134.81 93.7478 134.621 94.0087 134.364 94.2355C134.107 94.4623 133.801 94.64 133.446 94.7685C133.098 94.897 132.712 94.9613 132.289 94.9613Z" fill="#FAFAFA"/>
<g clipPath="url(#clip1_12265_36028)">
<g filter="url(#filter1_i_12265_36028)">
<rect x="152.626" y="87.7422" width="192.319" height="5.67033" rx="2.83516" fill="url(#paint1_linear_12265_36028)"/>
<rect x="152.863" y="87.9785" width="191.846" height="5.1978" rx="2.5989" stroke="white" stroke-opacity="0.04" strokeWidth="0.472527"/>
</g>
<path d="M152.626 90.7024C152.626 89.1365 153.896 87.8672 155.462 87.8672H212.637V93.5375H155.462C153.896 93.5375 152.626 92.2682 152.626 90.7024Z" fill="#61DAFB"/>
</g>
<path d="M365.676 94.4613C365.094 94.4613 364.602 94.3517 364.202 94.1324C363.801 93.9132 363.476 93.6221 363.226 93.2592C362.984 92.8963 362.81 92.488 362.705 92.0344C362.599 91.5808 362.546 91.1158 362.546 90.6395C362.546 89.7625 362.667 88.9951 362.909 88.3373C363.158 87.6796 363.514 87.1692 363.975 86.8063C364.436 86.4359 364.995 86.2506 365.653 86.2506C366.175 86.2506 366.621 86.3527 366.991 86.5568C367.362 86.761 367.649 87.0332 367.853 87.3734C368.065 87.7136 368.193 88.0841 368.239 88.4848H367.116C367.048 88.0916 366.885 87.7892 366.628 87.5775C366.371 87.3658 366.042 87.26 365.642 87.26C365.09 87.26 364.632 87.5208 364.27 88.0425C363.914 88.5566 363.725 89.3504 363.703 90.424C363.884 90.0913 364.164 89.8078 364.542 89.5735C364.927 89.3391 365.37 89.2219 365.869 89.2219C366.315 89.2219 366.73 89.3277 367.116 89.5394C367.509 89.7511 367.827 90.0498 368.069 90.4353C368.318 90.8134 368.443 91.2632 368.443 91.7849C368.443 92.2461 368.33 92.6808 368.103 93.0891C367.876 93.4973 367.555 93.83 367.139 94.087C366.73 94.3365 366.243 94.4613 365.676 94.4613ZM365.608 93.4179C365.925 93.4179 366.209 93.3499 366.458 93.2138C366.708 93.0777 366.904 92.8925 367.048 92.6581C367.192 92.4162 367.263 92.144 367.263 91.8416C367.263 91.3577 367.105 90.9721 366.787 90.6848C366.477 90.3975 366.08 90.2539 365.596 90.2539C365.279 90.2539 364.992 90.3257 364.735 90.4694C364.485 90.613 364.288 90.8058 364.145 91.0477C364.001 91.2821 363.929 91.543 363.929 91.8303C363.929 92.1402 364.001 92.4162 364.145 92.6581C364.296 92.8925 364.496 93.0777 364.746 93.2138C365.003 93.3499 365.29 93.4179 365.608 93.4179ZM372.37 94.4613C371.849 94.4613 371.402 94.3592 371.032 94.1551C370.662 93.951 370.37 93.6788 370.159 93.3386C369.955 92.9983 369.83 92.6279 369.785 92.2272H370.907C370.975 92.6203 371.138 92.9227 371.395 93.1344C371.652 93.3461 371.981 93.452 372.382 93.452C372.933 93.452 373.387 93.1949 373.742 92.6808C374.105 92.1591 374.298 91.3615 374.321 90.2879C374.139 90.6206 373.856 90.9041 373.47 91.1385C373.092 91.3728 372.654 91.49 372.155 91.49C371.709 91.49 371.289 91.3842 370.896 91.1725C370.503 90.9608 370.185 90.6659 369.943 90.2879C369.701 89.9023 369.58 89.4487 369.58 88.927C369.58 88.4659 369.694 88.0311 369.921 87.6229C370.147 87.2146 370.465 86.8857 370.873 86.6362C371.289 86.3792 371.781 86.2506 372.348 86.2506C372.93 86.2506 373.421 86.3603 373.822 86.5795C374.223 86.7988 374.544 87.0899 374.786 87.4528C375.028 87.8157 375.202 88.2239 375.307 88.6775C375.421 89.1312 375.478 89.5961 375.478 90.0724C375.478 90.9495 375.353 91.7168 375.103 92.3746C374.861 93.0324 374.51 93.5465 374.049 93.9169C373.587 94.2798 373.028 94.4613 372.37 94.4613ZM372.427 90.458C372.744 90.458 373.028 90.3862 373.277 90.2426C373.527 90.0989 373.724 89.9099 373.867 89.6755C374.018 89.4336 374.094 89.169 374.094 88.8817C374.094 88.5717 374.018 88.2995 373.867 88.0652C373.724 87.8232 373.523 87.6342 373.266 87.4981C373.017 87.362 372.733 87.294 372.416 87.294C372.098 87.294 371.815 87.362 371.565 87.4981C371.316 87.6342 371.115 87.8232 370.964 88.0652C370.82 88.2995 370.749 88.5679 370.749 88.8703C370.749 89.3542 370.907 89.7398 371.225 90.0271C371.542 90.3144 371.943 90.458 372.427 90.458ZM379.683 94.3252V88.7002H380.749L380.851 89.4941C381.032 89.2068 381.27 88.98 381.565 88.8136C381.868 88.6473 382.215 88.5641 382.608 88.5641C383.501 88.5641 384.121 88.9157 384.468 89.6188C384.672 89.2937 384.945 89.0367 385.285 88.8477C385.633 88.6586 386.007 88.5641 386.408 88.5641C387.111 88.5641 387.663 88.7758 388.063 89.1992C388.464 89.6226 388.664 90.2539 388.664 91.0931V94.3252H387.462V91.2179C387.462 90.1292 387.046 89.5848 386.215 89.5848C385.791 89.5848 385.444 89.7436 385.171 90.0611C384.907 90.3786 384.775 90.8323 384.775 91.422V94.3252H383.572V91.2179C383.572 90.1292 383.153 89.5848 382.314 89.5848C381.898 89.5848 381.554 89.7436 381.282 90.0611C381.017 90.3786 380.885 90.8323 380.885 91.422V94.3252H379.683ZM392.316 94.4613C391.606 94.4613 391.02 94.2874 390.558 93.9396C390.097 93.5918 389.833 93.1306 389.765 92.5561H390.978C391.039 92.8131 391.182 93.0361 391.409 93.2252C391.636 93.4066 391.934 93.4973 392.305 93.4973C392.668 93.4973 392.932 93.4217 393.099 93.2705C393.265 93.1193 393.348 92.9454 393.348 92.7488C393.348 92.4615 393.231 92.2688 392.997 92.1705C392.77 92.0646 392.452 91.9701 392.044 91.887C391.727 91.8189 391.409 91.7282 391.091 91.6148C390.781 91.5014 390.521 91.3426 390.309 91.1385C390.105 90.9268 390.003 90.6433 390.003 90.2879C390.003 89.7965 390.192 89.3882 390.57 89.0631C390.948 88.7305 391.477 88.5641 392.157 88.5641C392.785 88.5641 393.292 88.7153 393.677 89.0178C394.07 89.3202 394.301 89.7473 394.369 90.2993H393.212C393.174 90.0573 393.061 89.8683 392.872 89.7322C392.69 89.5961 392.445 89.5281 392.135 89.5281C391.832 89.5281 391.598 89.5924 391.432 89.7209C391.265 89.8419 391.182 90.0006 391.182 90.1972C391.182 90.3938 391.296 90.5488 391.522 90.6622C391.757 90.7756 392.063 90.8776 392.441 90.9684C392.819 91.0515 393.167 91.1498 393.484 91.2632C393.809 91.3691 394.07 91.5278 394.267 91.7395C394.463 91.9512 394.562 92.2612 394.562 92.6695C394.569 93.1836 394.369 93.6107 393.961 93.951C393.56 94.2912 393.012 94.4613 392.316 94.4613Z" fill="#A3A3A3"/>
<path d="M93.2072 130.315V123.227H91.0184V121.866H96.9156V123.227H94.7608V130.315H93.2072ZM98.7008 130.451C98.2699 130.451 97.8957 130.379 97.5781 130.236C97.2606 130.092 97.0149 129.888 96.841 129.623C96.6671 129.351 96.5801 129.037 96.5801 128.682C96.5801 128.342 96.6557 128.039 96.8069 127.775C96.9582 127.502 97.1925 127.276 97.5101 127.094C97.8276 126.913 98.2283 126.784 98.7122 126.709L100.731 126.38V127.514L98.9957 127.809C98.7008 127.862 98.4816 127.956 98.3379 128.092C98.1943 128.228 98.1225 128.406 98.1225 128.625C98.1225 128.837 98.2018 129.007 98.3606 129.136C98.5269 129.256 98.7311 129.317 98.973 129.317C99.283 129.317 99.5552 129.253 99.7895 129.124C100.031 128.988 100.217 128.803 100.345 128.568C100.481 128.334 100.549 128.077 100.549 127.797V126.21C100.549 125.945 100.444 125.726 100.232 125.552C100.028 125.37 99.7555 125.28 99.4153 125.28C99.0978 125.28 98.8142 125.367 98.5647 125.541C98.3228 125.707 98.1451 125.93 98.0317 126.21L96.8183 125.62C96.9393 125.295 97.1283 125.015 97.3853 124.781C97.6499 124.539 97.9599 124.35 98.3153 124.214C98.6706 124.078 99.0562 124.01 99.472 124.01C99.9786 124.01 100.425 124.104 100.81 124.293C101.196 124.475 101.494 124.732 101.706 125.064C101.925 125.389 102.035 125.771 102.035 126.21V130.315H100.629V129.26L100.946 129.238C100.788 129.502 100.599 129.725 100.379 129.907C100.16 130.081 99.9105 130.217 99.6308 130.315C99.351 130.406 99.0411 130.451 98.7008 130.451ZM103.181 130.315V124.146H104.576V125.575L104.417 125.336C104.531 124.89 104.758 124.558 105.098 124.338C105.438 124.119 105.839 124.01 106.3 124.01C106.807 124.01 107.253 124.142 107.638 124.406C108.024 124.671 108.273 125.019 108.387 125.45L107.967 125.484C108.156 124.992 108.44 124.626 108.818 124.384C109.196 124.134 109.63 124.01 110.122 124.01C110.56 124.01 110.95 124.108 111.29 124.304C111.638 124.501 111.91 124.777 112.106 125.132C112.303 125.48 112.401 125.885 112.401 126.346V130.315H110.916V126.697C110.916 126.425 110.866 126.191 110.768 125.994C110.67 125.798 110.534 125.646 110.36 125.541C110.186 125.427 109.974 125.37 109.725 125.37C109.49 125.37 109.283 125.427 109.101 125.541C108.92 125.646 108.78 125.798 108.682 125.994C108.583 126.191 108.534 126.425 108.534 126.697V130.315H107.048V126.697C107.048 126.425 106.999 126.191 106.901 125.994C106.803 125.798 106.663 125.646 106.481 125.541C106.308 125.427 106.1 125.37 105.858 125.37C105.623 125.37 105.415 125.427 105.234 125.541C105.052 125.646 104.913 125.798 104.814 125.994C104.716 126.191 104.667 126.425 104.667 126.697V130.315H103.181ZM115.302 130.451C114.872 130.451 114.497 130.379 114.18 130.236C113.862 130.092 113.617 129.888 113.443 129.623C113.269 129.351 113.182 129.037 113.182 128.682C113.182 128.342 113.257 128.039 113.409 127.775C113.56 127.502 113.794 127.276 114.112 127.094C114.429 126.913 114.83 126.784 115.314 126.709L117.332 126.38V127.514L115.597 127.809C115.302 127.862 115.083 127.956 114.94 128.092C114.796 128.228 114.724 128.406 114.724 128.625C114.724 128.837 114.804 129.007 114.962 129.136C115.129 129.256 115.333 129.317 115.575 129.317C115.885 129.317 116.157 129.253 116.391 129.124C116.633 128.988 116.818 128.803 116.947 128.568C117.083 128.334 117.151 128.077 117.151 127.797V126.21C117.151 125.945 117.045 125.726 116.833 125.552C116.629 125.37 116.357 125.28 116.017 125.28C115.699 125.28 115.416 125.367 115.166 125.541C114.924 125.707 114.747 125.93 114.633 126.21L113.42 125.62C113.541 125.295 113.73 125.015 113.987 124.781C114.252 124.539 114.562 124.35 114.917 124.214C115.272 124.078 115.658 124.01 116.074 124.01C116.58 124.01 117.026 124.104 117.412 124.293C117.797 124.475 118.096 124.732 118.308 125.064C118.527 125.389 118.637 125.771 118.637 126.21V130.315H117.23V129.26L117.548 129.238C117.389 129.502 117.2 129.725 116.981 129.907C116.762 130.081 116.512 130.217 116.232 130.315C115.953 130.406 115.643 130.451 115.302 130.451ZM122.777 132.81C122.316 132.81 121.889 132.734 121.495 132.583C121.102 132.432 120.762 132.22 120.475 131.948C120.195 131.683 119.991 131.37 119.862 131.007L121.246 130.485C121.337 130.772 121.514 131.003 121.779 131.177C122.051 131.358 122.384 131.449 122.777 131.449C123.079 131.449 123.344 131.392 123.571 131.279C123.805 131.165 123.987 130.999 124.115 130.78C124.244 130.568 124.308 130.311 124.308 130.009V128.603L124.591 128.943C124.38 129.313 124.096 129.593 123.741 129.782C123.386 129.971 122.981 130.065 122.527 130.065C121.953 130.065 121.439 129.933 120.985 129.669C120.531 129.404 120.176 129.041 119.919 128.58C119.662 128.119 119.533 127.601 119.533 127.026C119.533 126.444 119.662 125.926 119.919 125.472C120.176 125.019 120.528 124.664 120.974 124.406C121.42 124.142 121.926 124.01 122.493 124.01C122.955 124.01 123.359 124.108 123.707 124.304C124.062 124.493 124.357 124.769 124.591 125.132L124.387 125.507V124.146H125.794V130.009C125.794 130.546 125.661 131.026 125.397 131.449C125.14 131.872 124.784 132.205 124.331 132.447C123.884 132.689 123.367 132.81 122.777 132.81ZM122.709 128.693C123.026 128.693 123.302 128.625 123.537 128.489C123.779 128.345 123.968 128.149 124.104 127.899C124.24 127.65 124.308 127.363 124.308 127.037C124.308 126.72 124.236 126.436 124.092 126.187C123.956 125.93 123.767 125.73 123.525 125.586C123.291 125.442 123.019 125.37 122.709 125.37C122.399 125.37 122.119 125.442 121.87 125.586C121.62 125.73 121.424 125.93 121.28 126.187C121.144 126.436 121.076 126.72 121.076 127.037C121.076 127.355 121.144 127.639 121.28 127.888C121.424 128.138 121.616 128.334 121.858 128.478C122.108 128.621 122.391 128.693 122.709 128.693ZM129.154 130.451C128.678 130.451 128.262 130.345 127.907 130.133C127.559 129.922 127.291 129.627 127.102 129.249C126.92 128.871 126.829 128.429 126.829 127.922V124.146H128.315V127.797C128.315 128.054 128.364 128.281 128.462 128.478C128.568 128.667 128.716 128.818 128.905 128.931C129.101 129.037 129.321 129.09 129.562 129.09C129.804 129.09 130.02 129.037 130.209 128.931C130.398 128.818 130.545 128.663 130.651 128.466C130.757 128.27 130.81 128.035 130.81 127.763V124.146H132.296V130.315H130.889V129.101L131.014 129.317C130.87 129.695 130.632 129.979 130.3 130.168C129.975 130.357 129.593 130.451 129.154 130.451ZM133.45 130.315V124.146H134.935V130.315H133.45ZM133.45 123.454V121.866H134.935V123.454H133.45Z" fill="#FAFAFA"/>
<g clipPath="url(#clip2_12265_36028)">
<g filter="url(#filter2_i_12265_36028)">
<rect x="152.626" y="123.177" width="192.319" height="5.67033" rx="2.83516" fill="url(#paint2_linear_12265_36028)"/>
<rect x="152.863" y="123.414" width="191.846" height="5.1978" rx="2.5989" stroke="white" stroke-opacity="0.04" strokeWidth="0.472527"/>
</g>
<path d="M153.001 125.74C153.001 124.083 154.345 122.74 156.001 122.74H255.001V128.74H156.001C154.345 128.74 153.001 127.397 153.001 125.74Z" fill="#D6409F"/>
</g>
<path d="M365.426 129.951C364.905 129.951 364.459 129.849 364.088 129.645C363.718 129.441 363.427 129.169 363.215 128.828C363.011 128.488 362.886 128.118 362.841 127.717H363.963C364.031 128.11 364.194 128.412 364.451 128.624C364.708 128.836 365.037 128.942 365.438 128.942C365.99 128.942 366.443 128.685 366.799 128.171C367.161 127.649 367.354 126.851 367.377 125.778C367.195 126.11 366.912 126.394 366.526 126.628C366.148 126.863 365.71 126.98 365.211 126.98C364.765 126.98 364.345 126.874 363.952 126.662C363.559 126.451 363.241 126.156 362.999 125.778C362.757 125.392 362.636 124.938 362.636 124.417C362.636 123.956 362.75 123.521 362.977 123.113C363.204 122.704 363.521 122.375 363.929 122.126C364.345 121.869 364.837 121.74 365.404 121.74C365.986 121.74 366.477 121.85 366.878 122.069C367.279 122.289 367.6 122.58 367.842 122.943C368.084 123.305 368.258 123.714 368.364 124.167C368.477 124.621 368.534 125.086 368.534 125.562C368.534 126.439 368.409 127.207 368.159 127.864C367.917 128.522 367.566 129.036 367.105 129.407C366.644 129.77 366.084 129.951 365.426 129.951ZM365.483 125.948C365.801 125.948 366.084 125.876 366.334 125.732C366.583 125.589 366.78 125.4 366.923 125.165C367.074 124.923 367.15 124.659 367.15 124.371C367.15 124.061 367.074 123.789 366.923 123.555C366.78 123.313 366.579 123.124 366.322 122.988C366.073 122.852 365.789 122.784 365.472 122.784C365.154 122.784 364.871 122.852 364.621 122.988C364.372 123.124 364.171 123.313 364.02 123.555C363.876 123.789 363.805 124.058 363.805 124.36C363.805 124.844 363.963 125.23 364.281 125.517C364.598 125.804 364.999 125.948 365.483 125.948ZM373.102 129.951C372.384 129.951 371.764 129.781 371.242 129.441C370.728 129.093 370.331 128.613 370.051 128C369.779 127.38 369.643 126.662 369.643 125.846C369.643 125.029 369.779 124.315 370.051 123.702C370.331 123.082 370.728 122.602 371.242 122.262C371.764 121.914 372.384 121.74 373.102 121.74C373.82 121.74 374.436 121.914 374.951 122.262C375.465 122.602 375.858 123.082 376.13 123.702C376.41 124.315 376.55 125.029 376.55 125.846C376.55 126.662 376.41 127.38 376.13 128C375.858 128.613 375.465 129.093 374.951 129.441C374.436 129.781 373.82 129.951 373.102 129.951ZM373.102 128.874C373.533 128.874 373.915 128.753 374.247 128.511C374.588 128.269 374.852 127.921 375.041 127.467C375.23 127.014 375.325 126.473 375.325 125.846C375.325 125.218 375.23 124.678 375.041 124.224C374.852 123.77 374.588 123.423 374.247 123.181C373.915 122.939 373.533 122.818 373.102 122.818C372.664 122.818 372.278 122.939 371.945 123.181C371.613 123.423 371.352 123.77 371.163 124.224C370.974 124.678 370.879 125.218 370.879 125.846C370.879 126.473 370.974 127.014 371.163 127.467C371.352 127.921 371.613 128.269 371.945 128.511C372.278 128.753 372.664 128.874 373.102 128.874ZM380.701 129.815V124.19H381.767L381.87 124.984C382.051 124.697 382.289 124.47 382.584 124.303C382.886 124.137 383.234 124.054 383.627 124.054C384.519 124.054 385.139 124.405 385.487 125.109C385.691 124.783 385.964 124.526 386.304 124.337C386.652 124.148 387.026 124.054 387.426 124.054C388.13 124.054 388.681 124.266 389.082 124.689C389.483 125.112 389.683 125.744 389.683 126.583V129.815H388.481V126.708C388.481 125.619 388.065 125.075 387.234 125.075C386.81 125.075 386.463 125.233 386.19 125.551C385.926 125.868 385.793 126.322 385.793 126.912V129.815H384.591V126.708C384.591 125.619 384.172 125.075 383.332 125.075C382.917 125.075 382.573 125.233 382.3 125.551C382.036 125.868 381.904 126.322 381.904 126.912V129.815H380.701ZM393.335 129.951C392.624 129.951 392.039 129.777 391.577 129.429C391.116 129.082 390.852 128.62 390.783 128.046H391.997C392.057 128.303 392.201 128.526 392.428 128.715C392.655 128.896 392.953 128.987 393.324 128.987C393.687 128.987 393.951 128.911 394.118 128.76C394.284 128.609 394.367 128.435 394.367 128.239C394.367 127.951 394.25 127.759 394.016 127.66C393.789 127.554 393.471 127.46 393.063 127.377C392.745 127.309 392.428 127.218 392.11 127.105C391.8 126.991 391.54 126.832 391.328 126.628C391.124 126.417 391.022 126.133 391.022 125.778C391.022 125.286 391.211 124.878 391.589 124.553C391.967 124.22 392.496 124.054 393.176 124.054C393.804 124.054 394.31 124.205 394.696 124.508C395.089 124.81 395.32 125.237 395.388 125.789H394.231C394.193 125.547 394.08 125.358 393.891 125.222C393.709 125.086 393.464 125.018 393.154 125.018C392.851 125.018 392.617 125.082 392.451 125.211C392.284 125.332 392.201 125.49 392.201 125.687C392.201 125.884 392.314 126.039 392.541 126.152C392.776 126.265 393.082 126.367 393.46 126.458C393.838 126.541 394.186 126.64 394.503 126.753C394.828 126.859 395.089 127.018 395.286 127.229C395.482 127.441 395.581 127.751 395.581 128.159C395.588 128.673 395.388 129.1 394.98 129.441C394.579 129.781 394.031 129.951 393.335 129.951Z" fill="#A3A3A3"/>
<path d="M75.6122 165.805V157.356H76.8143L81.464 163.616L80.8403 163.741V157.356H82.3826V165.805H81.1692L76.5875 159.499L77.1546 159.375V165.805H75.6122ZM85.5377 165.941C85.1068 165.941 84.7325 165.869 84.415 165.725C84.0974 165.582 83.8517 165.378 83.6778 165.113C83.5039 164.841 83.417 164.527 83.417 164.172C83.417 163.831 83.4926 163.529 83.6438 163.264C83.795 162.992 84.0294 162.765 84.3469 162.584C84.6645 162.402 85.0652 162.274 85.549 162.198L87.5677 161.869V163.004L85.8326 163.298C85.5377 163.351 85.3184 163.446 85.1748 163.582C85.0312 163.718 84.9593 163.896 84.9593 164.115C84.9593 164.327 85.0387 164.497 85.1975 164.625C85.3638 164.746 85.5679 164.807 85.8099 164.807C86.1199 164.807 86.392 164.742 86.6264 164.614C86.8683 164.478 87.0536 164.293 87.1821 164.058C87.3182 163.824 87.3862 163.567 87.3862 163.287V161.699C87.3862 161.435 87.2804 161.216 87.0687 161.042C86.8646 160.86 86.5924 160.769 86.2522 160.769C85.9346 160.769 85.6511 160.856 85.4016 161.03C85.1597 161.197 84.982 161.42 84.8686 161.699L83.6552 161.11C83.7761 160.785 83.9651 160.505 84.2222 160.27C84.4868 160.029 84.7968 159.84 85.1521 159.703C85.5075 159.567 85.893 159.499 86.3089 159.499C86.8154 159.499 87.2615 159.594 87.6471 159.783C88.0326 159.964 88.3313 160.221 88.543 160.554C88.7622 160.879 88.8719 161.261 88.8719 161.699V165.805H87.4656V164.75L87.7832 164.727C87.6244 164.992 87.4354 165.215 87.2161 165.396C86.9969 165.57 86.7474 165.706 86.4676 165.805C86.1879 165.895 85.8779 165.941 85.5377 165.941ZM92.7199 165.873C92.0243 165.873 91.4838 165.684 91.0982 165.306C90.7201 164.92 90.5311 164.38 90.5311 163.684V160.962H89.4651V159.635H89.5785C89.8809 159.635 90.1153 159.556 90.2816 159.397C90.448 159.238 90.5311 159.008 90.5311 158.705V158.229H92.0168V159.635H93.4343V160.962H92.0168V163.605C92.0168 163.809 92.0508 163.983 92.1188 164.126C92.1944 164.27 92.3078 164.38 92.459 164.455C92.6178 164.531 92.8182 164.569 93.0601 164.569C93.113 164.569 93.1735 164.565 93.2416 164.557C93.3172 164.55 93.389 164.542 93.457 164.535V165.805C93.3512 165.82 93.2302 165.835 93.0941 165.85C92.958 165.865 92.8333 165.873 92.7199 165.873ZM94.3652 165.805V159.635H95.8509V165.805H94.3652ZM94.3652 158.944V157.356H95.8509V158.944H94.3652ZM98.8556 165.805L96.4287 159.635H98.0504L99.8082 164.489H99.2072L100.976 159.635H102.598L100.171 165.805H98.8556ZM106.008 165.941C105.372 165.941 104.817 165.797 104.34 165.51C103.864 165.223 103.494 164.833 103.229 164.342C102.964 163.85 102.832 163.306 102.832 162.709C102.832 162.089 102.964 161.541 103.229 161.064C103.501 160.58 103.868 160.199 104.329 159.919C104.798 159.639 105.32 159.499 105.894 159.499C106.378 159.499 106.801 159.579 107.164 159.737C107.535 159.896 107.848 160.115 108.106 160.395C108.363 160.675 108.559 160.996 108.695 161.359C108.831 161.714 108.899 162.1 108.899 162.516C108.899 162.622 108.892 162.731 108.877 162.845C108.869 162.958 108.85 163.056 108.82 163.14H104.057V162.006H107.981L107.278 162.539C107.346 162.191 107.327 161.881 107.221 161.609C107.123 161.336 106.956 161.121 106.722 160.962C106.495 160.803 106.219 160.724 105.894 160.724C105.584 160.724 105.308 160.803 105.066 160.962C104.824 161.113 104.639 161.34 104.511 161.643C104.39 161.938 104.344 162.297 104.374 162.72C104.344 163.098 104.393 163.434 104.522 163.729C104.658 164.017 104.855 164.24 105.112 164.398C105.376 164.557 105.679 164.637 106.019 164.637C106.359 164.637 106.646 164.565 106.881 164.421C107.123 164.277 107.312 164.085 107.448 163.843L108.65 164.432C108.529 164.727 108.34 164.988 108.083 165.215C107.826 165.442 107.52 165.619 107.164 165.748C106.816 165.877 106.431 165.941 106.008 165.941ZM109.923 165.805V157.356H113.484C114.044 157.356 114.52 157.454 114.913 157.651C115.314 157.84 115.62 158.112 115.832 158.467C116.051 158.815 116.161 159.238 116.161 159.737C116.161 160.123 116.055 160.486 115.843 160.826C115.639 161.159 115.31 161.435 114.857 161.654V160.94C115.272 161.098 115.601 161.295 115.843 161.529C116.085 161.764 116.255 162.024 116.354 162.312C116.452 162.599 116.501 162.901 116.501 163.219C116.501 164.028 116.233 164.663 115.696 165.124C115.167 165.578 114.43 165.805 113.484 165.805H109.923ZM111.466 164.444H113.643C114.044 164.444 114.361 164.334 114.596 164.115C114.838 163.888 114.959 163.589 114.959 163.219C114.959 162.849 114.838 162.55 114.596 162.323C114.361 162.096 114.044 161.983 113.643 161.983H111.466V164.444ZM111.466 160.633H113.564C113.881 160.633 114.135 160.543 114.324 160.361C114.513 160.172 114.607 159.93 114.607 159.635C114.607 159.341 114.513 159.106 114.324 158.932C114.135 158.758 113.881 158.671 113.564 158.671H111.466V160.633ZM119.284 165.941C118.853 165.941 118.479 165.869 118.161 165.725C117.844 165.582 117.598 165.378 117.424 165.113C117.25 164.841 117.163 164.527 117.163 164.172C117.163 163.831 117.239 163.529 117.39 163.264C117.541 162.992 117.776 162.765 118.093 162.584C118.411 162.402 118.812 162.274 119.295 162.198L121.314 161.869V163.004L119.579 163.298C119.284 163.351 119.065 163.446 118.921 163.582C118.778 163.718 118.706 163.896 118.706 164.115C118.706 164.327 118.785 164.497 118.944 164.625C119.11 164.746 119.314 164.807 119.556 164.807C119.866 164.807 120.138 164.742 120.373 164.614C120.615 164.478 120.8 164.293 120.929 164.058C121.065 163.824 121.133 163.567 121.133 163.287V161.699C121.133 161.435 121.027 161.216 120.815 161.042C120.611 160.86 120.339 160.769 119.999 160.769C119.681 160.769 119.398 160.856 119.148 161.03C118.906 161.197 118.728 161.42 118.615 161.699L117.402 161.11C117.523 160.785 117.712 160.505 117.969 160.27C118.233 160.029 118.543 159.84 118.899 159.703C119.254 159.567 119.639 159.499 120.055 159.499C120.562 159.499 121.008 159.594 121.393 159.783C121.779 159.964 122.078 160.221 122.289 160.554C122.509 160.879 122.618 161.261 122.618 161.699V165.805H121.212V164.75L121.53 164.727C121.371 164.992 121.182 165.215 120.963 165.396C120.743 165.57 120.494 165.706 120.214 165.805C119.934 165.895 119.624 165.941 119.284 165.941ZM126.112 165.941C125.454 165.941 124.88 165.786 124.388 165.476C123.904 165.158 123.572 164.731 123.39 164.194L124.502 163.661C124.66 164.009 124.88 164.281 125.159 164.478C125.447 164.674 125.764 164.773 126.112 164.773C126.384 164.773 126.6 164.712 126.759 164.591C126.917 164.47 126.997 164.312 126.997 164.115C126.997 163.994 126.963 163.896 126.895 163.82C126.834 163.737 126.747 163.669 126.634 163.616C126.528 163.555 126.411 163.506 126.282 163.469L125.273 163.185C124.751 163.034 124.354 162.803 124.082 162.493C123.818 162.183 123.685 161.817 123.685 161.393C123.685 161.015 123.78 160.686 123.969 160.407C124.165 160.119 124.434 159.896 124.774 159.737C125.122 159.579 125.519 159.499 125.965 159.499C126.547 159.499 127.061 159.639 127.507 159.919C127.953 160.199 128.271 160.592 128.46 161.098L127.326 161.631C127.22 161.352 127.042 161.129 126.793 160.962C126.543 160.796 126.263 160.713 125.953 160.713C125.704 160.713 125.507 160.769 125.364 160.883C125.22 160.996 125.148 161.144 125.148 161.325C125.148 161.439 125.178 161.537 125.239 161.62C125.299 161.703 125.383 161.771 125.488 161.824C125.602 161.877 125.73 161.926 125.874 161.972L126.861 162.266C127.367 162.418 127.756 162.644 128.029 162.947C128.308 163.249 128.448 163.62 128.448 164.058C128.448 164.429 128.35 164.758 128.153 165.045C127.957 165.325 127.685 165.544 127.337 165.703C126.989 165.861 126.581 165.941 126.112 165.941ZM132.289 165.941C131.654 165.941 131.098 165.797 130.622 165.51C130.146 165.223 129.775 164.833 129.511 164.342C129.246 163.85 129.114 163.306 129.114 162.709C129.114 162.089 129.246 161.541 129.511 161.064C129.783 160.58 130.149 160.199 130.611 159.919C131.079 159.639 131.601 159.499 132.176 159.499C132.659 159.499 133.083 159.579 133.446 159.737C133.816 159.896 134.13 160.115 134.387 160.395C134.644 160.675 134.841 160.996 134.977 161.359C135.113 161.714 135.181 162.1 135.181 162.516C135.181 162.622 135.173 162.731 135.158 162.845C135.151 162.958 135.132 163.056 135.102 163.14H130.338V162.006H134.262L133.559 162.539C133.627 162.191 133.608 161.881 133.502 161.609C133.404 161.336 133.238 161.121 133.003 160.962C132.777 160.803 132.501 160.724 132.176 160.724C131.866 160.724 131.59 160.803 131.348 160.962C131.106 161.113 130.921 161.34 130.792 161.643C130.671 161.938 130.626 162.297 130.656 162.72C130.626 163.098 130.675 163.434 130.803 163.729C130.939 164.017 131.136 164.24 131.393 164.398C131.658 164.557 131.96 164.637 132.3 164.637C132.641 164.637 132.928 164.565 133.162 164.421C133.404 164.277 133.593 164.085 133.729 163.843L134.931 164.432C134.81 164.727 134.621 164.988 134.364 165.215C134.107 165.442 133.801 165.619 133.446 165.748C133.098 165.877 132.712 165.941 132.289 165.941Z" fill="#FAFAFA"/>
<g clipPath="url(#clip3_12265_36028)">
<g filter="url(#filter3_i_12265_36028)">
<rect x="152.626" y="158.62" width="195.319" height="5.67033" rx="2.83516" fill="url(#paint3_linear_12265_36028)"/>
<rect x="152.863" y="158.856" width="194.846" height="5.1978" rx="2.5989" stroke="white" stroke-opacity="0.04" strokeWidth="0.472527"/>
</g>
<path d="M153.001 161.604C153.001 159.948 154.345 158.604 156.001 158.604H343.001V164.604H156.001C154.345 164.604 153.001 163.261 153.001 161.604Z" fill="#0991B1"/>
</g>
<path d="M369.071 165.305V163.717H365.091V162.764L368.879 157.366H370.262V162.674H371.373V163.717H370.262V165.305H369.071ZM366.395 162.674H369.139V158.693L366.395 162.674ZM375.184 165.441C374.663 165.441 374.217 165.339 373.846 165.135C373.476 164.93 373.185 164.658 372.973 164.318C372.769 163.978 372.644 163.607 372.599 163.207H373.721C373.79 163.6 373.952 163.902 374.209 164.114C374.466 164.326 374.795 164.431 375.196 164.431C375.748 164.431 376.201 164.174 376.557 163.66C376.92 163.139 377.112 162.341 377.135 161.267C376.954 161.6 376.67 161.884 376.284 162.118C375.906 162.352 375.468 162.47 374.969 162.47C374.523 162.47 374.103 162.364 373.71 162.152C373.317 161.94 372.999 161.645 372.758 161.267C372.516 160.882 372.395 160.428 372.395 159.907C372.395 159.445 372.508 159.011 372.735 158.602C372.962 158.194 373.279 157.865 373.687 157.616C374.103 157.359 374.595 157.23 375.162 157.23C375.744 157.23 376.235 157.34 376.636 157.559C377.037 157.778 377.358 158.069 377.6 158.432C377.842 158.795 378.016 159.203 378.122 159.657C378.235 160.111 378.292 160.576 378.292 161.052C378.292 161.929 378.167 162.696 377.918 163.354C377.676 164.012 377.324 164.526 376.863 164.896C376.402 165.259 375.842 165.441 375.184 165.441ZM375.241 161.438C375.559 161.438 375.842 161.366 376.092 161.222C376.341 161.078 376.538 160.889 376.681 160.655C376.833 160.413 376.908 160.148 376.908 159.861C376.908 159.551 376.833 159.279 376.681 159.045C376.538 158.803 376.337 158.614 376.08 158.478C375.831 158.342 375.547 158.273 375.23 158.273C374.912 158.273 374.629 158.342 374.379 158.478C374.13 158.614 373.929 158.803 373.778 159.045C373.635 159.279 373.563 159.547 373.563 159.85C373.563 160.334 373.721 160.719 374.039 161.007C374.357 161.294 374.757 161.438 375.241 161.438ZM380.357 165.305V158.727L379.076 159.022V158.137L380.834 157.366H381.605V165.305H380.357ZM386.03 165.305V159.68H387.096L387.198 160.474C387.379 160.186 387.617 159.959 387.912 159.793C388.215 159.627 388.562 159.544 388.956 159.544C389.848 159.544 390.468 159.895 390.815 160.598C391.02 160.273 391.292 160.016 391.632 159.827C391.98 159.638 392.354 159.544 392.755 159.544C393.458 159.544 394.01 159.755 394.41 160.179C394.811 160.602 395.011 161.233 395.011 162.073V165.305H393.809V162.197C393.809 161.109 393.394 160.564 392.562 160.564C392.138 160.564 391.791 160.723 391.519 161.041C391.254 161.358 391.122 161.812 391.122 162.401V165.305H389.92V162.197C389.92 161.109 389.5 160.564 388.661 160.564C388.245 160.564 387.901 160.723 387.629 161.041C387.364 161.358 387.232 161.812 387.232 162.401V165.305H386.03ZM398.663 165.441C397.953 165.441 397.367 165.267 396.906 164.919C396.444 164.571 396.18 164.11 396.112 163.536H397.325C397.386 163.793 397.529 164.016 397.756 164.205C397.983 164.386 398.282 164.477 398.652 164.477C399.015 164.477 399.28 164.401 399.446 164.25C399.612 164.099 399.695 163.925 399.695 163.728C399.695 163.441 399.578 163.248 399.344 163.15C399.117 163.044 398.799 162.95 398.391 162.866C398.074 162.798 397.756 162.708 397.439 162.594C397.129 162.481 396.868 162.322 396.656 162.118C396.452 161.906 396.35 161.623 396.35 161.267C396.35 160.776 396.539 160.368 396.917 160.043C397.295 159.71 397.824 159.544 398.505 159.544C399.132 159.544 399.639 159.695 400.024 159.997C400.417 160.3 400.648 160.727 400.716 161.279H399.559C399.521 161.037 399.408 160.848 399.219 160.712C399.038 160.576 398.792 160.508 398.482 160.508C398.179 160.508 397.945 160.572 397.779 160.7C397.612 160.821 397.529 160.98 397.529 161.177C397.529 161.373 397.643 161.528 397.869 161.642C398.104 161.755 398.41 161.857 398.788 161.948C399.166 162.031 399.514 162.129 399.831 162.243C400.157 162.349 400.417 162.507 400.614 162.719C400.81 162.931 400.909 163.241 400.909 163.649C400.916 164.163 400.716 164.59 400.308 164.93C399.907 165.271 399.359 165.441 398.663 165.441Z" fill="#A3A3A3"/>
<rect width="172.111" height="41" transform="matrix(0 -1 -1 0 345 178.115)" fill="url(#paint4_linear_12265_36028)"/>
<defs>
<filter id="filter0_i_12265_36028" x="152.626" y="-256.791" width="329.82" height="816.528" filterUnits="userSpaceOnUse" color-interpolation-filters="sRGB">
<feFlood flood-opacity="0" result="BackgroundImageFix"/>
<feBlend mode="normal" in="SourceGraphic" in2="BackgroundImageFix" result="shape"/>
<feColorMatrix in="SourceAlpha" type="matrix" values="0 0 0 0 0 0 0 0 0 0 0 0 0 0 0 0 0 0 127 0" result="hardAlpha"/>
<feOffset dy="0.472527"/>
<feComposite in2="hardAlpha" operator="arithmetic" k2="-1" k3="1"/>
<feColorMatrix type="matrix" values="0 0 0 0 1 0 0 0 0 1 0 0 0 0 1 0 0 0 0.08 0"/>
<feBlend mode="normal" in2="shape" result="effect1_innerShadow_12265_36028"/>
</filter>
<filter id="filter1_i_12265_36028" x="152.626" y="-221.348" width="329.82" height="816.528" filterUnits="userSpaceOnUse" color-interpolation-filters="sRGB">
<feFlood flood-opacity="0" result="BackgroundImageFix"/>
<feBlend mode="normal" in="SourceGraphic" in2="BackgroundImageFix" result="shape"/>
<feColorMatrix in="SourceAlpha" type="matrix" values="0 0 0 0 0 0 0 0 0 0 0 0 0 0 0 0 0 0 127 0" result="hardAlpha"/>
<feOffset dy="0.472527"/>
<feComposite in2="hardAlpha" operator="arithmetic" k2="-1" k3="1"/>
<feColorMatrix type="matrix" values="0 0 0 0 1 0 0 0 0 1 0 0 0 0 1 0 0 0 0.08 0"/>
<feBlend mode="normal" in2="shape" result="effect1_innerShadow_12265_36028"/>
</filter>
<filter id="filter2_i_12265_36028" x="152.626" y="-185.921" width="329.82" height="816.528" filterUnits="userSpaceOnUse" color-interpolation-filters="sRGB">
<feFlood flood-opacity="0" result="BackgroundImageFix"/>
<feBlend mode="normal" in="SourceGraphic" in2="BackgroundImageFix" result="shape"/>
<feColorMatrix in="SourceAlpha" type="matrix" values="0 0 0 0 0 0 0 0 0 0 0 0 0 0 0 0 0 0 127 0" result="hardAlpha"/>
<feOffset dy="0.472527"/>
<feComposite in2="hardAlpha" operator="arithmetic" k2="-1" k3="1"/>
<feColorMatrix type="matrix" values="0 0 0 0 1 0 0 0 0 1 0 0 0 0 1 0 0 0 0.08 0"/>
<feBlend mode="normal" in2="shape" result="effect1_innerShadow_12265_36028"/>
</filter>
<filter id="filter3_i_12265_36028" x="152.626" y="158.62" width="195.319" height="5.67041" filterUnits="userSpaceOnUse" color-interpolation-filters="sRGB">
<feFlood flood-opacity="0" result="BackgroundImageFix"/>
<feBlend mode="normal" in="SourceGraphic" in2="BackgroundImageFix" result="shape"/>
<feColorMatrix in="SourceAlpha" type="matrix" values="0 0 0 0 0 0 0 0 0 0 0 0 0 0 0 0 0 0 127 0" result="hardAlpha"/>
<feOffset dy="0.472527"/>
<feComposite in2="hardAlpha" operator="arithmetic" k2="-1" k3="1"/>
<feColorMatrix type="matrix" values="0 0 0 0 1 0 0 0 0 1 0 0 0 0 1 0 0 0 0.08 0"/>
<feBlend mode="normal" in2="shape" result="effect1_innerShadow_12265_36028"/>
</filter>
<linearGradient id="paint0_linear_12265_36028" x1="248.786" y1="52.3069" x2="248.786" y2="57.9772" gradientUnits="userSpaceOnUse">
<stop stop-color="white" stop-opacity="0.12"/>
<stop offset="1" stop-color="white" stop-opacity="0.02"/>
</linearGradient>
<linearGradient id="paint1_linear_12265_36028" x1="248.786" y1="87.7422" x2="248.786" y2="93.4125" gradientUnits="userSpaceOnUse">
<stop stop-color="white" stop-opacity="0.12"/>
<stop offset="1" stop-color="white" stop-opacity="0.02"/>
</linearGradient>
<linearGradient id="paint2_linear_12265_36028" x1="248.786" y1="123.177" x2="248.786" y2="128.848" gradientUnits="userSpaceOnUse">
<stop stop-color="white" stop-opacity="0.12"/>
<stop offset="1" stop-color="white" stop-opacity="0.02"/>
</linearGradient>
<linearGradient id="paint3_linear_12265_36028" x1="250.286" y1="158.62" x2="250.286" y2="164.29" gradientUnits="userSpaceOnUse">
<stop stop-color="white" stop-opacity="0.12"/>
<stop offset="1" stop-color="white" stop-opacity="0.02"/>
</linearGradient>
<linearGradient id="paint4_linear_12265_36028" x1="86.0555" y1="3.31459" x2="86.0555" y2="21.6169" gradientUnits="userSpaceOnUse">
<stop/>
<stop offset="1" stop-opacity="0"/>
</linearGradient>
<clipPath id="clip0_12265_36028">
<rect width="192.319" height="29.9944" fill="white" transform="translate(152.626 40.3381)"/>
</clipPath>
<clipPath id="clip1_12265_36028">
<rect width="192.319" height="29.9944" fill="white" transform="translate(152.626 75.8281)"/>
</clipPath>
<clipPath id="clip2_12265_36028">
<rect width="192.319" height="29.9944" fill="white" transform="translate(152.626 111.318)"/>
</clipPath>
<clipPath id="clip3_12265_36028">
<rect width="195.011" height="29.9944" fill="white" transform="translate(152.626 146.808)"/>
</clipPath>
</defs>
</svg>
