<svg width="430" height="218" viewBox="0 0 430 218" fill="none" xmlns="http://www.w3.org/2000/svg">
<rect width="430" height="217.141" rx="3.78022" fill="black"/>
<path d="M70.9834 44.086C70.5222 44.086 70.0951 44.0104 69.7019 43.8592C69.3088 43.708 68.9686 43.4963 68.6813 43.2241C68.4015 42.9595 68.1974 42.6457 68.0689 42.2828L69.4524 41.7612C69.5431 42.0485 69.7208 42.2791 69.9854 42.453C70.2576 42.6344 70.5903 42.7251 70.9834 42.7251C71.2858 42.7251 71.5504 42.6684 71.7773 42.555C72.0116 42.4416 72.1931 42.2753 72.3216 42.056C72.4501 41.8443 72.5144 41.5873 72.5144 41.2849V39.8786L72.7979 40.2188C72.5862 40.5893 72.3027 40.869 71.9474 41.0581C71.592 41.2471 71.1875 41.3416 70.7339 41.3416C70.1593 41.3416 69.6452 41.2093 69.1916 40.9446C68.738 40.68 68.3826 40.3171 68.1256 39.8559C67.8685 39.3948 67.74 38.8769 67.74 38.3023C67.74 37.7201 67.8685 37.2022 68.1256 36.7486C68.3826 36.295 68.7342 35.9396 69.1802 35.6826C69.6263 35.418 70.1329 35.2857 70.6999 35.2857C71.1611 35.2857 71.5656 35.3839 71.9133 35.5805C72.2687 35.7695 72.5635 36.0455 72.7979 36.4084L72.5938 36.7826V35.4217H74V41.2849C74 41.8217 73.8677 42.3017 73.6031 42.7251C73.3461 43.1485 72.9907 43.4812 72.5371 43.7231C72.091 43.965 71.5731 44.086 70.9834 44.086ZM70.9154 39.9694C71.2329 39.9694 71.5089 39.9013 71.7432 39.7652C71.9852 39.6216 72.1742 39.425 72.3103 39.1755C72.4464 38.926 72.5144 38.6387 72.5144 38.3136C72.5144 37.9961 72.4426 37.7126 72.2989 37.4631C72.1628 37.206 71.9738 37.0057 71.7319 36.862C71.4975 36.7184 71.2253 36.6465 70.9154 36.6465C70.6054 36.6465 70.3257 36.7184 70.0762 36.862C69.8267 37.0057 69.6301 37.206 69.4864 37.4631C69.3504 37.7126 69.2823 37.9961 69.2823 38.3136C69.2823 38.6312 69.3504 38.9147 69.4864 39.1642C69.6301 39.4137 69.8229 39.6102 70.0648 39.7539C70.3143 39.8975 70.5978 39.9694 70.9154 39.9694ZM75.1607 41.5911V33.0062H76.6463V41.5911H75.1607ZM79.9913 41.7272C79.515 41.7272 79.0991 41.6213 78.7438 41.4096C78.396 41.1979 78.1276 40.9031 77.9386 40.525C77.7572 40.147 77.6664 39.7047 77.6664 39.1982V35.4217H79.1521V39.0734C79.1521 39.3305 79.2012 39.5573 79.2995 39.7539C79.4053 39.9429 79.5528 40.0941 79.7418 40.2075C79.9383 40.3134 80.1576 40.3663 80.3995 40.3663C80.6415 40.3663 80.8569 40.3134 81.0459 40.2075C81.235 40.0941 81.3824 39.9391 81.4882 39.7425C81.5941 39.546 81.647 39.3116 81.647 39.0394V35.4217H83.1326V41.5911H81.7264V40.3776L81.8511 40.5931C81.7075 40.9711 81.4693 41.2546 81.1367 41.4436C80.8116 41.6326 80.4298 41.7272 79.9913 41.7272ZM87.2127 41.7272C86.5776 41.7272 86.0219 41.5835 85.5456 41.2962C85.0693 41.0089 84.6988 40.6195 84.4342 40.1281C84.1696 39.6367 84.0373 39.0923 84.0373 38.4951C84.0373 37.8751 84.1696 37.327 84.4342 36.8507C84.7064 36.3668 85.0731 35.985 85.5343 35.7053C86.003 35.4255 86.5247 35.2857 87.0993 35.2857C87.5832 35.2857 88.0065 35.365 88.3694 35.5238C88.7399 35.6826 89.0537 35.9018 89.3107 36.1816C89.5678 36.4613 89.7643 36.7826 89.9004 37.1455C90.0365 37.5009 90.1046 37.8864 90.1046 38.3023C90.1046 38.4081 90.097 38.5177 90.0819 38.6312C90.0743 38.7446 90.0554 38.8428 90.0252 38.926H85.2621V37.7919H89.186L88.4828 38.325C88.5509 37.9772 88.532 37.6672 88.4261 37.395C88.3279 37.1228 88.1615 36.9074 87.9272 36.7486C87.7003 36.5898 87.4244 36.5104 87.0993 36.5104C86.7893 36.5104 86.5134 36.5898 86.2714 36.7486C86.0295 36.8998 85.8443 37.1266 85.7157 37.429C85.5948 37.7239 85.5494 38.083 85.5796 38.5064C85.5494 38.8844 85.5985 39.2209 85.7271 39.5157C85.8632 39.803 86.0597 40.0261 86.3168 40.1848C86.5814 40.3436 86.8838 40.423 87.224 40.423C87.5643 40.423 87.8516 40.3512 88.0859 40.2075C88.3279 40.0639 88.5169 39.8711 88.653 39.6291L89.8551 40.2188C89.7341 40.5137 89.5451 40.7745 89.288 41.0014C89.031 41.2282 88.7248 41.4058 88.3694 41.5344C88.0217 41.6629 87.6361 41.7272 87.2127 41.7272ZM93.3514 41.7272C92.6937 41.7272 92.1191 41.5722 91.6277 41.2622C91.1438 40.9446 90.8111 40.5175 90.6297 39.9807L91.7411 39.4477C91.8998 39.7955 92.1191 40.0676 92.3988 40.2642C92.6861 40.4608 93.0037 40.5591 93.3514 40.5591C93.6236 40.5591 93.8391 40.4986 93.9979 40.3776C94.1566 40.2566 94.236 40.0979 94.236 39.9013C94.236 39.7803 94.202 39.6821 94.134 39.6064C94.0735 39.5233 93.9865 39.4552 93.8731 39.4023C93.7673 39.3418 93.6501 39.2927 93.5216 39.2549L92.5122 38.9714C91.9906 38.8202 91.5936 38.5896 91.3215 38.2796C91.0569 37.9696 90.9245 37.6029 90.9245 37.1795C90.9245 36.8015 91.0191 36.4726 91.2081 36.1929C91.4046 35.9056 91.673 35.6826 92.0132 35.5238C92.361 35.365 92.758 35.2857 93.204 35.2857C93.7862 35.2857 94.3003 35.4255 94.7463 35.7053C95.1924 35.985 95.51 36.3781 95.699 36.8847L94.5649 37.4177C94.4591 37.138 94.2814 36.9149 94.0319 36.7486C93.7824 36.5823 93.5027 36.4991 93.1927 36.4991C92.9432 36.4991 92.7466 36.5558 92.603 36.6692C92.4593 36.7826 92.3875 36.9301 92.3875 37.1115C92.3875 37.2249 92.4177 37.3232 92.4782 37.4064C92.5387 37.4895 92.6219 37.5576 92.7277 37.6105C92.8411 37.6634 92.9696 37.7126 93.1133 37.7579L94.0999 38.0528C94.6065 38.204 94.9958 38.4308 95.268 38.7332C95.5478 39.0356 95.6876 39.4061 95.6876 39.8446C95.6876 40.2151 95.5893 40.5439 95.3928 40.8312C95.1962 41.111 94.924 41.3302 94.5762 41.489C94.2285 41.6478 93.8202 41.7272 93.3514 41.7272ZM99.415 41.6591C98.7194 41.6591 98.1788 41.4701 97.7933 41.0921C97.4152 40.7065 97.2262 40.1659 97.2262 39.4704V36.7486H96.1602V35.4217H96.2736C96.576 35.4217 96.8104 35.3424 96.9767 35.1836C97.1431 35.0248 97.2262 34.7942 97.2262 34.4918V34.0155H98.7119V35.4217H100.129V36.7486H98.7119V39.391C98.7119 39.5951 98.7459 39.769 98.8139 39.9126C98.8895 40.0563 99.0029 40.1659 99.1541 40.2415C99.3129 40.3171 99.5133 40.3549 99.7552 40.3549C99.8081 40.3549 99.8686 40.3512 99.9366 40.3436C100.012 40.336 100.084 40.3285 100.152 40.3209V41.5911C100.046 41.6062 99.9253 41.6213 99.7892 41.6364C99.6531 41.6515 99.5284 41.6591 99.415 41.6591ZM102.909 41.7272C102.478 41.7272 102.104 41.6553 101.787 41.5117C101.469 41.368 101.223 41.1639 101.05 40.8993C100.876 40.6271 100.789 40.3134 100.789 39.958C100.789 39.6178 100.864 39.3154 101.016 39.0508C101.167 38.7786 101.401 38.5518 101.719 38.3703C102.036 38.1889 102.437 38.0603 102.921 37.9847L104.939 37.6559V38.7899L103.204 39.0848C102.909 39.1377 102.69 39.2322 102.547 39.3683C102.403 39.5044 102.331 39.6821 102.331 39.9013C102.331 40.113 102.41 40.2831 102.569 40.4116C102.736 40.5326 102.94 40.5931 103.182 40.5931C103.492 40.5931 103.764 40.5288 103.998 40.4003C104.24 40.2642 104.425 40.079 104.554 39.8446C104.69 39.6102 104.758 39.3532 104.758 39.0734V37.4857C104.758 37.2211 104.652 37.0019 104.44 36.828C104.236 36.6465 103.964 36.5558 103.624 36.5558C103.306 36.5558 103.023 36.6428 102.773 36.8166C102.531 36.983 102.354 37.206 102.24 37.4857L101.027 36.896C101.148 36.5709 101.337 36.2912 101.594 36.0568C101.859 35.8149 102.168 35.6259 102.524 35.4898C102.879 35.3537 103.265 35.2857 103.681 35.2857C104.187 35.2857 104.633 35.3802 105.019 35.5692C105.404 35.7506 105.703 36.0077 105.915 36.3403C106.134 36.6654 106.244 37.0472 106.244 37.4857V41.5911H104.837V40.5364L105.155 40.5137C104.996 40.7783 104.807 41.0014 104.588 41.1828C104.369 41.3567 104.119 41.4928 103.839 41.5911C103.56 41.6818 103.25 41.7272 102.909 41.7272ZM110.361 41.7272C109.749 41.7272 109.197 41.5873 108.705 41.3075C108.222 41.0203 107.84 40.6347 107.56 40.1508C107.28 39.6594 107.14 39.1075 107.14 38.4951C107.14 37.8827 107.28 37.3345 107.56 36.8507C107.84 36.3668 108.222 35.985 108.705 35.7053C109.197 35.4255 109.749 35.2857 110.361 35.2857C110.8 35.2857 111.208 35.365 111.586 35.5238C111.964 35.675 112.289 35.8867 112.561 36.1589C112.841 36.4235 113.041 36.741 113.162 37.1115L111.858 37.6785C111.745 37.3686 111.552 37.1191 111.28 36.9301C111.015 36.741 110.709 36.6465 110.361 36.6465C110.036 36.6465 109.745 36.7259 109.488 36.8847C109.238 37.0435 109.042 37.2627 108.898 37.5424C108.755 37.8222 108.683 38.1435 108.683 38.5064C108.683 38.8693 108.755 39.1906 108.898 39.4704C109.042 39.7501 109.238 39.9694 109.488 40.1281C109.745 40.2869 110.036 40.3663 110.361 40.3663C110.716 40.3663 111.026 40.2718 111.291 40.0828C111.556 39.8937 111.745 39.6405 111.858 39.3229L113.162 39.9126C113.041 40.2604 112.845 40.5742 112.573 40.8539C112.3 41.1261 111.975 41.3416 111.597 41.5003C111.219 41.6515 110.807 41.7272 110.361 41.7272ZM114.063 41.5911V33.0062H115.548V38.6312L114.981 38.461L117.884 35.4217H119.733L117.454 37.9054L119.778 41.5911H118.077L116.059 38.393L116.943 38.2115L115.083 40.2075L115.548 39.3003V41.5911H114.063ZM120.687 39.1642V37.86H125.507V39.1642H120.687ZM129.154 41.7272C128.678 41.7272 128.262 41.6213 127.907 41.4096C127.559 41.1979 127.291 40.9031 127.102 40.525C126.92 40.147 126.83 39.7047 126.83 39.1982V35.4217H128.315V39.0734C128.315 39.3305 128.364 39.5573 128.463 39.7539C128.568 39.9429 128.716 40.0941 128.905 40.2075C129.101 40.3134 129.321 40.3663 129.563 40.3663C129.805 40.3663 130.02 40.3134 130.209 40.2075C130.398 40.0941 130.545 39.9391 130.651 39.7425C130.757 39.546 130.81 39.3116 130.81 39.0394V35.4217H132.296V41.5911H130.889V40.3776L131.014 40.5931C130.871 40.9711 130.632 41.2546 130.3 41.4436C129.975 41.6326 129.593 41.7272 129.154 41.7272ZM133.45 41.5911V35.4217H134.936V41.5911H133.45ZM133.45 34.73V33.1423H134.936V34.73H133.45Z" fill="#FAFAFA"/>
<g clipPath="url(#clip0_12265_35890)">
<g filter="url(#filter0_i_12265_35890)">
<rect x="152.626" y="34.5627" width="192.319" height="5.67033" rx="2.83516" fill="url(#paint0_linear_12265_35890)"/>
<rect x="152.863" y="34.799" width="191.846" height="5.1978" rx="2.5989" stroke="white" stroke-opacity="0.04" strokeWidth="0.472527"/>
</g>
<path d="M152.626 37.4682C152.626 35.9024 153.896 34.6331 155.462 34.6331H277.374V40.3034H155.462C153.896 40.3034 152.626 39.034 152.626 37.4682Z" fill="#0177E5"/>
</g>
<path d="M363.578 41.0911V34.5135L362.296 34.8083V33.9238L364.054 33.1526H364.825V41.0911H363.578ZM369.205 41.2272C368.646 41.2272 368.162 41.1289 367.754 40.9323C367.345 40.7282 367.02 40.4522 366.778 40.1044C366.544 39.7491 366.4 39.3484 366.347 38.9023H367.527C367.602 39.2803 367.791 39.5941 368.094 39.8436C368.396 40.0855 368.77 40.2065 369.217 40.2065C369.549 40.2065 369.837 40.1271 370.078 39.9683C370.32 39.802 370.509 39.5828 370.645 39.3106C370.782 39.0384 370.85 38.7322 370.85 38.392C370.85 37.8552 370.698 37.428 370.396 37.1105C370.094 36.7854 369.712 36.6228 369.251 36.6228C368.857 36.6228 368.521 36.7173 368.241 36.9064C367.962 37.0878 367.757 37.3184 367.629 37.5981H366.483L367.164 33.1526H371.451V34.2073H368.071L367.663 36.328C367.837 36.1314 368.075 35.9689 368.377 35.8403C368.687 35.7043 369.035 35.6362 369.421 35.6362C369.957 35.6362 370.419 35.761 370.804 36.0104C371.19 36.2524 371.485 36.5813 371.689 36.9971C371.901 37.4129 372.006 37.8741 372.006 38.3806C372.006 38.9099 371.893 39.39 371.666 39.8209C371.439 40.2519 371.114 40.5959 370.691 40.8529C370.275 41.1024 369.78 41.2272 369.205 41.2272ZM375.967 41.2272C375.453 41.2272 374.984 41.1364 374.56 40.955C374.145 40.766 373.812 40.4824 373.562 40.1044C373.313 39.7264 373.181 39.2539 373.165 38.6868H374.356C374.371 39.1102 374.515 39.4694 374.787 39.7642C375.067 40.0515 375.46 40.1952 375.967 40.1952C376.451 40.1952 376.821 40.0628 377.078 39.7982C377.335 39.5261 377.464 39.1896 377.464 38.7889C377.464 38.305 377.29 37.9459 376.942 37.7115C376.602 37.4772 376.182 37.36 375.683 37.36H375.093V36.362H375.694C376.141 36.362 376.5 36.2562 376.772 36.0445C377.052 35.8328 377.191 35.5341 377.191 35.1486C377.191 34.8235 377.082 34.5588 376.863 34.3547C376.651 34.1506 376.348 34.0485 375.955 34.0485C375.547 34.0485 375.226 34.1695 374.991 34.4114C374.757 34.6458 374.628 34.9406 374.606 35.296H373.415C373.43 34.8348 373.544 34.4341 373.755 34.0939C373.974 33.7537 374.273 33.489 374.651 33.3C375.029 33.111 375.464 33.0165 375.955 33.0165C376.485 33.0165 376.927 33.111 377.282 33.3C377.645 33.4815 377.917 33.731 378.099 34.0485C378.288 34.3585 378.382 34.6987 378.382 35.0692C378.382 35.4926 378.265 35.863 378.031 36.1806C377.796 36.4981 377.483 36.7098 377.089 36.8156C377.543 36.9139 377.917 37.137 378.212 37.4847C378.507 37.825 378.654 38.2672 378.654 38.8116C378.654 39.2501 378.552 39.6546 378.348 40.025C378.144 40.3879 377.842 40.679 377.441 40.8983C377.04 41.1175 376.549 41.2272 375.967 41.2272ZM382.95 41.0911V35.4661H384.016L384.118 36.2599C384.299 35.9726 384.537 35.7458 384.832 35.5795C385.135 35.4132 385.482 35.33 385.876 35.33C386.768 35.33 387.388 35.6816 387.735 36.3847C387.94 36.0596 388.212 35.8025 388.552 35.6135C388.9 35.4245 389.274 35.33 389.675 35.33C390.378 35.33 390.93 35.5417 391.33 35.9651C391.731 36.3885 391.931 37.0198 391.931 37.859V41.0911H390.729V37.9837C390.729 36.895 390.314 36.3507 389.482 36.3507C389.058 36.3507 388.711 36.5094 388.439 36.827C388.174 37.1445 388.042 37.5981 388.042 38.1879V41.0911H386.839V37.9837C386.839 36.895 386.42 36.3507 385.581 36.3507C385.165 36.3507 384.821 36.5094 384.549 36.827C384.284 37.1445 384.152 37.5981 384.152 38.1879V41.0911H382.95ZM395.583 41.2272C394.873 41.2272 394.287 41.0533 393.826 40.7055C393.364 40.3577 393.1 39.8965 393.032 39.3219H394.245C394.306 39.579 394.449 39.802 394.676 39.991C394.903 40.1725 395.202 40.2632 395.572 40.2632C395.935 40.2632 396.199 40.1876 396.366 40.0364C396.532 39.8852 396.615 39.7113 396.615 39.5147C396.615 39.2274 396.498 39.0346 396.264 38.9363C396.037 38.8305 395.719 38.736 395.311 38.6528C394.994 38.5848 394.676 38.4941 394.359 38.3806C394.049 38.2672 393.788 38.1085 393.576 37.9043C393.372 37.6926 393.27 37.4091 393.27 37.0538C393.27 36.5624 393.459 36.1541 393.837 35.829C394.215 35.4963 394.744 35.33 395.425 35.33C396.052 35.33 396.559 35.4812 396.944 35.7836C397.337 36.0861 397.568 36.5132 397.636 37.0651H396.479C396.441 36.8232 396.328 36.6342 396.139 36.4981C395.958 36.362 395.712 36.294 395.402 36.294C395.099 36.294 394.865 36.3582 394.699 36.4868C394.532 36.6077 394.449 36.7665 394.449 36.9631C394.449 37.1596 394.563 37.3146 394.789 37.428C395.024 37.5414 395.33 37.6435 395.708 37.7342C396.086 37.8174 396.434 37.9157 396.751 38.0291C397.077 38.1349 397.337 38.2937 397.534 38.5054C397.73 38.7171 397.829 39.0271 397.829 39.4353C397.836 39.9494 397.636 40.3766 397.228 40.7168C396.827 41.057 396.279 41.2272 395.583 41.2272Z" fill="#A3A3A3"/>
<path d="M69.0002 77.0808V68.632H72.1416C72.7162 68.632 73.2227 68.7379 73.6612 68.9496C74.1073 69.1537 74.4551 69.4561 74.7046 69.8568C74.9541 70.25 75.0788 70.73 75.0788 71.2971C75.0788 71.8792 74.9389 72.3744 74.6592 72.7827C74.387 73.191 74.0166 73.4934 73.5478 73.69L75.4871 77.0808H73.7406L71.6653 73.3724L72.6632 73.9621H70.5425V77.0808H69.0002ZM70.5425 72.6013H72.1643C72.444 72.6013 72.6859 72.5483 72.8901 72.4425C73.0942 72.3291 73.253 72.1741 73.3664 71.9775C73.4798 71.7809 73.5365 71.5541 73.5365 71.2971C73.5365 71.0325 73.4798 70.8056 73.3664 70.6166C73.253 70.4201 73.0942 70.2689 72.8901 70.163C72.6859 70.0496 72.444 69.9929 72.1643 69.9929H70.5425V72.6013ZM78.7289 77.2169C78.0938 77.2169 77.5381 77.0733 77.0618 76.786C76.5855 76.4987 76.2151 76.1093 75.9504 75.6179C75.6858 75.1264 75.5535 74.5821 75.5535 73.9848C75.5535 73.3649 75.6858 72.8167 75.9504 72.3404C76.2226 71.8565 76.5893 71.4747 77.0505 71.195C77.5192 70.9153 78.0409 70.7754 78.6155 70.7754C79.0994 70.7754 79.5227 70.8548 79.8857 71.0136C80.2561 71.1723 80.5699 71.3916 80.8269 71.6713C81.084 71.9511 81.2806 72.2724 81.4166 72.6353C81.5527 72.9906 81.6208 73.3762 81.6208 73.792C81.6208 73.8979 81.6132 74.0075 81.5981 74.1209C81.5905 74.2343 81.5716 74.3326 81.5414 74.4158H76.7783V73.2817H80.7022L79.9991 73.8147C80.0671 73.4669 80.0482 73.1569 79.9424 72.8848C79.8441 72.6126 79.6777 72.3971 79.4434 72.2383C79.2166 72.0796 78.9406 72.0002 78.6155 72.0002C78.3055 72.0002 78.0296 72.0796 77.7876 72.2383C77.5457 72.3896 77.3605 72.6164 77.2319 72.9188C77.111 73.2136 77.0656 73.5728 77.0958 73.9962C77.0656 74.3742 77.1147 74.7106 77.2433 75.0055C77.3794 75.2928 77.5759 75.5158 77.833 75.6746C78.0976 75.8333 78.4 75.9127 78.7402 75.9127C79.0805 75.9127 79.3678 75.8409 79.6021 75.6973C79.8441 75.5536 80.0331 75.3608 80.1692 75.1189L81.3713 75.7086C81.2503 76.0034 81.0613 76.2643 80.8042 76.4911C80.5472 76.7179 80.241 76.8956 79.8857 77.0241C79.5379 77.1526 79.1523 77.2169 78.7289 77.2169ZM84.3692 77.2169C83.9383 77.2169 83.564 77.1451 83.2465 77.0014C82.9289 76.8578 82.6832 76.6536 82.5093 76.389C82.3354 76.1169 82.2485 75.8031 82.2485 75.4478C82.2485 75.1075 82.3241 74.8051 82.4753 74.5405C82.6265 74.2683 82.8609 74.0415 83.1784 73.8601C83.496 73.6786 83.8967 73.5501 84.3805 73.4745L86.3992 73.1456V74.2797L84.6641 74.5745C84.3692 74.6274 84.1499 74.722 84.0063 74.858C83.8626 74.9941 83.7908 75.1718 83.7908 75.3911C83.7908 75.6027 83.8702 75.7729 84.029 75.9014C84.1953 76.0223 84.3994 76.0828 84.6414 76.0828C84.9514 76.0828 85.2235 76.0186 85.4579 75.89C85.6998 75.754 85.8851 75.5687 86.0136 75.3343C86.1497 75.1 86.2177 74.8429 86.2177 74.5632V72.9755C86.2177 72.7109 86.1119 72.4916 85.9002 72.3177C85.6961 72.1363 85.4239 72.0456 85.0837 72.0456C84.7661 72.0456 84.4826 72.1325 84.2331 72.3064C83.9912 72.4727 83.8135 72.6958 83.7001 72.9755L82.4866 72.3858C82.6076 72.0607 82.7966 71.7809 83.0537 71.5466C83.3183 71.3046 83.6283 71.1156 83.9836 70.9795C84.339 70.8434 84.7245 70.7754 85.1404 70.7754C85.6469 70.7754 86.093 70.8699 86.4786 71.0589C86.8641 71.2404 87.1628 71.4974 87.3745 71.8301C87.5937 72.1552 87.7034 72.537 87.7034 72.9755V77.0808H86.2971V76.0261L86.6146 76.0034C86.4559 76.2681 86.2669 76.4911 86.0476 76.6725C85.8284 76.8464 85.5789 76.9825 85.2991 77.0808C85.0194 77.1715 84.7094 77.2169 84.3692 77.2169ZM91.8209 77.2169C91.2085 77.2169 90.6566 77.077 90.1652 76.7973C89.6813 76.51 89.2995 76.1244 89.0198 75.6405C88.74 75.1491 88.6001 74.5972 88.6001 73.9848C88.6001 73.3724 88.74 72.8243 89.0198 72.3404C89.2995 71.8565 89.6813 71.4747 90.1652 71.195C90.6566 70.9153 91.2085 70.7754 91.8209 70.7754C92.2594 70.7754 92.6677 70.8548 93.0457 71.0136C93.4237 71.1648 93.7488 71.3765 94.021 71.6486C94.3007 71.9132 94.5011 72.2308 94.622 72.6013L93.3179 73.1683C93.2045 72.8583 93.0117 72.6088 92.7395 72.4198C92.4749 72.2308 92.1687 72.1363 91.8209 72.1363C91.4958 72.1363 91.2047 72.2157 90.9477 72.3744C90.6982 72.5332 90.5016 72.7525 90.358 73.0322C90.2143 73.3119 90.1425 73.6332 90.1425 73.9962C90.1425 74.3591 90.2143 74.6804 90.358 74.9601C90.5016 75.2398 90.6982 75.4591 90.9477 75.6179C91.2047 75.7766 91.4958 75.856 91.8209 75.856C92.1762 75.856 92.4862 75.7615 92.7508 75.5725C93.0154 75.3835 93.2045 75.1302 93.3179 74.8127L94.622 75.4024C94.5011 75.7502 94.3045 76.0639 94.0323 76.3437C93.7601 76.6158 93.4351 76.8313 93.057 76.9901C92.679 77.1413 92.267 77.2169 91.8209 77.2169ZM98.335 77.1489C97.6394 77.1489 97.0988 76.9598 96.7132 76.5818C96.3352 76.1962 96.1462 75.6557 96.1462 74.9601V72.2383H95.0802V70.9115H95.1936C95.496 70.9115 95.7304 70.8321 95.8967 70.6733C96.063 70.5146 96.1462 70.284 96.1462 69.9816V69.5052H97.6318V70.9115H99.0494V72.2383H97.6318V74.8807C97.6318 75.0849 97.6659 75.2587 97.7339 75.4024C97.8095 75.546 97.9229 75.6557 98.0741 75.7313C98.2329 75.8069 98.4332 75.8447 98.6752 75.8447C98.7281 75.8447 98.7886 75.8409 98.8566 75.8333C98.9322 75.8258 99.0041 75.8182 99.0721 75.8107V77.0808C98.9662 77.0959 98.8453 77.1111 98.7092 77.1262C98.5731 77.1413 98.4484 77.1489 98.335 77.1489ZM101.894 77.0808V68.632H103.096L107.746 74.8921L107.122 75.0168V68.632H108.664V77.0808H107.451L102.869 70.7754L103.436 70.6507V77.0808H101.894ZM111.819 77.2169C111.388 77.2169 111.014 77.1451 110.697 77.0014C110.379 76.8578 110.133 76.6536 109.959 76.389C109.786 76.1169 109.699 75.8031 109.699 75.4478C109.699 75.1075 109.774 74.8051 109.925 74.5405C110.077 74.2683 110.311 74.0415 110.629 73.8601C110.946 73.6786 111.347 73.5501 111.831 73.4745L113.849 73.1456V74.2797L112.114 74.5745C111.819 74.6274 111.6 74.722 111.456 74.858C111.313 74.9941 111.241 75.1718 111.241 75.3911C111.241 75.6027 111.32 75.7729 111.479 75.9014C111.645 76.0223 111.85 76.0828 112.092 76.0828C112.402 76.0828 112.674 76.0186 112.908 75.89C113.15 75.754 113.335 75.5687 113.464 75.3343C113.6 75.1 113.668 74.8429 113.668 74.5632V72.9755C113.668 72.7109 113.562 72.4916 113.35 72.3177C113.146 72.1363 112.874 72.0456 112.534 72.0456C112.216 72.0456 111.933 72.1325 111.683 72.3064C111.441 72.4727 111.264 72.6958 111.15 72.9755L109.937 72.3858C110.058 72.0607 110.247 71.7809 110.504 71.5466C110.768 71.3046 111.078 71.1156 111.434 70.9795C111.789 70.8434 112.175 70.7754 112.591 70.7754C113.097 70.7754 113.543 70.8699 113.929 71.0589C114.314 71.2404 114.613 71.4974 114.825 71.8301C115.044 72.1552 115.154 72.537 115.154 72.9755V77.0808H113.747V76.0261L114.065 76.0034C113.906 76.2681 113.717 76.4911 113.498 76.6725C113.279 76.8464 113.029 76.9825 112.749 77.0808C112.47 77.1715 112.16 77.2169 111.819 77.2169ZM119.002 77.1489C118.306 77.1489 117.765 76.9598 117.38 76.5818C117.002 76.1962 116.813 75.6557 116.813 74.9601V72.2383H115.747V70.9115H115.86C116.163 70.9115 116.397 70.8321 116.563 70.6733C116.73 70.5146 116.813 70.284 116.813 69.9816V69.5052H118.298V70.9115H119.716V72.2383H118.298V74.8807C118.298 75.0849 118.332 75.2587 118.4 75.4024C118.476 75.546 118.589 75.6557 118.741 75.7313C118.899 75.8069 119.1 75.8447 119.342 75.8447C119.395 75.8447 119.455 75.8409 119.523 75.8333C119.599 75.8258 119.671 75.8182 119.739 75.8107V77.0808C119.633 77.0959 119.512 77.1111 119.376 77.1262C119.24 77.1413 119.115 77.1489 119.002 77.1489ZM120.647 77.0808V70.9115H122.133V77.0808H120.647ZM120.647 70.2197V68.632H122.133V70.2197H120.647ZM125.137 77.0808L122.71 70.9115H124.332L126.09 75.7653H125.489L127.258 70.9115H128.88L126.453 77.0808H125.137ZM132.289 77.2169C131.654 77.2169 131.098 77.0733 130.622 76.786C130.146 76.4987 129.775 76.1093 129.511 75.6179C129.246 75.1264 129.114 74.5821 129.114 73.9848C129.114 73.3649 129.246 72.8167 129.511 72.3404C129.783 71.8565 130.15 71.4747 130.611 71.195C131.079 70.9153 131.601 70.7754 132.176 70.7754C132.66 70.7754 133.083 70.8548 133.446 71.0136C133.816 71.1723 134.13 71.3916 134.387 71.6713C134.644 71.9511 134.841 72.2724 134.977 72.6353C135.113 72.9906 135.181 73.3762 135.181 73.792C135.181 73.8979 135.173 74.0075 135.158 74.1209C135.151 74.2343 135.132 74.3326 135.102 74.4158H130.339V73.2817H134.262L133.559 73.8147C133.627 73.4669 133.608 73.1569 133.503 72.8848C133.404 72.6126 133.238 72.3971 133.004 72.2383C132.777 72.0796 132.501 72.0002 132.176 72.0002C131.866 72.0002 131.59 72.0796 131.348 72.2383C131.106 72.3896 130.921 72.6164 130.792 72.9188C130.671 73.2136 130.626 73.5728 130.656 73.9962C130.626 74.3742 130.675 74.7106 130.804 75.0055C130.94 75.2928 131.136 75.5158 131.393 75.6746C131.658 75.8333 131.96 75.9127 132.3 75.9127C132.641 75.9127 132.928 75.8409 133.162 75.6973C133.404 75.5536 133.593 75.3608 133.729 75.1189L134.932 75.7086C134.811 76.0034 134.622 76.2643 134.364 76.4911C134.107 76.7179 133.801 76.8956 133.446 77.0241C133.098 77.1526 132.713 77.2169 132.289 77.2169Z" fill="#FAFAFA"/>
<g clipPath="url(#clip1_12265_35890)">
<g filter="url(#filter1_i_12265_35890)">
<rect x="152.626" y="69.9978" width="192.319" height="5.67033" rx="2.83516" fill="url(#paint1_linear_12265_35890)"/>
<rect x="152.863" y="70.2341" width="191.846" height="5.1978" rx="2.5989" stroke="white" stroke-opacity="0.04" strokeWidth="0.472527"/>
</g>
<path d="M152.626 72.958C152.626 71.3921 153.896 70.1228 155.462 70.1228H212.637V75.7931H155.462C153.896 75.7931 152.626 74.5238 152.626 72.958Z" fill="#61DAFB"/>
</g>
<path d="M363.317 76.5808L366.39 69.6743H362.262V68.6423H367.626V69.5156L364.576 76.5808H363.317ZM371.523 76.7169C370.941 76.7169 370.45 76.6073 370.049 76.388C369.648 76.1688 369.323 75.8777 369.074 75.5148C368.832 75.1519 368.658 74.7436 368.552 74.29C368.446 73.8364 368.393 73.3714 368.393 72.8951C368.393 72.0181 368.514 71.2507 368.756 70.5929C369.006 69.9352 369.361 69.4249 369.822 69.062C370.283 68.6915 370.843 68.5063 371.501 68.5063C372.022 68.5063 372.468 68.6083 372.839 68.8125C373.209 69.0166 373.497 69.2888 373.701 69.629C373.912 69.9692 374.041 70.3397 374.086 70.7404H372.964C372.896 70.3472 372.733 70.0448 372.476 69.8331C372.219 69.6214 371.89 69.5156 371.489 69.5156C370.937 69.5156 370.48 69.7764 370.117 70.2981C369.762 70.8122 369.573 71.606 369.55 72.6796C369.731 72.347 370.011 72.0634 370.389 71.8291C370.775 71.5947 371.217 71.4775 371.716 71.4775C372.162 71.4775 372.578 71.5834 372.964 71.7951C373.357 72.0067 373.674 72.3054 373.916 72.691C374.166 73.069 374.29 73.5188 374.29 74.0405C374.29 74.5017 374.177 74.9364 373.95 75.3447C373.723 75.7529 373.402 76.0856 372.986 76.3427C372.578 76.5922 372.09 76.7169 371.523 76.7169ZM371.455 75.6736C371.773 75.6736 372.056 75.6055 372.306 75.4694C372.555 75.3333 372.752 75.1481 372.896 74.9137C373.039 74.6718 373.111 74.3996 373.111 74.0972C373.111 73.6133 372.952 73.2278 372.635 72.9405C372.325 72.6532 371.928 72.5095 371.444 72.5095C371.126 72.5095 370.839 72.5813 370.582 72.725C370.333 72.8686 370.136 73.0614 369.992 73.3034C369.849 73.5377 369.777 73.7986 369.777 74.0859C369.777 74.3958 369.849 74.6718 369.992 74.9137C370.144 75.1481 370.344 75.3333 370.593 75.4694C370.85 75.6055 371.138 75.6736 371.455 75.6736ZM378.586 76.5808V70.9558H379.652L379.754 71.7497C379.936 71.4624 380.174 71.2356 380.469 71.0692C380.771 70.9029 381.119 70.8198 381.512 70.8198C382.404 70.8198 383.024 71.1713 383.372 71.8744C383.576 71.5493 383.848 71.2923 384.188 71.1033C384.536 70.9143 384.91 70.8198 385.311 70.8198C386.014 70.8198 386.566 71.0314 386.967 71.4548C387.368 71.8782 387.568 72.5095 387.568 73.3487V76.5808H386.366V73.4735C386.366 72.3848 385.95 71.8404 385.118 71.8404C384.695 71.8404 384.347 71.9992 384.075 72.3167C383.81 72.6343 383.678 73.0879 383.678 73.6776V76.5808H382.476V73.4735C382.476 72.3848 382.056 71.8404 381.217 71.8404C380.801 71.8404 380.457 71.9992 380.185 72.3167C379.921 72.6343 379.788 73.0879 379.788 73.6776V76.5808H378.586ZM391.22 76.7169C390.509 76.7169 389.923 76.543 389.462 76.1952C389.001 75.8474 388.736 75.3863 388.668 74.8117H389.882C389.942 75.0687 390.086 75.2918 390.313 75.4808C390.539 75.6622 390.838 75.7529 391.208 75.7529C391.571 75.7529 391.836 75.6773 392.002 75.5261C392.169 75.3749 392.252 75.201 392.252 75.0045C392.252 74.7172 392.135 74.5244 391.9 74.4261C391.673 74.3202 391.356 74.2257 390.948 74.1426C390.63 74.0745 390.313 73.9838 389.995 73.8704C389.685 73.757 389.424 73.5982 389.213 73.3941C389.008 73.1824 388.906 72.8989 388.906 72.5435C388.906 72.0521 389.095 71.6438 389.473 71.3187C389.851 70.9861 390.381 70.8198 391.061 70.8198C391.689 70.8198 392.195 70.971 392.581 71.2734C392.974 71.5758 393.204 72.003 393.272 72.5549H392.116C392.078 72.3129 391.965 72.1239 391.776 71.9878C391.594 71.8518 391.348 71.7837 391.038 71.7837C390.736 71.7837 390.502 71.848 390.335 71.9765C390.169 72.0975 390.086 72.2562 390.086 72.4528C390.086 72.6494 390.199 72.8044 390.426 72.9178C390.66 73.0312 390.967 73.1332 391.345 73.224C391.723 73.3071 392.07 73.4054 392.388 73.5188C392.713 73.6247 392.974 73.7834 393.17 73.9951C393.367 74.2068 393.465 74.5168 393.465 74.9251C393.473 75.4392 393.272 75.8663 392.864 76.2066C392.464 76.5468 391.915 76.7169 391.22 76.7169Z" fill="#A3A3A3"/>
<path d="M93.2073 112.571V105.483H91.0185V104.122H96.9157V105.483H94.761V112.571H93.2073ZM98.701 112.707C98.27 112.707 97.8958 112.635 97.5782 112.491C97.2607 112.348 97.015 112.143 96.8411 111.879C96.6672 111.607 96.5803 111.293 96.5803 110.938C96.5803 110.597 96.6559 110.295 96.8071 110.03C96.9583 109.758 97.1927 109.531 97.5102 109.35C97.8277 109.168 98.2284 109.04 98.7123 108.964L100.731 108.635V109.769L98.9958 110.064C98.701 110.117 98.4817 110.212 98.3381 110.348C98.1944 110.484 98.1226 110.662 98.1226 110.881C98.1226 111.092 98.202 111.263 98.3607 111.391C98.5271 111.512 98.7312 111.573 98.9731 111.573C99.2831 111.573 99.5553 111.508 99.7897 111.38C100.032 111.244 100.217 111.058 100.345 110.824C100.481 110.59 100.549 110.333 100.549 110.053V108.465C100.549 108.201 100.444 107.981 100.232 107.807C100.028 107.626 99.7556 107.535 99.4154 107.535C99.0979 107.535 98.8144 107.622 98.5649 107.796C98.3229 107.962 98.1453 108.186 98.0319 108.465L96.8184 107.876C96.9394 107.55 97.1284 107.271 97.3854 107.036C97.6501 106.794 97.96 106.605 98.3154 106.469C98.6707 106.333 99.0563 106.265 99.4721 106.265C99.9787 106.265 100.425 106.36 100.81 106.549C101.196 106.73 101.495 106.987 101.706 107.32C101.925 107.645 102.035 108.027 102.035 108.465V112.571H100.629V111.516L100.946 111.493C100.788 111.758 100.599 111.981 100.379 112.162C100.16 112.336 99.9106 112.472 99.6309 112.571C99.3512 112.661 99.0412 112.707 98.701 112.707ZM103.181 112.571V106.401H104.576V107.83L104.418 107.592C104.531 107.146 104.758 106.813 105.098 106.594C105.438 106.375 105.839 106.265 106.3 106.265C106.807 106.265 107.253 106.397 107.638 106.662C108.024 106.927 108.273 107.274 108.387 107.705L107.967 107.739C108.156 107.248 108.44 106.881 108.818 106.639C109.196 106.39 109.63 106.265 110.122 106.265C110.56 106.265 110.95 106.363 111.29 106.56C111.638 106.757 111.91 107.033 112.107 107.388C112.303 107.736 112.401 108.14 112.401 108.601V112.571H110.916V108.953C110.916 108.681 110.867 108.446 110.768 108.25C110.67 108.053 110.534 107.902 110.36 107.796C110.186 107.683 109.974 107.626 109.725 107.626C109.491 107.626 109.283 107.683 109.101 107.796C108.92 107.902 108.78 108.053 108.682 108.25C108.583 108.446 108.534 108.681 108.534 108.953V112.571H107.049V108.953C107.049 108.681 106.999 108.446 106.901 108.25C106.803 108.053 106.663 107.902 106.482 107.796C106.308 107.683 106.1 107.626 105.858 107.626C105.623 107.626 105.416 107.683 105.234 107.796C105.053 107.902 104.913 108.053 104.814 108.25C104.716 108.446 104.667 108.681 104.667 108.953V112.571H103.181ZM115.303 112.707C114.872 112.707 114.497 112.635 114.18 112.491C113.862 112.348 113.617 112.143 113.443 111.879C113.269 111.607 113.182 111.293 113.182 110.938C113.182 110.597 113.258 110.295 113.409 110.03C113.56 109.758 113.794 109.531 114.112 109.35C114.429 109.168 114.83 109.04 115.314 108.964L117.333 108.635V109.769L115.597 110.064C115.303 110.117 115.083 110.212 114.94 110.348C114.796 110.484 114.724 110.662 114.724 110.881C114.724 111.092 114.804 111.263 114.962 111.391C115.129 111.512 115.333 111.573 115.575 111.573C115.885 111.573 116.157 111.508 116.391 111.38C116.633 111.244 116.818 111.058 116.947 110.824C117.083 110.59 117.151 110.333 117.151 110.053V108.465C117.151 108.201 117.045 107.981 116.834 107.807C116.629 107.626 116.357 107.535 116.017 107.535C115.7 107.535 115.416 107.622 115.167 107.796C114.925 107.962 114.747 108.186 114.634 108.465L113.42 107.876C113.541 107.55 113.73 107.271 113.987 107.036C114.252 106.794 114.562 106.605 114.917 106.469C115.272 106.333 115.658 106.265 116.074 106.265C116.58 106.265 117.026 106.36 117.412 106.549C117.798 106.73 118.096 106.987 118.308 107.32C118.527 107.645 118.637 108.027 118.637 108.465V112.571H117.231V111.516L117.548 111.493C117.389 111.758 117.2 111.981 116.981 112.162C116.762 112.336 116.512 112.472 116.233 112.571C115.953 112.661 115.643 112.707 115.303 112.707ZM122.777 115.066C122.316 115.066 121.889 114.99 121.496 114.839C121.102 114.687 120.762 114.476 120.475 114.204C120.195 113.939 119.991 113.625 119.862 113.262L121.246 112.741C121.337 113.028 121.514 113.259 121.779 113.432C122.051 113.614 122.384 113.705 122.777 113.705C123.079 113.705 123.344 113.648 123.571 113.535C123.805 113.421 123.987 113.255 124.115 113.036C124.244 112.824 124.308 112.567 124.308 112.264V110.858L124.592 111.198C124.38 111.569 124.096 111.849 123.741 112.038C123.386 112.227 122.981 112.321 122.528 112.321C121.953 112.321 121.439 112.189 120.985 111.924C120.532 111.66 120.176 111.297 119.919 110.835C119.662 110.374 119.534 109.856 119.534 109.282C119.534 108.7 119.662 108.182 119.919 107.728C120.176 107.274 120.528 106.919 120.974 106.662C121.42 106.397 121.926 106.265 122.493 106.265C122.955 106.265 123.359 106.363 123.707 106.56C124.062 106.749 124.357 107.025 124.592 107.388L124.387 107.762V106.401H125.794V112.264C125.794 112.801 125.661 113.281 125.397 113.705C125.14 114.128 124.784 114.461 124.331 114.703C123.885 114.945 123.367 115.066 122.777 115.066ZM122.709 110.949C123.027 110.949 123.302 110.881 123.537 110.745C123.779 110.601 123.968 110.404 124.104 110.155C124.24 109.906 124.308 109.618 124.308 109.293C124.308 108.976 124.236 108.692 124.093 108.443C123.956 108.186 123.767 107.985 123.525 107.842C123.291 107.698 123.019 107.626 122.709 107.626C122.399 107.626 122.119 107.698 121.87 107.842C121.62 107.985 121.424 108.186 121.28 108.443C121.144 108.692 121.076 108.976 121.076 109.293C121.076 109.611 121.144 109.894 121.28 110.144C121.424 110.393 121.616 110.59 121.858 110.733C122.108 110.877 122.391 110.949 122.709 110.949ZM129.154 112.707C128.678 112.707 128.262 112.601 127.907 112.389C127.559 112.177 127.291 111.883 127.102 111.505C126.92 111.127 126.83 110.684 126.83 110.178V106.401H128.315V110.053C128.315 110.31 128.364 110.537 128.463 110.733C128.568 110.922 128.716 111.074 128.905 111.187C129.101 111.293 129.321 111.346 129.563 111.346C129.805 111.346 130.02 111.293 130.209 111.187C130.398 111.074 130.545 110.919 130.651 110.722C130.757 110.525 130.81 110.291 130.81 110.019V106.401H132.296V112.571H130.889V111.357L131.014 111.573C130.871 111.951 130.632 112.234 130.3 112.423C129.975 112.612 129.593 112.707 129.154 112.707ZM133.45 112.571V106.401H134.936V112.571H133.45ZM133.45 105.709V104.122H134.936V105.709H133.45Z" fill="#FAFAFA"/>
<g clipPath="url(#clip2_12265_35890)">
<g filter="url(#filter2_i_12265_35890)">
<rect x="152.626" y="105.433" width="192.319" height="5.67033" rx="2.83516" fill="url(#paint2_linear_12265_35890)"/>
<rect x="152.863" y="105.669" width="191.846" height="5.1978" rx="2.5989" stroke="white" stroke-opacity="0.04" strokeWidth="0.472527"/>
</g>
<path d="M152.626 108.44C152.626 106.874 153.896 105.605 155.462 105.605H281.626V111.275H155.462C153.896 111.275 152.626 110.006 152.626 108.44Z" fill="#D6409F"/>
</g>
<path d="M363.578 112.071V105.493L362.296 105.788V104.903L364.054 104.132H364.825V112.071H363.578ZM369.353 112.207C368.77 112.207 368.279 112.097 367.878 111.878C367.478 111.659 367.153 111.367 366.903 111.005C366.661 110.642 366.487 110.233 366.381 109.78C366.276 109.326 366.223 108.861 366.223 108.385C366.223 107.508 366.344 106.74 366.586 106.083C366.835 105.425 367.19 104.915 367.652 104.552C368.113 104.181 368.672 103.996 369.33 103.996C369.852 103.996 370.298 104.098 370.668 104.302C371.039 104.506 371.326 104.779 371.53 105.119C371.742 105.459 371.87 105.829 371.916 106.23H370.793C370.725 105.837 370.562 105.535 370.305 105.323C370.048 105.111 369.719 105.005 369.319 105.005C368.767 105.005 368.309 105.266 367.946 105.788C367.591 106.302 367.402 107.096 367.379 108.169C367.561 107.837 367.841 107.553 368.219 107.319C368.604 107.084 369.046 106.967 369.545 106.967C369.992 106.967 370.407 107.073 370.793 107.285C371.186 107.496 371.504 107.795 371.746 108.181C371.995 108.559 372.12 109.009 372.12 109.53C372.12 109.991 372.006 110.426 371.78 110.834C371.553 111.243 371.231 111.575 370.816 111.832C370.407 112.082 369.92 112.207 369.353 112.207ZM369.285 111.163C369.602 111.163 369.886 111.095 370.135 110.959C370.385 110.823 370.581 110.638 370.725 110.403C370.869 110.162 370.94 109.889 370.94 109.587C370.94 109.103 370.782 108.718 370.464 108.43C370.154 108.143 369.757 107.999 369.273 107.999C368.956 107.999 368.668 108.071 368.411 108.215C368.162 108.358 367.965 108.551 367.822 108.793C367.678 109.027 367.606 109.288 367.606 109.576C367.606 109.886 367.678 110.162 367.822 110.403C367.973 110.638 368.173 110.823 368.423 110.959C368.68 111.095 368.967 111.163 369.285 111.163ZM376.779 112.207C376.061 112.207 375.441 112.037 374.919 111.696C374.405 111.349 374.008 110.868 373.728 110.256C373.456 109.636 373.32 108.918 373.32 108.101C373.32 107.285 373.456 106.57 373.728 105.958C374.008 105.338 374.405 104.858 374.919 104.518C375.441 104.17 376.061 103.996 376.779 103.996C377.497 103.996 378.113 104.17 378.627 104.518C379.142 104.858 379.535 105.338 379.807 105.958C380.087 106.57 380.226 107.285 380.226 108.101C380.226 108.918 380.087 109.636 379.807 110.256C379.535 110.868 379.142 111.349 378.627 111.696C378.113 112.037 377.497 112.207 376.779 112.207ZM376.779 111.129C377.21 111.129 377.592 111.008 377.924 110.766C378.265 110.524 378.529 110.177 378.718 109.723C378.907 109.269 379.002 108.729 379.002 108.101C379.002 107.474 378.907 106.933 378.718 106.48C378.529 106.026 378.265 105.678 377.924 105.436C377.592 105.194 377.21 105.073 376.779 105.073C376.34 105.073 375.955 105.194 375.622 105.436C375.29 105.678 375.029 106.026 374.84 106.48C374.651 106.933 374.556 107.474 374.556 108.101C374.556 108.729 374.651 109.269 374.84 109.723C375.029 110.177 375.29 110.524 375.622 110.766C375.955 111.008 376.34 111.129 376.779 111.129ZM384.378 112.071V106.446H385.444L385.546 107.239C385.728 106.952 385.966 106.725 386.261 106.559C386.563 106.393 386.911 106.31 387.304 106.31C388.196 106.31 388.816 106.661 389.164 107.364C389.368 107.039 389.64 106.782 389.981 106.593C390.328 106.404 390.703 106.31 391.103 106.31C391.806 106.31 392.358 106.521 392.759 106.945C393.16 107.368 393.36 107.999 393.36 108.838V112.071H392.158V108.963C392.158 107.875 391.742 107.33 390.911 107.33C390.487 107.33 390.139 107.489 389.867 107.806C389.603 108.124 389.47 108.578 389.47 109.167V112.071H388.268V108.963C388.268 107.875 387.849 107.33 387.009 107.33C386.594 107.33 386.25 107.489 385.977 107.806C385.713 108.124 385.58 108.578 385.58 109.167V112.071H384.378ZM397.012 112.207C396.301 112.207 395.715 112.033 395.254 111.685C394.793 111.337 394.528 110.876 394.46 110.301H395.674C395.734 110.558 395.878 110.782 396.105 110.971C396.332 111.152 396.63 111.243 397.001 111.243C397.364 111.243 397.628 111.167 397.794 111.016C397.961 110.865 398.044 110.691 398.044 110.494C398.044 110.207 397.927 110.014 397.692 109.916C397.466 109.81 397.148 109.715 396.74 109.632C396.422 109.564 396.105 109.474 395.787 109.36C395.477 109.247 395.216 109.088 395.005 108.884C394.801 108.672 394.698 108.389 394.698 108.033C394.698 107.542 394.887 107.134 395.266 106.808C395.644 106.476 396.173 106.31 396.853 106.31C397.481 106.31 397.987 106.461 398.373 106.763C398.766 107.066 398.997 107.493 399.065 108.045H397.908C397.87 107.803 397.757 107.614 397.568 107.478C397.386 107.342 397.141 107.273 396.831 107.273C396.528 107.273 396.294 107.338 396.127 107.466C395.961 107.587 395.878 107.746 395.878 107.943C395.878 108.139 395.991 108.294 396.218 108.408C396.453 108.521 396.759 108.623 397.137 108.714C397.515 108.797 397.863 108.895 398.18 109.009C398.505 109.114 398.766 109.273 398.963 109.485C399.159 109.697 399.257 110.007 399.257 110.415C399.265 110.929 399.065 111.356 398.656 111.696C398.256 112.037 397.708 112.207 397.012 112.207Z" fill="#A3A3A3"/>
<path d="M32.5062 148.196C31.9694 148.196 31.4704 148.098 31.0092 147.902C30.5556 147.705 30.1624 147.433 29.8298 147.085C29.5047 146.73 29.2665 146.318 29.1153 145.849L30.3968 145.293C30.6009 145.777 30.8958 146.159 31.2814 146.439C31.6669 146.711 32.1017 146.847 32.5855 146.847C32.8577 146.847 33.0921 146.805 33.2887 146.722C33.4928 146.631 33.6478 146.51 33.7536 146.359C33.867 146.208 33.9237 146.027 33.9237 145.815C33.9237 145.565 33.8481 145.361 33.6969 145.202C33.5533 145.036 33.334 144.908 33.0392 144.817L31.4175 144.295C30.7597 144.091 30.2645 143.785 29.9318 143.377C29.5992 142.968 29.4328 142.488 29.4328 141.936C29.4328 141.452 29.55 141.025 29.7844 140.655C30.0263 140.284 30.359 139.997 30.7824 139.793C31.2133 139.581 31.7047 139.475 32.2567 139.475C32.7632 139.475 33.2282 139.566 33.6516 139.748C34.0749 139.921 34.4378 140.167 34.7403 140.485C35.0502 140.795 35.2808 141.161 35.432 141.585L34.1619 142.152C33.9956 141.728 33.7461 141.403 33.4134 141.177C33.0807 140.942 32.6952 140.825 32.2567 140.825C31.9996 140.825 31.7728 140.87 31.5762 140.961C31.3796 141.044 31.2247 141.165 31.1113 141.324C31.0054 141.475 30.9525 141.657 30.9525 141.868C30.9525 142.103 31.0281 142.311 31.1793 142.492C31.3305 142.666 31.5611 142.802 31.8711 142.9L33.4247 143.388C34.0976 143.607 34.6004 143.91 34.9331 144.295C35.2733 144.681 35.4434 145.157 35.4434 145.724C35.4434 146.208 35.3186 146.635 35.0691 147.006C34.8196 147.376 34.4756 147.667 34.0371 147.879C33.5986 148.091 33.0883 148.196 32.5062 148.196ZM39.2931 148.128C38.5975 148.128 38.057 147.939 37.6714 147.561C37.2934 147.176 37.1043 146.635 37.1043 145.94V143.218H36.0383V141.891H36.1517C36.4542 141.891 36.6885 141.812 36.8549 141.653C37.0212 141.494 37.1043 141.263 37.1043 140.961V140.485H38.59V141.891H40.0076V143.218H38.59V145.86C38.59 146.064 38.624 146.238 38.692 146.382C38.7676 146.526 38.8811 146.635 39.0323 146.711C39.191 146.786 39.3914 146.824 39.6333 146.824C39.6862 146.824 39.7467 146.82 39.8148 146.813C39.8904 146.805 39.9622 146.798 40.0302 146.79V148.06C39.9244 148.075 39.8034 148.091 39.6673 148.106C39.5312 148.121 39.4065 148.128 39.2931 148.128ZM41.6869 150.555C41.5206 150.555 41.3581 150.54 41.1993 150.51C41.0405 150.487 40.8969 150.442 40.7684 150.374V149.138C40.8666 149.16 40.9838 149.183 41.1199 149.206C41.2636 149.228 41.3959 149.24 41.5168 149.24C41.8571 149.24 42.1028 149.16 42.254 149.002C42.4128 148.85 42.5526 148.646 42.6736 148.389L43.0819 147.437L43.0592 148.684L40.3714 141.891H41.9705L43.853 146.904H43.286L45.1572 141.891H46.7676L44.0798 148.684C43.9211 149.077 43.7283 149.414 43.5015 149.693C43.2746 149.973 43.01 150.185 42.7076 150.328C42.4128 150.48 42.0725 150.555 41.6869 150.555ZM47.3566 148.06V139.475H48.8422V148.06H47.3566ZM52.913 148.196C52.2779 148.196 51.7222 148.053 51.2459 147.765C50.7696 147.478 50.3991 147.089 50.1345 146.597C49.8699 146.106 49.7376 145.562 49.7376 144.964C49.7376 144.344 49.8699 143.796 50.1345 143.32C50.4067 142.836 50.7734 142.454 51.2345 142.175C51.7033 141.895 52.225 141.755 52.7996 141.755C53.2834 141.755 53.7068 141.834 54.0697 141.993C54.4402 142.152 54.7539 142.371 55.011 142.651C55.268 142.931 55.4646 143.252 55.6007 143.615C55.7368 143.97 55.8048 144.356 55.8048 144.772C55.8048 144.877 55.7973 144.987 55.7821 145.1C55.7746 145.214 55.7557 145.312 55.7254 145.395H50.9624V144.261H54.8862L54.1831 144.794C54.2512 144.446 54.2323 144.136 54.1264 143.864C54.0281 143.592 53.8618 143.377 53.6274 143.218C53.4006 143.059 53.1247 142.98 52.7996 142.98C52.4896 142.98 52.2136 143.059 51.9717 143.218C51.7298 143.369 51.5445 143.596 51.416 143.898C51.295 144.193 51.2497 144.552 51.2799 144.976C51.2497 145.354 51.2988 145.69 51.4273 145.985C51.5634 146.272 51.76 146.495 52.0171 146.654C52.2817 146.813 52.5841 146.892 52.9243 146.892C53.2645 146.892 53.5518 146.82 53.7862 146.677C54.0281 146.533 54.2171 146.34 54.3532 146.098L55.5553 146.688C55.4344 146.983 55.2454 147.244 54.9883 147.471C54.7312 147.697 54.4251 147.875 54.0697 148.004C53.7219 148.132 53.3363 148.196 52.913 148.196ZM59.5734 148.196C58.9761 148.196 58.4431 148.057 57.9744 147.777C57.5056 147.489 57.1351 147.1 56.863 146.609C56.5908 146.117 56.4547 145.573 56.4547 144.976C56.4547 144.371 56.5908 143.826 56.863 143.343C57.1351 142.859 57.5056 142.473 57.9744 142.186C58.4507 141.899 58.9799 141.755 59.562 141.755C60.0308 141.755 60.4466 141.849 60.8095 142.038C61.18 142.22 61.4711 142.477 61.6827 142.81L61.4559 143.116V139.475H62.9416V148.06H61.5353V146.87L61.6941 147.164C61.4824 147.497 61.1875 147.754 60.8095 147.936C60.4315 148.109 60.0194 148.196 59.5734 148.196ZM59.7322 146.836C60.0724 146.836 60.371 146.756 60.6281 146.597C60.8851 146.439 61.0855 146.219 61.2291 145.94C61.3803 145.66 61.4559 145.339 61.4559 144.976C61.4559 144.62 61.3803 144.303 61.2291 144.023C61.0855 143.736 60.8851 143.513 60.6281 143.354C60.371 143.195 60.0724 143.116 59.7322 143.116C59.3995 143.116 59.1009 143.199 58.8362 143.365C58.5716 143.524 58.3637 143.743 58.2125 144.023C58.0689 144.295 57.997 144.613 57.997 144.976C57.997 145.339 58.0689 145.66 58.2125 145.94C58.3637 146.219 58.5716 146.439 58.8362 146.597C59.1009 146.756 59.3995 146.836 59.7322 146.836ZM69.9797 148.196C69.3748 148.196 68.8154 148.087 68.3013 147.868C67.7947 147.648 67.3486 147.342 66.9631 146.949C66.585 146.556 66.2902 146.095 66.0785 145.565C65.8668 145.036 65.761 144.458 65.761 143.83C65.761 143.203 65.863 142.624 66.0672 142.095C66.2788 141.558 66.5737 141.097 66.9517 140.712C67.3373 140.318 67.7872 140.016 68.3013 139.804C68.8154 139.585 69.3748 139.475 69.9797 139.475C70.5845 139.475 71.1251 139.577 71.6014 139.782C72.0853 139.986 72.4935 140.258 72.8262 140.598C73.1588 140.931 73.397 141.297 73.5406 141.698L72.1571 142.345C71.9983 141.921 71.7299 141.573 71.3519 141.301C70.9739 141.022 70.5165 140.882 69.9797 140.882C69.4504 140.882 68.9817 141.006 68.5734 141.256C68.1727 141.505 67.859 141.849 67.6322 142.288C67.4129 142.726 67.3033 143.241 67.3033 143.83C67.3033 144.42 67.4129 144.938 67.6322 145.384C67.859 145.822 68.1727 146.166 68.5734 146.416C68.9817 146.665 69.4504 146.79 69.9797 146.79C70.5165 146.79 70.9739 146.654 71.3519 146.382C71.7299 146.102 71.9983 145.751 72.1571 145.327L73.5406 145.974C73.397 146.374 73.1588 146.745 72.8262 147.085C72.4935 147.418 72.0853 147.686 71.6014 147.89C71.1251 148.094 70.5845 148.196 69.9797 148.196ZM77.3471 148.196C76.7423 148.196 76.1904 148.057 75.6914 147.777C75.2 147.497 74.8068 147.115 74.512 146.631C74.2247 146.148 74.081 145.596 74.081 144.976C74.081 144.356 74.2247 143.804 74.512 143.32C74.8068 142.836 75.2 142.454 75.6914 142.175C76.1828 141.895 76.7347 141.755 77.3471 141.755C77.952 141.755 78.5001 141.895 78.9915 142.175C79.4829 142.454 79.8723 142.836 80.1596 143.32C80.4545 143.796 80.6019 144.348 80.6019 144.976C80.6019 145.596 80.4545 146.148 80.1596 146.631C79.8647 147.115 79.4716 147.497 78.9802 147.777C78.4887 148.057 77.9444 148.196 77.3471 148.196ZM77.3471 146.836C77.6798 146.836 77.9709 146.756 78.2204 146.597C78.4774 146.439 78.6778 146.219 78.8214 145.94C78.9726 145.652 79.0482 145.331 79.0482 144.976C79.0482 144.613 78.9726 144.295 78.8214 144.023C78.6778 143.743 78.4774 143.524 78.2204 143.365C77.9709 143.199 77.6798 143.116 77.3471 143.116C77.0069 143.116 76.7083 143.199 76.4512 143.365C76.1942 143.524 75.99 143.743 75.8388 144.023C75.6952 144.295 75.6233 144.613 75.6233 144.976C75.6233 145.331 75.6952 145.652 75.8388 145.94C75.99 146.219 76.1942 146.439 76.4512 146.597C76.7083 146.756 77.0069 146.836 77.3471 146.836ZM81.5017 148.06V141.891H82.8966V143.32L82.7378 143.082C82.8512 142.636 83.0781 142.303 83.4183 142.084C83.7585 141.865 84.1592 141.755 84.6204 141.755C85.1269 141.755 85.573 141.887 85.9586 142.152C86.3442 142.416 86.5937 142.764 86.7071 143.195L86.2875 143.229C86.4765 142.738 86.76 142.371 87.138 142.129C87.516 141.88 87.9508 141.755 88.4422 141.755C88.8807 141.755 89.2701 141.853 89.6103 142.05C89.9581 142.246 90.2302 142.522 90.4268 142.878C90.6234 143.225 90.7217 143.63 90.7217 144.091V148.06H89.236V144.443C89.236 144.17 89.1869 143.936 89.0886 143.74C88.9903 143.543 88.8542 143.392 88.6803 143.286C88.5064 143.172 88.2948 143.116 88.0453 143.116C87.8109 143.116 87.603 143.172 87.4215 143.286C87.2401 143.392 87.1002 143.543 87.0019 143.74C86.9036 143.936 86.8545 144.17 86.8545 144.443V148.06H85.3689V144.443C85.3689 144.17 85.3197 143.936 85.2214 143.74C85.1232 143.543 84.9833 143.392 84.8018 143.286C84.6279 143.172 84.42 143.116 84.1781 143.116C83.9437 143.116 83.7358 143.172 83.5544 143.286C83.3729 143.392 83.233 143.543 83.1348 143.74C83.0365 143.936 82.9873 144.17 82.9873 144.443V148.06H81.5017ZM91.7517 150.328V141.891H93.1466V143.116L93.0105 142.81C93.2222 142.477 93.5095 142.22 93.8724 142.038C94.2353 141.849 94.6549 141.755 95.1312 141.755C95.7134 141.755 96.2388 141.899 96.7076 142.186C97.1763 142.473 97.5468 142.859 97.819 143.343C98.0987 143.826 98.2386 144.371 98.2386 144.976C98.2386 145.573 98.1025 146.117 97.8303 146.609C97.5581 147.1 97.1877 147.489 96.7189 147.777C96.2502 148.057 95.7172 148.196 95.1199 148.196C94.6738 148.196 94.2618 148.109 93.8838 147.936C93.5133 147.754 93.2184 147.497 92.9992 147.164L93.2373 146.87V150.328H91.7517ZM94.9498 146.836C95.29 146.836 95.5924 146.756 95.857 146.597C96.1216 146.439 96.3258 146.219 96.4694 145.94C96.6206 145.66 96.6962 145.339 96.6962 144.976C96.6962 144.613 96.6206 144.295 96.4694 144.023C96.3258 143.743 96.1216 143.524 95.857 143.365C95.5924 143.199 95.29 143.116 94.9498 143.116C94.6247 143.116 94.3298 143.195 94.0652 143.354C93.8081 143.513 93.604 143.736 93.4528 144.023C93.3092 144.303 93.2373 144.62 93.2373 144.976C93.2373 145.339 93.3092 145.66 93.4528 145.94C93.604 146.219 93.8081 146.439 94.0652 146.597C94.3298 146.756 94.6247 146.836 94.9498 146.836ZM102.161 148.196C101.556 148.196 101.004 148.057 100.505 147.777C100.014 147.497 99.6207 147.115 99.3259 146.631C99.0386 146.148 98.8949 145.596 98.8949 144.976C98.8949 144.356 99.0386 143.804 99.3259 143.32C99.6207 142.836 100.014 142.454 100.505 142.175C100.997 141.895 101.549 141.755 102.161 141.755C102.766 141.755 103.314 141.895 103.805 142.175C104.297 142.454 104.686 142.836 104.974 143.32C105.268 143.796 105.416 144.348 105.416 144.976C105.416 145.596 105.268 146.148 104.974 146.631C104.679 147.115 104.286 147.497 103.794 147.777C103.303 148.057 102.758 148.196 102.161 148.196ZM102.161 146.836C102.494 146.836 102.785 146.756 103.034 146.597C103.291 146.439 103.492 146.219 103.635 145.94C103.787 145.652 103.862 145.331 103.862 144.976C103.862 144.613 103.787 144.295 103.635 144.023C103.492 143.743 103.291 143.524 103.034 143.365C102.785 143.199 102.494 143.116 102.161 143.116C101.821 143.116 101.522 143.199 101.265 143.365C101.008 143.524 100.804 143.743 100.653 144.023C100.509 144.295 100.437 144.613 100.437 144.976C100.437 145.331 100.509 145.652 100.653 145.94C100.804 146.219 101.008 146.439 101.265 146.597C101.522 146.756 101.821 146.836 102.161 146.836ZM106.316 148.06V141.891H107.71V143.104L107.597 142.889C107.741 142.519 107.975 142.239 108.3 142.05C108.633 141.853 109.018 141.755 109.457 141.755C109.911 141.755 110.311 141.853 110.659 142.05C111.014 142.246 111.29 142.522 111.487 142.878C111.684 143.225 111.782 143.63 111.782 144.091V148.06H110.296V144.443C110.296 144.17 110.243 143.936 110.137 143.74C110.032 143.543 109.884 143.392 109.695 143.286C109.514 143.172 109.298 143.116 109.049 143.116C108.807 143.116 108.591 143.172 108.402 143.286C108.213 143.392 108.066 143.543 107.96 143.74C107.854 143.936 107.801 144.17 107.801 144.443V148.06H106.316ZM115.737 148.196C115.102 148.196 114.546 148.053 114.07 147.765C113.594 147.478 113.223 147.089 112.959 146.597C112.694 146.106 112.562 145.562 112.562 144.964C112.562 144.344 112.694 143.796 112.959 143.32C113.231 142.836 113.598 142.454 114.059 142.175C114.527 141.895 115.049 141.755 115.624 141.755C116.108 141.755 116.531 141.834 116.894 141.993C117.264 142.152 117.578 142.371 117.835 142.651C118.092 142.931 118.289 143.252 118.425 143.615C118.561 143.97 118.629 144.356 118.629 144.772C118.629 144.877 118.621 144.987 118.606 145.1C118.599 145.214 118.58 145.312 118.55 145.395H113.787V144.261H117.71L117.007 144.794C117.075 144.446 117.056 144.136 116.951 143.864C116.852 143.592 116.686 143.377 116.452 143.218C116.225 143.059 115.949 142.98 115.624 142.98C115.314 142.98 115.038 143.059 114.796 143.218C114.554 143.369 114.369 143.596 114.24 143.898C114.119 144.193 114.074 144.552 114.104 144.976C114.074 145.354 114.123 145.69 114.251 145.985C114.388 146.272 114.584 146.495 114.841 146.654C115.106 146.813 115.408 146.892 115.748 146.892C116.089 146.892 116.376 146.82 116.61 146.677C116.852 146.533 117.041 146.34 117.177 146.098L118.379 146.688C118.259 146.983 118.07 147.244 117.812 147.471C117.555 147.697 117.249 147.875 116.894 148.004C116.546 148.132 116.161 148.196 115.737 148.196ZM119.528 148.06V141.891H120.923V143.104L120.81 142.889C120.953 142.519 121.188 142.239 121.513 142.05C121.846 141.853 122.231 141.755 122.67 141.755C123.123 141.755 123.524 141.853 123.872 142.05C124.227 142.246 124.503 142.522 124.7 142.878C124.896 143.225 124.995 143.63 124.995 144.091V148.06H123.509V144.443C123.509 144.17 123.456 143.936 123.35 143.74C123.244 143.543 123.097 143.392 122.908 143.286C122.726 143.172 122.511 143.116 122.261 143.116C122.02 143.116 121.804 143.172 121.615 143.286C121.426 143.392 121.279 143.543 121.173 143.74C121.067 143.936 121.014 144.17 121.014 144.443V148.06H119.528ZM128.836 148.128C128.141 148.128 127.6 147.939 127.215 147.561C126.837 147.176 126.648 146.635 126.648 145.94V143.218H125.582V141.891H125.695C125.998 141.891 126.232 141.812 126.398 141.653C126.565 141.494 126.648 141.263 126.648 140.961V140.485H128.133V141.891H129.551V143.218H128.133V145.86C128.133 146.064 128.167 146.238 128.235 146.382C128.311 146.526 128.424 146.635 128.576 146.711C128.734 146.786 128.935 146.824 129.177 146.824C129.23 146.824 129.29 146.82 129.358 146.813C129.434 146.805 129.506 146.798 129.574 146.79V148.06C129.468 148.075 129.347 148.091 129.211 148.106C129.075 148.121 128.95 148.128 128.836 148.128ZM132.829 148.196C132.172 148.196 131.597 148.041 131.106 147.731C130.622 147.414 130.289 146.987 130.108 146.45L131.219 145.917C131.378 146.265 131.597 146.537 131.877 146.733C132.164 146.93 132.482 147.028 132.829 147.028C133.102 147.028 133.317 146.968 133.476 146.847C133.635 146.726 133.714 146.567 133.714 146.371C133.714 146.25 133.68 146.151 133.612 146.076C133.551 145.993 133.464 145.924 133.351 145.872C133.245 145.811 133.128 145.762 132.999 145.724L131.99 145.441C131.468 145.289 131.072 145.059 130.799 144.749C130.535 144.439 130.402 144.072 130.402 143.649C130.402 143.271 130.497 142.942 130.686 142.662C130.883 142.375 131.151 142.152 131.491 141.993C131.839 141.834 132.236 141.755 132.682 141.755C133.264 141.755 133.778 141.895 134.224 142.175C134.67 142.454 134.988 142.847 135.177 143.354L134.043 143.887C133.937 143.607 133.759 143.384 133.51 143.218C133.26 143.052 132.981 142.968 132.671 142.968C132.421 142.968 132.225 143.025 132.081 143.138C131.937 143.252 131.865 143.399 131.865 143.581C131.865 143.694 131.896 143.792 131.956 143.876C132.017 143.959 132.1 144.027 132.206 144.08C132.319 144.133 132.448 144.182 132.591 144.227L133.578 144.522C134.084 144.673 134.474 144.9 134.746 145.202C135.026 145.505 135.166 145.875 135.166 146.314C135.166 146.684 135.067 147.013 134.871 147.3C134.674 147.58 134.402 147.799 134.054 147.958C133.706 148.117 133.298 148.196 132.829 148.196Z" fill="#FAFAFA"/>
<g clipPath="url(#clip3_12265_35890)">
<g filter="url(#filter3_i_12265_35890)">
<rect x="152.626" y="140.876" width="192.319" height="5.67033" rx="2.83516" fill="url(#paint3_linear_12265_35890)"/>
<rect x="152.863" y="141.112" width="191.846" height="5.1978" rx="2.5989" stroke="white" stroke-opacity="0.04" strokeWidth="0.472527"/>
</g>
<path d="M152.626 143.937C152.626 142.372 153.896 141.102 155.462 141.102H225.868V146.773H155.462C153.896 146.773 152.626 145.503 152.626 143.937Z" fill="#EAB305"/>
</g>
<path d="M365.426 147.696C364.905 147.696 364.459 147.594 364.088 147.39C363.718 147.186 363.427 146.914 363.215 146.574C363.011 146.233 362.886 145.863 362.841 145.462H363.963C364.031 145.855 364.194 146.158 364.451 146.37C364.708 146.581 365.037 146.687 365.438 146.687C365.99 146.687 366.443 146.43 366.799 145.916C367.161 145.394 367.354 144.597 367.377 143.523C367.195 143.856 366.912 144.139 366.526 144.374C366.148 144.608 365.71 144.725 365.211 144.725C364.765 144.725 364.345 144.619 363.952 144.408C363.559 144.196 363.241 143.901 362.999 143.523C362.757 143.137 362.636 142.684 362.636 142.162C362.636 141.701 362.75 141.266 362.977 140.858C363.204 140.45 363.521 140.121 363.929 139.871C364.345 139.614 364.837 139.486 365.404 139.486C365.986 139.486 366.477 139.595 366.878 139.815C367.279 140.034 367.6 140.325 367.842 140.688C368.084 141.051 368.258 141.459 368.364 141.913C368.477 142.366 368.534 142.831 368.534 143.308C368.534 144.185 368.409 144.952 368.159 145.61C367.917 146.267 367.566 146.782 367.105 147.152C366.644 147.515 366.084 147.696 365.426 147.696ZM365.483 143.693C365.801 143.693 366.084 143.621 366.334 143.478C366.583 143.334 366.78 143.145 366.923 142.911C367.074 142.669 367.15 142.404 367.15 142.117C367.15 141.807 367.074 141.535 366.923 141.3C366.78 141.058 366.579 140.869 366.322 140.733C366.073 140.597 365.789 140.529 365.472 140.529C365.154 140.529 364.871 140.597 364.621 140.733C364.372 140.869 364.171 141.058 364.02 141.3C363.876 141.535 363.805 141.803 363.805 142.105C363.805 142.589 363.963 142.975 364.281 143.262C364.598 143.549 364.999 143.693 365.483 143.693ZM370.599 147.56V140.983L369.318 141.278V140.393L371.076 139.622H371.847V147.56H370.599ZM376.272 147.56V141.935H377.338L377.44 142.729C377.621 142.442 377.859 142.215 378.154 142.049C378.456 141.882 378.804 141.799 379.197 141.799C380.09 141.799 380.709 142.151 381.057 142.854C381.261 142.529 381.534 142.272 381.874 142.083C382.222 141.894 382.596 141.799 382.997 141.799C383.7 141.799 384.252 142.011 384.652 142.434C385.053 142.858 385.253 143.489 385.253 144.328V147.56H384.051V144.453C384.051 143.364 383.635 142.82 382.804 142.82C382.38 142.82 382.033 142.979 381.76 143.296C381.496 143.614 381.363 144.067 381.363 144.657V147.56H380.161V144.453C380.161 143.364 379.742 142.82 378.903 142.82C378.487 142.82 378.143 142.979 377.871 143.296C377.606 143.614 377.474 144.067 377.474 144.657V147.56H376.272ZM388.905 147.696C388.195 147.696 387.609 147.523 387.147 147.175C386.686 146.827 386.422 146.366 386.354 145.791H387.567C387.627 146.048 387.771 146.271 387.998 146.46C388.225 146.642 388.523 146.732 388.894 146.732C389.257 146.732 389.521 146.657 389.688 146.506C389.854 146.354 389.937 146.181 389.937 145.984C389.937 145.697 389.82 145.504 389.586 145.406C389.359 145.3 389.041 145.205 388.633 145.122C388.315 145.054 387.998 144.963 387.68 144.85C387.37 144.736 387.11 144.578 386.898 144.374C386.694 144.162 386.592 143.878 386.592 143.523C386.592 143.032 386.781 142.623 387.159 142.298C387.537 141.966 388.066 141.799 388.746 141.799C389.374 141.799 389.88 141.95 390.266 142.253C390.659 142.555 390.89 142.982 390.958 143.534H389.801C389.763 143.292 389.65 143.103 389.461 142.967C389.279 142.831 389.034 142.763 388.724 142.763C388.421 142.763 388.187 142.827 388.021 142.956C387.854 143.077 387.771 143.236 387.771 143.432C387.771 143.629 387.885 143.784 388.111 143.897C388.346 144.011 388.652 144.113 389.03 144.203C389.408 144.287 389.756 144.385 390.073 144.498C390.398 144.604 390.659 144.763 390.856 144.975C391.052 145.186 391.151 145.496 391.151 145.905C391.158 146.419 390.958 146.846 390.55 147.186C390.149 147.526 389.601 147.696 388.905 147.696Z" fill="#A3A3A3"/>
<path d="M75.6124 183.55V175.101H76.8145L81.4641 181.361L80.8404 181.486V175.101H82.3827V183.55H81.1693L76.5877 177.245L77.1547 177.12V183.55H75.6124ZM85.5378 183.686C85.1069 183.686 84.7326 183.614 84.4151 183.471C84.0976 183.327 83.8518 183.123 83.678 182.858C83.5041 182.586 83.4171 182.272 83.4171 181.917C83.4171 181.577 83.4927 181.274 83.6439 181.01C83.7951 180.738 84.0295 180.511 84.3471 180.329C84.6646 180.148 85.0653 180.019 85.5492 179.944L87.5678 179.615V180.749L85.8327 181.044C85.5378 181.097 85.3186 181.191 85.1749 181.327C85.0313 181.463 84.9594 181.641 84.9594 181.86C84.9594 182.072 85.0388 182.242 85.1976 182.371C85.3639 182.492 85.5681 182.552 85.81 182.552C86.12 182.552 86.3922 182.488 86.6265 182.359C86.8685 182.223 87.0537 182.038 87.1822 181.804C87.3183 181.569 87.3864 181.312 87.3864 181.032V179.445C87.3864 179.18 87.2805 178.961 87.0688 178.787C86.8647 178.606 86.5925 178.515 86.2523 178.515C85.9347 178.515 85.6512 178.602 85.4017 178.776C85.1598 178.942 84.9821 179.165 84.8687 179.445L83.6553 178.855C83.7762 178.53 83.9653 178.25 84.2223 178.016C84.4869 177.774 84.7969 177.585 85.1522 177.449C85.5076 177.313 85.8932 177.245 86.309 177.245C86.8155 177.245 87.2616 177.339 87.6472 177.528C88.0328 177.71 88.3314 177.967 88.5431 178.299C88.7624 178.624 88.872 179.006 88.872 179.445V183.55H87.4657V182.495L87.7833 182.473C87.6245 182.737 87.4355 182.96 87.2162 183.142C86.997 183.316 86.7475 183.452 86.4678 183.55C86.188 183.641 85.878 183.686 85.5378 183.686ZM92.72 183.618C92.0244 183.618 91.4839 183.429 91.0983 183.051C90.7203 182.665 90.5313 182.125 90.5313 181.429V178.708H89.4652V177.381H89.5786C89.8811 177.381 90.1154 177.301 90.2818 177.143C90.4481 176.984 90.5313 176.753 90.5313 176.451V175.974H92.0169V177.381H93.4345V178.708H92.0169V181.35C92.0169 181.554 92.0509 181.728 92.1189 181.872C92.1946 182.015 92.308 182.125 92.4592 182.201C92.6179 182.276 92.8183 182.314 93.0602 182.314C93.1131 182.314 93.1736 182.31 93.2417 182.303C93.3173 182.295 93.3891 182.287 93.4571 182.28V183.55C93.3513 183.565 93.2303 183.58 93.0942 183.595C92.9582 183.611 92.8334 183.618 92.72 183.618ZM94.3654 183.55V177.381H95.851V183.55H94.3654ZM94.3654 176.689V175.101H95.851V176.689H94.3654ZM98.8557 183.55L96.4288 177.381H98.0506L99.8084 182.235H99.2073L100.976 177.381H102.598L100.171 183.55H98.8557ZM106.008 183.686C105.373 183.686 104.817 183.542 104.341 183.255C103.864 182.968 103.494 182.579 103.229 182.087C102.965 181.596 102.832 181.051 102.832 180.454C102.832 179.834 102.965 179.286 103.229 178.81C103.501 178.326 103.868 177.944 104.329 177.664C104.798 177.385 105.32 177.245 105.894 177.245C106.378 177.245 106.801 177.324 107.164 177.483C107.535 177.642 107.849 177.861 108.106 178.141C108.363 178.42 108.559 178.742 108.695 179.105C108.831 179.46 108.899 179.845 108.899 180.261C108.899 180.367 108.892 180.477 108.877 180.59C108.869 180.704 108.85 180.802 108.82 180.885H104.057V179.751H107.981L107.278 180.284C107.346 179.936 107.327 179.626 107.221 179.354C107.123 179.082 106.956 178.866 106.722 178.708C106.495 178.549 106.219 178.469 105.894 178.469C105.584 178.469 105.308 178.549 105.066 178.708C104.824 178.859 104.639 179.086 104.511 179.388C104.39 179.683 104.344 180.042 104.375 180.465C104.344 180.843 104.393 181.18 104.522 181.475C104.658 181.762 104.855 181.985 105.112 182.144C105.376 182.303 105.679 182.382 106.019 182.382C106.359 182.382 106.646 182.31 106.881 182.166C107.123 182.023 107.312 181.83 107.448 181.588L108.65 182.178C108.529 182.473 108.34 182.734 108.083 182.96C107.826 183.187 107.52 183.365 107.164 183.493C106.817 183.622 106.431 183.686 106.008 183.686ZM109.924 183.55V175.101H113.485C114.044 175.101 114.52 175.2 114.913 175.396C115.314 175.585 115.62 175.857 115.832 176.213C116.051 176.56 116.161 176.984 116.161 177.483C116.161 177.868 116.055 178.231 115.843 178.571C115.639 178.904 115.31 179.18 114.857 179.399V178.685C115.273 178.844 115.601 179.04 115.843 179.275C116.085 179.509 116.255 179.77 116.354 180.057C116.452 180.344 116.501 180.647 116.501 180.964C116.501 181.773 116.233 182.408 115.696 182.87C115.167 183.323 114.43 183.55 113.485 183.55H109.924ZM111.466 182.189H113.643C114.044 182.189 114.362 182.08 114.596 181.86C114.838 181.633 114.959 181.335 114.959 180.964C114.959 180.594 114.838 180.295 114.596 180.068C114.362 179.842 114.044 179.728 113.643 179.728H111.466V182.189ZM111.466 178.379H113.564C113.881 178.379 114.135 178.288 114.324 178.107C114.513 177.918 114.607 177.676 114.607 177.381C114.607 177.086 114.513 176.851 114.324 176.678C114.135 176.504 113.881 176.417 113.564 176.417H111.466V178.379ZM119.284 183.686C118.853 183.686 118.479 183.614 118.162 183.471C117.844 183.327 117.598 183.123 117.424 182.858C117.25 182.586 117.164 182.272 117.164 181.917C117.164 181.577 117.239 181.274 117.39 181.01C117.542 180.738 117.776 180.511 118.093 180.329C118.411 180.148 118.812 180.019 119.296 179.944L121.314 179.615V180.749L119.579 181.044C119.284 181.097 119.065 181.191 118.921 181.327C118.778 181.463 118.706 181.641 118.706 181.86C118.706 182.072 118.785 182.242 118.944 182.371C119.11 182.492 119.314 182.552 119.556 182.552C119.866 182.552 120.139 182.488 120.373 182.359C120.615 182.223 120.8 182.038 120.929 181.804C121.065 181.569 121.133 181.312 121.133 181.032V179.445C121.133 179.18 121.027 178.961 120.815 178.787C120.611 178.606 120.339 178.515 119.999 178.515C119.681 178.515 119.398 178.602 119.148 178.776C118.906 178.942 118.729 179.165 118.615 179.445L117.402 178.855C117.523 178.53 117.712 178.25 117.969 178.016C118.233 177.774 118.543 177.585 118.899 177.449C119.254 177.313 119.64 177.245 120.055 177.245C120.562 177.245 121.008 177.339 121.394 177.528C121.779 177.71 122.078 177.967 122.29 178.299C122.509 178.624 122.618 179.006 122.618 179.445V183.55H121.212V182.495L121.53 182.473C121.371 182.737 121.182 182.96 120.963 183.142C120.743 183.316 120.494 183.452 120.214 183.55C119.934 183.641 119.624 183.686 119.284 183.686ZM126.112 183.686C125.454 183.686 124.88 183.531 124.388 183.221C123.905 182.904 123.572 182.476 123.39 181.94L124.502 181.407C124.661 181.754 124.88 182.027 125.16 182.223C125.447 182.42 125.764 182.518 126.112 182.518C126.384 182.518 126.6 182.458 126.759 182.337C126.917 182.216 126.997 182.057 126.997 181.86C126.997 181.739 126.963 181.641 126.895 181.565C126.834 181.482 126.747 181.414 126.634 181.361C126.528 181.301 126.411 181.252 126.282 181.214L125.273 180.93C124.751 180.779 124.354 180.549 124.082 180.239C123.818 179.929 123.685 179.562 123.685 179.139C123.685 178.761 123.78 178.432 123.969 178.152C124.165 177.865 124.434 177.642 124.774 177.483C125.122 177.324 125.519 177.245 125.965 177.245C126.547 177.245 127.061 177.385 127.507 177.664C127.953 177.944 128.271 178.337 128.46 178.844L127.326 179.377C127.22 179.097 127.042 178.874 126.793 178.708C126.543 178.541 126.263 178.458 125.953 178.458C125.704 178.458 125.507 178.515 125.364 178.628C125.22 178.742 125.148 178.889 125.148 179.07C125.148 179.184 125.179 179.282 125.239 179.365C125.299 179.449 125.383 179.517 125.488 179.569C125.602 179.622 125.73 179.672 125.874 179.717L126.861 180.012C127.367 180.163 127.757 180.39 128.029 180.692C128.309 180.995 128.448 181.365 128.448 181.804C128.448 182.174 128.35 182.503 128.154 182.79C127.957 183.07 127.685 183.289 127.337 183.448C126.989 183.607 126.581 183.686 126.112 183.686ZM132.289 183.686C131.654 183.686 131.098 183.542 130.622 183.255C130.146 182.968 129.775 182.579 129.511 182.087C129.246 181.596 129.114 181.051 129.114 180.454C129.114 179.834 129.246 179.286 129.511 178.81C129.783 178.326 130.15 177.944 130.611 177.664C131.079 177.385 131.601 177.245 132.176 177.245C132.66 177.245 133.083 177.324 133.446 177.483C133.816 177.642 134.13 177.861 134.387 178.141C134.644 178.42 134.841 178.742 134.977 179.105C135.113 179.46 135.181 179.845 135.181 180.261C135.181 180.367 135.173 180.477 135.158 180.59C135.151 180.704 135.132 180.802 135.102 180.885H130.339V179.751H134.262L133.559 180.284C133.627 179.936 133.608 179.626 133.503 179.354C133.404 179.082 133.238 178.866 133.004 178.708C132.777 178.549 132.501 178.469 132.176 178.469C131.866 178.469 131.59 178.549 131.348 178.708C131.106 178.859 130.921 179.086 130.792 179.388C130.671 179.683 130.626 180.042 130.656 180.465C130.626 180.843 130.675 181.18 130.804 181.475C130.94 181.762 131.136 181.985 131.393 182.144C131.658 182.303 131.96 182.382 132.3 182.382C132.641 182.382 132.928 182.31 133.162 182.166C133.404 182.023 133.593 181.83 133.729 181.588L134.932 182.178C134.811 182.473 134.622 182.734 134.364 182.96C134.107 183.187 133.801 183.365 133.446 183.493C133.098 183.622 132.713 183.686 132.289 183.686Z" fill="#FAFAFA"/>
<g clipPath="url(#clip4_12265_35890)">
<g filter="url(#filter4_i_12265_35890)">
<rect x="152.626" y="176.365" width="192.319" height="5.67033" rx="2.83516" fill="url(#paint4_linear_12265_35890)"/>
<rect x="152.863" y="176.602" width="191.846" height="5.1978" rx="2.5989" stroke="white" stroke-opacity="0.04" strokeWidth="0.472527"/>
</g>
<path d="M152.626 179.419C152.626 177.854 153.896 176.584 155.462 176.584H591.604V182.255H155.462C153.896 182.255 152.626 180.985 152.626 179.419Z" fill="#0991B1"/>
</g>
<path d="M365.528 183.186C364.969 183.186 364.485 183.088 364.077 182.891C363.668 182.687 363.343 182.411 363.101 182.063C362.867 181.708 362.723 181.307 362.671 180.861H363.85C363.926 181.239 364.115 181.553 364.417 181.803C364.719 182.045 365.094 182.165 365.54 182.165C365.872 182.165 366.16 182.086 366.402 181.927C366.644 181.761 366.833 181.542 366.969 181.27C367.105 180.997 367.173 180.691 367.173 180.351C367.173 179.814 367.022 179.387 366.719 179.069C366.417 178.744 366.035 178.582 365.574 178.582C365.181 178.582 364.844 178.676 364.564 178.865C364.285 179.047 364.081 179.277 363.952 179.557H362.807L363.487 175.112H367.774V176.166H364.394L363.986 178.287C364.16 178.09 364.398 177.928 364.7 177.799C365.01 177.663 365.358 177.595 365.744 177.595C366.281 177.595 366.742 177.72 367.127 177.969C367.513 178.211 367.808 178.54 368.012 178.956C368.224 179.372 368.33 179.833 368.33 180.34C368.33 180.869 368.216 181.349 367.989 181.78C367.762 182.211 367.437 182.555 367.014 182.812C366.598 183.061 366.103 183.186 365.528 183.186ZM369.447 183.05V182.188C369.961 181.78 370.452 181.368 370.921 180.952C371.39 180.536 371.806 180.128 372.168 179.727C372.539 179.319 372.83 178.922 373.042 178.536C373.253 178.143 373.359 177.765 373.359 177.402C373.359 177.16 373.318 176.934 373.235 176.722C373.151 176.503 373.015 176.329 372.826 176.2C372.637 176.064 372.384 175.996 372.066 175.996C371.59 175.996 371.231 176.147 370.989 176.45C370.755 176.752 370.641 177.115 370.649 177.538H369.481C369.488 176.979 369.606 176.51 369.832 176.132C370.067 175.754 370.377 175.467 370.762 175.27C371.155 175.074 371.598 174.975 372.089 174.975C372.838 174.975 373.435 175.187 373.881 175.611C374.335 176.026 374.561 176.609 374.561 177.357C374.561 177.803 374.452 178.245 374.232 178.684C374.021 179.122 373.741 179.546 373.393 179.954C373.053 180.355 372.686 180.733 372.293 181.088C371.9 181.443 371.526 181.765 371.171 182.052H374.8V183.05H369.447ZM378.672 183.186C378.15 183.186 377.704 183.084 377.334 182.88C376.963 182.676 376.672 182.404 376.46 182.063C376.256 181.723 376.132 181.353 376.086 180.952H377.209C377.277 181.345 377.439 181.648 377.697 181.859C377.954 182.071 378.282 182.177 378.683 182.177C379.235 182.177 379.689 181.92 380.044 181.406C380.407 180.884 380.6 180.086 380.622 179.013C380.441 179.345 380.157 179.629 379.772 179.863C379.394 180.098 378.955 180.215 378.456 180.215C378.01 180.215 377.591 180.109 377.198 179.897C376.804 179.686 376.487 179.391 376.245 179.013C376.003 178.627 375.882 178.174 375.882 177.652C375.882 177.191 375.995 176.756 376.222 176.348C376.449 175.939 376.767 175.611 377.175 175.361C377.591 175.104 378.082 174.975 378.649 174.975C379.231 174.975 379.723 175.085 380.123 175.304C380.524 175.524 380.845 175.815 381.087 176.178C381.329 176.541 381.503 176.949 381.609 177.402C381.722 177.856 381.779 178.321 381.779 178.797C381.779 179.674 381.654 180.442 381.405 181.099C381.163 181.757 380.811 182.271 380.35 182.642C379.889 183.005 379.33 183.186 378.672 183.186ZM378.729 179.183C379.046 179.183 379.33 179.111 379.579 178.967C379.829 178.824 380.025 178.635 380.169 178.4C380.32 178.158 380.396 177.894 380.396 177.607C380.396 177.297 380.32 177.024 380.169 176.79C380.025 176.548 379.825 176.359 379.568 176.223C379.318 176.087 379.035 176.019 378.717 176.019C378.4 176.019 378.116 176.087 377.867 176.223C377.617 176.359 377.417 176.548 377.266 176.79C377.122 177.024 377.05 177.293 377.05 177.595C377.05 178.079 377.209 178.465 377.526 178.752C377.844 179.039 378.245 179.183 378.729 179.183ZM385.984 183.05V177.425H387.05L387.152 178.219C387.334 177.932 387.572 177.705 387.867 177.538C388.169 177.372 388.517 177.289 388.91 177.289C389.802 177.289 390.422 177.641 390.77 178.344C390.974 178.019 391.246 177.762 391.586 177.573C391.934 177.383 392.308 177.289 392.709 177.289C393.412 177.289 393.964 177.501 394.365 177.924C394.766 178.347 394.966 178.979 394.966 179.818V183.05H393.764V179.943C393.764 178.854 393.348 178.31 392.516 178.31C392.093 178.31 391.745 178.468 391.473 178.786C391.208 179.103 391.076 179.557 391.076 180.147V183.05H389.874V179.943C389.874 178.854 389.454 178.31 388.615 178.31C388.199 178.31 387.855 178.468 387.583 178.786C387.319 179.103 387.186 179.557 387.186 180.147V183.05H385.984ZM398.618 183.186C397.907 183.186 397.321 183.012 396.86 182.664C396.399 182.317 396.134 181.855 396.066 181.281H397.28C397.34 181.538 397.484 181.761 397.711 181.95C397.937 182.131 398.236 182.222 398.606 182.222C398.969 182.222 399.234 182.147 399.4 181.995C399.567 181.844 399.65 181.67 399.65 181.474C399.65 181.186 399.533 180.994 399.298 180.895C399.071 180.789 398.754 180.695 398.346 180.612C398.028 180.544 397.711 180.453 397.393 180.34C397.083 180.226 396.822 180.067 396.611 179.863C396.406 179.652 396.304 179.368 396.304 179.013C396.304 178.521 396.493 178.113 396.871 177.788C397.249 177.455 397.779 177.289 398.459 177.289C399.087 177.289 399.593 177.44 399.979 177.743C400.372 178.045 400.602 178.472 400.67 179.024H399.514C399.476 178.782 399.363 178.593 399.174 178.457C398.992 178.321 398.746 178.253 398.436 178.253C398.134 178.253 397.9 178.317 397.733 178.446C397.567 178.567 397.484 178.725 397.484 178.922C397.484 179.119 397.597 179.274 397.824 179.387C398.058 179.5 398.365 179.602 398.743 179.693C399.121 179.776 399.468 179.875 399.786 179.988C400.111 180.094 400.372 180.253 400.568 180.464C400.765 180.676 400.863 180.986 400.863 181.394C400.871 181.908 400.67 182.336 400.262 182.676C399.862 183.016 399.313 183.186 398.618 183.186Z" fill="#A3A3A3"/>
<rect width="172" height="41" transform="matrix(0 -1 -1 0 345 195)" fill="url(#paint5_linear_12265_35890)"/>
<defs>
<filter id="filter0_i_12265_35890" x="152.626" y="-274.535" width="329.82" height="816.528" filterUnits="userSpaceOnUse" color-interpolation-filters="sRGB">
<feFlood flood-opacity="0" result="BackgroundImageFix"/>
<feBlend mode="normal" in="SourceGraphic" in2="BackgroundImageFix" result="shape"/>
<feColorMatrix in="SourceAlpha" type="matrix" values="0 0 0 0 0 0 0 0 0 0 0 0 0 0 0 0 0 0 127 0" result="hardAlpha"/>
<feOffset dy="0.472527"/>
<feComposite in2="hardAlpha" operator="arithmetic" k2="-1" k3="1"/>
<feColorMatrix type="matrix" values="0 0 0 0 1 0 0 0 0 1 0 0 0 0 1 0 0 0 0.08 0"/>
<feBlend mode="normal" in2="shape" result="effect1_innerShadow_12265_35890"/>
</filter>
<filter id="filter1_i_12265_35890" x="152.626" y="-239.092" width="329.82" height="816.528" filterUnits="userSpaceOnUse" color-interpolation-filters="sRGB">
<feFlood flood-opacity="0" result="BackgroundImageFix"/>
<feBlend mode="normal" in="SourceGraphic" in2="BackgroundImageFix" result="shape"/>
<feColorMatrix in="SourceAlpha" type="matrix" values="0 0 0 0 0 0 0 0 0 0 0 0 0 0 0 0 0 0 127 0" result="hardAlpha"/>
<feOffset dy="0.472527"/>
<feComposite in2="hardAlpha" operator="arithmetic" k2="-1" k3="1"/>
<feColorMatrix type="matrix" values="0 0 0 0 1 0 0 0 0 1 0 0 0 0 1 0 0 0 0.08 0"/>
<feBlend mode="normal" in2="shape" result="effect1_innerShadow_12265_35890"/>
</filter>
<filter id="filter2_i_12265_35890" x="152.626" y="-203.665" width="329.82" height="816.528" filterUnits="userSpaceOnUse" color-interpolation-filters="sRGB">
<feFlood flood-opacity="0" result="BackgroundImageFix"/>
<feBlend mode="normal" in="SourceGraphic" in2="BackgroundImageFix" result="shape"/>
<feColorMatrix in="SourceAlpha" type="matrix" values="0 0 0 0 0 0 0 0 0 0 0 0 0 0 0 0 0 0 127 0" result="hardAlpha"/>
<feOffset dy="0.472527"/>
<feComposite in2="hardAlpha" operator="arithmetic" k2="-1" k3="1"/>
<feColorMatrix type="matrix" values="0 0 0 0 1 0 0 0 0 1 0 0 0 0 1 0 0 0 0.08 0"/>
<feBlend mode="normal" in2="shape" result="effect1_innerShadow_12265_35890"/>
</filter>
<filter id="filter3_i_12265_35890" x="152.626" y="140.876" width="192.319" height="5.67041" filterUnits="userSpaceOnUse" color-interpolation-filters="sRGB">
<feFlood flood-opacity="0" result="BackgroundImageFix"/>
<feBlend mode="normal" in="SourceGraphic" in2="BackgroundImageFix" result="shape"/>
<feColorMatrix in="SourceAlpha" type="matrix" values="0 0 0 0 0 0 0 0 0 0 0 0 0 0 0 0 0 0 127 0" result="hardAlpha"/>
<feOffset dy="0.472527"/>
<feComposite in2="hardAlpha" operator="arithmetic" k2="-1" k3="1"/>
<feColorMatrix type="matrix" values="0 0 0 0 1 0 0 0 0 1 0 0 0 0 1 0 0 0 0.08 0"/>
<feBlend mode="normal" in2="shape" result="effect1_innerShadow_12265_35890"/>
</filter>
<filter id="filter4_i_12265_35890" x="152.626" y="176.365" width="192.319" height="5.67041" filterUnits="userSpaceOnUse" color-interpolation-filters="sRGB">
<feFlood flood-opacity="0" result="BackgroundImageFix"/>
<feBlend mode="normal" in="SourceGraphic" in2="BackgroundImageFix" result="shape"/>
<feColorMatrix in="SourceAlpha" type="matrix" values="0 0 0 0 0 0 0 0 0 0 0 0 0 0 0 0 0 0 127 0" result="hardAlpha"/>
<feOffset dy="0.472527"/>
<feComposite in2="hardAlpha" operator="arithmetic" k2="-1" k3="1"/>
<feColorMatrix type="matrix" values="0 0 0 0 1 0 0 0 0 1 0 0 0 0 1 0 0 0 0.08 0"/>
<feBlend mode="normal" in2="shape" result="effect1_innerShadow_12265_35890"/>
</filter>
<linearGradient id="paint0_linear_12265_35890" x1="248.786" y1="34.5627" x2="248.786" y2="40.2331" gradientUnits="userSpaceOnUse">
<stop stop-color="white" stop-opacity="0.12"/>
<stop offset="1" stop-color="white" stop-opacity="0.02"/>
</linearGradient>
<linearGradient id="paint1_linear_12265_35890" x1="248.786" y1="69.9978" x2="248.786" y2="75.6681" gradientUnits="userSpaceOnUse">
<stop stop-color="white" stop-opacity="0.12"/>
<stop offset="1" stop-color="white" stop-opacity="0.02"/>
</linearGradient>
<linearGradient id="paint2_linear_12265_35890" x1="248.786" y1="105.433" x2="248.786" y2="111.103" gradientUnits="userSpaceOnUse">
<stop stop-color="white" stop-opacity="0.12"/>
<stop offset="1" stop-color="white" stop-opacity="0.02"/>
</linearGradient>
<linearGradient id="paint3_linear_12265_35890" x1="248.786" y1="140.876" x2="248.786" y2="146.546" gradientUnits="userSpaceOnUse">
<stop stop-color="white" stop-opacity="0.12"/>
<stop offset="1" stop-color="white" stop-opacity="0.02"/>
</linearGradient>
<linearGradient id="paint4_linear_12265_35890" x1="248.786" y1="176.365" x2="248.786" y2="182.036" gradientUnits="userSpaceOnUse">
<stop stop-color="white" stop-opacity="0.12"/>
<stop offset="1" stop-color="white" stop-opacity="0.02"/>
</linearGradient>
<linearGradient id="paint5_linear_12265_35890" x1="86" y1="3.31459" x2="86" y2="21.6169" gradientUnits="userSpaceOnUse">
<stop/>
<stop offset="1" stop-opacity="0"/>
</linearGradient>
<clipPath id="clip0_12265_35890">
<rect width="192.319" height="29.9944" fill="white" transform="translate(152.626 22.594)"/>
</clipPath>
<clipPath id="clip1_12265_35890">
<rect width="192.319" height="29.9944" fill="white" transform="translate(152.626 58.0837)"/>
</clipPath>
<clipPath id="clip2_12265_35890">
<rect width="192.319" height="29.9944" fill="white" transform="translate(152.626 93.5735)"/>
</clipPath>
<clipPath id="clip3_12265_35890">
<rect width="192.319" height="29.9944" fill="white" transform="translate(152.626 129.063)"/>
</clipPath>
<clipPath id="clip4_12265_35890">
<rect width="192.319" height="29.9944" fill="white" transform="translate(152.626 164.553)"/>
</clipPath>
</defs>
</svg>
