<svg width="430" height="218" viewBox="0 0 430 218" fill="none" xmlns="http://www.w3.org/2000/svg">
<rect width="430" height="217.141" rx="3.78022" fill="black"/>
<path d="M70.9833 44.086C70.5221 44.086 70.0949 44.0104 69.7018 43.8592C69.3087 43.708 68.9684 43.4963 68.6811 43.2241C68.4014 42.9595 68.1973 42.6457 68.0687 42.2828L69.4523 41.7612C69.543 42.0485 69.7207 42.2791 69.9853 42.453C70.2575 42.6344 70.5901 42.7251 70.9833 42.7251C71.2857 42.7251 71.5503 42.6684 71.7771 42.555C72.0115 42.4416 72.193 42.2753 72.3215 42.056C72.45 41.8443 72.5143 41.5873 72.5143 41.2849V39.8786L72.7978 40.2188C72.5861 40.5893 72.3026 40.869 71.9472 41.0581C71.5919 41.2471 71.1874 41.3416 70.7338 41.3416C70.1592 41.3416 69.6451 41.2093 69.1915 40.9446C68.7378 40.68 68.3825 40.3171 68.1254 39.8559C67.8684 39.3948 67.7399 38.8769 67.7399 38.3023C67.7399 37.7201 67.8684 37.2022 68.1254 36.7486C68.3825 36.295 68.7341 35.9396 69.1801 35.6826C69.6262 35.418 70.1327 35.2857 70.6998 35.2857C71.161 35.2857 71.5654 35.3839 71.9132 35.5805C72.2686 35.7695 72.5634 36.0455 72.7978 36.4084L72.5937 36.7826V35.4217H73.9999V41.2849C73.9999 41.8217 73.8676 42.3017 73.603 42.7251C73.3459 43.1485 72.9906 43.4812 72.537 43.7231C72.0909 43.965 71.573 44.086 70.9833 44.086ZM70.9152 39.9694C71.2328 39.9694 71.5087 39.9013 71.7431 39.7652C71.985 39.6216 72.1741 39.425 72.3101 39.1755C72.4462 38.926 72.5143 38.6387 72.5143 38.3136C72.5143 37.9961 72.4425 37.7126 72.2988 37.4631C72.1627 37.206 71.9737 37.0057 71.7318 36.862C71.4974 36.7184 71.2252 36.6465 70.9152 36.6465C70.6053 36.6465 70.3255 36.7184 70.076 36.862C69.8265 37.0057 69.63 37.206 69.4863 37.4631C69.3502 37.7126 69.2822 37.9961 69.2822 38.3136C69.2822 38.6312 69.3502 38.9147 69.4863 39.1642C69.63 39.4137 69.8228 39.6102 70.0647 39.7539C70.3142 39.8975 70.5977 39.9694 70.9152 39.9694ZM75.1606 41.5911V33.0062H76.6462V41.5911H75.1606ZM79.9911 41.7272C79.5148 41.7272 79.099 41.6213 78.7437 41.4096C78.3959 41.1979 78.1275 40.9031 77.9385 40.525C77.757 40.147 77.6663 39.7047 77.6663 39.1982V35.4217H79.1519V39.0734C79.1519 39.3305 79.2011 39.5573 79.2994 39.7539C79.4052 39.9429 79.5526 40.0941 79.7416 40.2075C79.9382 40.3134 80.1575 40.3663 80.3994 40.3663C80.6413 40.3663 80.8568 40.3134 81.0458 40.2075C81.2348 40.0941 81.3823 39.9391 81.4881 39.7425C81.594 39.546 81.6469 39.3116 81.6469 39.0394V35.4217H83.1325V41.5911H81.7263V40.3776L81.851 40.5931C81.7074 40.9711 81.4692 41.2546 81.1365 41.4436C80.8114 41.6326 80.4296 41.7272 79.9911 41.7272ZM87.2126 41.7272C86.5775 41.7272 86.0218 41.5835 85.5455 41.2962C85.0692 41.0089 84.6987 40.6195 84.4341 40.1281C84.1695 39.6367 84.0372 39.0923 84.0372 38.4951C84.0372 37.8751 84.1695 37.327 84.4341 36.8507C84.7063 36.3668 85.073 35.985 85.5342 35.7053C86.0029 35.4255 86.5246 35.2857 87.0992 35.2857C87.583 35.2857 88.0064 35.365 88.3693 35.5238C88.7398 35.6826 89.0535 35.9018 89.3106 36.1816C89.5676 36.4613 89.7642 36.7826 89.9003 37.1455C90.0364 37.5009 90.1044 37.8864 90.1044 38.3023C90.1044 38.4081 90.0969 38.5177 90.0818 38.6312C90.0742 38.7446 90.0553 38.8428 90.0251 38.926H85.262V37.7919H89.1858L88.4827 38.325C88.5508 37.9772 88.5319 37.6672 88.426 37.395C88.3277 37.1228 88.1614 36.9074 87.927 36.7486C87.7002 36.5898 87.4243 36.5104 87.0992 36.5104C86.7892 36.5104 86.5132 36.5898 86.2713 36.7486C86.0294 36.8998 85.8441 37.1266 85.7156 37.429C85.5946 37.7239 85.5493 38.083 85.5795 38.5064C85.5493 38.8844 85.5984 39.2209 85.7269 39.5157C85.863 39.803 86.0596 40.0261 86.3167 40.1848C86.5813 40.3436 86.8837 40.423 87.2239 40.423C87.5641 40.423 87.8514 40.3512 88.0858 40.2075C88.3277 40.0639 88.5167 39.8711 88.6528 39.6291L89.8549 40.2188C89.734 40.5137 89.545 40.7745 89.2879 41.0014C89.0309 41.2282 88.7247 41.4058 88.3693 41.5344C88.0215 41.6629 87.636 41.7272 87.2126 41.7272ZM93.3513 41.7272C92.6936 41.7272 92.119 41.5722 91.6275 41.2622C91.1437 40.9446 90.811 40.5175 90.6296 39.9807L91.741 39.4477C91.8997 39.7955 92.119 40.0676 92.3987 40.2642C92.686 40.4608 93.0035 40.5591 93.3513 40.5591C93.6235 40.5591 93.839 40.4986 93.9977 40.3776C94.1565 40.2566 94.2359 40.0979 94.2359 39.9013C94.2359 39.7803 94.2019 39.6821 94.1338 39.6064C94.0733 39.5233 93.9864 39.4552 93.873 39.4023C93.7671 39.3418 93.65 39.2927 93.5214 39.2549L92.5121 38.9714C91.9904 38.8202 91.5935 38.5896 91.3213 38.2796C91.0567 37.9696 90.9244 37.6029 90.9244 37.1795C90.9244 36.8015 91.0189 36.4726 91.2079 36.1929C91.4045 35.9056 91.6729 35.6826 92.0131 35.5238C92.3609 35.365 92.7578 35.2857 93.2039 35.2857C93.786 35.2857 94.3002 35.4255 94.7462 35.7053C95.1923 35.985 95.5098 36.3781 95.6988 36.8847L94.5648 37.4177C94.4589 37.138 94.2813 36.9149 94.0318 36.7486C93.7823 36.5823 93.5025 36.4991 93.1926 36.4991C92.9431 36.4991 92.7465 36.5558 92.6028 36.6692C92.4592 36.7826 92.3874 36.9301 92.3874 37.1115C92.3874 37.2249 92.4176 37.3232 92.4781 37.4064C92.5386 37.4895 92.6217 37.5576 92.7276 37.6105C92.841 37.6634 92.9695 37.7126 93.1132 37.7579L94.0998 38.0528C94.6064 38.204 94.9957 38.4308 95.2679 38.7332C95.5476 39.0356 95.6875 39.4061 95.6875 39.8446C95.6875 40.2151 95.5892 40.5439 95.3926 40.8312C95.1961 41.111 94.9239 41.3302 94.5761 41.489C94.2283 41.6478 93.8201 41.7272 93.3513 41.7272ZM99.4149 41.6591C98.7193 41.6591 98.1787 41.4701 97.7931 41.0921C97.4151 40.7065 97.2261 40.1659 97.2261 39.4704V36.7486H96.1601V35.4217H96.2735C96.5759 35.4217 96.8103 35.3424 96.9766 35.1836C97.1429 35.0248 97.2261 34.7942 97.2261 34.4918V34.0155H98.7117V35.4217H100.129V36.7486H98.7117V39.391C98.7117 39.5951 98.7458 39.769 98.8138 39.9126C98.8894 40.0563 99.0028 40.1659 99.154 40.2415C99.3128 40.3171 99.5131 40.3549 99.7551 40.3549C99.808 40.3549 99.8685 40.3512 99.9365 40.3436C100.012 40.336 100.084 40.3285 100.152 40.3209V41.5911C100.046 41.6062 99.9252 41.6213 99.7891 41.6364C99.653 41.6515 99.5283 41.6591 99.4149 41.6591ZM102.909 41.7272C102.478 41.7272 102.104 41.6553 101.787 41.5117C101.469 41.368 101.223 41.1639 101.049 40.8993C100.876 40.6271 100.789 40.3134 100.789 39.958C100.789 39.6178 100.864 39.3154 101.015 39.0508C101.167 38.7786 101.401 38.5518 101.719 38.3703C102.036 38.1889 102.437 38.0603 102.921 37.9847L104.939 37.6559V38.7899L103.204 39.0848C102.909 39.1377 102.69 39.2322 102.546 39.3683C102.403 39.5044 102.331 39.6821 102.331 39.9013C102.331 40.113 102.41 40.2831 102.569 40.4116C102.735 40.5326 102.94 40.5931 103.181 40.5931C103.491 40.5931 103.764 40.5288 103.998 40.4003C104.24 40.2642 104.425 40.079 104.554 39.8446C104.69 39.6102 104.758 39.3532 104.758 39.0734V37.4857C104.758 37.2211 104.652 37.0019 104.44 36.828C104.236 36.6465 103.964 36.5558 103.624 36.5558C103.306 36.5558 103.023 36.6428 102.773 36.8166C102.531 36.983 102.354 37.206 102.24 37.4857L101.027 36.896C101.148 36.5709 101.337 36.2912 101.594 36.0568C101.858 35.8149 102.168 35.6259 102.524 35.4898C102.879 35.3537 103.265 35.2857 103.68 35.2857C104.187 35.2857 104.633 35.3802 105.019 35.5692C105.404 35.7506 105.703 36.0077 105.915 36.3403C106.134 36.6654 106.243 37.0472 106.243 37.4857V41.5911H104.837V40.5364L105.155 40.5137C104.996 40.7783 104.807 41.0014 104.588 41.1828C104.368 41.3567 104.119 41.4928 103.839 41.5911C103.559 41.6818 103.25 41.7272 102.909 41.7272ZM110.361 41.7272C109.749 41.7272 109.197 41.5873 108.705 41.3075C108.221 41.0203 107.84 40.6347 107.56 40.1508C107.28 39.6594 107.14 39.1075 107.14 38.4951C107.14 37.8827 107.28 37.3345 107.56 36.8507C107.84 36.3668 108.221 35.985 108.705 35.7053C109.197 35.4255 109.749 35.2857 110.361 35.2857C110.799 35.2857 111.208 35.365 111.586 35.5238C111.964 35.675 112.289 35.8867 112.561 36.1589C112.841 36.4235 113.041 36.741 113.162 37.1115L111.858 37.6785C111.745 37.3686 111.552 37.1191 111.28 36.9301C111.015 36.741 110.709 36.6465 110.361 36.6465C110.036 36.6465 109.745 36.7259 109.488 36.8847C109.238 37.0435 109.042 37.2627 108.898 37.5424C108.754 37.8222 108.683 38.1435 108.683 38.5064C108.683 38.8693 108.754 39.1906 108.898 39.4704C109.042 39.7501 109.238 39.9694 109.488 40.1281C109.745 40.2869 110.036 40.3663 110.361 40.3663C110.716 40.3663 111.026 40.2718 111.291 40.0828C111.556 39.8937 111.745 39.6405 111.858 39.3229L113.162 39.9126C113.041 40.2604 112.845 40.5742 112.572 40.8539C112.3 41.1261 111.975 41.3416 111.597 41.5003C111.219 41.6515 110.807 41.7272 110.361 41.7272ZM114.063 41.5911V33.0062H115.548V38.6312L114.981 38.461L117.884 35.4217H119.733L117.453 37.9054L119.778 41.5911H118.077L116.059 38.393L116.943 38.2115L115.083 40.2075L115.548 39.3003V41.5911H114.063ZM120.687 39.1642V37.86H125.507V39.1642H120.687ZM129.154 41.7272C128.678 41.7272 128.262 41.6213 127.907 41.4096C127.559 41.1979 127.291 40.9031 127.102 40.525C126.92 40.147 126.829 39.7047 126.829 39.1982V35.4217H128.315V39.0734C128.315 39.3305 128.364 39.5573 128.462 39.7539C128.568 39.9429 128.716 40.0941 128.905 40.2075C129.101 40.3134 129.321 40.3663 129.562 40.3663C129.804 40.3663 130.02 40.3134 130.209 40.2075C130.398 40.0941 130.545 39.9391 130.651 39.7425C130.757 39.546 130.81 39.3116 130.81 39.0394V35.4217H132.296V41.5911H130.889V40.3776L131.014 40.5931C130.87 40.9711 130.632 41.2546 130.3 41.4436C129.975 41.6326 129.593 41.7272 129.154 41.7272ZM133.45 41.5911V35.4217H134.935V41.5911H133.45ZM133.45 34.73V33.1423H134.935V34.73H133.45Z" fill="#FAFAFA"/>
<g clipPath="url(#clip0_12265_35982)">
<g filter="url(#filter0_i_12265_35982)">
<rect x="152.626" y="34.5627" width="192.319" height="5.67033" rx="2.83516" fill="url(#paint0_linear_12265_35982)"/>
<rect x="152.863" y="34.799" width="191.846" height="5.1978" rx="2.5989" stroke="white" stroke-opacity="0.04" strokeWidth="0.472527"/>
</g>
<path d="M153.001 37.0002C153.001 35.3434 154.345 34.0002 156.001 34.0002H291.001V40.0002H156.001C154.345 40.0002 153.001 38.6571 153.001 37.0002Z" fill="#0177E5"/>
</g>
<path d="M365.302 41.2272C364.787 41.2272 364.319 41.1364 363.895 40.955C363.479 40.766 363.147 40.4824 362.897 40.1044C362.648 39.7264 362.516 39.2539 362.5 38.6868H363.691C363.706 39.1102 363.85 39.4694 364.122 39.7642C364.402 40.0515 364.795 40.1952 365.302 40.1952C365.785 40.1952 366.156 40.0628 366.413 39.7982C366.67 39.5261 366.799 39.1896 366.799 38.7889C366.799 38.305 366.625 37.9459 366.277 37.7115C365.937 37.4772 365.517 37.36 365.018 37.36H364.428V36.362H365.029C365.475 36.362 365.835 36.2562 366.107 36.0445C366.386 35.8328 366.526 35.5341 366.526 35.1486C366.526 34.8235 366.417 34.5588 366.197 34.3547C365.986 34.1506 365.683 34.0485 365.29 34.0485C364.882 34.0485 364.561 34.1695 364.326 34.4114C364.092 34.6458 363.963 34.9406 363.941 35.296H362.75C362.765 34.8348 362.878 34.4341 363.09 34.0939C363.309 33.7537 363.608 33.489 363.986 33.3C364.364 33.111 364.799 33.0165 365.29 33.0165C365.819 33.0165 366.262 33.111 366.617 33.3C366.98 33.4815 367.252 33.731 367.434 34.0485C367.623 34.3585 367.717 34.6987 367.717 35.0692C367.717 35.4926 367.6 35.863 367.366 36.1806C367.131 36.4981 366.817 36.7098 366.424 36.8156C366.878 36.9139 367.252 37.137 367.547 37.4847C367.842 37.825 367.989 38.2672 367.989 38.8116C367.989 39.2501 367.887 39.6546 367.683 40.025C367.479 40.3879 367.177 40.679 366.776 40.8983C366.375 41.1175 365.884 41.2272 365.302 41.2272ZM371.839 41.2272C371.317 41.2272 370.871 41.1251 370.5 40.921C370.13 40.7168 369.839 40.4446 369.627 40.1044C369.423 39.7642 369.298 39.3937 369.253 38.993H370.376C370.444 39.3862 370.606 39.6886 370.863 39.9003C371.12 40.112 371.449 40.2178 371.85 40.2178C372.402 40.2178 372.856 39.9608 373.211 39.4467C373.574 38.925 373.767 38.1274 373.789 37.0538C373.608 37.3864 373.324 37.67 372.939 37.9043C372.561 38.1387 372.122 38.2559 371.623 38.2559C371.177 38.2559 370.757 38.1501 370.364 37.9384C369.971 37.7267 369.654 37.4318 369.412 37.0538C369.17 36.6682 369.049 36.2146 369.049 35.6929C369.049 35.2317 369.162 34.797 369.389 34.3887C369.616 33.9805 369.933 33.6516 370.342 33.4021C370.757 33.145 371.249 33.0165 371.816 33.0165C372.398 33.0165 372.89 33.1261 373.29 33.3454C373.691 33.5646 374.012 33.8557 374.254 34.2186C374.496 34.5815 374.67 34.9898 374.776 35.4434C374.889 35.897 374.946 36.362 374.946 36.8383C374.946 37.7153 374.821 38.4827 374.572 39.1405C374.33 39.7982 373.978 40.3123 373.517 40.6828C373.056 41.0457 372.496 41.2272 371.839 41.2272ZM371.895 37.2239C372.213 37.2239 372.496 37.1521 372.746 37.0084C372.995 36.8648 373.192 36.6758 373.336 36.4414C373.487 36.1995 373.562 35.9348 373.562 35.6475C373.562 35.3376 373.487 35.0654 373.336 34.831C373.192 34.5891 372.992 34.4001 372.735 34.264C372.485 34.1279 372.202 34.0599 371.884 34.0599C371.566 34.0599 371.283 34.1279 371.033 34.264C370.784 34.4001 370.584 34.5891 370.432 34.831C370.289 35.0654 370.217 35.3338 370.217 35.6362C370.217 36.1201 370.376 36.5057 370.693 36.793C371.011 37.0803 371.411 37.2239 371.895 37.2239ZM379.106 41.2272C378.547 41.2272 378.063 41.1289 377.655 40.9323C377.246 40.7282 376.921 40.4522 376.679 40.1044C376.445 39.7491 376.301 39.3484 376.248 38.9023H377.428C377.503 39.2803 377.692 39.5941 377.995 39.8436C378.297 40.0855 378.671 40.2065 379.117 40.2065C379.45 40.2065 379.737 40.1271 379.979 39.9683C380.221 39.802 380.41 39.5828 380.546 39.3106C380.682 39.0384 380.751 38.7322 380.751 38.392C380.751 37.8552 380.599 37.428 380.297 37.1105C379.994 36.7854 379.613 36.6228 379.152 36.6228C378.758 36.6228 378.422 36.7173 378.142 36.9064C377.862 37.0878 377.658 37.3184 377.53 37.5981H376.384L377.065 33.1526H381.352V34.2073H377.972L377.564 36.328C377.738 36.1314 377.976 35.9689 378.278 35.8403C378.588 35.7043 378.936 35.6362 379.322 35.6362C379.858 35.6362 380.32 35.761 380.705 36.0104C381.091 36.2524 381.386 36.5813 381.59 36.9971C381.801 37.4129 381.907 37.8741 381.907 38.3806C381.907 38.9099 381.794 39.39 381.567 39.8209C381.34 40.2519 381.015 40.5959 380.592 40.8529C380.176 41.1024 379.681 41.2272 379.106 41.2272ZM386.139 41.0911V35.4661H387.205L387.307 36.2599C387.489 35.9726 387.727 35.7458 388.022 35.5795C388.324 35.4132 388.672 35.33 389.065 35.33C389.957 35.33 390.577 35.6816 390.925 36.3847C391.129 36.0596 391.401 35.8025 391.741 35.6135C392.089 35.4245 392.464 35.33 392.864 35.33C393.567 35.33 394.119 35.5417 394.52 35.9651C394.921 36.3885 395.121 37.0198 395.121 37.859V41.0911H393.919V37.9837C393.919 36.895 393.503 36.3507 392.671 36.3507C392.248 36.3507 391.9 36.5094 391.628 36.827C391.363 37.1445 391.231 37.5981 391.231 38.1879V41.0911H390.029V37.9837C390.029 36.895 389.609 36.3507 388.77 36.3507C388.354 36.3507 388.01 36.5094 387.738 36.827C387.474 37.1445 387.341 37.5981 387.341 38.1879V41.0911H386.139ZM398.773 41.2272C398.062 41.2272 397.476 41.0533 397.015 40.7055C396.554 40.3577 396.289 39.8965 396.221 39.3219H397.435C397.495 39.579 397.639 39.802 397.866 39.991C398.092 40.1725 398.391 40.2632 398.762 40.2632C399.124 40.2632 399.389 40.1876 399.555 40.0364C399.722 39.8852 399.805 39.7113 399.805 39.5147C399.805 39.2274 399.688 39.0346 399.453 38.9363C399.227 38.8305 398.909 38.736 398.501 38.6528C398.183 38.5848 397.866 38.4941 397.548 38.3806C397.238 38.2672 396.977 38.1085 396.766 37.9043C396.561 37.6926 396.459 37.4091 396.459 37.0538C396.459 36.5624 396.648 36.1541 397.026 35.829C397.404 35.4963 397.934 35.33 398.614 35.33C399.242 35.33 399.748 35.4812 400.134 35.7836C400.527 36.0861 400.757 36.5132 400.826 37.0651H399.669C399.631 36.8232 399.518 36.6342 399.329 36.4981C399.147 36.362 398.901 36.294 398.591 36.294C398.289 36.294 398.055 36.3582 397.888 36.4868C397.722 36.6077 397.639 36.7665 397.639 36.9631C397.639 37.1596 397.752 37.3146 397.979 37.428C398.213 37.5414 398.52 37.6435 398.898 37.7342C399.276 37.8174 399.623 37.9157 399.941 38.0291C400.266 38.1349 400.527 38.2937 400.723 38.5054C400.92 38.7171 401.018 39.0271 401.018 39.4353C401.026 39.9494 400.826 40.3766 400.417 40.7168C400.017 41.057 399.468 41.2272 398.773 41.2272Z" fill="#A3A3A3"/>
<path d="M69.0001 77.0808V68.632H72.1415C72.716 68.632 73.2226 68.7379 73.6611 68.9496C74.1072 69.1537 74.4549 69.4561 74.7044 69.8568C74.9539 70.25 75.0787 70.73 75.0787 71.2971C75.0787 71.8792 74.9388 72.3744 74.6591 72.7827C74.3869 73.191 74.0164 73.4934 73.5477 73.69L75.4869 77.0808H73.7405L71.6651 73.3724L72.6631 73.9621H70.5424V77.0808H69.0001ZM70.5424 72.6013H72.1641C72.4439 72.6013 72.6858 72.5483 72.8899 72.4425C73.0941 72.3291 73.2528 72.1741 73.3662 71.9775C73.4797 71.7809 73.5364 71.5541 73.5364 71.2971C73.5364 71.0325 73.4797 70.8056 73.3662 70.6166C73.2528 70.4201 73.0941 70.2689 72.8899 70.163C72.6858 70.0496 72.4439 69.9929 72.1641 69.9929H70.5424V72.6013ZM78.7288 77.2169C78.0937 77.2169 77.538 77.0733 77.0617 76.786C76.5854 76.4987 76.2149 76.1093 75.9503 75.6179C75.6857 75.1264 75.5534 74.5821 75.5534 73.9848C75.5534 73.3649 75.6857 72.8167 75.9503 72.3404C76.2225 71.8565 76.5892 71.4747 77.0504 71.195C77.5191 70.9153 78.0408 70.7754 78.6154 70.7754C79.0992 70.7754 79.5226 70.8548 79.8855 71.0136C80.256 71.1723 80.5697 71.3916 80.8268 71.6713C81.0839 71.9511 81.2804 72.2724 81.4165 72.6353C81.5526 72.9906 81.6206 73.3762 81.6206 73.792C81.6206 73.8979 81.6131 74.0075 81.598 74.1209C81.5904 74.2343 81.5715 74.3326 81.5413 74.4158H76.7782V73.2817H80.7021L79.9989 73.8147C80.067 73.4669 80.0481 73.1569 79.9422 72.8848C79.8439 72.6126 79.6776 72.3971 79.4432 72.2383C79.2164 72.0796 78.9405 72.0002 78.6154 72.0002C78.3054 72.0002 78.0294 72.0796 77.7875 72.2383C77.5456 72.3896 77.3603 72.6164 77.2318 72.9188C77.1108 73.2136 77.0655 73.5728 77.0957 73.9962C77.0655 74.3742 77.1146 74.7106 77.2432 75.0055C77.3792 75.2928 77.5758 75.5158 77.8329 75.6746C78.0975 75.8333 78.3999 75.9127 78.7401 75.9127C79.0803 75.9127 79.3676 75.8409 79.602 75.6973C79.8439 75.5536 80.033 75.3608 80.169 75.1189L81.3712 75.7086C81.2502 76.0034 81.0612 76.2643 80.8041 76.4911C80.5471 76.7179 80.2409 76.8956 79.8855 77.0241C79.5377 77.1526 79.1522 77.2169 78.7288 77.2169ZM84.3691 77.2169C83.9381 77.2169 83.5639 77.1451 83.2464 77.0014C82.9288 76.8578 82.6831 76.6536 82.5092 76.389C82.3353 76.1169 82.2484 75.8031 82.2484 75.4478C82.2484 75.1075 82.324 74.8051 82.4752 74.5405C82.6264 74.2683 82.8608 74.0415 83.1783 73.8601C83.4958 73.6786 83.8965 73.5501 84.3804 73.4745L86.3991 73.1456V74.2797L84.6639 74.5745C84.3691 74.6274 84.1498 74.722 84.0062 74.858C83.8625 74.9941 83.7907 75.1718 83.7907 75.3911C83.7907 75.6027 83.8701 75.7729 84.0289 75.9014C84.1952 76.0223 84.3993 76.0828 84.6413 76.0828C84.9512 76.0828 85.2234 76.0186 85.4578 75.89C85.6997 75.754 85.8849 75.5687 86.0135 75.3343C86.1496 75.1 86.2176 74.8429 86.2176 74.5632V72.9755C86.2176 72.7109 86.1118 72.4916 85.9001 72.3177C85.6959 72.1363 85.4238 72.0456 85.0835 72.0456C84.766 72.0456 84.4825 72.1325 84.233 72.3064C83.9911 72.4727 83.8134 72.6958 83.7 72.9755L82.4865 72.3858C82.6075 72.0607 82.7965 71.7809 83.0536 71.5466C83.3182 71.3046 83.6282 71.1156 83.9835 70.9795C84.3388 70.8434 84.7244 70.7754 85.1402 70.7754C85.6468 70.7754 86.0929 70.8699 86.4784 71.0589C86.864 71.2404 87.1627 71.4974 87.3744 71.8301C87.5936 72.1552 87.7032 72.537 87.7032 72.9755V77.0808H86.297V76.0261L86.6145 76.0034C86.4558 76.2681 86.2667 76.4911 86.0475 76.6725C85.8282 76.8464 85.5787 76.9825 85.299 77.0808C85.0193 77.1715 84.7093 77.2169 84.3691 77.2169ZM91.8208 77.2169C91.2084 77.2169 90.6565 77.077 90.165 76.7973C89.6812 76.51 89.2994 76.1244 89.0196 75.6405C88.7399 75.1491 88.6 74.5972 88.6 73.9848C88.6 73.3724 88.7399 72.8243 89.0196 72.3404C89.2994 71.8565 89.6812 71.4747 90.165 71.195C90.6565 70.9153 91.2084 70.7754 91.8208 70.7754C92.2593 70.7754 92.6675 70.8548 93.0456 71.0136C93.4236 71.1648 93.7487 71.3765 94.0209 71.6486C94.3006 71.9132 94.501 72.2308 94.6219 72.6013L93.3177 73.1683C93.2043 72.8583 93.0115 72.6088 92.7394 72.4198C92.4748 72.2308 92.1686 72.1363 91.8208 72.1363C91.4957 72.1363 91.2046 72.2157 90.9475 72.3744C90.698 72.5332 90.5015 72.7525 90.3578 73.0322C90.2142 73.3119 90.1424 73.6332 90.1424 73.9962C90.1424 74.3591 90.2142 74.6804 90.3578 74.9601C90.5015 75.2398 90.698 75.4591 90.9475 75.6179C91.2046 75.7766 91.4957 75.856 91.8208 75.856C92.1761 75.856 92.4861 75.7615 92.7507 75.5725C93.0153 75.3835 93.2043 75.1302 93.3177 74.8127L94.6219 75.4024C94.501 75.7502 94.3044 76.0639 94.0322 76.3437C93.76 76.6158 93.4349 76.8313 93.0569 76.9901C92.6789 77.1413 92.2668 77.2169 91.8208 77.2169ZM98.3348 77.1489C97.6393 77.1489 97.0987 76.9598 96.7131 76.5818C96.3351 76.1962 96.1461 75.6557 96.1461 74.9601V72.2383H95.0801V70.9115H95.1935C95.4959 70.9115 95.7303 70.8321 95.8966 70.6733C96.0629 70.5146 96.1461 70.284 96.1461 69.9816V69.5052H97.6317V70.9115H99.0493V72.2383H97.6317V74.8807C97.6317 75.0849 97.6657 75.2587 97.7338 75.4024C97.8094 75.546 97.9228 75.6557 98.074 75.7313C98.2328 75.8069 98.4331 75.8447 98.6751 75.8447C98.728 75.8447 98.7885 75.8409 98.8565 75.8333C98.9321 75.8258 99.0039 75.8182 99.072 75.8107V77.0808C98.9661 77.0959 98.8452 77.1111 98.7091 77.1262C98.573 77.1413 98.4482 77.1489 98.3348 77.1489ZM101.894 77.0808V68.632H103.096L107.746 74.8921L107.122 75.0168V68.632H108.664V77.0808H107.451L102.869 70.7754L103.436 70.6507V77.0808H101.894ZM111.819 77.2169C111.388 77.2169 111.014 77.1451 110.697 77.0014C110.379 76.8578 110.133 76.6536 109.959 76.389C109.785 76.1169 109.699 75.8031 109.699 75.4478C109.699 75.1075 109.774 74.8051 109.925 74.5405C110.077 74.2683 110.311 74.0415 110.628 73.8601C110.946 73.6786 111.347 73.5501 111.831 73.4745L113.849 73.1456V74.2797L112.114 74.5745C111.819 74.6274 111.6 74.722 111.456 74.858C111.313 74.9941 111.241 75.1718 111.241 75.3911C111.241 75.6027 111.32 75.7729 111.479 75.9014C111.645 76.0223 111.849 76.0828 112.091 76.0828C112.401 76.0828 112.674 76.0186 112.908 75.89C113.15 75.754 113.335 75.5687 113.464 75.3343C113.6 75.1 113.668 74.8429 113.668 74.5632V72.9755C113.668 72.7109 113.562 72.4916 113.35 72.3177C113.146 72.1363 112.874 72.0456 112.534 72.0456C112.216 72.0456 111.933 72.1325 111.683 72.3064C111.441 72.4727 111.264 72.6958 111.15 72.9755L109.937 72.3858C110.058 72.0607 110.247 71.7809 110.504 71.5466C110.768 71.3046 111.078 71.1156 111.434 70.9795C111.789 70.8434 112.175 70.7754 112.59 70.7754C113.097 70.7754 113.543 70.8699 113.929 71.0589C114.314 71.2404 114.613 71.4974 114.825 71.8301C115.044 72.1552 115.153 72.537 115.153 72.9755V77.0808H113.747V76.0261L114.065 76.0034C113.906 76.2681 113.717 76.4911 113.498 76.6725C113.278 76.8464 113.029 76.9825 112.749 77.0808C112.469 77.1715 112.159 77.2169 111.819 77.2169ZM119.001 77.1489C118.306 77.1489 117.765 76.9598 117.38 76.5818C117.002 76.1962 116.813 75.6557 116.813 74.9601V72.2383H115.747V70.9115H115.86C116.162 70.9115 116.397 70.8321 116.563 70.6733C116.729 70.5146 116.813 70.284 116.813 69.9816V69.5052H118.298V70.9115H119.716V72.2383H118.298V74.8807C118.298 75.0849 118.332 75.2587 118.4 75.4024C118.476 75.546 118.589 75.6557 118.741 75.7313C118.899 75.8069 119.1 75.8447 119.342 75.8447C119.395 75.8447 119.455 75.8409 119.523 75.8333C119.599 75.8258 119.671 75.8182 119.739 75.8107V77.0808C119.633 77.0959 119.512 77.1111 119.376 77.1262C119.24 77.1413 119.115 77.1489 119.001 77.1489ZM120.647 77.0808V70.9115H122.132V77.0808H120.647ZM120.647 70.2197V68.632H122.132V70.2197H120.647ZM125.137 77.0808L122.71 70.9115H124.332L126.09 75.7653H125.489L127.258 70.9115H128.88L126.453 77.0808H125.137ZM132.289 77.2169C131.654 77.2169 131.098 77.0733 130.622 76.786C130.146 76.4987 129.775 76.1093 129.511 75.6179C129.246 75.1264 129.114 74.5821 129.114 73.9848C129.114 73.3649 129.246 72.8167 129.511 72.3404C129.783 71.8565 130.149 71.4747 130.611 71.195C131.079 70.9153 131.601 70.7754 132.176 70.7754C132.659 70.7754 133.083 70.8548 133.446 71.0136C133.816 71.1723 134.13 71.3916 134.387 71.6713C134.644 71.9511 134.841 72.2724 134.977 72.6353C135.113 72.9906 135.181 73.3762 135.181 73.792C135.181 73.8979 135.173 74.0075 135.158 74.1209C135.151 74.2343 135.132 74.3326 135.102 74.4158H130.338V73.2817H134.262L133.559 73.8147C133.627 73.4669 133.608 73.1569 133.502 72.8848C133.404 72.6126 133.238 72.3971 133.003 72.2383C132.777 72.0796 132.501 72.0002 132.176 72.0002C131.866 72.0002 131.59 72.0796 131.348 72.2383C131.106 72.3896 130.921 72.6164 130.792 72.9188C130.671 73.2136 130.626 73.5728 130.656 73.9962C130.626 74.3742 130.675 74.7106 130.803 75.0055C130.939 75.2928 131.136 75.5158 131.393 75.6746C131.658 75.8333 131.96 75.9127 132.3 75.9127C132.641 75.9127 132.928 75.8409 133.162 75.6973C133.404 75.5536 133.593 75.3608 133.729 75.1189L134.931 75.7086C134.81 76.0034 134.621 76.2643 134.364 76.4911C134.107 76.7179 133.801 76.8956 133.446 77.0241C133.098 77.1526 132.712 77.2169 132.289 77.2169Z" fill="#FAFAFA"/>
<g clipPath="url(#clip1_12265_35982)">
<g filter="url(#filter1_i_12265_35982)">
<rect x="152.626" y="69.9978" width="192.319" height="5.67033" rx="2.83516" fill="url(#paint1_linear_12265_35982)"/>
<rect x="152.863" y="70.2341" width="191.846" height="5.1978" rx="2.5989" stroke="white" stroke-opacity="0.04" strokeWidth="0.472527"/>
</g>
<path d="M152.626 72.958C152.626 71.3921 153.896 70.1228 155.462 70.1228H212.637V75.7931H155.462C153.896 75.7931 152.626 74.5238 152.626 72.958Z" fill="#61DAFB"/>
</g>
<path d="M363.578 76.5808V70.0032L362.296 70.2981V69.4135L364.054 68.6423H364.825V76.5808H363.578ZM369.103 76.7169C368.581 76.7169 368.135 76.6148 367.765 76.4107C367.394 76.2066 367.103 75.9344 366.892 75.5942C366.688 75.254 366.563 74.8835 366.517 74.4828H367.64C367.708 74.8759 367.871 75.1783 368.128 75.39C368.385 75.6017 368.714 75.7076 369.114 75.7076C369.666 75.7076 370.12 75.4505 370.475 74.9364C370.838 74.4147 371.031 73.6171 371.054 72.5435C370.872 72.8762 370.589 73.1597 370.203 73.3941C369.825 73.6285 369.387 73.7456 368.888 73.7456C368.442 73.7456 368.022 73.6398 367.629 73.4281C367.236 73.2164 366.918 72.9216 366.676 72.5435C366.434 72.158 366.313 71.7043 366.313 71.1827C366.313 70.7215 366.427 70.2867 366.654 69.8785C366.88 69.4702 367.198 69.1413 367.606 68.8918C368.022 68.6348 368.513 68.5063 369.08 68.5063C369.663 68.5063 370.154 68.6159 370.555 68.8351C370.955 69.0544 371.277 69.3455 371.519 69.7084C371.761 70.0713 371.935 70.4795 372.04 70.9332C372.154 71.3868 372.21 71.8518 372.21 72.3281C372.21 73.2051 372.086 73.9725 371.836 74.6302C371.594 75.288 371.243 75.8021 370.782 76.1725C370.32 76.5354 369.761 76.7169 369.103 76.7169ZM369.16 72.7136C369.477 72.7136 369.761 72.6418 370.01 72.4982C370.26 72.3545 370.456 72.1655 370.6 71.9311C370.751 71.6892 370.827 71.4246 370.827 71.1373C370.827 70.8273 370.751 70.5551 370.6 70.3208C370.456 70.0788 370.256 69.8898 369.999 69.7537C369.75 69.6176 369.466 69.5496 369.149 69.5496C368.831 69.5496 368.547 69.6176 368.298 69.7537C368.048 69.8898 367.848 70.0788 367.697 70.3208C367.553 70.5551 367.481 70.8235 367.481 71.126C367.481 71.6098 367.64 71.9954 367.958 72.2827C368.275 72.57 368.676 72.7136 369.16 72.7136ZM376.371 76.7169C375.811 76.7169 375.327 76.6186 374.919 76.422C374.511 76.2179 374.186 75.942 373.944 75.5942C373.709 75.2388 373.566 74.8381 373.513 74.3921H374.692C374.768 74.7701 374.957 75.0838 375.259 75.3333C375.562 75.5753 375.936 75.6962 376.382 75.6962C376.715 75.6962 377.002 75.6169 377.244 75.4581C377.486 75.2918 377.675 75.0725 377.811 74.8003C377.947 74.5282 378.015 74.222 378.015 73.8817C378.015 73.3449 377.864 72.9178 377.561 72.6002C377.259 72.2751 376.877 72.1126 376.416 72.1126C376.023 72.1126 375.686 72.2071 375.407 72.3961C375.127 72.5776 374.923 72.8082 374.794 73.0879H373.649L374.329 68.6423H378.616V69.697H375.237L374.828 71.8177C375.002 71.6212 375.24 71.4586 375.543 71.3301C375.853 71.194 376.201 71.126 376.586 71.126C377.123 71.126 377.584 71.2507 377.97 71.5002C378.355 71.7421 378.65 72.071 378.854 72.4868C379.066 72.9027 379.172 73.3638 379.172 73.8704C379.172 74.3996 379.058 74.8797 378.832 75.3107C378.605 75.7416 378.28 76.0856 377.856 76.3427C377.44 76.5922 376.945 76.7169 376.371 76.7169ZM383.404 76.5808V70.9558H384.47L384.572 71.7497C384.753 71.4624 384.991 71.2356 385.286 71.0692C385.589 70.9029 385.936 70.8198 386.33 70.8198C387.222 70.8198 387.842 71.1713 388.189 71.8744C388.394 71.5493 388.666 71.2923 389.006 71.1033C389.354 70.9143 389.728 70.8198 390.129 70.8198C390.832 70.8198 391.384 71.0314 391.784 71.4548C392.185 71.8782 392.386 72.5095 392.386 73.3487V76.5808H391.183V73.4735C391.183 72.3848 390.768 71.8404 389.936 71.8404C389.513 71.8404 389.165 71.9992 388.893 72.3167C388.628 72.6343 388.496 73.0879 388.496 73.6776V76.5808H387.294V73.4735C387.294 72.3848 386.874 71.8404 386.035 71.8404C385.619 71.8404 385.275 71.9992 385.003 72.3167C384.738 72.6343 384.606 73.0879 384.606 73.6776V76.5808H383.404ZM396.037 76.7169C395.327 76.7169 394.741 76.543 394.28 76.1952C393.818 75.8474 393.554 75.3863 393.486 74.8117H394.699C394.76 75.0687 394.903 75.2918 395.13 75.4808C395.357 75.6622 395.656 75.7529 396.026 75.7529C396.389 75.7529 396.654 75.6773 396.82 75.5261C396.986 75.3749 397.069 75.201 397.069 75.0045C397.069 74.7172 396.952 74.5244 396.718 74.4261C396.491 74.3202 396.173 74.2257 395.765 74.1426C395.448 74.0745 395.13 73.9838 394.813 73.8704C394.503 73.757 394.242 73.5982 394.03 73.3941C393.826 73.1824 393.724 72.8989 393.724 72.5435C393.724 72.0521 393.913 71.6438 394.291 71.3187C394.669 70.9861 395.198 70.8198 395.879 70.8198C396.506 70.8198 397.013 70.971 397.398 71.2734C397.791 71.5758 398.022 72.003 398.09 72.5549H396.933C396.896 72.3129 396.782 72.1239 396.593 71.9878C396.412 71.8518 396.166 71.7837 395.856 71.7837C395.554 71.7837 395.319 71.848 395.153 71.9765C394.986 72.0975 394.903 72.2562 394.903 72.4528C394.903 72.6494 395.017 72.8044 395.244 72.9178C395.478 73.0312 395.784 73.1332 396.162 73.224C396.54 73.3071 396.888 73.4054 397.205 73.5188C397.531 73.6247 397.791 73.7834 397.988 73.9951C398.185 74.2068 398.283 74.5168 398.283 74.9251C398.29 75.4392 398.09 75.8663 397.682 76.2066C397.281 76.5468 396.733 76.7169 396.037 76.7169Z" fill="#A3A3A3"/>
<path d="M93.2072 112.571V105.483H91.0184V104.122H96.9156V105.483H94.7608V112.571H93.2072ZM98.7008 112.707C98.2699 112.707 97.8957 112.635 97.5781 112.491C97.2606 112.348 97.0149 112.143 96.841 111.879C96.6671 111.607 96.5801 111.293 96.5801 110.938C96.5801 110.597 96.6557 110.295 96.8069 110.03C96.9582 109.758 97.1925 109.531 97.5101 109.35C97.8276 109.168 98.2283 109.04 98.7122 108.964L100.731 108.635V109.769L98.9957 110.064C98.7008 110.117 98.4816 110.212 98.3379 110.348C98.1943 110.484 98.1225 110.662 98.1225 110.881C98.1225 111.092 98.2018 111.263 98.3606 111.391C98.5269 111.512 98.7311 111.573 98.973 111.573C99.283 111.573 99.5552 111.508 99.7895 111.38C100.031 111.244 100.217 111.058 100.345 110.824C100.481 110.59 100.549 110.333 100.549 110.053V108.465C100.549 108.201 100.444 107.981 100.232 107.807C100.028 107.626 99.7555 107.535 99.4153 107.535C99.0978 107.535 98.8142 107.622 98.5647 107.796C98.3228 107.962 98.1451 108.186 98.0317 108.465L96.8183 107.876C96.9393 107.55 97.1283 107.271 97.3853 107.036C97.6499 106.794 97.9599 106.605 98.3153 106.469C98.6706 106.333 99.0562 106.265 99.472 106.265C99.9786 106.265 100.425 106.36 100.81 106.549C101.196 106.73 101.494 106.987 101.706 107.32C101.925 107.645 102.035 108.027 102.035 108.465V112.571H100.629V111.516L100.946 111.493C100.788 111.758 100.599 111.981 100.379 112.162C100.16 112.336 99.9105 112.472 99.6308 112.571C99.351 112.661 99.0411 112.707 98.7008 112.707ZM103.181 112.571V106.401H104.576V107.83L104.417 107.592C104.531 107.146 104.758 106.813 105.098 106.594C105.438 106.375 105.839 106.265 106.3 106.265C106.807 106.265 107.253 106.397 107.638 106.662C108.024 106.927 108.273 107.274 108.387 107.705L107.967 107.739C108.156 107.248 108.44 106.881 108.818 106.639C109.196 106.39 109.63 106.265 110.122 106.265C110.56 106.265 110.95 106.363 111.29 106.56C111.638 106.757 111.91 107.033 112.106 107.388C112.303 107.736 112.401 108.14 112.401 108.601V112.571H110.916V108.953C110.916 108.681 110.866 108.446 110.768 108.25C110.67 108.053 110.534 107.902 110.36 107.796C110.186 107.683 109.974 107.626 109.725 107.626C109.49 107.626 109.283 107.683 109.101 107.796C108.92 107.902 108.78 108.053 108.682 108.25C108.583 108.446 108.534 108.681 108.534 108.953V112.571H107.048V108.953C107.048 108.681 106.999 108.446 106.901 108.25C106.803 108.053 106.663 107.902 106.481 107.796C106.308 107.683 106.1 107.626 105.858 107.626C105.623 107.626 105.415 107.683 105.234 107.796C105.052 107.902 104.913 108.053 104.814 108.25C104.716 108.446 104.667 108.681 104.667 108.953V112.571H103.181ZM115.302 112.707C114.872 112.707 114.497 112.635 114.18 112.491C113.862 112.348 113.617 112.143 113.443 111.879C113.269 111.607 113.182 111.293 113.182 110.938C113.182 110.597 113.257 110.295 113.409 110.03C113.56 109.758 113.794 109.531 114.112 109.35C114.429 109.168 114.83 109.04 115.314 108.964L117.332 108.635V109.769L115.597 110.064C115.302 110.117 115.083 110.212 114.94 110.348C114.796 110.484 114.724 110.662 114.724 110.881C114.724 111.092 114.804 111.263 114.962 111.391C115.129 111.512 115.333 111.573 115.575 111.573C115.885 111.573 116.157 111.508 116.391 111.38C116.633 111.244 116.818 111.058 116.947 110.824C117.083 110.59 117.151 110.333 117.151 110.053V108.465C117.151 108.201 117.045 107.981 116.833 107.807C116.629 107.626 116.357 107.535 116.017 107.535C115.699 107.535 115.416 107.622 115.166 107.796C114.924 107.962 114.747 108.186 114.633 108.465L113.42 107.876C113.541 107.55 113.73 107.271 113.987 107.036C114.252 106.794 114.562 106.605 114.917 106.469C115.272 106.333 115.658 106.265 116.074 106.265C116.58 106.265 117.026 106.36 117.412 106.549C117.797 106.73 118.096 106.987 118.308 107.32C118.527 107.645 118.637 108.027 118.637 108.465V112.571H117.23V111.516L117.548 111.493C117.389 111.758 117.2 111.981 116.981 112.162C116.762 112.336 116.512 112.472 116.232 112.571C115.953 112.661 115.643 112.707 115.302 112.707ZM122.777 115.066C122.316 115.066 121.889 114.99 121.495 114.839C121.102 114.687 120.762 114.476 120.475 114.204C120.195 113.939 119.991 113.625 119.862 113.262L121.246 112.741C121.337 113.028 121.514 113.259 121.779 113.432C122.051 113.614 122.384 113.705 122.777 113.705C123.079 113.705 123.344 113.648 123.571 113.535C123.805 113.421 123.987 113.255 124.115 113.036C124.244 112.824 124.308 112.567 124.308 112.264V110.858L124.591 111.198C124.38 111.569 124.096 111.849 123.741 112.038C123.386 112.227 122.981 112.321 122.527 112.321C121.953 112.321 121.439 112.189 120.985 111.924C120.531 111.66 120.176 111.297 119.919 110.835C119.662 110.374 119.533 109.856 119.533 109.282C119.533 108.7 119.662 108.182 119.919 107.728C120.176 107.274 120.528 106.919 120.974 106.662C121.42 106.397 121.926 106.265 122.493 106.265C122.955 106.265 123.359 106.363 123.707 106.56C124.062 106.749 124.357 107.025 124.591 107.388L124.387 107.762V106.401H125.794V112.264C125.794 112.801 125.661 113.281 125.397 113.705C125.14 114.128 124.784 114.461 124.331 114.703C123.884 114.945 123.367 115.066 122.777 115.066ZM122.709 110.949C123.026 110.949 123.302 110.881 123.537 110.745C123.779 110.601 123.968 110.404 124.104 110.155C124.24 109.906 124.308 109.618 124.308 109.293C124.308 108.976 124.236 108.692 124.092 108.443C123.956 108.186 123.767 107.985 123.525 107.842C123.291 107.698 123.019 107.626 122.709 107.626C122.399 107.626 122.119 107.698 121.87 107.842C121.62 107.985 121.424 108.186 121.28 108.443C121.144 108.692 121.076 108.976 121.076 109.293C121.076 109.611 121.144 109.894 121.28 110.144C121.424 110.393 121.616 110.59 121.858 110.733C122.108 110.877 122.391 110.949 122.709 110.949ZM129.154 112.707C128.678 112.707 128.262 112.601 127.907 112.389C127.559 112.177 127.291 111.883 127.102 111.505C126.92 111.127 126.829 110.684 126.829 110.178V106.401H128.315V110.053C128.315 110.31 128.364 110.537 128.462 110.733C128.568 110.922 128.716 111.074 128.905 111.187C129.101 111.293 129.321 111.346 129.562 111.346C129.804 111.346 130.02 111.293 130.209 111.187C130.398 111.074 130.545 110.919 130.651 110.722C130.757 110.525 130.81 110.291 130.81 110.019V106.401H132.296V112.571H130.889V111.357L131.014 111.573C130.87 111.951 130.632 112.234 130.3 112.423C129.975 112.612 129.593 112.707 129.154 112.707ZM133.45 112.571V106.401H134.935V112.571H133.45ZM133.45 105.709V104.122H134.935V105.709H133.45Z" fill="#FAFAFA"/>
<g clipPath="url(#clip2_12265_35982)">
<g filter="url(#filter2_i_12265_35982)">
<rect x="152.626" y="105.433" width="192.319" height="5.67033" rx="2.83516" fill="url(#paint2_linear_12265_35982)"/>
<rect x="152.863" y="105.669" width="191.846" height="5.1978" rx="2.5989" stroke="white" stroke-opacity="0.04" strokeWidth="0.472527"/>
</g>
<path d="M153.001 107.995C153.001 106.339 154.345 104.995 156.001 104.995H324.001V110.995H156.001C154.345 110.995 153.001 109.652 153.001 107.995Z" fill="#D6409F"/>
</g>
<path d="M365.528 112.207C364.969 112.207 364.485 112.108 364.077 111.912C363.668 111.708 363.343 111.432 363.101 111.084C362.867 110.729 362.723 110.328 362.671 109.882H363.85C363.926 110.26 364.115 110.574 364.417 110.823C364.719 111.065 365.094 111.186 365.54 111.186C365.872 111.186 366.16 111.107 366.402 110.948C366.644 110.782 366.833 110.562 366.969 110.29C367.105 110.018 367.173 109.712 367.173 109.371C367.173 108.835 367.022 108.408 366.719 108.09C366.417 107.765 366.035 107.602 365.574 107.602C365.181 107.602 364.844 107.697 364.564 107.886C364.285 108.067 364.081 108.298 363.952 108.578H362.807L363.487 104.132H367.774V105.187H364.394L363.986 107.307C364.16 107.111 364.398 106.948 364.7 106.82C365.01 106.684 365.358 106.616 365.744 106.616C366.281 106.616 366.742 106.74 367.127 106.99C367.513 107.232 367.808 107.561 368.012 107.977C368.224 108.392 368.33 108.854 368.33 109.36C368.33 109.889 368.216 110.369 367.989 110.8C367.762 111.231 367.437 111.575 367.014 111.832C366.598 112.082 366.103 112.207 365.528 112.207ZM372.29 112.207C371.776 112.207 371.307 112.116 370.884 111.934C370.468 111.745 370.135 111.462 369.886 111.084C369.636 110.706 369.504 110.233 369.489 109.666H370.679C370.695 110.09 370.838 110.449 371.11 110.744C371.39 111.031 371.783 111.175 372.29 111.175C372.774 111.175 373.144 111.042 373.401 110.778C373.658 110.506 373.787 110.169 373.787 109.768C373.787 109.285 373.613 108.925 373.265 108.691C372.925 108.457 372.505 108.339 372.006 108.339H371.417V107.342H372.018C372.464 107.342 372.823 107.236 373.095 107.024C373.375 106.812 373.515 106.514 373.515 106.128C373.515 105.803 373.405 105.538 373.186 105.334C372.974 105.13 372.672 105.028 372.278 105.028C371.87 105.028 371.549 105.149 371.314 105.391C371.08 105.625 370.952 105.92 370.929 106.275H369.738C369.753 105.814 369.867 105.414 370.078 105.073C370.298 104.733 370.596 104.469 370.974 104.28C371.352 104.091 371.787 103.996 372.278 103.996C372.808 103.996 373.25 104.091 373.605 104.28C373.968 104.461 374.24 104.71 374.422 105.028C374.611 105.338 374.705 105.678 374.705 106.049C374.705 106.472 374.588 106.843 374.354 107.16C374.119 107.478 373.806 107.689 373.413 107.795C373.866 107.893 374.24 108.116 374.535 108.464C374.83 108.804 374.978 109.247 374.978 109.791C374.978 110.23 374.875 110.634 374.671 111.005C374.467 111.367 374.165 111.659 373.764 111.878C373.363 112.097 372.872 112.207 372.29 112.207ZM379.001 112.207C378.487 112.207 378.018 112.116 377.595 111.934C377.179 111.745 376.846 111.462 376.597 111.084C376.347 110.706 376.215 110.233 376.2 109.666H377.391C377.406 110.09 377.55 110.449 377.822 110.744C378.101 111.031 378.495 111.175 379.001 111.175C379.485 111.175 379.855 111.042 380.113 110.778C380.37 110.506 380.498 110.169 380.498 109.768C380.498 109.285 380.324 108.925 379.976 108.691C379.636 108.457 379.217 108.339 378.718 108.339H378.128V107.342H378.729C379.175 107.342 379.534 107.236 379.806 107.024C380.086 106.812 380.226 106.514 380.226 106.128C380.226 105.803 380.116 105.538 379.897 105.334C379.685 105.13 379.383 105.028 378.99 105.028C378.582 105.028 378.26 105.149 378.026 105.391C377.791 105.625 377.663 105.92 377.64 106.275H376.45C376.465 105.814 376.578 105.414 376.79 105.073C377.009 104.733 377.308 104.469 377.686 104.28C378.064 104.091 378.498 103.996 378.99 103.996C379.519 103.996 379.961 104.091 380.317 104.28C380.68 104.461 380.952 104.71 381.133 105.028C381.322 105.338 381.417 105.678 381.417 106.049C381.417 106.472 381.3 106.843 381.065 107.16C380.831 107.478 380.517 107.689 380.124 107.795C380.578 107.893 380.952 108.116 381.247 108.464C381.541 108.804 381.689 109.247 381.689 109.791C381.689 110.23 381.587 110.634 381.383 111.005C381.179 111.367 380.876 111.659 380.475 111.878C380.075 112.097 379.583 112.207 379.001 112.207ZM385.984 112.071V106.446H387.05L387.152 107.239C387.334 106.952 387.572 106.725 387.867 106.559C388.169 106.393 388.517 106.31 388.91 106.31C389.802 106.31 390.422 106.661 390.77 107.364C390.974 107.039 391.246 106.782 391.586 106.593C391.934 106.404 392.308 106.31 392.709 106.31C393.412 106.31 393.964 106.521 394.365 106.945C394.766 107.368 394.966 107.999 394.966 108.838V112.071H393.764V108.963C393.764 107.875 393.348 107.33 392.516 107.33C392.093 107.33 391.745 107.489 391.473 107.806C391.208 108.124 391.076 108.578 391.076 109.167V112.071H389.874V108.963C389.874 107.875 389.454 107.33 388.615 107.33C388.199 107.33 387.855 107.489 387.583 107.806C387.319 108.124 387.186 108.578 387.186 109.167V112.071H385.984ZM398.618 112.207C397.907 112.207 397.321 112.033 396.86 111.685C396.399 111.337 396.134 110.876 396.066 110.301H397.28C397.34 110.558 397.484 110.782 397.711 110.971C397.937 111.152 398.236 111.243 398.606 111.243C398.969 111.243 399.234 111.167 399.4 111.016C399.567 110.865 399.65 110.691 399.65 110.494C399.65 110.207 399.533 110.014 399.298 109.916C399.071 109.81 398.754 109.715 398.346 109.632C398.028 109.564 397.711 109.474 397.393 109.36C397.083 109.247 396.822 109.088 396.611 108.884C396.406 108.672 396.304 108.389 396.304 108.033C396.304 107.542 396.493 107.134 396.871 106.808C397.249 106.476 397.779 106.31 398.459 106.31C399.087 106.31 399.593 106.461 399.979 106.763C400.372 107.066 400.602 107.493 400.67 108.045H399.514C399.476 107.803 399.363 107.614 399.174 107.478C398.992 107.342 398.746 107.273 398.436 107.273C398.134 107.273 397.9 107.338 397.733 107.466C397.567 107.587 397.484 107.746 397.484 107.943C397.484 108.139 397.597 108.294 397.824 108.408C398.058 108.521 398.365 108.623 398.743 108.714C399.121 108.797 399.468 108.895 399.786 109.009C400.111 109.114 400.372 109.273 400.568 109.485C400.765 109.697 400.863 110.007 400.863 110.415C400.871 110.929 400.67 111.356 400.262 111.696C399.862 112.037 399.313 112.207 398.618 112.207Z" fill="#A3A3A3"/>
<path d="M32.506 148.196C31.9692 148.196 31.4703 148.098 31.0091 147.902C30.5554 147.705 30.1623 147.433 29.8296 147.085C29.5045 146.73 29.2664 146.318 29.1152 145.849L30.3967 145.293C30.6008 145.777 30.8957 146.159 31.2812 146.439C31.6668 146.711 32.1015 146.847 32.5854 146.847C32.8576 146.847 33.092 146.805 33.2885 146.722C33.4927 146.631 33.6477 146.51 33.7535 146.359C33.8669 146.208 33.9236 146.027 33.9236 145.815C33.9236 145.565 33.848 145.361 33.6968 145.202C33.5532 145.036 33.3339 144.908 33.039 144.817L31.4173 144.295C30.7596 144.091 30.2644 143.785 29.9317 143.377C29.599 142.968 29.4327 142.488 29.4327 141.936C29.4327 141.452 29.5499 141.025 29.7843 140.655C30.0262 140.284 30.3589 139.997 30.7823 139.793C31.2132 139.581 31.7046 139.475 32.2565 139.475C32.7631 139.475 33.2281 139.566 33.6514 139.748C34.0748 139.921 34.4377 140.167 34.7401 140.485C35.0501 140.795 35.2807 141.161 35.4319 141.585L34.1618 142.152C33.9954 141.728 33.7459 141.403 33.4133 141.177C33.0806 140.942 32.695 140.825 32.2565 140.825C31.9995 140.825 31.7727 140.87 31.5761 140.961C31.3795 141.044 31.2245 141.165 31.1111 141.324C31.0053 141.475 30.9524 141.657 30.9524 141.868C30.9524 142.103 31.028 142.311 31.1792 142.492C31.3304 142.666 31.561 142.802 31.871 142.9L33.4246 143.388C34.0975 143.607 34.6003 143.91 34.9329 144.295C35.2732 144.681 35.4433 145.157 35.4433 145.724C35.4433 146.208 35.3185 146.635 35.069 147.006C34.8195 147.376 34.4755 147.667 34.037 147.879C33.5985 148.091 33.0882 148.196 32.506 148.196ZM39.293 148.128C38.5974 148.128 38.0568 147.939 37.6713 147.561C37.2932 147.176 37.1042 146.635 37.1042 145.94V143.218H36.0382V141.891H36.1516C36.454 141.891 36.6884 141.812 36.8547 141.653C37.0211 141.494 37.1042 141.263 37.1042 140.961V140.485H38.5899V141.891H40.0074V143.218H38.5899V145.86C38.5899 146.064 38.6239 146.238 38.6919 146.382C38.7675 146.526 38.8809 146.635 39.0321 146.711C39.1909 146.786 39.3913 146.824 39.6332 146.824C39.6861 146.824 39.7466 146.82 39.8146 146.813C39.8902 146.805 39.9621 146.798 40.0301 146.79V148.06C39.9243 148.075 39.8033 148.091 39.6672 148.106C39.5311 148.121 39.4064 148.128 39.293 148.128ZM41.6868 150.555C41.5205 150.555 41.3579 150.54 41.1992 150.51C41.0404 150.487 40.8968 150.442 40.7682 150.374V149.138C40.8665 149.16 40.9837 149.183 41.1198 149.206C41.2634 149.228 41.3958 149.24 41.5167 149.24C41.8569 149.24 42.1027 149.16 42.2539 149.002C42.4126 148.85 42.5525 148.646 42.6735 148.389L43.0817 147.437L43.059 148.684L40.3713 141.891H41.9703L43.8529 146.904H43.2859L45.1571 141.891H46.7674L44.0797 148.684C43.9209 149.077 43.7281 149.414 43.5013 149.693C43.2745 149.973 43.0099 150.185 42.7075 150.328C42.4126 150.48 42.0724 150.555 41.6868 150.555ZM47.3564 148.06V139.475H48.8421V148.06H47.3564ZM52.9128 148.196C52.2778 148.196 51.7221 148.053 51.2458 147.765C50.7695 147.478 50.399 147.089 50.1344 146.597C49.8698 146.106 49.7375 145.562 49.7375 144.964C49.7375 144.344 49.8698 143.796 50.1344 143.32C50.4066 142.836 50.7732 142.454 51.2344 142.175C51.7032 141.895 52.2248 141.755 52.7994 141.755C53.2833 141.755 53.7067 141.834 54.0696 141.993C54.44 142.152 54.7538 142.371 55.0109 142.651C55.2679 142.931 55.4645 143.252 55.6006 143.615C55.7367 143.97 55.8047 144.356 55.8047 144.772C55.8047 144.877 55.7971 144.987 55.782 145.1C55.7745 145.214 55.7556 145.312 55.7253 145.395H50.9622V144.261H54.8861L54.183 144.794C54.251 144.446 54.2321 144.136 54.1263 143.864C54.028 143.592 53.8617 143.377 53.6273 143.218C53.4005 143.059 53.1245 142.98 52.7994 142.98C52.4895 142.98 52.2135 143.059 51.9716 143.218C51.7296 143.369 51.5444 143.596 51.4159 143.898C51.2949 144.193 51.2495 144.552 51.2798 144.976C51.2495 145.354 51.2987 145.69 51.4272 145.985C51.5633 146.272 51.7599 146.495 52.0169 146.654C52.2815 146.813 52.584 146.892 52.9242 146.892C53.2644 146.892 53.5517 146.82 53.7861 146.677C54.028 146.533 54.217 146.34 54.3531 146.098L55.5552 146.688C55.4342 146.983 55.2452 147.244 54.9882 147.471C54.7311 147.697 54.4249 147.875 54.0696 148.004C53.7218 148.132 53.3362 148.196 52.9128 148.196ZM59.5733 148.196C58.976 148.196 58.443 148.057 57.9742 147.777C57.5055 147.489 57.135 147.1 56.8628 146.609C56.5907 146.117 56.4546 145.573 56.4546 144.976C56.4546 144.371 56.5907 143.826 56.8628 143.343C57.135 142.859 57.5055 142.473 57.9742 142.186C58.4505 141.899 58.9798 141.755 59.5619 141.755C60.0307 141.755 60.4465 141.849 60.8094 142.038C61.1799 142.22 61.4709 142.477 61.6826 142.81L61.4558 143.116V139.475H62.9414V148.06H61.5352V146.87L61.694 147.164C61.4823 147.497 61.1874 147.754 60.8094 147.936C60.4314 148.109 60.0193 148.196 59.5733 148.196ZM59.732 146.836C60.0723 146.836 60.3709 146.756 60.6279 146.597C60.885 146.439 61.0853 146.219 61.229 145.94C61.3802 145.66 61.4558 145.339 61.4558 144.976C61.4558 144.62 61.3802 144.303 61.229 144.023C61.0853 143.736 60.885 143.513 60.6279 143.354C60.3709 143.195 60.0723 143.116 59.732 143.116C59.3994 143.116 59.1007 143.199 58.8361 143.365C58.5715 143.524 58.3636 143.743 58.2124 144.023C58.0687 144.295 57.9969 144.613 57.9969 144.976C57.9969 145.339 58.0687 145.66 58.2124 145.94C58.3636 146.219 58.5715 146.439 58.8361 146.597C59.1007 146.756 59.3994 146.836 59.732 146.836ZM69.9796 148.196C69.3747 148.196 68.8152 148.087 68.3011 147.868C67.7946 147.648 67.3485 147.342 66.9629 146.949C66.5849 146.556 66.2901 146.095 66.0784 145.565C65.8667 145.036 65.7608 144.458 65.7608 143.83C65.7608 143.203 65.8629 142.624 66.067 142.095C66.2787 141.558 66.5736 141.097 66.9516 140.712C67.3372 140.318 67.787 140.016 68.3011 139.804C68.8152 139.585 69.3747 139.475 69.9796 139.475C70.5844 139.475 71.125 139.577 71.6013 139.782C72.0851 139.986 72.4934 140.258 72.8261 140.598C73.1587 140.931 73.3969 141.297 73.5405 141.698L72.157 142.345C71.9982 141.921 71.7298 141.573 71.3518 141.301C70.9738 141.022 70.5163 140.882 69.9796 140.882C69.4503 140.882 68.9816 141.006 68.5733 141.256C68.1726 141.505 67.8589 141.849 67.632 142.288C67.4128 142.726 67.3032 143.241 67.3032 143.83C67.3032 144.42 67.4128 144.938 67.632 145.384C67.8589 145.822 68.1726 146.166 68.5733 146.416C68.9816 146.665 69.4503 146.79 69.9796 146.79C70.5163 146.79 70.9738 146.654 71.3518 146.382C71.7298 146.102 71.9982 145.751 72.157 145.327L73.5405 145.974C73.3969 146.374 73.1587 146.745 72.8261 147.085C72.4934 147.418 72.0851 147.686 71.6013 147.89C71.125 148.094 70.5844 148.196 69.9796 148.196ZM77.347 148.196C76.7422 148.196 76.1903 148.057 75.6913 147.777C75.1998 147.497 74.8067 147.115 74.5118 146.631C74.2245 146.148 74.0809 145.596 74.0809 144.976C74.0809 144.356 74.2245 143.804 74.5118 143.32C74.8067 142.836 75.1998 142.454 75.6913 142.175C76.1827 141.895 76.7346 141.755 77.347 141.755C77.9518 141.755 78.5 141.895 78.9914 142.175C79.4828 142.454 79.8722 142.836 80.1595 143.32C80.4543 143.796 80.6018 144.348 80.6018 144.976C80.6018 145.596 80.4543 146.148 80.1595 146.631C79.8646 147.115 79.4715 147.497 78.9801 147.777C78.4886 148.057 77.9443 148.196 77.347 148.196ZM77.347 146.836C77.6797 146.836 77.9707 146.756 78.2202 146.597C78.4773 146.439 78.6776 146.219 78.8213 145.94C78.9725 145.652 79.0481 145.331 79.0481 144.976C79.0481 144.613 78.9725 144.295 78.8213 144.023C78.6776 143.743 78.4773 143.524 78.2202 143.365C77.9707 143.199 77.6797 143.116 77.347 143.116C77.0068 143.116 76.7081 143.199 76.4511 143.365C76.194 143.524 75.9899 143.743 75.8387 144.023C75.695 144.295 75.6232 144.613 75.6232 144.976C75.6232 145.331 75.695 145.652 75.8387 145.94C75.9899 146.219 76.194 146.439 76.4511 146.597C76.7081 146.756 77.0068 146.836 77.347 146.836ZM81.5016 148.06V141.891H82.8965V143.32L82.7377 143.082C82.8511 142.636 83.0779 142.303 83.4182 142.084C83.7584 141.865 84.1591 141.755 84.6203 141.755C85.1268 141.755 85.5729 141.887 85.9585 142.152C86.344 142.416 86.5935 142.764 86.7069 143.195L86.2873 143.229C86.4763 142.738 86.7599 142.371 87.1379 142.129C87.5159 141.88 87.9506 141.755 88.4421 141.755C88.8806 141.755 89.2699 141.853 89.6102 142.05C89.9579 142.246 90.2301 142.522 90.4267 142.878C90.6232 143.225 90.7215 143.63 90.7215 144.091V148.06H89.2359V144.443C89.2359 144.17 89.1868 143.936 89.0885 143.74C88.9902 143.543 88.8541 143.392 88.6802 143.286C88.5063 143.172 88.2946 143.116 88.0451 143.116C87.8108 143.116 87.6029 143.172 87.4214 143.286C87.24 143.392 87.1001 143.543 87.0018 143.74C86.9035 143.936 86.8544 144.17 86.8544 144.443V148.06H85.3687V144.443C85.3687 144.17 85.3196 143.936 85.2213 143.74C85.123 143.543 84.9832 143.392 84.8017 143.286C84.6278 143.172 84.4199 143.116 84.178 143.116C83.9436 143.116 83.7357 143.172 83.5542 143.286C83.3728 143.392 83.2329 143.543 83.1346 143.74C83.0363 143.936 82.9872 144.17 82.9872 144.443V148.06H81.5016ZM91.7516 150.328V141.891H93.1465V143.116L93.0104 142.81C93.2221 142.477 93.5094 142.22 93.8723 142.038C94.2352 141.849 94.6548 141.755 95.1311 141.755C95.7133 141.755 96.2387 141.899 96.7075 142.186C97.1762 142.473 97.5467 142.859 97.8188 143.343C98.0986 143.826 98.2384 144.371 98.2384 144.976C98.2384 145.573 98.1024 146.117 97.8302 146.609C97.558 147.1 97.1875 147.489 96.7188 147.777C96.25 148.057 95.717 148.196 95.1198 148.196C94.6737 148.196 94.2617 148.109 93.8836 147.936C93.5132 147.754 93.2183 147.497 92.9991 147.164L93.2372 146.87V150.328H91.7516ZM94.9497 146.836C95.2899 146.836 95.5923 146.756 95.8569 146.597C96.1215 146.439 96.3257 146.219 96.4693 145.94C96.6205 145.66 96.6961 145.339 96.6961 144.976C96.6961 144.613 96.6205 144.295 96.4693 144.023C96.3257 143.743 96.1215 143.524 95.8569 143.365C95.5923 143.199 95.2899 143.116 94.9497 143.116C94.6246 143.116 94.3297 143.195 94.0651 143.354C93.808 143.513 93.6039 143.736 93.4527 144.023C93.309 144.303 93.2372 144.62 93.2372 144.976C93.2372 145.339 93.309 145.66 93.4527 145.94C93.6039 146.219 93.808 146.439 94.0651 146.597C94.3297 146.756 94.6246 146.836 94.9497 146.836ZM102.161 148.196C101.556 148.196 101.004 148.057 100.505 147.777C100.014 147.497 99.6206 147.115 99.3257 146.631C99.0384 146.148 98.8948 145.596 98.8948 144.976C98.8948 144.356 99.0384 143.804 99.3257 143.32C99.6206 142.836 100.014 142.454 100.505 142.175C100.997 141.895 101.548 141.755 102.161 141.755C102.766 141.755 103.314 141.895 103.805 142.175C104.297 142.454 104.686 142.836 104.973 143.32C105.268 143.796 105.416 144.348 105.416 144.976C105.416 145.596 105.268 146.148 104.973 146.631C104.679 147.115 104.285 147.497 103.794 147.777C103.303 148.057 102.758 148.196 102.161 148.196ZM102.161 146.836C102.494 146.836 102.785 146.756 103.034 146.597C103.291 146.439 103.492 146.219 103.635 145.94C103.786 145.652 103.862 145.331 103.862 144.976C103.862 144.613 103.786 144.295 103.635 144.023C103.492 143.743 103.291 143.524 103.034 143.365C102.785 143.199 102.494 143.116 102.161 143.116C101.821 143.116 101.522 143.199 101.265 143.365C101.008 143.524 100.804 143.743 100.653 144.023C100.509 144.295 100.437 144.613 100.437 144.976C100.437 145.331 100.509 145.652 100.653 145.94C100.804 146.219 101.008 146.439 101.265 146.597C101.522 146.756 101.821 146.836 102.161 146.836ZM106.315 148.06V141.891H107.71V143.104L107.597 142.889C107.741 142.519 107.975 142.239 108.3 142.05C108.633 141.853 109.018 141.755 109.457 141.755C109.91 141.755 110.311 141.853 110.659 142.05C111.014 142.246 111.29 142.522 111.487 142.878C111.683 143.225 111.782 143.63 111.782 144.091V148.06H110.296V144.443C110.296 144.17 110.243 143.936 110.137 143.74C110.031 143.543 109.884 143.392 109.695 143.286C109.514 143.172 109.298 143.116 109.049 143.116C108.807 143.116 108.591 143.172 108.402 143.286C108.213 143.392 108.066 143.543 107.96 143.74C107.854 143.936 107.801 144.17 107.801 144.443V148.06H106.315ZM115.737 148.196C115.102 148.196 114.546 148.053 114.07 147.765C113.594 147.478 113.223 147.089 112.959 146.597C112.694 146.106 112.562 145.562 112.562 144.964C112.562 144.344 112.694 143.796 112.959 143.32C113.231 142.836 113.597 142.454 114.059 142.175C114.527 141.895 115.049 141.755 115.624 141.755C116.107 141.755 116.531 141.834 116.894 141.993C117.264 142.152 117.578 142.371 117.835 142.651C118.092 142.931 118.289 143.252 118.425 143.615C118.561 143.97 118.629 144.356 118.629 144.772C118.629 144.877 118.621 144.987 118.606 145.1C118.599 145.214 118.58 145.312 118.549 145.395H113.786V144.261H117.71L117.007 144.794C117.075 144.446 117.056 144.136 116.95 143.864C116.852 143.592 116.686 143.377 116.451 143.218C116.225 143.059 115.949 142.98 115.624 142.98C115.314 142.98 115.038 143.059 114.796 143.218C114.554 143.369 114.369 143.596 114.24 143.898C114.119 144.193 114.074 144.552 114.104 144.976C114.074 145.354 114.123 145.69 114.251 145.985C114.387 146.272 114.584 146.495 114.841 146.654C115.106 146.813 115.408 146.892 115.748 146.892C116.089 146.892 116.376 146.82 116.61 146.677C116.852 146.533 117.041 146.34 117.177 146.098L118.379 146.688C118.258 146.983 118.069 147.244 117.812 147.471C117.555 147.697 117.249 147.875 116.894 148.004C116.546 148.132 116.16 148.196 115.737 148.196ZM119.528 148.06V141.891H120.923V143.104L120.81 142.889C120.953 142.519 121.188 142.239 121.513 142.05C121.846 141.853 122.231 141.755 122.67 141.755C123.123 141.755 123.524 141.853 123.872 142.05C124.227 142.246 124.503 142.522 124.7 142.878C124.896 143.225 124.994 143.63 124.994 144.091V148.06H123.509V144.443C123.509 144.17 123.456 143.936 123.35 143.74C123.244 143.543 123.097 143.392 122.908 143.286C122.726 143.172 122.511 143.116 122.261 143.116C122.019 143.116 121.804 143.172 121.615 143.286C121.426 143.392 121.278 143.543 121.173 143.74C121.067 143.936 121.014 144.17 121.014 144.443V148.06H119.528ZM128.836 148.128C128.141 148.128 127.6 147.939 127.215 147.561C126.837 147.176 126.648 146.635 126.648 145.94V143.218H125.582V141.891H125.695C125.997 141.891 126.232 141.812 126.398 141.653C126.564 141.494 126.648 141.263 126.648 140.961V140.485H128.133V141.891H129.551V143.218H128.133V145.86C128.133 146.064 128.167 146.238 128.235 146.382C128.311 146.526 128.424 146.635 128.576 146.711C128.734 146.786 128.935 146.824 129.177 146.824C129.229 146.824 129.29 146.82 129.358 146.813C129.434 146.805 129.505 146.798 129.573 146.79V148.06C129.468 148.075 129.347 148.091 129.211 148.106C129.074 148.121 128.95 148.128 128.836 148.128ZM132.829 148.196C132.171 148.196 131.597 148.041 131.105 147.731C130.622 147.414 130.289 146.987 130.107 146.45L131.219 145.917C131.378 146.265 131.597 146.537 131.877 146.733C132.164 146.93 132.481 147.028 132.829 147.028C133.101 147.028 133.317 146.968 133.476 146.847C133.634 146.726 133.714 146.567 133.714 146.371C133.714 146.25 133.68 146.151 133.612 146.076C133.551 145.993 133.464 145.924 133.351 145.872C133.245 145.811 133.128 145.762 132.999 145.724L131.99 145.441C131.468 145.289 131.071 145.059 130.799 144.749C130.535 144.439 130.402 144.072 130.402 143.649C130.402 143.271 130.497 142.942 130.686 142.662C130.882 142.375 131.151 142.152 131.491 141.993C131.839 141.834 132.236 141.755 132.682 141.755C133.264 141.755 133.778 141.895 134.224 142.175C134.67 142.454 134.988 142.847 135.177 143.354L134.043 143.887C133.937 143.607 133.759 143.384 133.51 143.218C133.26 143.052 132.98 142.968 132.67 142.968C132.421 142.968 132.224 143.025 132.081 143.138C131.937 143.252 131.865 143.399 131.865 143.581C131.865 143.694 131.896 143.792 131.956 143.876C132.016 143.959 132.1 144.027 132.205 144.08C132.319 144.133 132.447 144.182 132.591 144.227L133.578 144.522C134.084 144.673 134.474 144.9 134.746 145.202C135.026 145.505 135.165 145.875 135.165 146.314C135.165 146.684 135.067 147.013 134.871 147.3C134.674 147.58 134.402 147.799 134.054 147.958C133.706 148.117 133.298 148.196 132.829 148.196Z" fill="#FAFAFA"/>
<g clipPath="url(#clip3_12265_35982)">
<g filter="url(#filter3_i_12265_35982)">
<rect x="152.626" y="140.876" width="192.319" height="5.67033" rx="2.83516" fill="url(#paint3_linear_12265_35982)"/>
<rect x="152.863" y="141.112" width="191.846" height="5.1978" rx="2.5989" stroke="white" stroke-opacity="0.04" strokeWidth="0.472527"/>
</g>
<path d="M153.001 144.001C153.001 142.344 154.345 141.001 156.001 141.001H252.001V147.001H156.001C154.345 147.001 153.001 145.658 153.001 144.001Z" fill="#EAB305"/>
</g>
<path d="M362.602 147.56V146.698C363.117 146.29 363.608 145.878 364.077 145.462C364.546 145.046 364.961 144.638 365.324 144.237C365.695 143.829 365.986 143.432 366.197 143.047C366.409 142.654 366.515 142.276 366.515 141.913C366.515 141.671 366.473 141.444 366.39 141.232C366.307 141.013 366.171 140.839 365.982 140.711C365.793 140.574 365.54 140.506 365.222 140.506C364.746 140.506 364.387 140.658 364.145 140.96C363.91 141.262 363.797 141.625 363.805 142.049H362.636C362.644 141.489 362.761 141.021 362.988 140.643C363.222 140.264 363.532 139.977 363.918 139.781C364.311 139.584 364.753 139.486 365.245 139.486C365.993 139.486 366.591 139.697 367.037 140.121C367.49 140.537 367.717 141.119 367.717 141.867C367.717 142.313 367.607 142.756 367.388 143.194C367.177 143.633 366.897 144.056 366.549 144.464C366.209 144.865 365.842 145.243 365.449 145.598C365.056 145.954 364.682 146.275 364.326 146.562H367.955V147.56H362.602ZM371.791 147.696C371.277 147.696 370.809 147.606 370.385 147.424C369.969 147.235 369.637 146.952 369.387 146.574C369.138 146.196 369.005 145.723 368.99 145.156H370.181C370.196 145.579 370.34 145.939 370.612 146.233C370.892 146.521 371.285 146.664 371.791 146.664C372.275 146.664 372.646 146.532 372.903 146.267C373.16 145.995 373.288 145.659 373.288 145.258C373.288 144.774 373.114 144.415 372.767 144.181C372.426 143.946 372.007 143.829 371.508 143.829H370.918V142.831H371.519C371.965 142.831 372.324 142.725 372.597 142.514C372.876 142.302 373.016 142.003 373.016 141.618C373.016 141.293 372.907 141.028 372.687 140.824C372.476 140.62 372.173 140.518 371.78 140.518C371.372 140.518 371.05 140.639 370.816 140.881C370.582 141.115 370.453 141.41 370.431 141.765H369.24C369.255 141.304 369.368 140.903 369.58 140.563C369.799 140.223 370.098 139.958 370.476 139.769C370.854 139.58 371.289 139.486 371.78 139.486C372.309 139.486 372.752 139.58 373.107 139.769C373.47 139.951 373.742 140.2 373.923 140.518C374.112 140.828 374.207 141.168 374.207 141.538C374.207 141.962 374.09 142.332 373.855 142.65C373.621 142.967 373.307 143.179 372.914 143.285C373.368 143.383 373.742 143.606 374.037 143.954C374.332 144.294 374.479 144.736 374.479 145.281C374.479 145.719 374.377 146.124 374.173 146.494C373.969 146.857 373.666 147.148 373.266 147.368C372.865 147.587 372.374 147.696 371.791 147.696ZM378.329 147.696C377.807 147.696 377.361 147.594 376.99 147.39C376.62 147.186 376.329 146.914 376.117 146.574C375.913 146.233 375.788 145.863 375.743 145.462H376.866C376.934 145.855 377.096 146.158 377.353 146.37C377.61 146.581 377.939 146.687 378.34 146.687C378.892 146.687 379.345 146.43 379.701 145.916C380.064 145.394 380.256 144.597 380.279 143.523C380.098 143.856 379.814 144.139 379.429 144.374C379.051 144.608 378.612 144.725 378.113 144.725C377.667 144.725 377.247 144.619 376.854 144.408C376.461 144.196 376.144 143.901 375.902 143.523C375.66 143.137 375.539 142.684 375.539 142.162C375.539 141.701 375.652 141.266 375.879 140.858C376.106 140.45 376.423 140.121 376.832 139.871C377.247 139.614 377.739 139.486 378.306 139.486C378.888 139.486 379.379 139.595 379.78 139.815C380.181 140.034 380.502 140.325 380.744 140.688C380.986 141.051 381.16 141.459 381.266 141.913C381.379 142.366 381.436 142.831 381.436 143.308C381.436 144.185 381.311 144.952 381.062 145.61C380.82 146.267 380.468 146.782 380.007 147.152C379.546 147.515 378.986 147.696 378.329 147.696ZM378.385 143.693C378.703 143.693 378.986 143.621 379.236 143.478C379.485 143.334 379.682 143.145 379.825 142.911C379.977 142.669 380.052 142.404 380.052 142.117C380.052 141.807 379.977 141.535 379.825 141.3C379.682 141.058 379.481 140.869 379.224 140.733C378.975 140.597 378.691 140.529 378.374 140.529C378.056 140.529 377.773 140.597 377.523 140.733C377.274 140.869 377.073 141.058 376.922 141.3C376.779 141.535 376.707 141.803 376.707 142.105C376.707 142.589 376.866 142.975 377.183 143.262C377.501 143.549 377.901 143.693 378.385 143.693ZM385.641 147.56V141.935H386.707L386.809 142.729C386.99 142.442 387.229 142.215 387.523 142.049C387.826 141.882 388.174 141.799 388.567 141.799C389.459 141.799 390.079 142.151 390.427 142.854C390.631 142.529 390.903 142.272 391.243 142.083C391.591 141.894 391.965 141.799 392.366 141.799C393.069 141.799 393.621 142.011 394.022 142.434C394.422 142.858 394.623 143.489 394.623 144.328V147.56H393.421V144.453C393.421 143.364 393.005 142.82 392.173 142.82C391.75 142.82 391.402 142.979 391.13 143.296C390.865 143.614 390.733 144.067 390.733 144.657V147.56H389.531V144.453C389.531 143.364 389.111 142.82 388.272 142.82C387.856 142.82 387.512 142.979 387.24 143.296C386.975 143.614 386.843 144.067 386.843 144.657V147.56H385.641ZM398.275 147.696C397.564 147.696 396.978 147.523 396.517 147.175C396.056 146.827 395.791 146.366 395.723 145.791H396.936C396.997 146.048 397.14 146.271 397.367 146.46C397.594 146.642 397.893 146.732 398.263 146.732C398.626 146.732 398.891 146.657 399.057 146.506C399.223 146.354 399.307 146.181 399.307 145.984C399.307 145.697 399.189 145.504 398.955 145.406C398.728 145.3 398.411 145.205 398.002 145.122C397.685 145.054 397.367 144.963 397.05 144.85C396.74 144.736 396.479 144.578 396.267 144.374C396.063 144.162 395.961 143.878 395.961 143.523C395.961 143.032 396.15 142.623 396.528 142.298C396.906 141.966 397.435 141.799 398.116 141.799C398.743 141.799 399.25 141.95 399.635 142.253C400.029 142.555 400.259 142.982 400.327 143.534H399.17C399.133 143.292 399.019 143.103 398.83 142.967C398.649 142.831 398.403 142.763 398.093 142.763C397.791 142.763 397.556 142.827 397.39 142.956C397.224 143.077 397.14 143.236 397.14 143.432C397.14 143.629 397.254 143.784 397.481 143.897C397.715 144.011 398.021 144.113 398.399 144.203C398.777 144.287 399.125 144.385 399.443 144.498C399.768 144.604 400.029 144.763 400.225 144.975C400.422 145.186 400.52 145.496 400.52 145.905C400.528 146.419 400.327 146.846 399.919 147.186C399.518 147.526 398.97 147.696 398.275 147.696Z" fill="#A3A3A3"/>
<path d="M75.6122 183.55V175.101H76.8143L81.464 181.361L80.8403 181.486V175.101H82.3826V183.55H81.1692L76.5875 177.245L77.1546 177.12V183.55H75.6122ZM85.5377 183.686C85.1068 183.686 84.7325 183.614 84.415 183.471C84.0974 183.327 83.8517 183.123 83.6778 182.858C83.5039 182.586 83.417 182.272 83.417 181.917C83.417 181.577 83.4926 181.274 83.6438 181.01C83.795 180.738 84.0294 180.511 84.3469 180.329C84.6645 180.148 85.0652 180.019 85.549 179.944L87.5677 179.615V180.749L85.8326 181.044C85.5377 181.097 85.3184 181.191 85.1748 181.327C85.0312 181.463 84.9593 181.641 84.9593 181.86C84.9593 182.072 85.0387 182.242 85.1975 182.371C85.3638 182.492 85.5679 182.552 85.8099 182.552C86.1199 182.552 86.392 182.488 86.6264 182.359C86.8683 182.223 87.0536 182.038 87.1821 181.804C87.3182 181.569 87.3862 181.312 87.3862 181.032V179.445C87.3862 179.18 87.2804 178.961 87.0687 178.787C86.8646 178.606 86.5924 178.515 86.2522 178.515C85.9346 178.515 85.6511 178.602 85.4016 178.776C85.1597 178.942 84.982 179.165 84.8686 179.445L83.6552 178.855C83.7761 178.53 83.9651 178.25 84.2222 178.016C84.4868 177.774 84.7968 177.585 85.1521 177.449C85.5075 177.313 85.893 177.245 86.3089 177.245C86.8154 177.245 87.2615 177.339 87.6471 177.528C88.0326 177.71 88.3313 177.967 88.543 178.299C88.7622 178.624 88.8719 179.006 88.8719 179.445V183.55H87.4656V182.495L87.7832 182.473C87.6244 182.737 87.4354 182.96 87.2161 183.142C86.9969 183.316 86.7474 183.452 86.4676 183.55C86.1879 183.641 85.8779 183.686 85.5377 183.686ZM92.7199 183.618C92.0243 183.618 91.4838 183.429 91.0982 183.051C90.7201 182.665 90.5311 182.125 90.5311 181.429V178.708H89.4651V177.381H89.5785C89.8809 177.381 90.1153 177.301 90.2816 177.143C90.448 176.984 90.5311 176.753 90.5311 176.451V175.974H92.0168V177.381H93.4343V178.708H92.0168V181.35C92.0168 181.554 92.0508 181.728 92.1188 181.872C92.1944 182.015 92.3078 182.125 92.459 182.201C92.6178 182.276 92.8182 182.314 93.0601 182.314C93.113 182.314 93.1735 182.31 93.2416 182.303C93.3172 182.295 93.389 182.287 93.457 182.28V183.55C93.3512 183.565 93.2302 183.58 93.0941 183.595C92.958 183.611 92.8333 183.618 92.7199 183.618ZM94.3652 183.55V177.381H95.8509V183.55H94.3652ZM94.3652 176.689V175.101H95.8509V176.689H94.3652ZM98.8556 183.55L96.4287 177.381H98.0504L99.8082 182.235H99.2072L100.976 177.381H102.598L100.171 183.55H98.8556ZM106.008 183.686C105.372 183.686 104.817 183.542 104.34 183.255C103.864 182.968 103.494 182.579 103.229 182.087C102.964 181.596 102.832 181.051 102.832 180.454C102.832 179.834 102.964 179.286 103.229 178.81C103.501 178.326 103.868 177.944 104.329 177.664C104.798 177.385 105.32 177.245 105.894 177.245C106.378 177.245 106.801 177.324 107.164 177.483C107.535 177.642 107.848 177.861 108.106 178.141C108.363 178.42 108.559 178.742 108.695 179.105C108.831 179.46 108.899 179.845 108.899 180.261C108.899 180.367 108.892 180.477 108.877 180.59C108.869 180.704 108.85 180.802 108.82 180.885H104.057V179.751H107.981L107.278 180.284C107.346 179.936 107.327 179.626 107.221 179.354C107.123 179.082 106.956 178.866 106.722 178.708C106.495 178.549 106.219 178.469 105.894 178.469C105.584 178.469 105.308 178.549 105.066 178.708C104.824 178.859 104.639 179.086 104.511 179.388C104.39 179.683 104.344 180.042 104.374 180.465C104.344 180.843 104.393 181.18 104.522 181.475C104.658 181.762 104.855 181.985 105.112 182.144C105.376 182.303 105.679 182.382 106.019 182.382C106.359 182.382 106.646 182.31 106.881 182.166C107.123 182.023 107.312 181.83 107.448 181.588L108.65 182.178C108.529 182.473 108.34 182.734 108.083 182.96C107.826 183.187 107.52 183.365 107.164 183.493C106.816 183.622 106.431 183.686 106.008 183.686ZM109.923 183.55V175.101H113.484C114.044 175.101 114.52 175.2 114.913 175.396C115.314 175.585 115.62 175.857 115.832 176.213C116.051 176.56 116.161 176.984 116.161 177.483C116.161 177.868 116.055 178.231 115.843 178.571C115.639 178.904 115.31 179.18 114.857 179.399V178.685C115.272 178.844 115.601 179.04 115.843 179.275C116.085 179.509 116.255 179.77 116.354 180.057C116.452 180.344 116.501 180.647 116.501 180.964C116.501 181.773 116.233 182.408 115.696 182.87C115.167 183.323 114.43 183.55 113.484 183.55H109.923ZM111.466 182.189H113.643C114.044 182.189 114.361 182.08 114.596 181.86C114.838 181.633 114.959 181.335 114.959 180.964C114.959 180.594 114.838 180.295 114.596 180.068C114.361 179.842 114.044 179.728 113.643 179.728H111.466V182.189ZM111.466 178.379H113.564C113.881 178.379 114.135 178.288 114.324 178.107C114.513 177.918 114.607 177.676 114.607 177.381C114.607 177.086 114.513 176.851 114.324 176.678C114.135 176.504 113.881 176.417 113.564 176.417H111.466V178.379ZM119.284 183.686C118.853 183.686 118.479 183.614 118.161 183.471C117.844 183.327 117.598 183.123 117.424 182.858C117.25 182.586 117.163 182.272 117.163 181.917C117.163 181.577 117.239 181.274 117.39 181.01C117.541 180.738 117.776 180.511 118.093 180.329C118.411 180.148 118.812 180.019 119.295 179.944L121.314 179.615V180.749L119.579 181.044C119.284 181.097 119.065 181.191 118.921 181.327C118.778 181.463 118.706 181.641 118.706 181.86C118.706 182.072 118.785 182.242 118.944 182.371C119.11 182.492 119.314 182.552 119.556 182.552C119.866 182.552 120.138 182.488 120.373 182.359C120.615 182.223 120.8 182.038 120.929 181.804C121.065 181.569 121.133 181.312 121.133 181.032V179.445C121.133 179.18 121.027 178.961 120.815 178.787C120.611 178.606 120.339 178.515 119.999 178.515C119.681 178.515 119.398 178.602 119.148 178.776C118.906 178.942 118.728 179.165 118.615 179.445L117.402 178.855C117.523 178.53 117.712 178.25 117.969 178.016C118.233 177.774 118.543 177.585 118.899 177.449C119.254 177.313 119.639 177.245 120.055 177.245C120.562 177.245 121.008 177.339 121.393 177.528C121.779 177.71 122.078 177.967 122.289 178.299C122.509 178.624 122.618 179.006 122.618 179.445V183.55H121.212V182.495L121.53 182.473C121.371 182.737 121.182 182.96 120.963 183.142C120.743 183.316 120.494 183.452 120.214 183.55C119.934 183.641 119.624 183.686 119.284 183.686ZM126.112 183.686C125.454 183.686 124.88 183.531 124.388 183.221C123.904 182.904 123.572 182.476 123.39 181.94L124.502 181.407C124.66 181.754 124.88 182.027 125.159 182.223C125.447 182.42 125.764 182.518 126.112 182.518C126.384 182.518 126.6 182.458 126.759 182.337C126.917 182.216 126.997 182.057 126.997 181.86C126.997 181.739 126.963 181.641 126.895 181.565C126.834 181.482 126.747 181.414 126.634 181.361C126.528 181.301 126.411 181.252 126.282 181.214L125.273 180.93C124.751 180.779 124.354 180.549 124.082 180.239C123.818 179.929 123.685 179.562 123.685 179.139C123.685 178.761 123.78 178.432 123.969 178.152C124.165 177.865 124.434 177.642 124.774 177.483C125.122 177.324 125.519 177.245 125.965 177.245C126.547 177.245 127.061 177.385 127.507 177.664C127.953 177.944 128.271 178.337 128.46 178.844L127.326 179.377C127.22 179.097 127.042 178.874 126.793 178.708C126.543 178.541 126.263 178.458 125.953 178.458C125.704 178.458 125.507 178.515 125.364 178.628C125.22 178.742 125.148 178.889 125.148 179.07C125.148 179.184 125.178 179.282 125.239 179.365C125.299 179.449 125.383 179.517 125.488 179.569C125.602 179.622 125.73 179.672 125.874 179.717L126.861 180.012C127.367 180.163 127.756 180.39 128.029 180.692C128.308 180.995 128.448 181.365 128.448 181.804C128.448 182.174 128.35 182.503 128.153 182.79C127.957 183.07 127.685 183.289 127.337 183.448C126.989 183.607 126.581 183.686 126.112 183.686ZM132.289 183.686C131.654 183.686 131.098 183.542 130.622 183.255C130.146 182.968 129.775 182.579 129.511 182.087C129.246 181.596 129.114 181.051 129.114 180.454C129.114 179.834 129.246 179.286 129.511 178.81C129.783 178.326 130.149 177.944 130.611 177.664C131.079 177.385 131.601 177.245 132.176 177.245C132.659 177.245 133.083 177.324 133.446 177.483C133.816 177.642 134.13 177.861 134.387 178.141C134.644 178.42 134.841 178.742 134.977 179.105C135.113 179.46 135.181 179.845 135.181 180.261C135.181 180.367 135.173 180.477 135.158 180.59C135.151 180.704 135.132 180.802 135.102 180.885H130.338V179.751H134.262L133.559 180.284C133.627 179.936 133.608 179.626 133.502 179.354C133.404 179.082 133.238 178.866 133.003 178.708C132.777 178.549 132.501 178.469 132.176 178.469C131.866 178.469 131.59 178.549 131.348 178.708C131.106 178.859 130.921 179.086 130.792 179.388C130.671 179.683 130.626 180.042 130.656 180.465C130.626 180.843 130.675 181.18 130.803 181.475C130.939 181.762 131.136 181.985 131.393 182.144C131.658 182.303 131.96 182.382 132.3 182.382C132.641 182.382 132.928 182.31 133.162 182.166C133.404 182.023 133.593 181.83 133.729 181.588L134.931 182.178C134.81 182.473 134.621 182.734 134.364 182.96C134.107 183.187 133.801 183.365 133.446 183.493C133.098 183.622 132.712 183.686 132.289 183.686Z" fill="#FAFAFA"/>
<g clipPath="url(#clip4_12265_35982)">
<g filter="url(#filter4_i_12265_35982)">
<rect x="152.626" y="176.365" width="188.319" height="5.67033" rx="2.83516" fill="url(#paint4_linear_12265_35982)"/>
<rect x="152.863" y="176.602" width="187.846" height="5.1978" rx="2.5989" stroke="white" stroke-opacity="0.04" strokeWidth="0.472527"/>
</g>
<path d="M153.001 179.35C153.001 177.693 154.345 176.35 156.001 176.35H343.001V182.35H156.001C154.345 182.35 153.001 181.007 153.001 179.35Z" fill="#0991B1"/>
</g>
<path d="M359.27 183.05V176.472L357.989 176.767V175.883L359.746 175.112H360.518V183.05H359.27ZM361.972 183.05V182.188C362.486 181.78 362.977 181.368 363.446 180.952C363.915 180.536 364.331 180.128 364.693 179.727C365.064 179.319 365.355 178.922 365.567 178.536C365.778 178.143 365.884 177.765 365.884 177.402C365.884 177.16 365.843 176.934 365.759 176.722C365.676 176.503 365.54 176.329 365.351 176.2C365.162 176.064 364.909 175.996 364.591 175.996C364.115 175.996 363.756 176.147 363.514 176.45C363.28 176.752 363.166 177.115 363.174 177.538H362.006C362.013 176.979 362.13 176.51 362.357 176.132C362.592 175.754 362.902 175.467 363.287 175.27C363.68 175.074 364.123 174.975 364.614 174.975C365.363 174.975 365.96 175.187 366.406 175.611C366.86 176.026 367.086 176.609 367.086 177.357C367.086 177.803 366.977 178.245 366.757 178.684C366.546 179.122 366.266 179.546 365.918 179.954C365.578 180.355 365.211 180.733 364.818 181.088C364.425 181.443 364.051 181.765 363.695 182.052H367.325V183.05H361.972ZM371.707 183.186C370.989 183.186 370.369 183.016 369.847 182.676C369.333 182.328 368.936 181.848 368.656 181.236C368.384 180.616 368.248 179.897 368.248 179.081C368.248 178.264 368.384 177.55 368.656 176.937C368.936 176.317 369.333 175.837 369.847 175.497C370.369 175.149 370.989 174.975 371.707 174.975C372.425 174.975 373.042 175.149 373.556 175.497C374.07 175.837 374.463 176.317 374.735 176.937C375.015 177.55 375.155 178.264 375.155 179.081C375.155 179.897 375.015 180.616 374.735 181.236C374.463 181.848 374.07 182.328 373.556 182.676C373.042 183.016 372.425 183.186 371.707 183.186ZM371.707 182.109C372.138 182.109 372.52 181.988 372.853 181.746C373.193 181.504 373.457 181.156 373.646 180.703C373.835 180.249 373.93 179.708 373.93 179.081C373.93 178.453 373.835 177.913 373.646 177.459C373.457 177.005 373.193 176.658 372.853 176.416C372.52 176.174 372.138 176.053 371.707 176.053C371.269 176.053 370.883 176.174 370.55 176.416C370.218 176.658 369.957 177.005 369.768 177.459C369.579 177.913 369.484 178.453 369.484 179.081C369.484 179.708 369.579 180.249 369.768 180.703C369.957 181.156 370.218 181.504 370.55 181.746C370.883 181.988 371.269 182.109 371.707 182.109ZM376.94 183.05L380.013 176.144H375.885V175.112H381.249V175.985L378.198 183.05H376.94ZM385.254 183.05V177.425H386.32L386.422 178.219C386.603 177.932 386.841 177.705 387.136 177.538C387.439 177.372 387.786 177.289 388.18 177.289C389.072 177.289 389.692 177.641 390.039 178.344C390.244 178.019 390.516 177.762 390.856 177.573C391.204 177.383 391.578 177.289 391.979 177.289C392.682 177.289 393.234 177.501 393.634 177.924C394.035 178.347 394.236 178.979 394.236 179.818V183.05H393.033V179.943C393.033 178.854 392.618 178.31 391.786 178.31C391.363 178.31 391.015 178.468 390.743 178.786C390.478 179.103 390.346 179.557 390.346 180.147V183.05H389.144V179.943C389.144 178.854 388.724 178.31 387.885 178.31C387.469 178.31 387.125 178.468 386.853 178.786C386.588 179.103 386.456 179.557 386.456 180.147V183.05H385.254ZM397.887 183.186C397.177 183.186 396.591 183.012 396.13 182.664C395.668 182.317 395.404 181.855 395.336 181.281H396.549C396.61 181.538 396.753 181.761 396.98 181.95C397.207 182.131 397.506 182.222 397.876 182.222C398.239 182.222 398.504 182.147 398.67 181.995C398.836 181.844 398.919 181.67 398.919 181.474C398.919 181.186 398.802 180.994 398.568 180.895C398.341 180.789 398.023 180.695 397.615 180.612C397.298 180.544 396.98 180.453 396.663 180.34C396.353 180.226 396.092 180.067 395.88 179.863C395.676 179.652 395.574 179.368 395.574 179.013C395.574 178.521 395.763 178.113 396.141 177.788C396.519 177.455 397.048 177.289 397.729 177.289C398.356 177.289 398.863 177.44 399.248 177.743C399.641 178.045 399.872 178.472 399.94 179.024H398.783C398.746 178.782 398.632 178.593 398.443 178.457C398.262 178.321 398.016 178.253 397.706 178.253C397.404 178.253 397.169 178.317 397.003 178.446C396.836 178.567 396.753 178.725 396.753 178.922C396.753 179.119 396.867 179.274 397.094 179.387C397.328 179.5 397.634 179.602 398.012 179.693C398.39 179.776 398.738 179.875 399.055 179.988C399.381 180.094 399.641 180.253 399.838 180.464C400.035 180.676 400.133 180.986 400.133 181.394C400.14 181.908 399.94 182.336 399.532 182.676C399.131 183.016 398.583 183.186 397.887 183.186Z" fill="#A3A3A3"/>
<rect width="172" height="41" transform="matrix(0 -1 -1 0 345 196)" fill="url(#paint5_linear_12265_35982)"/>
<defs>
<filter id="filter0_i_12265_35982" x="152.626" y="-274.535" width="329.82" height="816.528" filterUnits="userSpaceOnUse" color-interpolation-filters="sRGB">
<feFlood flood-opacity="0" result="BackgroundImageFix"/>
<feBlend mode="normal" in="SourceGraphic" in2="BackgroundImageFix" result="shape"/>
<feColorMatrix in="SourceAlpha" type="matrix" values="0 0 0 0 0 0 0 0 0 0 0 0 0 0 0 0 0 0 127 0" result="hardAlpha"/>
<feOffset dy="0.472527"/>
<feComposite in2="hardAlpha" operator="arithmetic" k2="-1" k3="1"/>
<feColorMatrix type="matrix" values="0 0 0 0 1 0 0 0 0 1 0 0 0 0 1 0 0 0 0.08 0"/>
<feBlend mode="normal" in2="shape" result="effect1_innerShadow_12265_35982"/>
</filter>
<filter id="filter1_i_12265_35982" x="152.626" y="-239.092" width="329.82" height="816.528" filterUnits="userSpaceOnUse" color-interpolation-filters="sRGB">
<feFlood flood-opacity="0" result="BackgroundImageFix"/>
<feBlend mode="normal" in="SourceGraphic" in2="BackgroundImageFix" result="shape"/>
<feColorMatrix in="SourceAlpha" type="matrix" values="0 0 0 0 0 0 0 0 0 0 0 0 0 0 0 0 0 0 127 0" result="hardAlpha"/>
<feOffset dy="0.472527"/>
<feComposite in2="hardAlpha" operator="arithmetic" k2="-1" k3="1"/>
<feColorMatrix type="matrix" values="0 0 0 0 1 0 0 0 0 1 0 0 0 0 1 0 0 0 0.08 0"/>
<feBlend mode="normal" in2="shape" result="effect1_innerShadow_12265_35982"/>
</filter>
<filter id="filter2_i_12265_35982" x="152.626" y="-203.665" width="329.82" height="816.528" filterUnits="userSpaceOnUse" color-interpolation-filters="sRGB">
<feFlood flood-opacity="0" result="BackgroundImageFix"/>
<feBlend mode="normal" in="SourceGraphic" in2="BackgroundImageFix" result="shape"/>
<feColorMatrix in="SourceAlpha" type="matrix" values="0 0 0 0 0 0 0 0 0 0 0 0 0 0 0 0 0 0 127 0" result="hardAlpha"/>
<feOffset dy="0.472527"/>
<feComposite in2="hardAlpha" operator="arithmetic" k2="-1" k3="1"/>
<feColorMatrix type="matrix" values="0 0 0 0 1 0 0 0 0 1 0 0 0 0 1 0 0 0 0.08 0"/>
<feBlend mode="normal" in2="shape" result="effect1_innerShadow_12265_35982"/>
</filter>
<filter id="filter3_i_12265_35982" x="152.626" y="140.876" width="192.319" height="5.67041" filterUnits="userSpaceOnUse" color-interpolation-filters="sRGB">
<feFlood flood-opacity="0" result="BackgroundImageFix"/>
<feBlend mode="normal" in="SourceGraphic" in2="BackgroundImageFix" result="shape"/>
<feColorMatrix in="SourceAlpha" type="matrix" values="0 0 0 0 0 0 0 0 0 0 0 0 0 0 0 0 0 0 127 0" result="hardAlpha"/>
<feOffset dy="0.472527"/>
<feComposite in2="hardAlpha" operator="arithmetic" k2="-1" k3="1"/>
<feColorMatrix type="matrix" values="0 0 0 0 1 0 0 0 0 1 0 0 0 0 1 0 0 0 0.08 0"/>
<feBlend mode="normal" in2="shape" result="effect1_innerShadow_12265_35982"/>
</filter>
<filter id="filter4_i_12265_35982" x="152.626" y="176.365" width="188.319" height="5.67041" filterUnits="userSpaceOnUse" color-interpolation-filters="sRGB">
<feFlood flood-opacity="0" result="BackgroundImageFix"/>
<feBlend mode="normal" in="SourceGraphic" in2="BackgroundImageFix" result="shape"/>
<feColorMatrix in="SourceAlpha" type="matrix" values="0 0 0 0 0 0 0 0 0 0 0 0 0 0 0 0 0 0 127 0" result="hardAlpha"/>
<feOffset dy="0.472527"/>
<feComposite in2="hardAlpha" operator="arithmetic" k2="-1" k3="1"/>
<feColorMatrix type="matrix" values="0 0 0 0 1 0 0 0 0 1 0 0 0 0 1 0 0 0 0.08 0"/>
<feBlend mode="normal" in2="shape" result="effect1_innerShadow_12265_35982"/>
</filter>
<linearGradient id="paint0_linear_12265_35982" x1="248.786" y1="34.5627" x2="248.786" y2="40.2331" gradientUnits="userSpaceOnUse">
<stop stop-color="white" stop-opacity="0.12"/>
<stop offset="1" stop-color="white" stop-opacity="0.02"/>
</linearGradient>
<linearGradient id="paint1_linear_12265_35982" x1="248.786" y1="69.9978" x2="248.786" y2="75.6681" gradientUnits="userSpaceOnUse">
<stop stop-color="white" stop-opacity="0.12"/>
<stop offset="1" stop-color="white" stop-opacity="0.02"/>
</linearGradient>
<linearGradient id="paint2_linear_12265_35982" x1="248.786" y1="105.433" x2="248.786" y2="111.103" gradientUnits="userSpaceOnUse">
<stop stop-color="white" stop-opacity="0.12"/>
<stop offset="1" stop-color="white" stop-opacity="0.02"/>
</linearGradient>
<linearGradient id="paint3_linear_12265_35982" x1="248.786" y1="140.876" x2="248.786" y2="146.546" gradientUnits="userSpaceOnUse">
<stop stop-color="white" stop-opacity="0.12"/>
<stop offset="1" stop-color="white" stop-opacity="0.02"/>
</linearGradient>
<linearGradient id="paint4_linear_12265_35982" x1="246.786" y1="176.365" x2="246.786" y2="182.036" gradientUnits="userSpaceOnUse">
<stop stop-color="white" stop-opacity="0.12"/>
<stop offset="1" stop-color="white" stop-opacity="0.02"/>
</linearGradient>
<linearGradient id="paint5_linear_12265_35982" x1="86" y1="3.31459" x2="86" y2="21.6169" gradientUnits="userSpaceOnUse">
<stop/>
<stop offset="1" stop-opacity="0"/>
</linearGradient>
<clipPath id="clip0_12265_35982">
<rect width="192.319" height="29.9944" fill="white" transform="translate(152.626 22.594)"/>
</clipPath>
<clipPath id="clip1_12265_35982">
<rect width="192.319" height="29.9944" fill="white" transform="translate(152.626 58.0837)"/>
</clipPath>
<clipPath id="clip2_12265_35982">
<rect width="192.319" height="29.9944" fill="white" transform="translate(152.626 93.5735)"/>
</clipPath>
<clipPath id="clip3_12265_35982">
<rect width="192.319" height="29.9944" fill="white" transform="translate(152.626 129.063)"/>
</clipPath>
<clipPath id="clip4_12265_35982">
<rect width="188.011" height="29.9944" fill="white" transform="translate(152.626 164.553)"/>
</clipPath>
</defs>
</svg>
