<svg width="1368" height="460" viewBox="0 0 1368 460" fill="none" xmlns="http://www.w3.org/2000/svg">
<rect width="1368" height="459.53" rx="8" fill="black"/>
<path d="M68.2206 132.386C67.2446 132.386 66.3406 132.226 65.5086 131.906C64.6766 131.586 63.9566 131.138 63.3486 130.562C62.7566 130.002 62.3246 129.338 62.0526 128.57L64.9806 127.466C65.1726 128.074 65.5486 128.562 66.1086 128.93C66.6846 129.314 67.3886 129.506 68.2206 129.506C68.8606 129.506 69.4206 129.386 69.9006 129.146C70.3966 128.906 70.7806 128.554 71.0526 128.09C71.3246 127.642 71.4606 127.098 71.4606 126.458V123.482L72.0606 124.202C71.6126 124.986 71.0126 125.578 70.2606 125.978C69.5086 126.378 68.6526 126.578 67.6926 126.578C66.4766 126.578 65.3886 126.298 64.4286 125.738C63.4686 125.178 62.7166 124.41 62.1726 123.434C61.6286 122.458 61.3566 121.362 61.3566 120.146C61.3566 118.914 61.6286 117.818 62.1726 116.858C62.7166 115.898 63.4606 115.146 64.4046 114.602C65.3486 114.042 66.4206 113.762 67.6206 113.762C68.5966 113.762 69.4526 113.97 70.1886 114.386C70.9406 114.786 71.5646 115.37 72.0606 116.138L71.6286 116.93V114.05H74.6046V126.458C74.6046 127.594 74.3246 128.61 73.7646 129.506C73.2206 130.402 72.4686 131.106 71.5086 131.618C70.5646 132.13 69.4686 132.386 68.2206 132.386ZM68.0766 123.674C68.7486 123.674 69.3326 123.53 69.8286 123.242C70.3406 122.938 70.7406 122.522 71.0286 121.994C71.3166 121.466 71.4606 120.858 71.4606 120.17C71.4606 119.498 71.3086 118.898 71.0046 118.37C70.7166 117.826 70.3166 117.402 69.8046 117.098C69.3086 116.794 68.7326 116.642 68.0766 116.642C67.4206 116.642 66.8286 116.794 66.3006 117.098C65.7726 117.402 65.3566 117.826 65.0526 118.37C64.7646 118.898 64.6206 119.498 64.6206 120.17C64.6206 120.842 64.7646 121.442 65.0526 121.97C65.3566 122.498 65.7646 122.914 66.2766 123.218C66.8046 123.522 67.4046 123.674 68.0766 123.674ZM77.0609 127.106V108.938H80.2049V127.106H77.0609ZM87.2838 127.394C86.2757 127.394 85.3957 127.17 84.6437 126.722C83.9077 126.274 83.3397 125.65 82.9397 124.85C82.5557 124.05 82.3637 123.114 82.3637 122.042V114.05H85.5077V121.778C85.5077 122.322 85.6117 122.802 85.8197 123.218C86.0437 123.618 86.3557 123.938 86.7557 124.178C87.1717 124.402 87.6357 124.514 88.1477 124.514C88.6597 124.514 89.1158 124.402 89.5158 124.178C89.9158 123.938 90.2278 123.61 90.4518 123.194C90.6758 122.778 90.7878 122.282 90.7878 121.706V114.05H93.9317V127.106H90.9558V124.538L91.2198 124.994C90.9158 125.794 90.4117 126.394 89.7077 126.794C89.0198 127.194 88.2118 127.394 87.2838 127.394ZM102.566 127.394C101.222 127.394 100.046 127.09 99.0383 126.482C98.0303 125.874 97.2463 125.05 96.6863 124.01C96.1263 122.97 95.8463 121.818 95.8463 120.554C95.8463 119.242 96.1263 118.082 96.6863 117.074C97.2623 116.05 98.0383 115.242 99.0143 114.65C100.006 114.058 101.11 113.762 102.326 113.762C103.35 113.762 104.246 113.93 105.014 114.266C105.798 114.602 106.462 115.066 107.006 115.658C107.55 116.25 107.966 116.93 108.254 117.698C108.542 118.45 108.686 119.266 108.686 120.146C108.686 120.37 108.67 120.602 108.638 120.842C108.622 121.082 108.582 121.29 108.518 121.466H98.4383V119.066H106.742L105.254 120.194C105.398 119.458 105.358 118.802 105.134 118.226C104.926 117.65 104.574 117.194 104.078 116.858C103.598 116.522 103.014 116.354 102.326 116.354C101.67 116.354 101.086 116.522 100.574 116.858C100.062 117.178 99.6703 117.658 99.3983 118.298C99.1423 118.922 99.0463 119.682 99.1103 120.578C99.0463 121.378 99.1503 122.09 99.4223 122.714C99.7103 123.322 100.126 123.794 100.67 124.13C101.23 124.466 101.87 124.634 102.59 124.634C103.31 124.634 103.918 124.482 104.414 124.178C104.926 123.874 105.326 123.466 105.614 122.954L108.158 124.202C107.902 124.826 107.502 125.378 106.958 125.858C106.414 126.338 105.766 126.714 105.014 126.986C104.278 127.258 103.462 127.394 102.566 127.394ZM115.558 127.394C114.166 127.394 112.95 127.066 111.91 126.41C110.886 125.738 110.182 124.834 109.798 123.698L112.15 122.57C112.486 123.306 112.95 123.882 113.542 124.298C114.15 124.714 114.822 124.922 115.558 124.922C116.134 124.922 116.59 124.794 116.926 124.538C117.262 124.282 117.43 123.946 117.43 123.53C117.43 123.274 117.358 123.066 117.214 122.906C117.086 122.73 116.902 122.586 116.662 122.474C116.438 122.346 116.19 122.242 115.918 122.162L113.782 121.562C112.678 121.242 111.838 120.754 111.262 120.098C110.702 119.442 110.422 118.666 110.422 117.77C110.422 116.97 110.622 116.274 111.022 115.682C111.438 115.074 112.006 114.602 112.726 114.266C113.462 113.93 114.302 113.762 115.246 113.762C116.478 113.762 117.566 114.058 118.51 114.65C119.454 115.242 120.126 116.074 120.526 117.146L118.126 118.274C117.902 117.682 117.526 117.21 116.998 116.858C116.47 116.506 115.878 116.33 115.222 116.33C114.694 116.33 114.278 116.45 113.974 116.69C113.67 116.93 113.518 117.242 113.518 117.626C113.518 117.866 113.582 118.074 113.71 118.25C113.838 118.426 114.014 118.57 114.238 118.682C114.478 118.794 114.75 118.898 115.054 118.994L117.142 119.618C118.214 119.938 119.038 120.418 119.614 121.058C120.206 121.698 120.502 122.482 120.502 123.41C120.502 124.194 120.294 124.89 119.878 125.498C119.462 126.09 118.886 126.554 118.15 126.89C117.414 127.226 116.55 127.394 115.558 127.394ZM128.39 127.25C126.918 127.25 125.774 126.85 124.958 126.05C124.158 125.234 123.758 124.09 123.758 122.618V116.858H121.502V114.05H121.742C122.382 114.05 122.878 113.882 123.23 113.546C123.582 113.21 123.758 112.722 123.758 112.082V111.074H126.902V114.05H129.902V116.858H126.902V122.45C126.902 122.882 126.974 123.25 127.118 123.554C127.278 123.858 127.518 124.09 127.838 124.25C128.174 124.41 128.598 124.49 129.11 124.49C129.222 124.49 129.35 124.482 129.494 124.466C129.654 124.45 129.806 124.434 129.95 124.418V127.106C129.726 127.138 129.47 127.17 129.182 127.202C128.894 127.234 128.63 127.25 128.39 127.25ZM135.785 127.394C134.873 127.394 134.081 127.242 133.409 126.938C132.737 126.634 132.217 126.202 131.849 125.642C131.481 125.066 131.297 124.402 131.297 123.65C131.297 122.93 131.457 122.29 131.777 121.73C132.097 121.154 132.593 120.674 133.265 120.29C133.937 119.906 134.785 119.634 135.809 119.474L140.081 118.778V121.178L136.409 121.802C135.785 121.914 135.321 122.114 135.017 122.402C134.713 122.69 134.561 123.066 134.561 123.53C134.561 123.978 134.729 124.338 135.065 124.61C135.417 124.866 135.849 124.994 136.361 124.994C137.017 124.994 137.593 124.858 138.089 124.586C138.601 124.298 138.993 123.906 139.265 123.41C139.553 122.914 139.697 122.37 139.697 121.778V118.418C139.697 117.858 139.473 117.394 139.025 117.026C138.593 116.642 138.017 116.45 137.297 116.45C136.625 116.45 136.025 116.634 135.497 117.002C134.985 117.354 134.609 117.826 134.369 118.418L131.801 117.17C132.057 116.482 132.457 115.89 133.001 115.394C133.561 114.882 134.217 114.482 134.969 114.194C135.721 113.906 136.537 113.762 137.417 113.762C138.489 113.762 139.433 113.962 140.249 114.362C141.065 114.746 141.697 115.29 142.145 115.994C142.609 116.682 142.841 117.49 142.841 118.418V127.106H139.865V124.874L140.537 124.826C140.201 125.386 139.801 125.858 139.337 126.242C138.873 126.61 138.345 126.898 137.753 127.106C137.161 127.298 136.505 127.394 135.785 127.394ZM151.555 127.394C150.259 127.394 149.091 127.098 148.051 126.506C147.027 125.898 146.219 125.082 145.627 124.058C145.035 123.018 144.739 121.85 144.739 120.554C144.739 119.258 145.035 118.098 145.627 117.074C146.219 116.05 147.027 115.242 148.051 114.65C149.091 114.058 150.259 113.762 151.555 113.762C152.483 113.762 153.347 113.93 154.147 114.266C154.947 114.586 155.635 115.034 156.211 115.61C156.803 116.17 157.227 116.842 157.483 117.626L154.723 118.826C154.483 118.17 154.075 117.642 153.499 117.242C152.939 116.842 152.291 116.642 151.555 116.642C150.867 116.642 150.251 116.81 149.707 117.146C149.179 117.482 148.763 117.946 148.459 118.538C148.155 119.13 148.003 119.81 148.003 120.578C148.003 121.346 148.155 122.026 148.459 122.618C148.763 123.21 149.179 123.674 149.707 124.01C150.251 124.346 150.867 124.514 151.555 124.514C152.307 124.514 152.963 124.314 153.523 123.914C154.083 123.514 154.483 122.978 154.723 122.306L157.483 123.554C157.227 124.29 156.811 124.954 156.235 125.546C155.659 126.122 154.971 126.578 154.171 126.914C153.371 127.234 152.499 127.394 151.555 127.394ZM159.388 127.106V108.938H162.532V120.842L161.332 120.482L167.476 114.05H171.388L166.564 119.306L171.484 127.106H167.884L163.612 120.338L165.484 119.954L161.548 124.178L162.532 122.258V127.106H159.388ZM173.408 121.97V119.21H183.608V121.97H173.408ZM191.327 127.394C190.319 127.394 189.439 127.17 188.687 126.722C187.951 126.274 187.383 125.65 186.983 124.85C186.599 124.05 186.407 123.114 186.407 122.042V114.05H189.551V121.778C189.551 122.322 189.655 122.802 189.863 123.218C190.087 123.618 190.399 123.938 190.799 124.178C191.215 124.402 191.679 124.514 192.191 124.514C192.703 124.514 193.159 124.402 193.559 124.178C193.959 123.938 194.271 123.61 194.495 123.194C194.719 122.778 194.831 122.282 194.831 121.706V114.05H197.975V127.106H194.999V124.538L195.263 124.994C194.959 125.794 194.455 126.394 193.751 126.794C193.063 127.194 192.255 127.394 191.327 127.394ZM200.417 127.106V114.05H203.561V127.106H200.417ZM200.417 112.586V109.226H203.561V112.586H200.417Z" fill="#FAFAFA"/>
<g clipPath="url(#clip0_12140_57316)">
<g filter="url(#filter0_i_12140_57316)">
<rect x="240" y="110.688" width="947" height="12" rx="6" fill="url(#paint0_linear_12140_57316)"/>
<rect width="1728" height="172" transform="matrix(0 -1 -1 0 1208 1184.55)" fill="url(#paint1_linear_12140_57316)"/>
<rect x="240.5" y="111.188" width="946" height="11" rx="5.5" stroke="white" stroke-opacity="0.04"/>
</g>
<path d="M241 116.844C241 113.53 243.686 110.844 247 110.844H472V122.844H247C243.686 122.844 241 120.158 241 116.844Z" fill="#0177E5"/>
</g>
<path d="M1225.43 125.606V111.686L1222.72 112.31V110.438L1226.44 108.806H1228.07V125.606H1225.43ZM1231.15 125.606V123.782C1232.24 122.918 1233.28 122.046 1234.27 121.166C1235.26 120.286 1236.14 119.422 1236.91 118.574C1237.69 117.71 1238.31 116.87 1238.76 116.054C1239.21 115.222 1239.43 114.422 1239.43 113.654C1239.43 113.142 1239.34 112.662 1239.17 112.214C1238.99 111.75 1238.7 111.382 1238.3 111.11C1237.9 110.822 1237.37 110.678 1236.69 110.678C1235.69 110.678 1234.93 110.998 1234.41 111.638C1233.92 112.278 1233.68 113.046 1233.69 113.942H1231.22C1231.24 112.758 1231.49 111.766 1231.97 110.966C1232.46 110.166 1233.12 109.558 1233.93 109.142C1234.77 108.726 1235.7 108.518 1236.74 108.518C1238.33 108.518 1239.59 108.966 1240.53 109.862C1241.49 110.742 1241.97 111.974 1241.97 113.558C1241.97 114.502 1241.74 115.438 1241.28 116.366C1240.83 117.294 1240.24 118.19 1239.5 119.054C1238.78 119.902 1238.01 120.702 1237.17 121.454C1236.34 122.206 1235.55 122.886 1234.8 123.494H1242.48V125.606H1231.15ZM1251.75 125.894C1250.23 125.894 1248.92 125.534 1247.82 124.814C1246.73 124.078 1245.89 123.062 1245.3 121.766C1244.72 120.454 1244.43 118.934 1244.43 117.206C1244.43 115.478 1244.72 113.966 1245.3 112.67C1245.89 111.358 1246.73 110.342 1247.82 109.622C1248.92 108.886 1250.23 108.518 1251.75 108.518C1253.27 108.518 1254.58 108.886 1255.66 109.622C1256.75 110.342 1257.58 111.358 1258.16 112.67C1258.75 113.966 1259.05 115.478 1259.05 117.206C1259.05 118.934 1258.75 120.454 1258.16 121.766C1257.58 123.062 1256.75 124.078 1255.66 124.814C1254.58 125.534 1253.27 125.894 1251.75 125.894ZM1251.75 123.614C1252.66 123.614 1253.47 123.358 1254.18 122.846C1254.9 122.334 1255.46 121.598 1255.86 120.638C1256.26 119.678 1256.46 118.534 1256.46 117.206C1256.46 115.878 1256.26 114.734 1255.86 113.774C1255.46 112.814 1254.9 112.078 1254.18 111.566C1253.47 111.054 1252.66 110.798 1251.75 110.798C1250.82 110.798 1250.01 111.054 1249.3 111.566C1248.6 112.078 1248.05 112.814 1247.65 113.774C1247.25 114.734 1247.05 115.878 1247.05 117.206C1247.05 118.534 1247.25 119.678 1247.65 120.638C1248.05 121.598 1248.6 122.334 1249.3 122.846C1250.01 123.358 1250.82 123.614 1251.75 123.614ZM1267.83 125.606V113.702H1270.09L1270.31 115.382C1270.69 114.774 1271.19 114.294 1271.82 113.942C1272.46 113.59 1273.19 113.414 1274.03 113.414C1275.91 113.414 1277.23 114.158 1277.96 115.646C1278.39 114.958 1278.97 114.414 1279.69 114.014C1280.43 113.614 1281.22 113.414 1282.07 113.414C1283.55 113.414 1284.72 113.862 1285.57 114.758C1286.42 115.654 1286.84 116.99 1286.84 118.766V125.606H1284.3V119.03C1284.3 116.726 1283.42 115.574 1281.66 115.574C1280.76 115.574 1280.03 115.91 1279.45 116.582C1278.89 117.254 1278.61 118.214 1278.61 119.462V125.606H1276.07V119.03C1276.07 116.726 1275.18 115.574 1273.4 115.574C1272.52 115.574 1271.79 115.91 1271.22 116.582C1270.66 117.254 1270.38 118.214 1270.38 119.462V125.606H1267.83ZM1294.57 125.894C1293.07 125.894 1291.83 125.526 1290.85 124.79C1289.87 124.054 1289.31 123.078 1289.17 121.862H1291.74C1291.87 122.406 1292.17 122.878 1292.65 123.278C1293.13 123.662 1293.76 123.854 1294.55 123.854C1295.31 123.854 1295.87 123.694 1296.23 123.374C1296.58 123.054 1296.75 122.686 1296.75 122.27C1296.75 121.662 1296.51 121.254 1296.01 121.046C1295.53 120.822 1294.86 120.622 1293.99 120.446C1293.32 120.302 1292.65 120.11 1291.98 119.87C1291.32 119.63 1290.77 119.294 1290.32 118.862C1289.89 118.414 1289.67 117.814 1289.67 117.062C1289.67 116.022 1290.07 115.158 1290.87 114.47C1291.67 113.766 1292.79 113.414 1294.23 113.414C1295.56 113.414 1296.63 113.734 1297.45 114.374C1298.28 115.014 1298.77 115.918 1298.91 117.086H1296.47C1296.39 116.574 1296.15 116.174 1295.75 115.886C1295.36 115.598 1294.84 115.454 1294.19 115.454C1293.55 115.454 1293.05 115.59 1292.7 115.862C1292.35 116.118 1292.17 116.454 1292.17 116.87C1292.17 117.286 1292.41 117.614 1292.89 117.854C1293.39 118.094 1294.03 118.31 1294.83 118.502C1295.63 118.678 1296.37 118.886 1297.04 119.126C1297.73 119.35 1298.28 119.686 1298.7 120.134C1299.11 120.582 1299.32 121.238 1299.32 122.102C1299.34 123.19 1298.91 124.094 1298.05 124.814C1297.2 125.534 1296.04 125.894 1294.57 125.894Z" fill="#A3A3A3"/>
<path d="M64.0236 202.212V184.332H70.6716C71.8876 184.332 72.9596 184.556 73.8876 185.004C74.8316 185.436 75.5676 186.076 76.0956 186.924C76.6236 187.756 76.8876 188.772 76.8876 189.972C76.8876 191.204 76.5916 192.252 75.9996 193.116C75.4236 193.98 74.6396 194.62 73.6476 195.036L77.7516 202.212H74.0556L69.6636 194.364L71.7756 195.612H67.2876V202.212H64.0236ZM67.2876 192.732H70.7196C71.3116 192.732 71.8236 192.62 72.2556 192.396C72.6876 192.156 73.0236 191.828 73.2636 191.412C73.5036 190.996 73.6236 190.516 73.6236 189.972C73.6236 189.412 73.5036 188.932 73.2636 188.532C73.0236 188.116 72.6876 187.796 72.2556 187.572C71.8236 187.332 71.3116 187.212 70.7196 187.212H67.2876V192.732ZM84.6122 202.5C83.2682 202.5 82.0922 202.196 81.0842 201.588C80.0762 200.98 79.2922 200.156 78.7322 199.116C78.1722 198.076 77.8922 196.924 77.8922 195.66C77.8922 194.348 78.1722 193.188 78.7322 192.18C79.3082 191.156 80.0842 190.348 81.0602 189.756C82.0522 189.164 83.1562 188.868 84.3722 188.868C85.3962 188.868 86.2922 189.036 87.0603 189.372C87.8442 189.708 88.5082 190.172 89.0522 190.764C89.5963 191.356 90.0123 192.036 90.3003 192.804C90.5882 193.556 90.7322 194.372 90.7322 195.252C90.7322 195.476 90.7162 195.708 90.6842 195.948C90.6683 196.188 90.6283 196.396 90.5642 196.572H80.4842V194.172H88.7882L87.3002 195.3C87.4442 194.564 87.4042 193.908 87.1802 193.332C86.9722 192.756 86.6202 192.3 86.1242 191.964C85.6442 191.628 85.0602 191.46 84.3722 191.46C83.7162 191.46 83.1322 191.628 82.6202 191.964C82.1082 192.284 81.7162 192.764 81.4442 193.404C81.1882 194.028 81.0922 194.788 81.1562 195.684C81.0922 196.484 81.1962 197.196 81.4682 197.82C81.7562 198.428 82.1722 198.9 82.7162 199.236C83.2762 199.572 83.9162 199.74 84.6362 199.74C85.3562 199.74 85.9642 199.588 86.4602 199.284C86.9722 198.98 87.3722 198.572 87.6602 198.06L90.2043 199.308C89.9482 199.932 89.5482 200.484 89.0043 200.964C88.4602 201.444 87.8122 201.82 87.0603 202.092C86.3242 202.364 85.5082 202.5 84.6122 202.5ZM96.5487 202.5C95.6367 202.5 94.8447 202.348 94.1727 202.044C93.5007 201.74 92.9807 201.308 92.6127 200.748C92.2447 200.172 92.0607 199.508 92.0607 198.756C92.0607 198.036 92.2207 197.396 92.5407 196.836C92.8607 196.26 93.3567 195.78 94.0287 195.396C94.7007 195.012 95.5487 194.74 96.5727 194.58L100.845 193.884V196.284L97.1727 196.908C96.5487 197.02 96.0847 197.22 95.7807 197.508C95.4767 197.796 95.3247 198.172 95.3247 198.636C95.3247 199.084 95.4927 199.444 95.8287 199.716C96.1807 199.972 96.6127 200.1 97.1247 200.1C97.7807 200.1 98.3567 199.964 98.8527 199.692C99.3647 199.404 99.7567 199.012 100.029 198.516C100.317 198.02 100.461 197.476 100.461 196.884V193.524C100.461 192.964 100.237 192.5 99.7887 192.132C99.3567 191.748 98.7807 191.556 98.0607 191.556C97.3887 191.556 96.7887 191.74 96.2607 192.108C95.7487 192.46 95.3727 192.932 95.1327 193.524L92.5647 192.276C92.8207 191.588 93.2207 190.996 93.7647 190.5C94.3247 189.988 94.9807 189.588 95.7327 189.3C96.4847 189.012 97.3007 188.868 98.1807 188.868C99.2527 188.868 100.197 189.068 101.013 189.468C101.829 189.852 102.461 190.396 102.909 191.1C103.373 191.788 103.605 192.596 103.605 193.524V202.212H100.629V199.98L101.301 199.932C100.965 200.492 100.565 200.964 100.101 201.348C99.6367 201.716 99.1087 202.004 98.5167 202.212C97.9247 202.404 97.2687 202.5 96.5487 202.5ZM112.319 202.5C111.023 202.5 109.855 202.204 108.815 201.612C107.791 201.004 106.983 200.188 106.391 199.164C105.799 198.124 105.503 196.956 105.503 195.66C105.503 194.364 105.799 193.204 106.391 192.18C106.983 191.156 107.791 190.348 108.815 189.756C109.855 189.164 111.023 188.868 112.319 188.868C113.247 188.868 114.111 189.036 114.911 189.372C115.711 189.692 116.399 190.14 116.975 190.716C117.567 191.276 117.991 191.948 118.247 192.732L115.487 193.932C115.247 193.276 114.839 192.748 114.263 192.348C113.703 191.948 113.055 191.748 112.319 191.748C111.631 191.748 111.015 191.916 110.471 192.252C109.943 192.588 109.527 193.052 109.223 193.644C108.919 194.236 108.767 194.916 108.767 195.684C108.767 196.452 108.919 197.132 109.223 197.724C109.527 198.316 109.943 198.78 110.471 199.116C111.015 199.452 111.631 199.62 112.319 199.62C113.071 199.62 113.727 199.42 114.287 199.02C114.847 198.62 115.247 198.084 115.487 197.412L118.247 198.66C117.991 199.396 117.575 200.06 116.999 200.652C116.423 201.228 115.735 201.684 114.935 202.02C114.135 202.34 113.263 202.5 112.319 202.5ZM126.104 202.356C124.632 202.356 123.488 201.956 122.672 201.156C121.872 200.34 121.472 199.196 121.472 197.724V191.964H119.216V189.156H119.456C120.096 189.156 120.592 188.988 120.944 188.652C121.296 188.316 121.472 187.828 121.472 187.188V186.18H124.616V189.156H127.616V191.964H124.616V197.556C124.616 197.988 124.688 198.356 124.832 198.66C124.992 198.964 125.232 199.196 125.552 199.356C125.888 199.516 126.312 199.596 126.824 199.596C126.936 199.596 127.064 199.588 127.208 199.572C127.368 199.556 127.52 199.54 127.664 199.524V202.212C127.44 202.244 127.184 202.276 126.896 202.308C126.608 202.34 126.344 202.356 126.104 202.356ZM133.636 202.212V184.332H136.18L146.02 197.58L144.7 197.844V184.332H147.964V202.212H145.396L135.7 188.868L136.9 188.604V202.212H133.636ZM154.641 202.5C153.729 202.5 152.937 202.348 152.265 202.044C151.593 201.74 151.073 201.308 150.705 200.748C150.337 200.172 150.153 199.508 150.153 198.756C150.153 198.036 150.313 197.396 150.633 196.836C150.953 196.26 151.449 195.78 152.121 195.396C152.793 195.012 153.641 194.74 154.665 194.58L158.937 193.884V196.284L155.265 196.908C154.641 197.02 154.177 197.22 153.873 197.508C153.569 197.796 153.417 198.172 153.417 198.636C153.417 199.084 153.585 199.444 153.921 199.716C154.273 199.972 154.705 200.1 155.217 200.1C155.873 200.1 156.449 199.964 156.945 199.692C157.457 199.404 157.849 199.012 158.121 198.516C158.409 198.02 158.553 197.476 158.553 196.884V193.524C158.553 192.964 158.329 192.5 157.881 192.132C157.449 191.748 156.873 191.556 156.153 191.556C155.481 191.556 154.881 191.74 154.353 192.108C153.841 192.46 153.465 192.932 153.225 193.524L150.657 192.276C150.913 191.588 151.313 190.996 151.857 190.5C152.417 189.988 153.073 189.588 153.825 189.3C154.577 189.012 155.393 188.868 156.273 188.868C157.345 188.868 158.289 189.068 159.105 189.468C159.921 189.852 160.553 190.396 161.001 191.1C161.465 191.788 161.697 192.596 161.697 193.524V202.212H158.721V199.98L159.393 199.932C159.057 200.492 158.657 200.964 158.193 201.348C157.729 201.716 157.201 202.004 156.609 202.212C156.017 202.404 155.361 202.5 154.641 202.5ZM169.84 202.356C168.368 202.356 167.224 201.956 166.408 201.156C165.608 200.34 165.208 199.196 165.208 197.724V191.964H162.952V189.156H163.192C163.832 189.156 164.328 188.988 164.68 188.652C165.032 188.316 165.208 187.828 165.208 187.188V186.18H168.352V189.156H171.352V191.964H168.352V197.556C168.352 197.988 168.424 198.356 168.568 198.66C168.728 198.964 168.968 199.196 169.288 199.356C169.624 199.516 170.048 199.596 170.56 199.596C170.672 199.596 170.8 199.588 170.944 199.572C171.104 199.556 171.256 199.54 171.4 199.524V202.212C171.176 202.244 170.92 202.276 170.632 202.308C170.344 202.34 170.08 202.356 169.84 202.356ZM173.322 202.212V189.156H176.466V202.212H173.322ZM173.322 187.692V184.332H176.466V187.692H173.322ZM182.825 202.212L177.689 189.156H181.121L184.841 199.428H183.569L187.313 189.156H190.745L185.609 202.212H182.825ZM197.961 202.5C196.617 202.5 195.441 202.196 194.433 201.588C193.425 200.98 192.641 200.156 192.081 199.116C191.521 198.076 191.241 196.924 191.241 195.66C191.241 194.348 191.521 193.188 192.081 192.18C192.657 191.156 193.433 190.348 194.409 189.756C195.401 189.164 196.505 188.868 197.721 188.868C198.745 188.868 199.641 189.036 200.409 189.372C201.193 189.708 201.857 190.172 202.401 190.764C202.945 191.356 203.361 192.036 203.649 192.804C203.937 193.556 204.081 194.372 204.081 195.252C204.081 195.476 204.065 195.708 204.033 195.948C204.017 196.188 203.977 196.396 203.913 196.572H193.833V194.172H202.137L200.649 195.3C200.793 194.564 200.753 193.908 200.529 193.332C200.321 192.756 199.969 192.3 199.473 191.964C198.993 191.628 198.409 191.46 197.721 191.46C197.065 191.46 196.481 191.628 195.969 191.964C195.457 192.284 195.065 192.764 194.793 193.404C194.537 194.028 194.441 194.788 194.505 195.684C194.441 196.484 194.545 197.196 194.817 197.82C195.105 198.428 195.521 198.9 196.065 199.236C196.625 199.572 197.265 199.74 197.985 199.74C198.705 199.74 199.313 199.588 199.809 199.284C200.321 198.98 200.721 198.572 201.009 198.06L203.553 199.308C203.297 199.932 202.897 200.484 202.353 200.964C201.809 201.444 201.161 201.82 200.409 202.092C199.673 202.364 198.857 202.5 197.961 202.5Z" fill="#FAFAFA"/>
<g clipPath="url(#clip1_12140_57316)">
<g filter="url(#filter1_i_12140_57316)">
<rect x="240" y="185.684" width="947" height="12" rx="6" fill="url(#paint2_linear_12140_57316)"/>
<rect width="1728" height="172" transform="matrix(0 -1 -1 0 1208 1259.55)" fill="url(#paint3_linear_12140_57316)"/>
<rect x="240.5" y="186.184" width="946" height="11" rx="5.5" stroke="white" stroke-opacity="0.04"/>
</g>
<path d="M241 191.95C241 188.636 243.686 185.95 247 185.95H361V197.95H247C243.686 197.95 241 195.264 241 191.95Z" fill="#61DAFB"/>
</g>
<path d="M1229.87 201C1228.64 201 1227.6 200.768 1226.75 200.304C1225.9 199.84 1225.22 199.224 1224.69 198.456C1224.18 197.688 1223.81 196.824 1223.58 195.864C1223.36 194.904 1223.25 193.92 1223.25 192.912C1223.25 191.056 1223.5 189.432 1224.02 188.04C1224.54 186.648 1225.3 185.568 1226.27 184.8C1227.25 184.016 1228.43 183.624 1229.82 183.624C1230.93 183.624 1231.87 183.84 1232.66 184.272C1233.44 184.704 1234.05 185.28 1234.48 186C1234.93 186.72 1235.2 187.504 1235.3 188.352H1232.92C1232.78 187.52 1232.43 186.88 1231.89 186.432C1231.34 185.984 1230.65 185.76 1229.8 185.76C1228.63 185.76 1227.66 186.312 1226.9 187.416C1226.14 188.504 1225.74 190.184 1225.7 192.456C1226.08 191.752 1226.67 191.152 1227.47 190.656C1228.29 190.16 1229.22 189.912 1230.28 189.912C1231.22 189.912 1232.1 190.136 1232.92 190.584C1233.75 191.032 1234.42 191.664 1234.94 192.48C1235.46 193.28 1235.73 194.232 1235.73 195.336C1235.73 196.312 1235.49 197.232 1235.01 198.096C1234.53 198.96 1233.85 199.664 1232.97 200.208C1232.1 200.736 1231.07 201 1229.87 201ZM1229.73 198.792C1230.4 198.792 1231 198.648 1231.53 198.36C1232.06 198.072 1232.47 197.68 1232.78 197.184C1233.08 196.672 1233.23 196.096 1233.23 195.456C1233.23 194.432 1232.9 193.616 1232.22 193.008C1231.57 192.4 1230.73 192.096 1229.7 192.096C1229.03 192.096 1228.42 192.248 1227.88 192.552C1227.35 192.856 1226.94 193.264 1226.63 193.776C1226.33 194.272 1226.18 194.824 1226.18 195.432C1226.18 196.088 1226.33 196.672 1226.63 197.184C1226.95 197.68 1227.38 198.072 1227.9 198.36C1228.45 198.648 1229.06 198.792 1229.73 198.792ZM1244.04 201C1242.94 201 1241.99 200.784 1241.21 200.352C1240.42 199.92 1239.81 199.344 1239.36 198.624C1238.93 197.904 1238.66 197.12 1238.57 196.272H1240.94C1241.09 197.104 1241.43 197.744 1241.98 198.192C1242.52 198.64 1243.22 198.864 1244.06 198.864C1245.23 198.864 1246.19 198.32 1246.94 197.232C1247.71 196.128 1248.12 194.44 1248.17 192.168C1247.78 192.872 1247.18 193.472 1246.37 193.968C1245.57 194.464 1244.64 194.712 1243.58 194.712C1242.64 194.712 1241.75 194.488 1240.92 194.04C1240.09 193.592 1239.42 192.968 1238.9 192.168C1238.39 191.352 1238.14 190.392 1238.14 189.288C1238.14 188.312 1238.38 187.392 1238.86 186.528C1239.34 185.664 1240.01 184.968 1240.87 184.44C1241.75 183.896 1242.79 183.624 1243.99 183.624C1245.22 183.624 1246.26 183.856 1247.11 184.32C1247.96 184.784 1248.64 185.4 1249.15 186.168C1249.66 186.936 1250.03 187.8 1250.26 188.76C1250.5 189.72 1250.62 190.704 1250.62 191.712C1250.62 193.568 1250.35 195.192 1249.82 196.584C1249.31 197.976 1248.57 199.064 1247.59 199.848C1246.62 200.616 1245.43 201 1244.04 201ZM1244.16 192.528C1244.83 192.528 1245.43 192.376 1245.96 192.072C1246.49 191.768 1246.9 191.368 1247.21 190.872C1247.53 190.36 1247.69 189.8 1247.69 189.192C1247.69 188.536 1247.53 187.96 1247.21 187.464C1246.9 186.952 1246.48 186.552 1245.94 186.264C1245.41 185.976 1244.81 185.832 1244.14 185.832C1243.46 185.832 1242.86 185.976 1242.34 186.264C1241.81 186.552 1241.38 186.952 1241.06 187.464C1240.76 187.96 1240.61 188.528 1240.61 189.168C1240.61 190.192 1240.94 191.008 1241.62 191.616C1242.29 192.224 1243.14 192.528 1244.16 192.528ZM1259.51 200.712V188.808H1261.77L1261.99 190.488C1262.37 189.88 1262.87 189.4 1263.5 189.048C1264.14 188.696 1264.87 188.52 1265.71 188.52C1267.59 188.52 1268.91 189.264 1269.64 190.752C1270.07 190.064 1270.65 189.52 1271.37 189.12C1272.11 188.72 1272.9 188.52 1273.75 188.52C1275.23 188.52 1276.4 188.968 1277.25 189.864C1278.1 190.76 1278.52 192.096 1278.52 193.872V200.712H1275.98V194.136C1275.98 191.832 1275.1 190.68 1273.34 190.68C1272.44 190.68 1271.71 191.016 1271.13 191.688C1270.57 192.36 1270.29 193.32 1270.29 194.568V200.712H1267.75V194.136C1267.75 191.832 1266.86 190.68 1265.08 190.68C1264.2 190.68 1263.47 191.016 1262.9 191.688C1262.34 192.36 1262.06 193.32 1262.06 194.568V200.712H1259.51ZM1286.25 201C1284.75 201 1283.51 200.632 1282.53 199.896C1281.55 199.16 1280.99 198.184 1280.85 196.968H1283.42C1283.55 197.512 1283.85 197.984 1284.33 198.384C1284.81 198.768 1285.44 198.96 1286.23 198.96C1286.99 198.96 1287.55 198.8 1287.91 198.48C1288.26 198.16 1288.43 197.792 1288.43 197.376C1288.43 196.768 1288.19 196.36 1287.69 196.152C1287.21 195.928 1286.54 195.728 1285.67 195.552C1285 195.408 1284.33 195.216 1283.66 194.976C1283 194.736 1282.45 194.4 1282 193.968C1281.57 193.52 1281.35 192.92 1281.35 192.168C1281.35 191.128 1281.75 190.264 1282.55 189.576C1283.35 188.872 1284.47 188.52 1285.91 188.52C1287.24 188.52 1288.31 188.84 1289.13 189.48C1289.96 190.12 1290.45 191.024 1290.59 192.192H1288.15C1288.07 191.68 1287.83 191.28 1287.43 190.992C1287.04 190.704 1286.52 190.56 1285.87 190.56C1285.23 190.56 1284.73 190.696 1284.38 190.968C1284.03 191.224 1283.85 191.56 1283.85 191.976C1283.85 192.392 1284.09 192.72 1284.57 192.96C1285.07 193.2 1285.71 193.416 1286.51 193.608C1287.31 193.784 1288.05 193.992 1288.72 194.232C1289.41 194.456 1289.96 194.792 1290.38 195.24C1290.79 195.688 1291 196.344 1291 197.208C1291.02 198.296 1290.59 199.2 1289.73 199.92C1288.88 200.64 1287.72 201 1286.25 201Z" fill="#A3A3A3"/>
<path d="M115.253 277.318V262.318H110.621V259.438H123.101V262.318H118.541V277.318H115.253ZM126.879 277.606C125.967 277.606 125.175 277.454 124.503 277.15C123.831 276.846 123.311 276.414 122.943 275.854C122.575 275.278 122.391 274.614 122.391 273.862C122.391 273.142 122.551 272.502 122.871 271.942C123.191 271.366 123.687 270.886 124.359 270.502C125.031 270.118 125.879 269.846 126.903 269.686L131.175 268.99V271.39L127.503 272.014C126.879 272.126 126.415 272.326 126.111 272.614C125.807 272.902 125.655 273.278 125.655 273.742C125.655 274.19 125.823 274.55 126.159 274.822C126.511 275.078 126.943 275.206 127.455 275.206C128.111 275.206 128.687 275.07 129.183 274.798C129.695 274.51 130.087 274.118 130.359 273.622C130.647 273.126 130.791 272.582 130.791 271.99V268.63C130.791 268.07 130.567 267.606 130.119 267.238C129.687 266.854 129.111 266.662 128.391 266.662C127.719 266.662 127.119 266.846 126.591 267.214C126.079 267.566 125.703 268.038 125.463 268.63L122.895 267.382C123.151 266.694 123.551 266.102 124.095 265.606C124.655 265.094 125.311 264.694 126.063 264.406C126.815 264.118 127.631 263.974 128.511 263.974C129.583 263.974 130.527 264.174 131.343 264.574C132.159 264.958 132.791 265.502 133.239 266.206C133.703 266.894 133.935 267.702 133.935 268.63V277.318H130.959V275.086L131.631 275.038C131.295 275.598 130.895 276.07 130.431 276.454C129.967 276.822 129.439 277.11 128.847 277.318C128.255 277.51 127.599 277.606 126.879 277.606ZM136.361 277.318V264.262H139.313V267.286L138.977 266.782C139.217 265.838 139.697 265.134 140.417 264.67C141.137 264.206 141.985 263.974 142.961 263.974C144.033 263.974 144.977 264.254 145.793 264.814C146.609 265.374 147.137 266.11 147.377 267.022L146.489 267.094C146.889 266.054 147.489 265.278 148.289 264.766C149.089 264.238 150.009 263.974 151.049 263.974C151.977 263.974 152.801 264.182 153.521 264.598C154.257 265.014 154.833 265.598 155.249 266.35C155.665 267.086 155.873 267.942 155.873 268.918V277.318H152.729V269.662C152.729 269.086 152.625 268.59 152.417 268.174C152.209 267.758 151.921 267.438 151.553 267.214C151.185 266.974 150.737 266.854 150.209 266.854C149.713 266.854 149.273 266.974 148.889 267.214C148.505 267.438 148.209 267.758 148.001 268.174C147.793 268.59 147.689 269.086 147.689 269.662V277.318H144.545V269.662C144.545 269.086 144.441 268.59 144.233 268.174C144.025 267.758 143.729 267.438 143.345 267.214C142.977 266.974 142.537 266.854 142.025 266.854C141.529 266.854 141.089 266.974 140.705 267.214C140.321 267.438 140.025 267.758 139.817 268.174C139.609 268.59 139.505 269.086 139.505 269.662V277.318H136.361ZM162.012 277.606C161.1 277.606 160.308 277.454 159.636 277.15C158.964 276.846 158.444 276.414 158.076 275.854C157.708 275.278 157.524 274.614 157.524 273.862C157.524 273.142 157.684 272.502 158.004 271.942C158.324 271.366 158.82 270.886 159.492 270.502C160.164 270.118 161.012 269.846 162.036 269.686L166.308 268.99V271.39L162.636 272.014C162.012 272.126 161.548 272.326 161.244 272.614C160.94 272.902 160.788 273.278 160.788 273.742C160.788 274.19 160.956 274.55 161.292 274.822C161.644 275.078 162.076 275.206 162.588 275.206C163.244 275.206 163.82 275.07 164.316 274.798C164.828 274.51 165.22 274.118 165.492 273.622C165.78 273.126 165.924 272.582 165.924 271.99V268.63C165.924 268.07 165.7 267.606 165.252 267.238C164.82 266.854 164.244 266.662 163.524 266.662C162.852 266.662 162.252 266.846 161.724 267.214C161.212 267.566 160.836 268.038 160.596 268.63L158.028 267.382C158.284 266.694 158.684 266.102 159.228 265.606C159.788 265.094 160.444 264.694 161.196 264.406C161.948 264.118 162.764 263.974 163.644 263.974C164.716 263.974 165.66 264.174 166.476 264.574C167.292 264.958 167.924 265.502 168.372 266.206C168.836 266.894 169.068 267.702 169.068 268.63V277.318H166.092V275.086L166.764 275.038C166.428 275.598 166.028 276.07 165.564 276.454C165.1 276.822 164.572 277.11 163.98 277.318C163.388 277.51 162.732 277.606 162.012 277.606ZM177.83 282.598C176.854 282.598 175.95 282.438 175.118 282.118C174.286 281.798 173.566 281.35 172.958 280.774C172.366 280.214 171.934 279.55 171.662 278.782L174.59 277.678C174.782 278.286 175.158 278.774 175.718 279.142C176.294 279.526 176.998 279.718 177.83 279.718C178.47 279.718 179.03 279.598 179.51 279.358C180.006 279.118 180.39 278.766 180.662 278.302C180.934 277.854 181.07 277.31 181.07 276.67V273.694L181.67 274.414C181.222 275.198 180.622 275.79 179.87 276.19C179.118 276.59 178.262 276.79 177.302 276.79C176.086 276.79 174.998 276.51 174.038 275.95C173.078 275.39 172.326 274.622 171.782 273.646C171.238 272.67 170.966 271.574 170.966 270.358C170.966 269.126 171.238 268.03 171.782 267.07C172.326 266.11 173.07 265.358 174.014 264.814C174.958 264.254 176.03 263.974 177.23 263.974C178.206 263.974 179.062 264.182 179.798 264.598C180.55 264.998 181.174 265.582 181.67 266.35L181.238 267.142V264.262H184.214V276.67C184.214 277.806 183.934 278.822 183.374 279.718C182.83 280.614 182.078 281.318 181.118 281.83C180.174 282.342 179.078 282.598 177.83 282.598ZM177.686 273.886C178.358 273.886 178.942 273.742 179.438 273.454C179.95 273.15 180.35 272.734 180.638 272.206C180.926 271.678 181.07 271.07 181.07 270.382C181.07 269.71 180.918 269.11 180.614 268.582C180.326 268.038 179.926 267.614 179.414 267.31C178.918 267.006 178.342 266.854 177.686 266.854C177.03 266.854 176.438 267.006 175.91 267.31C175.382 267.614 174.966 268.038 174.662 268.582C174.374 269.11 174.23 269.71 174.23 270.382C174.23 271.054 174.374 271.654 174.662 272.182C174.966 272.71 175.374 273.126 175.886 273.43C176.414 273.734 177.014 273.886 177.686 273.886ZM191.327 277.606C190.319 277.606 189.439 277.382 188.687 276.934C187.951 276.486 187.383 275.862 186.983 275.062C186.599 274.262 186.407 273.326 186.407 272.254V264.262H189.551V271.99C189.551 272.534 189.655 273.014 189.863 273.43C190.087 273.83 190.399 274.15 190.799 274.39C191.215 274.614 191.679 274.726 192.191 274.726C192.703 274.726 193.159 274.614 193.559 274.39C193.959 274.15 194.271 273.822 194.495 273.406C194.719 272.99 194.831 272.494 194.831 271.918V264.262H197.975V277.318H194.999V274.75L195.263 275.206C194.959 276.006 194.455 276.606 193.751 277.006C193.063 277.406 192.255 277.606 191.327 277.606ZM200.417 277.318V264.262H203.561V277.318H200.417ZM200.417 262.798V259.438H203.561V262.798H200.417Z" fill="#FAFAFA"/>
<g clipPath="url(#clip2_12140_57316)">
<g filter="url(#filter2_i_12140_57316)">
<rect x="240" y="260.689" width="947" height="12" rx="6" fill="url(#paint4_linear_12140_57316)"/>
<rect width="1728" height="172" transform="matrix(0 -1 -1 0 1208 1334.56)" fill="url(#paint5_linear_12140_57316)"/>
<rect x="240.5" y="261.189" width="946" height="11" rx="5.5" stroke="white" stroke-opacity="0.04"/>
</g>
<path d="M241 267.056C241 263.743 243.686 261.056 247 261.056H534V273.056H247C243.686 273.056 241 270.37 241 267.056Z" fill="#D6409F"/>
</g>
<path d="M1229.34 276.106C1228.24 276.106 1227.3 275.89 1226.51 275.458C1225.73 275.026 1225.11 274.45 1224.66 273.73C1224.23 273.01 1223.97 272.226 1223.87 271.378H1226.25C1226.39 272.21 1226.74 272.85 1227.28 273.298C1227.82 273.746 1228.52 273.97 1229.37 273.97C1230.54 273.97 1231.5 273.426 1232.25 272.338C1233.02 271.234 1233.42 269.546 1233.47 267.274C1233.09 267.978 1232.49 268.578 1231.67 269.074C1230.87 269.57 1229.94 269.818 1228.89 269.818C1227.94 269.818 1227.06 269.594 1226.22 269.146C1225.39 268.698 1224.72 268.074 1224.21 267.274C1223.7 266.458 1223.44 265.498 1223.44 264.394C1223.44 263.418 1223.68 262.498 1224.16 261.634C1224.64 260.77 1225.31 260.074 1226.18 259.546C1227.06 259.002 1228.1 258.73 1229.3 258.73C1230.53 258.73 1231.57 258.962 1232.42 259.426C1233.26 259.89 1233.94 260.506 1234.46 261.274C1234.97 262.042 1235.34 262.906 1235.56 263.866C1235.8 264.826 1235.92 265.81 1235.92 266.818C1235.92 268.674 1235.66 270.298 1235.13 271.69C1234.62 273.082 1233.87 274.17 1232.9 274.954C1231.92 275.722 1230.74 276.106 1229.34 276.106ZM1229.46 267.634C1230.14 267.634 1230.74 267.482 1231.26 267.178C1231.79 266.874 1232.21 266.474 1232.51 265.978C1232.83 265.466 1232.99 264.906 1232.99 264.298C1232.99 263.642 1232.83 263.066 1232.51 262.57C1232.21 262.058 1231.78 261.658 1231.24 261.37C1230.71 261.082 1230.11 260.938 1229.44 260.938C1228.77 260.938 1228.17 261.082 1227.64 261.37C1227.11 261.658 1226.69 262.058 1226.37 262.57C1226.06 263.066 1225.91 263.634 1225.91 264.274C1225.91 265.298 1226.25 266.114 1226.92 266.722C1227.59 267.33 1228.44 267.634 1229.46 267.634ZM1245.59 276.106C1244.07 276.106 1242.76 275.746 1241.65 275.026C1240.56 274.29 1239.72 273.274 1239.13 271.978C1238.56 270.666 1238.27 269.146 1238.27 267.418C1238.27 265.69 1238.56 264.178 1239.13 262.882C1239.72 261.57 1240.56 260.554 1241.65 259.834C1242.76 259.098 1244.07 258.73 1245.59 258.73C1247.11 258.73 1248.41 259.098 1249.5 259.834C1250.59 260.554 1251.42 261.57 1252 262.882C1252.59 264.178 1252.88 265.69 1252.88 267.418C1252.88 269.146 1252.59 270.666 1252 271.978C1251.42 273.274 1250.59 274.29 1249.5 275.026C1248.41 275.746 1247.11 276.106 1245.59 276.106ZM1245.59 273.826C1246.5 273.826 1247.31 273.57 1248.01 273.058C1248.73 272.546 1249.29 271.81 1249.69 270.85C1250.09 269.89 1250.29 268.746 1250.29 267.418C1250.29 266.09 1250.09 264.946 1249.69 263.986C1249.29 263.026 1248.73 262.29 1248.01 261.778C1247.31 261.266 1246.5 261.01 1245.59 261.01C1244.66 261.01 1243.84 261.266 1243.14 261.778C1242.44 262.29 1241.88 263.026 1241.48 263.986C1241.08 264.946 1240.88 266.09 1240.88 267.418C1240.88 268.746 1241.08 269.89 1241.48 270.85C1241.88 271.81 1242.44 272.546 1243.14 273.058C1243.84 273.57 1244.66 273.826 1245.59 273.826ZM1261.67 275.818V263.914H1263.93L1264.14 265.594C1264.53 264.986 1265.03 264.506 1265.65 264.154C1266.29 263.802 1267.03 263.626 1267.86 263.626C1269.75 263.626 1271.06 264.37 1271.8 265.858C1272.23 265.17 1272.81 264.626 1273.53 264.226C1274.26 263.826 1275.05 263.626 1275.9 263.626C1277.39 263.626 1278.56 264.074 1279.41 264.97C1280.25 265.866 1280.68 267.202 1280.68 268.978V275.818H1278.13V269.242C1278.13 266.938 1277.25 265.786 1275.49 265.786C1274.6 265.786 1273.86 266.122 1273.29 266.794C1272.73 267.466 1272.45 268.426 1272.45 269.674V275.818H1269.9V269.242C1269.9 266.938 1269.01 265.786 1267.24 265.786C1266.36 265.786 1265.63 266.122 1265.05 266.794C1264.49 267.466 1264.21 268.426 1264.21 269.674V275.818H1261.67ZM1288.41 276.106C1286.9 276.106 1285.66 275.738 1284.69 275.002C1283.71 274.266 1283.15 273.29 1283.01 272.074H1285.57C1285.7 272.618 1286.01 273.09 1286.49 273.49C1286.97 273.874 1287.6 274.066 1288.38 274.066C1289.15 274.066 1289.71 273.906 1290.06 273.586C1290.41 273.266 1290.59 272.898 1290.59 272.482C1290.59 271.874 1290.34 271.466 1289.85 271.258C1289.37 271.034 1288.69 270.834 1287.83 270.658C1287.16 270.514 1286.49 270.322 1285.81 270.082C1285.16 269.842 1284.61 269.506 1284.16 269.074C1283.73 268.626 1283.51 268.026 1283.51 267.274C1283.51 266.234 1283.91 265.37 1284.71 264.682C1285.51 263.978 1286.63 263.626 1288.07 263.626C1289.4 263.626 1290.47 263.946 1291.29 264.586C1292.12 265.226 1292.61 266.13 1292.75 267.298H1290.3C1290.22 266.786 1289.98 266.386 1289.58 266.098C1289.2 265.81 1288.68 265.666 1288.02 265.666C1287.38 265.666 1286.89 265.802 1286.53 266.074C1286.18 266.33 1286.01 266.666 1286.01 267.082C1286.01 267.498 1286.25 267.826 1286.73 268.066C1287.22 268.306 1287.87 268.522 1288.67 268.714C1289.47 268.89 1290.21 269.098 1290.88 269.338C1291.57 269.562 1292.12 269.898 1292.53 270.346C1292.95 270.794 1293.16 271.45 1293.16 272.314C1293.17 273.402 1292.75 274.306 1291.89 275.026C1291.04 275.746 1289.88 276.106 1288.41 276.106Z" fill="#A3A3A3"/>
<path d="M78.0168 352.424V334.544H80.5608L90.4008 347.792L89.0808 348.056V334.544H92.3448V352.424H89.7768L80.0808 339.08L81.2808 338.816V352.424H78.0168ZM99.0218 352.712C98.1098 352.712 97.3178 352.56 96.6458 352.256C95.9738 351.952 95.4538 351.52 95.0858 350.96C94.7178 350.384 94.5338 349.72 94.5338 348.968C94.5338 348.248 94.6938 347.608 95.0138 347.048C95.3338 346.472 95.8298 345.992 96.5018 345.608C97.1738 345.224 98.0218 344.952 99.0458 344.792L103.318 344.096V346.496L99.6458 347.12C99.0218 347.232 98.5578 347.432 98.2538 347.72C97.9498 348.008 97.7978 348.384 97.7978 348.848C97.7978 349.296 97.9658 349.656 98.3018 349.928C98.6538 350.184 99.0858 350.312 99.5978 350.312C100.254 350.312 100.83 350.176 101.326 349.904C101.838 349.616 102.23 349.224 102.502 348.728C102.79 348.232 102.934 347.688 102.934 347.096V343.736C102.934 343.176 102.71 342.712 102.262 342.344C101.83 341.96 101.254 341.768 100.534 341.768C99.8618 341.768 99.2618 341.952 98.7338 342.32C98.2218 342.672 97.8458 343.144 97.6058 343.736L95.0378 342.488C95.2938 341.8 95.6938 341.208 96.2378 340.712C96.7978 340.2 97.4538 339.8 98.2058 339.512C98.9578 339.224 99.7738 339.08 100.654 339.08C101.726 339.08 102.67 339.28 103.486 339.68C104.302 340.064 104.934 340.608 105.382 341.312C105.846 342 106.078 342.808 106.078 343.736V352.424H103.102V350.192L103.774 350.144C103.438 350.704 103.038 351.176 102.574 351.56C102.11 351.928 101.582 352.216 100.99 352.424C100.398 352.616 99.7418 352.712 99.0218 352.712ZM114.221 352.568C112.749 352.568 111.605 352.168 110.789 351.368C109.989 350.552 109.589 349.408 109.589 347.936V342.176H107.333V339.368H107.573C108.213 339.368 108.709 339.2 109.061 338.864C109.413 338.528 109.589 338.04 109.589 337.4V336.392H112.733V339.368H115.733V342.176H112.733V347.768C112.733 348.2 112.805 348.568 112.949 348.872C113.109 349.176 113.349 349.408 113.669 349.568C114.005 349.728 114.429 349.808 114.941 349.808C115.053 349.808 115.181 349.8 115.325 349.784C115.485 349.768 115.637 349.752 115.781 349.736V352.424C115.557 352.456 115.301 352.488 115.013 352.52C114.725 352.552 114.461 352.568 114.221 352.568ZM117.703 352.424V339.368H120.847V352.424H117.703ZM117.703 337.904V334.544H120.847V337.904H117.703ZM127.206 352.424L122.07 339.368H125.502L129.222 349.64H127.95L131.694 339.368H135.126L129.99 352.424H127.206ZM142.342 352.712C140.998 352.712 139.822 352.408 138.814 351.8C137.806 351.192 137.022 350.368 136.462 349.328C135.902 348.288 135.622 347.136 135.622 345.872C135.622 344.56 135.902 343.4 136.462 342.392C137.038 341.368 137.814 340.56 138.79 339.968C139.782 339.376 140.886 339.08 142.102 339.08C143.126 339.08 144.022 339.248 144.79 339.584C145.574 339.92 146.238 340.384 146.782 340.976C147.326 341.568 147.742 342.248 148.03 343.016C148.318 343.768 148.462 344.584 148.462 345.464C148.462 345.688 148.446 345.92 148.414 346.16C148.398 346.4 148.358 346.608 148.294 346.784H138.214V344.384H146.518L145.03 345.512C145.174 344.776 145.134 344.12 144.91 343.544C144.702 342.968 144.35 342.512 143.854 342.176C143.374 341.84 142.79 341.672 142.102 341.672C141.446 341.672 140.862 341.84 140.35 342.176C139.838 342.496 139.446 342.976 139.174 343.616C138.918 344.24 138.822 345 138.886 345.896C138.822 346.696 138.926 347.408 139.198 348.032C139.486 348.64 139.902 349.112 140.446 349.448C141.006 349.784 141.646 349.952 142.366 349.952C143.086 349.952 143.694 349.8 144.19 349.496C144.702 349.192 145.102 348.784 145.39 348.272L147.934 349.52C147.678 350.144 147.278 350.696 146.734 351.176C146.19 351.656 145.542 352.032 144.79 352.304C144.054 352.576 143.238 352.712 142.342 352.712ZM150.629 352.424V334.544H158.165C159.349 334.544 160.357 334.752 161.189 335.168C162.037 335.568 162.685 336.144 163.133 336.896C163.597 337.632 163.829 338.528 163.829 339.584C163.829 340.4 163.605 341.168 163.157 341.888C162.725 342.592 162.029 343.176 161.069 343.64V342.128C161.949 342.464 162.645 342.88 163.157 343.376C163.669 343.872 164.029 344.424 164.237 345.032C164.445 345.64 164.549 346.28 164.549 346.952C164.549 348.664 163.981 350.008 162.845 350.984C161.725 351.944 160.165 352.424 158.165 352.424H150.629ZM153.893 349.544H158.501C159.349 349.544 160.021 349.312 160.517 348.848C161.029 348.368 161.285 347.736 161.285 346.952C161.285 346.168 161.029 345.536 160.517 345.056C160.021 344.576 159.349 344.336 158.501 344.336H153.893V349.544ZM153.893 341.48H158.333C159.005 341.48 159.541 341.288 159.941 340.904C160.341 340.504 160.541 339.992 160.541 339.368C160.541 338.744 160.341 338.248 159.941 337.88C159.541 337.512 159.005 337.328 158.333 337.328H153.893V341.48ZM170.439 352.712C169.527 352.712 168.735 352.56 168.063 352.256C167.391 351.952 166.871 351.52 166.503 350.96C166.135 350.384 165.951 349.72 165.951 348.968C165.951 348.248 166.111 347.608 166.431 347.048C166.751 346.472 167.247 345.992 167.919 345.608C168.591 345.224 169.439 344.952 170.463 344.792L174.735 344.096V346.496L171.063 347.12C170.439 347.232 169.975 347.432 169.671 347.72C169.367 348.008 169.215 348.384 169.215 348.848C169.215 349.296 169.383 349.656 169.719 349.928C170.071 350.184 170.503 350.312 171.015 350.312C171.671 350.312 172.247 350.176 172.743 349.904C173.255 349.616 173.647 349.224 173.919 348.728C174.207 348.232 174.351 347.688 174.351 347.096V343.736C174.351 343.176 174.127 342.712 173.679 342.344C173.247 341.96 172.671 341.768 171.951 341.768C171.279 341.768 170.679 341.952 170.151 342.32C169.639 342.672 169.263 343.144 169.023 343.736L166.455 342.488C166.711 341.8 167.111 341.208 167.655 340.712C168.215 340.2 168.871 339.8 169.623 339.512C170.375 339.224 171.191 339.08 172.071 339.08C173.143 339.08 174.087 339.28 174.903 339.68C175.719 340.064 176.351 340.608 176.799 341.312C177.263 342 177.495 342.808 177.495 343.736V352.424H174.519V350.192L175.191 350.144C174.855 350.704 174.455 351.176 173.991 351.56C173.527 351.928 172.999 352.216 172.407 352.424C171.815 352.616 171.159 352.712 170.439 352.712ZM184.889 352.712C183.497 352.712 182.281 352.384 181.241 351.728C180.217 351.056 179.513 350.152 179.129 349.016L181.481 347.888C181.817 348.624 182.281 349.2 182.873 349.616C183.481 350.032 184.153 350.24 184.889 350.24C185.465 350.24 185.921 350.112 186.257 349.856C186.593 349.6 186.761 349.264 186.761 348.848C186.761 348.592 186.689 348.384 186.545 348.224C186.417 348.048 186.233 347.904 185.993 347.792C185.769 347.664 185.521 347.56 185.249 347.48L183.113 346.88C182.009 346.56 181.169 346.072 180.593 345.416C180.033 344.76 179.753 343.984 179.753 343.088C179.753 342.288 179.953 341.592 180.353 341C180.769 340.392 181.337 339.92 182.057 339.584C182.793 339.248 183.633 339.08 184.577 339.08C185.809 339.08 186.897 339.376 187.841 339.968C188.785 340.56 189.457 341.392 189.857 342.464L187.457 343.592C187.233 343 186.857 342.528 186.329 342.176C185.801 341.824 185.209 341.648 184.553 341.648C184.025 341.648 183.609 341.768 183.305 342.008C183.001 342.248 182.849 342.56 182.849 342.944C182.849 343.184 182.913 343.392 183.041 343.568C183.169 343.744 183.345 343.888 183.569 344C183.809 344.112 184.081 344.216 184.385 344.312L186.473 344.936C187.545 345.256 188.369 345.736 188.945 346.376C189.537 347.016 189.833 347.8 189.833 348.728C189.833 349.512 189.625 350.208 189.209 350.816C188.793 351.408 188.217 351.872 187.481 352.208C186.745 352.544 185.881 352.712 184.889 352.712ZM197.961 352.712C196.617 352.712 195.441 352.408 194.433 351.8C193.425 351.192 192.641 350.368 192.081 349.328C191.521 348.288 191.241 347.136 191.241 345.872C191.241 344.56 191.521 343.4 192.081 342.392C192.657 341.368 193.433 340.56 194.409 339.968C195.401 339.376 196.505 339.08 197.721 339.08C198.745 339.08 199.641 339.248 200.409 339.584C201.193 339.92 201.857 340.384 202.401 340.976C202.945 341.568 203.361 342.248 203.649 343.016C203.937 343.768 204.081 344.584 204.081 345.464C204.081 345.688 204.065 345.92 204.033 346.16C204.017 346.4 203.977 346.608 203.913 346.784H193.833V344.384H202.137L200.649 345.512C200.793 344.776 200.753 344.12 200.529 343.544C200.321 342.968 199.969 342.512 199.473 342.176C198.993 341.84 198.409 341.672 197.721 341.672C197.065 341.672 196.481 341.84 195.969 342.176C195.457 342.496 195.065 342.976 194.793 343.616C194.537 344.24 194.441 345 194.505 345.896C194.441 346.696 194.545 347.408 194.817 348.032C195.105 348.64 195.521 349.112 196.065 349.448C196.625 349.784 197.265 349.952 197.985 349.952C198.705 349.952 199.313 349.8 199.809 349.496C200.321 349.192 200.721 348.784 201.009 348.272L203.553 349.52C203.297 350.144 202.897 350.696 202.353 351.176C201.809 351.656 201.161 352.032 200.409 352.304C199.673 352.576 198.857 352.712 197.961 352.712Z" fill="#FAFAFA"/>
<g clipPath="url(#clip3_12140_57316)">
<g filter="url(#filter3_i_12140_57316)">
<rect x="241" y="335.686" width="953" height="12" rx="6" fill="url(#paint6_linear_12140_57316)"/>
<rect x="241.5" y="336.186" width="952" height="11" rx="5.5" stroke="white" stroke-opacity="0.04"/>
</g>
<path d="M241 342.163C241 338.849 243.686 336.163 247 336.163H1170V348.163H247C243.686 348.163 241 345.476 241 342.163Z" fill="#0991B1"/>
<rect width="1728" height="340" transform="matrix(0 -1 -1 0 1202 1419.55)" fill="url(#paint7_linear_12140_57316)"/>
</g>
<path d="M1239.36 350.924V347.564H1230.94V345.548L1238.95 334.124H1241.88V345.356H1244.23V347.564H1241.88V350.924H1239.36ZM1233.7 345.356H1239.5V336.932L1233.7 345.356ZM1252.3 351.212C1251.19 351.212 1250.25 350.996 1249.47 350.564C1248.68 350.132 1248.07 349.556 1247.62 348.836C1247.19 348.116 1246.92 347.332 1246.83 346.484H1249.2C1249.35 347.316 1249.69 347.956 1250.23 348.404C1250.78 348.852 1251.47 349.076 1252.32 349.076C1253.49 349.076 1254.45 348.532 1255.2 347.444C1255.97 346.34 1256.38 344.652 1256.43 342.38C1256.04 343.084 1255.44 343.684 1254.63 344.18C1253.83 344.676 1252.9 344.924 1251.84 344.924C1250.9 344.924 1250.01 344.7 1249.18 344.252C1248.35 343.804 1247.67 343.18 1247.16 342.38C1246.65 341.564 1246.39 340.604 1246.39 339.5C1246.39 338.524 1246.63 337.604 1247.11 336.74C1247.59 335.876 1248.27 335.18 1249.13 334.652C1250.01 334.108 1251.05 333.836 1252.25 333.836C1253.48 333.836 1254.52 334.068 1255.37 334.532C1256.22 334.996 1256.9 335.612 1257.41 336.38C1257.92 337.148 1258.29 338.012 1258.51 338.972C1258.75 339.932 1258.87 340.916 1258.87 341.924C1258.87 343.78 1258.61 345.404 1258.08 346.796C1257.57 348.188 1256.83 349.276 1255.85 350.06C1254.87 350.828 1253.69 351.212 1252.3 351.212ZM1252.42 342.74C1253.09 342.74 1253.69 342.588 1254.22 342.284C1254.75 341.98 1255.16 341.58 1255.47 341.084C1255.79 340.572 1255.95 340.012 1255.95 339.404C1255.95 338.748 1255.79 338.172 1255.47 337.676C1255.16 337.164 1254.74 336.764 1254.19 336.476C1253.67 336.188 1253.07 336.044 1252.39 336.044C1251.72 336.044 1251.12 336.188 1250.59 336.476C1250.07 336.764 1249.64 337.164 1249.32 337.676C1249.02 338.172 1248.87 338.74 1248.87 339.38C1248.87 340.404 1249.2 341.22 1249.87 341.828C1250.55 342.436 1251.39 342.74 1252.42 342.74ZM1263.24 350.924V337.004L1260.53 337.628V335.756L1264.25 334.124H1265.88V350.924H1263.24ZM1275.25 350.924V339.02H1277.5L1277.72 340.7C1278.1 340.092 1278.61 339.612 1279.23 339.26C1279.87 338.908 1280.61 338.732 1281.44 338.732C1283.33 338.732 1284.64 339.476 1285.38 340.964C1285.81 340.276 1286.38 339.732 1287.1 339.332C1287.84 338.932 1288.63 338.732 1289.48 338.732C1290.97 338.732 1292.14 339.18 1292.98 340.076C1293.83 340.972 1294.26 342.308 1294.26 344.084V350.924H1291.71V344.348C1291.71 342.044 1290.83 340.892 1289.07 340.892C1288.18 340.892 1287.44 341.228 1286.86 341.9C1286.3 342.572 1286.02 343.532 1286.02 344.78V350.924H1283.48V344.348C1283.48 342.044 1282.59 340.892 1280.82 340.892C1279.94 340.892 1279.21 341.228 1278.63 341.9C1278.07 342.572 1277.79 343.532 1277.79 344.78V350.924H1275.25ZM1301.99 351.212C1300.48 351.212 1299.24 350.844 1298.27 350.108C1297.29 349.372 1296.73 348.396 1296.59 347.18H1299.15C1299.28 347.724 1299.59 348.196 1300.07 348.596C1300.55 348.98 1301.18 349.172 1301.96 349.172C1302.73 349.172 1303.29 349.012 1303.64 348.692C1303.99 348.372 1304.17 348.004 1304.17 347.588C1304.17 346.98 1303.92 346.572 1303.43 346.364C1302.95 346.14 1302.27 345.94 1301.41 345.764C1300.74 345.62 1300.07 345.428 1299.39 345.188C1298.74 344.948 1298.19 344.612 1297.74 344.18C1297.31 343.732 1297.09 343.132 1297.09 342.38C1297.09 341.34 1297.49 340.476 1298.29 339.788C1299.09 339.084 1300.21 338.732 1301.65 338.732C1302.98 338.732 1304.05 339.052 1304.87 339.692C1305.7 340.332 1306.19 341.236 1306.33 342.404H1303.88C1303.8 341.892 1303.56 341.492 1303.16 341.204C1302.78 340.916 1302.26 340.772 1301.6 340.772C1300.96 340.772 1300.47 340.908 1300.11 341.18C1299.76 341.436 1299.59 341.772 1299.59 342.188C1299.59 342.604 1299.83 342.932 1300.31 343.172C1300.8 343.412 1301.45 343.628 1302.25 343.82C1303.05 343.996 1303.79 344.204 1304.46 344.444C1305.15 344.668 1305.7 345.004 1306.11 345.452C1306.53 345.9 1306.74 346.556 1306.74 347.42C1306.75 348.508 1306.33 349.412 1305.47 350.132C1304.62 350.852 1303.46 351.212 1301.99 351.212Z" fill="#A3A3A3"/>
<defs>
<filter id="filter0_i_12140_57316" x="240" y="-543.445" width="968" height="1728" filterUnits="userSpaceOnUse" color-interpolation-filters="sRGB">
<feFlood flood-opacity="0" result="BackgroundImageFix"/>
<feBlend mode="normal" in="SourceGraphic" in2="BackgroundImageFix" result="shape"/>
<feColorMatrix in="SourceAlpha" type="matrix" values="0 0 0 0 0 0 0 0 0 0 0 0 0 0 0 0 0 0 127 0" result="hardAlpha"/>
<feOffset dy="1"/>
<feComposite in2="hardAlpha" operator="arithmetic" k2="-1" k3="1"/>
<feColorMatrix type="matrix" values="0 0 0 0 1 0 0 0 0 1 0 0 0 0 1 0 0 0 0.08 0"/>
<feBlend mode="normal" in2="shape" result="effect1_innerShadow_12140_57316"/>
</filter>
<filter id="filter1_i_12140_57316" x="240" y="-468.448" width="968" height="1728" filterUnits="userSpaceOnUse" color-interpolation-filters="sRGB">
<feFlood flood-opacity="0" result="BackgroundImageFix"/>
<feBlend mode="normal" in="SourceGraphic" in2="BackgroundImageFix" result="shape"/>
<feColorMatrix in="SourceAlpha" type="matrix" values="0 0 0 0 0 0 0 0 0 0 0 0 0 0 0 0 0 0 127 0" result="hardAlpha"/>
<feOffset dy="1"/>
<feComposite in2="hardAlpha" operator="arithmetic" k2="-1" k3="1"/>
<feColorMatrix type="matrix" values="0 0 0 0 1 0 0 0 0 1 0 0 0 0 1 0 0 0 0.08 0"/>
<feBlend mode="normal" in2="shape" result="effect1_innerShadow_12140_57316"/>
</filter>
<filter id="filter2_i_12140_57316" x="240" y="-393.444" width="968" height="1728" filterUnits="userSpaceOnUse" color-interpolation-filters="sRGB">
<feFlood flood-opacity="0" result="BackgroundImageFix"/>
<feBlend mode="normal" in="SourceGraphic" in2="BackgroundImageFix" result="shape"/>
<feColorMatrix in="SourceAlpha" type="matrix" values="0 0 0 0 0 0 0 0 0 0 0 0 0 0 0 0 0 0 127 0" result="hardAlpha"/>
<feOffset dy="1"/>
<feComposite in2="hardAlpha" operator="arithmetic" k2="-1" k3="1"/>
<feColorMatrix type="matrix" values="0 0 0 0 1 0 0 0 0 1 0 0 0 0 1 0 0 0 0.08 0"/>
<feBlend mode="normal" in2="shape" result="effect1_innerShadow_12140_57316"/>
</filter>
<filter id="filter3_i_12140_57316" x="241" y="335.686" width="953" height="12" filterUnits="userSpaceOnUse" color-interpolation-filters="sRGB">
<feFlood flood-opacity="0" result="BackgroundImageFix"/>
<feBlend mode="normal" in="SourceGraphic" in2="BackgroundImageFix" result="shape"/>
<feColorMatrix in="SourceAlpha" type="matrix" values="0 0 0 0 0 0 0 0 0 0 0 0 0 0 0 0 0 0 127 0" result="hardAlpha"/>
<feOffset dy="1"/>
<feComposite in2="hardAlpha" operator="arithmetic" k2="-1" k3="1"/>
<feColorMatrix type="matrix" values="0 0 0 0 1 0 0 0 0 1 0 0 0 0 1 0 0 0 0.08 0"/>
<feBlend mode="normal" in2="shape" result="effect1_innerShadow_12140_57316"/>
</filter>
<linearGradient id="paint0_linear_12140_57316" x1="713.5" y1="110.688" x2="713.5" y2="122.688" gradientUnits="userSpaceOnUse">
<stop stop-color="white" stop-opacity="0.12"/>
<stop offset="1" stop-color="white" stop-opacity="0.02"/>
</linearGradient>
<linearGradient id="paint1_linear_12140_57316" x1="864" y1="13.9051" x2="864" y2="90.6854" gradientUnits="userSpaceOnUse">
<stop/>
<stop offset="1" stop-opacity="0"/>
</linearGradient>
<linearGradient id="paint2_linear_12140_57316" x1="713.5" y1="185.684" x2="713.5" y2="197.684" gradientUnits="userSpaceOnUse">
<stop stop-color="white" stop-opacity="0.12"/>
<stop offset="1" stop-color="white" stop-opacity="0.02"/>
</linearGradient>
<linearGradient id="paint3_linear_12140_57316" x1="864" y1="13.9051" x2="864" y2="90.6854" gradientUnits="userSpaceOnUse">
<stop/>
<stop offset="1" stop-opacity="0"/>
</linearGradient>
<linearGradient id="paint4_linear_12140_57316" x1="713.5" y1="260.689" x2="713.5" y2="272.689" gradientUnits="userSpaceOnUse">
<stop stop-color="white" stop-opacity="0.12"/>
<stop offset="1" stop-color="white" stop-opacity="0.02"/>
</linearGradient>
<linearGradient id="paint5_linear_12140_57316" x1="864" y1="13.9051" x2="864" y2="90.6854" gradientUnits="userSpaceOnUse">
<stop/>
<stop offset="1" stop-opacity="0"/>
</linearGradient>
<linearGradient id="paint6_linear_12140_57316" x1="717.5" y1="335.686" x2="717.5" y2="347.686" gradientUnits="userSpaceOnUse">
<stop stop-color="white" stop-opacity="0.12"/>
<stop offset="1" stop-color="white" stop-opacity="0.02"/>
</linearGradient>
<linearGradient id="paint7_linear_12140_57316" x1="864" y1="27.4868" x2="864" y2="179.262" gradientUnits="userSpaceOnUse">
<stop/>
<stop offset="1" stop-opacity="0"/>
</linearGradient>
<clipPath id="clip0_12140_57316">
<rect width="945" height="63.4766" fill="white" transform="translate(241 85.3673)"/>
</clipPath>
<clipPath id="clip1_12140_57316">
<rect width="945" height="63.4766" fill="white" transform="translate(241 160.474)"/>
</clipPath>
<clipPath id="clip2_12140_57316">
<rect width="945" height="63.4766" fill="white" transform="translate(241 235.58)"/>
</clipPath>
<clipPath id="clip3_12140_57316">
<rect width="953" height="63.4766" fill="white" transform="translate(241 310.686)"/>
</clipPath>
</defs>
</svg>
