<svg width="144" height="144" viewBox="0 0 144 144" fill="none"
  xmlns="http://www.w3.org/2000/svg">
  <g clip-path="url(#clip0_11725_11309)">
    <path fill-rule="evenodd" clip-rule="evenodd" d="M18 0C0 0 0 18 0 18V126C0 126 0 144 18 144H126C144 144 144 126 144 126V18C144 18 144 0 126 0H18Z" fill="#EC4899"/>
    <path fill-rule="evenodd" clip-rule="evenodd" d="M64.4265 62.1321C61.1885 54.6913 58.4999 44.3721 58.4999 36C58.4999 21.0883 67.0293 18 71.9999 18C76.9704 18 85.4999 21.0883 85.4999 36C85.4999 44.3721 82.8112 54.6913 79.5732 62.1321C85.6493 56.7533 94.6325 51.0074 102.595 48.4202C116.777 43.8123 122.35 50.9699 123.886 55.6972C125.422 60.4245 125.12 69.4908 110.938 74.0988C102.976 76.6859 92.331 77.3176 84.2539 76.5375C91.247 80.654 99.4876 87.422 104.409 94.1952C113.173 106.259 108.088 113.771 104.067 116.693C100.046 119.614 91.33 122.129 82.5652 110.065C77.6441 103.292 73.7539 93.3634 71.9999 85.4405C70.2458 93.3634 66.3556 103.292 61.4346 110.065C52.6697 122.129 43.954 119.614 39.9327 116.693C35.9114 113.771 30.8262 106.259 39.5911 94.1952C44.5121 87.422 52.7528 80.654 59.7459 76.5375C51.6687 77.3176 41.0238 76.6859 33.0614 74.0988C18.8795 69.4908 18.5781 60.4245 20.1141 55.6972C21.6501 50.9699 27.223 43.8123 41.4049 48.4202C49.3672 51.0074 58.3505 56.7533 64.4265 62.1321ZM71.9999 76.5C74.4852 76.5 76.4999 74.4853 76.4999 72C76.4999 69.5147 74.4852 67.5 71.9999 67.5C69.5146 67.5 67.4999 69.5147 67.4999 72C67.4999 74.4853 69.5146 76.5 71.9999 76.5Z" fill="white"/>
  </g>
  <defs>
    <clipPath id="clip0_11725_11309">
      <rect width="144" height="144" fill="white"/>
    </clipPath>
  </defs>
</svg>
