<svg width="25" height="24" viewBox="0 0 25 24" fill="none" xmlns="http://www.w3.org/2000/svg">
<g clipPath="url(#clip0_10695_24429)">
<path d="M18.429 17.0892H15.8278V0.607244C15.8278 0.271803 15.556 0 15.2205 0H1.35334C1.0179 0 0.746094 0.271803 0.746094 0.607244V20.794C0.746094 21.1294 1.0179 21.4012 1.35334 21.4012H7.86081V23.3928C7.86081 23.7281 8.13261 24 8.46806 24H18.4289C18.7643 24 19.0361 23.7281 19.0361 23.3928V17.6965C19.0362 17.3611 18.7643 17.0892 18.429 17.0892ZM14.6133 1.21449V4.27241H1.96058V1.21449H14.6133ZM7.86081 17.6965V20.1868H1.96058V5.4869H14.6133V17.0893H8.46814C8.1327 17.0892 7.86081 17.3611 7.86081 17.6965ZM17.8217 22.7855H9.0753V18.3037H17.8216L17.8217 22.7855Z" fill="#FAFAFA"/>
<path d="M3.93941 3.7272C4.47046 3.7272 4.90242 3.29509 4.90242 2.76403C4.90242 2.23282 4.47038 1.80078 3.93941 1.80078C3.40852 1.80078 2.97656 2.2329 2.97656 2.76403C2.97656 3.29509 3.40852 3.7272 3.93941 3.7272ZM3.93941 2.51271C4.07818 2.51271 4.19105 2.6255 4.19105 2.76403C4.19105 2.90257 4.0781 3.01527 3.93941 3.01527C3.8008 3.01527 3.68793 2.90257 3.68793 2.76403C3.68793 2.62542 3.8008 2.51271 3.93941 2.51271Z" fill="#FAFAFA"/>
<path d="M10.9593 21.5086C11.4904 21.5086 11.9224 21.0765 11.9224 20.5454C11.9224 20.0141 11.4903 19.582 10.9593 19.582C10.4282 19.582 9.99609 20.0142 9.99609 20.5454C9.99617 21.0766 10.4282 21.5086 10.9593 21.5086ZM10.9593 20.2942C11.0979 20.2942 11.2106 20.4069 11.2106 20.5454C11.2106 20.6839 11.0978 20.7965 10.9593 20.7965C10.8207 20.7965 10.7079 20.6838 10.7079 20.5454C10.7079 20.4068 10.8207 20.2942 10.9593 20.2942Z" fill="#FAFAFA"/>
<path d="M22.973 0.0546875H19.8533C19.5179 0.0546875 19.2461 0.32649 19.2461 0.661932V15.9983C19.2461 16.0925 19.268 16.1855 19.3101 16.2697L20.8699 19.3916C20.9727 19.5974 21.183 19.7275 21.4131 19.7275C21.6431 19.7275 21.8534 19.5975 21.9563 19.3917L23.5163 16.2698C23.5585 16.1855 23.5804 16.0926 23.5804 15.9983V0.661932C23.5803 0.32649 23.3085 0.0546875 22.973 0.0546875ZM21.4131 4.77443C21.8989 4.77443 22.3008 4.41244 22.3659 3.94413V15.3911H20.4607V3.94567C20.5264 4.41325 20.9278 4.77443 21.4131 4.77443ZM21.1616 3.8111C21.1616 3.67257 21.2745 3.55986 21.413 3.55986C21.5517 3.55986 21.6645 3.67257 21.6645 3.8111C21.6645 3.94963 21.5517 4.06234 21.413 4.06234C21.2745 4.06234 21.1616 3.94963 21.1616 3.8111ZM22.3658 1.26918V3.67816C22.3007 3.20985 21.8988 2.84785 21.413 2.84785C20.9278 2.84785 20.5263 3.20904 20.4605 3.67654V1.26918H22.3658ZM21.4131 17.7616L20.8355 16.6056H21.9908L21.4131 17.7616Z" fill="#FAFAFA"/>
</g>
<defs>
<clipPath id="clip0_10695_24429">
<rect width="24" height="24" fill="white" transform="translate(0.164062)"/>
</clipPath>
</defs>
</svg>
