<svg width="16" height="16" viewBox="0 0 16 16" fill="none" xmlns="http://www.w3.org/2000/svg">
<g id="download-cloud">
<path id="Vector" d="M2.66675 9.93272C2.17144 9.42667 1.7978 8.81453 1.57411 8.14268C1.35042 7.47083 1.28255 6.75688 1.37566 6.05492C1.46876 5.35296 1.72039 4.68139 2.11148 4.09108C2.50257 3.50077 3.02287 3.0072 3.63297 2.64776C4.24307 2.28831 4.92697 2.07242 5.63286 2.01644C6.33875 1.96046 7.04813 2.06585 7.70726 2.32463C8.36639 2.58341 8.95799 2.98879 9.43724 3.51008C9.91649 4.03136 10.2708 4.65488 10.4734 5.33339H11.6668C12.3104 5.33331 12.9371 5.54027 13.4541 5.92368C13.9711 6.30709 14.3511 6.84663 14.5379 7.46259C14.7248 8.07855 14.7085 8.73828 14.4916 9.3443C14.2747 9.95033 13.8687 10.4705 13.3334 10.8281" stroke="#333333" strokeWidth="1.33333" strokeLinecap="round" strokeLinejoin="round"/>
<path id="Vector_2" d="M8 8V14" stroke="#333333" strokeWidth="1.33333" strokeLinecap="round" strokeLinejoin="round"/>
<path id="Vector_3" d="M5.33331 11.3334L7.99998 14L10.6666 11.3334" stroke="#333333" strokeWidth="1.33333" strokeLinecap="round" strokeLinejoin="round"/>
</g>
</svg>
