<svg width="25" height="24" viewBox="0 0 25 24" fill="none" xmlns="http://www.w3.org/2000/svg">
<rect x="0.439209" width="24" height="24" rx="4" fill="#171717"/>
<path d="M7.43921 4.5C7.43921 4.22386 7.21535 4 6.93921 4C6.66307 4 6.43921 4.22386 6.43921 4.5V6H4.93921C4.66307 6 4.43921 6.22386 4.43921 6.5C4.43921 6.77614 4.66307 7 4.93921 7H6.93921C7.21535 7 7.43921 6.77614 7.43921 6.5V4.5ZM18.4392 4.5C18.4392 4.22386 18.2154 4 17.9392 4C17.6631 4 17.4392 4.22386 17.4392 4.5V6.5C17.4392 6.77614 17.6631 7 17.9392 7H19.9392C20.2154 7 20.4392 6.77614 20.4392 6.5C20.4392 6.22386 20.2154 6 19.9392 6H18.4392V4.5ZM9.43921 7C8.88692 7 8.43921 7.44772 8.43921 8V16C8.43921 16.5523 8.88692 17 9.43921 17H15.4392C15.9915 17 16.4392 16.5523 16.4392 16V8C16.4392 7.44772 15.9915 7 15.4392 7H9.43921ZM9.43921 8H15.4392V16H9.43921V8ZM6.93921 20C7.21535 20 7.43921 19.7761 7.43921 19.5V17.5C7.43921 17.2239 7.21535 17 6.93921 17H4.93921C4.66307 17 4.43921 17.2239 4.43921 17.5C4.43921 17.7761 4.66307 18 4.93921 18H6.43921V19.5C6.43921 19.7761 6.66307 20 6.93921 20ZM17.9392 20C18.2154 20 18.4392 19.7761 18.4392 19.5V18H19.9392C20.2154 18 20.4392 17.7761 20.4392 17.5C20.4392 17.2239 20.2154 17 19.9392 17H17.9392C17.6631 17 17.4392 17.2239 17.4392 17.5V19.5C17.4392 19.7761 17.6631 20 17.9392 20ZM10.9392 10C10.6631 10 10.4392 10.2239 10.4392 10.5C10.4392 10.7761 10.6631 11 10.9392 11H13.9392C14.2154 11 14.4392 10.7761 14.4392 10.5C14.4392 10.2239 14.2154 10 13.9392 10H10.9392ZM10.9392 12C10.6631 12 10.4392 12.2239 10.4392 12.5C10.4392 12.7761 10.6631 13 10.9392 13H12.9392C13.2154 13 13.4392 12.7761 13.4392 12.5C13.4392 12.2239 13.2154 12 12.9392 12H10.9392Z" fill="#737373"/>
</svg>
