<svg width="25" height="24" viewBox="0 0 25 24" fill="none" xmlns="http://www.w3.org/2000/svg">
<rect x="0.439209" width="24" height="24" rx="4" fill="#171717"/>
<path d="M12.2869 8.5C12.7011 8.5 13.0369 8.16421 13.0369 7.75C13.0369 7.33579 12.7011 7 12.2869 7C11.8727 7 11.5369 7.33579 11.5369 7.75C11.5369 8.16421 11.8727 8.5 12.2869 8.5ZM15.2869 9.5C15.7011 9.5 16.0369 9.16421 16.0369 8.75C16.0369 8.33579 15.7011 8 15.2869 8C14.8727 8 14.5369 8.33579 14.5369 8.75C14.5369 9.16421 14.8727 9.5 15.2869 9.5ZM17.7869 11C17.7869 11.4142 17.4511 11.75 17.0369 11.75C16.6227 11.75 16.2869 11.4142 16.2869 11C16.2869 10.5858 16.6227 10.25 17.0369 10.25C17.4511 10.25 17.7869 10.5858 17.7869 11ZM17.0369 14.75C17.4511 14.75 17.7869 14.4142 17.7869 14C17.7869 13.5858 17.4511 13.25 17.0369 13.25C16.6227 13.25 16.2869 13.5858 16.2869 14C16.2869 14.4142 16.6227 14.75 17.0369 14.75ZM15.7869 16C15.7869 16.4142 15.4511 16.75 15.0369 16.75C14.6227 16.75 14.2869 16.4142 14.2869 16C14.2869 15.5858 14.6227 15.25 15.0369 15.25C15.4511 15.25 15.7869 15.5858 15.7869 16ZM16.2341 4.99169C13.4795 3.57663 10.6801 3.7124 8.30693 5.16636C7.09596 5.9083 5.79017 7.46925 5.05291 9.05899C4.68228 9.85816 4.43601 10.7049 4.43924 11.4932C4.44252 12.2941 4.7067 13.0587 5.37726 13.6053C5.98744 14.1026 6.51851 14.353 7.0326 14.3784C7.55062 14.404 7.95491 14.1942 8.27115 14.0076C8.34069 13.9666 8.40578 13.927 8.468 13.8892C8.71018 13.7421 8.90892 13.6214 9.15736 13.5426C9.43878 13.4534 9.79507 13.4205 10.3127 13.5787C10.5035 13.637 10.6185 13.7235 10.699 13.8229C10.7848 13.9289 10.8535 14.0774 10.9047 14.2886C10.9564 14.5016 10.9845 14.7527 11.0055 15.0491C11.0134 15.1594 11.0207 15.2855 11.0283 15.4176C11.0394 15.6098 11.0512 15.8149 11.0666 16.0037C11.1212 16.6744 11.2366 17.4401 11.6405 18.1357C12.0545 18.8488 12.7416 19.439 13.8439 19.8158C15.4461 20.3636 16.91 19.9191 18.0495 19.0169C19.176 18.125 20.006 16.7761 20.421 15.4272C21.7359 11.1538 20.2097 7.03394 16.2341 4.99169ZM8.82935 6.01905C10.8937 4.75426 13.3213 4.61959 15.7772 5.88119C19.2842 7.68275 20.6503 11.2816 19.4653 15.1332C19.0992 16.3227 18.3707 17.4871 17.4287 18.2329C16.4998 18.9684 15.3855 19.286 14.1674 18.8696C13.2638 18.5607 12.7836 18.1129 12.5053 17.6336C12.2169 17.1369 12.1149 16.5556 12.0633 15.9225C12.0479 15.733 12.0382 15.5621 12.0283 15.3884C12.0209 15.2564 12.0133 15.1229 12.003 14.9783C11.9811 14.669 11.9486 14.3499 11.8765 14.0529C11.8041 13.7541 11.6859 13.4527 11.4762 13.1937C11.2613 12.9282 10.9722 12.7346 10.6049 12.6223C9.90334 12.408 9.33953 12.4359 8.85526 12.5893C8.48018 12.7082 8.15703 12.9061 7.90866 13.0582C7.85678 13.0899 7.80817 13.1197 7.76302 13.1463C7.4778 13.3146 7.29044 13.39 7.08201 13.3796C6.86965 13.3691 6.53949 13.2625 6.00905 12.8301C5.62347 12.5158 5.4416 12.0668 5.43923 11.4891C5.43681 10.8987 5.62529 10.2017 5.9601 9.47971C6.63372 8.0272 7.82158 6.63649 8.82935 6.01905Z" fill="#737373"/>
</svg>
