<svg width="25" height="24" viewBox="0 0 25 24" fill="none" xmlns="http://www.w3.org/2000/svg">
<rect x="0.878418" width="24" height="24" rx="4" fill="#171717"/>
<path d="M9.61721 8.7388C9.84037 8.51564 10.2022 8.51564 10.4253 8.7388L12.8784 11.1919L15.3315 8.7388C15.5547 8.51564 15.9165 8.51564 16.1396 8.7388C16.3628 8.96195 16.3628 9.32376 16.1396 9.54692L13.6865 12L16.1396 14.4531C16.3628 14.6762 16.3628 15.038 16.1396 15.2612C15.9165 15.4844 15.5547 15.4844 15.3315 15.2612L12.8784 12.8081L10.4253 15.2612C10.2022 15.4844 9.84037 15.4844 9.61721 15.2612C9.39406 15.038 9.39406 14.6762 9.61721 14.4531L12.0703 12L9.61721 9.54692C9.39406 9.32376 9.39406 8.96195 9.61721 8.7388ZM4.87842 7.42857C4.87842 5.53502 6.41344 4 8.30699 4H17.4498C19.3434 4 20.8784 5.53502 20.8784 7.42857V16.5714C20.8784 18.465 19.3434 20 17.4498 20H8.30699C6.41344 20 4.87842 18.465 4.87842 16.5714V7.42857ZM8.30699 5.14286C7.04462 5.14286 6.02128 6.16621 6.02128 7.42857V16.5714C6.02128 17.8338 7.04462 18.8571 8.30699 18.8571H17.4498C18.7122 18.8571 19.7356 17.8338 19.7356 16.5714V7.42857C19.7356 6.16621 18.7122 5.14286 17.4498 5.14286H8.30699Z" fill="#737373"/>
</svg>
