<svg width="275" height="28" viewBox="0 0 275 28" fill="none" xmlns="http://www.w3.org/2000/svg">
<path d="M0 7.66891L9.99995 0.302979V3.77913L0 11.1451V7.66891Z" fill="white"/>
<path d="M20 7.66891L10.0001 0.302979V3.77913L20 11.1451V7.66891Z" fill="white"/>
<path d="M0 15.6689L9.99995 8.30296V11.7791L0 19.145V15.6689Z" fill="white"/>
<path d="M20 15.6689L10.0001 8.30295V11.7791L20 19.145V15.6689Z" fill="white"/>
<path d="M5.25 11.9603L14 5.51508V8.55671L5.25 15.0019V11.9603Z" fill="white"/>
<path d="M22.75 11.9603L14 5.51508V8.55671L22.75 15.0019V11.9603Z" fill="white"/>
<path d="M5.25 18.9603L14 12.5151V15.5567L5.25 22.0019V18.9603Z" fill="white"/>
<path d="M22.75 18.9603L14 12.5151V15.5567L22.75 22.0019V18.9603Z" fill="white"/>
<rect width="28" height="28" rx="2" fill="white"/>
<rect width="28" height="28" rx="2" fill="url(#paint0_linear_12938_94512)"/>
<path d="M6 12.3559L13.9998 6.46325V9.24413L6 15.1368V12.3559Z" fill="white"/>
<path d="M22 12.356L14.0002 6.46332V9.2442L22 15.1368V12.356Z" fill="white"/>
<path d="M6 18.7558L13.9998 12.8632V15.6441L6 21.5367V18.7558Z" fill="white"/>
<path d="M22 18.7559L14.0002 12.8632V15.6441L22 21.5367V18.7559Z" fill="white"/>
<path d="M46.792 25.724C45.848 25.724 44.976 25.572 44.176 25.268C43.376 24.964 42.688 24.54 42.112 23.996C41.536 23.468 41.104 22.844 40.816 22.124L43.312 21.092C43.536 21.7 43.944 22.204 44.536 22.604C45.144 23.004 45.888 23.204 46.768 23.204C47.456 23.204 48.072 23.068 48.616 22.796C49.16 22.54 49.592 22.156 49.912 21.644C50.232 21.148 50.392 20.548 50.392 19.844V16.916L50.872 17.468C50.424 18.3 49.8 18.932 49 19.364C48.216 19.796 47.328 20.012 46.336 20.012C45.136 20.012 44.056 19.732 43.096 19.172C42.136 18.612 41.376 17.844 40.816 16.868C40.272 15.892 40 14.796 40 13.58C40 12.348 40.272 11.252 40.816 10.292C41.376 9.332 42.128 8.572 43.072 8.012C44.016 7.452 45.096 7.172 46.312 7.172C47.304 7.172 48.184 7.388 48.952 7.82C49.736 8.236 50.376 8.844 50.872 9.644L50.512 10.316V7.46H53.08V19.844C53.08 20.964 52.808 21.964 52.264 22.844C51.736 23.74 51 24.444 50.056 24.956C49.112 25.468 48.024 25.724 46.792 25.724ZM46.648 17.492C47.368 17.492 48.008 17.324 48.568 16.988C49.128 16.636 49.568 16.172 49.888 15.596C50.224 15.004 50.392 14.34 50.392 13.604C50.392 12.868 50.224 12.204 49.888 11.612C49.552 11.02 49.104 10.556 48.544 10.22C47.984 9.868 47.352 9.692 46.648 9.692C45.912 9.692 45.256 9.868 44.68 10.22C44.104 10.556 43.648 11.02 43.312 11.612C42.992 12.188 42.832 12.852 42.832 13.604C42.832 14.324 42.992 14.98 43.312 15.572C43.648 16.164 44.104 16.636 44.68 16.988C45.256 17.324 45.912 17.492 46.648 17.492Z" fill="black"/>
<path d="M56.2546 20.444V2.276H58.9666V20.444H56.2546Z" fill="black"/>
<path d="M66.7694 20.732C65.7934 20.732 64.9374 20.516 64.2014 20.084C63.4654 19.636 62.8894 19.02 62.4734 18.236C62.0734 17.436 61.8734 16.516 61.8734 15.476V7.46H64.5854V15.236C64.5854 15.828 64.7054 16.348 64.9454 16.796C65.1854 17.244 65.5214 17.596 65.9534 17.852C66.3854 18.092 66.8814 18.212 67.4414 18.212C68.0174 18.212 68.5214 18.084 68.9534 17.828C69.3854 17.572 69.7214 17.212 69.9614 16.748C70.2174 16.284 70.3454 15.74 70.3454 15.116V7.46H73.0334V20.444H70.4654V17.9L70.7534 18.236C70.4494 19.036 69.9454 19.652 69.2414 20.084C68.5374 20.516 67.7134 20.732 66.7694 20.732Z" fill="black"/>
<path d="M82.2959 20.732C80.9999 20.732 79.8479 20.436 78.8399 19.844C77.8479 19.236 77.0719 18.42 76.5119 17.396C75.9519 16.356 75.6719 15.196 75.6719 13.916C75.6719 12.604 75.9519 11.444 76.5119 10.436C77.0879 9.428 77.8559 8.636 78.8159 8.06C79.7759 7.468 80.8639 7.172 82.0799 7.172C83.0559 7.172 83.9279 7.34 84.6959 7.676C85.4639 8.012 86.1119 8.476 86.6399 9.068C87.1679 9.644 87.5679 10.308 87.8399 11.06C88.1279 11.812 88.2719 12.612 88.2719 13.46C88.2719 13.668 88.2639 13.884 88.2479 14.108C88.2319 14.332 88.1999 14.54 88.1519 14.732H77.8079V12.572H86.6159L85.3199 13.556C85.4799 12.772 85.4239 12.076 85.1519 11.468C84.8959 10.844 84.4959 10.356 83.9519 10.004C83.4239 9.636 82.7999 9.452 82.0799 9.452C81.3599 9.452 80.7199 9.636 80.1599 10.004C79.5999 10.356 79.1679 10.868 78.8639 11.54C78.5599 12.196 78.4399 12.996 78.5039 13.94C78.4239 14.82 78.5439 15.588 78.8639 16.244C79.1999 16.9 79.6639 17.412 80.2559 17.78C80.8639 18.148 81.5519 18.332 82.3199 18.332C83.1039 18.332 83.7679 18.156 84.3119 17.804C84.8719 17.452 85.3119 16.996 85.6319 16.436L87.8399 17.516C87.5839 18.124 87.1839 18.676 86.6399 19.172C86.1119 19.652 85.4719 20.036 84.7199 20.324C83.9839 20.596 83.1759 20.732 82.2959 20.732Z" fill="black"/>
<path d="M95.7186 20.732C94.3906 20.732 93.2226 20.404 92.2146 19.748C91.2226 19.092 90.5266 18.212 90.1266 17.108L92.2146 16.124C92.5666 16.86 93.0466 17.444 93.6546 17.876C94.2786 18.308 94.9666 18.524 95.7186 18.524C96.3586 18.524 96.8786 18.38 97.2786 18.092C97.6786 17.804 97.8786 17.412 97.8786 16.916C97.8786 16.596 97.7906 16.34 97.6146 16.148C97.4386 15.94 97.2146 15.772 96.9426 15.644C96.6866 15.516 96.4226 15.42 96.1506 15.356L94.1106 14.78C92.9906 14.46 92.1506 13.98 91.5906 13.34C91.0466 12.684 90.7746 11.924 90.7746 11.06C90.7746 10.276 90.9746 9.596 91.3746 9.02C91.7746 8.428 92.3266 7.972 93.0306 7.652C93.7346 7.332 94.5266 7.172 95.4066 7.172C96.5906 7.172 97.6466 7.468 98.5746 8.06C99.5026 8.636 100.159 9.444 100.543 10.484L98.4546 11.468C98.1986 10.844 97.7906 10.348 97.2306 9.98C96.6866 9.612 96.0706 9.428 95.3826 9.428C94.7906 9.428 94.3186 9.572 93.9666 9.86C93.6146 10.132 93.4386 10.492 93.4386 10.94C93.4386 11.244 93.5186 11.5 93.6786 11.708C93.8386 11.9 94.0466 12.06 94.3026 12.188C94.5586 12.3 94.8226 12.396 95.0946 12.476L97.2066 13.1C98.2786 13.404 99.1026 13.884 99.6786 14.54C100.255 15.18 100.543 15.948 100.543 16.844C100.543 17.612 100.335 18.292 99.9186 18.884C99.5186 19.46 98.9586 19.916 98.2386 20.252C97.5186 20.572 96.6786 20.732 95.7186 20.732Z" fill="black"/>
<path d="M108.816 20.588C107.456 20.588 106.4 20.204 105.648 19.436C104.896 18.668 104.52 17.588 104.52 16.196V9.908H102.24V7.46H102.6C103.208 7.46 103.68 7.284 104.016 6.932C104.352 6.58 104.52 6.1 104.52 5.492V4.484H107.232V7.46H110.184V9.908H107.232V16.076C107.232 16.524 107.304 16.908 107.448 17.228C107.592 17.532 107.824 17.772 108.144 17.948C108.464 18.108 108.88 18.188 109.392 18.188C109.52 18.188 109.664 18.18 109.824 18.164C109.984 18.148 110.136 18.132 110.28 18.116V20.444C110.056 20.476 109.808 20.508 109.536 20.54C109.264 20.572 109.024 20.588 108.816 20.588Z" fill="black"/>
<path d="M116.697 20.732C115.817 20.732 115.041 20.58 114.369 20.276C113.713 19.956 113.201 19.524 112.833 18.98C112.465 18.42 112.281 17.764 112.281 17.012C112.281 16.308 112.433 15.676 112.737 15.116C113.057 14.556 113.545 14.084 114.201 13.7C114.857 13.316 115.681 13.044 116.673 12.884L121.185 12.14V14.276L117.201 14.972C116.481 15.1 115.953 15.332 115.617 15.668C115.281 15.988 115.113 16.404 115.113 16.916C115.113 17.412 115.297 17.82 115.665 18.14C116.049 18.444 116.537 18.596 117.129 18.596C117.865 18.596 118.505 18.436 119.049 18.116C119.609 17.796 120.041 17.372 120.345 16.844C120.649 16.3 120.801 15.7 120.801 15.044V11.708C120.801 11.068 120.561 10.548 120.081 10.148C119.617 9.732 118.993 9.524 118.209 9.524C117.489 9.524 116.857 9.716 116.313 10.1C115.785 10.468 115.393 10.948 115.137 11.54L112.881 10.412C113.121 9.772 113.513 9.212 114.057 8.732C114.601 8.236 115.233 7.852 115.953 7.58C116.689 7.308 117.465 7.172 118.281 7.172C119.305 7.172 120.209 7.364 120.993 7.748C121.793 8.132 122.409 8.668 122.841 9.356C123.289 10.028 123.513 10.812 123.513 11.708V20.444H120.921V18.092L121.473 18.164C121.169 18.692 120.777 19.148 120.297 19.532C119.833 19.916 119.297 20.212 118.689 20.42C118.097 20.628 117.433 20.732 116.697 20.732Z" fill="black"/>
<path d="M132.852 20.732C131.556 20.732 130.404 20.436 129.396 19.844C128.404 19.236 127.612 18.42 127.02 17.396C126.444 16.372 126.156 15.212 126.156 13.916C126.156 12.636 126.444 11.484 127.02 10.46C127.596 9.436 128.388 8.636 129.396 8.06C130.404 7.468 131.556 7.172 132.852 7.172C133.732 7.172 134.556 7.332 135.324 7.652C136.092 7.956 136.756 8.38 137.316 8.924C137.892 9.468 138.316 10.1 138.588 10.82L136.212 11.924C135.94 11.252 135.5 10.716 134.892 10.316C134.3 9.9 133.62 9.692 132.852 9.692C132.116 9.692 131.452 9.876 130.86 10.244C130.284 10.596 129.828 11.1 129.492 11.756C129.156 12.396 128.988 13.124 128.988 13.94C128.988 14.756 129.156 15.492 129.492 16.148C129.828 16.788 130.284 17.292 130.86 17.66C131.452 18.028 132.116 18.212 132.852 18.212C133.636 18.212 134.316 18.012 134.892 17.612C135.484 17.196 135.924 16.644 136.212 15.956L138.588 17.084C138.332 17.772 137.916 18.396 137.34 18.956C136.78 19.5 136.116 19.932 135.348 20.252C134.58 20.572 133.748 20.732 132.852 20.732Z" fill="black"/>
<path d="M141.239 20.444V2.276H143.951V14.444L142.895 14.18L149.399 7.46H152.783L147.887 12.668L152.999 20.444H149.879L145.319 13.556L146.927 13.34L143.087 17.42L143.951 15.62V20.444H141.239Z" fill="black"/>
<path d="M155.264 15.14V12.74H164.864V15.14H155.264Z" fill="black"/>
<path d="M173.082 20.732C172.106 20.732 171.25 20.516 170.514 20.084C169.778 19.636 169.202 19.02 168.786 18.236C168.386 17.436 168.186 16.516 168.186 15.476V7.46H170.898V15.236C170.898 15.828 171.018 16.348 171.258 16.796C171.498 17.244 171.834 17.596 172.266 17.852C172.698 18.092 173.194 18.212 173.754 18.212C174.33 18.212 174.834 18.084 175.266 17.828C175.698 17.572 176.034 17.212 176.274 16.748C176.53 16.284 176.658 15.74 176.658 15.116V7.46H179.346V20.444H176.778V17.9L177.066 18.236C176.762 19.036 176.258 19.652 175.554 20.084C174.85 20.516 174.026 20.732 173.082 20.732Z" fill="black"/>
<path d="M182.512 20.444V7.46H185.224V20.444H182.512ZM182.512 5.684V2.564H185.224V5.684H182.512Z" fill="black"/>
<rect x="197.225" y="3.386" width="77.3235" height="21.228" rx="10.614" fill="black"/>
<path d="M210.753 18.614C210.193 18.614 209.673 18.51 209.193 18.302C208.713 18.086 208.305 17.794 207.969 17.426C207.633 17.058 207.385 16.634 207.225 16.154L208.425 15.65C208.641 16.202 208.957 16.626 209.373 16.922C209.789 17.218 210.269 17.366 210.813 17.366C211.133 17.366 211.413 17.318 211.653 17.222C211.893 17.118 212.077 16.974 212.205 16.79C212.341 16.606 212.409 16.394 212.409 16.154C212.409 15.826 212.317 15.566 212.133 15.374C211.949 15.182 211.677 15.03 211.317 14.918L209.637 14.39C208.965 14.182 208.453 13.866 208.101 13.442C207.749 13.01 207.573 12.506 207.573 11.93C207.573 11.426 207.697 10.986 207.945 10.61C208.193 10.226 208.533 9.926 208.965 9.71C209.405 9.494 209.905 9.386 210.465 9.386C211.001 9.386 211.489 9.482 211.929 9.674C212.369 9.858 212.745 10.114 213.057 10.442C213.377 10.77 213.609 11.15 213.753 11.582L212.577 12.098C212.401 11.626 212.125 11.262 211.749 11.006C211.381 10.75 210.953 10.622 210.465 10.622C210.169 10.622 209.909 10.674 209.685 10.778C209.461 10.874 209.285 11.018 209.157 11.21C209.037 11.394 208.977 11.61 208.977 11.858C208.977 12.146 209.069 12.402 209.253 12.626C209.437 12.85 209.717 13.018 210.093 13.13L211.653 13.622C212.365 13.838 212.901 14.15 213.261 14.558C213.621 14.958 213.801 15.458 213.801 16.058C213.801 16.554 213.669 16.994 213.405 17.378C213.149 17.762 212.793 18.066 212.337 18.29C211.881 18.506 211.353 18.614 210.753 18.614Z" fill="white"/>
<path d="M218.066 18.542C217.386 18.542 216.858 18.35 216.482 17.966C216.106 17.582 215.918 17.042 215.918 16.346V13.202H214.778V11.978H214.958C215.262 11.978 215.498 11.89 215.666 11.714C215.834 11.538 215.918 11.298 215.918 10.994V10.49H217.274V11.978H218.75V13.202H217.274V16.286C217.274 16.51 217.31 16.702 217.382 16.862C217.454 17.014 217.57 17.134 217.73 17.222C217.89 17.302 218.098 17.342 218.354 17.342C218.418 17.342 218.49 17.338 218.57 17.33C218.65 17.322 218.726 17.314 218.798 17.306V18.47C218.686 18.486 218.562 18.502 218.426 18.518C218.29 18.534 218.17 18.542 218.066 18.542Z" fill="white"/>
<path d="M222.007 18.614C221.567 18.614 221.179 18.538 220.843 18.386C220.515 18.226 220.259 18.01 220.075 17.738C219.891 17.458 219.799 17.13 219.799 16.754C219.799 16.402 219.875 16.086 220.027 15.806C220.187 15.526 220.431 15.29 220.759 15.098C221.087 14.906 221.499 14.77 221.995 14.69L224.251 14.318V15.386L222.259 15.734C221.899 15.798 221.635 15.914 221.467 16.082C221.299 16.242 221.215 16.45 221.215 16.706C221.215 16.954 221.307 17.158 221.491 17.318C221.683 17.47 221.927 17.546 222.223 17.546C222.591 17.546 222.911 17.466 223.183 17.306C223.463 17.146 223.679 16.934 223.831 16.67C223.983 16.398 224.059 16.098 224.059 15.77V14.102C224.059 13.782 223.939 13.522 223.699 13.322C223.467 13.114 223.155 13.01 222.763 13.01C222.403 13.01 222.087 13.106 221.815 13.298C221.551 13.482 221.355 13.722 221.227 14.018L220.099 13.454C220.219 13.134 220.415 12.854 220.687 12.614C220.959 12.366 221.275 12.174 221.635 12.038C222.003 11.902 222.391 11.834 222.799 11.834C223.311 11.834 223.763 11.93 224.155 12.122C224.555 12.314 224.863 12.582 225.079 12.926C225.303 13.262 225.415 13.654 225.415 14.102V18.47H224.119V17.294L224.395 17.33C224.243 17.594 224.047 17.822 223.807 18.014C223.575 18.206 223.307 18.354 223.003 18.458C222.707 18.562 222.375 18.614 222.007 18.614Z" fill="white"/>
<path d="M227 18.47V11.978H228.296V13.286L228.176 13.094C228.32 12.67 228.552 12.366 228.872 12.182C229.192 11.99 229.576 11.894 230.024 11.894H230.42V13.13H229.856C229.408 13.13 229.044 13.27 228.764 13.55C228.492 13.822 228.356 14.214 228.356 14.726V18.47H227Z" fill="white"/>
<path d="M234.273 18.542C233.593 18.542 233.065 18.35 232.689 17.966C232.313 17.582 232.125 17.042 232.125 16.346V13.202H230.985V11.978H231.165C231.469 11.978 231.705 11.89 231.873 11.714C232.041 11.538 232.125 11.298 232.125 10.994V10.49H233.481V11.978H234.957V13.202H233.481V16.286C233.481 16.51 233.517 16.702 233.589 16.862C233.661 17.014 233.777 17.134 233.937 17.222C234.097 17.302 234.305 17.342 234.561 17.342C234.625 17.342 234.697 17.338 234.777 17.33C234.857 17.322 234.933 17.314 235.005 17.306V18.47C234.893 18.486 234.769 18.502 234.633 18.518C234.497 18.534 234.377 18.542 234.273 18.542Z" fill="white"/>
<path d="M239.259 18.614C238.611 18.614 238.035 18.466 237.531 18.17C237.035 17.866 236.647 17.458 236.367 16.946C236.087 16.426 235.947 15.846 235.947 15.206C235.947 14.55 236.087 13.97 236.367 13.466C236.655 12.962 237.039 12.566 237.519 12.278C237.999 11.982 238.543 11.834 239.151 11.834C239.639 11.834 240.075 11.918 240.459 12.086C240.843 12.254 241.167 12.486 241.431 12.782C241.695 13.07 241.895 13.402 242.031 13.778C242.175 14.154 242.247 14.554 242.247 14.978C242.247 15.082 242.243 15.19 242.235 15.302C242.227 15.414 242.211 15.518 242.187 15.614H237.015V14.534H241.419L240.771 15.026C240.851 14.634 240.823 14.286 240.687 13.982C240.559 13.67 240.359 13.426 240.087 13.25C239.823 13.066 239.511 12.974 239.151 12.974C238.791 12.974 238.471 13.066 238.191 13.25C237.911 13.426 237.695 13.682 237.543 14.018C237.391 14.346 237.331 14.746 237.363 15.218C237.323 15.658 237.383 16.042 237.543 16.37C237.711 16.698 237.943 16.954 238.239 17.138C238.543 17.322 238.887 17.414 239.271 17.414C239.663 17.414 239.995 17.326 240.267 17.15C240.547 16.974 240.767 16.746 240.927 16.466L242.031 17.006C241.903 17.31 241.703 17.586 241.431 17.834C241.167 18.074 240.847 18.266 240.471 18.41C240.103 18.546 239.699 18.614 239.259 18.614Z" fill="white"/>
<path d="M243.571 18.47V11.978H244.867V13.286L244.747 13.094C244.891 12.67 245.123 12.366 245.443 12.182C245.763 11.99 246.147 11.894 246.595 11.894H246.991V13.13H246.427C245.979 13.13 245.615 13.27 245.335 13.55C245.063 13.822 244.927 14.214 244.927 14.726V18.47H243.571Z" fill="white"/>
<path d="M250.148 18.47V9.53H251.564V14.378L251.192 14.234L255.236 9.53H257L253.424 13.718L253.496 12.71L257.144 18.47H255.476L252.86 14.378L251.564 15.89V18.47H250.148Z" fill="white"/>
<path d="M258.067 18.47V11.978H259.423V18.47H258.067ZM258.067 11.09V9.53H259.423V11.09H258.067Z" fill="white"/>
<path d="M263.816 18.542C263.136 18.542 262.608 18.35 262.232 17.966C261.856 17.582 261.668 17.042 261.668 16.346V13.202H260.528V11.978H260.708C261.012 11.978 261.248 11.89 261.416 11.714C261.584 11.538 261.668 11.298 261.668 10.994V10.49H263.024V11.978H264.5V13.202H263.024V16.286C263.024 16.51 263.06 16.702 263.132 16.862C263.204 17.014 263.32 17.134 263.48 17.222C263.64 17.302 263.848 17.342 264.104 17.342C264.168 17.342 264.24 17.338 264.32 17.33C264.4 17.322 264.476 17.314 264.548 17.306V18.47C264.436 18.486 264.312 18.502 264.176 18.518C264.04 18.534 263.92 18.542 263.816 18.542Z" fill="white"/>
<defs>
<linearGradient id="paint0_linear_12938_94512" x1="14" y1="0" x2="31.8706" y2="29.6471" gradientUnits="userSpaceOnUse">
<stop stop-color="#4AA9FF"/>
<stop offset="1" stop-color="#004282"/>
</linearGradient>
</defs>
</svg>
