<svg width="28" height="29" viewBox="0 0 28 29" fill="none" xmlns="http://www.w3.org/2000/svg">
<path d="M14 3.125C11.7502 3.125 9.551 3.79213 7.68039 5.04203C5.80978 6.29193 4.35182 8.06847 3.49088 10.147C2.62993 12.2255 2.40467 14.5126 2.84357 16.7192C3.28248 18.9257 4.36584 20.9525 5.95667 22.5433C7.54749 24.1342 9.57432 25.2175 11.7809 25.6564C13.9874 26.0953 16.2745 25.8701 18.353 25.0091C20.4315 24.1482 22.2081 22.6902 23.458 20.8196C24.7079 18.949 25.375 16.7498 25.375 14.5C25.3718 11.4841 24.1724 8.59271 22.0398 6.46018C19.9073 4.32764 17.0159 3.12818 14 3.125ZM14 21.5C13.7404 21.5 13.4867 21.423 13.2708 21.2788C13.055 21.1346 12.8868 20.9296 12.7874 20.6898C12.6881 20.4499 12.6621 20.186 12.7127 19.9314C12.7634 19.6768 12.8884 19.443 13.0719 19.2594C13.2555 19.0759 13.4893 18.9509 13.7439 18.9002C13.9985 18.8496 14.2624 18.8756 14.5023 18.9749C14.7421 19.0742 14.9471 19.2425 15.0913 19.4583C15.2355 19.6742 15.3125 19.9279 15.3125 20.1875C15.3125 20.5356 15.1742 20.8694 14.9281 21.1156C14.6819 21.3617 14.3481 21.5 14 21.5ZM14.875 16.1712V16.25C14.875 16.4821 14.7828 16.7046 14.6187 16.8687C14.4546 17.0328 14.2321 17.125 14 17.125C13.7679 17.125 13.5454 17.0328 13.3813 16.8687C13.2172 16.7046 13.125 16.4821 13.125 16.25V15.375C13.125 15.1429 13.2172 14.9204 13.3813 14.7563C13.5454 14.5922 13.7679 14.5 14 14.5C15.447 14.5 16.625 13.5156 16.625 12.3125C16.625 11.1094 15.447 10.125 14 10.125C12.553 10.125 11.375 11.1094 11.375 12.3125V12.75C11.375 12.9821 11.2828 13.2046 11.1187 13.3687C10.9546 13.5328 10.7321 13.625 10.5 13.625C10.2679 13.625 10.0454 13.5328 9.88129 13.3687C9.71719 13.2046 9.625 12.9821 9.625 12.75V12.3125C9.625 10.1414 11.5872 8.375 14 8.375C16.4128 8.375 18.375 10.1414 18.375 12.3125C18.375 14.2134 16.87 15.8048 14.875 16.1712Z" fill="#98999B"/>
</svg>
