<svg width="24" height="25" viewBox="0 0 24 25" fill="none" xmlns="http://www.w3.org/2000/svg">
<path d="M21.7108 20.79L20.2908 22.21C20.1034 22.3962 19.85 22.5008 19.5858 22.5008C19.3216 22.5008 19.0682 22.3962 18.8808 22.21L7.00079 10.35C6.6756 10.4442 6.33931 10.4947 6.00079 10.5C5.3641 10.4995 4.73671 10.3471 4.17078 10.0554C3.60486 9.76362 3.11676 9.34099 2.74705 8.82263C2.37735 8.30426 2.13673 7.70513 2.0452 7.07505C1.95367 6.44496 2.01387 5.80213 2.22079 5.2L4.76079 7.74L5.29079 7.21L6.71079 5.79L7.24079 5.26L4.70079 2.72C5.30293 2.51307 5.94576 2.45287 6.57584 2.54441C7.20592 2.63594 7.80505 2.87656 8.32342 3.24626C8.84179 3.61596 9.26441 4.10407 9.55616 4.66999C9.8479 5.23591 10.0003 5.8633 10.0008 6.5C9.99544 6.83852 9.945 7.17481 9.85079 7.5L21.7108 19.38C21.897 19.5674 22.0016 19.8208 22.0016 20.085C22.0016 20.3492 21.897 20.6026 21.7108 20.79ZM2.29079 19.38C2.10454 19.5674 2 19.8208 2 20.085C2 20.3492 2.10454 20.6026 2.29079 20.79L3.71079 22.21C3.89816 22.3962 4.15161 22.5008 4.41579 22.5008C4.67998 22.5008 4.93343 22.3962 5.12079 22.21L10.5908 16.75L7.76079 13.92M20.0008 2.5L16.0008 4.5V6.5L13.8308 8.67L15.8308 10.67L18.0008 8.5H20.0008L22.0008 4.5L20.0008 2.5Z" fill="#868889"/>
</svg>
