<svg width="25" height="24" viewBox="0 0 25 24" fill="none" xmlns="http://www.w3.org/2000/svg">
<path d="M12.7817 9.75342C13.2069 9.75342 13.5542 10.0998 13.5542 10.525C13.5542 10.913 13.8696 11.2275 14.2576 11.2275C14.6447 11.2275 14.9601 10.913 14.9601 10.525C14.9601 9.57182 14.3391 8.76745 13.4842 8.47334V8.0747C13.4842 7.68757 13.1697 7.37132 12.7817 7.37132C12.3928 7.37132 12.0783 7.68757 12.0783 8.0747V8.47334C11.2235 8.76745 10.6043 9.57182 10.6043 10.525C10.6043 11.7271 11.5805 12.7034 12.7817 12.7034C13.2069 12.7034 13.5542 13.0506 13.5542 13.4759C13.5542 13.902 13.2069 14.2483 12.7817 14.2483C12.3565 14.2483 12.0101 13.902 12.0101 13.4759C12.0101 13.0878 11.6948 12.7725 11.3068 12.7725C10.9179 12.7725 10.6043 13.0878 10.6043 13.4759C10.6043 14.429 11.2235 15.2325 12.0783 15.5266V15.9253C12.0783 16.3142 12.3928 16.6295 12.7817 16.6295C13.1697 16.6295 13.4842 16.3142 13.4842 15.9253V15.5266C14.3391 15.2325 14.9601 14.429 14.9601 13.4759C14.9601 12.2746 13.983 11.2975 12.7817 11.2975C12.3565 11.2975 12.0101 10.9511 12.0101 10.525C12.0101 10.0998 12.3565 9.75342 12.7817 9.75342ZM18.6719 15.904C19.0165 16.0856 19.4408 15.9536 19.6215 15.6117C20.2062 14.507 20.5145 13.2579 20.5145 12C20.5145 7.73718 17.0445 4.26811 12.7817 4.26811C8.51803 4.26811 5.04897 7.73718 5.04897 12C5.04897 16.2637 8.51803 19.7328 12.7817 19.7328C14.0211 19.7328 15.2524 19.4333 16.3429 18.8655C16.6875 18.6874 16.8213 18.2613 16.6424 17.9176C16.4634 17.5748 16.0391 17.4383 15.6936 17.6182C14.7909 18.0895 13.8102 18.3278 12.7817 18.3278C9.29317 18.3278 6.45396 15.4894 6.45396 12C6.45396 8.51232 9.29317 5.6731 12.7817 5.6731C16.2703 5.6731 19.1095 8.51232 19.1095 12C19.1095 13.0303 18.8561 14.0517 18.3795 14.9535C18.1971 15.2972 18.3282 15.7224 18.6719 15.904ZM12.7817 1.45459C10.7451 1.45459 8.76785 2.03749 7.06432 3.13863C6.73744 3.34947 6.64442 3.78443 6.85526 4.11043C7.06698 4.43643 7.50017 4.52856 7.82794 4.31949C9.30203 3.3663 11.0171 2.86135 12.7817 2.86135C17.8214 2.86135 21.9204 6.96116 21.9204 12C21.9204 17.0397 17.8214 21.1395 12.7817 21.1395C7.74201 21.1395 3.6422 17.0397 3.6422 12C3.6422 10.2522 4.13741 8.55218 5.07554 7.08607C5.28461 6.7583 5.18893 6.32333 4.86116 6.11427C4.53428 5.9052 4.09931 6.00088 3.89113 6.32776C2.8086 8.02066 2.23633 9.98375 2.23633 12C2.23633 17.8157 6.96599 22.5454 12.7817 22.5454C18.5966 22.5454 23.3271 17.8157 23.3271 12C23.3271 6.18602 18.5966 1.45459 12.7817 1.45459Z" fill="white"/>
</svg>
