<svg width="142" height="42" viewBox="0 0 142 42" fill="none" xmlns="http://www.w3.org/2000/svg">
<path d="M31.7335 7.93335V14.2669C32.8871 16.1803 33.5273 18.3587 33.5936 20.5912L33.6001 21V32.2C33.6001 32.6713 33.4228 33.1249 33.1027 33.4703C32.7816 33.8147 32.3429 34.0265 31.8735 34.062L31.7335 34.0667H9.33346C8.86213 34.0667 8.40853 33.8893 8.0632 33.5683C7.71786 33.2481 7.50693 32.8095 7.47146 32.34L7.4668 32.2V21C7.4668 13.7835 13.3169 7.93335 20.5335 7.93335C24.1903 7.93335 27.4961 9.43602 29.8668 11.8561V7.93335H31.7335ZM20.5335 9.80002C14.4435 9.80002 9.4884 14.6617 9.3372 20.7153L9.33346 21V32.2H15.8668V22.8667H14.0001V21H27.0668V22.8667H25.2001V32.2H31.7335V21C31.7335 14.8148 26.7187 9.80002 20.5335 9.80002ZM23.3335 22.8667H17.7335V32.2H23.3335V22.8667ZM20.5335 16.3333C20.7808 16.3333 21.0188 16.4313 21.1933 16.6068C21.3688 16.7813 21.4668 17.0193 21.4668 17.2667C21.4668 17.514 21.3688 17.752 21.1933 17.9265C21.0188 18.102 20.7808 18.2 20.5335 18.2C20.2861 18.2 20.0481 18.102 19.8736 17.9265C19.6981 17.752 19.6001 17.514 19.6001 17.2667C19.6001 17.0193 19.6981 16.7813 19.8736 16.6068C20.0481 16.4313 20.2861 16.3333 20.5335 16.3333Z" fill="white"/>
<path d="M43.2642 31V16.4545H46.3395V22.456H52.5824V16.4545H55.6506V31H52.5824V24.9915H46.3395V31H43.2642ZM63.0582 31.2131C61.955 31.2131 61.0009 30.9787 60.196 30.5099C59.3958 30.0365 58.7779 29.3783 58.3423 28.5355C57.9067 27.688 57.6889 26.7055 57.6889 25.5881C57.6889 24.4612 57.9067 23.4763 58.3423 22.6335C58.7779 21.786 59.3958 21.1278 60.196 20.6591C61.0009 20.1856 61.955 19.9489 63.0582 19.9489C64.1615 19.9489 65.1132 20.1856 65.9134 20.6591C66.7183 21.1278 67.3385 21.786 67.7741 22.6335C68.2098 23.4763 68.4276 24.4612 68.4276 25.5881C68.4276 26.7055 68.2098 27.688 67.7741 28.5355C67.3385 29.3783 66.7183 30.0365 65.9134 30.5099C65.1132 30.9787 64.1615 31.2131 63.0582 31.2131ZM63.0724 28.8693C63.5743 28.8693 63.9934 28.7273 64.3295 28.4432C64.6657 28.1544 64.919 27.7614 65.0895 27.2642C65.2647 26.767 65.3523 26.2012 65.3523 25.5668C65.3523 24.9323 65.2647 24.3665 65.0895 23.8693C64.919 23.3722 64.6657 22.9792 64.3295 22.6903C63.9934 22.4015 63.5743 22.2571 63.0724 22.2571C62.5658 22.2571 62.1397 22.4015 61.794 22.6903C61.4531 22.9792 61.1951 23.3722 61.0199 23.8693C60.8494 24.3665 60.7642 24.9323 60.7642 25.5668C60.7642 26.2012 60.8494 26.767 61.0199 27.2642C61.1951 27.7614 61.4531 28.1544 61.794 28.4432C62.1397 28.7273 62.5658 28.8693 63.0724 28.8693ZM70.3949 31V20.0909H73.2784V22.0156H73.4062C73.6335 21.3764 74.0123 20.8722 74.5426 20.5028C75.0729 20.1335 75.7074 19.9489 76.446 19.9489C77.1941 19.9489 77.831 20.1359 78.3565 20.5099C78.8821 20.8793 79.2325 21.3812 79.4077 22.0156H79.5213C79.7438 21.3906 80.1463 20.8911 80.7287 20.517C81.3158 20.1383 82.0095 19.9489 82.8097 19.9489C83.8277 19.9489 84.6539 20.2732 85.2884 20.9219C85.9276 21.5658 86.2472 22.4796 86.2472 23.6634V31H83.2287V24.2599C83.2287 23.6539 83.0677 23.1993 82.7457 22.8963C82.4238 22.5933 82.0213 22.4418 81.5384 22.4418C80.9891 22.4418 80.5606 22.617 80.2528 22.9673C79.9451 23.313 79.7912 23.7699 79.7912 24.3381V31H76.858V24.196C76.858 23.661 76.7041 23.2348 76.3963 22.9176C76.0933 22.6004 75.6932 22.4418 75.196 22.4418C74.8598 22.4418 74.5568 22.527 74.2869 22.6974C74.0218 22.8632 73.8111 23.0975 73.6548 23.4006C73.4986 23.6989 73.4205 24.0492 73.4205 24.4517V31H70.3949ZM93.6087 31.2131C92.4865 31.2131 91.5206 30.9858 90.7109 30.5312C89.906 30.072 89.2857 29.4233 88.8501 28.5852C88.4145 27.7424 88.1967 26.7457 88.1967 25.5952C88.1967 24.473 88.4145 23.4882 88.8501 22.6406C89.2857 21.7931 89.8989 21.1326 90.6896 20.6591C91.4851 20.1856 92.4179 19.9489 93.4879 19.9489C94.2076 19.9489 94.8776 20.0649 95.4979 20.2969C96.1229 20.5241 96.6674 20.8674 97.1314 21.3267C97.6001 21.786 97.9647 22.3636 98.2251 23.0597C98.4856 23.7509 98.6158 24.5606 98.6158 25.4886V26.3196H89.4041V24.4446H95.7678C95.7678 24.009 95.6731 23.6231 95.4837 23.2869C95.2943 22.9508 95.0315 22.688 94.6953 22.4986C94.3639 22.3045 93.978 22.2074 93.5376 22.2074C93.0784 22.2074 92.6712 22.3139 92.3161 22.527C91.9657 22.7353 91.6911 23.017 91.4922 23.3722C91.2933 23.7225 91.1915 24.1132 91.1868 24.544V26.3267C91.1868 26.8665 91.2862 27.3329 91.4851 27.7259C91.6887 28.1188 91.9751 28.4219 92.3445 28.6349C92.7138 28.848 93.1518 28.9545 93.6584 28.9545C93.9946 28.9545 94.3023 28.9072 94.5817 28.8125C94.861 28.7178 95.1001 28.5758 95.299 28.3864C95.4979 28.197 95.6494 27.965 95.7536 27.6903L98.5518 27.875C98.4098 28.5473 98.1186 29.1345 97.6783 29.6364C97.2427 30.1335 96.6792 30.5218 95.9879 30.8011C95.3014 31.0758 94.5083 31.2131 93.6087 31.2131ZM109.667 23.2017L106.897 23.3722C106.85 23.1354 106.748 22.9223 106.592 22.733C106.435 22.5388 106.229 22.3849 105.974 22.2713C105.723 22.1529 105.422 22.0938 105.072 22.0938C104.603 22.0938 104.208 22.1932 103.886 22.392C103.564 22.5862 103.403 22.8466 103.403 23.1733C103.403 23.4337 103.507 23.6539 103.715 23.8338C103.924 24.0137 104.281 24.1581 104.788 24.267L106.762 24.6648C107.823 24.8826 108.613 25.233 109.134 25.7159C109.655 26.1989 109.915 26.8333 109.915 27.6193C109.915 28.3343 109.705 28.9616 109.283 29.5014C108.867 30.0412 108.294 30.4626 107.565 30.7656C106.84 31.0639 106.004 31.2131 105.058 31.2131C103.613 31.2131 102.463 30.9124 101.606 30.3111C100.754 29.705 100.254 28.8812 100.107 27.8395L103.083 27.6832C103.173 28.1236 103.391 28.4598 103.737 28.6918C104.082 28.919 104.525 29.0327 105.065 29.0327C105.595 29.0327 106.021 28.9309 106.343 28.7273C106.67 28.5189 106.835 28.2514 106.84 27.9247C106.835 27.6501 106.719 27.4252 106.492 27.25C106.265 27.0701 105.915 26.9328 105.441 26.8381L103.552 26.4616C102.487 26.2486 101.693 25.8793 101.173 25.3537C100.656 24.8281 100.398 24.1581 100.398 23.3438C100.398 22.643 100.588 22.0393 100.967 21.5327C101.35 21.026 101.888 20.6354 102.579 20.3608C103.275 20.0862 104.089 19.9489 105.022 19.9489C106.4 19.9489 107.484 20.2401 108.275 20.8224C109.07 21.4048 109.534 22.1979 109.667 23.2017ZM117.623 20.0909V22.3636H111.054V20.0909H117.623ZM112.545 17.4773H115.571V27.6477C115.571 27.9271 115.613 28.1449 115.699 28.3011C115.784 28.4527 115.902 28.5592 116.054 28.6207C116.21 28.6823 116.39 28.7131 116.593 28.7131C116.735 28.7131 116.877 28.7012 117.02 28.6776C117.162 28.6491 117.27 28.6278 117.346 28.6136L117.822 30.8651C117.671 30.9124 117.458 30.9669 117.183 31.0284C116.908 31.0947 116.574 31.1349 116.181 31.1491C115.452 31.1776 114.813 31.0805 114.264 30.858C113.719 30.6354 113.296 30.2898 112.993 29.821C112.69 29.3523 112.54 28.7604 112.545 28.0455V17.4773ZM122.705 31.206C122.009 31.206 121.389 31.0852 120.844 30.8438C120.3 30.5975 119.869 30.2353 119.551 29.7571C119.239 29.2741 119.083 28.6728 119.083 27.9531C119.083 27.3471 119.194 26.8381 119.417 26.4261C119.639 26.0142 119.942 25.6828 120.326 25.4318C120.709 25.1809 121.145 24.9915 121.632 24.8636C122.125 24.7358 122.641 24.6458 123.181 24.5938C123.815 24.5275 124.327 24.4659 124.715 24.4091C125.103 24.3475 125.385 24.2576 125.56 24.1392C125.735 24.0208 125.823 23.8456 125.823 23.6136V23.571C125.823 23.1212 125.681 22.7732 125.397 22.527C125.117 22.2808 124.72 22.1577 124.203 22.1577C123.659 22.1577 123.226 22.2784 122.904 22.5199C122.582 22.7566 122.369 23.0549 122.265 23.4148L119.466 23.1875C119.608 22.5246 119.888 21.9517 120.304 21.4688C120.721 20.9811 121.258 20.607 121.917 20.3466C122.579 20.0814 123.346 19.9489 124.218 19.9489C124.824 19.9489 125.404 20.0199 125.958 20.1619C126.516 20.304 127.011 20.5241 127.442 20.8224C127.878 21.1207 128.221 21.5043 128.472 21.973C128.723 22.437 128.848 22.9934 128.848 23.642V31H125.979V29.4872H125.894C125.719 29.8281 125.484 30.1288 125.191 30.3892C124.897 30.6449 124.544 30.8461 124.132 30.9929C123.721 31.1349 123.245 31.206 122.705 31.206ZM123.571 29.1179C124.016 29.1179 124.409 29.0303 124.75 28.8551C125.091 28.6752 125.359 28.4337 125.553 28.1307C125.747 27.8277 125.844 27.4844 125.844 27.1009V25.9432C125.749 26.0047 125.619 26.0616 125.453 26.1136C125.292 26.161 125.11 26.206 124.907 26.2486C124.703 26.2865 124.499 26.322 124.296 26.3551C124.092 26.3835 123.908 26.4096 123.742 26.4332C123.387 26.4853 123.077 26.5682 122.811 26.6818C122.546 26.7955 122.34 26.9493 122.194 27.1435C122.047 27.3329 121.973 27.5696 121.973 27.8537C121.973 28.2656 122.123 28.5805 122.421 28.7983C122.724 29.0114 123.107 29.1179 123.571 29.1179ZM132.673 35.0909C132.289 35.0909 131.93 35.0601 131.593 34.9986C131.262 34.9418 130.987 34.8684 130.77 34.7784L131.451 32.5199C131.806 32.6288 132.126 32.688 132.41 32.6974C132.699 32.7069 132.948 32.6406 133.156 32.4986C133.369 32.3565 133.542 32.1151 133.674 31.7741L133.852 31.3125L129.939 20.0909H133.12L135.379 28.1023H135.493L137.772 20.0909H140.975L136.735 32.179C136.532 32.7661 136.255 33.2775 135.904 33.7131C135.559 34.1534 135.121 34.492 134.591 34.7287C134.06 34.9702 133.421 35.0909 132.673 35.0909Z" fill="white"/>
</svg>
