<svg width="142" height="43" viewBox="0 0 142 43" fill="none" xmlns="http://www.w3.org/2000/svg">
<path d="M31.7335 8.43335V14.7669C32.8871 16.6803 33.5273 18.8587 33.5936 21.0912L33.6001 21.5V32.7C33.6001 33.1713 33.4228 33.6249 33.1027 33.9703C32.7816 34.3147 32.3429 34.5265 31.8735 34.562L31.7335 34.5667H9.33346C8.86213 34.5667 8.40853 34.3893 8.0632 34.0683C7.71786 33.7481 7.50693 33.3095 7.47146 32.84L7.4668 32.7V21.5C7.4668 14.2835 13.3169 8.43335 20.5335 8.43335C24.1903 8.43335 27.4961 9.93602 29.8668 12.3561V8.43335H31.7335ZM20.5335 10.3C14.4435 10.3 9.4884 15.1617 9.3372 21.2153L9.33346 21.5V32.7H15.8668V23.3667H14.0001V21.5H27.0668V23.3667H25.2001V32.7H31.7335V21.5C31.7335 15.3148 26.7187 10.3 20.5335 10.3ZM23.3335 23.3667H17.7335V32.7H23.3335V23.3667ZM20.5335 16.8333C20.7808 16.8333 21.0188 16.9313 21.1933 17.1068C21.3688 17.2813 21.4668 17.5193 21.4668 17.7667C21.4668 18.014 21.3688 18.252 21.1933 18.4265C21.0188 18.602 20.7808 18.7 20.5335 18.7C20.2861 18.7 20.0481 18.602 19.8736 18.4265C19.6981 18.252 19.6001 18.014 19.6001 17.7667C19.6001 17.5193 19.6981 17.2813 19.8736 17.1068C20.0481 16.9313 20.2861 16.8333 20.5335 16.8333Z" fill="black"/>
<path d="M43.2642 31.5V16.9545H46.3395V22.956H52.5824V16.9545H55.6506V31.5H52.5824V25.4915H46.3395V31.5H43.2642ZM63.0582 31.7131C61.955 31.7131 61.0009 31.4787 60.196 31.0099C59.3958 30.5365 58.7779 29.8783 58.3423 29.0355C57.9067 28.188 57.6889 27.2055 57.6889 26.0881C57.6889 24.9612 57.9067 23.9763 58.3423 23.1335C58.7779 22.286 59.3958 21.6278 60.196 21.1591C61.0009 20.6856 61.955 20.4489 63.0582 20.4489C64.1615 20.4489 65.1132 20.6856 65.9134 21.1591C66.7183 21.6278 67.3385 22.286 67.7741 23.1335C68.2098 23.9763 68.4276 24.9612 68.4276 26.0881C68.4276 27.2055 68.2098 28.188 67.7741 29.0355C67.3385 29.8783 66.7183 30.5365 65.9134 31.0099C65.1132 31.4787 64.1615 31.7131 63.0582 31.7131ZM63.0724 29.3693C63.5743 29.3693 63.9934 29.2273 64.3295 28.9432C64.6657 28.6544 64.919 28.2614 65.0895 27.7642C65.2647 27.267 65.3523 26.7012 65.3523 26.0668C65.3523 25.4323 65.2647 24.8665 65.0895 24.3693C64.919 23.8722 64.6657 23.4792 64.3295 23.1903C63.9934 22.9015 63.5743 22.7571 63.0724 22.7571C62.5658 22.7571 62.1397 22.9015 61.794 23.1903C61.4531 23.4792 61.1951 23.8722 61.0199 24.3693C60.8494 24.8665 60.7642 25.4323 60.7642 26.0668C60.7642 26.7012 60.8494 27.267 61.0199 27.7642C61.1951 28.2614 61.4531 28.6544 61.794 28.9432C62.1397 29.2273 62.5658 29.3693 63.0724 29.3693ZM70.3949 31.5V20.5909H73.2784V22.5156H73.4062C73.6335 21.8764 74.0123 21.3722 74.5426 21.0028C75.0729 20.6335 75.7074 20.4489 76.446 20.4489C77.1941 20.4489 77.831 20.6359 78.3565 21.0099C78.8821 21.3793 79.2325 21.8812 79.4077 22.5156H79.5213C79.7438 21.8906 80.1463 21.3911 80.7287 21.017C81.3158 20.6383 82.0095 20.4489 82.8097 20.4489C83.8277 20.4489 84.6539 20.7732 85.2884 21.4219C85.9276 22.0658 86.2472 22.9796 86.2472 24.1634V31.5H83.2287V24.7599C83.2287 24.1539 83.0677 23.6993 82.7457 23.3963C82.4238 23.0933 82.0213 22.9418 81.5384 22.9418C80.9891 22.9418 80.5606 23.117 80.2528 23.4673C79.9451 23.813 79.7912 24.2699 79.7912 24.8381V31.5H76.858V24.696C76.858 24.161 76.7041 23.7348 76.3963 23.4176C76.0933 23.1004 75.6932 22.9418 75.196 22.9418C74.8598 22.9418 74.5568 23.027 74.2869 23.1974C74.0218 23.3632 73.8111 23.5975 73.6548 23.9006C73.4986 24.1989 73.4205 24.5492 73.4205 24.9517V31.5H70.3949ZM93.6087 31.7131C92.4865 31.7131 91.5206 31.4858 90.7109 31.0312C89.906 30.572 89.2857 29.9233 88.8501 29.0852C88.4145 28.2424 88.1967 27.2457 88.1967 26.0952C88.1967 24.973 88.4145 23.9882 88.8501 23.1406C89.2857 22.2931 89.8989 21.6326 90.6896 21.1591C91.4851 20.6856 92.4179 20.4489 93.4879 20.4489C94.2076 20.4489 94.8776 20.5649 95.4979 20.7969C96.1229 21.0241 96.6674 21.3674 97.1314 21.8267C97.6001 22.286 97.9647 22.8636 98.2251 23.5597C98.4856 24.2509 98.6158 25.0606 98.6158 25.9886V26.8196H89.4041V24.9446H95.7678C95.7678 24.509 95.6731 24.1231 95.4837 23.7869C95.2943 23.4508 95.0315 23.188 94.6953 22.9986C94.3639 22.8045 93.978 22.7074 93.5376 22.7074C93.0784 22.7074 92.6712 22.8139 92.3161 23.027C91.9657 23.2353 91.6911 23.517 91.4922 23.8722C91.2933 24.2225 91.1915 24.6132 91.1868 25.044V26.8267C91.1868 27.3665 91.2862 27.8329 91.4851 28.2259C91.6887 28.6188 91.9751 28.9219 92.3445 29.1349C92.7138 29.348 93.1518 29.4545 93.6584 29.4545C93.9946 29.4545 94.3023 29.4072 94.5817 29.3125C94.861 29.2178 95.1001 29.0758 95.299 28.8864C95.4979 28.697 95.6494 28.465 95.7536 28.1903L98.5518 28.375C98.4098 29.0473 98.1186 29.6345 97.6783 30.1364C97.2427 30.6335 96.6792 31.0218 95.9879 31.3011C95.3014 31.5758 94.5083 31.7131 93.6087 31.7131ZM109.667 23.7017L106.897 23.8722C106.85 23.6354 106.748 23.4223 106.592 23.233C106.435 23.0388 106.229 22.8849 105.974 22.7713C105.723 22.6529 105.422 22.5938 105.072 22.5938C104.603 22.5938 104.208 22.6932 103.886 22.892C103.564 23.0862 103.403 23.3466 103.403 23.6733C103.403 23.9337 103.507 24.1539 103.715 24.3338C103.924 24.5137 104.281 24.6581 104.788 24.767L106.762 25.1648C107.823 25.3826 108.613 25.733 109.134 26.2159C109.655 26.6989 109.915 27.3333 109.915 28.1193C109.915 28.8343 109.705 29.4616 109.283 30.0014C108.867 30.5412 108.294 30.9626 107.565 31.2656C106.84 31.5639 106.004 31.7131 105.058 31.7131C103.613 31.7131 102.463 31.4124 101.606 30.8111C100.754 30.205 100.254 29.3812 100.107 28.3395L103.083 28.1832C103.173 28.6236 103.391 28.9598 103.737 29.1918C104.082 29.419 104.525 29.5327 105.065 29.5327C105.595 29.5327 106.021 29.4309 106.343 29.2273C106.67 29.0189 106.835 28.7514 106.84 28.4247C106.835 28.1501 106.719 27.9252 106.492 27.75C106.265 27.5701 105.915 27.4328 105.441 27.3381L103.552 26.9616C102.487 26.7486 101.693 26.3793 101.173 25.8537C100.656 25.3281 100.398 24.6581 100.398 23.8438C100.398 23.143 100.588 22.5393 100.967 22.0327C101.35 21.526 101.888 21.1354 102.579 20.8608C103.275 20.5862 104.089 20.4489 105.022 20.4489C106.4 20.4489 107.484 20.7401 108.275 21.3224C109.07 21.9048 109.534 22.6979 109.667 23.7017ZM117.623 20.5909V22.8636H111.054V20.5909H117.623ZM112.545 17.9773H115.571V28.1477C115.571 28.4271 115.613 28.6449 115.699 28.8011C115.784 28.9527 115.902 29.0592 116.054 29.1207C116.21 29.1823 116.39 29.2131 116.593 29.2131C116.735 29.2131 116.877 29.2012 117.02 29.1776C117.162 29.1491 117.27 29.1278 117.346 29.1136L117.822 31.3651C117.671 31.4124 117.458 31.4669 117.183 31.5284C116.908 31.5947 116.574 31.6349 116.181 31.6491C115.452 31.6776 114.813 31.5805 114.264 31.358C113.719 31.1354 113.296 30.7898 112.993 30.321C112.69 29.8523 112.54 29.2604 112.545 28.5455V17.9773ZM122.705 31.706C122.009 31.706 121.389 31.5852 120.844 31.3438C120.3 31.0975 119.869 30.7353 119.551 30.2571C119.239 29.7741 119.083 29.1728 119.083 28.4531C119.083 27.8471 119.194 27.3381 119.417 26.9261C119.639 26.5142 119.942 26.1828 120.326 25.9318C120.709 25.6809 121.145 25.4915 121.632 25.3636C122.125 25.2358 122.641 25.1458 123.181 25.0938C123.815 25.0275 124.327 24.9659 124.715 24.9091C125.103 24.8475 125.385 24.7576 125.56 24.6392C125.735 24.5208 125.823 24.3456 125.823 24.1136V24.071C125.823 23.6212 125.681 23.2732 125.397 23.027C125.117 22.7808 124.72 22.6577 124.203 22.6577C123.659 22.6577 123.226 22.7784 122.904 23.0199C122.582 23.2566 122.369 23.5549 122.265 23.9148L119.466 23.6875C119.608 23.0246 119.888 22.4517 120.304 21.9688C120.721 21.4811 121.258 21.107 121.917 20.8466C122.579 20.5814 123.346 20.4489 124.218 20.4489C124.824 20.4489 125.404 20.5199 125.958 20.6619C126.516 20.804 127.011 21.0241 127.442 21.3224C127.878 21.6207 128.221 22.0043 128.472 22.473C128.723 22.937 128.848 23.4934 128.848 24.142V31.5H125.979V29.9872H125.894C125.719 30.3281 125.484 30.6288 125.191 30.8892C124.897 31.1449 124.544 31.3461 124.132 31.4929C123.721 31.6349 123.245 31.706 122.705 31.706ZM123.571 29.6179C124.016 29.6179 124.409 29.5303 124.75 29.3551C125.091 29.1752 125.359 28.9337 125.553 28.6307C125.747 28.3277 125.844 27.9844 125.844 27.6009V26.4432C125.749 26.5047 125.619 26.5616 125.453 26.6136C125.292 26.661 125.11 26.706 124.907 26.7486C124.703 26.7865 124.499 26.822 124.296 26.8551C124.092 26.8835 123.908 26.9096 123.742 26.9332C123.387 26.9853 123.077 27.0682 122.811 27.1818C122.546 27.2955 122.34 27.4493 122.194 27.6435C122.047 27.8329 121.973 28.0696 121.973 28.3537C121.973 28.7656 122.123 29.0805 122.421 29.2983C122.724 29.5114 123.107 29.6179 123.571 29.6179ZM132.673 35.5909C132.289 35.5909 131.93 35.5601 131.593 35.4986C131.262 35.4418 130.987 35.3684 130.77 35.2784L131.451 33.0199C131.806 33.1288 132.126 33.188 132.41 33.1974C132.699 33.2069 132.948 33.1406 133.156 32.9986C133.369 32.8565 133.542 32.6151 133.674 32.2741L133.852 31.8125L129.939 20.5909H133.12L135.379 28.6023H135.493L137.772 20.5909H140.975L136.735 32.679C136.532 33.2661 136.255 33.7775 135.904 34.2131C135.559 34.6534 135.121 34.992 134.591 35.2287C134.06 35.4702 133.421 35.5909 132.673 35.5909Z" fill="black"/>
</svg>
