<svg width="167" height="166" viewBox="0 0 167 166" fill="none"
  xmlns="http://www.w3.org/2000/svg">
  <rect x="0.193359" width="166" height="166" rx="12" fill="#054061"/>
  <g filter="url(#filter0_d_11915_5088)">
    <path d="M145.213 98.4378C144.805 97.848 144.262 97.3646 143.63 97.028C142.997 96.6914 142.294 96.5114 141.578 96.503C137.541 96.3898 133.502 96.6156 129.504 97.1779C130.685 94.3667 131.514 91.4195 131.972 88.4037C133.315 79.4943 131.522 70.3942 126.9 62.666C126.424 61.8277 125.691 61.1652 124.81 60.7763C123.929 60.3874 122.946 60.2927 122.008 60.5062C117.882 61.7739 113.908 63.4942 110.158 65.6357C110.112 63.646 109.932 61.6616 109.619 59.6963C108.587 54.1902 106.382 48.9721 103.156 44.3976C98.4831 38.0181 92.3175 32.888 85.2018 29.459C84.587 29.157 83.9115 29 83.2269 29C82.5423 29 81.8667 29.157 81.2519 29.459C74.1363 32.888 67.9706 38.0181 63.2978 44.3976C58.8823 50.6079 56.4416 58.0108 56.2957 65.6357C52.5472 63.4919 48.573 61.7715 44.446 60.5062C43.4961 60.2378 42.4845 60.2907 41.5676 60.6567C40.6507 61.0227 39.8798 61.6815 39.374 62.531C37.4781 65.6951 36.0565 69.1215 35.1548 72.7001C34.9568 73.2904 34.8832 73.9155 34.9386 74.5358C34.9941 75.1561 35.1774 75.7581 35.477 76.3037C35.7765 76.8493 36.1858 77.3267 36.6789 77.7055C37.172 78.0844 37.7382 78.3564 38.3416 78.5046C38.9134 78.6534 39.5089 78.6875 40.0938 78.6051C40.6788 78.5227 41.2418 78.3254 41.7506 78.0244C42.2593 77.7234 42.7038 77.3247 43.0585 76.8512C43.4132 76.3776 43.6712 75.8386 43.8176 75.2649C44.2562 73.7308 44.796 72.2276 45.4335 70.7653C53.7926 73.8286 61.1201 79.1936 66.5744 86.2439C73 94.9171 76.3351 105.502 76.0452 116.301C69.7714 110.253 62.4165 105.444 54.3657 102.127C52.3151 101.272 50.217 100.536 48.0817 99.9227C48.0114 99.6904 47.9213 99.4645 47.8124 99.2477C45.4604 95.685 43.9273 91.643 43.3239 87.4138C43.2365 86.824 43.033 86.2576 42.7253 85.7474C42.4177 85.2371 42.0119 84.7933 41.5316 84.4416C41.0513 84.0899 40.5062 83.8375 39.9277 83.6988C39.3493 83.5602 38.7491 83.5382 38.1621 83.6341C36.9911 83.8223 35.942 84.4674 35.2439 85.4286C34.5459 86.3897 34.2556 87.5887 34.4366 88.7637C34.8945 91.7795 35.7237 94.7267 36.9053 97.5379C32.9313 96.8576 28.9076 96.5114 24.876 96.503C24.1592 96.4719 23.4453 96.6135 22.7943 96.916C22.1432 97.2185 21.574 97.6731 21.1344 98.2416C20.6948 98.8101 20.3975 99.476 20.2676 100.183C20.1376 100.891 20.1788 101.619 20.3875 102.307C22.4389 108.955 25.8546 115.1 30.4153 120.346C34.976 125.592 40.5809 129.824 46.8698 132.77C53.0601 135.578 59.7799 137.02 66.5744 136.999C72.2434 137.029 77.8755 136.085 83.2269 134.21C88.5214 136.065 94.0911 137.008 99.6998 136.999C106.508 137.015 113.242 135.573 119.449 132.77L121.155 131.96C122.22 131.423 123.029 130.483 123.404 129.349C123.779 128.214 123.688 126.976 123.152 125.908C122.617 124.84 121.68 124.029 120.547 123.653C119.415 123.278 118.181 123.369 117.115 123.906L115.724 124.58C108.283 127.882 100.014 128.824 92.0244 127.28C98.343 119.705 106.398 113.777 115.499 110.002C121.695 107.465 128.257 105.946 134.935 105.502C133.181 109.283 130.882 112.786 128.112 115.896C127.291 116.761 126.846 117.918 126.875 119.112C126.905 120.306 127.406 121.44 128.269 122.263C129.132 123.087 130.286 123.533 131.477 123.503C132.668 123.474 133.799 122.971 134.62 122.106C139.867 116.449 143.778 109.683 146.066 102.307C146.228 101.64 146.236 100.944 146.088 100.273C145.94 99.6027 145.641 98.9748 145.213 98.4378ZM73.7112 80.4394C71.3808 77.3909 68.7325 74.6004 65.8114 72.1152C65.0489 68.2318 65.0856 64.2333 65.9192 60.3647C66.7528 56.496 68.3657 52.8388 70.659 49.6172C73.9759 45.049 78.27 41.2824 83.2269 38.5932C88.1838 41.2824 92.4779 45.049 95.7947 49.6172C98.0972 52.8337 99.7123 56.4922 100.539 60.3636C101.365 64.235 101.385 68.2357 100.597 72.1152C97.7024 74.6137 95.0704 77.403 92.7426 80.4394C88.2047 86.4043 84.9632 93.2558 83.2269 100.553C81.4846 93.2716 78.2434 86.436 73.7112 80.4844V80.4394ZM50.73 124.535C42.3008 120.642 35.5021 113.906 31.5191 105.502C38.1965 105.946 44.7591 107.465 50.9544 110.002C59.9913 113.802 67.9819 119.728 74.2498 127.28C66.3181 128.789 58.1162 127.847 50.73 124.58V124.535ZM112.088 101.768C104.037 105.084 96.6824 109.893 90.4085 115.941C90.1186 105.142 93.4537 94.5571 99.8793 85.8839C105.321 78.8306 112.654 73.4771 121.02 70.4503C123.316 75.6617 124.094 81.4179 123.265 87.0538C122.661 91.283 121.128 95.3251 118.776 98.8878C118.667 99.1046 118.577 99.3304 118.507 99.5627C116.325 100.185 114.182 100.937 112.088 101.812V101.768Z" fill="white"/>
    <path d="M83.2268 60.506C84.4172 60.506 85.5589 60.032 86.4007 59.1881C87.2424 58.3443 87.7153 57.1998 87.7153 56.0064C87.7153 54.8131 87.2424 53.6686 86.4007 52.8247C85.5589 51.9809 84.4172 51.5068 83.2268 51.5068C82.0364 51.5068 80.8947 51.9809 80.0529 52.8247C79.2112 53.6686 78.7383 54.8131 78.7383 56.0064C78.7383 57.1998 79.2112 58.3443 80.0529 59.1881C80.8947 60.032 82.0364 60.506 83.2268 60.506ZM83.2268 74.0048C84.4172 74.0048 85.5589 73.5308 86.4007 72.6869C87.2424 71.8431 87.7153 70.6986 87.7153 69.5052C87.7153 68.3119 87.2424 67.1674 86.4007 66.3235C85.5589 65.4797 84.4172 65.0056 83.2268 65.0056C82.0364 65.0056 80.8947 65.4797 80.0529 66.3235C79.2112 67.1674 78.7383 68.3119 78.7383 69.5052C78.7383 70.6986 79.2112 71.8431 80.0529 72.6869C80.8947 73.5308 82.0364 74.0048 83.2268 74.0048Z" fill="white"/>
  </g>
  <defs>
    <filter id="filter0_d_11915_5088" x="15.0191" y="29" width="136.348" height="118.348" filterUnits="userSpaceOnUse" color-interpolation-filters="sRGB">
      <feFlood flood-opacity="0" result="BackgroundImageFix"/>
      <feColorMatrix in="SourceAlpha" type="matrix" values="0 0 0 0 0 0 0 0 0 0 0 0 0 0 0 0 0 0 127 0" result="hardAlpha"/>
      <feOffset dy="5.17423"/>
      <feGaussianBlur stdDeviation="2.58711"/>
      <feComposite in2="hardAlpha" operator="out"/>
      <feColorMatrix type="matrix" values="0 0 0 0 0 0 0 0 0 0 0 0 0 0 0 0 0 0 0.25 0"/>
      <feBlend mode="normal" in2="BackgroundImageFix" result="effect1_dropShadow_11915_5088"/>
      <feBlend mode="normal" in="SourceGraphic" in2="effect1_dropShadow_11915_5088" result="shape"/>
    </filter>
  </defs>
</svg>
