<svg width="24" height="24" viewBox="0 0 24 24" fill="none" xmlns="http://www.w3.org/2000/svg">
<rect width="24" height="24" rx="4" fill="#171717"/>
<path d="M4 12.0005C4 7.58193 7.58193 4 12.0005 4C16.419 4 20.0009 7.58193 20.0009 12.0005C20.0009 16.419 16.419 20.0009 12.0005 20.0009C7.58193 20.0009 4 16.419 4 12.0005ZM12.0005 5C11.9152 5 11.8303 5.00152 11.7458 5.00455C11.8632 5.22672 11.9984 5.50943 12.1183 5.82797C12.399 6.57367 12.6449 7.64539 12.2033 8.58568C11.7991 9.44635 11.1064 9.66986 10.5711 9.80818L10.4745 9.83303C9.96849 9.96298 9.71927 10.027 9.54465 10.2921C9.37449 10.5504 9.41557 10.8666 9.5812 11.4063C9.59336 11.4459 9.60637 11.4874 9.61981 11.5303C9.68604 11.7414 9.76301 11.9867 9.80319 12.2177C9.85302 12.5041 9.86425 12.8535 9.69014 13.1876C9.51101 13.5313 9.27611 13.7617 9.00073 13.9117C8.74001 14.0538 8.46782 14.1088 8.25369 14.1468L8.16583 14.1623C7.75804 14.2337 7.52062 14.2752 7.29859 14.5131C7.12129 14.703 7.01993 15.0212 6.96215 15.4545C6.93842 15.6325 6.92414 15.8091 6.90966 15.9882L6.90194 16.0831C6.88553 16.282 6.86578 16.5017 6.82337 16.6881L6.8189 16.7077C8.09946 18.1165 9.94668 19.0009 12.0005 19.0009C13.3512 19.0009 14.6125 18.6184 15.6821 17.9557C15.5965 17.8704 15.5012 17.7673 15.4076 17.6494C15.1364 17.3081 14.7984 16.7404 14.9158 16.0798C14.9716 15.7657 15.1411 15.4978 15.3127 15.2851C15.487 15.069 15.6988 14.8677 15.8886 14.6931C15.9326 14.6525 15.9752 14.6136 16.0163 14.5761C16.1624 14.4428 16.2897 14.3265 16.3984 14.2127C16.5454 14.0587 16.5899 13.9764 16.5979 13.9498C16.6661 13.7244 16.5853 13.5455 16.4726 13.4584C16.378 13.3852 16.1773 13.3162 15.8619 13.516C15.7432 13.5911 15.6348 13.657 15.5393 13.7071C15.4529 13.7525 15.3339 13.8088 15.2036 13.8295C15.0468 13.8543 14.8286 13.831 14.6593 13.6516C14.5309 13.5156 14.4957 13.3503 14.4818 13.2766C14.4651 13.1875 14.4572 13.0869 14.4509 13.0014L14.4461 12.9346C14.4408 12.8609 14.4354 12.7843 14.4272 12.6972C14.4066 12.4756 14.3696 12.2011 14.2837 11.8716C14.156 11.381 13.8433 10.9838 13.5198 10.5728C13.4724 10.5126 13.4247 10.452 13.3774 10.3909C13.2179 10.1848 13.0147 9.9126 12.941 9.62168C12.8994 9.45762 12.8927 9.26773 12.9659 9.07389C13.0379 8.88366 13.1687 8.73786 13.3175 8.62625C13.7455 8.30525 14.4451 7.61348 15.0606 6.97382C15.3631 6.65957 15.6369 6.36665 15.8353 6.1522C15.8371 6.15025 15.8389 6.14831 15.8407 6.14637C14.7381 5.42163 13.4185 5 12.0005 5ZM16.6383 6.75659C16.6165 6.78026 16.5935 6.80515 16.5694 6.83119C16.368 7.04899 16.0894 7.34694 15.7812 7.66723C15.179 8.29297 14.4298 9.03983 13.9264 9.41957C13.9565 9.48601 14.0266 9.59585 14.1683 9.77893C14.2061 9.82783 14.248 9.8804 14.2926 9.93652C14.6087 10.3337 15.0663 10.9087 15.2514 11.6195C15.3544 12.0148 15.3987 12.345 15.4229 12.6042L15.4238 12.6133C16.0118 12.2839 16.633 12.3184 17.0843 12.6673C17.5423 13.0214 17.7369 13.638 17.5551 14.2392C17.4741 14.5073 17.2827 14.7345 17.1217 14.9031C16.9868 15.0445 16.8254 15.1917 16.6757 15.3283C16.6381 15.3626 16.6013 15.3962 16.5658 15.4289C16.3779 15.6018 16.2146 15.7597 16.091 15.9129C15.9647 16.0696 15.9134 16.181 15.9003 16.2548C15.86 16.4817 15.9721 16.7524 16.1906 17.0274C16.2918 17.1548 16.3989 17.2614 16.4817 17.3366C16.4901 17.3443 16.4983 17.3515 16.5061 17.3584C18.0316 16.0743 19.0009 14.1506 19.0009 12.0005C19.0009 9.91313 18.0874 8.03917 16.6383 6.75659ZM10.7982 5.35449C10.7451 5.25875 10.6991 5.18155 10.6656 5.12713C7.43779 5.75032 5 8.5907 5 12.0005C5 13.2834 5.34511 14.4857 5.94756 15.5197C5.95442 15.4545 5.96211 15.3885 5.97092 15.3224C6.03324 14.855 6.16394 14.2631 6.56759 13.8307C7.02964 13.3357 7.59299 13.2428 7.97144 13.1803C8.00927 13.1741 8.04524 13.1682 8.07908 13.1622C8.28242 13.1261 8.41495 13.0921 8.52232 13.0336C8.61501 12.9831 8.71155 12.9015 8.80333 12.7254C8.83178 12.6708 8.85079 12.5776 8.81799 12.3891C8.79017 12.2292 8.73787 12.0616 8.67266 11.8526C8.65749 11.804 8.64162 11.7532 8.6252 11.6997C8.47264 11.2025 8.25134 10.4376 8.70954 9.74201C9.1093 9.1351 9.74901 8.97962 10.1866 8.87325C10.2339 8.86175 10.2789 8.85083 10.3209 8.83997C10.7879 8.7193 11.0928 8.59785 11.2982 8.16061C11.5594 7.60431 11.4414 6.8682 11.1824 6.18024C11.0584 5.85064 10.9131 5.56162 10.7982 5.35449Z" fill="#737373"/>
</svg>
