<svg width="25" height="24" viewBox="0 0 25 24" fill="none" xmlns="http://www.w3.org/2000/svg">
<rect x="0.878418" width="24" height="24" rx="4" fill="#171717"/>
<path d="M17.8284 7C17.5968 5.85888 16.5879 5 15.3784 5C14.1689 5 13.1601 5.85888 12.9284 7H5.37842C5.10228 7 4.87842 7.22386 4.87842 7.5C4.87842 7.77614 5.10228 8 5.37842 8H12.9284C13.1601 9.14112 14.1689 10 15.3784 10C16.6081 10 17.6304 9.11217 17.8394 7.94254C17.8359 7.96177 17.8323 7.98093 17.8284 8H20.3784C20.6546 8 20.8784 7.77614 20.8784 7.5C20.8784 7.22386 20.6546 7 20.3784 7H17.8284ZM15.3784 9C14.55 9 13.8784 8.32843 13.8784 7.5C13.8784 6.67157 14.55 6 15.3784 6C16.2068 6 16.8784 6.67157 16.8784 7.5C16.8784 8.32843 16.2068 9 15.3784 9ZM12.8284 16C12.5968 14.8589 11.5879 14 10.3784 14C9.16894 14 8.16006 14.8589 7.92843 16H5.37842C5.10228 16 4.87842 16.2239 4.87842 16.5C4.87842 16.7761 5.10228 17 5.37842 17H7.92843C8.16006 18.1411 9.16894 19 10.3784 19C11.5879 19 12.5968 18.1411 12.8284 17H20.3784C20.6546 17 20.8784 16.7761 20.8784 16.5C20.8784 16.2239 20.6546 16 20.3784 16H12.8284ZM10.3784 18C9.54999 18 8.87842 17.3284 8.87842 16.5C8.87842 15.6716 9.54999 15 10.3784 15C11.2068 15 11.8784 15.6716 11.8784 16.5C11.8784 17.3284 11.2068 18 10.3784 18Z" fill="#737373"/>
</svg>
