<svg width="186" height="28" viewBox="0 0 186 28" fill="none" xmlns="http://www.w3.org/2000/svg">
<path d="M0 7.66891L9.99995 0.302979V3.77913L0 11.1451V7.66891Z" fill="white"/>
<path d="M20 7.66891L10.0001 0.302979V3.77913L20 11.1451V7.66891Z" fill="white"/>
<path d="M0 15.6689L9.99995 8.30296V11.7791L0 19.145V15.6689Z" fill="white"/>
<path d="M20 15.6689L10.0001 8.30295V11.7791L20 19.145V15.6689Z" fill="white"/>
<path d="M5.25 11.9603L14 5.51508V8.55671L5.25 15.0019V11.9603Z" fill="white"/>
<path d="M22.75 11.9603L14 5.51508V8.55671L22.75 15.0019V11.9603Z" fill="white"/>
<path d="M5.25 18.9603L14 12.5151V15.5567L5.25 22.0019V18.9603Z" fill="white"/>
<path d="M22.75 18.9603L14 12.5151V15.5567L22.75 22.0019V18.9603Z" fill="white"/>
<rect width="28" height="28" rx="2" fill="white"/>
<rect width="28" height="28" rx="2" fill="url(#paint0_linear_8710_94466)"/>
<path d="M6 12.3559L13.9998 6.46325V9.24413L6 15.1368V12.3559Z" fill="white"/>
<path d="M22 12.356L14.0002 6.46332V9.24419L22 15.1368V12.356Z" fill="white"/>
<path d="M6 18.7558L13.9998 12.8632V15.6441L6 21.5367V18.7558Z" fill="white"/>
<path d="M22 18.7559L14.0002 12.8632V15.6441L22 21.5367V18.7559Z" fill="white"/>
<path d="M46.792 26.3187C45.848 26.3187 44.976 26.1667 44.176 25.8627C43.376 25.5587 42.688 25.1347 42.112 24.5907C41.536 24.0627 41.104 23.4387 40.816 22.7187L43.312 21.6867C43.536 22.2947 43.944 22.7987 44.536 23.1987C45.144 23.5987 45.888 23.7987 46.768 23.7987C47.456 23.7987 48.072 23.6627 48.616 23.3907C49.16 23.1347 49.592 22.7507 49.912 22.2387C50.232 21.7427 50.392 21.1427 50.392 20.4387V17.5107L50.872 18.0627C50.424 18.8947 49.8 19.5267 49 19.9587C48.216 20.3907 47.328 20.6067 46.336 20.6067C45.136 20.6067 44.056 20.3267 43.096 19.7667C42.136 19.2067 41.376 18.4387 40.816 17.4627C40.272 16.4867 40 15.3907 40 14.1747C40 12.9427 40.272 11.8467 40.816 10.8867C41.376 9.92673 42.128 9.16673 43.072 8.60673C44.016 8.04673 45.096 7.76673 46.312 7.76673C47.304 7.76673 48.184 7.98273 48.952 8.41473C49.736 8.83073 50.376 9.43873 50.872 10.2387L50.512 10.9107V8.05473H53.08V20.4387C53.08 21.5587 52.808 22.5587 52.264 23.4387C51.736 24.3347 51 25.0387 50.056 25.5507C49.112 26.0627 48.024 26.3187 46.792 26.3187ZM46.648 18.0867C47.368 18.0867 48.008 17.9187 48.568 17.5827C49.128 17.2307 49.568 16.7667 49.888 16.1907C50.224 15.5987 50.392 14.9347 50.392 14.1987C50.392 13.4627 50.224 12.7987 49.888 12.2067C49.552 11.6147 49.104 11.1507 48.544 10.8147C47.984 10.4627 47.352 10.2867 46.648 10.2867C45.912 10.2867 45.256 10.4627 44.68 10.8147C44.104 11.1507 43.648 11.6147 43.312 12.2067C42.992 12.7827 42.832 13.4467 42.832 14.1987C42.832 14.9187 42.992 15.5747 43.312 16.1667C43.648 16.7587 44.104 17.2307 44.68 17.5827C45.256 17.9187 45.912 18.0867 46.648 18.0867Z" fill="white"/>
<path d="M56.2546 21.0387V2.87073H58.9666V21.0387H56.2546Z" fill="white"/>
<path d="M66.7694 21.3267C65.7934 21.3267 64.9374 21.1107 64.2014 20.6787C63.4654 20.2307 62.8894 19.6147 62.4734 18.8307C62.0734 18.0307 61.8734 17.1107 61.8734 16.0707V8.05473H64.5854V15.8307C64.5854 16.4227 64.7054 16.9427 64.9454 17.3907C65.1854 17.8387 65.5214 18.1907 65.9534 18.4467C66.3854 18.6867 66.8814 18.8067 67.4414 18.8067C68.0174 18.8067 68.5214 18.6787 68.9534 18.4227C69.3854 18.1667 69.7214 17.8067 69.9614 17.3427C70.2174 16.8787 70.3454 16.3347 70.3454 15.7107V8.05473H73.0334V21.0387H70.4654V18.4947L70.7534 18.8307C70.4494 19.6307 69.9454 20.2467 69.2414 20.6787C68.5374 21.1107 67.7134 21.3267 66.7694 21.3267Z" fill="white"/>
<path d="M82.2959 21.3267C80.9999 21.3267 79.8479 21.0307 78.8399 20.4387C77.8479 19.8307 77.0719 19.0147 76.5119 17.9907C75.9519 16.9507 75.6719 15.7907 75.6719 14.5107C75.6719 13.1987 75.9519 12.0387 76.5119 11.0307C77.0879 10.0227 77.8559 9.23073 78.8159 8.65473C79.7759 8.06273 80.8639 7.76673 82.0799 7.76673C83.0559 7.76673 83.9279 7.93473 84.6959 8.27073C85.4639 8.60673 86.1119 9.07073 86.6399 9.66273C87.1679 10.2387 87.5679 10.9027 87.8399 11.6547C88.1279 12.4067 88.2719 13.2067 88.2719 14.0547C88.2719 14.2627 88.2639 14.4787 88.2479 14.7027C88.2319 14.9267 88.1999 15.1347 88.1519 15.3267H77.8079V13.1667H86.6159L85.3199 14.1507C85.4799 13.3667 85.4239 12.6707 85.1519 12.0627C84.8959 11.4387 84.4959 10.9507 83.9519 10.5987C83.4239 10.2307 82.7999 10.0467 82.0799 10.0467C81.3599 10.0467 80.7199 10.2307 80.1599 10.5987C79.5999 10.9507 79.1679 11.4627 78.8639 12.1347C78.5599 12.7907 78.4399 13.5907 78.5039 14.5347C78.4239 15.4147 78.5439 16.1827 78.8639 16.8387C79.1999 17.4947 79.6639 18.0067 80.2559 18.3747C80.8639 18.7427 81.5519 18.9267 82.3199 18.9267C83.1039 18.9267 83.7679 18.7507 84.3119 18.3987C84.8719 18.0467 85.3119 17.5907 85.6319 17.0307L87.8399 18.1107C87.5839 18.7187 87.1839 19.2707 86.6399 19.7667C86.1119 20.2467 85.4719 20.6307 84.7199 20.9187C83.9839 21.1907 83.1759 21.3267 82.2959 21.3267Z" fill="white"/>
<path d="M95.7186 21.3267C94.3906 21.3267 93.2226 20.9987 92.2146 20.3427C91.2226 19.6867 90.5266 18.8067 90.1266 17.7027L92.2146 16.7187C92.5666 17.4547 93.0466 18.0387 93.6546 18.4707C94.2786 18.9027 94.9666 19.1187 95.7186 19.1187C96.3586 19.1187 96.8786 18.9747 97.2786 18.6867C97.6786 18.3987 97.8786 18.0067 97.8786 17.5107C97.8786 17.1907 97.7906 16.9347 97.6146 16.7427C97.4386 16.5347 97.2146 16.3667 96.9426 16.2387C96.6866 16.1107 96.4226 16.0147 96.1506 15.9507L94.1106 15.3747C92.9906 15.0547 92.1506 14.5747 91.5906 13.9347C91.0466 13.2787 90.7746 12.5187 90.7746 11.6547C90.7746 10.8707 90.9746 10.1907 91.3746 9.61473C91.7746 9.02273 92.3266 8.56673 93.0306 8.24673C93.7346 7.92673 94.5266 7.76673 95.4066 7.76673C96.5906 7.76673 97.6466 8.06273 98.5746 8.65473C99.5026 9.23073 100.159 10.0387 100.543 11.0787L98.4546 12.0627C98.1986 11.4387 97.7906 10.9427 97.2306 10.5747C96.6866 10.2067 96.0706 10.0227 95.3826 10.0227C94.7906 10.0227 94.3186 10.1667 93.9666 10.4547C93.6146 10.7267 93.4386 11.0867 93.4386 11.5347C93.4386 11.8387 93.5186 12.0947 93.6786 12.3027C93.8386 12.4947 94.0466 12.6547 94.3026 12.7827C94.5586 12.8947 94.8226 12.9907 95.0946 13.0707L97.2066 13.6947C98.2786 13.9987 99.1026 14.4787 99.6786 15.1347C100.255 15.7747 100.543 16.5427 100.543 17.4387C100.543 18.2067 100.335 18.8867 99.9186 19.4787C99.5186 20.0547 98.9586 20.5107 98.2386 20.8467C97.5186 21.1667 96.6786 21.3267 95.7186 21.3267Z" fill="white"/>
<path d="M108.816 21.1827C107.456 21.1827 106.4 20.7987 105.648 20.0307C104.896 19.2627 104.52 18.1827 104.52 16.7907V10.5027H102.24V8.05473H102.6C103.208 8.05473 103.68 7.87873 104.016 7.52673C104.352 7.17473 104.52 6.69473 104.52 6.08673V5.07873H107.232V8.05473H110.184V10.5027H107.232V16.6707C107.232 17.1187 107.304 17.5027 107.448 17.8227C107.592 18.1267 107.824 18.3667 108.144 18.5427C108.464 18.7027 108.88 18.7827 109.392 18.7827C109.52 18.7827 109.664 18.7747 109.824 18.7587C109.984 18.7427 110.136 18.7267 110.28 18.7107V21.0387C110.056 21.0707 109.808 21.1027 109.536 21.1347C109.264 21.1667 109.024 21.1827 108.816 21.1827Z" fill="white"/>
<path d="M116.697 21.3267C115.817 21.3267 115.041 21.1747 114.369 20.8707C113.713 20.5507 113.201 20.1187 112.833 19.5747C112.465 19.0147 112.281 18.3587 112.281 17.6067C112.281 16.9027 112.433 16.2707 112.737 15.7107C113.057 15.1507 113.545 14.6787 114.201 14.2947C114.857 13.9107 115.681 13.6387 116.673 13.4787L121.185 12.7347V14.8707L117.201 15.5667C116.481 15.6947 115.953 15.9267 115.617 16.2627C115.281 16.5827 115.113 16.9987 115.113 17.5107C115.113 18.0067 115.297 18.4147 115.665 18.7347C116.049 19.0387 116.537 19.1907 117.129 19.1907C117.865 19.1907 118.505 19.0307 119.049 18.7107C119.609 18.3907 120.041 17.9667 120.345 17.4387C120.649 16.8947 120.801 16.2947 120.801 15.6387V12.3027C120.801 11.6627 120.561 11.1427 120.081 10.7427C119.617 10.3267 118.993 10.1187 118.209 10.1187C117.489 10.1187 116.857 10.3107 116.313 10.6947C115.785 11.0627 115.393 11.5427 115.137 12.1347L112.881 11.0067C113.121 10.3667 113.513 9.80673 114.057 9.32673C114.601 8.83073 115.233 8.44673 115.953 8.17473C116.689 7.90273 117.465 7.76673 118.281 7.76673C119.305 7.76673 120.209 7.95873 120.993 8.34273C121.793 8.72673 122.409 9.26273 122.841 9.95073C123.289 10.6227 123.513 11.4067 123.513 12.3027V21.0387H120.921V18.6867L121.473 18.7587C121.169 19.2867 120.777 19.7427 120.297 20.1267C119.833 20.5107 119.297 20.8067 118.689 21.0147C118.097 21.2227 117.433 21.3267 116.697 21.3267Z" fill="white"/>
<path d="M132.852 21.3267C131.556 21.3267 130.404 21.0307 129.396 20.4387C128.404 19.8307 127.612 19.0147 127.02 17.9907C126.444 16.9667 126.156 15.8067 126.156 14.5107C126.156 13.2307 126.444 12.0787 127.02 11.0547C127.596 10.0307 128.388 9.23073 129.396 8.65473C130.404 8.06273 131.556 7.76673 132.852 7.76673C133.732 7.76673 134.556 7.92673 135.324 8.24673C136.092 8.55073 136.756 8.97473 137.316 9.51873C137.892 10.0627 138.316 10.6947 138.588 11.4147L136.212 12.5187C135.94 11.8467 135.5 11.3107 134.892 10.9107C134.3 10.4947 133.62 10.2867 132.852 10.2867C132.116 10.2867 131.452 10.4707 130.86 10.8387C130.284 11.1907 129.828 11.6947 129.492 12.3507C129.156 12.9907 128.988 13.7187 128.988 14.5347C128.988 15.3507 129.156 16.0867 129.492 16.7427C129.828 17.3827 130.284 17.8867 130.86 18.2547C131.452 18.6227 132.116 18.8067 132.852 18.8067C133.636 18.8067 134.316 18.6067 134.892 18.2067C135.484 17.7907 135.924 17.2387 136.212 16.5507L138.588 17.6787C138.332 18.3667 137.916 18.9907 137.34 19.5507C136.78 20.0947 136.116 20.5267 135.348 20.8467C134.58 21.1667 133.748 21.3267 132.852 21.3267Z" fill="white"/>
<path d="M141.239 21.0387V2.87073H143.951V15.0387L142.895 14.7747L149.399 8.05473H152.783L147.887 13.2627L152.999 21.0387H149.879L145.319 14.1507L146.927 13.9347L143.087 18.0147L143.951 16.2147V21.0387H141.239Z" fill="white"/>
<path d="M155.264 15.7347V13.3347H164.864V15.7347H155.264Z" fill="white"/>
<path d="M173.082 21.3267C172.106 21.3267 171.25 21.1107 170.514 20.6787C169.778 20.2307 169.202 19.6147 168.786 18.8307C168.386 18.0307 168.186 17.1107 168.186 16.0707V8.05473H170.898V15.8307C170.898 16.4227 171.018 16.9427 171.258 17.3907C171.498 17.8387 171.834 18.1907 172.266 18.4467C172.698 18.6867 173.194 18.8067 173.754 18.8067C174.33 18.8067 174.834 18.6787 175.266 18.4227C175.698 18.1667 176.034 17.8067 176.274 17.3427C176.53 16.8787 176.658 16.3347 176.658 15.7107V8.05473H179.346V21.0387H176.778V18.4947L177.066 18.8307C176.762 19.6307 176.258 20.2467 175.554 20.6787C174.85 21.1107 174.026 21.3267 173.082 21.3267Z" fill="white"/>
<path d="M182.512 21.0387V8.05473H185.224V21.0387H182.512ZM182.512 6.27873V3.15873H185.224V6.27873H182.512Z" fill="white"/>
<defs>
<linearGradient id="paint0_linear_8710_94466" x1="14" y1="0" x2="31.8706" y2="29.6471" gradientUnits="userSpaceOnUse">
<stop stop-color="#4AA9FF"/>
<stop offset="1" stop-color="#004282"/>
</linearGradient>
</defs>
</svg>

