<svg width="308" height="30" viewBox="0 0 308 30" fill="none" xmlns="http://www.w3.org/2000/svg">
<rect width="28" height="28" rx="2" fill="url(#paint0_linear_10100_107219)"/>
<path d="M22 12H21V21H7V12H6V7H22V12ZM20 12H8V20H20V12ZM21 8H7V11H21V8ZM14 17H9V16H14V17ZM9 19V18H13V19H9Z" fill="white"/>
<path d="M47.8 29.28C46.824 29.28 45.92 29.12 45.088 28.8C44.256 28.48 43.536 28.032 42.928 27.456C42.336 26.896 41.904 26.232 41.632 25.464L44.56 24.36C44.752 24.968 45.128 25.456 45.688 25.824C46.264 26.208 46.968 26.4 47.8 26.4C48.44 26.4 49 26.28 49.48 26.04C49.976 25.8 50.36 25.448 50.632 24.984C50.904 24.536 51.04 23.992 51.04 23.352V20.376L51.64 21.096C51.192 21.88 50.592 22.472 49.84 22.872C49.088 23.272 48.232 23.472 47.272 23.472C46.056 23.472 44.968 23.192 44.008 22.632C43.048 22.072 42.296 21.304 41.752 20.328C41.208 19.352 40.936 18.256 40.936 17.04C40.936 15.808 41.208 14.712 41.752 13.752C42.296 12.792 43.04 12.04 43.984 11.496C44.928 10.936 46 10.656 47.2 10.656C48.176 10.656 49.032 10.864 49.768 11.28C50.52 11.68 51.144 12.264 51.64 13.032L51.208 13.824V10.944H54.184V23.352C54.184 24.488 53.904 25.504 53.344 26.4C52.8 27.296 52.048 28 51.088 28.512C50.144 29.024 49.048 29.28 47.8 29.28ZM47.656 20.568C48.328 20.568 48.912 20.424 49.408 20.136C49.92 19.832 50.32 19.416 50.608 18.888C50.896 18.36 51.04 17.752 51.04 17.064C51.04 16.392 50.888 15.792 50.584 15.264C50.296 14.72 49.896 14.296 49.384 13.992C48.888 13.688 48.312 13.536 47.656 13.536C47 13.536 46.408 13.688 45.88 13.992C45.352 14.296 44.936 14.72 44.632 15.264C44.344 15.792 44.2 16.392 44.2 17.064C44.2 17.736 44.344 18.336 44.632 18.864C44.936 19.392 45.344 19.808 45.856 20.112C46.384 20.416 46.984 20.568 47.656 20.568ZM57.0003 24V5.832H60.1443V24H57.0003ZM67.5831 24.288C66.5751 24.288 65.6951 24.064 64.9431 23.616C64.2071 23.168 63.6391 22.544 63.2391 21.744C62.8551 20.944 62.6631 20.008 62.6631 18.936V10.944H65.8071V18.672C65.8071 19.216 65.9111 19.696 66.1191 20.112C66.3431 20.512 66.6551 20.832 67.0551 21.072C67.4711 21.296 67.9351 21.408 68.4471 21.408C68.9591 21.408 69.4151 21.296 69.8151 21.072C70.2151 20.832 70.5271 20.504 70.7511 20.088C70.9751 19.672 71.0871 19.176 71.0871 18.6V10.944H74.2311V24H71.2551V21.432L71.5191 21.888C71.2151 22.688 70.7111 23.288 70.0071 23.688C69.3191 24.088 68.5111 24.288 67.5831 24.288ZM83.2257 24.288C81.8817 24.288 80.7057 23.984 79.6977 23.376C78.6897 22.768 77.9057 21.944 77.3457 20.904C76.7857 19.864 76.5057 18.712 76.5057 17.448C76.5057 16.136 76.7857 14.976 77.3457 13.968C77.9217 12.944 78.6977 12.136 79.6737 11.544C80.6657 10.952 81.7697 10.656 82.9857 10.656C84.0097 10.656 84.9057 10.824 85.6737 11.16C86.4577 11.496 87.1217 11.96 87.6657 12.552C88.2097 13.144 88.6257 13.824 88.9137 14.592C89.2017 15.344 89.3457 16.16 89.3457 17.04C89.3457 17.264 89.3297 17.496 89.2977 17.736C89.2817 17.976 89.2417 18.184 89.1777 18.36H79.0977V15.96H87.4017L85.9137 17.088C86.0577 16.352 86.0177 15.696 85.7937 15.12C85.5857 14.544 85.2337 14.088 84.7377 13.752C84.2577 13.416 83.6737 13.248 82.9857 13.248C82.3297 13.248 81.7457 13.416 81.2337 13.752C80.7217 14.072 80.3297 14.552 80.0577 15.192C79.8017 15.816 79.7057 16.576 79.7697 17.472C79.7057 18.272 79.8097 18.984 80.0817 19.608C80.3697 20.216 80.7857 20.688 81.3297 21.024C81.8897 21.36 82.5297 21.528 83.2497 21.528C83.9697 21.528 84.5777 21.376 85.0737 21.072C85.5857 20.768 85.9857 20.36 86.2737 19.848L88.8177 21.096C88.5617 21.72 88.1617 22.272 87.6177 22.752C87.0737 23.232 86.4257 23.608 85.6737 23.88C84.9377 24.152 84.1217 24.288 83.2257 24.288ZM96.577 24.288C95.185 24.288 93.969 23.96 92.929 23.304C91.905 22.632 91.201 21.728 90.817 20.592L93.169 19.464C93.505 20.2 93.969 20.776 94.561 21.192C95.169 21.608 95.841 21.816 96.577 21.816C97.153 21.816 97.609 21.688 97.945 21.432C98.281 21.176 98.449 20.84 98.449 20.424C98.449 20.168 98.377 19.96 98.233 19.8C98.105 19.624 97.921 19.48 97.681 19.368C97.457 19.24 97.209 19.136 96.937 19.056L94.801 18.456C93.697 18.136 92.857 17.648 92.281 16.992C91.721 16.336 91.441 15.56 91.441 14.664C91.441 13.864 91.641 13.168 92.041 12.576C92.457 11.968 93.025 11.496 93.745 11.16C94.481 10.824 95.321 10.656 96.265 10.656C97.497 10.656 98.585 10.952 99.529 11.544C100.473 12.136 101.145 12.968 101.545 14.04L99.145 15.168C98.921 14.576 98.545 14.104 98.017 13.752C97.489 13.4 96.897 13.224 96.241 13.224C95.713 13.224 95.297 13.344 94.993 13.584C94.689 13.824 94.537 14.136 94.537 14.52C94.537 14.76 94.601 14.968 94.729 15.144C94.857 15.32 95.033 15.464 95.257 15.576C95.497 15.688 95.769 15.792 96.073 15.888L98.161 16.512C99.233 16.832 100.057 17.312 100.633 17.952C101.225 18.592 101.521 19.376 101.521 20.304C101.521 21.088 101.313 21.784 100.897 22.392C100.481 22.984 99.905 23.448 99.169 23.784C98.433 24.12 97.569 24.288 96.577 24.288ZM109.769 24.144C108.297 24.144 107.153 23.744 106.337 22.944C105.537 22.128 105.137 20.984 105.137 19.512V13.752H102.881V10.944H103.121C103.761 10.944 104.257 10.776 104.609 10.44C104.961 10.104 105.137 9.616 105.137 8.976V7.968H108.281V10.944H111.281V13.752H108.281V19.344C108.281 19.776 108.353 20.144 108.497 20.448C108.657 20.752 108.897 20.984 109.217 21.144C109.553 21.304 109.977 21.384 110.489 21.384C110.601 21.384 110.729 21.376 110.873 21.36C111.033 21.344 111.185 21.328 111.329 21.312V24C111.105 24.032 110.849 24.064 110.561 24.096C110.273 24.128 110.009 24.144 109.769 24.144ZM117.524 24.288C116.612 24.288 115.82 24.136 115.148 23.832C114.476 23.528 113.956 23.096 113.588 22.536C113.22 21.96 113.036 21.296 113.036 20.544C113.036 19.824 113.196 19.184 113.516 18.624C113.836 18.048 114.332 17.568 115.004 17.184C115.676 16.8 116.524 16.528 117.548 16.368L121.82 15.672V18.072L118.148 18.696C117.524 18.808 117.06 19.008 116.756 19.296C116.452 19.584 116.3 19.96 116.3 20.424C116.3 20.872 116.468 21.232 116.804 21.504C117.156 21.76 117.588 21.888 118.1 21.888C118.756 21.888 119.332 21.752 119.828 21.48C120.34 21.192 120.732 20.8 121.004 20.304C121.292 19.808 121.436 19.264 121.436 18.672V15.312C121.436 14.752 121.212 14.288 120.764 13.92C120.332 13.536 119.756 13.344 119.036 13.344C118.364 13.344 117.764 13.528 117.236 13.896C116.724 14.248 116.348 14.72 116.108 15.312L113.54 14.064C113.796 13.376 114.196 12.784 114.74 12.288C115.3 11.776 115.956 11.376 116.708 11.088C117.46 10.8 118.276 10.656 119.156 10.656C120.228 10.656 121.172 10.856 121.988 11.256C122.804 11.64 123.436 12.184 123.884 12.888C124.348 13.576 124.58 14.384 124.58 15.312V24H121.604V21.768L122.276 21.72C121.94 22.28 121.54 22.752 121.076 23.136C120.612 23.504 120.084 23.792 119.492 24C118.9 24.192 118.244 24.288 117.524 24.288ZM133.654 24.288C132.358 24.288 131.19 23.992 130.15 23.4C129.126 22.792 128.318 21.976 127.726 20.952C127.134 19.912 126.838 18.744 126.838 17.448C126.838 16.152 127.134 14.992 127.726 13.968C128.318 12.944 129.126 12.136 130.15 11.544C131.19 10.952 132.358 10.656 133.654 10.656C134.582 10.656 135.446 10.824 136.246 11.16C137.046 11.48 137.734 11.928 138.31 12.504C138.902 13.064 139.326 13.736 139.582 14.52L136.822 15.72C136.582 15.064 136.174 14.536 135.598 14.136C135.038 13.736 134.39 13.536 133.654 13.536C132.966 13.536 132.35 13.704 131.806 14.04C131.278 14.376 130.862 14.84 130.558 15.432C130.254 16.024 130.102 16.704 130.102 17.472C130.102 18.24 130.254 18.92 130.558 19.512C130.862 20.104 131.278 20.568 131.806 20.904C132.35 21.24 132.966 21.408 133.654 21.408C134.406 21.408 135.062 21.208 135.622 20.808C136.182 20.408 136.582 19.872 136.822 19.2L139.582 20.448C139.326 21.184 138.91 21.848 138.334 22.44C137.758 23.016 137.07 23.472 136.27 23.808C135.47 24.128 134.598 24.288 133.654 24.288ZM141.848 24V5.832H144.992V17.736L143.792 17.376L149.936 10.944H153.848L149.024 16.2L153.944 24H150.344L146.072 17.232L147.944 16.848L144.008 21.072L144.992 19.152V24H141.848ZM156.227 18.864V16.104H166.427V18.864H156.227ZM174.506 24.288C173.498 24.288 172.618 24.064 171.866 23.616C171.13 23.168 170.562 22.544 170.162 21.744C169.778 20.944 169.586 20.008 169.586 18.936V10.944H172.73V18.672C172.73 19.216 172.834 19.696 173.042 20.112C173.266 20.512 173.578 20.832 173.978 21.072C174.394 21.296 174.858 21.408 175.37 21.408C175.882 21.408 176.338 21.296 176.738 21.072C177.138 20.832 177.45 20.504 177.674 20.088C177.898 19.672 178.01 19.176 178.01 18.6V10.944H181.154V24H178.178V21.432L178.442 21.888C178.138 22.688 177.634 23.288 176.93 23.688C176.242 24.088 175.434 24.288 174.506 24.288ZM183.956 24V10.944H187.1V24H183.956ZM183.956 9.48V6.12H187.1V9.48H183.956ZM200.677 24.288C199.541 24.288 198.485 24.08 197.509 23.664C196.549 23.248 195.717 22.672 195.013 21.936C194.325 21.184 193.821 20.312 193.501 19.32L196.213 18.144C196.645 19.168 197.269 19.976 198.085 20.568C198.901 21.144 199.821 21.432 200.845 21.432C201.421 21.432 201.917 21.344 202.333 21.168C202.765 20.976 203.093 20.72 203.317 20.4C203.557 20.08 203.677 19.696 203.677 19.248C203.677 18.72 203.517 18.288 203.197 17.952C202.893 17.6 202.429 17.328 201.805 17.136L198.373 16.032C196.981 15.6 195.933 14.952 195.229 14.088C194.525 13.224 194.173 12.208 194.173 11.04C194.173 10.016 194.421 9.112 194.917 8.328C195.429 7.544 196.133 6.936 197.029 6.504C197.941 6.056 198.981 5.832 200.149 5.832C201.221 5.832 202.205 6.024 203.101 6.408C203.997 6.776 204.765 7.296 205.405 7.968C206.061 8.624 206.549 9.4 206.869 10.296L204.181 11.496C203.829 10.6 203.301 9.912 202.597 9.432C201.893 8.936 201.077 8.688 200.149 8.688C199.605 8.688 199.125 8.784 198.709 8.976C198.293 9.152 197.965 9.408 197.725 9.744C197.501 10.064 197.389 10.448 197.389 10.896C197.389 11.392 197.549 11.832 197.869 12.216C198.189 12.584 198.677 12.872 199.333 13.08L202.621 14.112C204.045 14.576 205.109 15.216 205.813 16.032C206.533 16.848 206.893 17.856 206.893 19.056C206.893 20.08 206.629 20.984 206.101 21.768C205.573 22.552 204.845 23.168 203.917 23.616C202.989 24.064 201.909 24.288 200.677 24.288ZM215.4 24.144C213.928 24.144 212.784 23.744 211.968 22.944C211.168 22.128 210.768 20.984 210.768 19.512V13.752H208.512V10.944H208.752C209.392 10.944 209.888 10.776 210.24 10.44C210.592 10.104 210.768 9.616 210.768 8.976V7.968H213.912V10.944H216.912V13.752H213.912V19.344C213.912 19.776 213.984 20.144 214.128 20.448C214.288 20.752 214.528 20.984 214.848 21.144C215.184 21.304 215.608 21.384 216.12 21.384C216.232 21.384 216.36 21.376 216.504 21.36C216.664 21.344 216.816 21.328 216.96 21.312V24C216.736 24.032 216.48 24.064 216.192 24.096C215.904 24.128 215.64 24.144 215.4 24.144ZM223.155 24.288C222.243 24.288 221.451 24.136 220.779 23.832C220.107 23.528 219.587 23.096 219.219 22.536C218.851 21.96 218.667 21.296 218.667 20.544C218.667 19.824 218.827 19.184 219.147 18.624C219.467 18.048 219.963 17.568 220.635 17.184C221.307 16.8 222.155 16.528 223.179 16.368L227.451 15.672V18.072L223.779 18.696C223.155 18.808 222.691 19.008 222.387 19.296C222.083 19.584 221.931 19.96 221.931 20.424C221.931 20.872 222.099 21.232 222.435 21.504C222.787 21.76 223.219 21.888 223.731 21.888C224.387 21.888 224.963 21.752 225.459 21.48C225.971 21.192 226.363 20.8 226.635 20.304C226.923 19.808 227.067 19.264 227.067 18.672V15.312C227.067 14.752 226.843 14.288 226.395 13.92C225.963 13.536 225.387 13.344 224.667 13.344C223.995 13.344 223.395 13.528 222.867 13.896C222.355 14.248 221.979 14.72 221.739 15.312L219.171 14.064C219.427 13.376 219.827 12.784 220.371 12.288C220.931 11.776 221.587 11.376 222.339 11.088C223.091 10.8 223.907 10.656 224.787 10.656C225.859 10.656 226.803 10.856 227.619 11.256C228.435 11.64 229.067 12.184 229.515 12.888C229.979 13.576 230.211 14.384 230.211 15.312V24H227.235V21.768L227.907 21.72C227.571 22.28 227.171 22.752 226.707 23.136C226.243 23.504 225.715 23.792 225.123 24C224.531 24.192 223.875 24.288 223.155 24.288ZM232.997 24V10.944H235.949V13.848L235.709 13.416C236.013 12.44 236.485 11.76 237.125 11.376C237.781 10.992 238.565 10.8 239.477 10.8H240.245V13.584H239.117C238.221 13.584 237.501 13.864 236.957 14.424C236.413 14.968 236.141 15.736 236.141 16.728V24H232.997ZM248.157 24.144C246.685 24.144 245.541 23.744 244.725 22.944C243.925 22.128 243.525 20.984 243.525 19.512V13.752H241.269V10.944H241.509C242.149 10.944 242.645 10.776 242.997 10.44C243.349 10.104 243.525 9.616 243.525 8.976V7.968H246.669V10.944H249.669V13.752H246.669V19.344C246.669 19.776 246.741 20.144 246.885 20.448C247.045 20.752 247.285 20.984 247.605 21.144C247.941 21.304 248.365 21.384 248.877 21.384C248.989 21.384 249.117 21.376 249.261 21.36C249.421 21.344 249.573 21.328 249.717 21.312V24C249.493 24.032 249.237 24.064 248.949 24.096C248.661 24.128 248.397 24.144 248.157 24.144ZM258.074 24.288C256.73 24.288 255.554 23.984 254.546 23.376C253.538 22.768 252.754 21.944 252.194 20.904C251.634 19.864 251.354 18.712 251.354 17.448C251.354 16.136 251.634 14.976 252.194 13.968C252.77 12.944 253.546 12.136 254.522 11.544C255.514 10.952 256.618 10.656 257.834 10.656C258.858 10.656 259.754 10.824 260.522 11.16C261.306 11.496 261.97 11.96 262.514 12.552C263.058 13.144 263.474 13.824 263.762 14.592C264.05 15.344 264.194 16.16 264.194 17.04C264.194 17.264 264.178 17.496 264.146 17.736C264.13 17.976 264.09 18.184 264.026 18.36H253.946V15.96H262.25L260.762 17.088C260.906 16.352 260.866 15.696 260.642 15.12C260.434 14.544 260.082 14.088 259.586 13.752C259.106 13.416 258.522 13.248 257.834 13.248C257.178 13.248 256.594 13.416 256.082 13.752C255.57 14.072 255.178 14.552 254.906 15.192C254.65 15.816 254.554 16.576 254.618 17.472C254.554 18.272 254.658 18.984 254.93 19.608C255.218 20.216 255.634 20.688 256.178 21.024C256.738 21.36 257.378 21.528 258.098 21.528C258.818 21.528 259.426 21.376 259.922 21.072C260.434 20.768 260.834 20.36 261.122 19.848L263.666 21.096C263.41 21.72 263.01 22.272 262.466 22.752C261.922 23.232 261.274 23.608 260.522 23.88C259.786 24.152 258.97 24.288 258.074 24.288ZM266.457 24V10.944H269.409V13.848L269.169 13.416C269.473 12.44 269.945 11.76 270.585 11.376C271.241 10.992 272.025 10.8 272.937 10.8H273.705V13.584H272.577C271.681 13.584 270.961 13.864 270.417 14.424C269.873 14.968 269.601 15.736 269.601 16.728V24H266.457ZM279.46 24V5.832H282.604V17.736L281.404 17.376L287.548 10.944H291.46L286.636 16.2L291.556 24H287.956L283.684 17.232L285.556 16.848L281.62 21.072L282.604 19.152V24H279.46ZM293.191 24V10.944H296.335V24H293.191ZM293.191 9.48V6.12H296.335V9.48H293.191ZM305.07 24.144C303.598 24.144 302.454 23.744 301.638 22.944C300.838 22.128 300.438 20.984 300.438 19.512V13.752H298.182V10.944H298.422C299.062 10.944 299.558 10.776 299.91 10.44C300.262 10.104 300.438 9.616 300.438 8.976V7.968H303.582V10.944H306.582V13.752H303.582V19.344C303.582 19.776 303.654 20.144 303.798 20.448C303.958 20.752 304.198 20.984 304.518 21.144C304.854 21.304 305.278 21.384 305.79 21.384C305.902 21.384 306.03 21.376 306.174 21.36C306.334 21.344 306.486 21.328 306.63 21.312V24C306.406 24.032 306.15 24.064 305.862 24.096C305.574 24.128 305.31 24.144 305.07 24.144Z" fill="white"/>
<defs>
<linearGradient id="paint0_linear_10100_107219" x1="14" y1="0" x2="31.8706" y2="29.6471" gradientUnits="userSpaceOnUse">
<stop stop-color="#7856DB"/>
<stop offset="1" stop-color="#2536CF"/>
</linearGradient>
</defs>
</svg>
