<svg width="64" height="65" viewBox="0 0 64 65" fill="none" xmlns="http://www.w3.org/2000/svg">
<path d="M52 0.271484H12C5.37258 0.271484 0 5.64407 0 12.2715V52.2715C0 58.8989 5.37258 64.2715 12 64.2715H52C58.6274 64.2715 64 58.8989 64 52.2715V12.2715C64 5.64407 58.6274 0.271484 52 0.271484Z" fill="#4F46E5"/>
<path d="M39.71 24.1441C41.4187 24.1441 42.804 22.7588 42.804 21.0501C42.804 19.3413 41.4187 17.9561 39.71 17.9561C38.0012 17.9561 36.616 19.3413 36.616 21.0501C36.616 22.7588 38.0012 24.1441 39.71 24.1441Z" fill="white"/>
<path d="M35.516 39.6845H32.602C32.5868 40.5458 32.3175 41.3834 31.8279 42.0922C31.3384 42.801 30.6503 43.3493 29.8502 43.6684C29.05 43.9876 28.1734 44.0632 27.3304 43.8858C26.4875 43.7084 25.7157 43.286 25.112 42.6715C24.5082 42.057 24.0995 41.2778 23.9371 40.4319C23.7746 39.5859 23.8657 38.7108 24.1989 37.9164C24.5321 37.122 25.0926 36.4438 25.8099 35.9668C26.5273 35.4898 27.3695 35.2354 28.231 35.2355V32.2705C26.2903 32.3095 24.4424 33.1078 23.0837 34.4941C21.7251 35.8803 20.9641 37.744 20.9641 39.685C20.9641 41.626 21.7251 43.4896 23.0837 44.8759C24.4424 46.2621 26.2903 47.0604 28.231 47.0995C30.18 47.0812 32.0421 46.29 33.4081 44.8997C34.7741 43.5093 35.5322 41.6335 35.516 39.6845ZM39.887 34.4945H37.177L39.611 29.0555C39.8178 28.6034 39.9077 28.1066 39.8724 27.6107C39.837 27.1148 39.6776 26.6358 39.4088 26.2176C39.14 25.7994 38.7703 25.4555 38.3339 25.2175C37.8974 24.9795 37.4081 24.855 36.911 24.8555H29.339C28.7611 24.8561 28.1959 25.0247 27.7121 25.3407C27.2283 25.6568 26.8468 26.1066 26.614 26.6355L25.638 29.3045L28.438 30.0905L29.385 27.8215H32.605L29.939 33.9015C29.7365 34.3599 29.6496 34.8611 29.6859 35.3609C29.7221 35.8608 29.8805 36.3441 30.147 36.7685C30.4135 37.193 30.78 37.5456 31.2145 37.7954C31.649 38.0452 32.1381 38.1846 32.639 38.2015H39.895V45.6165H42.809V37.4605C42.8135 36.6802 42.5086 35.93 41.9611 35.3741C41.4137 34.8182 40.6682 34.5019 39.888 34.4945H39.887Z" fill="white"/>
</svg>
