<svg width="64" height="65" viewBox="0 0 64 65" fill="none" xmlns="http://www.w3.org/2000/svg">
<path d="M52 0.732422H12C5.37258 0.732422 0 6.105 0 12.7324V52.7324C0 59.3598 5.37258 64.7324 12 64.7324H52C58.6274 64.7324 64 59.3598 64 52.7324V12.7324C64 6.105 58.6274 0.732422 52 0.732422Z" fill="#4F46E5"/>
<path d="M45.693 34.61C45.5454 34.5757 45.392 34.5747 45.244 34.607C45.0959 34.6394 44.9569 34.7043 44.837 34.797C43.8563 35.6358 42.7346 36.294 41.524 36.741C40.3234 37.1969 39.0483 37.4252 37.764 37.414C36.323 37.413 34.8964 37.1276 33.5659 36.5744C32.2353 36.0211 31.027 35.2108 30.0101 34.1898C28.9932 33.1688 28.1877 31.9573 27.6398 30.6245C27.0919 29.2917 26.8123 27.864 26.817 26.423C26.8225 25.1901 27.025 23.966 27.417 22.797C27.8098 21.6245 28.4157 20.5346 29.204 19.582C29.2826 19.4836 29.341 19.3706 29.3759 19.2496C29.4108 19.1286 29.4214 19.0019 29.4072 18.8767C29.393 18.7516 29.3542 18.6305 29.2931 18.5204C29.232 18.4102 29.1497 18.3133 29.051 18.235C28.9312 18.1423 28.7922 18.0774 28.6441 18.045C28.4961 18.0127 28.3426 18.0137 28.195 18.048C25.0584 18.9159 22.2884 20.779 20.302 23.357C18.1389 26.2099 17.0793 29.7482 17.3181 33.3205C17.557 36.8928 19.0783 40.2585 21.602 42.798C22.9644 44.177 24.5879 45.2708 26.3776 46.0154C28.1674 46.7601 30.0876 47.1407 32.026 47.135C35.3463 47.1298 38.5678 46.0047 41.1695 43.9418C43.7712 41.8789 45.601 38.9987 46.363 35.767C46.4006 35.647 46.4129 35.5206 46.399 35.3956C46.3852 35.2707 46.3455 35.15 46.2825 35.0412C46.2195 34.9324 46.1345 34.8379 46.0331 34.7636C45.9316 34.6894 45.8158 34.6371 45.693 34.61Z" fill="white"/>
</svg>
