<svg width="64" height="65" viewBox="0 0 64 65" fill="none" xmlns="http://www.w3.org/2000/svg">
<path d="M52 0.271484H12C5.37258 0.271484 0 5.64407 0 12.2715V52.2715C0 58.8989 5.37258 64.2715 12 64.2715H52C58.6274 64.2715 64 58.8989 64 52.2715V12.2715C64 5.64407 58.6274 0.271484 52 0.271484Z" fill="#4F46E5"/>
<path d="M45.802 26.198H18.441C18.2357 26.198 18.0388 26.1165 17.8937 25.9713C17.7485 25.8262 17.667 25.6293 17.667 25.424V23.1C17.667 22.2779 17.9936 21.4894 18.575 20.908C19.1563 20.3267 19.9448 20 20.767 20H23.867V16.647C23.867 16.4426 23.9478 16.2465 24.0919 16.1015C24.236 15.9565 24.4316 15.8744 24.636 15.873H27.218C27.4233 15.873 27.6201 15.9546 27.7653 16.0997C27.9104 16.2449 27.992 16.4418 27.992 16.647V20.003H36.252V16.647C36.252 16.4418 36.3335 16.2449 36.4787 16.0997C36.6238 15.9546 36.8207 15.873 37.026 15.873H39.607C39.8123 15.873 40.0091 15.9546 40.1543 16.0997C40.2994 16.2449 40.381 16.4418 40.381 16.647V20.003H43.481C44.3032 20.003 45.0917 20.3297 45.673 20.911C46.2544 21.4924 46.581 22.2809 46.581 23.103V25.424C46.581 25.5261 46.5608 25.6272 46.5216 25.7214C46.4824 25.8156 46.4249 25.9012 46.3525 25.9731C46.2801 26.0451 46.1942 26.102 46.0997 26.1406C46.0052 26.1792 45.9041 26.1987 45.802 26.198ZM18.441 28.263H45.802C45.9036 28.263 46.0043 28.2831 46.0982 28.322C46.1921 28.3609 46.2774 28.4179 46.3493 28.4897C46.4212 28.5616 46.4782 28.6469 46.5171 28.7408C46.556 28.8348 46.576 28.9354 46.576 29.037V45.815C46.576 46.6372 46.2494 47.4257 45.668 48.0071C45.0867 48.5884 44.2982 48.915 43.476 48.915H20.767C19.9448 48.915 19.1563 48.5884 18.575 48.0071C17.9936 47.4257 17.667 46.6372 17.667 45.815V29.037C17.667 28.8318 17.7485 28.6349 17.8937 28.4897C18.0388 28.3446 18.2357 28.263 18.441 28.263ZM39.949 34.455L38.131 32.622C38.059 32.5494 37.9734 32.4917 37.879 32.4523C37.7846 32.4129 37.6833 32.3926 37.581 32.3926C37.4787 32.3926 37.3774 32.4129 37.283 32.4523C37.1886 32.4917 37.103 32.5494 37.031 32.622L30.188 39.41L27.227 36.414C27.155 36.3414 27.0694 36.2837 26.975 36.2443C26.8806 36.2049 26.7793 36.1846 26.677 36.1846C26.5747 36.1846 26.4734 36.2049 26.379 36.2443C26.2846 36.2837 26.199 36.3414 26.127 36.414L24.299 38.227C24.2263 38.299 24.1686 38.3847 24.1292 38.4791C24.0899 38.5735 24.0696 38.6748 24.0696 38.777C24.0696 38.8793 24.0899 38.9806 24.1292 39.075C24.1686 39.1694 24.2263 39.2551 24.299 39.327L29.629 44.7C29.701 44.7727 29.7866 44.8304 29.881 44.8698C29.9754 44.9092 30.0767 44.9295 30.179 44.9295C30.2813 44.9295 30.3826 44.9092 30.477 44.8698C30.5714 44.8304 30.657 44.7727 30.729 44.7L39.954 35.549C40.0267 35.4771 40.0844 35.3914 40.1238 35.297C40.1631 35.2026 40.1834 35.1013 40.1834 34.999C40.1834 34.8968 40.1631 34.7955 40.1238 34.7011C40.0844 34.6067 40.0267 34.521 39.954 34.449L39.949 34.455Z" fill="white"/>
</svg>
