<svg width="20" height="20" viewBox="0 0 20 20" fill="none" xmlns="http://www.w3.org/2000/svg">
<g clipPath="url(#clip0_13411_166999)">
<path d="M16.3127 5.34283C16.1871 5.34283 16.0666 5.29292 15.9777 5.20407C15.8889 5.11523 15.839 4.99472 15.839 4.86908V4.15845H15.1283C15.0027 4.15845 14.8822 4.10853 14.7933 4.01969C14.7045 3.93084 14.6546 3.81034 14.6546 3.68469C14.6546 3.55904 14.7045 3.43854 14.7933 3.3497C14.8822 3.26085 15.0027 3.21094 15.1283 3.21094H16.3127C16.4384 3.21094 16.5589 3.26085 16.6477 3.3497C16.7366 3.43854 16.7865 3.55904 16.7865 3.68469V4.86908C16.7865 4.99472 16.7366 5.11523 16.6477 5.20407C16.5589 5.29292 16.4384 5.34283 16.3127 5.34283ZM13.0772 4.15845H11.0261C10.9005 4.15845 10.78 4.10853 10.6911 4.01969C10.6023 3.93084 10.5523 3.81034 10.5523 3.68469C10.5523 3.55904 10.6023 3.43854 10.6911 3.3497C10.78 3.26085 10.9005 3.21094 11.0261 3.21094H13.0772C13.2029 3.21094 13.3234 3.26085 13.4122 3.3497C13.5011 3.43854 13.551 3.55904 13.551 3.68469C13.551 3.81034 13.5011 3.93084 13.4122 4.01969C13.3234 4.10853 13.2029 4.15845 13.0772 4.15845ZM8.97498 4.15845H6.92387C6.79822 4.15845 6.67772 4.10853 6.58887 4.01969C6.50002 3.93084 6.45011 3.81034 6.45011 3.68469C6.45011 3.55904 6.50002 3.43854 6.58887 3.3497C6.67772 3.26085 6.79822 3.21094 6.92387 3.21094H8.97498C9.10063 3.21094 9.22113 3.26085 9.30998 3.3497C9.39882 3.43854 9.44874 3.55904 9.44874 3.68469C9.44874 3.81034 9.39882 3.93084 9.30998 4.01969C9.22113 4.10853 9.10063 4.15845 8.97498 4.15845ZM3.6886 5.34283C3.56295 5.34283 3.44245 5.29292 3.3536 5.20407C3.26476 5.11523 3.21484 4.99472 3.21484 4.86908V3.68469C3.21484 3.55904 3.26476 3.43854 3.3536 3.3497C3.44245 3.26085 3.56295 3.21094 3.6886 3.21094H4.87298C4.99863 3.21094 5.11913 3.26085 5.20798 3.3497C5.29682 3.43854 5.34674 3.55904 5.34674 3.68469C5.34674 3.81034 5.29682 3.93084 5.20798 4.01969C5.11913 4.10853 4.99863 4.15845 4.87298 4.15845H4.16235V4.86908C4.16235 4.99472 4.11244 5.11523 4.02359 5.20407C3.93475 5.29292 3.81425 5.34283 3.6886 5.34283ZM3.6886 13.5471C3.56295 13.5471 3.44245 13.4972 3.3536 13.4083C3.26476 13.3195 3.21484 13.199 3.21484 13.0733V11.0222C3.21484 10.8965 3.26476 10.776 3.3536 10.6872C3.44245 10.5984 3.56295 10.5484 3.6886 10.5484C3.81425 10.5484 3.93475 10.5984 4.02359 10.6872C4.11244 10.776 4.16235 10.8965 4.16235 11.0222V13.0733C4.16235 13.199 4.11244 13.3195 4.02359 13.4083C3.93475 13.4972 3.81425 13.5471 3.6886 13.5471ZM3.6886 9.44483C3.56295 9.44483 3.44245 9.39492 3.3536 9.30607C3.26476 9.21723 3.21484 9.09672 3.21484 8.97108V6.91996C3.21484 6.79431 3.26476 6.67381 3.3536 6.58496C3.44245 6.49612 3.56295 6.44621 3.6886 6.44621C3.81425 6.44621 3.93475 6.49612 4.02359 6.58496C4.11244 6.67381 4.16235 6.79431 4.16235 6.91996V8.97108C4.16235 9.09672 4.11244 9.21723 4.02359 9.30607C3.93475 9.39492 3.81425 9.44483 3.6886 9.44483ZM4.87298 16.7826H3.6886C3.56295 16.7826 3.44245 16.7327 3.3536 16.6438C3.26476 16.555 3.21484 16.4345 3.21484 16.3088V15.1244C3.21484 14.9988 3.26476 14.8783 3.3536 14.7894C3.44245 14.7006 3.56295 14.6507 3.6886 14.6507C3.81425 14.6507 3.93475 14.7006 4.02359 14.7894C4.11244 14.8783 4.16235 14.9988 4.16235 15.1244V15.8351H4.87298C4.99863 15.8351 5.11913 15.885 5.20798 15.9738C5.29682 16.0627 5.34674 16.1832 5.34674 16.3088C5.34674 16.4345 5.29682 16.555 5.20798 16.6438C5.11913 16.7327 4.99863 16.7826 4.87298 16.7826ZM13.0772 16.7826H11.0261C10.9005 16.7826 10.78 16.7327 10.6911 16.6438C10.6023 16.555 10.5523 16.4345 10.5523 16.3088C10.5523 16.1832 10.6023 16.0627 10.6911 15.9738C10.78 15.885 10.9005 15.8351 11.0261 15.8351H13.0772C13.2029 15.8351 13.3234 15.885 13.4122 15.9738C13.5011 16.0627 13.551 16.1832 13.551 16.3088C13.551 16.4345 13.5011 16.555 13.4122 16.6438C13.3234 16.7327 13.2029 16.7826 13.0772 16.7826ZM8.97498 16.7826H6.92387C6.79822 16.7826 6.67772 16.7327 6.58887 16.6438C6.50002 16.555 6.45011 16.4345 6.45011 16.3088C6.45011 16.1832 6.50002 16.0627 6.58887 15.9738C6.67772 15.885 6.79822 15.8351 6.92387 15.8351H8.97498C9.10063 15.8351 9.22113 15.885 9.30998 15.9738C9.39882 16.0627 9.44874 16.1832 9.44874 16.3088C9.44874 16.4345 9.39882 16.555 9.30998 16.6438C9.22113 16.7327 9.10063 16.7826 8.97498 16.7826ZM16.3127 16.7826H15.1283C15.0027 16.7826 14.8822 16.7327 14.7933 16.6438C14.7045 16.555 14.6546 16.4345 14.6546 16.3088C14.6546 16.1832 14.7045 16.0627 14.7933 15.9738C14.8822 15.885 15.0027 15.8351 15.1283 15.8351H15.839V15.1244C15.839 14.9988 15.8889 14.8783 15.9777 14.7894C16.0666 14.7006 16.1871 14.6507 16.3127 14.6507C16.4384 14.6507 16.5589 14.7006 16.6477 14.7894C16.7366 14.8783 16.7865 14.9988 16.7865 15.1244V16.3088C16.7865 16.4345 16.7366 16.555 16.6477 16.6438C16.5589 16.7327 16.4384 16.7826 16.3127 16.7826ZM16.3127 13.5471C16.1871 13.5471 16.0666 13.4972 15.9777 13.4083C15.8889 13.3195 15.839 13.199 15.839 13.0733V11.0222C15.839 10.8965 15.8889 10.776 15.9777 10.6872C16.0666 10.5984 16.1871 10.5484 16.3127 10.5484C16.4384 10.5484 16.5589 10.5984 16.6477 10.6872C16.7366 10.776 16.7865 10.8965 16.7865 11.0222V13.0733C16.7865 13.199 16.7366 13.3195 16.6477 13.4083C16.5589 13.4972 16.4384 13.5471 16.3127 13.5471ZM16.3127 9.44483C16.1871 9.44483 16.0666 9.39492 15.9777 9.30607C15.8889 9.21723 15.839 9.09672 15.839 8.97108V6.91996C15.839 6.79431 15.8889 6.67381 15.9777 6.58496C16.0666 6.49612 16.1871 6.44621 16.3127 6.44621C16.4384 6.44621 16.5589 6.49612 16.6477 6.58496C16.7366 6.67381 16.7865 6.79431 16.7865 6.91996V8.97108C16.7865 9.09672 16.7366 9.21723 16.6477 9.30607C16.5589 9.39492 16.4384 9.44483 16.3127 9.44483Z" fill="#FAFAFA"/>
<path d="M19.5263 20H0.473754C0.348107 20 0.227605 19.9501 0.138759 19.8612C0.0499132 19.7724 0 19.6519 0 19.5263V0.473754C0 0.348107 0.0499132 0.227605 0.138759 0.138759C0.227605 0.0499132 0.348107 0 0.473754 0H19.5263C19.6519 0 19.7724 0.0499132 19.8612 0.138759C19.9501 0.227605 20 0.348107 20 0.473754V19.5263C20 19.6519 19.9501 19.7724 19.8612 19.8612C19.7724 19.9501 19.6519 20 19.5263 20ZM0.947508 19.0525H19.0525V0.947508H0.947508V19.0525Z" fill="#FAFAFA"/>
</g>
<defs>
<clipPath id="clip0_13411_166999">
<rect width="20" height="20" fill="white"/>
</clipPath>
</defs>
</svg>
