<svg width="20" height="22" viewBox="0 0 20 22" fill="none" xmlns="http://www.w3.org/2000/svg">
<path d="M10.073 21.012C7.27441 21.012 4.89591 20.0328 2.93755 18.0744C0.979182 16.1152 0 13.7367 0 10.9389C0 8.38878 0.831025 6.17691 2.49308 4.30332C4.1568 2.43142 6.21506 1.32632 8.66784 0.988037C8.73584 0.988037 8.80257 0.990555 8.86804 0.995592C8.93352 1.00063 8.99773 1.00776 9.06069 1.017C8.63594 1.60963 8.29976 2.26857 8.05213 2.99383C7.8045 3.71993 7.68069 4.48002 7.68069 5.27411C7.68069 7.51284 8.46386 9.41539 10.0302 10.9817C11.5974 12.5489 13.5004 13.3325 15.7391 13.3325C16.5382 13.3325 17.2992 13.2087 18.0219 12.9611C18.7455 12.7135 19.3952 12.3773 19.971 11.9525C19.9811 12.0155 19.9887 12.0797 19.9937 12.1452C19.9979 12.2107 20 12.277 20 12.3441C19.6777 14.7977 18.5801 16.856 16.7074 18.5189C14.8346 20.1818 12.624 21.0128 10.073 21.012Z" fill="#FAFAFA"/>
</svg>
