<svg width="20" height="20" viewBox="0 0 20 20" fill="none" xmlns="http://www.w3.org/2000/svg">
<path d="M14.1 5.71429C13.9014 4.73618 13.0367 4 12 4C10.9633 4 10.0986 4.73618 9.90001 5.71429H3.42857C3.19188 5.71429 3 5.90616 3 6.14286C3 6.37955 3.19188 6.57143 3.42857 6.57143H9.90001C10.0986 7.54953 10.9633 8.28571 12 8.28571C13.054 8.28571 13.9303 7.52471 14.1094 6.52218C14.1064 6.53866 14.1033 6.55508 14.1 6.57143H16.2857C16.5224 6.57143 16.7143 6.37955 16.7143 6.14286C16.7143 5.90616 16.5224 5.71429 16.2857 5.71429H14.1ZM12 7.42857C11.2899 7.42857 10.7143 6.85294 10.7143 6.14286C10.7143 5.43278 11.2899 4.85714 12 4.85714C12.7101 4.85714 13.2857 5.43278 13.2857 6.14286C13.2857 6.85294 12.7101 7.42857 12 7.42857ZM9.81428 13.4286C9.61573 12.4505 8.75098 11.7143 7.71429 11.7143C6.67759 11.7143 5.81284 12.4505 5.61429 13.4286H3.42857C3.19188 13.4286 3 13.6205 3 13.8571C3 14.0938 3.19188 14.2857 3.42857 14.2857H5.61429C5.81284 15.2638 6.67759 16 7.71429 16C8.75098 16 9.61573 15.2638 9.81428 14.2857H16.2857C16.5224 14.2857 16.7143 14.0938 16.7143 13.8571C16.7143 13.6205 16.5224 13.4286 16.2857 13.4286H9.81428ZM7.71429 15.1429C7.00421 15.1429 6.42857 14.5672 6.42857 13.8571C6.42857 13.1471 7.00421 12.5714 7.71429 12.5714C8.42437 12.5714 9 13.1471 9 13.8571C9 14.5672 8.42437 15.1429 7.71429 15.1429Z" fill="#FAFAFA"/>
</svg>
