<svg width="20" height="20" viewBox="0 0 20 20" fill="none" xmlns="http://www.w3.org/2000/svg">
<g clipPath="url(#clip0_13411_167089)">
<path d="M16.4286 12.8571H14.2857V7.14286H16.4286C17.1349 7.14286 17.8254 6.9334 18.4127 6.54096C19.0001 6.14853 19.4578 5.59075 19.7281 4.93816C19.9985 4.28556 20.0692 3.56747 19.9314 2.87468C19.7936 2.18189 19.4534 1.54552 18.9539 1.04605C18.4545 0.546575 17.8181 0.20643 17.1253 0.0686256C16.4325 -0.0691787 15.7144 0.00154744 15.0618 0.27186C14.4092 0.542173 13.8515 0.999932 13.459 1.58725C13.0666 2.17457 12.8571 2.86507 12.8571 3.57143V5.71429H7.14286V3.57143C7.14286 2.86507 6.9334 2.17457 6.54096 1.58725C6.14853 0.999932 5.59075 0.542173 4.93816 0.27186C4.28556 0.00154744 3.56747 -0.0691787 2.87468 0.0686256C2.18189 0.20643 1.54552 0.546575 1.04605 1.04605C0.546575 1.54552 0.20643 2.18189 0.0686256 2.87468C-0.0691787 3.56747 0.00154744 4.28556 0.27186 4.93816C0.542173 5.59075 0.999932 6.14853 1.58725 6.54096C2.17457 6.9334 2.86507 7.14286 3.57143 7.14286H5.71429V12.8571H3.57143C2.86507 12.8571 2.17457 13.0666 1.58725 13.459C0.999932 13.8515 0.542173 14.4092 0.27186 15.0618C0.00154744 15.7144 -0.0691787 16.4325 0.0686256 17.1253C0.20643 17.8181 0.546575 18.4545 1.04605 18.9539C1.54552 19.4534 2.18189 19.7936 2.87468 19.9314C3.56747 20.0692 4.28556 19.9985 4.93816 19.7281C5.59075 19.4578 6.14853 19.0001 6.54096 18.4127C6.9334 17.8254 7.14286 17.1349 7.14286 16.4286V14.2857H12.8571V16.4286C12.8571 17.1349 13.0666 17.8254 13.459 18.4127C13.8515 19.0001 14.4092 19.4578 15.0618 19.7281C15.7144 19.9985 16.4325 20.0692 17.1253 19.9314C17.8181 19.7936 18.4545 19.4534 18.9539 18.9539C19.4534 18.4545 19.7936 17.8181 19.9314 17.1253C20.0692 16.4325 19.9985 15.7144 19.7281 15.0618C19.4578 14.4092 19.0001 13.8515 18.4127 13.459C17.8254 13.0666 17.1349 12.8571 16.4286 12.8571ZM14.2857 3.57143C14.2857 3.14761 14.4114 2.73331 14.6468 2.38092C14.8823 2.02853 15.217 1.75388 15.6085 1.59169C16.0001 1.4295 16.4309 1.38706 16.8466 1.46975C17.2623 1.55243 17.6441 1.75652 17.9438 2.0562C18.2435 2.35588 18.4476 2.73771 18.5303 3.15338C18.6129 3.56905 18.5705 3.99991 18.4083 4.39147C18.2461 4.78302 17.9715 5.11769 17.6191 5.35315C17.2667 5.58861 16.8524 5.71429 16.4286 5.71429H14.2857V3.57143ZM5.71429 16.4286C5.71429 16.8524 5.58861 17.2667 5.35315 17.6191C5.11769 17.9715 4.78302 18.2461 4.39147 18.4083C3.99991 18.5705 3.56905 18.6129 3.15338 18.5303C2.73771 18.4476 2.35588 18.2435 2.0562 17.9438C1.75652 17.6441 1.55243 17.2623 1.46975 16.8466C1.38706 16.4309 1.4295 16.0001 1.59169 15.6085C1.75388 15.217 2.02853 14.8823 2.38092 14.6468C2.73331 14.4114 3.14761 14.2857 3.57143 14.2857H5.71429V16.4286ZM5.71429 5.71429H3.57143C3.14761 5.71429 2.73331 5.58861 2.38092 5.35315C2.02853 5.11769 1.75388 4.78302 1.59169 4.39147C1.4295 3.99991 1.38706 3.56905 1.46975 3.15338C1.55243 2.73771 1.75652 2.35588 2.0562 2.0562C2.35588 1.75652 2.73771 1.55243 3.15338 1.46975C3.56905 1.38706 3.99991 1.4295 4.39147 1.59169C4.78302 1.75388 5.11769 2.02853 5.35315 2.38092C5.58861 2.73331 5.71429 3.14761 5.71429 3.57143V5.71429ZM12.8571 12.8571H7.14286V7.14286H12.8571V12.8571ZM16.4286 18.5714C15.8602 18.5714 15.3152 18.3457 14.9133 17.9438C14.5115 17.5419 14.2857 16.9969 14.2857 16.4286V14.2857H16.4286C16.9969 14.2857 17.5419 14.5115 17.9438 14.9133C18.3457 15.3152 18.5714 15.8602 18.5714 16.4286C18.5714 16.9969 18.3457 17.5419 17.9438 17.9438C17.5419 18.3457 16.9969 18.5714 16.4286 18.5714Z" fill="#DCDEE2"/>
</g>
<defs>
<clipPath id="clip0_13411_167089">
<rect width="20" height="20" fill="white"/>
</clipPath>
</defs>
</svg>
