<svg width="576" height="576" viewBox="0 0 576 576" fill="none" xmlns="http://www.w3.org/2000/svg">
<g clip-path="url(#clip0_1009_78494)">
<path d="M467.06 277.206C466.963 276.188 467.033 275.161 467.267 274.165C467.777 271.834 468.95 269.7 470.644 268.02C472.338 266.339 474.482 265.184 476.817 264.693C479.022 264.236 481.309 264.375 483.442 265.094C485.801 265.906 487.867 267.396 489.382 269.377C491.011 271.51 491.913 274.108 491.958 276.79C492.002 279.473 491.185 282.1 489.628 284.284C488.917 285.323 488.043 286.241 487.04 287.002C486.083 287.746 485.018 288.339 483.882 288.762C481.773 289.555 479.49 289.77 477.27 289.383C474.92 288.964 472.74 287.878 470.991 286.253C469.243 284.628 467.999 282.534 467.41 280.221C467.149 279.239 467.049 278.221 467.112 277.206C467.243 278.199 467.429 279.184 467.668 280.157C468.429 282.785 470.046 285.085 472.262 286.691C473.885 287.871 475.777 288.625 477.766 288.885C479.755 289.145 481.778 288.902 483.649 288.179C484.729 287.772 485.741 287.205 486.651 286.497C487.613 285.773 488.451 284.899 489.136 283.909C490.608 281.836 491.379 279.347 491.337 276.806C491.295 274.264 490.442 271.802 488.903 269.779C488.178 268.811 487.304 267.964 486.315 267.268C485.384 266.589 484.354 266.056 483.261 265.69C481.237 264.984 479.062 264.832 476.959 265.25C475.124 265.604 473.398 266.389 471.926 267.54C469.76 269.217 468.219 271.573 467.552 274.23C467.328 275.211 467.164 276.205 467.06 277.206Z" fill="#E0E0E0"/>
<path d="M451.959 270.736C451.827 270.797 451.688 270.84 451.545 270.865L450.251 271.202L445.243 272.496L445.321 272.392C445.386 275.317 445.463 279.173 445.567 283.831L445.438 283.676L452.218 285.061H452.335V285.177C453.023 287.563 454.024 289.847 455.311 291.971L455.375 292.087L455.311 292.191L451.726 298.117V297.819L459.969 305.778H459.646L465.43 301.986L465.572 301.883L465.714 301.973C467.883 303.168 470.197 304.077 472.599 304.678H472.767V304.859C473.284 306.942 473.841 309.233 474.423 311.575L474.125 311.342L485.577 311.148L485.267 311.394C485.707 309.284 486.198 306.968 486.677 304.613V304.432H486.871C489.248 303.754 491.524 302.761 493.639 301.481L493.807 301.378L493.975 301.481L499.889 305.079H499.488L507.446 296.849V297.263L503.655 291.466L503.551 291.298L503.642 291.117C504.849 288.966 505.763 286.664 506.359 284.271V284.077H506.553L513.282 282.447L513.023 282.77C512.958 278.888 512.894 275.084 512.842 271.318L513.101 271.642L506.333 270.218H506.139L506.074 270.024C505.406 267.648 504.422 265.372 503.15 263.257L503.046 263.088L503.15 262.92L506.747 257.007V257.408L498.53 249.437H498.906L493.108 253.228L492.953 253.319L492.798 253.228C490.642 252.022 488.336 251.109 485.94 250.511H485.759V250.343L484.128 243.614L484.413 243.834L472.961 244.002L473.207 243.795C472.702 246.176 472.223 248.402 471.77 250.563V250.705H471.628C469.24 251.375 466.951 252.358 464.822 253.629L464.705 253.707L464.589 253.629L458.779 250.032H459.025L451.028 258.236V258.042L454.767 263.865C453.835 265.511 453.068 267.244 452.477 269.041C452.296 269.61 452.166 270.05 452.063 270.335C451.959 270.62 451.92 270.775 451.92 270.775C451.92 270.775 451.92 270.62 452.011 270.322C452.102 270.024 452.192 269.571 452.373 269.028C452.924 267.231 453.662 265.496 454.573 263.852V263.968C453.538 262.39 452.283 260.5 450.756 258.197L450.691 258.094L450.769 258.016L458.701 249.747L458.817 249.631L458.947 249.721L464.873 253.293H464.653C466.806 251.981 469.126 250.967 471.55 250.278L471.369 250.459C471.822 248.311 472.288 246.072 472.78 243.691V243.484H472.987L484.439 243.277H484.659V243.497C485.202 245.684 485.746 247.91 486.315 250.213L486.095 250.006C488.551 250.609 490.914 251.541 493.121 252.775H492.811L498.595 248.971L498.802 248.842L498.983 249.01L507.226 256.968L507.407 257.149L507.265 257.369L503.68 263.283V262.946C504.99 265.109 506.004 267.437 506.695 269.869L506.437 269.636L513.217 271.06H513.476V271.331C513.545 275.101 513.61 278.914 513.67 282.77V283.042L513.411 283.107L506.683 284.75L506.941 284.504C506.33 286.958 505.399 289.32 504.172 291.531V291.181L507.951 296.978L508.106 297.198L507.912 297.392L499.941 305.622L499.76 305.803L499.54 305.674L493.626 302.064H493.963C491.798 303.375 489.464 304.385 487.027 305.066L487.26 304.833C486.768 307.175 486.276 309.491 485.836 311.601V311.846H485.577L474.125 312.028H473.893V311.795L472.262 305.066L472.469 305.286C470.019 304.665 467.661 303.725 465.456 302.491H465.753L459.943 306.256L459.775 306.373L459.62 306.23L451.403 298.246L451.273 298.117L451.364 297.949L454.974 292.048V292.268C453.685 290.106 452.688 287.783 452.011 285.358L452.153 285.501L445.386 284.064H445.256V283.935C445.256 279.263 445.166 275.407 445.127 272.483V272.392H445.192L450.186 271.228L451.48 270.943L451.959 270.736Z" fill="#E0E0E0"/>
<path fill-rule="evenodd" clip-rule="evenodd" d="M117.046 239.175C117.723 236.464 118.754 233.854 120.113 231.411L115.882 224.941L124.784 215.741L131.41 219.765C133.805 218.323 136.381 217.205 139.07 216.44L140.649 208.87L153.459 208.663L155.297 216.181C158.01 216.852 160.621 217.884 163.061 219.248L169.531 215.016L178.731 223.919L174.746 230.531C176.19 232.926 177.308 235.502 178.071 238.192L185.641 239.771L185.848 252.581L178.33 254.419C177.659 257.132 176.627 259.743 175.263 262.183L179.495 268.653L170.592 277.853L163.967 273.829C161.572 275.273 158.996 276.391 156.306 277.154L154.727 284.724L141.917 284.931L140.079 277.413C137.366 276.742 134.755 275.71 132.315 274.346L125.845 278.578L116.645 269.675L120.669 263.05C119.227 260.654 118.109 258.078 117.344 255.389L109.774 253.811L109.567 241L117.085 239.162L117.046 239.175ZM133.868 246.435C133.912 249.153 134.761 251.797 136.308 254.032C137.855 256.267 140.03 257.994 142.558 258.993C145.086 259.992 147.853 260.219 150.51 259.645C153.167 259.071 155.595 257.722 157.485 255.769C159.375 253.815 160.643 251.345 161.129 248.67C161.616 245.996 161.298 243.237 160.216 240.743C159.134 238.249 157.336 236.133 155.051 234.66C152.766 233.188 150.096 232.427 147.378 232.472C143.746 232.551 140.294 234.063 137.774 236.679C135.255 239.296 133.874 242.803 133.933 246.435H133.868Z" fill="#E0E0E0"/>
<path fill-rule="evenodd" clip-rule="evenodd" d="M412.156 206.036C412.349 205.254 412.645 204.501 413.036 203.797L411.82 201.921L414.408 199.268L416.31 200.433C417.003 200.016 417.746 199.69 418.523 199.462L418.975 197.276H422.676L423.207 199.437C423.988 199.637 424.741 199.937 425.445 200.329L427.322 199.113L429.974 201.701L428.823 203.616C429.236 204.31 429.558 205.053 429.78 205.829L431.967 206.282V209.983L429.806 210.513C429.604 211.294 429.304 212.046 428.913 212.752L430.143 214.628L427.555 217.216L425.64 216.052C424.949 216.47 424.205 216.792 423.427 217.009L422.974 219.196L419.273 219.261L418.743 217.087C417.961 216.894 417.208 216.598 416.504 216.207L414.628 217.423L411.975 214.835L413.14 212.92C412.721 212.23 412.399 211.485 412.182 210.707L409.995 210.254V206.554L412.169 206.023L412.156 206.036ZM417.022 208.132C417.035 208.919 417.281 209.684 417.729 210.33C418.178 210.977 418.808 211.476 419.54 211.764C420.272 212.052 421.073 212.116 421.842 211.948C422.61 211.78 423.312 211.387 423.857 210.82C424.402 210.253 424.767 209.537 424.905 208.762C425.043 207.987 424.947 207.189 424.631 206.469C424.314 205.749 423.791 205.139 423.128 204.716C422.464 204.293 421.69 204.077 420.904 204.095C420.38 204.107 419.863 204.222 419.384 204.434C418.905 204.646 418.472 204.951 418.111 205.331C417.751 205.712 417.468 206.159 417.281 206.649C417.094 207.138 417.006 207.66 417.022 208.184V208.132Z" fill="#E0E0E0"/>
<path fill-rule="evenodd" clip-rule="evenodd" d="M31.8624 244.365C32.157 243.282 32.592 242.242 33.1564 241.272L31.4613 238.684L34.9939 234.996L37.5819 236.601C38.5357 236.031 39.5633 235.596 40.6358 235.307L41.2698 232.279L46.4458 232.188L47.1834 235.19C48.2643 235.49 49.3033 235.925 50.2761 236.484L52.864 234.802L56.539 238.36L54.9345 240.948C55.4985 241.909 55.9336 242.941 56.2285 244.015L59.2564 244.649L59.347 249.76L56.332 250.498C56.0622 251.581 55.6533 252.625 55.1156 253.604L56.7978 256.192L53.2393 259.867L50.6513 258.262C49.693 258.831 48.6611 259.267 47.5845 259.556L46.9505 262.584L41.7745 262.675L41.0369 259.673C39.9529 259.399 38.909 258.985 37.9313 258.443L35.3433 260.138L31.6942 256.502L33.2988 253.914C32.7272 252.957 32.2916 251.925 32.0048 250.847L28.9768 250.213L28.8862 245.102L31.8883 244.365H31.8624ZM38.6171 247.263C38.635 248.346 38.9733 249.4 39.5893 250.291C40.2052 251.183 41.0713 251.872 42.0782 252.272C43.0852 252.671 44.188 252.764 45.2476 252.538C46.3072 252.312 47.2762 251.777 48.0323 251.001C48.7885 250.225 49.2979 249.243 49.4965 248.178C49.6951 247.113 49.5739 246.013 49.1482 245.016C48.7225 244.02 48.0113 243.172 47.1044 242.579C46.1974 241.987 45.1353 241.676 44.0519 241.686C43.3281 241.693 42.6127 241.843 41.9471 242.127C41.2815 242.411 40.6787 242.825 40.1735 243.343C39.6683 243.862 39.2707 244.475 39.0036 245.148C38.7365 245.82 38.6051 246.539 38.6171 247.263Z" fill="#EBEBEB"/>
<path fill-rule="evenodd" clip-rule="evenodd" d="M497.391 161.936C498.007 159.454 498.951 157.065 500.199 154.832L496.317 148.906L504.47 140.482L510.513 144.157C512.706 142.842 515.065 141.824 517.526 141.129L518.975 134.193L530.686 133.999L532.368 140.883C534.85 141.501 537.239 142.445 539.472 143.691L545.399 139.809L553.81 147.948L550.135 154.004C551.458 156.191 552.481 158.545 553.176 161.005L560.112 162.467L560.293 174.113L553.422 175.782C552.808 178.265 551.864 180.655 550.614 182.886L554.496 188.813L546.343 197.237L540.3 193.562C538.107 194.881 535.749 195.903 533.287 196.603L531.889 203.603L520.243 203.797L518.561 196.913C516.078 196.301 513.688 195.356 511.457 194.105L505.531 197.987L497.12 189.835L500.795 183.779C499.471 181.593 498.449 179.238 497.754 176.779L490.831 175.329L490.637 163.606L497.508 161.936H497.391ZM512.842 168.575C512.883 171.059 513.66 173.476 515.075 175.519C516.489 177.562 518.478 179.139 520.789 180.052C523.1 180.965 525.63 181.172 528.059 180.647C530.488 180.122 532.707 178.889 534.435 177.103C536.162 175.317 537.322 173.059 537.767 170.614C538.211 168.169 537.921 165.648 536.933 163.368C535.944 161.088 534.302 159.152 532.213 157.806C530.125 156.459 527.684 155.762 525.199 155.803C523.549 155.828 521.919 156.179 520.405 156.835C518.89 157.491 517.519 158.439 516.371 159.625C515.223 160.812 514.321 162.213 513.715 163.748C513.109 165.284 512.813 166.924 512.842 168.575Z" fill="#EBEBEB"/>
<path fill-rule="evenodd" clip-rule="evenodd" d="M50.4436 357.214C51.0091 354.95 51.8798 352.773 53.0316 350.744L49.5249 345.374L56.9007 337.752L62.3743 341.091C64.3538 339.89 66.4867 338.963 68.7149 338.334L70.0089 332.059L80.6068 331.89L82.1337 338.115C84.3961 338.685 86.5721 339.555 88.6037 340.703L93.9608 337.196L101.583 344.572L98.2569 350.045C99.4481 352.028 100.371 354.16 101 356.386L107.276 357.68L107.457 368.278L101.22 369.805C100.65 372.067 99.7799 374.243 98.6322 376.275L102.139 381.632L94.7631 389.253L89.3413 385.902C87.3587 387.097 85.2266 388.023 83.0007 388.658L81.5773 394.96L70.9665 395.141L69.4525 388.917C67.1904 388.346 65.0146 387.475 62.9825 386.329L57.6124 389.836L49.9907 382.46L53.3292 376.973C52.1241 374.996 51.1966 372.863 50.573 370.633L44.2971 369.339L44.1289 358.728L50.353 357.214H50.4436ZM64.4188 363.218C64.4524 365.471 65.1536 367.663 66.4337 369.518C67.7138 371.372 69.5151 372.805 71.6098 373.635C73.7045 374.465 75.9984 374.655 78.2011 374.18C80.4038 373.706 82.4163 372.589 83.9839 370.971C85.5516 369.353 86.6039 367.305 87.0076 365.089C87.4114 362.872 87.1485 360.586 86.2521 358.518C85.3558 356.451 83.8664 354.696 81.9723 353.476C80.0783 352.256 77.8648 351.625 75.6119 351.663C74.1182 351.686 72.6437 352.004 71.2727 352.597C69.9018 353.191 68.6611 354.049 67.6217 355.122C66.5823 356.195 65.7645 357.462 65.2149 358.851C64.6654 360.241 64.3948 361.724 64.4188 363.218Z" fill="#F5F5F5"/>
<path fill-rule="evenodd" clip-rule="evenodd" d="M272.947 137.816C273.191 136.837 273.561 135.893 274.047 135.008L272.52 132.679L275.742 129.354L278.123 130.803C278.985 130.286 279.912 129.886 280.879 129.612L281.461 126.882L286.068 126.804L286.728 129.509C287.71 129.75 288.655 130.124 289.536 130.622L291.865 129.095L295.191 132.304L293.793 134.698C294.315 135.557 294.716 136.485 294.984 137.454L297.714 138.023L297.792 142.643L295.087 143.303C294.844 144.285 294.47 145.229 293.974 146.111L295.501 148.44L292.292 151.766L289.911 150.316C289.045 150.833 288.113 151.234 287.142 151.507L286.573 154.237L281.953 154.315L281.293 151.61C280.315 151.37 279.374 150.995 278.498 150.498L276.156 152.024L272.843 148.815L274.293 146.421C273.772 145.56 273.367 144.633 273.089 143.665L270.359 143.096L270.281 138.476L272.999 137.816H272.947ZM279.029 140.404C279.044 141.384 279.35 142.338 279.907 143.144C280.465 143.95 281.248 144.573 282.16 144.934C283.071 145.295 284.069 145.377 285.027 145.171C285.985 144.965 286.861 144.479 287.543 143.775C288.225 143.071 288.683 142.181 288.859 141.217C289.036 140.253 288.922 139.258 288.533 138.358C288.144 137.459 287.496 136.695 286.673 136.163C285.85 135.631 284.887 135.355 283.907 135.371C283.255 135.383 282.611 135.523 282.012 135.783C281.414 136.044 280.873 136.42 280.42 136.89C279.967 137.36 279.611 137.914 279.372 138.522C279.133 139.129 279.017 139.778 279.029 140.43V140.404Z" fill="#F5F5F5"/>
<path d="M523.828 537.701C523.828 537.701 523.828 537.818 523.621 538.025L522.961 538.905L520.373 542.243L520.257 542.398L520.153 542.243L513.774 533.418H514.136L507.834 542.347L507.627 542.631L507.407 542.36L499.876 533.418H500.316L499.902 533.936L493.212 542.321L492.992 542.605L492.785 542.308L486.47 533.418H486.846C483.727 536.951 481.1 539.966 479.082 542.269L478.952 542.424L478.836 542.243L476.403 538.154L475.782 537.067C475.704 536.945 475.639 536.815 475.588 536.679C475.689 536.787 475.78 536.904 475.86 537.028L476.545 538.076L479.133 542.088H478.836C480.816 539.746 483.417 536.705 486.47 533.12L486.665 532.9L486.846 533.133L493.212 542.023H492.785L499.449 533.625L499.863 533.107L500.07 532.849L500.29 533.107L507.757 542.023H507.304L513.683 533.146L513.864 532.887L514.046 533.146L520.321 542.101H520.089C521.227 540.729 522.133 539.642 522.806 538.853L523.531 538.012L523.828 537.701Z" fill="#F5F5F5"/>
<path d="M525.29 526.081C525.29 526.236 514.071 526.366 500.239 526.366C486.406 526.366 475.2 526.236 475.2 526.081C475.2 525.926 486.406 525.809 500.239 525.809C514.071 525.809 525.29 525.926 525.29 526.081Z" fill="#F5F5F5"/>
<path d="M527.555 563.995C527.555 564.151 515.366 564.28 500.381 564.28C485.397 564.28 473.207 564.151 473.207 563.995C473.207 563.84 485.397 563.724 500.381 563.724C515.366 563.724 527.555 563.853 527.555 563.995Z" fill="#F5F5F5"/>
<path d="M56.2412 173.906C57.012 173.842 57.7867 173.842 58.5575 173.906C59.308 173.906 60.2267 173.906 61.2749 173.984C62.323 174.061 63.5523 174.1 64.8722 174.268C67.9898 174.582 71.0873 175.07 74.1502 175.731C77.8949 176.545 81.5856 177.591 85.2009 178.862C88.7962 180.201 92.3053 181.762 95.7082 183.534C98.4784 184.999 101.162 186.623 103.744 188.399C104.87 189.124 105.814 189.874 106.681 190.495C107.548 191.116 108.247 191.699 108.816 192.19C109.431 192.661 110.01 193.176 110.55 193.73C109.881 193.353 109.245 192.92 108.648 192.436C108.053 191.983 107.354 191.44 106.448 190.845C105.543 190.249 104.611 189.551 103.485 188.826C101.272 187.364 98.5291 185.759 95.4235 184.129C92.0291 182.399 88.5382 180.865 84.968 179.535C81.3832 178.25 77.7282 177.17 74.0208 176.3C70.9827 175.612 67.9121 175.076 64.8204 174.695C63.5264 174.501 62.3101 174.437 61.249 174.32C60.1879 174.204 59.295 174.165 58.5445 174.126C57.7722 174.113 57.002 174.04 56.2412 173.906Z" fill="#EBEBEB"/>
<path d="M32.2632 318.071C32.4728 317.846 32.7072 317.647 32.9619 317.475L35.0323 315.91C35.9252 315.224 37.051 314.396 38.3967 313.516C39.7425 312.636 41.2306 311.575 42.9775 310.552C44.7244 309.53 46.5878 308.34 48.697 307.227C50.8062 306.114 53.0578 304.949 55.4646 303.772C60.7287 301.318 66.1393 299.192 71.6655 297.405C77.2142 295.688 82.8621 294.31 88.5781 293.278C91.1661 292.864 93.7541 292.424 96.1091 292.204C98.4642 291.984 100.677 291.738 102.696 291.621C104.714 291.505 106.578 291.453 108.156 291.414C109.735 291.375 111.145 291.414 112.271 291.414L114.859 291.505C115.163 291.497 115.467 291.523 115.765 291.582C115.464 291.613 115.16 291.613 114.859 291.582H112.271C111.145 291.582 109.761 291.582 108.156 291.686C106.552 291.789 104.74 291.789 102.734 291.997C100.729 292.204 98.516 292.32 96.1738 292.656C93.8317 292.993 91.3213 293.355 88.6945 293.782C83.0106 294.841 77.3936 296.232 71.8725 297.949C66.3609 299.778 60.9601 301.925 55.6975 304.38C53.3036 305.545 51.0132 306.619 48.9428 307.77C46.8724 308.922 44.9314 309.983 43.1975 311.005C41.4635 312.028 39.9366 313.037 38.5779 313.891C37.2192 314.745 36.0805 315.521 35.1617 316.168L33.0137 317.644C32.7739 317.803 32.5231 317.946 32.2632 318.071Z" fill="#EBEBEB"/>
<path d="M125.263 387.623C125.264 387.387 125.294 387.152 125.354 386.924L125.742 384.931C125.91 384.077 126.143 383.029 126.454 381.826C126.764 380.622 127.075 379.238 127.528 377.724C128.369 374.696 129.52 371.15 130.983 367.255C132.445 363.36 134.256 359.181 136.392 354.885C138.527 350.589 140.843 346.655 143.056 343.135C145.268 339.616 147.455 336.588 149.383 334.077C150.315 332.783 151.234 331.735 151.971 330.765C152.709 329.794 153.447 328.992 154.042 328.332L155.336 326.831C155.659 326.494 155.827 326.326 155.853 326.339C155.741 326.55 155.602 326.746 155.439 326.921C155.116 327.348 154.689 327.866 154.145 328.5C153.602 329.134 152.916 330.014 152.165 331.01C151.415 332.007 150.522 333.094 149.577 334.375C147.714 336.872 145.618 339.952 143.405 343.433C141.192 346.914 138.967 350.886 136.819 355.156C134.671 359.427 132.937 363.593 131.371 367.437C129.805 371.28 128.692 374.825 127.799 377.789C127.321 379.29 126.971 380.661 126.635 381.852C126.298 383.042 126.027 384.077 125.82 384.931C125.613 385.785 125.444 386.368 125.302 386.885C125.316 387.132 125.303 387.379 125.263 387.623Z" fill="#EBEBEB"/>
<path d="M301.066 32.446C300.921 32.7194 300.752 32.9792 300.561 33.2224L298.97 35.4093C298.284 36.341 297.456 37.4926 296.55 38.8643C295.644 40.2359 294.544 41.7629 293.457 43.5227C292.37 45.2825 291.206 47.1847 289.912 49.2939C288.618 51.4032 287.414 53.6806 286.094 56.0745C283.506 60.927 280.918 66.4265 278.55 72.2107C276.182 77.9949 274.254 83.779 272.689 89.0327C271.964 91.6207 271.226 94.2087 270.683 96.5508C270.139 98.8929 269.622 101.132 269.195 103.163C268.768 105.195 268.457 107.045 268.16 108.65C267.862 110.254 267.642 111.678 267.487 112.829C267.331 113.981 267.176 114.796 267.073 115.417C267.041 115.725 266.976 116.029 266.878 116.323C266.85 116.013 266.85 115.701 266.878 115.391C266.956 114.719 267.047 113.839 267.176 112.803C267.305 111.768 267.461 110.215 267.745 108.611C268.03 107.006 268.25 105.117 268.677 103.086C269.104 101.054 269.505 98.8024 270.088 96.4344C270.67 94.0663 271.382 91.5301 272.042 88.8774C273.581 83.5979 275.497 77.8525 277.865 71.9648C280.233 66.0771 282.911 60.6423 285.499 55.8027C286.793 53.3959 288.087 51.1055 289.381 49.0222C290.675 46.9389 291.866 45.0108 293.004 43.2768C294.143 41.5429 295.243 40.016 296.188 38.6702C297.132 37.3244 297.986 36.1728 298.776 35.267C299.565 34.3612 300.005 33.6883 300.432 33.1577C300.612 32.8943 300.825 32.6551 301.066 32.446Z" fill="#EBEBEB"/>
<path d="M417.565 166.88C417.312 166.955 417.051 167.002 416.788 167.022L414.55 167.32L412.932 167.514C412.337 167.604 411.703 167.747 411.03 167.863C409.658 168.148 408.092 168.368 406.41 168.86L403.822 169.545C402.891 169.791 401.959 170.141 400.988 170.451C399.009 171.046 396.99 171.926 394.855 172.793C385.636 176.816 377.322 182.656 370.411 189.965C368.871 191.686 367.357 193.29 366.141 194.947C365.52 195.762 364.847 196.512 364.316 197.289L362.712 199.566C361.677 200.977 360.939 202.387 360.214 203.565C359.865 204.173 359.516 204.716 359.231 205.247L358.506 206.696L357.471 208.702C357.363 208.947 357.224 209.178 357.057 209.388C357.129 209.134 357.224 208.887 357.342 208.65C357.588 208.107 357.885 207.356 358.273 206.58L358.946 205.092C359.218 204.561 359.555 204.005 359.891 203.384C360.628 201.981 361.436 200.616 362.311 199.294L363.838 196.991C364.368 196.189 365.015 195.425 365.636 194.597C366.853 192.915 368.354 191.285 369.894 189.538C376.813 182.11 385.21 176.213 394.544 172.224C396.705 171.37 398.75 170.503 400.743 169.921C401.739 169.623 402.684 169.274 403.615 169.041L406.294 168.394C407.834 168.014 409.393 167.716 410.965 167.501C411.651 167.384 412.259 167.268 412.893 167.203L414.524 167.061L416.775 166.893C417.036 166.851 417.302 166.847 417.565 166.88Z" fill="#EBEBEB"/>
<path d="M512.713 243.886L512.376 243.782L511.406 243.459L507.692 242.165L505.013 241.181C504.03 240.845 502.943 240.521 501.778 240.146C499.462 239.421 496.848 238.503 493.872 237.752L489.24 236.458C487.622 236.018 485.914 235.682 484.167 235.268C480.673 234.401 476.869 233.767 472.896 233.042C455.549 230.146 437.89 229.606 420.399 231.437C416.387 231.916 412.557 232.317 409.012 232.964C407.239 233.275 405.518 233.508 403.836 233.844L399.138 234.815C396.123 235.384 393.458 236.109 391.09 236.73C389.912 237.028 388.812 237.286 387.816 237.558L385.073 238.373L381.294 239.486L380.298 239.758C380.182 239.774 380.064 239.774 379.948 239.758L380.272 239.628L381.242 239.292L384.995 237.998L387.725 237.131C388.722 236.833 389.821 236.549 390.999 236.225C393.354 235.617 396.02 234.828 399.035 234.22L403.745 233.197C405.375 232.848 407.109 232.602 408.921 232.291C412.479 231.606 416.31 231.192 420.334 230.687C437.879 228.782 455.604 229.326 473 232.304C476.985 233.055 480.764 233.702 484.283 234.595C486.043 235.022 487.751 235.371 489.369 235.889L494.001 237.183C496.978 237.972 499.579 238.93 501.895 239.68C503.059 240.068 504.133 240.418 505.117 240.78L507.783 241.815L511.457 243.265L512.402 243.666C512.609 243.821 512.726 243.873 512.713 243.886Z" fill="#EBEBEB"/>
<path d="M576 440.525H0V440.813H576V440.525Z" fill="#EBEBEB"/>
<path d="M518.285 451.492H413.568V451.78H518.285V451.492Z" fill="#EBEBEB"/>
<path d="M381.565 448.37H352.892V448.658H381.565V448.37Z" fill="#EBEBEB"/>
<path d="M447.103 462.194H402.647V462.482H447.103V462.194Z" fill="#EBEBEB"/>
<path d="M86.5154 460.259H60.4341V460.547H86.5154V460.259Z" fill="#EBEBEB"/>
<path d="M127.745 460.259H96.7681V460.547H127.745V460.259Z" fill="#EBEBEB"/>
<path d="M259.373 455.397H205.413V455.685H259.373V455.397Z" fill="#EBEBEB"/>
<path d="M273.024 389.145H50.5845C48.8419 389.142 47.1717 388.448 45.9406 387.215C44.7095 385.981 44.0181 384.31 44.0181 382.568V69.8802C44.0332 68.1476 44.7314 66.491 45.9608 65.2701C47.1903 64.0493 48.8518 63.3628 50.5845 63.3599H273.024C274.769 63.3599 276.442 64.0529 277.675 65.2865C278.909 66.5201 279.602 68.1932 279.602 69.9378V382.568C279.602 384.312 278.909 385.985 277.675 387.219C276.442 388.452 274.769 389.145 273.024 389.145ZM50.5845 63.5903C48.9183 63.5933 47.3214 64.2573 46.1443 65.4366C44.9672 66.6159 44.3061 68.214 44.3061 69.8802V382.568C44.3061 384.234 44.9672 385.832 46.1443 387.011C47.3214 388.19 48.9183 388.854 50.5845 388.857H273.024C274.691 388.854 276.289 388.191 277.468 387.012C278.647 385.833 279.311 384.235 279.314 382.568V69.8802C279.311 68.2129 278.647 66.6148 277.468 65.4359C276.289 64.257 274.691 63.5933 273.024 63.5903H50.5845Z" fill="#EBEBEB"/>
<path d="M522.213 389.145H299.762C298.018 389.142 296.347 388.448 295.114 387.215C293.881 385.983 293.187 384.311 293.184 382.568V69.8802C293.202 68.1466 293.903 66.4899 295.134 65.2694C296.366 64.0489 298.028 63.3628 299.762 63.3599H522.213C523.944 63.3659 525.602 64.0537 526.829 65.2742C528.056 66.4947 528.753 68.1496 528.768 69.8802V382.568C528.768 384.308 528.078 385.978 526.85 387.211C525.621 388.444 523.954 389.139 522.213 389.145ZM299.762 63.5903C298.095 63.5933 296.497 64.257 295.318 65.4359C294.139 66.6148 293.475 68.2129 293.472 69.8802V382.568C293.475 384.235 294.139 385.833 295.318 387.012C296.497 388.191 298.095 388.854 299.762 388.857H522.213C523.88 388.854 525.479 388.191 526.657 387.012C527.836 385.833 528.5 384.235 528.503 382.568V69.8802C528.5 68.2129 527.836 66.6148 526.657 65.4359C525.479 64.257 523.88 63.5933 522.213 63.5903H299.762Z" fill="#EBEBEB"/>
<path d="M494.404 301.951C492.697 301.957 490.998 302.177 489.347 302.607C487.713 300.384 485.643 298.518 483.263 297.122C480.883 295.727 478.243 294.831 475.506 294.49C472.768 294.15 469.989 294.371 467.34 295.141C464.691 295.91 462.226 297.212 460.097 298.967C456.603 293.064 451.33 288.42 445.032 285.7C438.735 282.98 431.739 282.325 425.046 283.828C418.353 285.332 412.309 288.916 407.78 294.068C403.251 299.219 400.47 305.673 399.836 312.503C396.208 311.697 392.439 311.78 388.851 312.745C385.262 313.711 381.96 315.53 379.227 318.048C376.493 320.566 374.409 323.707 373.153 327.205C371.897 330.703 371.505 334.452 372.011 338.134C372.518 341.815 373.907 345.32 376.061 348.348C378.215 351.377 381.07 353.839 384.382 355.526C387.693 357.212 391.364 358.072 395.08 358.033C398.796 357.994 402.448 357.056 405.723 355.3C407.188 360.594 410.21 365.327 414.396 368.884C418.582 372.442 423.74 374.66 429.202 375.252C434.663 375.844 440.177 374.783 445.028 372.205C449.879 369.627 453.845 365.652 456.411 360.795C460.807 364.547 466.176 366.978 471.896 367.806C477.616 368.634 483.454 367.826 488.734 365.475C494.014 363.123 498.52 359.325 501.732 354.52C504.943 349.714 506.728 344.097 506.88 338.319C510.236 335.73 512.697 332.154 513.918 328.095C515.139 324.035 515.058 319.696 513.687 315.684C512.316 311.673 509.724 308.192 506.274 305.729C502.824 303.266 498.689 301.945 494.45 301.951H494.404Z" fill="#F5F5F5"/>
<path d="M83.7159 180.081C81.1295 178.953 78.2011 178.898 75.5743 179.928C72.9476 180.959 70.8374 182.99 69.7076 185.576C68.4158 184.928 67.0056 184.55 65.5629 184.465C64.1203 184.38 62.6755 184.589 61.3165 185.081C59.9575 185.572 58.7128 186.335 57.6582 187.324C56.6037 188.312 55.7614 189.504 55.1827 190.828C54.604 192.153 54.301 193.581 54.2922 195.026C54.2834 196.471 54.5689 197.903 55.1313 199.234C55.6938 200.565 56.5214 201.768 57.5638 202.769C58.6062 203.77 59.8414 204.548 61.1943 205.056L80.6977 213.569L89.211 194.066C90.3347 191.482 90.3871 188.558 89.3568 185.936C88.3266 183.314 86.2977 181.208 83.7159 180.081Z" fill="#F5F5F5"/>
<path d="M174.655 87.1603C174.22 86.333 173.627 85.5994 172.909 85.0016C172.191 84.4038 171.362 83.9534 170.469 83.6763C169.577 83.3992 168.639 83.3007 167.708 83.3866C166.778 83.4724 165.873 83.7409 165.047 84.1766C164.136 82.5632 162.633 81.3684 160.855 80.8458C159.078 80.3232 157.167 80.514 155.528 81.3777C153.889 82.2414 152.651 83.71 152.077 85.4716C151.504 87.2331 151.639 89.1489 152.455 90.8121L159.091 103.403L171.648 96.7679C172.477 96.3356 173.213 95.7438 173.813 95.0266C174.413 94.3093 174.866 93.4807 175.145 92.5881C175.425 91.6956 175.525 90.7567 175.441 89.8253C175.357 88.8939 175.089 87.9882 174.655 87.1603Z" fill="#E6E6E6"/>
<path d="M464.256 58.5676C463.821 57.7413 463.227 57.0089 462.508 56.4122C461.79 55.8156 460.96 55.3664 460.068 55.0904C459.176 54.8144 458.238 54.7169 457.308 54.8036C456.378 54.8902 455.474 55.1593 454.648 55.5955C454.214 54.7665 453.621 54.0311 452.903 53.4313C452.184 52.8315 451.355 52.3791 450.461 52.0999C449.568 51.8207 448.629 51.7202 447.697 51.8041C446.765 51.8879 445.858 52.1546 445.029 52.5888C444.2 53.023 443.465 53.6162 442.865 54.3346C442.265 55.0529 441.813 55.8824 441.534 56.7757C441.254 57.6689 441.154 58.6084 441.238 59.5404C441.322 60.4725 441.588 61.3789 442.022 62.208L448.658 74.7878L461.238 68.1638C462.907 67.2881 464.162 65.7869 464.727 63.9886C465.293 62.1904 465.123 60.2413 464.256 58.5676Z" fill="#F5F5F5"/>
<path d="M510.336 266.769C510.118 265.391 509.362 264.155 508.235 263.333C507.108 262.51 505.701 262.167 504.322 262.379C504.051 261.057 503.28 259.89 502.17 259.12C501.061 258.351 499.698 258.038 498.364 258.247C497.03 258.456 495.828 259.171 495.007 260.243C494.186 261.315 493.809 262.661 493.954 264.004L495.579 274.372L505.947 272.747C507.319 272.532 508.551 271.782 509.373 270.662C510.195 269.542 510.541 268.143 510.336 266.769Z" fill="#EBEBEB"/>
<path d="M403.811 177.707C403.271 177.538 402.704 177.477 402.141 177.527C401.578 177.577 401.03 177.738 400.529 178C400.028 178.262 399.584 178.62 399.222 179.055C398.86 179.489 398.587 179.99 398.419 180.53C397.879 180.361 397.311 180.301 396.748 180.351C396.184 180.402 395.636 180.564 395.135 180.826C394.634 181.089 394.189 181.448 393.827 181.882C393.464 182.316 393.191 182.818 393.022 183.358C392.853 183.898 392.793 184.466 392.844 185.03C392.894 185.593 393.056 186.141 393.318 186.642C393.581 187.144 393.94 187.588 394.374 187.951C394.809 188.313 395.31 188.587 395.85 188.755L404.076 191.324L406.644 183.099C406.983 182.008 406.875 180.828 406.343 179.817C405.812 178.806 404.901 178.047 403.811 177.707Z" fill="#F5F5F5"/>
<path d="M84.5454 72.576C83.4532 72.237 82.271 72.3449 81.2582 72.8762C80.2454 73.4074 79.4846 74.3186 79.1426 75.4099C78.6032 75.242 78.0361 75.1819 77.4736 75.2332C76.9111 75.2844 76.3641 75.446 75.864 75.7086C75.3639 75.9712 74.9205 76.3298 74.5589 76.7638C74.1974 77.1978 73.9249 77.6988 73.757 78.2381C73.589 78.7774 73.529 79.3445 73.5802 79.9071C73.6315 80.4696 73.793 81.0165 74.0557 81.5166C74.3183 82.0167 74.6768 82.4602 75.1108 82.8217C75.5448 83.1833 76.0458 83.4558 76.5851 83.6237L84.7989 86.1926L87.3678 77.9674C87.5374 77.4281 87.5988 76.8606 87.5486 76.2975C87.4985 75.7345 87.3377 75.1868 87.0755 74.686C86.8133 74.1851 86.4548 73.741 86.0207 73.3789C85.5866 73.0168 85.0852 72.744 84.5454 72.576Z" fill="#F5F5F5"/>
<path d="M213.017 264.868C213.009 258.007 210.451 251.394 205.84 246.314C201.228 241.234 194.892 238.05 188.064 237.381C184.655 229.718 179.285 223.089 172.496 218.165C165.706 213.24 157.738 210.193 149.395 209.332C141.052 208.471 132.629 209.826 124.977 213.26C117.325 216.694 110.714 222.086 105.811 228.891C101.747 225.929 96.8652 224.298 91.8366 224.224C86.808 224.151 81.8801 225.637 77.7309 228.479C73.5817 231.321 70.4151 235.379 68.6668 240.094C66.9186 244.81 66.6745 249.951 67.9682 254.811C64.1245 258.048 60.9851 262.038 58.7442 266.536C56.5032 271.034 55.2081 275.943 54.939 280.961C54.6699 285.979 55.4324 290.998 57.1794 295.71C58.9265 300.422 61.6209 304.725 65.0964 308.354C68.5719 311.984 72.7546 314.862 77.3861 316.811C82.0177 318.761 86.9997 319.74 92.0245 319.688C97.0493 319.636 102.01 318.555 106.601 316.511C111.191 314.467 115.314 311.503 118.714 307.803C123.238 313.683 129.347 318.149 136.322 320.676C143.298 323.204 150.849 323.688 158.09 322.072C165.331 320.455 171.96 316.806 177.198 311.552C182.437 306.298 186.066 299.658 187.661 292.412C194.572 291.837 201.014 288.686 205.71 283.585C210.407 278.483 213.014 271.802 213.017 264.868Z" fill="#EBEBEB"/>
<path d="M399.514 135.268C399.517 130.618 401.251 126.135 404.376 122.692C407.502 119.249 411.797 117.092 416.425 116.64C418.722 111.435 422.355 106.929 426.956 103.582C431.556 100.234 436.96 98.1623 442.62 97.5774C448.279 96.9925 453.993 97.915 459.18 100.251C464.368 102.588 468.846 106.254 472.159 110.88C474.915 108.887 478.219 107.794 481.62 107.752C485.02 107.709 488.351 108.718 491.156 110.642C493.961 112.565 496.103 115.308 497.288 118.496C498.474 121.683 498.645 125.159 497.779 128.448C500.394 130.638 502.532 133.342 504.059 136.392C505.586 139.442 506.47 142.773 506.657 146.179C506.843 149.585 506.328 152.993 505.144 156.192C503.959 159.39 502.13 162.312 499.77 164.774C497.41 167.237 494.57 169.189 491.424 170.509C488.279 171.828 484.896 172.488 481.485 172.447C478.075 172.405 474.709 171.664 471.596 170.268C468.484 168.872 465.692 166.852 463.392 164.333C460.332 168.32 456.197 171.351 451.473 173.07C446.75 174.788 441.634 175.122 436.727 174.034C431.82 172.945 427.325 170.478 423.772 166.923C420.219 163.368 417.754 158.872 416.667 153.965C411.983 153.571 407.617 151.43 404.439 147.966C401.261 144.502 399.503 139.969 399.514 135.268Z" fill="#F0F0F0"/>
<path d="M288 492.549C411.359 492.549 511.361 486.711 511.361 479.508C511.361 472.306 411.359 466.468 288 466.468C164.641 466.468 64.6387 472.306 64.6387 479.508C64.6387 486.711 164.641 492.549 288 492.549Z" fill="#F5F5F5"/>
<path d="M156.799 450.144H94.2107C92.745 450.129 91.3444 449.536 90.3134 448.494C89.2823 447.452 88.704 446.046 88.7041 444.58V418.902C88.7069 417.59 89.1719 416.322 90.0174 415.319L160.75 331.223C161.274 330.602 161.926 330.104 162.662 329.761C163.399 329.419 164.201 329.242 165.013 329.242H192.119C193.595 329.242 195.01 329.828 196.054 330.871C197.097 331.915 197.683 333.33 197.683 334.806V413.142C197.683 414.618 198.27 416.033 199.313 417.076C200.357 418.12 201.772 418.706 203.247 418.706H210.401C211.877 418.706 213.292 419.292 214.336 420.336C215.379 421.379 215.966 422.795 215.966 424.27V444.534C215.966 446.01 215.379 447.425 214.336 448.468C213.292 449.512 211.877 450.098 210.401 450.098H203.247C201.772 450.098 200.357 450.684 199.313 451.728C198.27 452.771 197.683 454.187 197.683 455.662V471.79C197.683 473.266 197.097 474.681 196.054 475.725C195.01 476.768 193.595 477.354 192.119 477.354H167.927C166.451 477.354 165.036 476.768 163.993 475.725C162.949 474.681 162.363 473.266 162.363 471.79V455.662C162.351 454.195 161.759 452.791 160.717 451.758C159.675 450.724 158.267 450.144 156.799 450.144ZM162.363 414.858V383.524C162.376 382.715 162.137 381.922 161.678 381.255C161.22 380.588 160.565 380.08 159.805 379.803C159.045 379.525 158.217 379.492 157.436 379.706C156.656 379.921 155.962 380.374 155.451 381.001L128.828 412.335C128.347 412.901 128.037 413.593 127.936 414.329C127.836 415.065 127.947 415.815 128.259 416.49C128.57 417.164 129.068 417.736 129.693 418.137C130.319 418.538 131.046 418.751 131.789 418.752H158.423C158.938 418.758 159.45 418.662 159.927 418.469C160.405 418.276 160.84 417.99 161.206 417.628C161.573 417.266 161.864 416.835 162.062 416.359C162.261 415.884 162.363 415.374 162.363 414.858Z" fill="#263238"/>
<path d="M228.522 403.96C228.522 376.312 233.514 356.94 243.498 345.842C253.482 334.744 268.662 329.215 289.037 329.253C298.836 329.253 306.9 330.463 313.229 332.882C318.948 334.945 324.186 338.156 328.619 342.317C332.358 345.881 335.525 349.999 338.008 354.528C340.469 359.269 342.323 364.3 343.526 369.504C346.276 380.618 347.645 392.028 347.604 403.476C347.604 429.903 343.131 449.242 334.184 461.491C325.236 473.741 309.842 479.885 288 479.923C275.712 479.923 265.809 477.969 258.29 474.06C250.629 470.087 244.179 464.127 239.616 456.803C236.098 451.427 233.364 444.092 231.414 434.799C229.395 424.646 228.426 414.312 228.522 403.96ZM268.658 404.052C268.658 422.6 270.298 435.272 273.577 442.068C276.856 448.865 281.606 452.264 287.827 452.264C289.805 452.283 291.767 451.91 293.6 451.166C295.433 450.423 297.1 449.324 298.506 447.932C301.524 445.052 303.744 440.498 305.165 434.269C306.586 428.041 307.296 418.341 307.296 405.17C307.296 385.839 305.656 372.845 302.377 366.186C299.098 359.528 294.182 356.198 287.631 356.198C280.934 356.198 276.1 359.593 273.128 366.382C270.155 373.171 268.666 385.728 268.658 404.052Z" fill="#263238"/>
<path d="M428.187 450.144H365.611C364.135 450.144 362.72 449.558 361.676 448.514C360.633 447.471 360.046 446.056 360.046 444.58V418.902C360.046 417.592 360.507 416.323 361.348 415.319L432.092 331.223C432.614 330.603 433.264 330.104 433.998 329.762C434.733 329.419 435.533 329.242 436.343 329.242H463.461C464.937 329.242 466.352 329.828 467.396 330.871C468.439 331.915 469.026 333.33 469.026 334.806V413.142C469.019 413.879 469.16 414.611 469.439 415.293C469.718 415.976 470.13 416.596 470.651 417.118C471.172 417.641 471.792 418.054 472.474 418.334C473.156 418.615 473.887 418.757 474.624 418.752H481.767C483.242 418.752 484.658 419.338 485.701 420.382C486.745 421.425 487.331 422.841 487.331 424.316V444.58C487.331 446.056 486.745 447.471 485.701 448.514C484.658 449.558 483.242 450.144 481.767 450.144H474.624C473.149 450.144 471.733 450.73 470.69 451.774C469.646 452.817 469.06 454.233 469.06 455.708V471.836C469.06 473.312 468.474 474.727 467.43 475.771C466.387 476.814 464.972 477.4 463.496 477.4H439.304C437.828 477.4 436.413 476.814 435.37 475.771C434.326 474.727 433.74 473.312 433.74 471.836V455.708C433.74 454.235 433.155 452.821 432.114 451.778C431.073 450.735 429.661 450.147 428.187 450.144ZM433.751 414.858V383.524C433.75 382.728 433.505 381.952 433.049 381.3C432.594 380.648 431.949 380.151 431.203 379.876C430.456 379.601 429.643 379.562 428.873 379.763C428.103 379.964 427.414 380.396 426.897 381.001L400.263 412.335C399.783 412.9 399.473 413.59 399.372 414.324C399.27 415.058 399.38 415.805 399.688 416.479C399.997 417.153 400.491 417.725 401.113 418.127C401.735 418.53 402.459 418.747 403.2 418.752H429.823C430.337 418.757 430.847 418.659 431.324 418.466C431.8 418.272 432.233 417.986 432.599 417.624C432.964 417.262 433.254 416.831 433.452 416.356C433.65 415.882 433.751 415.373 433.751 414.858Z" fill="#263238"/>
<path d="M181.809 344.31C180.737 346.614 179.608 348.687 178.514 350.83L175.288 357.224L172.063 363.64C170.98 365.795 169.862 367.949 168.538 370.069C168.736 367.6 169.211 365.162 169.955 362.799C170.661 360.42 171.575 358.107 172.685 355.887C173.79 353.665 175.102 351.552 176.602 349.574C178.084 347.586 179.837 345.814 181.809 344.31Z" fill="white"/>
<path d="M185.91 349.724C184.908 351.717 183.871 353.595 182.857 355.484L179.873 361.129L176.89 366.797C175.888 368.698 174.862 370.61 173.641 372.476C173.857 370.278 174.316 368.11 175.012 366.014C175.685 363.913 176.537 361.875 177.558 359.92C178.576 357.956 179.784 356.096 181.164 354.367C182.519 352.603 184.117 351.04 185.91 349.724Z" fill="white"/>
<path d="M174.712 342.041C173.825 344.114 172.881 346.061 171.959 348.019L169.252 353.883L166.545 359.758C165.623 361.728 164.69 363.71 163.561 365.657C163.667 363.426 164.026 361.216 164.632 359.067C165.21 356.909 165.981 354.808 166.936 352.789C167.865 350.769 168.979 348.841 170.266 347.029C171.513 345.171 173.01 343.493 174.712 342.041Z" fill="white"/>
<path d="M438.912 429.593C440.884 431.111 442.636 432.894 444.119 434.892C445.65 436.87 446.992 438.987 448.128 441.216C449.231 443.438 450.141 445.75 450.847 448.128C451.589 450.491 452.068 452.929 452.275 455.397C450.939 453.278 449.833 451.123 448.739 448.969L445.513 442.553L442.287 436.159C441.147 433.97 440.064 431.85 438.912 429.593Z" fill="white"/>
<path d="M434.857 435.007C436.64 436.318 438.233 437.868 439.592 439.615C440.973 441.347 442.181 443.211 443.197 445.179C444.228 447.13 445.08 449.169 445.743 451.273C446.448 453.368 446.912 455.536 447.126 457.736C445.905 455.87 444.879 453.957 443.866 452.056L440.882 446.389L437.898 440.744C436.884 438.912 435.848 437 434.857 435.007Z" fill="white"/>
<path d="M446.043 427.323C447.767 428.76 449.287 430.427 450.559 432.277C451.846 434.087 452.957 436.015 453.877 438.037C454.827 440.058 455.598 442.159 456.181 444.315C456.781 446.465 457.141 448.675 457.252 450.904C456.1 448.946 455.178 446.976 454.268 445.006L451.561 439.119L448.854 433.267C447.886 431.343 446.976 429.397 446.043 427.323Z" fill="white"/>
<path d="M517 313L510.938 298.75H523.062L517 313Z" fill="#272625"/>
<g filter="url(#filter0_d_1009_78494)">
<rect x="480" y="274" width="75" height="27" rx="4" fill="#272625"/>
<path d="M502.078 286.953V287.672C502.078 288.526 501.971 289.292 501.758 289.969C501.544 290.646 501.237 291.221 500.836 291.695C500.435 292.169 499.953 292.531 499.391 292.781C498.833 293.031 498.208 293.156 497.516 293.156C496.844 293.156 496.227 293.031 495.664 292.781C495.107 292.531 494.622 292.169 494.211 291.695C493.805 291.221 493.49 290.646 493.266 289.969C493.042 289.292 492.93 288.526 492.93 287.672V286.953C492.93 286.099 493.039 285.336 493.258 284.664C493.482 283.987 493.797 283.411 494.203 282.938C494.609 282.458 495.091 282.094 495.648 281.844C496.211 281.594 496.828 281.469 497.5 281.469C498.193 281.469 498.818 281.594 499.375 281.844C499.938 282.094 500.419 282.458 500.82 282.938C501.227 283.411 501.536 283.987 501.75 284.664C501.969 285.336 502.078 286.099 502.078 286.953ZM500.586 287.672V286.938C500.586 286.26 500.516 285.661 500.375 285.141C500.24 284.62 500.039 284.182 499.773 283.828C499.508 283.474 499.182 283.206 498.797 283.023C498.417 282.841 497.984 282.75 497.5 282.75C497.031 282.75 496.607 282.841 496.227 283.023C495.852 283.206 495.529 283.474 495.258 283.828C494.992 284.182 494.786 284.62 494.641 285.141C494.495 285.661 494.422 286.26 494.422 286.938V287.672C494.422 288.354 494.495 288.958 494.641 289.484C494.786 290.005 494.995 290.445 495.266 290.805C495.542 291.159 495.867 291.427 496.242 291.609C496.622 291.792 497.047 291.883 497.516 291.883C498.005 291.883 498.44 291.792 498.82 291.609C499.201 291.427 499.521 291.159 499.781 290.805C500.047 290.445 500.247 290.005 500.383 289.484C500.518 288.958 500.586 288.354 500.586 287.672ZM503.734 288.867V288.688C503.734 288.078 503.823 287.513 504 286.992C504.177 286.466 504.432 286.01 504.766 285.625C505.099 285.234 505.503 284.932 505.977 284.719C506.451 284.5 506.982 284.391 507.57 284.391C508.164 284.391 508.698 284.5 509.172 284.719C509.651 284.932 510.057 285.234 510.391 285.625C510.729 286.01 510.987 286.466 511.164 286.992C511.341 287.513 511.43 288.078 511.43 288.688V288.867C511.43 289.477 511.341 290.042 511.164 290.562C510.987 291.083 510.729 291.539 510.391 291.93C510.057 292.315 509.654 292.617 509.18 292.836C508.711 293.049 508.18 293.156 507.586 293.156C506.992 293.156 506.458 293.049 505.984 292.836C505.51 292.617 505.104 292.315 504.766 291.93C504.432 291.539 504.177 291.083 504 290.562C503.823 290.042 503.734 289.477 503.734 288.867ZM505.18 288.688V288.867C505.18 289.289 505.229 289.688 505.328 290.062C505.427 290.432 505.576 290.76 505.773 291.047C505.977 291.333 506.229 291.56 506.531 291.727C506.833 291.888 507.185 291.969 507.586 291.969C507.982 291.969 508.328 291.888 508.625 291.727C508.927 291.56 509.177 291.333 509.375 291.047C509.573 290.76 509.721 290.432 509.82 290.062C509.924 289.688 509.977 289.289 509.977 288.867V288.688C509.977 288.271 509.924 287.878 509.82 287.508C509.721 287.133 509.57 286.802 509.367 286.516C509.169 286.224 508.919 285.995 508.617 285.828C508.32 285.661 507.971 285.578 507.57 285.578C507.174 285.578 506.826 285.661 506.523 285.828C506.227 285.995 505.977 286.224 505.773 286.516C505.576 286.802 505.427 287.133 505.328 287.508C505.229 287.878 505.18 288.271 505.18 288.688ZM512.859 288.867V288.688C512.859 288.078 512.948 287.513 513.125 286.992C513.302 286.466 513.557 286.01 513.891 285.625C514.224 285.234 514.628 284.932 515.102 284.719C515.576 284.5 516.107 284.391 516.695 284.391C517.289 284.391 517.823 284.5 518.297 284.719C518.776 284.932 519.182 285.234 519.516 285.625C519.854 286.01 520.112 286.466 520.289 286.992C520.466 287.513 520.555 288.078 520.555 288.688V288.867C520.555 289.477 520.466 290.042 520.289 290.562C520.112 291.083 519.854 291.539 519.516 291.93C519.182 292.315 518.779 292.617 518.305 292.836C517.836 293.049 517.305 293.156 516.711 293.156C516.117 293.156 515.583 293.049 515.109 292.836C514.635 292.617 514.229 292.315 513.891 291.93C513.557 291.539 513.302 291.083 513.125 290.562C512.948 290.042 512.859 289.477 512.859 288.867ZM514.305 288.688V288.867C514.305 289.289 514.354 289.688 514.453 290.062C514.552 290.432 514.701 290.76 514.898 291.047C515.102 291.333 515.354 291.56 515.656 291.727C515.958 291.888 516.31 291.969 516.711 291.969C517.107 291.969 517.453 291.888 517.75 291.727C518.052 291.56 518.302 291.333 518.5 291.047C518.698 290.76 518.846 290.432 518.945 290.062C519.049 289.688 519.102 289.289 519.102 288.867V288.688C519.102 288.271 519.049 287.878 518.945 287.508C518.846 287.133 518.695 286.802 518.492 286.516C518.294 286.224 518.044 285.995 517.742 285.828C517.445 285.661 517.096 285.578 516.695 285.578C516.299 285.578 515.951 285.661 515.648 285.828C515.352 285.995 515.102 286.224 514.898 286.516C514.701 286.802 514.552 287.133 514.453 287.508C514.354 287.878 514.305 288.271 514.305 288.688ZM523.812 286.172V296.25H522.359V284.547H523.688L523.812 286.172ZM529.508 288.703V288.867C529.508 289.482 529.435 290.052 529.289 290.578C529.143 291.099 528.93 291.552 528.648 291.938C528.372 292.323 528.031 292.622 527.625 292.836C527.219 293.049 526.753 293.156 526.227 293.156C525.69 293.156 525.216 293.068 524.805 292.891C524.393 292.714 524.044 292.456 523.758 292.117C523.471 291.779 523.242 291.372 523.07 290.898C522.904 290.424 522.789 289.891 522.727 289.297V288.422C522.789 287.797 522.906 287.237 523.078 286.742C523.25 286.247 523.477 285.826 523.758 285.477C524.044 285.122 524.391 284.854 524.797 284.672C525.203 284.484 525.672 284.391 526.203 284.391C526.734 284.391 527.206 284.495 527.617 284.703C528.029 284.906 528.375 285.198 528.656 285.578C528.938 285.958 529.148 286.414 529.289 286.945C529.435 287.471 529.508 288.057 529.508 288.703ZM528.055 288.867V288.703C528.055 288.281 528.01 287.885 527.922 287.516C527.833 287.141 527.695 286.812 527.508 286.531C527.326 286.245 527.091 286.021 526.805 285.859C526.518 285.693 526.177 285.609 525.781 285.609C525.417 285.609 525.099 285.672 524.828 285.797C524.562 285.922 524.336 286.091 524.148 286.305C523.961 286.513 523.807 286.753 523.688 287.023C523.573 287.289 523.487 287.565 523.43 287.852V289.875C523.534 290.24 523.68 290.583 523.867 290.906C524.055 291.224 524.305 291.482 524.617 291.68C524.93 291.872 525.323 291.969 525.797 291.969C526.188 291.969 526.523 291.888 526.805 291.727C527.091 291.56 527.326 291.333 527.508 291.047C527.695 290.76 527.833 290.432 527.922 290.062C528.01 289.688 528.055 289.289 528.055 288.867ZM536.273 290.758C536.273 290.549 536.227 290.357 536.133 290.18C536.044 289.997 535.859 289.833 535.578 289.688C535.302 289.536 534.885 289.406 534.328 289.297C533.859 289.198 533.435 289.081 533.055 288.945C532.68 288.81 532.359 288.646 532.094 288.453C531.833 288.26 531.633 288.034 531.492 287.773C531.352 287.513 531.281 287.208 531.281 286.859C531.281 286.526 531.354 286.211 531.5 285.914C531.651 285.617 531.862 285.354 532.133 285.125C532.409 284.896 532.74 284.716 533.125 284.586C533.51 284.456 533.94 284.391 534.414 284.391C535.091 284.391 535.669 284.51 536.148 284.75C536.628 284.99 536.995 285.31 537.25 285.711C537.505 286.107 537.633 286.547 537.633 287.031H536.188C536.188 286.797 536.117 286.57 535.977 286.352C535.841 286.128 535.641 285.943 535.375 285.797C535.115 285.651 534.794 285.578 534.414 285.578C534.013 285.578 533.688 285.641 533.438 285.766C533.193 285.885 533.013 286.039 532.898 286.227C532.789 286.414 532.734 286.612 532.734 286.82C532.734 286.977 532.76 287.117 532.812 287.242C532.87 287.362 532.969 287.474 533.109 287.578C533.25 287.677 533.448 287.771 533.703 287.859C533.958 287.948 534.284 288.036 534.68 288.125C535.372 288.281 535.943 288.469 536.391 288.688C536.839 288.906 537.172 289.174 537.391 289.492C537.609 289.81 537.719 290.195 537.719 290.648C537.719 291.018 537.641 291.357 537.484 291.664C537.333 291.971 537.112 292.237 536.82 292.461C536.534 292.68 536.19 292.852 535.789 292.977C535.393 293.096 534.948 293.156 534.453 293.156C533.708 293.156 533.078 293.023 532.562 292.758C532.047 292.492 531.656 292.148 531.391 291.727C531.125 291.305 530.992 290.859 530.992 290.391H532.445C532.466 290.786 532.581 291.102 532.789 291.336C532.997 291.565 533.253 291.729 533.555 291.828C533.857 291.922 534.156 291.969 534.453 291.969C534.849 291.969 535.18 291.917 535.445 291.812C535.716 291.708 535.922 291.565 536.062 291.383C536.203 291.201 536.273 290.992 536.273 290.758ZM541.336 281.625L541.234 289.789H539.93L539.82 281.625H541.336ZM539.773 292.273C539.773 292.039 539.844 291.841 539.984 291.68C540.13 291.518 540.344 291.438 540.625 291.438C540.901 291.438 541.112 291.518 541.258 291.68C541.409 291.841 541.484 292.039 541.484 292.273C541.484 292.497 541.409 292.69 541.258 292.852C541.112 293.013 540.901 293.094 540.625 293.094C540.344 293.094 540.13 293.013 539.984 292.852C539.844 292.69 539.773 292.497 539.773 292.273Z" fill="#F5F5F5"/>
</g>
</g>
<defs>
<filter id="filter0_d_1009_78494" x="470" y="267" width="95" height="47" filterUnits="userSpaceOnUse" color-interpolation-filters="sRGB">
<feFlood flood-opacity="0" result="BackgroundImageFix"/>
<feColorMatrix in="SourceAlpha" type="matrix" values="0 0 0 0 0 0 0 0 0 0 0 0 0 0 0 0 0 0 127 0" result="hardAlpha"/>
<feOffset dy="3"/>
<feGaussianBlur stdDeviation="5"/>
<feColorMatrix type="matrix" values="0 0 0 0 0.14902 0 0 0 0 0.14902 0 0 0 0 0.14902 0 0 0 0.2 0"/>
<feBlend mode="normal" in2="BackgroundImageFix" result="effect1_dropShadow_1009_78494"/>
<feBlend mode="normal" in="SourceGraphic" in2="effect1_dropShadow_1009_78494" result="shape"/>
</filter>
<clipPath id="clip0_1009_78494">
<rect width="576" height="576" fill="white"/>
</clipPath>
</defs>
</svg>
