<svg width="24" height="24" viewBox="0 0 24 24" fill="none" xmlns="http://www.w3.org/2000/svg">
<g id="Custom components">
<path id="Vector" d="M6 8C6 6.4087 6.63214 4.88258 7.75736 3.75736C8.88258 2.63214 10.4087 2 12 2C13.5913 2 15.1174 2.63214 16.2426 3.75736C17.3679 4.88258 18 6.4087 18 8C18 15 21 17 21 17H3C3 17 6 15 6 8Z" stroke="#0DA6F2" stroke-width="2" stroke-linecap="round" stroke-linejoin="round"/>
<path id="Vector_2" d="M10.2998 21C10.4672 21.3044 10.7133 21.5583 11.0123 21.7352C11.3113 21.912 11.6524 22.0053 11.9998 22.0053C12.3472 22.0053 12.6883 21.912 12.9873 21.7352C13.2864 21.5583 13.5324 21.3044 13.6998 21" stroke="#0DA6F2" stroke-width="2" stroke-linecap="round" stroke-linejoin="round"/>
<path id="Vector_3" d="M4 2C2.8 3.7 2 5.7 2 8" stroke="#0DA6F2" stroke-width="2" stroke-linecap="round" stroke-linejoin="round"/>
<path id="Vector_4" d="M22 8C22 5.7 21.2 3.7 20 2" stroke="#0DA6F2" stroke-width="2" stroke-linecap="round" stroke-linejoin="round"/>
</g>
</svg>
