<svg xmlns="http://www.w3.org/2000/svg" width="24" height="25" viewBox="0 0 24 25" fill="none">
  <path d="M6 8.5C6 6.9087 6.63214 5.38258 7.75736 4.25736C8.88258 3.13214 10.4087 2.5 12 2.5C13.5913 2.5 15.1174 3.13214 16.2426 4.25736C17.3679 5.38258 18 6.9087 18 8.5C18 15.5 21 17.5 21 17.5H3C3 17.5 6 15.5 6 8.5Z" stroke="#F2F1F1" stroke-width="2" stroke-linecap="round" stroke-linejoin="round"/>
  <path d="M10.3 21.5C10.4674 21.8044 10.7135 22.0583 11.0125 22.2352C11.3116 22.412 11.6526 22.5053 12 22.5053C12.3475 22.5053 12.6885 22.412 12.9876 22.2352C13.2866 22.0583 13.5327 21.8044 13.7 21.5" stroke="#F2F1F1" stroke-width="2" stroke-linecap="round" stroke-linejoin="round"/>
  <path d="M4 2.5C2.8 4.2 2 6.2 2 8.5" stroke="#F2F1F1" stroke-width="2" stroke-linecap="round" stroke-linejoin="round"/>
  <path d="M22 8.5C22 6.2 21.2 4.2 20 2.5" stroke="#F2F1F1" stroke-width="2" stroke-linecap="round" stroke-linejoin="round"/>
</svg>