<svg xmlns="http://www.w3.org/2000/svg" width="12" height="20" viewBox="0 0 12 20" fill="none">
  <path fillRule="evenodd" clipRule="evenodd" d="M2.66703 7.417C2.32783 7.417 1.99195 7.48381 1.67856 7.61362C1.36518 7.74343 1.08043 7.93369 0.840576 8.17354C0.600722 8.4134 0.410459 8.69814 0.280652 9.01153C0.150844 9.32491 0.0840326 9.6608 0.0840326 10C0.0840326 10.3392 0.150844 10.6751 0.280652 10.9885C0.410459 11.3019 0.600722 11.5866 0.840576 11.8265C1.08043 12.0663 1.36518 12.2566 1.67856 12.3864C1.99195 12.5162 2.32783 12.583 2.66703 12.583H5.25003V10.052C5.24963 10.0173 5.24963 9.98267 5.25003 9.948V7.417H2.66703ZM5.25003 5.917H2.66703C1.98185 5.917 1.32472 5.64481 0.840222 5.16031C0.355722 4.67581 0.0835323 4.01869 0.0835323 3.3335C0.0835323 2.64831 0.355722 1.99119 0.840222 1.50669C1.32472 1.02219 1.98185 0.75 2.66703 0.75H5.25003V5.917ZM6.75003 0.75V5.917H9.33303C10.0094 5.90369 10.6536 5.62565 11.1272 5.1426C11.6009 4.65955 11.8662 4.01002 11.8662 3.3335C11.8662 2.65698 11.6009 2.00745 11.1272 1.5244C10.6536 1.04135 10.0094 0.763308 9.33303 0.75H6.75003ZM9.33303 7.416C8.65502 7.41592 8.00416 7.68242 7.52092 8.15799C7.03767 8.63356 6.76079 9.28008 6.75003 9.958V10.041C6.75831 10.55 6.91681 11.0452 7.20562 11.4644C7.49442 11.8836 7.90067 12.2081 8.37332 12.3972C8.84597 12.5863 9.36395 12.6315 9.8622 12.5271C10.3605 12.4228 10.8168 12.1735 11.1738 11.8107C11.5309 11.4478 11.7727 10.9875 11.869 10.4877C11.9654 9.9878 11.9118 9.47061 11.7151 9.00107C11.5185 8.53153 11.1874 8.13058 10.7636 7.84857C10.3398 7.56656 9.8421 7.41607 9.33303 7.416ZM2.66703 14.083C2.15592 14.0828 1.65623 14.2342 1.23117 14.518C0.806098 14.8018 0.474745 15.2053 0.279015 15.6775C0.0832849 16.1496 0.03197 16.6692 0.131561 17.1705C0.231153 17.6718 0.477176 18.1323 0.838515 18.4938C1.19985 18.8553 1.66028 19.1015 2.16155 19.2013C2.66283 19.3011 3.18243 19.2499 3.65466 19.0544C4.12688 18.8589 4.5305 18.5277 4.81448 18.1027C5.09846 17.6777 5.25003 17.1781 5.25003 16.667V14.083H2.66703Z" fill="#F2F1F1"/>
</svg>