<svg xmlns="http://www.w3.org/2000/svg" width="24" height="24" viewBox="0 0 24 24" fill="none">
  <path fillRule="evenodd" clipRule="evenodd" d="M8.66694 9.417C8.32774 9.417 7.99185 9.48381 7.67847 9.61362C7.36509 9.74343 7.08034 9.93369 6.84048 10.1735C6.60063 10.4134 6.41037 10.6981 6.28056 11.0115C6.15075 11.3249 6.08394 11.6608 6.08394 12C6.08394 12.3392 6.15075 12.6751 6.28056 12.9885C6.41037 13.3019 6.60063 13.5866 6.84048 13.8265C7.08034 14.0663 7.36509 14.2566 7.67847 14.3864C7.99185 14.5162 8.32774 14.583 8.66694 14.583H11.2499V12.052C11.2495 12.0173 11.2495 11.9827 11.2499 11.948V9.417H8.66694ZM11.2499 7.917H8.66694C7.98175 7.917 7.32463 7.64481 6.84013 7.16031C6.35563 6.67581 6.08344 6.01869 6.08344 5.3335C6.08344 4.64831 6.35563 3.99119 6.84013 3.50669C7.32463 3.02219 7.98175 2.75 8.66694 2.75H11.2499V7.917ZM12.7499 2.75V7.917H15.3329C16.0093 7.90369 16.6535 7.62565 17.1272 7.1426C17.6008 6.65955 17.8661 6.01002 17.8661 5.3335C17.8661 4.65698 17.6008 4.00745 17.1272 3.5244C16.6535 3.04135 16.0093 2.76331 15.3329 2.75H12.7499ZM15.3329 9.416C14.6549 9.41591 14.0041 9.68242 13.5208 10.158C13.0376 10.6336 12.7607 11.2801 12.7499 11.958V12.041C12.7582 12.55 12.9167 13.0452 13.2055 13.4644C13.4943 13.8836 13.9006 14.2081 14.3732 14.3972C14.8459 14.5863 15.3639 14.6315 15.8621 14.5271C16.3604 14.4228 16.8167 14.1735 17.1737 13.8107C17.5308 13.4478 17.7726 12.9875 17.869 12.4877C17.9653 11.9878 17.9117 11.4706 17.715 11.0011C17.5184 10.5315 17.1873 10.1306 16.7635 9.84857C16.3397 9.56656 15.842 9.41607 15.3329 9.416ZM8.66694 16.083C8.15583 16.0828 7.65614 16.2342 7.23107 16.518C6.80601 16.8018 6.47465 17.2053 6.27892 17.6775C6.08319 18.1496 6.03188 18.6692 6.13147 19.1705C6.23106 19.6718 6.47708 20.1323 6.83842 20.4938C7.19976 20.8553 7.66019 21.1015 8.16146 21.2013C8.66273 21.3011 9.18234 21.2499 9.65456 21.0544C10.1268 20.8589 10.5304 20.5277 10.8144 20.1027C11.0984 19.6777 11.2499 19.1781 11.2499 18.667V16.083H8.66694Z" fill="#414040"/>
</svg>