<svg width="82" height="14" viewBox="0 0 82 14" fill="none" xmlns="http://www.w3.org/2000/svg">
<path d="M6.14528 12.2827C9.53707 12.2827 12.2867 9.53316 12.2867 6.14137C12.2867 2.74959 9.53707 0 6.14528 0C2.75349 0 0.00390625 2.74959 0.00390625 6.14137C0.00390625 9.53316 2.75349 12.2827 6.14528 12.2827Z" fill="white"/>
<path d="M6.14508 0C2.75175 0 0 2.75175 0 6.14508C0 8.78187 1.66514 11.033 3.99783 11.9045C4.21292 11.1998 4.75808 10.6436 5.45158 10.4025C4.54669 10.091 3.8977 9.23431 3.8977 8.22558C3.8977 7.45791 4.27226 6.78295 4.84709 6.36389C4.52444 5.59992 4.03862 4.90272 3.42671 4.33531C3.30803 4.40948 3.17082 4.45398 3.02248 4.45398C2.5997 4.45398 2.2548 4.10908 2.2548 3.68631C2.2548 3.26353 2.5997 2.91864 3.02248 2.91864C3.44525 2.91864 3.79015 3.26353 3.79015 3.68631C3.79015 3.79386 3.7679 3.8977 3.7271 3.99412C4.3761 4.5949 4.8953 5.3292 5.2439 6.13767C5.53688 6.00416 5.85952 5.92628 6.20071 5.92628C6.5419 5.92628 6.86825 6.00416 7.15752 6.13767C7.49871 5.35145 8.00307 4.63199 8.62982 4.03862C8.57419 3.93478 8.54452 3.8124 8.54452 3.68631C8.54452 3.26353 8.88942 2.91864 9.31219 2.91864C9.73497 2.91864 10.0799 3.26353 10.0799 3.68631C10.0799 4.10908 9.73497 4.45398 9.31219 4.45398C9.17868 4.45398 9.0563 4.4206 8.94875 4.36127C8.35167 4.92497 7.87327 5.61105 7.55434 6.3676C8.12916 6.78666 8.50373 7.46162 8.50373 8.22929C8.50373 9.23802 7.85473 10.0947 6.94984 10.4062C7.62851 10.6399 8.16625 11.1813 8.38876 11.8674C10.6695 10.9699 12.2865 8.74849 12.2865 6.14879C12.2902 2.74804 9.53841 0 6.14508 0Z" fill="#C81517"/>
<path d="M19.0433 11.1705C19.8851 11.1705 20.6602 11.0444 21.3648 10.7959C22.0694 10.5474 22.6072 10.2174 22.9743 9.80943V5.75226H18.932V7.39145H20.5897V8.92679C20.2893 9.20122 19.8258 9.34215 19.2064 9.34215C18.4833 9.34215 17.9529 9.09367 17.6155 8.60044C17.278 8.10349 17.1111 7.36178 17.1111 6.3753V5.77822C17.1148 4.83625 17.2817 4.11308 17.608 3.60501C17.9344 3.09693 18.398 2.84475 18.9913 2.84475C19.4883 2.84475 19.874 2.96343 20.1447 3.19707C20.4154 3.4307 20.5934 3.82381 20.675 4.3801H22.9669C22.8557 3.26382 22.4551 2.42198 21.7765 1.85828C21.0978 1.29458 20.141 1.01272 18.906 1.01272C18.0642 1.01272 17.3225 1.20928 16.6846 1.59868C16.0467 1.98808 15.5535 2.54807 15.2086 3.27495C14.8637 4.00182 14.6931 4.85108 14.6931 5.82273L14.7005 6.6794C14.7562 8.09236 15.1678 9.1938 15.9429 9.98373C16.7143 10.7737 17.749 11.1705 19.0433 11.1705ZM27.8029 11.1705C28.4037 11.1705 28.9674 11.0518 29.4903 10.8219C30.0132 10.5919 30.4174 10.2767 30.703 9.8836L29.6572 8.64865C29.2492 9.15301 28.6855 9.4089 27.9586 9.4089C27.521 9.4089 27.1613 9.29023 26.8869 9.05659C26.6124 8.82295 26.4307 8.4966 26.3491 8.08495H30.8958V7.19489C30.8958 6.04895 30.5954 5.15889 29.9983 4.51731C29.4013 3.87944 28.5854 3.5568 27.5544 3.5568C26.8201 3.5568 26.1896 3.71626 25.6556 4.02778C25.1216 4.34301 24.7173 4.78804 24.4392 5.35916C24.1611 5.93027 24.0238 6.59781 24.0238 7.34694V7.53608C24.0238 8.61156 24.3725 9.48678 25.0697 10.1617C25.7632 10.833 26.6792 11.1705 27.8029 11.1705ZM28.6595 6.64973H26.3528C26.4789 5.76339 26.8794 5.31836 27.547 5.31836C27.9104 5.31836 28.1849 5.41849 28.3814 5.61875C28.578 5.81902 28.6707 6.10087 28.6595 6.46801V6.64973ZM41.0461 11.0332V8.94162L41.6914 8.29633L43.2935 11.0295H45.9155L43.1748 6.70536L45.7449 3.6866H43.0005L41.2761 5.83014L41.0461 6.13424V0.601074H38.758V11.0332H41.0461ZM47.5732 14.0001C48.6487 14.0001 49.4015 13.5254 49.828 12.5723L49.9578 12.2608L52.9506 3.6866H50.4992L49.2754 7.82905L48.1184 3.6903H45.6744L48.2259 11.1037L48.0442 11.5932C47.9626 11.8343 47.8365 11.9975 47.6659 12.0902C47.4953 12.1829 47.2506 12.2311 46.9316 12.2311H46.6312V13.8666C46.9613 13.9556 47.2765 14.0001 47.5732 14.0001ZM55.4279 11.0332L55.999 9.18639H59.2626L59.8411 11.0332H62.4L58.7471 1.14994H56.5071L52.8839 11.0332H55.4279ZM58.6915 7.34694H56.5665L57.6271 3.92023L58.6915 7.34694ZM64.9293 11.0332V5.84868C65.1481 5.49637 65.4781 5.31836 65.9269 5.31836C66.32 5.31836 66.5944 5.40366 66.7427 5.57796C66.8911 5.75226 66.9653 6.02299 66.9653 6.39384V11.0332H69.2571V6.30113C69.2423 5.38141 69.0495 4.69532 68.6712 4.23917C68.2929 3.78302 67.7218 3.55309 66.9578 3.55309C66.0678 3.55309 65.3669 3.88686 64.8588 4.55069L64.7846 3.6866H62.6411V11.0332H64.9293ZM73.2105 11.1705C73.6592 11.1705 74.0857 11.1074 74.501 10.9739V9.33844C74.349 9.3644 74.1599 9.37923 73.9299 9.37923C73.637 9.37923 73.4404 9.3236 73.3403 9.21606C73.2438 9.10851 73.1919 8.91566 73.1919 8.63752V5.27757H74.4009V3.6866H73.1919V1.86569H70.9037V3.6903H69.9655V5.27757H70.9037V8.92308C70.9037 9.67963 71.0892 10.2396 71.4674 10.6142C71.8457 10.985 72.4243 11.1705 73.2105 11.1705ZM78.1466 11.1705C79.0922 11.1705 79.8636 10.9591 80.457 10.54C81.0504 10.1209 81.347 9.57579 81.347 8.90454C81.347 7.92177 80.7945 7.23939 79.6893 6.86112C79.3593 6.74987 78.9736 6.64973 78.5397 6.56814C78.1058 6.48656 77.7831 6.38272 77.5866 6.25663C77.3863 6.13054 77.2862 5.96365 77.2862 5.75968C77.2862 5.55942 77.3678 5.39624 77.5309 5.26273C77.6941 5.12922 77.8944 5.06247 78.1354 5.06247C78.7548 5.06247 79.0663 5.35916 79.0663 5.94511H81.3619C81.3619 5.22936 81.0689 4.65453 80.4792 4.21321C79.8896 3.77189 79.1145 3.55309 78.1466 3.55309C77.2454 3.55309 76.5185 3.77189 75.9622 4.20579C75.4059 4.63969 75.1278 5.19969 75.1278 5.87094C75.1278 6.25292 75.2242 6.58669 75.4208 6.88337C75.6173 7.18006 75.8992 7.42853 76.27 7.6325C76.6409 7.83647 77.1119 8.00336 77.683 8.12945C78.2541 8.25554 78.6398 8.37792 78.8438 8.49659C79.0477 8.61527 79.1479 8.77103 79.1479 8.96387C79.1479 9.16784 79.07 9.33473 78.9142 9.46082C78.7585 9.58691 78.5248 9.64996 78.2133 9.64996C77.8721 9.64996 77.594 9.57208 77.3789 9.41632C77.1638 9.26056 77.0488 9.01208 77.0377 8.67461H74.9016C74.9016 9.1048 75.0425 9.51274 75.3169 9.90214C75.5914 10.2915 75.9771 10.5993 76.4703 10.8256C76.9487 11.0518 77.5161 11.1705 78.1466 11.1705Z" fill="#FEFEFE"/>
<path d="M34.6821 11.1703C34.0813 11.1703 33.5176 11.0516 32.9947 10.8217C32.4718 10.5918 32.0676 10.2765 31.782 9.88344L32.8278 8.64849C33.2358 9.15286 33.7995 9.40875 34.5263 9.40875C34.9639 9.40875 35.3237 9.29007 35.5981 9.05643C35.8725 8.82279 36.0543 8.49644 36.1359 8.08479H31.5854V7.19474C31.5854 6.04879 31.8858 5.15874 32.4829 4.51716C33.08 3.87929 33.8959 3.55664 34.9269 3.55664C35.6612 3.55664 36.2916 3.71611 36.8256 4.02763C37.3597 4.34285 37.7639 4.78788 38.0421 5.359C38.3202 5.93012 38.4574 6.59766 38.4574 7.34679V7.53592C38.4574 8.61141 38.1088 9.48663 37.4116 10.1616C36.7181 10.8365 35.8095 11.1703 34.6821 11.1703ZM33.8254 6.64958H36.1321C36.0061 5.76323 35.6055 5.31821 34.938 5.31821C34.5745 5.31821 34.3001 5.41834 34.1036 5.6186C33.9107 5.81886 33.8143 6.10071 33.8254 6.46786V6.64958Z" fill="#FEFEFE"/>
</svg>
