<svg width="241" height="42" viewBox="0 0 241 42" fill="none" xmlns="http://www.w3.org/2000/svg">
<g id="Group">
<g id="Group_2">
<path id="Vector" d="M18.1929 36.9161C28.2345 36.9161 36.3748 28.7758 36.3748 18.7342C36.3748 8.69258 28.2345 0.552246 18.1929 0.552246C8.15126 0.552246 0.0109253 8.69258 0.0109253 18.7342C0.0109253 28.7758 8.15126 36.9161 18.1929 36.9161Z" fill="white"/>
<path id="Vector_2" d="M18.1929 0.552246C8.14674 0.552246 0 8.69899 0 18.7452C0 26.5515 4.92977 33.2161 11.8358 35.7962C12.4726 33.7101 14.0866 32.0632 16.1398 31.3496C13.4608 30.4273 11.5394 27.891 11.5394 24.9046C11.5394 22.6319 12.6483 20.6336 14.3501 19.393C13.3949 17.1312 11.9566 15.0671 10.145 13.3872C9.79365 13.6068 9.38742 13.7385 8.94824 13.7385C7.69658 13.7385 6.6755 12.7175 6.6755 11.4658C6.6755 10.2141 7.69658 9.19306 8.94824 9.19306C10.1999 9.19306 11.221 10.2141 11.221 11.4658C11.221 11.7842 11.1551 12.0916 11.0343 12.3771C12.9557 14.1558 14.4929 16.3297 15.5249 18.7232C16.3923 18.328 17.3475 18.0974 18.3576 18.0974C19.3677 18.0974 20.3339 18.328 21.1903 18.7232C22.2004 16.3956 23.6936 14.2656 25.5491 12.5089C25.3845 12.2014 25.2966 11.8391 25.2966 11.4658C25.2966 10.2141 26.3177 9.19306 27.5694 9.19306C28.821 9.19306 29.8421 10.2141 29.8421 11.4658C29.8421 12.7175 28.821 13.7385 27.5694 13.7385C27.1741 13.7385 26.8118 13.6397 26.4934 13.4641C24.7257 15.1329 23.3093 17.1641 22.3651 19.4039C24.0669 20.6446 25.1758 22.6429 25.1758 24.9156C25.1758 27.902 23.2544 30.4383 20.5755 31.3605C22.5847 32.0522 24.1767 33.6552 24.8355 35.6864C31.5878 33.0294 36.3749 26.4527 36.3749 18.7561C36.3858 8.68801 28.2391 0.552246 18.1929 0.552246Z" fill="#C81517"/>
</g>
<g id="Group_3">
<path id="GekyAnts_00000154413366427885586330000013531330348458062239_" d="M56.3796 33.6229C58.8719 33.6229 61.1666 33.2496 63.2527 32.514C65.3388 31.7784 66.9308 30.8012 68.0178 29.5935V17.582H56.0502V22.4349H60.958V26.9804C60.0687 27.7928 58.6963 28.2101 56.8627 28.2101C54.7217 28.2101 53.1517 27.4744 52.1525 26.0142C51.1534 24.5429 50.6593 22.3471 50.6593 19.4265V17.6588C50.6703 14.8701 51.1644 12.7291 52.1306 11.2249C53.0968 9.7207 54.4692 8.9741 56.2259 8.9741C57.6971 8.9741 58.839 9.32544 59.6405 10.0171C60.442 10.7089 60.969 11.8727 61.2106 13.5196H67.9958C67.6665 10.2148 66.4807 7.72245 64.4715 6.05357C62.4622 4.3847 59.6295 3.55026 55.9734 3.55026C53.481 3.55026 51.2852 4.13217 49.3967 5.28501C47.5082 6.43785 46.048 8.09575 45.0269 10.2477C44.0058 12.3997 43.5007 14.914 43.5007 17.7906L43.5227 20.3268C43.6874 24.51 44.9061 27.7709 47.2008 30.1095C49.4845 32.4481 52.5478 33.6229 56.3796 33.6229ZM82.313 33.6229C84.0917 33.6229 85.7606 33.2716 87.3087 32.5909C88.8568 31.9101 90.0535 30.9769 90.8989 29.8131L87.8027 26.1569C86.595 27.6501 84.9261 28.4077 82.7742 28.4077C81.4786 28.4077 80.4136 28.0564 79.6011 27.3647C78.7886 26.6729 78.2506 25.7068 78.0091 24.488H91.4699V21.853C91.4699 18.4603 90.5805 15.8253 88.8129 13.9258C87.0452 12.0374 84.6297 11.0822 81.5774 11.0822C79.4035 11.0822 77.537 11.5543 75.9559 12.4765C74.3749 13.4098 73.1781 14.7273 72.3547 16.4182C71.5312 18.109 71.125 20.0853 71.125 22.3031V22.8631C71.125 26.0471 72.1571 28.6383 74.2212 30.6365C76.2743 32.6238 78.9863 33.6229 82.313 33.6229ZM84.8493 20.239H78.0201C78.3934 17.6149 79.5791 16.2974 81.5554 16.2974C82.6314 16.2974 83.4439 16.5938 84.0258 17.1867C84.6077 17.7796 84.8822 18.614 84.8493 19.701V20.239ZM121.521 33.2167V27.0243L123.431 25.1139L128.174 33.2057H135.937L127.823 20.4037L135.432 11.4664H127.307L122.201 17.8125L121.521 18.7129V2.33154H114.746V33.2167H121.521ZM140.844 42.0002C144.028 42.0002 146.257 40.5949 147.52 37.7732L147.904 36.8509L156.765 11.4664H149.507L145.884 23.7305L142.458 11.4774H135.223L142.777 33.4253L142.239 34.8746C141.997 35.5882 141.624 36.0713 141.119 36.3458C140.614 36.6203 139.889 36.763 138.945 36.763H138.056V41.605C139.033 41.8685 139.966 42.0002 140.844 42.0002ZM164.099 33.2167L165.79 27.7489H175.452L177.164 33.2167H184.74L173.925 3.9565H167.294L156.567 33.2167H164.099ZM173.761 22.3031H167.47L170.61 12.1581L173.761 22.3031ZM192.228 33.2167V17.8674C192.876 16.8244 193.853 16.2974 195.182 16.2974C196.345 16.2974 197.158 16.5499 197.597 17.0659C198.036 17.582 198.256 18.3835 198.256 19.4814V33.2167H205.041V19.2069C204.997 16.484 204.426 14.4528 203.306 13.1024C202.186 11.7519 200.496 11.0712 198.234 11.0712C195.599 11.0712 193.524 12.0593 192.02 14.0246L191.8 11.4664H185.454V33.2167H192.228ZM216.745 33.6229C218.074 33.6229 219.336 33.4363 220.566 33.041V28.1991C220.116 28.2759 219.556 28.3199 218.875 28.3199C218.008 28.3199 217.426 28.1552 217.13 27.8368C216.844 27.5184 216.69 26.9474 216.69 26.124V16.1766H220.27V11.4664H216.69V6.07553H209.916V11.4774H207.138V16.1766H209.916V26.9694C209.916 29.2092 210.465 30.8671 211.585 31.976C212.705 33.074 214.418 33.6229 216.745 33.6229ZM231.359 33.6229C234.159 33.6229 236.442 32.9971 238.199 31.7564C239.956 30.5157 240.834 28.9018 240.834 26.9145C240.834 24.0049 239.198 21.9847 235.926 20.8648C234.949 20.5354 233.807 20.239 232.523 19.9974C231.238 19.7559 230.283 19.4485 229.701 19.0752C229.108 18.7019 228.812 18.2078 228.812 17.6039C228.812 17.011 229.053 16.528 229.536 16.1327C230.019 15.7374 230.612 15.5398 231.326 15.5398C233.159 15.5398 234.082 16.4182 234.082 18.1529H240.878C240.878 16.0339 240.011 14.3321 238.265 13.0255C236.519 11.719 234.224 11.0712 231.359 11.0712C228.691 11.0712 226.539 11.719 224.892 13.0036C223.245 14.2881 222.422 15.946 222.422 17.9333C222.422 19.0642 222.707 20.0523 223.289 20.9307C223.871 21.8091 224.705 22.5447 225.803 23.1486C226.901 23.7524 228.296 24.2465 229.986 24.6198C231.677 24.9931 232.819 25.3554 233.423 25.7068C234.027 26.0581 234.323 26.5192 234.323 27.0902C234.323 27.694 234.093 28.1881 233.632 28.5614C233.17 28.9347 232.479 29.1214 231.556 29.1214C230.546 29.1214 229.723 28.8908 229.086 28.4297C228.449 27.9685 228.109 27.2329 228.076 26.2338H221.752C221.752 27.5074 222.169 28.7151 222.982 29.868C223.794 31.0208 224.936 31.9321 226.396 32.6018C227.812 33.2716 229.492 33.6229 231.359 33.6229Z" fill="black"/>
<path id="e_00000145763300477183929130000001545453704636790151_" d="M102.68 33.6228C100.901 33.6228 99.2325 33.2715 97.6844 32.5907C96.1363 31.91 94.9395 30.9768 94.0941 29.8129L97.1903 26.1568C98.3981 27.65 100.067 28.4076 102.219 28.4076C103.514 28.4076 104.579 28.0562 105.392 27.3645C106.204 26.6728 106.742 25.7066 106.984 24.4879H93.5122V21.8529C93.5122 18.4602 94.4015 15.8251 96.1692 13.9257C97.9369 12.0372 100.352 11.082 103.405 11.082C105.579 11.082 107.445 11.5541 109.026 12.4764C110.607 13.4097 111.804 14.7272 112.627 16.418C113.451 18.1089 113.857 20.0852 113.857 22.303V22.863C113.857 26.047 112.825 28.6381 110.761 30.6364C108.708 32.6347 106.018 33.6228 102.68 33.6228ZM100.144 20.2389H106.973C106.6 17.6148 105.414 16.2973 103.438 16.2973C102.362 16.2973 101.549 16.5937 100.967 17.1866C100.396 17.7795 100.111 18.6139 100.144 19.7009V20.2389Z" fill="black"/>
</g>
</g>
</svg>
