
<svg id="Layer_1" data-name="Layer 1" xmlns="http://www.w3.org/2000/svg" viewBox="0 0 459.58 459.58">
  <defs>
    <style>
      .cls-1 {
        fill: #fff;
      }

      .cls-2 {
        fill: #c81517;
      }
    </style>
  </defs>
  <circle class="cls-1" cx="229.84" cy="229.79" r="165.6"/>
  <path class="cls-2" d="M229.84,64.19c-91.5,0-165.7,74.2-165.7,165.7,0,71.1,44.9,131.8,107.8,155.3,5.8-19,20.5-34,39.2-40.5-24.4-8.4-41.9-31.5-41.9-58.7,0-20.7,10.1-38.9,25.6-50.2-8.7-20.6-21.8-39.4-38.3-54.7-3.2,2-6.9,3.2-10.9,3.2-11.4,0-20.7-9.3-20.7-20.7s9.3-20.7,20.7-20.7,20.7,9.3,20.7,20.7c0,2.9-.6,5.7-1.7,8.3,17.5,16.2,31.5,36,40.9,57.8,7.9-3.6,16.6-5.7,25.8-5.7s18,2.1,25.8,5.7c9.2-21.2,22.8-40.6,39.7-56.6-1.5-2.8-2.3-6.1-2.3-9.5,0-11.4,9.3-20.7,20.7-20.7s20.7,9.3,20.7,20.7-9.3,20.7-20.7,20.7c-3.6,0-6.9-.9-9.8-2.5-16.1,15.2-29,33.7-37.6,54.1,15.5,11.3,25.6,29.5,25.6,50.2,0,27.2-17.5,50.3-41.9,58.7,18.3,6.3,32.8,20.9,38.8,39.4,61.5-24.2,105.1-84.1,105.1-154.2,.1-91.7-74.1-165.8-165.6-165.8Z"/>
</svg>