<svg width="140" height="32" viewBox="0 0 140 32" fill="none" xmlns="http://www.w3.org/2000/svg">
<path d="M16.0051 27.5318C22.3733 27.5318 27.5357 22.3694 27.5357 16.0012C27.5357 9.6331 22.3733 4.4707 16.0051 4.4707C9.637 4.4707 4.47461 9.6331 4.47461 16.0012C4.47461 22.3694 9.637 27.5318 16.0051 27.5318Z" fill="white"/>
<path d="M16.0023 4.4707C9.6313 4.4707 4.46484 9.63716 4.46484 16.0082C4.46484 20.9588 7.59118 25.1853 11.9708 26.8215C12.3747 25.4986 13.3982 24.4542 14.7003 24.0016C13.0013 23.4167 11.7828 21.8083 11.7828 19.9144C11.7828 18.4731 12.4861 17.2058 13.5653 16.419C12.9596 14.9846 12.0474 13.6756 10.8985 12.6103C10.6757 12.7496 10.4181 12.8331 10.1396 12.8331C9.34582 12.8331 8.69827 12.1856 8.69827 11.3918C8.69827 10.598 9.34582 9.95049 10.1396 9.95049C10.9334 9.95049 11.5809 10.598 11.5809 11.3918C11.5809 11.5937 11.5391 11.7887 11.4625 11.9697C12.681 13.0977 13.6558 14.4764 14.3104 15.9943C14.8604 15.7436 15.4662 15.5974 16.1068 15.5974C16.7474 15.5974 17.3601 15.7436 17.9032 15.9943C18.5438 14.5181 19.4907 13.1673 20.6675 12.0533C20.563 11.8583 20.5073 11.6285 20.5073 11.3918C20.5073 10.598 21.1549 9.95049 21.9486 9.95049C22.7424 9.95049 23.3899 10.598 23.3899 11.3918C23.3899 12.1856 22.7424 12.8331 21.9486 12.8331C21.698 12.8331 21.4682 12.7705 21.2663 12.659C20.1452 13.7174 19.247 15.0055 18.6482 16.426C19.7275 17.2128 20.4307 18.48 20.4307 19.9213C20.4307 21.8152 19.2122 23.4237 17.5133 24.0085C18.7875 24.4472 19.7971 25.4638 20.2149 26.7519C24.497 25.0669 27.5329 20.8961 27.5329 16.0152C27.5398 9.6302 22.3734 4.4707 16.0023 4.4707Z" fill="#C81517"/>
<path d="M42.9091 13.1562C42.8097 12.8106 42.67 12.5052 42.4901 12.2401C42.3101 11.9702 42.09 11.7429 41.8295 11.5582C41.5739 11.3688 41.2803 11.2244 40.9489 11.125C40.6222 11.0256 40.2599 10.9759 39.8622 10.9759C39.1188 10.9759 38.4654 11.1605 37.902 11.5298C37.3433 11.8991 36.9077 12.4366 36.5952 13.142C36.2827 13.8428 36.1264 14.6998 36.1264 15.7131C36.1264 16.7263 36.2803 17.5881 36.5881 18.2983C36.8958 19.0085 37.3314 19.5507 37.8949 19.9247C38.4583 20.294 39.1236 20.4787 39.8906 20.4787C40.5866 20.4787 41.1809 20.3556 41.6733 20.1094C42.1705 19.8584 42.5492 19.5057 42.8097 19.0511C43.0748 18.5966 43.2074 18.0592 43.2074 17.4389L43.8324 17.5312H40.0824V15.2159H46.169V17.0483C46.169 18.3267 45.8991 19.4252 45.3594 20.3438C44.8196 21.2576 44.0762 21.9631 43.1293 22.4602C42.1823 22.9527 41.098 23.1989 39.8764 23.1989C38.5128 23.1989 37.3149 22.8982 36.2827 22.2969C35.2505 21.6908 34.4455 20.8314 33.8679 19.7188C33.295 18.6013 33.0085 17.2756 33.0085 15.7415C33.0085 14.5625 33.179 13.5114 33.5199 12.5881C33.8655 11.66 34.3485 10.8741 34.9688 10.2301C35.589 9.58617 36.3111 9.09612 37.1349 8.75994C37.9588 8.42377 38.8513 8.25568 39.8125 8.25568C40.6364 8.25568 41.4034 8.37642 42.1136 8.6179C42.8239 8.85464 43.4536 9.19081 44.0028 9.62642C44.5568 10.062 45.009 10.5805 45.3594 11.1818C45.7098 11.7784 45.9347 12.4366 46.0341 13.1562H42.9091ZM53.3938 23.2131C52.2717 23.2131 51.3058 22.9858 50.4961 22.5312C49.6912 22.072 49.0709 21.4233 48.6353 20.5852C48.1997 19.7424 47.9819 18.7457 47.9819 17.5952C47.9819 16.473 48.1997 15.4882 48.6353 14.6406C49.0709 13.7931 49.6841 13.1326 50.4748 12.6591C51.2702 12.1856 52.203 11.9489 53.2731 11.9489C53.9928 11.9489 54.6628 12.0649 55.283 12.2969C55.908 12.5241 56.4525 12.8674 56.9165 13.3267C57.3853 13.786 57.7499 14.3636 58.0103 15.0597C58.2707 15.7509 58.4009 16.5606 58.4009 17.4886V18.3196H49.1893V16.4446H55.5529C55.5529 16.009 55.4582 15.6231 55.2688 15.2869C55.0794 14.9508 54.8166 14.688 54.4805 14.4986C54.149 14.3045 53.7631 14.2074 53.3228 14.2074C52.8635 14.2074 52.4563 14.3139 52.1012 14.527C51.7508 14.7353 51.4762 15.017 51.2773 15.3722C51.0785 15.7225 50.9767 16.1132 50.9719 16.544V18.3267C50.9719 18.8665 51.0714 19.3329 51.2702 19.7259C51.4738 20.1188 51.7603 20.4219 52.1296 20.6349C52.4989 20.848 52.9369 20.9545 53.4435 20.9545C53.7797 20.9545 54.0875 20.9072 54.3668 20.8125C54.6462 20.7178 54.8853 20.5758 55.0842 20.3864C55.283 20.197 55.4345 19.965 55.5387 19.6903L58.337 19.875C58.195 20.5473 57.9038 21.1345 57.4634 21.6364C57.0278 22.1335 56.4644 22.5218 55.7731 22.8011C55.0865 23.0758 54.2934 23.2131 53.3938 23.2131ZM64.4663 23.1989C63.8034 23.1989 63.1973 23.116 62.6481 22.9503C62.0988 22.7798 61.6159 22.5526 61.1992 22.2685C60.7873 21.9796 60.4464 21.6553 60.1765 21.2955L61.6467 19.669C61.9923 20.081 62.3924 20.3722 62.8469 20.5426C63.3015 20.7131 63.7513 20.7983 64.1964 20.7983C64.7693 20.7983 65.2546 20.6847 65.6523 20.4574C66.0501 20.2301 66.3555 19.9034 66.5685 19.4773C66.7816 19.0464 66.8858 18.5303 66.881 17.929V17.5455C66.881 17.1572 66.8503 16.7737 66.7887 16.3949C66.7272 16.0114 66.6183 15.6657 66.462 15.358C66.3105 15.0455 66.0951 14.7969 65.8157 14.6122C65.5363 14.4228 65.1812 14.3281 64.7504 14.3281C64.3858 14.3281 64.0638 14.4062 63.7844 14.5625C63.5098 14.714 63.292 14.9437 63.131 15.2514C62.9701 15.5592 62.8801 15.9474 62.8612 16.4162V16.5582H68.5998V18.5256H59.9492V17.2685C59.9492 16.151 60.141 15.1946 60.5245 14.3991C60.908 13.6037 61.4573 12.9976 62.1722 12.581C62.8872 12.1596 63.7347 11.9489 64.7148 11.9489C65.8323 11.9489 66.7745 12.1951 67.5415 12.6875C68.3133 13.1799 68.8957 13.8499 69.2887 14.6974C69.6864 15.5402 69.8853 16.4896 69.8853 17.5455V17.929C69.8853 18.6676 69.7622 19.3565 69.516 19.9957C69.2698 20.6349 68.9123 21.1937 68.4435 21.6719C67.9748 22.1501 67.4042 22.5241 66.7319 22.794C66.0643 23.0639 65.3091 23.1989 64.4663 23.1989ZM74.6012 19.8608L74.6083 16.2315H75.0487L78.543 12.0909H82.016L77.3214 17.5739H76.604L74.6012 19.8608ZM71.8597 23V8.45455H74.8853V23H71.8597ZM78.6779 23L75.4677 18.2486L77.4847 16.1108L82.2219 23H78.6779ZM85.544 27.0909C85.1605 27.0909 84.8007 27.0601 84.4645 26.9986C84.133 26.9418 83.8584 26.8684 83.6406 26.7784L84.3224 24.5199C84.6776 24.6288 84.9972 24.688 85.2812 24.6974C85.5701 24.7069 85.8187 24.6406 86.027 24.4986C86.2401 24.3565 86.4129 24.1151 86.5455 23.7741L86.723 23.3125L82.8097 12.0909H85.9915L88.25 20.1023H88.3636L90.6435 12.0909H93.8466L89.6065 24.179C89.4029 24.7661 89.1259 25.2775 88.7756 25.7131C88.4299 26.1534 87.992 26.492 87.4616 26.7287C86.9313 26.9702 86.2921 27.0909 85.544 27.0909ZM96.5916 23H93.2962L98.3175 8.45455H102.281L107.295 23H103.999L100.356 11.7784H100.242L96.5916 23ZM96.3857 17.2827H104.17V19.6832H96.3857V17.2827ZM112.014 16.6932V23H108.989V12.0909H111.872V14.0156H112C112.241 13.3812 112.646 12.8793 113.214 12.5099C113.783 12.1359 114.472 11.9489 115.281 11.9489C116.039 11.9489 116.699 12.1146 117.263 12.446C117.826 12.7775 118.264 13.2509 118.577 13.8665C118.889 14.4773 119.045 15.2064 119.045 16.054V23H116.02V16.5938C116.025 15.9261 115.854 15.4053 115.509 15.0312C115.163 14.6525 114.687 14.4631 114.081 14.4631C113.674 14.4631 113.314 14.5507 113.001 14.7259C112.694 14.901 112.452 15.1567 112.277 15.4929C112.107 15.8243 112.019 16.2244 112.014 16.6932ZM127.233 12.0909V14.3636H120.663V12.0909H127.233ZM122.154 9.47727H125.18V19.6477C125.18 19.9271 125.223 20.1449 125.308 20.3011C125.393 20.4527 125.511 20.5592 125.663 20.6207C125.819 20.6823 125.999 20.7131 126.203 20.7131C126.345 20.7131 126.487 20.7012 126.629 20.6776C126.771 20.6491 126.88 20.6278 126.956 20.6136L127.431 22.8651C127.28 22.9124 127.067 22.9669 126.792 23.0284C126.518 23.0947 126.184 23.1349 125.791 23.1491C125.062 23.1776 124.422 23.0805 123.873 22.858C123.329 22.6354 122.905 22.2898 122.602 21.821C122.299 21.3523 122.15 20.7604 122.154 20.0455V9.47727ZM138.143 15.2017L135.374 15.3722C135.326 15.1354 135.224 14.9223 135.068 14.733C134.912 14.5388 134.706 14.3849 134.45 14.2713C134.199 14.1529 133.899 14.0938 133.548 14.0938C133.08 14.0938 132.684 14.1932 132.362 14.392C132.04 14.5862 131.879 14.8466 131.879 15.1733C131.879 15.4337 131.983 15.6539 132.192 15.8338C132.4 16.0137 132.758 16.1581 133.264 16.267L135.239 16.6648C136.299 16.8826 137.09 17.233 137.611 17.7159C138.132 18.1989 138.392 18.8333 138.392 19.6193C138.392 20.3343 138.181 20.9616 137.76 21.5014C137.343 22.0412 136.77 22.4626 136.041 22.7656C135.317 23.0639 134.481 23.2131 133.534 23.2131C132.09 23.2131 130.939 22.9124 130.082 22.3111C129.23 21.705 128.731 20.8812 128.584 19.8395L131.56 19.6832C131.65 20.1236 131.867 20.4598 132.213 20.6918C132.559 20.919 133.001 21.0327 133.541 21.0327C134.071 21.0327 134.498 20.9309 134.82 20.7273C135.146 20.5189 135.312 20.2514 135.317 19.9247C135.312 19.6501 135.196 19.4252 134.969 19.25C134.741 19.0701 134.391 18.9328 133.918 18.8381L132.028 18.4616C130.963 18.2486 130.17 17.8793 129.649 17.3537C129.133 16.8281 128.875 16.1581 128.875 15.3438C128.875 14.643 129.064 14.0393 129.443 13.5327C129.827 13.026 130.364 12.6354 131.055 12.3608C131.751 12.0862 132.566 11.9489 133.499 11.9489C134.876 11.9489 135.961 12.2401 136.751 12.8224C137.547 13.4048 138.011 14.1979 138.143 15.2017Z" fill="white"/>
</svg>
