<svg xmlns="http://www.w3.org/2000/svg" width="19" height="18" viewBox="0 0 19 18" fill="none">
  <g clipPath="url(#clip0_366_4024)">
    <path fillRule="evenodd" clipRule="evenodd" d="M9.66686 0.375C7.53028 0.376109 5.46375 1.13284 3.83681 2.50989C2.20986 3.88694 1.12858 5.79451 0.786315 7.8915C0.444046 9.98849 0.863102 12.1382 1.96856 13.9561C3.07402 15.7741 4.79379 17.1418 6.82035 17.8147C7.26745 17.8977 7.43585 17.6206 7.43585 17.385C7.43585 17.1494 7.42691 16.4663 7.42393 15.7194C4.9202 16.2603 4.39115 14.6629 4.39115 14.6629C3.9828 13.6256 3.39263 13.3529 3.39263 13.3529C2.57594 12.7987 3.45374 12.8091 3.45374 12.8091C4.35836 12.8728 4.83377 13.7323 4.83377 13.7323C5.63556 15.1 6.93958 14.7044 7.45224 14.4732C7.53272 13.8938 7.7667 13.4996 8.02453 13.2759C6.02453 13.0506 3.92319 12.283 3.92319 8.85407C3.91079 7.96478 4.24267 7.10479 4.85016 6.45201C4.75776 6.22677 4.44927 5.31692 4.93809 4.08107C4.93809 4.08107 5.69368 3.84102 7.4135 4.99833C8.88866 4.59722 10.4451 4.59722 11.9202 4.99833C13.6385 3.84102 14.3926 4.08107 14.3926 4.08107C14.8829 5.31396 14.5745 6.22381 14.4821 6.45201C15.0915 7.10489 15.424 7.96639 15.4105 8.85703C15.4105 12.2934 13.3047 13.0506 11.3017 13.2714C11.6236 13.55 11.9113 14.0938 11.9113 14.9296C11.9113 16.1269 11.9008 17.0901 11.9008 17.385C11.9008 17.6236 12.0633 17.9022 12.5193 17.8147C14.5461 17.1417 16.2661 15.7738 17.3715 13.9555C18.4769 12.1372 18.8958 9.98722 18.5531 7.89004C18.2105 5.79285 17.1286 3.88527 15.5012 2.50845C13.8737 1.13164 11.8067 0.375406 9.66983 0.375H9.66686Z" fill="#414040"/>
    <path d="M4.07504 13.224C4.05567 13.2684 3.98414 13.2818 3.92601 13.2506C3.86789 13.2195 3.82468 13.1617 3.84554 13.1158C3.8664 13.0699 3.93645 13.058 3.99457 13.0891C4.05269 13.1202 4.0974 13.1795 4.07504 13.224Z" fill="#414040"/>
    <path d="M4.44017 13.6286C4.40931 13.6441 4.374 13.6484 4.34028 13.6408C4.30657 13.6332 4.27656 13.6143 4.25537 13.5871C4.19725 13.5249 4.18532 13.4389 4.23003 13.4004C4.27474 13.3619 4.35522 13.3797 4.41335 13.4419C4.47147 13.5041 4.48488 13.5901 4.44017 13.6286Z" fill="#414040"/>
    <path d="M4.7949 14.1427C4.73976 14.1812 4.64586 14.1427 4.5937 14.0657C4.57928 14.0518 4.56781 14.0353 4.55998 14.0169C4.55214 13.9986 4.5481 13.9789 4.5481 13.959C4.5481 13.939 4.55214 13.9193 4.55998 13.901C4.56781 13.8827 4.57928 13.8661 4.5937 13.8523C4.64885 13.8152 4.74274 13.8523 4.7949 13.9278C4.84706 14.0034 4.84855 14.1042 4.7949 14.1427Z" fill="#414040"/>
    <path d="M5.27621 14.6407C5.22703 14.6955 5.12718 14.6807 5.04522 14.6066C4.96325 14.5325 4.94387 14.4317 4.99305 14.3784C5.04223 14.3251 5.14208 14.3399 5.22703 14.4125C5.31198 14.4851 5.32837 14.5873 5.27621 14.6407Z" fill="#414040"/>
    <path d="M5.95132 14.931C5.92896 15.0007 5.82762 15.0318 5.72628 15.0022C5.62494 14.9725 5.55787 14.8896 5.57725 14.8184C5.59662 14.7473 5.69945 14.7147 5.80229 14.7473C5.90512 14.7799 5.97069 14.8584 5.95132 14.931Z" fill="#414040"/>
    <path d="M6.68756 14.9815C6.68756 15.0541 6.60411 15.1164 6.49681 15.1178C6.3895 15.1193 6.30157 15.06 6.30157 14.9874C6.30157 14.9148 6.38503 14.8526 6.49233 14.8511C6.59963 14.8496 6.68756 14.9074 6.68756 14.9815Z" fill="#414040"/>
    <path d="M7.37311 14.8673C7.38652 14.9399 7.31201 15.0155 7.2047 15.0333C7.0974 15.0511 7.00351 15.0081 6.9901 14.937C6.97668 14.8658 7.05418 14.7888 7.1585 14.7695C7.26283 14.7503 7.3597 14.7947 7.37311 14.8673Z" fill="#414040"/>
  </g>
  <defs>
    <clipPath id="clip0_366_4024">
      <rect width="18" height="18" fill="white" transform="translate(0.666687)"/>
    </clipPath>
  </defs>
</svg>