<svg width="236" height="28" viewBox="0 0 236 28" fill="none" xmlns="http://www.w3.org/2000/svg">
<path d="M0 7.66815L9.99991 0.302246V3.77839L0 11.1443V7.66815Z" fill="white"/>
<path d="M20 7.66815L10.0001 0.302246V3.77839L20 11.1443V7.66815Z" fill="white"/>
<path d="M0 15.6684L9.99991 8.30249V11.7786L0 19.1445V15.6684Z" fill="white"/>
<path d="M20 15.6684L10.0001 8.30249V11.7786L20 19.1445V15.6684Z" fill="white"/>
<path d="M5.25049 11.9603L14.0004 5.51514V8.55676L5.25049 15.0019V11.9603Z" fill="white"/>
<path d="M22.7505 11.9603L14.0006 5.51514V8.55676L22.7505 15.0019V11.9603Z" fill="white"/>
<path d="M5.25 18.9601L13.9999 12.5149V15.5565L5.25 22.0017V18.9601Z" fill="white"/>
<path d="M22.75 18.9603L14.0001 12.5151V15.5568L22.75 22.0019V18.9603Z" fill="white"/>
<rect x="0.000488281" width="27.9999" height="27.9999" rx="1.99999" fill="white"/>
<rect x="0.000488281" width="27.9999" height="27.9999" rx="1.99999" fill="#181718"/>
<path d="M6.00049 12.3558L14.0002 6.46313V9.244L6.00049 15.1366V12.3558Z" fill="white"/>
<path d="M22 12.3558L14.0003 6.46313V9.244L22 15.1366V12.3558Z" fill="white"/>
<path d="M6.00049 18.7557L14.0002 12.863V15.6439L6.00049 21.5365V18.7557Z" fill="white"/>
<path d="M22 18.7557L14.0003 12.863V15.6439L22 21.5365V18.7557Z" fill="white"/>
<path d="M46.792 26.318C45.848 26.318 44.976 26.166 44.176 25.862C43.376 25.558 42.688 25.134 42.112 24.59C41.536 24.062 41.104 23.438 40.816 22.718L43.312 21.686C43.536 22.294 43.944 22.798 44.536 23.198C45.144 23.598 45.888 23.798 46.768 23.798C47.456 23.798 48.072 23.662 48.616 23.39C49.16 23.134 49.592 22.75 49.912 22.238C50.232 21.742 50.392 21.1421 50.392 20.4381V17.5101L50.872 18.0621C50.424 18.8941 49.8 19.5261 49 19.9581C48.216 20.3901 47.328 20.6061 46.336 20.6061C45.136 20.6061 44.056 20.3261 43.096 19.7661C42.136 19.2061 41.376 18.4381 40.816 17.4621C40.272 16.4861 40 15.3901 40 14.1741C40 12.9421 40.272 11.8461 40.816 10.8861C41.376 9.92609 42.128 9.16609 43.072 8.6061C44.016 8.0461 45.096 7.7661 46.312 7.7661C47.304 7.7661 48.184 7.9821 48.952 8.4141C49.736 8.8301 50.376 9.43809 50.872 10.2381L50.512 10.9101V8.0541H53.08V20.4381C53.08 21.5581 52.808 22.558 52.264 23.438C51.736 24.334 51 25.038 50.056 25.55C49.112 26.062 48.024 26.318 46.792 26.318ZM46.648 18.0861C47.368 18.0861 48.008 17.9181 48.568 17.5821C49.128 17.2301 49.568 16.7661 49.888 16.1901C50.224 15.5981 50.392 14.9341 50.392 14.1981C50.392 13.4621 50.224 12.7981 49.888 12.2061C49.552 11.6141 49.104 11.1501 48.544 10.8141C47.984 10.4621 47.352 10.2861 46.648 10.2861C45.912 10.2861 45.256 10.4621 44.68 10.8141C44.104 11.1501 43.648 11.6141 43.312 12.2061C42.992 12.7821 42.832 13.4461 42.832 14.1981C42.832 14.9181 42.992 15.5741 43.312 16.1661C43.648 16.7581 44.104 17.2301 44.68 17.5821C45.256 17.9181 45.912 18.0861 46.648 18.0861Z" fill="#272625"/>
<path d="M56.2545 21.0381V2.87012H58.9665V21.0381H56.2545Z" fill="#272625"/>
<path d="M66.7693 21.3261C65.7933 21.3261 64.9373 21.1101 64.2013 20.6781C63.4653 20.2301 62.8893 19.6141 62.4733 18.8301C62.0733 18.0301 61.8733 17.1101 61.8733 16.0701V8.0541H64.5853V15.8301C64.5853 16.4221 64.7053 16.9421 64.9453 17.3901C65.1853 17.8381 65.5213 18.1901 65.9533 18.4461C66.3853 18.6861 66.8813 18.8061 67.4413 18.8061C68.0173 18.8061 68.5213 18.6781 68.9533 18.4221C69.3853 18.1661 69.7213 17.8061 69.9613 17.3421C70.2173 16.8781 70.3453 16.3341 70.3453 15.7101V8.0541H73.0333V21.0381H70.4653V18.4941L70.7533 18.8301C70.4493 19.6301 69.9453 20.2461 69.2413 20.6781C68.5373 21.1101 67.7133 21.3261 66.7693 21.3261Z" fill="#272625"/>
<path d="M82.2957 21.3261C80.9997 21.3261 79.8477 21.0301 78.8397 20.4381C77.8477 19.8301 77.0717 19.0141 76.5117 17.9901C75.9517 16.9501 75.6717 15.7901 75.6717 14.5101C75.6717 13.1981 75.9517 12.0381 76.5117 11.0301C77.0877 10.0221 77.8557 9.23009 78.8157 8.6541C79.7757 8.0621 80.8637 7.7661 82.0797 7.7661C83.0557 7.7661 83.9277 7.9341 84.6957 8.2701C85.4637 8.6061 86.1117 9.07009 86.6397 9.66209C87.1677 10.2381 87.5677 10.9021 87.8397 11.6541C88.1277 12.4061 88.2717 13.2061 88.2717 14.0541C88.2717 14.2621 88.2637 14.4781 88.2477 14.7021C88.2317 14.9261 88.1997 15.1341 88.1517 15.3261H77.8077V13.1661H86.6157L85.3197 14.1501C85.4797 13.3661 85.4237 12.6701 85.1517 12.0621C84.8957 11.4381 84.4957 10.9501 83.9517 10.5981C83.4237 10.2301 82.7997 10.0461 82.0797 10.0461C81.3597 10.0461 80.7197 10.2301 80.1597 10.5981C79.5997 10.9501 79.1677 11.4621 78.8637 12.1341C78.5597 12.7901 78.4397 13.5901 78.5037 14.5341C78.4237 15.4141 78.5437 16.1821 78.8637 16.8381C79.1997 17.4941 79.6637 18.0061 80.2557 18.3741C80.8637 18.7421 81.5517 18.9261 82.3197 18.9261C83.1037 18.9261 83.7677 18.7501 84.3117 18.3981C84.8717 18.0461 85.3117 17.5901 85.6317 17.0301L87.8397 18.1101C87.5837 18.7181 87.1837 19.2701 86.6397 19.7661C86.1117 20.2461 85.4717 20.6301 84.7197 20.9181C83.9837 21.1901 83.1757 21.3261 82.2957 21.3261Z" fill="#272625"/>
<path d="M95.7184 21.3261C94.3904 21.3261 93.2224 20.9981 92.2144 20.3421C91.2224 19.6861 90.5264 18.8061 90.1264 17.7021L92.2144 16.7181C92.5664 17.4541 93.0464 18.0381 93.6544 18.4701C94.2784 18.9021 94.9664 19.1181 95.7184 19.1181C96.3584 19.1181 96.8784 18.9741 97.2784 18.6861C97.6784 18.3981 97.8784 18.0061 97.8784 17.5101C97.8784 17.1901 97.7904 16.9341 97.6144 16.7421C97.4384 16.5341 97.2144 16.3661 96.9424 16.2381C96.6864 16.1101 96.4224 16.0141 96.1504 15.9501L94.1104 15.3741C92.9904 15.0541 92.1504 14.5741 91.5904 13.9341C91.0464 13.2781 90.7744 12.5181 90.7744 11.6541C90.7744 10.8701 90.9744 10.1901 91.3744 9.61409C91.7744 9.0221 92.3264 8.5661 93.0304 8.2461C93.7344 7.9261 94.5264 7.7661 95.4064 7.7661C96.5904 7.7661 97.6464 8.0621 98.5744 8.6541C99.5024 9.23009 100.158 10.0381 100.542 11.0781L98.4544 12.0621C98.1984 11.4381 97.7904 10.9421 97.2304 10.5741C96.6864 10.2061 96.0704 10.0221 95.3824 10.0221C94.7904 10.0221 94.3184 10.1661 93.9664 10.4541C93.6144 10.7261 93.4384 11.0861 93.4384 11.5341C93.4384 11.8381 93.5184 12.0941 93.6784 12.3021C93.8384 12.4941 94.0464 12.6541 94.3024 12.7821C94.5584 12.8941 94.8224 12.9901 95.0944 13.0701L97.2064 13.6941C98.2784 13.9981 99.1024 14.4781 99.6784 15.1341C100.254 15.7741 100.542 16.5421 100.542 17.4381C100.542 18.2061 100.334 18.8861 99.9184 19.4781C99.5184 20.0541 98.9584 20.5101 98.2384 20.8461C97.5184 21.1661 96.6784 21.3261 95.7184 21.3261Z" fill="#272625"/>
<path d="M108.816 21.1821C107.456 21.1821 106.4 20.7981 105.648 20.0301C104.896 19.2621 104.52 18.1821 104.52 16.7901V10.5021H102.24V8.0541H102.6C103.208 8.0541 103.68 7.8781 104.016 7.5261C104.352 7.1741 104.52 6.6941 104.52 6.08611V5.07811H107.232V8.0541H110.184V10.5021H107.232V16.6701C107.232 17.1181 107.304 17.5021 107.448 17.8221C107.592 18.1261 107.824 18.3661 108.144 18.5421C108.464 18.7021 108.88 18.7821 109.392 18.7821C109.52 18.7821 109.664 18.7741 109.824 18.7581C109.984 18.7421 110.136 18.7261 110.28 18.7101V21.0381C110.056 21.0701 109.808 21.1021 109.536 21.1341C109.264 21.1661 109.024 21.1821 108.816 21.1821Z" fill="#272625"/>
<path d="M116.697 21.3261C115.817 21.3261 115.041 21.1741 114.369 20.8701C113.713 20.5501 113.201 20.1181 112.833 19.5741C112.465 19.0141 112.281 18.3581 112.281 17.6061C112.281 16.9021 112.433 16.2701 112.737 15.7101C113.057 15.1501 113.545 14.6781 114.201 14.2941C114.857 13.9101 115.681 13.6381 116.673 13.4781L121.185 12.7341V14.8701L117.201 15.5661C116.481 15.6941 115.953 15.9261 115.617 16.2621C115.281 16.5821 115.113 16.9981 115.113 17.5101C115.113 18.0061 115.297 18.4141 115.665 18.7341C116.049 19.0381 116.537 19.1901 117.129 19.1901C117.865 19.1901 118.505 19.0301 119.049 18.7101C119.609 18.3901 120.041 17.9661 120.345 17.4381C120.649 16.8941 120.801 16.2941 120.801 15.6381V12.3021C120.801 11.6621 120.561 11.1421 120.081 10.7421C119.617 10.3261 118.993 10.1181 118.209 10.1181C117.489 10.1181 116.857 10.3101 116.313 10.6941C115.785 11.0621 115.393 11.5421 115.137 12.1341L112.881 11.0061C113.121 10.3661 113.513 9.80609 114.057 9.32609C114.601 8.8301 115.233 8.4461 115.953 8.1741C116.689 7.9021 117.465 7.7661 118.281 7.7661C119.305 7.7661 120.209 7.9581 120.993 8.3421C121.793 8.7261 122.409 9.26209 122.841 9.95009C123.289 10.6221 123.513 11.4061 123.513 12.3021V21.0381H120.921V18.6861L121.473 18.7581C121.169 19.2861 120.777 19.7421 120.297 20.1261C119.833 20.5101 119.297 20.8061 118.689 21.0141C118.097 21.2221 117.433 21.3261 116.697 21.3261Z" fill="#272625"/>
<path d="M132.852 21.3261C131.556 21.3261 130.404 21.0301 129.396 20.4381C128.404 19.8301 127.612 19.0141 127.02 17.9901C126.444 16.9661 126.156 15.8061 126.156 14.5101C126.156 13.2301 126.444 12.0781 127.02 11.0541C127.596 10.0301 128.388 9.23009 129.396 8.6541C130.404 8.0621 131.556 7.7661 132.852 7.7661C133.732 7.7661 134.556 7.9261 135.324 8.2461C136.092 8.5501 136.756 8.9741 137.316 9.51809C137.892 10.0621 138.316 10.6941 138.588 11.4141L136.212 12.5181C135.94 11.8461 135.5 11.3101 134.892 10.9101C134.3 10.4941 133.62 10.2861 132.852 10.2861C132.116 10.2861 131.452 10.4701 130.86 10.8381C130.284 11.1901 129.828 11.6941 129.492 12.3501C129.156 12.9901 128.988 13.7181 128.988 14.5341C128.988 15.3501 129.156 16.0861 129.492 16.7421C129.828 17.3821 130.284 17.8861 130.86 18.2541C131.452 18.6221 132.116 18.8061 132.852 18.8061C133.636 18.8061 134.316 18.6061 134.892 18.2061C135.484 17.7901 135.924 17.2381 136.212 16.5501L138.588 17.6781C138.332 18.3661 137.916 18.9901 137.34 19.5501C136.78 20.0941 136.116 20.5261 135.348 20.8461C134.58 21.1661 133.748 21.3261 132.852 21.3261Z" fill="#272625"/>
<path d="M141.239 21.0381V2.87012H143.951V15.0381L142.895 14.7741L149.399 8.0541H152.783L147.887 13.2621L152.999 21.0381H149.879L145.319 14.1501L146.927 13.9341L143.087 18.0141L143.951 16.2141V21.0381H141.239Z" fill="#272625"/>
<path d="M155.264 15.7341V13.3341H164.864V15.7341H155.264Z" fill="#272625"/>
<path d="M173.081 21.3261C172.105 21.3261 171.249 21.1101 170.513 20.6781C169.777 20.2301 169.201 19.6141 168.785 18.8301C168.385 18.0301 168.185 17.1101 168.185 16.0701V8.0541H170.897V15.8301C170.897 16.4221 171.017 16.9421 171.257 17.3901C171.497 17.8381 171.833 18.1901 172.265 18.4461C172.697 18.6861 173.193 18.8061 173.753 18.8061C174.329 18.8061 174.833 18.6781 175.265 18.4221C175.697 18.1661 176.033 17.8061 176.273 17.3421C176.529 16.8781 176.657 16.3341 176.657 15.7101V8.0541H179.345V21.0381H176.777V18.4941L177.065 18.8301C176.761 19.6301 176.257 20.2461 175.553 20.6781C174.849 21.1101 174.025 21.3261 173.081 21.3261Z" fill="#272625"/>
<path d="M182.512 21.0381V8.0541H185.224V21.0381H182.512ZM182.512 6.27811V3.15812H185.224V6.27811H182.512Z" fill="#272625"/>
<rect x="191.224" y="1.5" width="43.9997" height="25" rx="12.5" fill="#F2F1F1"/>
<path d="M207.442 18.6541L209.552 10.9901H212.197L208.989 20.4998H207.39L207.442 18.6541ZM205.992 10.9901L208.11 18.6629L208.154 20.4998H206.546L203.338 10.9901H205.992ZM215.607 14.6727L213.586 14.1893L214.315 7.70302H221.505V9.75085H216.398L216.082 12.5897C216.252 12.4901 216.51 12.3846 216.855 12.2733C217.201 12.1561 217.588 12.0975 218.015 12.0975C218.637 12.0975 219.187 12.1942 219.668 12.3875C220.148 12.5809 220.555 12.8621 220.889 13.2313C221.229 13.6004 221.487 14.0516 221.663 14.5848C221.839 15.118 221.927 15.7215 221.927 16.3953C221.927 16.9637 221.839 17.5056 221.663 18.0213C221.487 18.531 221.221 18.9881 220.863 19.3923C220.506 19.7908 220.057 20.1043 219.518 20.3328C218.979 20.5613 218.341 20.6755 217.602 20.6755C217.052 20.6755 216.518 20.5935 216.003 20.4294C215.493 20.2654 215.033 20.0222 214.623 19.7C214.219 19.3777 213.893 18.9881 213.647 18.531C213.407 18.0681 213.281 17.5408 213.269 16.949H215.783C215.818 17.3123 215.912 17.6258 216.064 17.8894C216.223 18.1472 216.431 18.3465 216.688 18.4871C216.946 18.6277 217.248 18.698 217.594 18.698C217.916 18.698 218.191 18.6365 218.42 18.5134C218.648 18.3904 218.833 18.2205 218.973 18.0037C219.114 17.781 219.217 17.5232 219.281 17.2303C219.351 16.9314 219.387 16.6092 219.387 16.2635C219.387 15.9178 219.346 15.6043 219.264 15.3231C219.181 15.0418 219.055 14.7986 218.886 14.5936C218.716 14.3885 218.499 14.2303 218.235 14.119C217.977 14.0076 217.676 13.952 217.33 13.952C216.861 13.952 216.498 14.0252 216.24 14.1717C215.988 14.3182 215.777 14.4852 215.607 14.6727Z" fill="#404040"/>
</svg>
