<svg width="200" height="28" viewBox="0 0 190 28" fill="none" xmlns="http://www.w3.org/2000/svg">
<path d="M0 7.66815L9.99991 0.302246V3.77839L0 11.1443V7.66815Z" fill="white"/>
<path d="M19.9999 7.66815L9.99997 0.302246V3.77839L19.9999 11.1443V7.66815Z" fill="white"/>
<path d="M0 15.6684L9.99991 8.30249V11.7786L0 19.1445V15.6684Z" fill="white"/>
<path d="M19.9999 15.6684L9.99997 8.30249V11.7786L19.9999 19.1445V15.6684Z" fill="white"/>
<path d="M5.25024 11.9603L14.0002 5.51514V8.55676L5.25024 15.0019V11.9603Z" fill="white"/>
<path d="M22.7502 11.9603L14.0003 5.51514V8.55676L22.7502 15.0019V11.9603Z" fill="white"/>
<path d="M5.25 18.9601L13.9999 12.5149V15.5565L5.25 22.0017V18.9601Z" fill="white"/>
<path d="M22.7499 18.9603L14 12.5151V15.5568L22.7499 22.0019V18.9603Z" fill="white"/>
<rect x="0.000305176" width="27.9999" height="27.9999" rx="1.99999" fill="white"/>
<rect x="0.000305176" width="27.9999" height="27.9999" rx="1.99999" fill="#181718"/>
<path d="M6.00024 12.3558L14 6.46313V9.244L6.00024 15.1366V12.3558Z" fill="white"/>
<path d="M21.9998 12.3558L14 6.46313V9.244L21.9998 15.1366V12.3558Z" fill="white"/>
<path d="M6.00018 18.7557L13.9999 12.863V15.6439L6.00018 21.5365V18.7557Z" fill="white"/>
<path d="M21.9996 18.7557L13.9999 12.863V15.6439L21.9996 21.5365V18.7557Z" fill="white"/>
<path d="M46.7919 26.318C45.8479 26.318 44.9759 26.166 44.1759 25.862C43.3759 25.558 42.6879 25.134 42.1119 24.59C41.5359 24.062 41.1039 23.438 40.8159 22.718L43.3119 21.686C43.5359 22.294 43.9439 22.798 44.5359 23.198C45.1439 23.598 45.8879 23.798 46.7679 23.798C47.4559 23.798 48.0718 23.662 48.6158 23.39C49.1598 23.134 49.5918 22.75 49.9118 22.238C50.2318 21.742 50.3918 21.1421 50.3918 20.4381V17.5101L50.8718 18.0621C50.4238 18.8941 49.7998 19.5261 48.9998 19.9581C48.2158 20.3901 47.3279 20.6061 46.3359 20.6061C45.1359 20.6061 44.0559 20.3261 43.0959 19.7661C42.1359 19.2061 41.3759 18.4381 40.8159 17.4621C40.2719 16.4861 39.9999 15.3901 39.9999 14.1741C39.9999 12.9421 40.2719 11.8461 40.8159 10.8861C41.3759 9.92609 42.1279 9.16609 43.0719 8.6061C44.0159 8.0461 45.0959 7.7661 46.3119 7.7661C47.3039 7.7661 48.1838 7.9821 48.9518 8.4141C49.7358 8.8301 50.3758 9.43809 50.8718 10.2381L50.5118 10.9101V8.0541H53.0798V20.4381C53.0798 21.5581 52.8078 22.558 52.2638 23.438C51.7358 24.334 50.9998 25.038 50.0558 25.55C49.1118 26.062 48.0238 26.318 46.7919 26.318ZM46.6479 18.0861C47.3679 18.0861 48.0078 17.9181 48.5678 17.5821C49.1278 17.2301 49.5678 16.7661 49.8878 16.1901C50.2238 15.5981 50.3918 14.9341 50.3918 14.1981C50.3918 13.4621 50.2238 12.7981 49.8878 12.2061C49.5518 11.6141 49.1038 11.1501 48.5438 10.8141C47.9838 10.4621 47.3519 10.2861 46.6479 10.2861C45.9119 10.2861 45.2559 10.4621 44.6799 10.8141C44.1039 11.1501 43.6479 11.6141 43.3119 12.2061C42.9919 12.7821 42.8319 13.4461 42.8319 14.1981C42.8319 14.9181 42.9919 15.5741 43.3119 16.1661C43.6479 16.7581 44.1039 17.2301 44.6799 17.5821C45.2559 17.9181 45.9119 18.0861 46.6479 18.0861Z" fill="#272625"/>
<path d="M56.2544 21.0381V2.87012H58.9664V21.0381H56.2544Z" fill="#272625"/>
<path d="M66.7692 21.3261C65.7932 21.3261 64.9372 21.1101 64.2012 20.6781C63.4652 20.2301 62.8892 19.6141 62.4732 18.8301C62.0732 18.0301 61.8732 17.1101 61.8732 16.0701V8.0541H64.5852V15.8301C64.5852 16.4221 64.7052 16.9421 64.9452 17.3901C65.1852 17.8381 65.5212 18.1901 65.9532 18.4461C66.3852 18.6861 66.8812 18.8061 67.4412 18.8061C68.0172 18.8061 68.5211 18.6781 68.9531 18.4221C69.3851 18.1661 69.7211 17.8061 69.9611 17.3421C70.2171 16.8781 70.3451 16.3341 70.3451 15.7101V8.0541H73.0331V21.0381H70.4651V18.4941L70.7531 18.8301C70.4491 19.6301 69.9451 20.2461 69.2411 20.6781C68.5371 21.1101 67.7132 21.3261 66.7692 21.3261Z" fill="#272625"/>
<path d="M82.2956 21.3261C80.9996 21.3261 79.8476 21.0301 78.8396 20.4381C77.8476 19.8301 77.0716 19.0141 76.5116 17.9901C75.9516 16.9501 75.6716 15.7901 75.6716 14.5101C75.6716 13.1981 75.9516 12.0381 76.5116 11.0301C77.0876 10.0221 77.8556 9.23009 78.8156 8.6541C79.7756 8.0621 80.8636 7.7661 82.0796 7.7661C83.0556 7.7661 83.9276 7.9341 84.6956 8.2701C85.4636 8.6061 86.1116 9.07009 86.6396 9.66209C87.1676 10.2381 87.5676 10.9021 87.8396 11.6541C88.1276 12.4061 88.2716 13.2061 88.2716 14.0541C88.2716 14.2621 88.2636 14.4781 88.2476 14.7021C88.2316 14.9261 88.1996 15.1341 88.1516 15.3261H77.8076V13.1661H86.6156L85.3196 14.1501C85.4796 13.3661 85.4236 12.6701 85.1516 12.0621C84.8956 11.4381 84.4956 10.9501 83.9516 10.5981C83.4236 10.2301 82.7996 10.0461 82.0796 10.0461C81.3596 10.0461 80.7196 10.2301 80.1596 10.5981C79.5996 10.9501 79.1676 11.4621 78.8636 12.1341C78.5596 12.7901 78.4396 13.5901 78.5036 14.5341C78.4236 15.4141 78.5436 16.1821 78.8636 16.8381C79.1996 17.4941 79.6636 18.0061 80.2556 18.3741C80.8636 18.7421 81.5516 18.9261 82.3196 18.9261C83.1036 18.9261 83.7676 18.7501 84.3116 18.3981C84.8716 18.0461 85.3116 17.5901 85.6316 17.0301L87.8396 18.1101C87.5836 18.7181 87.1836 19.2701 86.6396 19.7661C86.1116 20.2461 85.4716 20.6301 84.7196 20.9181C83.9836 21.1901 83.1756 21.3261 82.2956 21.3261Z" fill="#272625"/>
<path d="M95.7183 21.3261C94.3903 21.3261 93.2223 20.9981 92.2143 20.3421C91.2223 19.6861 90.5263 18.8061 90.1263 17.7021L92.2143 16.7181C92.5663 17.4541 93.0463 18.0381 93.6543 18.4701C94.2783 18.9021 94.9663 19.1181 95.7183 19.1181C96.3583 19.1181 96.8783 18.9741 97.2783 18.6861C97.6783 18.3981 97.8783 18.0061 97.8783 17.5101C97.8783 17.1901 97.7903 16.9341 97.6143 16.7421C97.4383 16.5341 97.2143 16.3661 96.9423 16.2381C96.6863 16.1101 96.4223 16.0141 96.1503 15.9501L94.1103 15.3741C92.9903 15.0541 92.1503 14.5741 91.5903 13.9341C91.0463 13.2781 90.7743 12.5181 90.7743 11.6541C90.7743 10.8701 90.9743 10.1901 91.3743 9.61409C91.7743 9.0221 92.3263 8.5661 93.0303 8.2461C93.7343 7.9261 94.5263 7.7661 95.4063 7.7661C96.5903 7.7661 97.6463 8.0621 98.5743 8.6541C99.5023 9.23009 100.158 10.0381 100.542 11.0781L98.4543 12.0621C98.1983 11.4381 97.7903 10.9421 97.2303 10.5741C96.6863 10.2061 96.0703 10.0221 95.3823 10.0221C94.7903 10.0221 94.3183 10.1661 93.9663 10.4541C93.6143 10.7261 93.4383 11.0861 93.4383 11.5341C93.4383 11.8381 93.5183 12.0941 93.6783 12.3021C93.8383 12.4941 94.0463 12.6541 94.3023 12.7821C94.5583 12.8941 94.8223 12.9901 95.0943 13.0701L97.2063 13.6941C98.2783 13.9981 99.1023 14.4781 99.6783 15.1341C100.254 15.7741 100.542 16.5421 100.542 17.4381C100.542 18.2061 100.334 18.8861 99.9183 19.4781C99.5183 20.0541 98.9583 20.5101 98.2383 20.8461C97.5183 21.166 96.6783 21.3261 95.7183 21.3261Z" fill="#272625"/>
<path d="M108.815 21.1821C107.455 21.1821 106.4 20.7981 105.648 20.0301C104.896 19.2621 104.52 18.1821 104.52 16.7901V10.5021H102.24V8.0541H102.6C103.208 8.0541 103.68 7.8781 104.016 7.5261C104.352 7.1741 104.52 6.6941 104.52 6.08611V5.07811H107.231V8.0541H110.183V10.5021H107.231V16.6701C107.231 17.1181 107.304 17.5021 107.448 17.8221C107.592 18.1261 107.824 18.3661 108.144 18.5421C108.464 18.7021 108.88 18.7821 109.391 18.7821C109.52 18.7821 109.663 18.7741 109.823 18.7581C109.983 18.7421 110.135 18.7261 110.279 18.7101V21.0381C110.055 21.0701 109.807 21.1021 109.535 21.1341C109.263 21.166 109.023 21.1821 108.815 21.1821Z" fill="#272625"/>
<path d="M116.697 21.3261C115.817 21.3261 115.041 21.1741 114.369 20.8701C113.713 20.5501 113.201 20.1181 112.833 19.5741C112.465 19.0141 112.281 18.3581 112.281 17.6061C112.281 16.9021 112.433 16.2701 112.737 15.7101C113.057 15.1501 113.545 14.6781 114.201 14.2941C114.857 13.9101 115.681 13.6381 116.673 13.4781L121.185 12.7341V14.8701L117.201 15.5661C116.481 15.6941 115.953 15.9261 115.617 16.2621C115.281 16.5821 115.113 16.9981 115.113 17.5101C115.113 18.0061 115.297 18.4141 115.665 18.7341C116.049 19.0381 116.537 19.1901 117.129 19.1901C117.865 19.1901 118.505 19.0301 119.049 18.7101C119.609 18.3901 120.041 17.9661 120.345 17.4381C120.649 16.8941 120.801 16.2941 120.801 15.6381V12.3021C120.801 11.6621 120.561 11.1421 120.081 10.7421C119.617 10.3261 118.993 10.1181 118.209 10.1181C117.489 10.1181 116.857 10.3101 116.313 10.6941C115.785 11.0621 115.393 11.5421 115.137 12.1341L112.881 11.0061C113.121 10.3661 113.513 9.80609 114.057 9.32609C114.601 8.8301 115.233 8.4461 115.953 8.1741C116.689 7.9021 117.465 7.7661 118.281 7.7661C119.305 7.7661 120.209 7.9581 120.993 8.3421C121.793 8.7261 122.409 9.26209 122.841 9.95009C123.289 10.6221 123.513 11.4061 123.513 12.3021V21.0381H120.921V18.6861L121.473 18.7581C121.169 19.2861 120.777 19.7421 120.297 20.1261C119.833 20.5101 119.297 20.8061 118.689 21.0141C118.097 21.2221 117.433 21.3261 116.697 21.3261Z" fill="#272625"/>
<path d="M132.852 21.3261C131.556 21.3261 130.404 21.0301 129.396 20.4381C128.404 19.8301 127.612 19.0141 127.02 17.9901C126.444 16.9661 126.156 15.8061 126.156 14.5101C126.156 13.2301 126.444 12.0781 127.02 11.0541C127.596 10.0301 128.388 9.23009 129.396 8.6541C130.404 8.0621 131.556 7.7661 132.852 7.7661C133.732 7.7661 134.556 7.9261 135.324 8.2461C136.092 8.5501 136.756 8.9741 137.316 9.51809C137.892 10.0621 138.316 10.6941 138.588 11.4141L136.212 12.5181C135.94 11.8461 135.5 11.3101 134.892 10.9101C134.3 10.4941 133.62 10.2861 132.852 10.2861C132.116 10.2861 131.452 10.4701 130.86 10.8381C130.284 11.1901 129.828 11.6941 129.492 12.3501C129.156 12.9901 128.988 13.7181 128.988 14.5341C128.988 15.3501 129.156 16.0861 129.492 16.7421C129.828 17.3821 130.284 17.8861 130.86 18.2541C131.452 18.6221 132.116 18.8061 132.852 18.8061C133.636 18.8061 134.316 18.6061 134.892 18.2061C135.484 17.7901 135.924 17.2381 136.212 16.5501L138.588 17.6781C138.332 18.3661 137.916 18.9901 137.34 19.5501C136.78 20.0941 136.116 20.5261 135.348 20.8461C134.58 21.166 133.748 21.3261 132.852 21.3261Z" fill="#272625"/>
<path d="M141.238 21.0381V2.87012H143.95V15.0381L142.894 14.7741L149.398 8.0541H152.782L147.886 13.2621L152.998 21.0381H149.878L145.318 14.1501L146.926 13.9341L143.086 18.0141L143.95 16.2141V21.0381H141.238Z" fill="#272625"/>
<path d="M155.264 15.7341V13.3341H164.864V15.7341H155.264Z" fill="#272625"/>
<path d="M173.081 21.3261C172.105 21.3261 171.249 21.1101 170.513 20.6781C169.777 20.2301 169.201 19.6141 168.785 18.8301C168.385 18.0301 168.185 17.1101 168.185 16.0701V8.0541H170.897V15.8301C170.897 16.4221 171.017 16.9421 171.257 17.3901C171.497 17.8381 171.833 18.1901 172.265 18.4461C172.697 18.6861 173.193 18.8061 173.753 18.8061C174.329 18.8061 174.833 18.6781 175.265 18.4221C175.697 18.1661 176.033 17.8061 176.273 17.3421C176.529 16.8781 176.657 16.3341 176.657 15.7101V8.0541H179.345V21.0381H176.777V18.4941L177.065 18.8301C176.761 19.6301 176.257 20.2461 175.553 20.6781C174.849 21.1101 174.025 21.3261 173.081 21.3261Z" fill="#272625"/>
<path d="M182.512 21.0381V8.0541H185.224V21.0381H182.512ZM182.512 6.27811V3.15812H185.224V6.27811H182.512Z" fill="#272625"/>
</svg>
