<svg width="138" height="36" viewBox="0 0 138 36" fill="none" xmlns="http://www.w3.org/2000/svg">
<g id="mantine-logo-full 1" clipPath="url(#clip0_260_77243)">
<path id="Vector" d="M36.0174 18C36.0174 8.05892 28 0 18.1101 0C8.21985 0 0.202446 8.05892 0.202446 18C0.202446 27.9409 8.21985 36 18.1099 36C28 36 36.0174 27.9409 36.0174 18Z" fill="#339AF0"/>
<path id="Vector_2" d="M14.7752 9.50822C14.6147 9.72628 14.5221 9.98681 14.5089 10.2572C14.4957 10.5277 14.5625 10.796 14.701 11.0286C14.7929 11.1824 14.9143 11.3165 15.0583 11.4231C17.1441 12.977 18.3416 15.353 18.3416 17.9428C18.3416 20.5326 17.1441 22.9086 15.0583 24.4626C14.9145 24.5692 14.7932 24.7033 14.7014 24.857C14.5152 25.1686 14.46 25.5414 14.5481 25.8935C14.5915 26.0678 14.6686 26.2318 14.7752 26.3763C14.9351 26.5937 15.1562 26.7585 15.4102 26.8497C15.6642 26.9409 15.9396 26.9544 16.2013 26.8885C16.375 26.8447 16.5384 26.767 16.6821 26.6599C17.3245 26.181 17.913 25.6338 18.4372 25.0278H22.3007C23.053 25.0278 23.6643 24.4155 23.6643 23.6598C23.6643 22.904 23.0543 22.2918 22.3007 22.2918H20.1683C20.7644 20.9196 21.0705 19.4391 21.0674 17.943C21.0706 16.4469 20.7646 14.9662 20.1685 13.5939H22.302C23.0543 13.5939 23.6654 12.9819 23.6654 12.2259C23.6654 11.4701 23.0554 10.8581 22.302 10.8581H18.4394C17.9149 10.2515 17.3261 9.70375 16.6832 9.22442C16.5397 9.11747 16.3766 9.03991 16.203 8.99621C16.0295 8.95251 15.8491 8.94352 15.6721 8.96977C15.314 9.02355 14.9919 9.21721 14.7765 9.50822H14.7752Z" fill="white"/>
<path id="Vector_3" fillRule="evenodd" clipRule="evenodd" d="M12.6249 17.5336C12.6184 17.2614 12.6658 16.9906 12.7645 16.7368C12.8628 16.4836 13.0104 16.2526 13.1989 16.0572C13.3866 15.8626 13.6115 15.7076 13.8602 15.6016C14.1082 15.4959 14.375 15.4414 14.6446 15.4414C14.9141 15.4414 15.1809 15.4959 15.4289 15.6016C15.6777 15.7076 15.9027 15.8625 16.0904 16.0572C16.2789 16.2526 16.4266 16.4836 16.5248 16.7368C16.6699 17.1108 16.7028 17.5189 16.6194 17.9113C16.5361 18.3037 16.3401 18.6633 16.0555 18.946C15.6799 19.3177 15.173 19.5264 14.6447 19.5269C14.1161 19.5265 13.6091 19.3178 13.2334 18.946C12.8553 18.5718 12.6372 18.0655 12.6249 17.5336Z" fill="white"/>
<path id="Vector_4" d="M64.6346 27.9707C65.0728 27.9707 65.4789 27.8749 65.8533 27.6831C66.2276 27.4914 66.4147 27.2129 66.4147 26.8479V9.73129C66.4147 9.07402 66.2321 8.61309 65.867 8.34828C65.5019 8.08347 65.0911 7.95117 64.6346 7.95117C64.2147 7.95117 63.8494 7.99689 63.5391 8.0881C63.2288 8.17932 62.9503 8.36197 62.7038 8.63583C62.4573 8.9097 62.1698 9.31144 61.8412 9.84084L58.4726 15.9754L55.1315 9.84084C54.8393 9.31144 54.561 8.9097 54.2962 8.63583C54.0314 8.36197 53.7484 8.17932 53.4472 8.0881C53.1459 7.99689 52.7762 7.95117 52.338 7.95117C51.8999 7.95117 51.4937 8.08369 51.1193 8.34828C50.745 8.61309 50.5579 9.07402 50.5579 9.73129V26.8479C50.5579 27.2129 50.745 27.4914 51.1193 27.6831C51.4937 27.8749 51.8999 27.9707 52.338 27.9707C52.7946 27.9707 53.2054 27.8749 53.5704 27.6831C53.9355 27.4914 54.1182 27.2129 54.1182 26.8479V14.8526L57.2676 20.7681C57.4319 21.0419 57.619 21.229 57.829 21.3295C58.0388 21.43 58.2442 21.4801 58.4452 21.4801C58.6643 21.4801 58.8834 21.4253 59.1025 21.3158C59.3216 21.2062 59.5133 21.0236 59.6776 20.7681L62.8545 15.0717V26.8479C62.8545 27.2129 63.0415 27.4914 63.4159 27.6831C63.7902 27.8749 64.1964 27.9707 64.6346 27.9707ZM72.2266 28.2172C73.1759 28.2172 73.9838 27.9981 74.6503 27.5599C75.3166 27.1217 75.8964 26.6197 76.3894 26.0537V26.8479C76.3894 27.1582 76.54 27.423 76.8412 27.6421C77.1425 27.8612 77.5215 27.9707 77.9778 27.9707C78.4707 27.9707 78.8815 27.8612 79.2102 27.6421C79.5388 27.423 79.7031 27.1584 79.7031 26.8479V20.1382C79.7031 19.207 79.5068 18.3397 79.1143 17.5364C78.7216 16.7332 78.0964 16.0759 77.2383 15.5646C76.3801 15.0533 75.2391 14.7978 73.815 14.7978C73.1759 14.7978 72.5186 14.88 71.8432 15.0443C71.1676 15.2086 70.5971 15.4414 70.1315 15.7426C69.666 16.0439 69.4332 16.3862 69.4332 16.7696C69.4332 17.1714 69.5381 17.5638 69.7481 17.9472C69.9579 18.3307 70.2548 18.5224 70.6382 18.5224C70.8754 18.5224 71.0945 18.4495 71.2955 18.3033C71.4964 18.1573 71.7838 18.0157 72.1581 17.8788C72.5323 17.7418 73.0663 17.6734 73.7602 17.6734C74.3809 17.6734 74.8601 17.8013 75.198 18.0568C75.536 18.3123 75.7822 18.6319 75.9375 19.0153C76.0908 19.389 76.1698 19.789 76.1703 20.1929V20.549H75.0474C73.7876 20.549 72.6785 20.6676 71.72 20.905C70.7614 21.1424 70.0127 21.5532 69.4743 22.1374C68.9356 22.7216 68.6664 23.5341 68.6664 24.5748C68.6664 25.8162 69.0177 26.7337 69.7207 27.3271C70.4235 27.9206 71.2588 28.2172 72.2266 28.2172ZM73.6507 25.5881C73.249 25.5881 72.9066 25.4695 72.6237 25.2321C72.3406 24.9946 72.1992 24.6203 72.1992 24.1092C72.1992 23.5979 72.368 23.2191 72.7059 22.9727C73.0438 22.7262 73.4864 22.5663 74.0341 22.4934C74.6062 22.4189 75.1826 22.3823 75.7595 22.3839H76.1703V22.959C76.1703 23.3972 76.0377 23.817 75.7732 24.2188C75.5084 24.6205 75.1843 24.9491 74.8009 25.2047C74.4175 25.4602 74.0341 25.5881 73.6507 25.5881ZM92.2402 27.9707C92.6967 27.9707 93.1075 27.8749 93.4726 27.6831C93.8377 27.4914 94.0203 27.2129 94.0203 26.8479V20.3573C94.0203 19.3347 93.8058 18.4038 93.3767 17.5638C92.9476 16.7239 92.3771 16.0532 91.6651 15.5509C90.953 15.0489 90.1679 14.7978 89.3098 14.7978C88.397 14.7978 87.6256 15.0123 86.9957 15.4414C86.3658 15.8705 85.9139 16.3498 85.64 16.8792V16.0576C85.64 15.7289 85.4894 15.4641 85.1882 15.2634C84.8869 15.0624 84.5172 14.9621 84.079 14.9621C83.5677 14.9621 83.1479 15.0626 82.8192 15.2634C82.4906 15.4644 82.3263 15.7289 82.3263 16.0576V26.8479C82.3263 27.1217 82.4906 27.3773 82.8192 27.6147C83.1479 27.8521 83.5679 27.9707 84.079 27.9707C84.572 27.9707 84.9918 27.8521 85.3388 27.6147C85.6855 27.3773 85.8591 27.1217 85.8591 26.8479V20.3573C85.8591 19.846 85.9687 19.4078 86.1878 19.0427C86.4069 18.6776 86.6898 18.3945 87.0367 18.1937C87.3835 17.9927 87.7397 17.8925 88.1048 17.8925C88.543 17.8925 88.9447 18.0157 89.3098 18.2622C89.6749 18.5087 89.9625 18.8143 90.1725 19.1796C90.3804 19.5372 90.4891 19.9437 90.4874 20.3573V26.8479C90.4874 27.2129 90.6791 27.4914 91.0626 27.6831C91.446 27.8749 91.8384 27.9707 92.2402 27.9707ZM102.716 27.9707C103.227 27.9707 103.606 27.8154 103.853 27.5051C104.099 27.1948 104.222 26.8479 104.222 26.4644C104.222 26.0994 104.099 25.7615 103.853 25.4511C103.606 25.1408 103.227 24.9856 102.716 24.9856H101.648C101.082 24.9856 100.685 24.876 100.457 24.6569C100.228 24.4378 100.114 24.0635 100.114 23.5341V17.5364H103.346C103.638 17.5364 103.862 17.4039 104.017 17.1393C104.172 16.8745 104.25 16.5779 104.25 16.2493C104.25 15.9206 104.172 15.624 104.017 15.3592C103.862 15.0944 103.638 14.9621 103.346 14.9621H100.114V10.2516C100.114 9.923 99.9272 9.65819 99.5528 9.45743C99.1785 9.25645 98.7723 9.15618 98.3341 9.15618C97.9324 9.15618 97.5399 9.25667 97.1565 9.45743C96.7731 9.65841 96.5814 9.923 96.5814 10.2516V23.5341C96.5814 25.0677 97.0149 26.1906 97.8822 26.9026C98.7495 27.6147 100.005 27.9707 101.648 27.9707H102.716ZM107.812 12.0591C108.341 12.0591 108.793 11.8811 109.167 11.5251C109.542 11.1691 109.729 10.772 109.729 10.3338C109.729 9.85895 109.542 9.45279 109.167 9.1151C108.793 8.77718 108.341 8.60845 107.812 8.60845C107.282 8.60845 106.826 8.77741 106.442 9.1151C106.059 9.45301 105.867 9.85917 105.867 10.3338C105.867 10.772 106.059 11.1691 106.442 11.5251C106.826 11.8811 107.282 12.0591 107.812 12.0591ZM107.812 27.9707C108.305 27.9707 108.724 27.8521 109.071 27.6147C109.418 27.3773 109.592 27.1217 109.592 26.8479V16.0576C109.592 15.7289 109.418 15.4641 109.071 15.2634C108.725 15.0624 108.305 14.9621 107.812 14.9621C107.3 14.9621 106.88 15.0626 106.552 15.2634C106.223 15.4644 106.059 15.7289 106.059 16.0576V26.8479C106.059 27.1217 106.223 27.3773 106.552 27.6147C106.88 27.8521 107.301 27.9707 107.812 27.9707ZM122.222 27.9707C122.678 27.9707 123.089 27.8749 123.454 27.6831C123.819 27.4914 124.002 27.2129 124.002 26.8479V20.3573C124.002 19.3347 123.787 18.4038 123.359 17.5638C122.929 16.7239 122.359 16.0532 121.647 15.5509C120.935 15.0489 120.15 14.7978 119.292 14.7978C118.379 14.7978 117.607 15.0123 116.977 15.4414C116.348 15.8705 115.896 16.3498 115.622 16.8792V16.0576C115.622 15.7289 115.471 15.4641 115.17 15.2634C114.869 15.0624 114.499 14.9621 114.061 14.9621C113.55 14.9621 113.13 15.0626 112.801 15.2634C112.472 15.4644 112.308 15.7289 112.308 16.0576V26.8479C112.308 27.1217 112.472 27.3773 112.801 27.6147C113.13 27.8521 113.55 27.9707 114.061 27.9707C114.554 27.9707 114.974 27.8521 115.321 27.6147C115.667 27.3773 115.841 27.1217 115.841 26.8479V20.3573C115.841 19.846 115.95 19.4078 116.17 19.0427C116.389 18.6776 116.672 18.3945 117.019 18.1937C117.365 17.9927 117.721 17.8925 118.087 17.8925C118.525 17.8925 118.926 18.0157 119.292 18.2622C119.657 18.5087 119.944 18.8143 120.154 19.1796C120.362 19.5372 120.471 19.9437 120.469 20.3573V26.8479C120.469 27.2129 120.661 27.4914 121.044 27.6831C121.428 27.8749 121.82 27.9707 122.222 27.9707ZM132.753 28.2172C133.738 28.2172 134.592 28.0939 135.313 27.8475C136.034 27.601 136.591 27.2997 136.984 26.9437C137.376 26.5877 137.573 26.2546 137.573 25.9441C137.573 25.7615 137.518 25.547 137.408 25.3005C137.3 25.0557 137.141 24.8365 136.943 24.6569C136.742 24.4743 136.505 24.3831 136.231 24.3831C135.975 24.3831 135.701 24.4652 135.409 24.6296C135.117 24.7939 134.77 24.9675 134.368 25.1499C133.967 25.3325 133.465 25.4238 132.862 25.4238C131.913 25.4238 131.141 25.1819 130.548 24.698C129.954 24.2143 129.658 23.5798 129.658 22.7947V22.3839H135.217C135.637 22.3839 136.043 22.3428 136.436 22.2606C136.828 22.1785 137.153 21.9684 137.408 21.6307C137.664 21.2928 137.792 20.7316 137.792 19.9465C137.792 18.9239 137.527 18.0294 136.997 17.2626C136.468 16.4958 135.779 15.8933 134.93 15.4551C134.081 15.0169 133.145 14.7978 132.123 14.7978C131.009 14.7978 130 15.0489 129.096 15.5509C128.193 16.0529 127.471 16.7193 126.933 17.5501C126.394 18.3808 126.125 19.2892 126.125 20.2751V22.603C126.125 23.7167 126.408 24.698 126.974 25.547C127.54 26.396 128.32 27.0533 129.316 27.5188C130.311 27.9844 131.456 28.2172 132.753 28.2172ZM133.656 20.3025H129.658V19.5357C129.658 19.0975 129.772 18.7185 130 18.3991C130.228 18.0795 130.525 17.8331 130.89 17.6597C131.255 17.4863 131.648 17.3995 132.068 17.3995C132.506 17.3995 132.908 17.4907 133.273 17.6734C133.638 17.856 133.93 18.1116 134.149 18.4402C134.368 18.7688 134.478 19.1432 134.478 19.563C134.478 19.8552 134.418 20.0514 134.3 20.1519C134.181 20.2523 133.967 20.3025 133.656 20.3025Z" fill="white"/>
</g>
<defs>
<clipPath id="clip0_260_77243">
<rect width="137.595" height="36" fill="white" transform="translate(0.202446)"/>
</clipPath>
</defs>
</svg>
