<svg xmlns="http://www.w3.org/2000/svg" width="18" height="18" viewBox="0 0 18 18" fill="none">
  <path d="M5.66064 16.3131C12.4531 16.3131 16.1683 10.6856 16.1683 5.80539C16.1683 5.64555 16.1683 5.48643 16.1575 5.32803C16.8803 4.80525 17.5042 4.15794 18 3.41643C17.326 3.71523 16.611 3.9111 15.8789 3.99747C16.6499 3.53599 17.2269 2.81006 17.5025 1.95483C16.7776 2.38504 15.9845 2.6882 15.1574 2.85123C14.6006 2.25916 13.8642 1.86711 13.0621 1.73574C12.2601 1.60438 11.4371 1.74102 10.7205 2.12452C10.0039 2.50802 9.43367 3.11701 9.09806 3.85724C8.76245 4.59747 8.68016 5.42768 8.86392 6.21939C7.39567 6.14574 5.95932 5.76416 4.64809 5.09943C3.33686 4.4347 2.18007 3.50168 1.2528 2.36091C0.780546 3.17391 0.635904 4.13633 0.848325 5.05223C1.06075 5.96812 1.61426 6.76863 2.39616 7.29075C1.80842 7.27353 1.23349 7.11498 0.72 6.82851V6.87531C0.720233 7.72795 1.01539 8.55426 1.5554 9.21409C2.09542 9.87391 2.84705 10.3266 3.6828 10.4955C3.13911 10.6438 2.56866 10.6654 2.01528 10.5588C2.25136 11.2926 2.71082 11.9342 3.32943 12.394C3.94804 12.8539 4.69487 13.1089 5.46552 13.1235C4.69983 13.7253 3.82299 14.1703 2.88516 14.433C1.94733 14.6956 0.966911 14.7708 0 14.6542C1.68887 15.738 3.65394 16.3128 5.66064 16.3102" fill="#414040"/>
</svg>