<svg width="592" height="592" viewBox="0 0 592 592" fill="none" xmlns="http://www.w3.org/2000/svg">
<rect width="592" height="592" fill="url(#paint0_linear_12140_48469)" fill-opacity="0.7"/>
<rect x="28" y="368" width="536" height="192" rx="16" fill="#919EAB" fill-opacity="0.08"/>
<path d="M85.4517 467.795V459.077L107.312 424.636H114.83V436.705H110.381L96.5994 458.514V458.923H127.665V467.795H85.4517ZM110.585 477V465.136L110.79 461.276V424.636H121.17V477H110.585ZM142.806 437.727L150.016 451.457L157.405 437.727H168.578L157.201 457.364L168.885 477H157.763L150.016 463.423L142.397 477H131.147L142.806 457.364L131.556 437.727H142.806ZM184.499 424.636V477H173.607V424.636H184.499Z" fill="#D4D4D4"/>
<path d="M87.5568 509.92L86.6534 510.176C86.5966 510.026 86.5128 509.879 86.402 509.737C86.294 509.592 86.1463 509.473 85.9588 509.379C85.7713 509.286 85.5312 509.239 85.2386 509.239C84.8381 509.239 84.5043 509.331 84.2372 509.516C83.973 509.697 83.8409 509.929 83.8409 510.21C83.8409 510.46 83.9318 510.658 84.1136 510.803C84.2955 510.947 84.5795 511.068 84.9659 511.165L85.9375 511.403C86.5227 511.545 86.9588 511.763 87.2457 512.055C87.5327 512.345 87.6761 512.719 87.6761 513.176C87.6761 513.551 87.5682 513.886 87.3523 514.182C87.1392 514.477 86.8409 514.71 86.4574 514.881C86.0739 515.051 85.6278 515.136 85.1193 515.136C84.4517 515.136 83.8991 514.991 83.4616 514.702C83.0241 514.412 82.7472 513.989 82.6307 513.432L83.5852 513.193C83.6761 513.545 83.848 513.81 84.1009 513.986C84.3565 514.162 84.6903 514.25 85.1023 514.25C85.571 514.25 85.9432 514.151 86.2188 513.952C86.4972 513.75 86.6364 513.509 86.6364 513.227C86.6364 513 86.5568 512.81 86.3977 512.656C86.2386 512.5 85.9943 512.384 85.6648 512.307L84.5739 512.051C83.9744 511.909 83.5341 511.689 83.2528 511.391C82.9744 511.089 82.8352 510.713 82.8352 510.261C82.8352 509.892 82.9389 509.565 83.1463 509.281C83.3565 508.997 83.642 508.774 84.0028 508.612C84.3665 508.45 84.7784 508.369 85.2386 508.369C85.8864 508.369 86.3949 508.511 86.7642 508.795C87.1364 509.08 87.4006 509.455 87.5568 509.92ZM89.19 515V508.455H90.1957V515H89.19ZM89.7013 507.364C89.5053 507.364 89.3363 507.297 89.1942 507.163C89.055 507.03 88.9854 506.869 88.9854 506.682C88.9854 506.494 89.055 506.334 89.1942 506.2C89.3363 506.067 89.5053 506 89.7013 506C89.8974 506 90.065 506.067 90.2042 506.2C90.3462 506.334 90.4173 506.494 90.4173 506.682C90.4173 506.869 90.3462 507.03 90.2042 507.163C90.065 507.297 89.8974 507.364 89.7013 507.364ZM91.8501 515V514.233L95.5661 509.46V509.392H91.9695V508.455H96.8615V509.256L93.2479 513.994V514.062H96.9808V515H91.8501ZM101.087 515.136C100.456 515.136 99.9119 514.997 99.4545 514.719C99 514.438 98.6491 514.045 98.402 513.543C98.1577 513.037 98.0355 512.449 98.0355 511.778C98.0355 511.108 98.1577 510.517 98.402 510.006C98.6491 509.491 98.9929 509.091 99.4332 508.804C99.8764 508.514 100.393 508.369 100.984 508.369C101.325 508.369 101.662 508.426 101.994 508.54C102.327 508.653 102.629 508.838 102.902 509.094C103.175 509.347 103.392 509.682 103.554 510.099C103.716 510.517 103.797 511.031 103.797 511.642V512.068H98.7514V511.199H102.774C102.774 510.83 102.7 510.5 102.553 510.21C102.408 509.92 102.2 509.692 101.93 509.524C101.663 509.357 101.348 509.273 100.984 509.273C100.584 509.273 100.237 509.372 99.9446 509.571C99.6548 509.767 99.4318 510.023 99.2756 510.338C99.1193 510.653 99.0412 510.991 99.0412 511.352V511.932C99.0412 512.426 99.1264 512.845 99.2969 513.189C99.4702 513.53 99.7102 513.79 100.017 513.969C100.324 514.145 100.68 514.233 101.087 514.233C101.351 514.233 101.589 514.196 101.803 514.122C102.018 514.045 102.205 513.932 102.361 513.781C102.517 513.628 102.638 513.437 102.723 513.21L103.695 513.483C103.592 513.812 103.42 514.102 103.179 514.352C102.938 514.599 102.639 514.793 102.284 514.932C101.929 515.068 101.53 515.136 101.087 515.136ZM106.06 515.068C105.849 515.068 105.669 514.993 105.518 514.842C105.368 514.692 105.293 514.511 105.293 514.301C105.293 514.091 105.368 513.911 105.518 513.76C105.669 513.609 105.849 513.534 106.06 513.534C106.27 513.534 106.45 513.609 106.601 513.76C106.751 513.911 106.827 514.091 106.827 514.301C106.827 514.44 106.791 514.568 106.72 514.685C106.652 514.801 106.56 514.895 106.443 514.966C106.33 515.034 106.202 515.068 106.06 515.068ZM106.06 510.21C105.849 510.21 105.669 510.135 105.518 509.984C105.368 509.834 105.293 509.653 105.293 509.443C105.293 509.233 105.368 509.053 105.518 508.902C105.669 508.751 105.849 508.676 106.06 508.676C106.27 508.676 106.45 508.751 106.601 508.902C106.751 509.053 106.827 509.233 106.827 509.443C106.827 509.582 106.791 509.71 106.72 509.827C106.652 509.943 106.56 510.037 106.443 510.108C106.33 510.176 106.202 510.21 106.06 510.21ZM112.262 515L116.165 507.278V507.21H111.665V506.273H117.256V507.261L113.37 515H112.262ZM118.845 515V514.233L121.725 511.08C122.064 510.71 122.342 510.389 122.561 510.116C122.779 509.841 122.941 509.582 123.047 509.341C123.154 509.097 123.208 508.841 123.208 508.574C123.208 508.267 123.135 508.001 122.987 507.777C122.842 507.553 122.643 507.379 122.39 507.257C122.137 507.135 121.853 507.074 121.538 507.074C121.203 507.074 120.91 507.143 120.66 507.283C120.413 507.419 120.221 507.611 120.085 507.858C119.951 508.105 119.885 508.395 119.885 508.727H118.879C118.879 508.216 118.997 507.767 119.233 507.381C119.468 506.994 119.789 506.693 120.196 506.477C120.605 506.261 121.064 506.153 121.572 506.153C122.083 506.153 122.537 506.261 122.931 506.477C123.326 506.693 123.636 506.984 123.86 507.351C124.085 507.717 124.197 508.125 124.197 508.574C124.197 508.895 124.139 509.209 124.022 509.516C123.909 509.82 123.71 510.159 123.426 510.534C123.145 510.906 122.754 511.361 122.254 511.898L120.294 513.994V514.062H124.35V515H118.845ZM132.588 505.864L129.775 516.312H128.855L131.667 505.864H132.588ZM138.161 506.273V515H137.155V506.273H138.161ZM143.752 510.79V511.727H139.934V510.79H143.752ZM146.528 511.062V515H145.522V506.273H146.528V509.477H146.613C146.766 509.139 146.996 508.871 147.303 508.672C147.613 508.47 148.025 508.369 148.539 508.369C148.985 508.369 149.376 508.459 149.711 508.638C150.046 508.814 150.306 509.085 150.491 509.452C150.678 509.815 150.772 510.278 150.772 510.841V515H149.766V510.909C149.766 510.389 149.631 509.987 149.362 509.703C149.094 509.416 148.724 509.273 148.249 509.273C147.92 509.273 147.624 509.342 147.363 509.482C147.104 509.621 146.9 509.824 146.749 510.091C146.602 510.358 146.528 510.682 146.528 511.062ZM155.356 515.136C154.725 515.136 154.181 514.997 153.724 514.719C153.27 514.438 152.919 514.045 152.672 513.543C152.427 513.037 152.305 512.449 152.305 511.778C152.305 511.108 152.427 510.517 152.672 510.006C152.919 509.491 153.262 509.091 153.703 508.804C154.146 508.514 154.663 508.369 155.254 508.369C155.595 508.369 155.931 508.426 156.264 508.54C156.596 508.653 156.899 508.838 157.172 509.094C157.444 509.347 157.662 509.682 157.824 510.099C157.985 510.517 158.066 511.031 158.066 511.642V512.068H153.021V511.199H157.044C157.044 510.83 156.97 510.5 156.822 510.21C156.677 509.92 156.47 509.692 156.2 509.524C155.933 509.357 155.618 509.273 155.254 509.273C154.853 509.273 154.507 509.372 154.214 509.571C153.924 509.767 153.701 510.023 153.545 510.338C153.389 510.653 153.311 510.991 153.311 511.352V511.932C153.311 512.426 153.396 512.845 153.566 513.189C153.74 513.53 153.98 513.79 154.287 513.969C154.593 514.145 154.95 514.233 155.356 514.233C155.62 514.233 155.859 514.196 156.072 514.122C156.288 514.045 156.474 513.932 156.63 513.781C156.787 513.628 156.907 513.437 156.993 513.21L157.964 513.483C157.862 513.812 157.69 514.102 157.449 514.352C157.207 514.599 156.909 514.793 156.554 514.932C156.199 515.068 155.799 515.136 155.356 515.136ZM159.596 515V508.455H160.602V515H159.596ZM160.108 507.364C159.912 507.364 159.743 507.297 159.6 507.163C159.461 507.03 159.392 506.869 159.392 506.682C159.392 506.494 159.461 506.334 159.6 506.2C159.743 506.067 159.912 506 160.108 506C160.304 506 160.471 506.067 160.61 506.2C160.752 506.334 160.824 506.494 160.824 506.682C160.824 506.869 160.752 507.03 160.61 507.163C160.471 507.297 160.304 507.364 160.108 507.364ZM165.086 517.591C164.6 517.591 164.183 517.528 163.833 517.403C163.484 517.281 163.192 517.119 162.96 516.918C162.729 516.719 162.546 516.506 162.41 516.278L163.211 515.716C163.302 515.835 163.417 515.972 163.556 516.125C163.695 516.281 163.886 516.416 164.127 516.53C164.371 516.646 164.691 516.705 165.086 516.705C165.614 516.705 166.05 516.577 166.394 516.321C166.738 516.065 166.91 515.665 166.91 515.119V513.79H166.825C166.751 513.909 166.646 514.057 166.509 514.233C166.376 514.406 166.183 514.561 165.93 514.697C165.68 514.831 165.342 514.898 164.915 514.898C164.387 514.898 163.913 514.773 163.492 514.523C163.075 514.273 162.744 513.909 162.499 513.432C162.258 512.955 162.137 512.375 162.137 511.693C162.137 511.023 162.255 510.439 162.491 509.942C162.727 509.442 163.055 509.055 163.475 508.783C163.896 508.507 164.381 508.369 164.933 508.369C165.359 508.369 165.697 508.44 165.947 508.582C166.2 508.722 166.393 508.881 166.526 509.06C166.663 509.236 166.768 509.381 166.842 509.494H166.944V508.455H167.915V515.188C167.915 515.75 167.788 516.207 167.532 516.56C167.279 516.915 166.938 517.175 166.509 517.339C166.083 517.507 165.609 517.591 165.086 517.591ZM165.052 513.994C165.455 513.994 165.796 513.902 166.075 513.717C166.353 513.533 166.565 513.267 166.71 512.92C166.854 512.574 166.927 512.159 166.927 511.676C166.927 511.205 166.856 510.788 166.714 510.428C166.572 510.067 166.362 509.784 166.083 509.58C165.805 509.375 165.461 509.273 165.052 509.273C164.626 509.273 164.271 509.381 163.987 509.597C163.705 509.812 163.494 510.102 163.352 510.466C163.212 510.83 163.143 511.233 163.143 511.676C163.143 512.131 163.214 512.533 163.356 512.882C163.501 513.229 163.714 513.501 163.995 513.7C164.279 513.896 164.631 513.994 165.052 513.994ZM170.762 511.062V515H169.756V506.273H170.762V509.477H170.847C171.001 509.139 171.231 508.871 171.538 508.672C171.847 508.47 172.259 508.369 172.773 508.369C173.219 508.369 173.61 508.459 173.945 508.638C174.281 508.814 174.54 509.085 174.725 509.452C174.913 509.815 175.006 510.278 175.006 510.841V515H174.001V510.909C174.001 510.389 173.866 509.987 173.596 509.703C173.329 509.416 172.958 509.273 172.484 509.273C172.154 509.273 171.859 509.342 171.597 509.482C171.339 509.621 171.134 509.824 170.984 510.091C170.836 510.358 170.762 510.682 170.762 511.062ZM179.693 508.455V509.307H176.301V508.455H179.693ZM177.289 506.886H178.295V513.125C178.295 513.409 178.336 513.622 178.419 513.764C178.504 513.903 178.612 513.997 178.743 514.045C178.876 514.091 179.017 514.114 179.164 514.114C179.275 514.114 179.366 514.108 179.437 514.097C179.508 514.082 179.565 514.071 179.608 514.062L179.812 514.966C179.744 514.991 179.649 515.017 179.527 515.043C179.404 515.071 179.25 515.085 179.062 515.085C178.778 515.085 178.5 515.024 178.227 514.902C177.957 514.78 177.733 514.594 177.554 514.344C177.377 514.094 177.289 513.778 177.289 513.398V506.886ZM181.939 515.068C181.728 515.068 181.548 514.993 181.397 514.842C181.247 514.692 181.172 514.511 181.172 514.301C181.172 514.091 181.247 513.911 181.397 513.76C181.548 513.609 181.728 513.534 181.939 513.534C182.149 513.534 182.329 513.609 182.48 513.76C182.63 513.911 182.706 514.091 182.706 514.301C182.706 514.44 182.67 514.568 182.599 514.685C182.531 514.801 182.439 514.895 182.322 514.966C182.208 515.034 182.081 515.068 181.939 515.068ZM181.939 510.21C181.728 510.21 181.548 510.135 181.397 509.984C181.247 509.834 181.172 509.653 181.172 509.443C181.172 509.233 181.247 509.053 181.397 508.902C181.548 508.751 181.728 508.676 181.939 508.676C182.149 508.676 182.329 508.751 182.48 508.902C182.63 509.053 182.706 509.233 182.706 509.443C182.706 509.582 182.67 509.71 182.599 509.827C182.531 509.943 182.439 510.037 182.322 510.108C182.208 510.176 182.081 510.21 181.939 510.21ZM190.936 506.273V515H189.88V507.381H189.828L187.698 508.795V507.722L189.88 506.273H190.936ZM193.446 515V514.233L196.327 511.08C196.665 510.71 196.944 510.389 197.162 510.116C197.381 509.841 197.543 509.582 197.648 509.341C197.756 509.097 197.81 508.841 197.81 508.574C197.81 508.267 197.736 508.001 197.588 507.777C197.444 507.553 197.245 507.379 196.992 507.257C196.739 507.135 196.455 507.074 196.14 507.074C195.804 507.074 195.512 507.143 195.262 507.283C195.015 507.419 194.823 507.611 194.686 507.858C194.553 508.105 194.486 508.395 194.486 508.727H193.48C193.48 508.216 193.598 507.767 193.834 507.381C194.07 506.994 194.391 506.693 194.797 506.477C195.206 506.261 195.665 506.153 196.174 506.153C196.685 506.153 197.138 506.261 197.533 506.477C197.928 506.693 198.238 506.984 198.462 507.351C198.686 507.717 198.799 508.125 198.799 508.574C198.799 508.895 198.74 509.209 198.624 509.516C198.51 509.82 198.311 510.159 198.027 510.534C197.746 510.906 197.355 511.361 196.855 511.898L194.895 513.994V514.062H198.952V515H193.446ZM203.559 515.119C202.917 515.119 202.37 514.945 201.918 514.595C201.466 514.243 201.121 513.733 200.882 513.065C200.644 512.395 200.525 511.585 200.525 510.636C200.525 509.693 200.644 508.888 200.882 508.22C201.124 507.55 201.471 507.038 201.922 506.686C202.377 506.331 202.922 506.153 203.559 506.153C204.195 506.153 204.739 506.331 205.191 506.686C205.645 507.038 205.992 507.55 206.23 508.22C206.472 508.888 206.593 509.693 206.593 510.636C206.593 511.585 206.473 512.395 206.235 513.065C205.996 513.733 205.651 514.243 205.199 514.595C204.748 514.945 204.201 515.119 203.559 515.119ZM203.559 514.182C204.195 514.182 204.689 513.875 205.042 513.261C205.394 512.648 205.57 511.773 205.57 510.636C205.57 509.881 205.489 509.237 205.327 508.706C205.168 508.175 204.938 507.77 204.637 507.491C204.338 507.213 203.979 507.074 203.559 507.074C202.928 507.074 202.435 507.385 202.08 508.007C201.725 508.626 201.547 509.503 201.547 510.636C201.547 511.392 201.627 512.034 201.786 512.562C201.945 513.091 202.174 513.493 202.472 513.768C202.773 514.044 203.135 514.182 203.559 514.182Z" fill="#919EAB"/>
<path d="M247.733 482.477C245.188 482.477 242.92 482.04 240.932 481.165C238.955 480.278 237.392 479.062 236.244 477.517C235.108 475.96 234.523 474.165 234.489 472.131H241.92C241.966 472.983 242.244 473.733 242.756 474.381C243.278 475.017 243.972 475.511 244.835 475.864C245.699 476.216 246.67 476.392 247.75 476.392C248.875 476.392 249.869 476.193 250.733 475.795C251.597 475.398 252.273 474.847 252.761 474.142C253.25 473.437 253.494 472.625 253.494 471.705C253.494 470.773 253.233 469.949 252.71 469.233C252.199 468.506 251.46 467.937 250.494 467.528C249.54 467.119 248.403 466.915 247.085 466.915H243.83V461.494H247.085C248.199 461.494 249.182 461.301 250.034 460.915C250.898 460.528 251.568 459.994 252.045 459.312C252.523 458.619 252.761 457.812 252.761 456.892C252.761 456.017 252.551 455.25 252.131 454.591C251.722 453.92 251.142 453.398 250.392 453.023C249.653 452.648 248.79 452.46 247.801 452.46C246.801 452.46 245.886 452.642 245.057 453.006C244.227 453.358 243.562 453.864 243.062 454.523C242.562 455.182 242.295 455.955 242.261 456.841H235.188C235.222 454.83 235.795 453.057 236.909 451.523C238.023 449.989 239.523 448.79 241.409 447.926C243.307 447.051 245.449 446.614 247.835 446.614C250.244 446.614 252.352 447.051 254.159 447.926C255.966 448.801 257.369 449.983 258.369 451.472C259.381 452.949 259.881 454.608 259.869 456.449C259.881 458.403 259.273 460.034 258.045 461.341C256.83 462.648 255.244 463.477 253.29 463.83V464.102C255.858 464.432 257.813 465.324 259.153 466.778C260.506 468.222 261.176 470.028 261.165 472.199C261.176 474.188 260.602 475.955 259.443 477.5C258.295 479.045 256.71 480.261 254.688 481.148C252.665 482.034 250.347 482.477 247.733 482.477ZM271.647 455.818L276.453 464.972L281.379 455.818H288.828L281.243 468.909L289.033 482H281.618L276.453 472.949L271.374 482H263.874L271.647 468.909L264.147 455.818H271.647ZM299.442 447.091V482H292.181V447.091H299.442Z" fill="#D4D4D4"/>
<path d="M237.557 509.92L236.653 510.176C236.597 510.026 236.513 509.879 236.402 509.737C236.294 509.592 236.146 509.473 235.959 509.379C235.771 509.286 235.531 509.239 235.239 509.239C234.838 509.239 234.504 509.331 234.237 509.516C233.973 509.697 233.841 509.929 233.841 510.21C233.841 510.46 233.932 510.658 234.114 510.803C234.295 510.947 234.58 511.068 234.966 511.165L235.938 511.403C236.523 511.545 236.959 511.763 237.246 512.055C237.533 512.345 237.676 512.719 237.676 513.176C237.676 513.551 237.568 513.886 237.352 514.182C237.139 514.477 236.841 514.71 236.457 514.881C236.074 515.051 235.628 515.136 235.119 515.136C234.452 515.136 233.899 514.991 233.462 514.702C233.024 514.412 232.747 513.989 232.631 513.432L233.585 513.193C233.676 513.545 233.848 513.81 234.101 513.986C234.357 514.162 234.69 514.25 235.102 514.25C235.571 514.25 235.943 514.151 236.219 513.952C236.497 513.75 236.636 513.509 236.636 513.227C236.636 513 236.557 512.81 236.398 512.656C236.239 512.5 235.994 512.384 235.665 512.307L234.574 512.051C233.974 511.909 233.534 511.689 233.253 511.391C232.974 511.089 232.835 510.713 232.835 510.261C232.835 509.892 232.939 509.565 233.146 509.281C233.357 508.997 233.642 508.774 234.003 508.612C234.366 508.45 234.778 508.369 235.239 508.369C235.886 508.369 236.395 508.511 236.764 508.795C237.136 509.08 237.401 509.455 237.557 509.92ZM239.19 515V508.455H240.196V515H239.19ZM239.701 507.364C239.505 507.364 239.336 507.297 239.194 507.163C239.055 507.03 238.985 506.869 238.985 506.682C238.985 506.494 239.055 506.334 239.194 506.2C239.336 506.067 239.505 506 239.701 506C239.897 506 240.065 506.067 240.204 506.2C240.346 506.334 240.417 506.494 240.417 506.682C240.417 506.869 240.346 507.03 240.204 507.163C240.065 507.297 239.897 507.364 239.701 507.364ZM241.85 515V514.233L245.566 509.46V509.392H241.969V508.455H246.862V509.256L243.248 513.994V514.062H246.981V515H241.85ZM251.087 515.136C250.456 515.136 249.912 514.997 249.455 514.719C249 514.438 248.649 514.045 248.402 513.543C248.158 513.037 248.036 512.449 248.036 511.778C248.036 511.108 248.158 510.517 248.402 510.006C248.649 509.491 248.993 509.091 249.433 508.804C249.876 508.514 250.393 508.369 250.984 508.369C251.325 508.369 251.662 508.426 251.994 508.54C252.327 508.653 252.629 508.838 252.902 509.094C253.175 509.347 253.392 509.682 253.554 510.099C253.716 510.517 253.797 511.031 253.797 511.642V512.068H248.751V511.199H252.774C252.774 510.83 252.7 510.5 252.553 510.21C252.408 509.92 252.2 509.692 251.93 509.524C251.663 509.357 251.348 509.273 250.984 509.273C250.584 509.273 250.237 509.372 249.945 509.571C249.655 509.767 249.432 510.023 249.276 510.338C249.119 510.653 249.041 510.991 249.041 511.352V511.932C249.041 512.426 249.126 512.845 249.297 513.189C249.47 513.53 249.71 513.79 250.017 513.969C250.324 514.145 250.68 514.233 251.087 514.233C251.351 514.233 251.589 514.196 251.803 514.122C252.018 514.045 252.205 513.932 252.361 513.781C252.517 513.628 252.638 513.437 252.723 513.21L253.695 513.483C253.592 513.812 253.42 514.102 253.179 514.352C252.938 514.599 252.639 514.793 252.284 514.932C251.929 515.068 251.53 515.136 251.087 515.136ZM256.06 515.068C255.849 515.068 255.669 514.993 255.518 514.842C255.368 514.692 255.293 514.511 255.293 514.301C255.293 514.091 255.368 513.911 255.518 513.76C255.669 513.609 255.849 513.534 256.06 513.534C256.27 513.534 256.45 513.609 256.601 513.76C256.751 513.911 256.827 514.091 256.827 514.301C256.827 514.44 256.791 514.568 256.72 514.685C256.652 514.801 256.56 514.895 256.443 514.966C256.33 515.034 256.202 515.068 256.06 515.068ZM256.06 510.21C255.849 510.21 255.669 510.135 255.518 509.984C255.368 509.834 255.293 509.653 255.293 509.443C255.293 509.233 255.368 509.053 255.518 508.902C255.669 508.751 255.849 508.676 256.06 508.676C256.27 508.676 256.45 508.751 256.601 508.902C256.751 509.053 256.827 509.233 256.827 509.443C256.827 509.582 256.791 509.71 256.72 509.827C256.652 509.943 256.56 510.037 256.443 510.108C256.33 510.176 256.202 510.21 256.06 510.21ZM261.785 513.21V512.341L265.62 506.273H266.251V507.619H265.825L262.927 512.205V512.273H268.092V513.21H261.785ZM265.893 515V512.946V512.541V506.273H266.898V515H265.893ZM272.484 515.119C271.899 515.119 271.382 515.016 270.933 514.808C270.487 514.598 270.139 514.31 269.889 513.943C269.639 513.574 269.515 513.153 269.518 512.682C269.515 512.312 269.588 511.972 269.735 511.659C269.883 511.344 270.085 511.081 270.341 510.871C270.599 510.658 270.887 510.523 271.206 510.466V510.415C270.788 510.307 270.456 510.072 270.208 509.712C269.961 509.348 269.839 508.935 269.842 508.472C269.839 508.028 269.951 507.632 270.179 507.283C270.406 506.933 270.718 506.658 271.116 506.456C271.517 506.254 271.973 506.153 272.484 506.153C272.99 506.153 273.441 506.254 273.839 506.456C274.237 506.658 274.549 506.933 274.777 507.283C275.007 507.632 275.123 508.028 275.126 508.472C275.123 508.935 274.997 509.348 274.747 509.712C274.5 510.072 274.172 510.307 273.762 510.415V510.466C274.078 510.523 274.362 510.658 274.615 510.871C274.868 511.081 275.069 511.344 275.22 511.659C275.37 511.972 275.447 512.312 275.45 512.682C275.447 513.153 275.319 513.574 275.066 513.943C274.816 514.31 274.468 514.598 274.022 514.808C273.579 515.016 273.066 515.119 272.484 515.119ZM272.484 514.182C272.879 514.182 273.22 514.118 273.507 513.99C273.794 513.862 274.015 513.682 274.172 513.449C274.328 513.216 274.407 512.943 274.41 512.631C274.407 512.301 274.322 512.01 274.154 511.757C273.987 511.504 273.758 511.305 273.468 511.161C273.181 511.016 272.853 510.943 272.484 510.943C272.112 510.943 271.779 511.016 271.487 511.161C271.197 511.305 270.968 511.504 270.801 511.757C270.636 512.01 270.555 512.301 270.558 512.631C270.555 512.943 270.63 513.216 270.784 513.449C270.94 513.682 271.163 513.862 271.453 513.99C271.743 514.118 272.086 514.182 272.484 514.182ZM272.484 510.04C272.797 510.04 273.074 509.977 273.315 509.852C273.559 509.727 273.751 509.553 273.89 509.328C274.029 509.104 274.1 508.841 274.103 508.54C274.1 508.244 274.031 507.987 273.895 507.768C273.758 507.547 273.569 507.376 273.328 507.257C273.086 507.135 272.805 507.074 272.484 507.074C272.157 507.074 271.872 507.135 271.627 507.257C271.383 507.376 271.194 507.547 271.061 507.768C270.927 507.987 270.862 508.244 270.865 508.54C270.862 508.841 270.929 509.104 271.065 509.328C271.204 509.553 271.396 509.727 271.64 509.852C271.885 509.977 272.166 510.04 272.484 510.04ZM283.56 505.864L280.748 516.312H279.827L282.64 505.864H283.56ZM289.133 506.273V515H288.127V506.273H289.133ZM294.725 510.79V511.727H290.907V510.79H294.725ZM297.5 511.062V515H296.495V506.273H297.5V509.477H297.586C297.739 509.139 297.969 508.871 298.276 508.672C298.586 508.47 298.998 508.369 299.512 508.369C299.958 508.369 300.348 508.459 300.684 508.638C301.019 508.814 301.279 509.085 301.463 509.452C301.651 509.815 301.745 510.278 301.745 510.841V515H300.739V510.909C300.739 510.389 300.604 509.987 300.334 509.703C300.067 509.416 299.696 509.273 299.222 509.273C298.892 509.273 298.597 509.342 298.336 509.482C298.077 509.621 297.873 509.824 297.722 510.091C297.574 510.358 297.5 510.682 297.5 511.062ZM306.329 515.136C305.698 515.136 305.154 514.997 304.697 514.719C304.242 514.438 303.891 514.045 303.644 513.543C303.4 513.037 303.278 512.449 303.278 511.778C303.278 511.108 303.4 510.517 303.644 510.006C303.891 509.491 304.235 509.091 304.675 508.804C305.119 508.514 305.636 508.369 306.227 508.369C306.567 508.369 306.904 508.426 307.237 508.54C307.569 508.653 307.871 508.838 308.144 509.094C308.417 509.347 308.634 509.682 308.796 510.099C308.958 510.517 309.039 511.031 309.039 511.642V512.068H303.994V511.199H308.016C308.016 510.83 307.942 510.5 307.795 510.21C307.65 509.92 307.442 509.692 307.173 509.524C306.906 509.357 306.59 509.273 306.227 509.273C305.826 509.273 305.479 509.372 305.187 509.571C304.897 509.767 304.674 510.023 304.518 510.338C304.362 510.653 304.283 510.991 304.283 511.352V511.932C304.283 512.426 304.369 512.845 304.539 513.189C304.712 513.53 304.952 513.79 305.259 513.969C305.566 514.145 305.923 514.233 306.329 514.233C306.593 514.233 306.832 514.196 307.045 514.122C307.261 514.045 307.447 513.932 307.603 513.781C307.759 513.628 307.88 513.437 307.965 513.21L308.937 513.483C308.835 513.812 308.663 514.102 308.421 514.352C308.18 514.599 307.881 514.793 307.526 514.932C307.171 515.068 306.772 515.136 306.329 515.136ZM310.569 515V508.455H311.575V515H310.569ZM311.08 507.364C310.884 507.364 310.715 507.297 310.573 507.163C310.434 507.03 310.364 506.869 310.364 506.682C310.364 506.494 310.434 506.334 310.573 506.2C310.715 506.067 310.884 506 311.08 506C311.276 506 311.444 506.067 311.583 506.2C311.725 506.334 311.796 506.494 311.796 506.682C311.796 506.869 311.725 507.03 311.583 507.163C311.444 507.297 311.276 507.364 311.08 507.364ZM316.059 517.591C315.573 517.591 315.155 517.528 314.806 517.403C314.456 517.281 314.165 517.119 313.932 516.918C313.702 516.719 313.519 516.506 313.382 516.278L314.184 515.716C314.275 515.835 314.39 515.972 314.529 516.125C314.668 516.281 314.858 516.416 315.1 516.53C315.344 516.646 315.664 516.705 316.059 516.705C316.587 516.705 317.023 516.577 317.367 516.321C317.711 516.065 317.882 515.665 317.882 515.119V513.79H317.797C317.723 513.909 317.618 514.057 317.482 514.233C317.348 514.406 317.155 514.561 316.902 514.697C316.652 514.831 316.314 514.898 315.888 514.898C315.36 514.898 314.885 514.773 314.465 514.523C314.047 514.273 313.716 513.909 313.472 513.432C313.23 512.955 313.11 512.375 313.11 511.693C313.11 511.023 313.228 510.439 313.463 509.942C313.699 509.442 314.027 509.055 314.448 508.783C314.868 508.507 315.354 508.369 315.905 508.369C316.331 508.369 316.669 508.44 316.919 508.582C317.172 508.722 317.365 508.881 317.499 509.06C317.635 509.236 317.74 509.381 317.814 509.494H317.917V508.455H318.888V515.188C318.888 515.75 318.76 516.207 318.505 516.56C318.252 516.915 317.911 517.175 317.482 517.339C317.056 517.507 316.581 517.591 316.059 517.591ZM316.025 513.994C316.428 513.994 316.769 513.902 317.047 513.717C317.326 513.533 317.537 513.267 317.682 512.92C317.827 512.574 317.9 512.159 317.9 511.676C317.9 511.205 317.828 510.788 317.686 510.428C317.544 510.067 317.334 509.784 317.056 509.58C316.777 509.375 316.434 509.273 316.025 509.273C315.598 509.273 315.243 509.381 314.959 509.597C314.678 509.812 314.466 510.102 314.324 510.466C314.185 510.83 314.115 511.233 314.115 511.676C314.115 512.131 314.186 512.533 314.328 512.882C314.473 513.229 314.686 513.501 314.968 513.7C315.252 513.896 315.604 513.994 316.025 513.994ZM321.735 511.062V515H320.729V506.273H321.735V509.477H321.82C321.973 509.139 322.203 508.871 322.51 508.672C322.82 508.47 323.232 508.369 323.746 508.369C324.192 508.369 324.583 508.459 324.918 508.638C325.253 508.814 325.513 509.085 325.698 509.452C325.885 509.815 325.979 510.278 325.979 510.841V515H324.973V510.909C324.973 510.389 324.838 509.987 324.569 509.703C324.301 509.416 323.931 509.273 323.456 509.273C323.127 509.273 322.831 509.342 322.57 509.482C322.311 509.621 322.107 509.824 321.956 510.091C321.809 510.358 321.735 510.682 321.735 511.062ZM330.665 508.455V509.307H327.273V508.455H330.665ZM328.262 506.886H329.268V513.125C329.268 513.409 329.309 513.622 329.391 513.764C329.477 513.903 329.585 513.997 329.715 514.045C329.849 514.091 329.989 514.114 330.137 514.114C330.248 514.114 330.339 514.108 330.41 514.097C330.481 514.082 330.538 514.071 330.58 514.062L330.785 514.966C330.717 514.991 330.621 515.017 330.499 515.043C330.377 515.071 330.222 515.085 330.035 515.085C329.751 515.085 329.472 515.024 329.2 514.902C328.93 514.78 328.705 514.594 328.526 514.344C328.35 514.094 328.262 513.778 328.262 513.398V506.886ZM332.911 515.068C332.701 515.068 332.521 514.993 332.37 514.842C332.219 514.692 332.144 514.511 332.144 514.301C332.144 514.091 332.219 513.911 332.37 513.76C332.521 513.609 332.701 513.534 332.911 513.534C333.121 513.534 333.302 513.609 333.452 513.76C333.603 513.911 333.678 514.091 333.678 514.301C333.678 514.44 333.643 514.568 333.572 514.685C333.504 514.801 333.411 514.895 333.295 514.966C333.181 515.034 333.053 515.068 332.911 515.068ZM332.911 510.21C332.701 510.21 332.521 510.135 332.37 509.984C332.219 509.834 332.144 509.653 332.144 509.443C332.144 509.233 332.219 509.053 332.37 508.902C332.521 508.751 332.701 508.676 332.911 508.676C333.121 508.676 333.302 508.751 333.452 508.902C333.603 509.053 333.678 509.233 333.678 509.443C333.678 509.582 333.643 509.71 333.572 509.827C333.504 509.943 333.411 510.037 333.295 510.108C333.181 510.176 333.053 510.21 332.911 510.21ZM341.909 506.273V515H340.852V507.381H340.801L338.67 508.795V507.722L340.852 506.273H341.909ZM344.419 515V514.233L347.3 511.08C347.638 510.71 347.916 510.389 348.135 510.116C348.354 509.841 348.516 509.582 348.621 509.341C348.729 509.097 348.783 508.841 348.783 508.574C348.783 508.267 348.709 508.001 348.561 507.777C348.416 507.553 348.217 507.379 347.964 507.257C347.712 507.135 347.428 507.074 347.112 507.074C346.777 507.074 346.484 507.143 346.234 507.283C345.987 507.419 345.795 507.611 345.659 507.858C345.526 508.105 345.459 508.395 345.459 508.727H344.453C344.453 508.216 344.571 507.767 344.807 507.381C345.043 506.994 345.364 506.693 345.77 506.477C346.179 506.261 346.638 506.153 347.146 506.153C347.658 506.153 348.111 506.261 348.506 506.477C348.901 506.693 349.21 506.984 349.435 507.351C349.659 507.717 349.771 508.125 349.771 508.574C349.771 508.895 349.713 509.209 349.597 509.516C349.483 509.82 349.284 510.159 349 510.534C348.719 510.906 348.328 511.361 347.828 511.898L345.868 513.994V514.062H349.925V515H344.419ZM354.531 515.119C353.889 515.119 353.342 514.945 352.891 514.595C352.439 514.243 352.094 513.733 351.855 513.065C351.616 512.395 351.497 511.585 351.497 510.636C351.497 509.693 351.616 508.888 351.855 508.22C352.097 507.55 352.443 507.038 352.895 506.686C353.349 506.331 353.895 506.153 354.531 506.153C355.168 506.153 355.712 506.331 356.163 506.686C356.618 507.038 356.964 507.55 357.203 508.22C357.445 508.888 357.565 509.693 357.565 510.636C357.565 511.585 357.446 512.395 357.207 513.065C356.969 513.733 356.624 514.243 356.172 514.595C355.72 514.945 355.173 515.119 354.531 515.119ZM354.531 514.182C355.168 514.182 355.662 513.875 356.014 513.261C356.366 512.648 356.543 511.773 356.543 510.636C356.543 509.881 356.462 509.237 356.3 508.706C356.141 508.175 355.911 507.77 355.609 507.491C355.311 507.213 354.952 507.074 354.531 507.074C353.901 507.074 353.408 507.385 353.053 508.007C352.697 508.626 352.52 509.503 352.52 510.636C352.52 511.392 352.599 512.034 352.759 512.562C352.918 513.091 353.146 513.493 353.445 513.768C353.746 514.044 354.108 514.182 354.531 514.182Z" fill="#919EAB"/>
<path d="M385.122 486V482.011L394.442 473.382C395.234 472.615 395.899 471.925 396.436 471.311C396.982 470.697 397.395 470.097 397.676 469.509C397.957 468.912 398.098 468.268 398.098 467.578C398.098 466.811 397.923 466.151 397.574 465.597C397.224 465.034 396.747 464.604 396.142 464.305C395.537 463.999 394.851 463.845 394.084 463.845C393.283 463.845 392.584 464.007 391.987 464.331C391.391 464.655 390.93 465.119 390.607 465.724C390.283 466.33 390.121 467.05 390.121 467.885H384.866C384.866 466.172 385.254 464.685 386.03 463.423C386.805 462.162 387.892 461.186 389.29 460.496C390.688 459.805 392.298 459.46 394.122 459.46C395.997 459.46 397.629 459.793 399.018 460.457C400.416 461.114 401.503 462.026 402.278 463.193C403.054 464.361 403.442 465.699 403.442 467.207C403.442 468.196 403.246 469.172 402.854 470.135C402.47 471.098 401.784 472.168 400.795 473.344C399.807 474.511 398.413 475.913 396.615 477.55L392.793 481.295V481.474H403.787V486H385.122ZM411.68 466.364L415.285 473.229L418.98 466.364H424.567L418.878 476.182L424.72 486H419.159L415.285 479.212L411.476 486H405.851L411.68 476.182L406.055 466.364H411.68ZM432.527 459.818V486H427.081V459.818H432.527Z" fill="#D4D4D4"/>
<path d="M388.557 509.92L387.653 510.176C387.597 510.026 387.513 509.879 387.402 509.737C387.294 509.592 387.146 509.473 386.959 509.379C386.771 509.286 386.531 509.239 386.239 509.239C385.838 509.239 385.504 509.331 385.237 509.516C384.973 509.697 384.841 509.929 384.841 510.21C384.841 510.46 384.932 510.658 385.114 510.803C385.295 510.947 385.58 511.068 385.966 511.165L386.938 511.403C387.523 511.545 387.959 511.763 388.246 512.055C388.533 512.345 388.676 512.719 388.676 513.176C388.676 513.551 388.568 513.886 388.352 514.182C388.139 514.477 387.841 514.71 387.457 514.881C387.074 515.051 386.628 515.136 386.119 515.136C385.452 515.136 384.899 514.991 384.462 514.702C384.024 514.412 383.747 513.989 383.631 513.432L384.585 513.193C384.676 513.545 384.848 513.81 385.101 513.986C385.357 514.162 385.69 514.25 386.102 514.25C386.571 514.25 386.943 514.151 387.219 513.952C387.497 513.75 387.636 513.509 387.636 513.227C387.636 513 387.557 512.81 387.398 512.656C387.239 512.5 386.994 512.384 386.665 512.307L385.574 512.051C384.974 511.909 384.534 511.689 384.253 511.391C383.974 511.089 383.835 510.713 383.835 510.261C383.835 509.892 383.939 509.565 384.146 509.281C384.357 508.997 384.642 508.774 385.003 508.612C385.366 508.45 385.778 508.369 386.239 508.369C386.886 508.369 387.395 508.511 387.764 508.795C388.136 509.08 388.401 509.455 388.557 509.92ZM390.19 515V508.455H391.196V515H390.19ZM390.701 507.364C390.505 507.364 390.336 507.297 390.194 507.163C390.055 507.03 389.985 506.869 389.985 506.682C389.985 506.494 390.055 506.334 390.194 506.2C390.336 506.067 390.505 506 390.701 506C390.897 506 391.065 506.067 391.204 506.2C391.346 506.334 391.417 506.494 391.417 506.682C391.417 506.869 391.346 507.03 391.204 507.163C391.065 507.297 390.897 507.364 390.701 507.364ZM392.85 515V514.233L396.566 509.46V509.392H392.969V508.455H397.862V509.256L394.248 513.994V514.062H397.981V515H392.85ZM402.087 515.136C401.456 515.136 400.912 514.997 400.455 514.719C400 514.438 399.649 514.045 399.402 513.543C399.158 513.037 399.036 512.449 399.036 511.778C399.036 511.108 399.158 510.517 399.402 510.006C399.649 509.491 399.993 509.091 400.433 508.804C400.876 508.514 401.393 508.369 401.984 508.369C402.325 508.369 402.662 508.426 402.994 508.54C403.327 508.653 403.629 508.838 403.902 509.094C404.175 509.347 404.392 509.682 404.554 510.099C404.716 510.517 404.797 511.031 404.797 511.642V512.068H399.751V511.199H403.774C403.774 510.83 403.7 510.5 403.553 510.21C403.408 509.92 403.2 509.692 402.93 509.524C402.663 509.357 402.348 509.273 401.984 509.273C401.584 509.273 401.237 509.372 400.945 509.571C400.655 509.767 400.432 510.023 400.276 510.338C400.119 510.653 400.041 510.991 400.041 511.352V511.932C400.041 512.426 400.126 512.845 400.297 513.189C400.47 513.53 400.71 513.79 401.017 513.969C401.324 514.145 401.68 514.233 402.087 514.233C402.351 514.233 402.589 514.196 402.803 514.122C403.018 514.045 403.205 513.932 403.361 513.781C403.517 513.628 403.638 513.437 403.723 513.21L404.695 513.483C404.592 513.812 404.42 514.102 404.179 514.352C403.938 514.599 403.639 514.793 403.284 514.932C402.929 515.068 402.53 515.136 402.087 515.136ZM407.06 515.068C406.849 515.068 406.669 514.993 406.518 514.842C406.368 514.692 406.293 514.511 406.293 514.301C406.293 514.091 406.368 513.911 406.518 513.76C406.669 513.609 406.849 513.534 407.06 513.534C407.27 513.534 407.45 513.609 407.601 513.76C407.751 513.911 407.827 514.091 407.827 514.301C407.827 514.44 407.791 514.568 407.72 514.685C407.652 514.801 407.56 514.895 407.443 514.966C407.33 515.034 407.202 515.068 407.06 515.068ZM407.06 510.21C406.849 510.21 406.669 510.135 406.518 509.984C406.368 509.834 406.293 509.653 406.293 509.443C406.293 509.233 406.368 509.053 406.518 508.902C406.669 508.751 406.849 508.676 407.06 508.676C407.27 508.676 407.45 508.751 407.601 508.902C407.751 509.053 407.827 509.233 407.827 509.443C407.827 509.582 407.791 509.71 407.72 509.827C407.652 509.943 407.56 510.037 407.443 510.108C407.33 510.176 407.202 510.21 407.06 510.21ZM415.938 515.119C415.376 515.119 414.874 515.023 414.434 514.83C413.996 514.636 413.648 514.368 413.39 514.024C413.134 513.678 412.995 513.276 412.972 512.818H414.046C414.069 513.099 414.165 513.342 414.336 513.547C414.506 513.749 414.729 513.905 415.005 514.016C415.281 514.126 415.586 514.182 415.921 514.182C416.296 514.182 416.629 514.116 416.918 513.986C417.208 513.855 417.435 513.673 417.6 513.44C417.765 513.207 417.847 512.938 417.847 512.631C417.847 512.31 417.768 512.027 417.609 511.783C417.45 511.536 417.217 511.342 416.91 511.203C416.603 511.064 416.228 510.994 415.785 510.994H415.086V510.057H415.785C416.131 510.057 416.435 509.994 416.697 509.869C416.961 509.744 417.167 509.568 417.315 509.341C417.465 509.114 417.54 508.847 417.54 508.54C417.54 508.244 417.475 507.987 417.344 507.768C417.214 507.55 417.029 507.379 416.79 507.257C416.555 507.135 416.276 507.074 415.955 507.074C415.654 507.074 415.37 507.129 415.103 507.24C414.839 507.348 414.623 507.506 414.455 507.713C414.288 507.918 414.197 508.165 414.183 508.455H413.16C413.177 507.997 413.315 507.597 413.573 507.253C413.832 506.906 414.17 506.636 414.587 506.443C415.008 506.25 415.469 506.153 415.972 506.153C416.512 506.153 416.975 506.263 417.362 506.482C417.748 506.697 418.045 506.983 418.252 507.338C418.46 507.693 418.563 508.077 418.563 508.489C418.563 508.98 418.434 509.399 418.175 509.746C417.92 510.092 417.572 510.332 417.131 510.466V510.534C417.683 510.625 418.113 510.859 418.423 511.237C418.732 511.612 418.887 512.077 418.887 512.631C418.887 513.105 418.758 513.531 418.499 513.909C418.244 514.284 417.894 514.58 417.451 514.795C417.008 515.011 416.504 515.119 415.938 515.119ZM423.528 515.119C423.17 515.114 422.812 515.045 422.454 514.915C422.096 514.784 421.769 514.564 421.474 514.254C421.178 513.942 420.941 513.52 420.762 512.989C420.583 512.455 420.494 511.784 420.494 510.977C420.494 510.205 420.566 509.52 420.711 508.923C420.856 508.324 421.066 507.82 421.342 507.411C421.617 506.999 421.95 506.686 422.339 506.473C422.731 506.26 423.173 506.153 423.664 506.153C424.153 506.153 424.587 506.251 424.968 506.447C425.352 506.641 425.664 506.911 425.906 507.257C426.147 507.604 426.303 508.003 426.374 508.455H425.335C425.238 508.062 425.05 507.737 424.772 507.479C424.494 507.22 424.124 507.091 423.664 507.091C422.988 507.091 422.455 507.385 422.066 507.973C421.68 508.561 421.485 509.386 421.482 510.449H421.55C421.71 510.207 421.898 510.001 422.117 509.831C422.339 509.658 422.583 509.524 422.85 509.43C423.117 509.337 423.4 509.29 423.698 509.29C424.198 509.29 424.656 509.415 425.07 509.665C425.485 509.912 425.817 510.254 426.067 510.692C426.317 511.126 426.442 511.625 426.442 512.188C426.442 512.727 426.322 513.222 426.08 513.67C425.839 514.116 425.499 514.472 425.062 514.736C424.627 514.997 424.116 515.125 423.528 515.119ZM423.528 514.182C423.886 514.182 424.207 514.092 424.491 513.913C424.778 513.734 425.004 513.494 425.168 513.193C425.336 512.892 425.42 512.557 425.42 512.188C425.42 511.827 425.339 511.499 425.177 511.203C425.018 510.905 424.798 510.668 424.516 510.491C424.238 510.315 423.92 510.227 423.562 510.227C423.292 510.227 423.04 510.281 422.808 510.389C422.575 510.494 422.37 510.639 422.194 510.824C422.021 511.009 421.884 511.22 421.785 511.459C421.685 511.695 421.636 511.943 421.636 512.205C421.636 512.551 421.717 512.875 421.879 513.176C422.043 513.477 422.268 513.72 422.552 513.905C422.839 514.089 423.164 514.182 423.528 514.182ZM434.596 505.864L431.783 516.312H430.863L433.675 505.864H434.596ZM440.168 506.273V515H439.163V506.273H440.168ZM445.76 510.79V511.727H441.942V510.79H445.76ZM448.536 511.062V515H447.53V506.273H448.536V509.477H448.621C448.774 509.139 449.004 508.871 449.311 508.672C449.621 508.47 450.033 508.369 450.547 508.369C450.993 508.369 451.384 508.459 451.719 508.638C452.054 508.814 452.314 509.085 452.499 509.452C452.686 509.815 452.78 510.278 452.78 510.841V515H451.774V510.909C451.774 510.389 451.639 509.987 451.369 509.703C451.102 509.416 450.732 509.273 450.257 509.273C449.928 509.273 449.632 509.342 449.371 509.482C449.112 509.621 448.908 509.824 448.757 510.091C448.609 510.358 448.536 510.682 448.536 511.062ZM457.364 515.136C456.733 515.136 456.189 514.997 455.732 514.719C455.277 514.438 454.926 514.045 454.679 513.543C454.435 513.037 454.313 512.449 454.313 511.778C454.313 511.108 454.435 510.517 454.679 510.006C454.926 509.491 455.27 509.091 455.711 508.804C456.154 508.514 456.671 508.369 457.262 508.369C457.603 508.369 457.939 508.426 458.272 508.54C458.604 508.653 458.907 508.838 459.179 509.094C459.452 509.347 459.669 509.682 459.831 510.099C459.993 510.517 460.074 511.031 460.074 511.642V512.068H455.029V511.199H459.051C459.051 510.83 458.978 510.5 458.83 510.21C458.685 509.92 458.478 509.692 458.208 509.524C457.941 509.357 457.625 509.273 457.262 509.273C456.861 509.273 456.515 509.372 456.222 509.571C455.932 509.767 455.709 510.023 455.553 510.338C455.397 510.653 455.319 510.991 455.319 511.352V511.932C455.319 512.426 455.404 512.845 455.574 513.189C455.748 513.53 455.988 513.79 456.294 513.969C456.601 514.145 456.958 514.233 457.364 514.233C457.628 514.233 457.867 514.196 458.08 514.122C458.296 514.045 458.482 513.932 458.638 513.781C458.794 513.628 458.915 513.437 459 513.21L459.972 513.483C459.87 513.812 459.698 514.102 459.456 514.352C459.215 514.599 458.917 514.793 458.561 514.932C458.206 515.068 457.807 515.136 457.364 515.136ZM461.604 515V508.455H462.61V515H461.604ZM462.115 507.364C461.919 507.364 461.75 507.297 461.608 507.163C461.469 507.03 461.4 506.869 461.4 506.682C461.4 506.494 461.469 506.334 461.608 506.2C461.75 506.067 461.919 506 462.115 506C462.311 506 462.479 506.067 462.618 506.2C462.76 506.334 462.831 506.494 462.831 506.682C462.831 506.869 462.76 507.03 462.618 507.163C462.479 507.297 462.311 507.364 462.115 507.364ZM467.094 517.591C466.608 517.591 466.19 517.528 465.841 517.403C465.491 517.281 465.2 517.119 464.967 516.918C464.737 516.719 464.554 516.506 464.418 516.278L465.219 515.716C465.31 515.835 465.425 515.972 465.564 516.125C465.703 516.281 465.893 516.416 466.135 516.53C466.379 516.646 466.699 516.705 467.094 516.705C467.622 516.705 468.058 516.577 468.402 516.321C468.746 516.065 468.918 515.665 468.918 515.119V513.79H468.832C468.759 513.909 468.653 514.057 468.517 514.233C468.384 514.406 468.19 514.561 467.938 514.697C467.688 514.831 467.349 514.898 466.923 514.898C466.395 514.898 465.92 514.773 465.5 514.523C465.082 514.273 464.751 513.909 464.507 513.432C464.266 512.955 464.145 512.375 464.145 511.693C464.145 511.023 464.263 510.439 464.499 509.942C464.734 509.442 465.063 509.055 465.483 508.783C465.903 508.507 466.389 508.369 466.94 508.369C467.366 508.369 467.705 508.44 467.955 508.582C468.207 508.722 468.401 508.881 468.534 509.06C468.67 509.236 468.776 509.381 468.849 509.494H468.952V508.455H469.923V515.188C469.923 515.75 469.795 516.207 469.54 516.56C469.287 516.915 468.946 517.175 468.517 517.339C468.091 517.507 467.616 517.591 467.094 517.591ZM467.06 513.994C467.463 513.994 467.804 513.902 468.082 513.717C468.361 513.533 468.572 513.267 468.717 512.92C468.862 512.574 468.935 512.159 468.935 511.676C468.935 511.205 468.864 510.788 468.722 510.428C468.58 510.067 468.369 509.784 468.091 509.58C467.813 509.375 467.469 509.273 467.06 509.273C466.634 509.273 466.278 509.381 465.994 509.597C465.713 509.812 465.501 510.102 465.359 510.466C465.22 510.83 465.151 511.233 465.151 511.676C465.151 512.131 465.222 512.533 465.364 512.882C465.509 513.229 465.722 513.501 466.003 513.7C466.287 513.896 466.639 513.994 467.06 513.994ZM472.77 511.062V515H471.764V506.273H472.77V509.477H472.855C473.009 509.139 473.239 508.871 473.545 508.672C473.855 508.47 474.267 508.369 474.781 508.369C475.227 508.369 475.618 508.459 475.953 508.638C476.288 508.814 476.548 509.085 476.733 509.452C476.92 509.815 477.014 510.278 477.014 510.841V515H476.009V510.909C476.009 510.389 475.874 509.987 475.604 509.703C475.337 509.416 474.966 509.273 474.491 509.273C474.162 509.273 473.866 509.342 473.605 509.482C473.347 509.621 473.142 509.824 472.991 510.091C472.844 510.358 472.77 510.682 472.77 511.062ZM481.701 508.455V509.307H478.309V508.455H481.701ZM479.297 506.886H480.303V513.125C480.303 513.409 480.344 513.622 480.426 513.764C480.512 513.903 480.62 513.997 480.75 514.045C480.884 514.091 481.025 514.114 481.172 514.114C481.283 514.114 481.374 514.108 481.445 514.097C481.516 514.082 481.573 514.071 481.615 514.062L481.82 514.966C481.752 514.991 481.657 515.017 481.534 515.043C481.412 515.071 481.257 515.085 481.07 515.085C480.786 515.085 480.507 515.024 480.235 514.902C479.965 514.78 479.74 514.594 479.561 514.344C479.385 514.094 479.297 513.778 479.297 513.398V506.886ZM483.946 515.068C483.736 515.068 483.556 514.993 483.405 514.842C483.255 514.692 483.179 514.511 483.179 514.301C483.179 514.091 483.255 513.911 483.405 513.76C483.556 513.609 483.736 513.534 483.946 513.534C484.157 513.534 484.337 513.609 484.488 513.76C484.638 513.911 484.713 514.091 484.713 514.301C484.713 514.44 484.678 514.568 484.607 514.685C484.539 514.801 484.446 514.895 484.33 514.966C484.216 515.034 484.088 515.068 483.946 515.068ZM483.946 510.21C483.736 510.21 483.556 510.135 483.405 509.984C483.255 509.834 483.179 509.653 483.179 509.443C483.179 509.233 483.255 509.053 483.405 508.902C483.556 508.751 483.736 508.676 483.946 508.676C484.157 508.676 484.337 508.751 484.488 508.902C484.638 509.053 484.713 509.233 484.713 509.443C484.713 509.582 484.678 509.71 484.607 509.827C484.539 509.943 484.446 510.037 484.33 510.108C484.216 510.176 484.088 510.21 483.946 510.21ZM492.944 506.273V515H491.887V507.381H491.836L489.706 508.795V507.722L491.887 506.273H492.944ZM495.454 515V514.233L498.335 511.08C498.673 510.71 498.951 510.389 499.17 510.116C499.389 509.841 499.551 509.582 499.656 509.341C499.764 509.097 499.818 508.841 499.818 508.574C499.818 508.267 499.744 508.001 499.596 507.777C499.451 507.553 499.252 507.379 499 507.257C498.747 507.135 498.463 507.074 498.147 507.074C497.812 507.074 497.52 507.143 497.27 507.283C497.022 507.419 496.831 507.611 496.694 507.858C496.561 508.105 496.494 508.395 496.494 508.727H495.488C495.488 508.216 495.606 507.767 495.842 507.381C496.078 506.994 496.399 506.693 496.805 506.477C497.214 506.261 497.673 506.153 498.181 506.153C498.693 506.153 499.146 506.261 499.541 506.477C499.936 506.693 500.245 506.984 500.47 507.351C500.694 507.717 500.806 508.125 500.806 508.574C500.806 508.895 500.748 509.209 500.632 509.516C500.518 509.82 500.319 510.159 500.035 510.534C499.754 510.906 499.363 511.361 498.863 511.898L496.903 513.994V514.062H500.96V515H495.454ZM505.566 515.119C504.924 515.119 504.377 514.945 503.926 514.595C503.474 514.243 503.129 513.733 502.89 513.065C502.652 512.395 502.532 511.585 502.532 510.636C502.532 509.693 502.652 508.888 502.89 508.22C503.132 507.55 503.478 507.038 503.93 506.686C504.385 506.331 504.93 506.153 505.566 506.153C506.203 506.153 506.747 506.331 507.199 506.686C507.653 507.038 508 507.55 508.238 508.22C508.48 508.888 508.6 509.693 508.6 510.636C508.6 511.585 508.481 512.395 508.243 513.065C508.004 513.733 507.659 514.243 507.207 514.595C506.755 514.945 506.208 515.119 505.566 515.119ZM505.566 514.182C506.203 514.182 506.697 513.875 507.049 513.261C507.402 512.648 507.578 511.773 507.578 510.636C507.578 509.881 507.497 509.237 507.335 508.706C507.176 508.175 506.946 507.77 506.645 507.491C506.346 507.213 505.987 507.074 505.566 507.074C504.936 507.074 504.443 507.385 504.088 508.007C503.733 508.626 503.555 509.503 503.555 510.636C503.555 511.392 503.635 512.034 503.794 512.562C503.953 513.091 504.181 513.493 504.48 513.768C504.781 514.044 505.143 514.182 505.566 514.182Z" fill="#919EAB"/>
<rect x="395" y="371" width="158" height="192" fill="url(#paint1_linear_12140_48469)"/>
<g filter="url(#filter0_d_12140_48469)">
<path d="M53.233 71V60.8182H56.6733C57.4721 60.8182 58.125 60.9624 58.6321 61.2507C59.1425 61.5357 59.5204 61.9219 59.7656 62.4091C60.0109 62.8963 60.1335 63.4399 60.1335 64.0398C60.1335 64.6397 60.0109 65.1849 59.7656 65.6754C59.5237 66.166 59.1491 66.5571 58.642 66.8487C58.1349 67.1371 57.4853 67.2812 56.6932 67.2812H54.2273V66.1875H56.6534C57.2003 66.1875 57.6394 66.093 57.9709 65.9041C58.3023 65.7152 58.5426 65.46 58.6918 65.1385C58.8442 64.8137 58.9205 64.4474 58.9205 64.0398C58.9205 63.6321 58.8442 63.2675 58.6918 62.946C58.5426 62.6245 58.3007 62.3726 57.9659 62.1903C57.6312 62.0047 57.187 61.9119 56.6335 61.9119H54.4659V71H53.233ZM61.9606 71V63.3636H63.0941V64.517H63.1737C63.3129 64.1392 63.5647 63.8326 63.9293 63.5973C64.2939 63.362 64.7049 63.2443 65.1623 63.2443C65.2485 63.2443 65.3562 63.246 65.4854 63.2493C65.6147 63.2526 65.7125 63.2576 65.7788 63.2642V64.4574C65.739 64.4474 65.6478 64.4325 65.5053 64.4126C65.3661 64.3894 65.2186 64.3778 65.0629 64.3778C64.6916 64.3778 64.3602 64.4557 64.0685 64.6115C63.7802 64.764 63.5515 64.9761 63.3825 65.2479C63.2167 65.5163 63.1339 65.8229 63.1339 66.1676V71H61.9606ZM67.1696 71V63.3636H68.3429V71H67.1696ZM67.7662 62.0909C67.5375 62.0909 67.3403 62.013 67.1745 61.8572C67.0121 61.7015 66.9309 61.5142 66.9309 61.2955C66.9309 61.0767 67.0121 60.8894 67.1745 60.7337C67.3403 60.5779 67.5375 60.5 67.7662 60.5C67.9949 60.5 68.1904 60.5779 68.3528 60.7337C68.5185 60.8894 68.6014 61.0767 68.6014 61.2955C68.6014 61.5142 68.5185 61.7015 68.3528 61.8572C68.1904 62.013 67.9949 62.0909 67.7662 62.0909ZM70.4918 71V63.3636H71.6254V64.5568H71.7248C71.8839 64.1491 72.1407 63.8326 72.4954 63.6072C72.85 63.3786 73.2759 63.2642 73.7731 63.2642C74.2769 63.2642 74.6961 63.3786 75.0309 63.6072C75.369 63.8326 75.6325 64.1491 75.8214 64.5568H75.9009C76.0965 64.1624 76.3898 63.8492 76.7809 63.6172C77.172 63.3819 77.641 63.2642 78.1879 63.2642C78.8706 63.2642 79.4291 63.478 79.8633 63.9055C80.2975 64.3298 80.5146 64.991 80.5146 65.8892V71H79.3413V65.8892C79.3413 65.3258 79.1871 64.9231 78.8789 64.6811C78.5707 64.4392 78.2077 64.3182 77.7901 64.3182C77.2532 64.3182 76.8372 64.4806 76.5423 64.8054C76.2473 65.1269 76.0998 65.5346 76.0998 66.0284V71H74.9066V65.7699C74.9066 65.3357 74.7657 64.986 74.484 64.7209C74.2023 64.4524 73.8394 64.3182 73.3952 64.3182C73.0903 64.3182 72.8053 64.3994 72.5401 64.5618C72.2783 64.7242 72.0662 64.9496 71.9038 65.2379C71.7447 65.523 71.6651 65.8527 71.6651 66.2273V71H70.4918ZM84.907 71.179C84.4231 71.179 83.9839 71.0878 83.5895 70.9055C83.1951 70.7199 82.8819 70.4531 82.6499 70.1051C82.4179 69.7538 82.3018 69.3295 82.3018 68.8324C82.3018 68.3949 82.388 68.0402 82.5604 67.7685C82.7327 67.4934 82.9631 67.2779 83.2514 67.1222C83.5398 66.9664 83.858 66.8504 84.206 66.7741C84.5573 66.6946 84.9103 66.6316 85.2649 66.5852C85.7289 66.5256 86.1051 66.4808 86.3935 66.451C86.6851 66.4179 86.8973 66.3632 87.0298 66.2869C87.1657 66.2107 87.2337 66.0781 87.2337 65.8892V65.8494C87.2337 65.3589 87.0994 64.9777 86.831 64.706C86.5658 64.4342 86.1631 64.2983 85.6229 64.2983C85.0627 64.2983 84.6236 64.4209 84.3054 64.6662C83.9872 64.9115 83.7635 65.1733 83.6342 65.4517L82.5206 65.054C82.7195 64.59 82.9846 64.2287 83.3161 63.9702C83.6508 63.7083 84.0154 63.526 84.4098 63.4233C84.8075 63.3172 85.1986 63.2642 85.5831 63.2642C85.8284 63.2642 86.1101 63.294 86.4283 63.3537C86.7498 63.41 87.0597 63.5277 87.358 63.7067C87.6596 63.8857 87.9098 64.1558 88.1087 64.517C88.3075 64.8783 88.407 65.3622 88.407 65.9688V71H87.2337V69.9659H87.174C87.0945 70.1316 86.9619 70.3089 86.7763 70.4979C86.5907 70.6868 86.3438 70.8475 86.0355 70.9801C85.7273 71.1127 85.3511 71.179 84.907 71.179ZM85.0859 70.125C85.55 70.125 85.9411 70.0339 86.2592 69.8516C86.5807 69.6693 86.8227 69.4339 86.9851 69.1456C87.1508 68.8572 87.2337 68.554 87.2337 68.2358V67.1619C87.1839 67.2216 87.0746 67.2763 86.9055 67.326C86.7398 67.3724 86.5476 67.4138 86.3288 67.4503C86.1134 67.4834 85.9029 67.5133 85.6974 67.5398C85.4953 67.563 85.3312 67.5829 85.2053 67.5994C84.9003 67.6392 84.6153 67.7038 84.3501 67.7933C84.0883 67.8795 83.8762 68.0104 83.7138 68.1861C83.5547 68.3584 83.4751 68.5937 83.4751 68.892C83.4751 69.2997 83.6259 69.608 83.9276 69.8168C84.2325 70.0223 84.6186 70.125 85.0859 70.125ZM90.5485 71V63.3636H91.682V64.517H91.7615C91.9007 64.1392 92.1526 63.8326 92.5172 63.5973C92.8818 63.362 93.2928 63.2443 93.7502 63.2443C93.8364 63.2443 93.9441 63.246 94.0733 63.2493C94.2026 63.2526 94.3004 63.2576 94.3667 63.2642V64.4574C94.3269 64.4474 94.2357 64.4325 94.0932 64.4126C93.954 64.3894 93.8065 64.3778 93.6507 64.3778C93.2795 64.3778 92.9481 64.4557 92.6564 64.6115C92.3681 64.764 92.1394 64.9761 91.9703 65.2479C91.8046 65.5163 91.7218 65.8229 91.7218 66.1676V71H90.5485ZM96.7456 73.8636C96.5467 73.8636 96.3694 73.8471 96.2136 73.8139C96.0578 73.7841 95.9501 73.7543 95.8904 73.7244L96.1887 72.6903C96.4738 72.7633 96.7257 72.7898 96.9444 72.7699C97.1632 72.75 97.3571 72.6522 97.5261 72.4766C97.6984 72.3042 97.8559 72.0241 97.9984 71.6364L98.2172 71.0398L95.3933 63.3636H96.666L98.774 69.4489H98.8535L100.961 63.3636H102.234L98.9927 72.1136C98.8469 72.508 98.6663 72.8345 98.4508 73.093C98.2354 73.3549 97.9851 73.5488 97.7001 73.6747C97.4184 73.8007 97.1002 73.8636 96.7456 73.8636Z" fill="#FAFAFA"/>
<circle cx="72" cy="108" r="20" fill="#DBF4FF"/>
<circle cx="136" cy="108" r="20" fill="#ADDBFF"/>
<circle cx="200" cy="108" r="20" fill="#7CC2FF"/>
<circle cx="264" cy="108" r="20" fill="#4AA9FF"/>
<circle cx="328" cy="108" r="20" fill="#1A91FF"/>
<circle cx="392" cy="108" r="20" fill="#0077E6"/>
<circle cx="456" cy="108" r="20" fill="#005DB4"/>
<circle cx="520" cy="108" r="20" fill="#004282"/>
<path d="M58.8011 159.364C58.7415 158.86 58.4995 158.469 58.0753 158.19C57.651 157.912 57.1307 157.773 56.5142 157.773C56.0634 157.773 55.669 157.846 55.331 157.991C54.9962 158.137 54.7344 158.338 54.5455 158.593C54.3598 158.848 54.267 159.138 54.267 159.463C54.267 159.735 54.3317 159.969 54.4609 160.164C54.5935 160.356 54.7625 160.517 54.968 160.646C55.1735 160.772 55.389 160.877 55.6143 160.96C55.8397 161.039 56.0469 161.104 56.2358 161.153L57.2699 161.432C57.535 161.501 57.83 161.598 58.1548 161.72C58.483 161.843 58.7962 162.01 59.0945 162.222C59.3961 162.431 59.6446 162.7 59.8402 163.028C60.0357 163.356 60.1335 163.759 60.1335 164.236C60.1335 164.786 59.9893 165.283 59.701 165.727C59.416 166.171 58.9983 166.524 58.4482 166.786C57.9013 167.048 57.2367 167.179 56.4545 167.179C55.7254 167.179 55.094 167.061 54.5604 166.826C54.0301 166.591 53.6125 166.263 53.3075 165.842C53.0059 165.421 52.8352 164.932 52.7955 164.375H54.0682C54.1013 164.759 54.2306 165.078 54.456 165.33C54.6847 165.578 54.973 165.764 55.321 165.886C55.6723 166.006 56.0502 166.065 56.4545 166.065C56.9252 166.065 57.3478 165.989 57.7223 165.837C58.0968 165.681 58.3935 165.465 58.6122 165.19C58.831 164.912 58.9403 164.587 58.9403 164.216C58.9403 163.878 58.8459 163.603 58.657 163.391C58.468 163.179 58.2195 163.006 57.9112 162.874C57.603 162.741 57.2699 162.625 56.9119 162.526L55.6591 162.168C54.8636 161.939 54.2339 161.612 53.7699 161.188C53.3059 160.764 53.0739 160.209 53.0739 159.523C53.0739 158.953 53.228 158.455 53.5362 158.031C53.8478 157.604 54.2654 157.272 54.7891 157.037C55.3161 156.798 55.9044 156.679 56.554 156.679C57.2102 156.679 57.7936 156.797 58.304 157.032C58.8144 157.264 59.2188 157.582 59.517 157.987C59.8187 158.391 59.9777 158.85 59.9943 159.364H58.8011ZM65.2033 167.159C64.4675 167.159 63.8328 166.997 63.2992 166.672C62.7689 166.344 62.3596 165.886 62.0712 165.3C61.7862 164.71 61.6436 164.024 61.6436 163.241C61.6436 162.459 61.7862 161.77 62.0712 161.173C62.3596 160.573 62.7606 160.106 63.2743 159.771C63.7914 159.433 64.3946 159.264 65.084 159.264C65.4817 159.264 65.8745 159.33 66.2623 159.463C66.65 159.596 67.003 159.811 67.3212 160.109C67.6394 160.404 67.8929 160.795 68.0819 161.283C68.2708 161.77 68.3652 162.37 68.3652 163.082V163.58H62.4789V162.565H67.1721C67.1721 162.134 67.0859 161.75 66.9135 161.412C66.7445 161.074 66.5025 160.807 66.1877 160.612C65.8761 160.416 65.5082 160.318 65.084 160.318C64.6167 160.318 64.2123 160.434 63.8709 160.666C63.5328 160.895 63.2727 161.193 63.0904 161.561C62.9081 161.929 62.8169 162.323 62.8169 162.744V163.42C62.8169 163.997 62.9164 164.486 63.1152 164.887C63.3174 165.285 63.5975 165.588 63.9554 165.797C64.3134 166.002 64.7293 166.105 65.2033 166.105C65.5115 166.105 65.79 166.062 66.0385 165.976C66.2904 165.886 66.5075 165.754 66.6898 165.578C66.8721 165.399 67.013 165.177 67.1124 164.912L68.2459 165.23C68.1266 165.615 67.9261 165.953 67.6444 166.244C67.3626 166.533 67.0146 166.758 66.6003 166.92C66.186 167.08 65.7203 167.159 65.2033 167.159ZM73.2523 167.159C72.5364 167.159 71.9199 166.99 71.4029 166.652C70.8858 166.314 70.4881 165.848 70.2097 165.255C69.9313 164.662 69.7921 163.984 69.7921 163.222C69.7921 162.446 69.9346 161.762 70.2196 161.168C70.508 160.572 70.909 160.106 71.4228 159.771C71.9398 159.433 72.543 159.264 73.2324 159.264C73.7694 159.264 74.2533 159.364 74.6841 159.562C75.115 159.761 75.468 160.04 75.7431 160.398C76.0182 160.756 76.1889 161.173 76.2551 161.651H75.0819C74.9924 161.303 74.7935 160.994 74.4853 160.726C74.1803 160.454 73.7694 160.318 73.2523 160.318C72.7949 160.318 72.3939 160.437 72.0492 160.676C71.7078 160.911 71.441 161.245 71.2488 161.675C71.0598 162.103 70.9654 162.605 70.9654 163.182C70.9654 163.772 71.0582 164.286 71.2438 164.723C71.4327 165.161 71.6979 165.5 72.0392 165.742C72.3839 165.984 72.7883 166.105 73.2523 166.105C73.5572 166.105 73.834 166.052 74.0826 165.946C74.3311 165.84 74.5416 165.688 74.714 165.489C74.8863 165.29 75.0089 165.051 75.0819 164.773H76.2551C76.1889 165.223 76.0248 165.629 75.763 165.991C75.5044 166.349 75.1614 166.634 74.7338 166.846C74.3096 167.055 73.8158 167.159 73.2523 167.159ZM81.0726 167.159C80.3832 167.159 79.7784 166.995 79.258 166.667C78.7409 166.339 78.3366 165.88 78.0449 165.29C77.7566 164.7 77.6124 164.01 77.6124 163.222C77.6124 162.426 77.7566 161.732 78.0449 161.138C78.3366 160.545 78.7409 160.085 79.258 159.756C79.7784 159.428 80.3832 159.264 81.0726 159.264C81.762 159.264 82.3652 159.428 82.8823 159.756C83.4026 160.085 83.807 160.545 84.0953 161.138C84.387 161.732 84.5328 162.426 84.5328 163.222C84.5328 164.01 84.387 164.7 84.0953 165.29C83.807 165.88 83.4026 166.339 82.8823 166.667C82.3652 166.995 81.762 167.159 81.0726 167.159ZM81.0726 166.105C81.5963 166.105 82.0272 165.971 82.3652 165.702C82.7033 165.434 82.9535 165.081 83.1159 164.643C83.2784 164.206 83.3596 163.732 83.3596 163.222C83.3596 162.711 83.2784 162.236 83.1159 161.795C82.9535 161.354 82.7033 160.998 82.3652 160.726C82.0272 160.454 81.5963 160.318 81.0726 160.318C80.5489 160.318 80.1181 160.454 79.78 160.726C79.4419 160.998 79.1917 161.354 79.0293 161.795C78.8669 162.236 78.7857 162.711 78.7857 163.222C78.7857 163.732 78.8669 164.206 79.0293 164.643C79.1917 165.081 79.4419 165.434 79.78 165.702C80.1181 165.971 80.5489 166.105 81.0726 166.105ZM87.4972 162.406V167H86.3239V159.364H87.4574V160.557H87.5568C87.7358 160.169 88.0076 159.857 88.3722 159.622C88.7367 159.384 89.2074 159.264 89.7841 159.264C90.3011 159.264 90.7536 159.37 91.1413 159.582C91.5291 159.791 91.8307 160.109 92.0462 160.537C92.2616 160.961 92.3693 161.498 92.3693 162.148V167H91.196V162.227C91.196 161.627 91.0402 161.16 90.7287 160.825C90.4171 160.487 89.9896 160.318 89.446 160.318C89.0715 160.318 88.7367 160.399 88.4418 160.562C88.1501 160.724 87.9197 160.961 87.7507 161.273C87.5817 161.584 87.4972 161.962 87.4972 162.406ZM97.3968 167.159C96.7605 167.159 96.1987 166.998 95.7115 166.677C95.2243 166.352 94.8431 165.895 94.568 165.305C94.2929 164.711 94.1554 164.01 94.1554 163.202C94.1554 162.4 94.2929 161.704 94.568 161.114C94.8431 160.524 95.2259 160.068 95.7164 159.746C96.207 159.425 96.7737 159.264 97.4167 159.264C97.9139 159.264 98.3066 159.347 98.595 159.513C98.8867 159.675 99.1087 159.861 99.2612 160.07C99.417 160.275 99.5379 160.444 99.6241 160.577H99.7235V156.818H100.897V167H99.7633V165.827H99.6241C99.5379 165.966 99.4153 166.142 99.2562 166.354C99.0971 166.562 98.8701 166.75 98.5751 166.915C98.2801 167.078 97.8874 167.159 97.3968 167.159ZM97.5559 166.105C98.0266 166.105 98.4243 165.982 98.7491 165.737C99.0739 165.489 99.3208 165.146 99.4899 164.708C99.6589 164.267 99.7434 163.759 99.7434 163.182C99.7434 162.612 99.6606 162.113 99.4949 161.685C99.3291 161.254 99.0839 160.92 98.7591 160.681C98.4342 160.439 98.0332 160.318 97.5559 160.318C97.0588 160.318 96.6445 160.446 96.313 160.701C95.9849 160.953 95.738 161.296 95.5723 161.73C95.4099 162.161 95.3287 162.645 95.3287 163.182C95.3287 163.725 95.4115 164.219 95.5772 164.663C95.7463 165.104 95.9949 165.455 96.323 165.717C96.6544 165.976 97.0654 166.105 97.5559 166.105ZM105.456 167.179C104.972 167.179 104.533 167.088 104.138 166.906C103.744 166.72 103.431 166.453 103.199 166.105C102.967 165.754 102.851 165.33 102.851 164.832C102.851 164.395 102.937 164.04 103.109 163.768C103.282 163.493 103.512 163.278 103.8 163.122C104.089 162.966 104.407 162.85 104.755 162.774C105.106 162.695 105.459 162.632 105.814 162.585C106.278 162.526 106.654 162.481 106.942 162.451C107.234 162.418 107.446 162.363 107.579 162.287C107.715 162.211 107.782 162.078 107.782 161.889V161.849C107.782 161.359 107.648 160.978 107.38 160.706C107.115 160.434 106.712 160.298 106.172 160.298C105.612 160.298 105.172 160.421 104.854 160.666C104.536 160.911 104.312 161.173 104.183 161.452L103.069 161.054C103.268 160.59 103.533 160.229 103.865 159.97C104.2 159.708 104.564 159.526 104.959 159.423C105.356 159.317 105.747 159.264 106.132 159.264C106.377 159.264 106.659 159.294 106.977 159.354C107.299 159.41 107.608 159.528 107.907 159.707C108.208 159.886 108.459 160.156 108.657 160.517C108.856 160.878 108.956 161.362 108.956 161.969V167H107.782V165.966H107.723C107.643 166.132 107.511 166.309 107.325 166.498C107.14 166.687 106.893 166.848 106.584 166.98C106.276 167.113 105.9 167.179 105.456 167.179ZM105.635 166.125C106.099 166.125 106.49 166.034 106.808 165.852C107.13 165.669 107.372 165.434 107.534 165.146C107.7 164.857 107.782 164.554 107.782 164.236V163.162C107.733 163.222 107.623 163.276 107.454 163.326C107.289 163.372 107.096 163.414 106.878 163.45C106.662 163.483 106.452 163.513 106.246 163.54C106.044 163.563 105.88 163.583 105.754 163.599C105.449 163.639 105.164 163.704 104.899 163.793C104.637 163.879 104.425 164.01 104.263 164.186C104.104 164.358 104.024 164.594 104.024 164.892C104.024 165.3 104.175 165.608 104.476 165.817C104.781 166.022 105.167 166.125 105.635 166.125ZM111.097 167V159.364H112.231V160.517H112.31C112.45 160.139 112.701 159.833 113.066 159.597C113.431 159.362 113.842 159.244 114.299 159.244C114.385 159.244 114.493 159.246 114.622 159.249C114.751 159.253 114.849 159.258 114.915 159.264V160.457C114.876 160.447 114.785 160.433 114.642 160.413C114.503 160.389 114.355 160.378 114.2 160.378C113.828 160.378 113.497 160.456 113.205 160.612C112.917 160.764 112.688 160.976 112.519 161.248C112.353 161.516 112.271 161.823 112.271 162.168V167H111.097ZM117.294 169.864C117.096 169.864 116.918 169.847 116.762 169.814C116.607 169.784 116.499 169.754 116.439 169.724L116.738 168.69C117.023 168.763 117.275 168.79 117.493 168.77C117.712 168.75 117.906 168.652 118.075 168.477C118.247 168.304 118.405 168.024 118.547 167.636L118.766 167.04L115.942 159.364H117.215L119.323 165.449H119.402L121.51 159.364H122.783L119.542 168.114C119.396 168.508 119.215 168.835 119 169.093C118.784 169.355 118.534 169.549 118.249 169.675C117.967 169.801 117.649 169.864 117.294 169.864Z" fill="#FAFAFA"/>
<circle cx="72" cy="204" r="20" fill="#FAFAFA"/>
<circle cx="136" cy="204" r="20" fill="#F5F5F5"/>
<circle cx="200" cy="204" r="20" fill="#E5E5E5"/>
<circle cx="264" cy="204" r="20" fill="#D4D4D4"/>
<circle cx="328" cy="204" r="20" fill="#A3A3A3"/>
<circle cx="392" cy="204" r="20" fill="#737373"/>
<circle cx="456" cy="204" r="20" fill="#525252"/>
<circle cx="520" cy="204" r="20" fill="#404040"/>
<path d="M58.8011 255.364C58.7415 254.86 58.4995 254.469 58.0753 254.19C57.651 253.912 57.1307 253.773 56.5142 253.773C56.0634 253.773 55.669 253.846 55.331 253.991C54.9962 254.137 54.7344 254.338 54.5455 254.593C54.3598 254.848 54.267 255.138 54.267 255.463C54.267 255.735 54.3317 255.969 54.4609 256.164C54.5935 256.356 54.7625 256.517 54.968 256.646C55.1735 256.772 55.389 256.877 55.6143 256.96C55.8397 257.039 56.0469 257.104 56.2358 257.153L57.2699 257.432C57.535 257.501 57.83 257.598 58.1548 257.72C58.483 257.843 58.7962 258.01 59.0945 258.222C59.3961 258.431 59.6446 258.7 59.8402 259.028C60.0357 259.356 60.1335 259.759 60.1335 260.236C60.1335 260.786 59.9893 261.283 59.701 261.727C59.416 262.171 58.9983 262.524 58.4482 262.786C57.9013 263.048 57.2367 263.179 56.4545 263.179C55.7254 263.179 55.094 263.061 54.5604 262.826C54.0301 262.591 53.6125 262.263 53.3075 261.842C53.0059 261.421 52.8352 260.932 52.7955 260.375H54.0682C54.1013 260.759 54.2306 261.078 54.456 261.33C54.6847 261.578 54.973 261.764 55.321 261.886C55.6723 262.006 56.0502 262.065 56.4545 262.065C56.9252 262.065 57.3478 261.989 57.7223 261.837C58.0968 261.681 58.3935 261.465 58.6122 261.19C58.831 260.912 58.9403 260.587 58.9403 260.216C58.9403 259.878 58.8459 259.603 58.657 259.391C58.468 259.179 58.2195 259.006 57.9112 258.874C57.603 258.741 57.2699 258.625 56.9119 258.526L55.6591 258.168C54.8636 257.939 54.2339 257.612 53.7699 257.188C53.3059 256.764 53.0739 256.209 53.0739 255.523C53.0739 254.953 53.228 254.455 53.5362 254.031C53.8478 253.604 54.2654 253.272 54.7891 253.037C55.3161 252.798 55.9044 252.679 56.554 252.679C57.2102 252.679 57.7936 252.797 58.304 253.032C58.8144 253.264 59.2188 253.582 59.517 253.987C59.8187 254.391 59.9777 254.85 59.9943 255.364H58.8011ZM66.8141 259.878V255.364H67.9874V263H66.8141V261.707H66.7346C66.5556 262.095 66.2772 262.425 65.8993 262.697C65.5215 262.965 65.0442 263.099 64.4675 263.099C63.9902 263.099 63.566 262.995 63.1948 262.786C62.8236 262.574 62.5319 262.256 62.3198 261.832C62.1077 261.404 62.0016 260.866 62.0016 260.216V255.364H63.1749V260.136C63.1749 260.693 63.3307 261.137 63.6422 261.469C63.9571 261.8 64.3581 261.966 64.8453 261.966C65.137 261.966 65.4337 261.891 65.7353 261.742C66.0402 261.593 66.2954 261.364 66.5009 261.056C66.7097 260.748 66.8141 260.355 66.8141 259.878ZM73.2386 263.159C72.5227 263.159 71.9063 262.99 71.3892 262.652C70.8722 262.314 70.4744 261.848 70.196 261.255C69.9176 260.662 69.7784 259.984 69.7784 259.222C69.7784 258.446 69.9209 257.762 70.206 257.168C70.4943 256.572 70.8954 256.106 71.4091 255.771C71.9261 255.433 72.5294 255.264 73.2188 255.264C73.7557 255.264 74.2396 255.364 74.6705 255.562C75.1013 255.761 75.4543 256.04 75.7294 256.398C76.0045 256.756 76.1752 257.173 76.2415 257.651H75.0682C74.9787 257.303 74.7798 256.994 74.4716 256.726C74.1667 256.454 73.7557 256.318 73.2386 256.318C72.7813 256.318 72.3802 256.437 72.0355 256.676C71.6941 256.911 71.4273 257.245 71.2351 257.675C71.0462 258.103 70.9517 258.605 70.9517 259.182C70.9517 259.772 71.0445 260.286 71.2301 260.723C71.419 261.161 71.6842 261.5 72.0256 261.742C72.3703 261.984 72.7746 262.105 73.2386 262.105C73.5436 262.105 73.8203 262.052 74.0689 261.946C74.3175 261.84 74.5279 261.688 74.7003 261.489C74.8726 261.29 74.9953 261.051 75.0682 260.773H76.2415C76.1752 261.223 76.0111 261.629 75.7493 261.991C75.4908 262.349 75.1477 262.634 74.7202 262.846C74.2959 263.055 73.8021 263.159 73.2386 263.159ZM81.0589 263.159C80.343 263.159 79.7266 262.99 79.2095 262.652C78.6925 262.314 78.2947 261.848 78.0163 261.255C77.7379 260.662 77.5987 259.984 77.5987 259.222C77.5987 258.446 77.7412 257.762 78.0263 257.168C78.3146 256.572 78.7157 256.106 79.2294 255.771C79.7464 255.433 80.3497 255.264 81.0391 255.264C81.576 255.264 82.0599 255.364 82.4908 255.562C82.9216 255.761 83.2746 256.04 83.5497 256.398C83.8248 256.756 83.9955 257.173 84.0618 257.651H82.8885C82.799 257.303 82.6001 256.994 82.2919 256.726C81.987 256.454 81.576 256.318 81.0589 256.318C80.6016 256.318 80.2005 256.437 79.8558 256.676C79.5144 256.911 79.2476 257.245 79.0554 257.675C78.8665 258.103 78.772 258.605 78.772 259.182C78.772 259.772 78.8648 260.286 79.0504 260.723C79.2393 261.161 79.5045 261.5 79.8459 261.742C80.1906 261.984 80.5949 262.105 81.0589 262.105C81.3639 262.105 81.6406 262.052 81.8892 261.946C82.1378 261.84 82.3482 261.688 82.5206 261.489C82.6929 261.29 82.8156 261.051 82.8885 260.773H84.0618C83.9955 261.223 83.8314 261.629 83.5696 261.991C83.3111 262.349 82.968 262.634 82.5405 262.846C82.1162 263.055 81.6224 263.159 81.0589 263.159ZM88.9787 263.159C88.2429 263.159 87.6082 262.997 87.0746 262.672C86.5443 262.344 86.1349 261.886 85.8466 261.3C85.5616 260.71 85.419 260.024 85.419 259.241C85.419 258.459 85.5616 257.77 85.8466 257.173C86.1349 256.573 86.536 256.106 87.0497 255.771C87.5668 255.433 88.17 255.264 88.8594 255.264C89.2571 255.264 89.6499 255.33 90.0376 255.463C90.4254 255.596 90.7784 255.811 91.0966 256.109C91.4148 256.404 91.6683 256.795 91.8572 257.283C92.0462 257.77 92.1406 258.37 92.1406 259.082V259.58H86.2543V258.565H90.9474C90.9474 258.134 90.8613 257.75 90.6889 257.412C90.5199 257.074 90.2779 256.807 89.9631 256.612C89.6515 256.416 89.2836 256.318 88.8594 256.318C88.392 256.318 87.9877 256.434 87.6463 256.666C87.3082 256.895 87.0481 257.193 86.8658 257.561C86.6835 257.929 86.5923 258.323 86.5923 258.744V259.42C86.5923 259.997 86.6918 260.486 86.8906 260.887C87.0928 261.285 87.3729 261.588 87.7308 261.797C88.0888 262.002 88.5047 262.105 88.9787 262.105C89.2869 262.105 89.5653 262.062 89.8139 261.976C90.0658 261.886 90.2829 261.754 90.4652 261.578C90.6475 261.399 90.7884 261.177 90.8878 260.912L92.0213 261.23C91.902 261.615 91.7015 261.953 91.4197 262.244C91.138 262.533 90.79 262.758 90.3757 262.92C89.9614 263.08 89.4957 263.159 88.9787 263.159ZM99.3345 257.074L98.2805 257.372C98.2143 257.196 98.1165 257.026 97.9872 256.86C97.8613 256.691 97.6889 256.552 97.4702 256.442C97.2514 256.333 96.9714 256.278 96.63 256.278C96.1626 256.278 95.7732 256.386 95.4616 256.602C95.1534 256.814 94.9993 257.084 94.9993 257.412C94.9993 257.704 95.1054 257.934 95.3175 258.103C95.5296 258.272 95.861 258.413 96.3118 258.526L97.4453 258.804C98.1281 258.97 98.6368 259.223 98.9716 259.565C99.3063 259.903 99.4737 260.339 99.4737 260.872C99.4737 261.31 99.3478 261.701 99.0959 262.045C98.8473 262.39 98.4993 262.662 98.0518 262.861C97.6044 263.06 97.084 263.159 96.4908 263.159C95.7119 263.159 95.0672 262.99 94.5568 262.652C94.0464 262.314 93.7232 261.82 93.5874 261.17L94.701 260.892C94.8071 261.303 95.0076 261.611 95.3026 261.817C95.6009 262.022 95.9903 262.125 96.4709 262.125C97.0178 262.125 97.4519 262.009 97.7734 261.777C98.0982 261.542 98.2607 261.26 98.2607 260.932C98.2607 260.667 98.1679 260.445 97.9822 260.266C97.7966 260.083 97.5116 259.947 97.1271 259.858L95.8544 259.56C95.1551 259.394 94.6413 259.137 94.3132 258.789C93.9884 258.438 93.826 257.999 93.826 257.472C93.826 257.041 93.947 256.66 94.1889 256.328C94.4342 255.997 94.7673 255.737 95.1882 255.548C95.6125 255.359 96.093 255.264 96.63 255.264C97.3857 255.264 97.9789 255.43 98.4098 255.761C98.844 256.093 99.1522 256.53 99.3345 257.074ZM106.649 257.074L105.595 257.372C105.529 257.196 105.431 257.026 105.302 256.86C105.176 256.691 105.003 256.552 104.785 256.442C104.566 256.333 104.286 256.278 103.944 256.278C103.477 256.278 103.088 256.386 102.776 256.602C102.468 256.814 102.314 257.084 102.314 257.412C102.314 257.704 102.42 257.934 102.632 258.103C102.844 258.272 103.175 258.413 103.626 258.526L104.76 258.804C105.443 258.97 105.951 259.223 106.286 259.565C106.621 259.903 106.788 260.339 106.788 260.872C106.788 261.31 106.662 261.701 106.41 262.045C106.162 262.39 105.814 262.662 105.366 262.861C104.919 263.06 104.398 263.159 103.805 263.159C103.026 263.159 102.382 262.99 101.871 262.652C101.361 262.314 101.038 261.82 100.902 261.17L102.015 260.892C102.122 261.303 102.322 261.611 102.617 261.817C102.915 262.022 103.305 262.125 103.785 262.125C104.332 262.125 104.766 262.009 105.088 261.777C105.413 261.542 105.575 261.26 105.575 260.932C105.575 260.667 105.482 260.445 105.297 260.266C105.111 260.083 104.826 259.947 104.442 259.858L103.169 259.56C102.47 259.394 101.956 259.137 101.628 258.789C101.303 258.438 101.14 257.999 101.14 257.472C101.14 257.041 101.261 256.66 101.503 256.328C101.749 255.997 102.082 255.737 102.503 255.548C102.927 255.359 103.407 255.264 103.944 255.264C104.7 255.264 105.293 255.43 105.724 255.761C106.158 256.093 106.467 256.53 106.649 257.074Z" fill="#FAFAFA"/>
<circle cx="72" cy="300" r="20" fill="#F0FDF4"/>
<circle cx="136" cy="300" r="20" fill="#DCFCE7"/>
<circle cx="200" cy="300" r="20" fill="#BBF7D0"/>
<circle cx="264" cy="300" r="20" fill="#86EFAC"/>
<circle cx="328" cy="300" r="20" fill="#4ADE80"/>
<circle cx="392" cy="300" r="20" fill="#22C55E"/>
<circle cx="456" cy="300" r="20" fill="#16A34A"/>
<circle cx="520" cy="300" r="20" fill="#15803D"/>
<rect x="28.5" y="32.5" width="535" height="311" rx="7.5" stroke="#525252" stroke-dasharray="10 5" shape-rendering="crispEdges"/>
</g>
<defs>
<filter id="filter0_d_12140_48469" x="20" y="24" width="552" height="328" filterUnits="userSpaceOnUse" color-interpolation-filters="sRGB">
<feFlood flood-opacity="0" result="BackgroundImageFix"/>
<feColorMatrix in="SourceAlpha" type="matrix" values="0 0 0 0 0 0 0 0 0 0 0 0 0 0 0 0 0 0 127 0" result="hardAlpha"/>
<feOffset/>
<feGaussianBlur stdDeviation="4"/>
<feComposite in2="hardAlpha" operator="out"/>
<feColorMatrix type="matrix" values="0 0 0 0 0 0 0 0 0 0 0 0 0 0 0 0 0 0 0.1 0"/>
<feBlend mode="normal" in2="BackgroundImageFix" result="effect1_dropShadow_12140_48469"/>
<feBlend mode="normal" in="SourceGraphic" in2="effect1_dropShadow_12140_48469" result="shape"/>
</filter>
<linearGradient id="paint0_linear_12140_48469" x1="61" y1="42" x2="596" y2="617" gradientUnits="userSpaceOnUse">
<stop stop-opacity="0.6"/>
<stop offset="0.992674" stop-color="#171717"/>
</linearGradient>
<linearGradient id="paint1_linear_12140_48469" x1="544.5" y1="487" x2="395" y2="485.5" gradientUnits="userSpaceOnUse">
<stop stop-color="#181819"/>
<stop offset="1" stop-color="#030303" stop-opacity="0"/>
</linearGradient>
</defs>
</svg>
