<svg width="87" height="87" viewBox="0 0 87 87" fill="none" xmlns="http://www.w3.org/2000/svg">
<path d="M37.0842 25.8366C37.0842 24.9306 36.9057 24.0335 36.559 23.1964C36.2123 22.3594 35.7041 21.5988 35.0635 20.9582C34.4228 20.3176 33.6623 19.8094 32.8252 19.4627C31.9882 19.116 31.091 18.9375 30.185 18.9375C29.279 18.9375 28.3819 19.116 27.5449 19.4627C26.7078 19.8094 25.9473 20.3176 25.3066 20.9582C24.666 21.5988 24.1578 22.3594 23.8111 23.1964C23.4644 24.0335 23.2859 24.9306 23.2859 25.8366C23.2928 26.9117 23.5536 27.97 24.047 28.9252C22.4639 29.4008 21.1049 30.4305 20.2188 31.8259C19.3326 33.2213 18.9784 34.8891 19.221 36.5242C19.4636 38.1593 20.2868 39.6524 21.54 40.7303C22.7932 41.8083 24.3926 42.399 26.0456 42.3945" stroke="#0077E6" strokeWidth="2.66667" strokeLinecap="round" strokeLinejoin="round"/>
<path d="M19.2003 39.2754C18.0753 40.2055 17.1899 41.3921 16.6186 42.7353C16.0472 44.0785 15.8065 45.5393 15.9167 46.9948C16.0268 48.4504 16.4847 49.8583 17.2518 51.1002C18.0188 52.3421 19.0727 53.3818 20.3249 54.132C21.5771 54.8822 22.991 55.321 24.448 55.4115C25.9049 55.5019 27.3622 55.2415 28.6976 54.652C30.033 54.0625 31.2074 53.1611 32.1223 52.0236C33.0371 50.8862 33.6656 49.5458 33.955 48.115V47.6643" stroke="#0077E6" strokeWidth="2.66667" stroke-miterlimit="10" strokeLinecap="round"/>
<path d="M25.5197 66.3342C24.2128 65.6469 23.1186 64.6155 22.3554 63.3514C21.5922 62.0873 21.189 60.6387 21.1895 59.1621C21.1975 57.8996 21.5037 56.6569 22.0831 55.5352" stroke="#0077E6" strokeWidth="2.66667" strokeLinecap="round" strokeLinejoin="round"/>
<path d="M39.2932 32.0254C39.2932 33.7535 38.6067 35.4108 37.3847 36.6328C36.1628 37.8547 34.5054 38.5412 32.7773 38.5412" stroke="#0077E6" strokeWidth="2.66667" stroke-miterlimit="10" strokeLinecap="round"/>
<path d="M39.291 32.0367H54.2774L56.9111 29.4043" stroke="#0077E6" strokeWidth="2.66667" stroke-miterlimit="10" strokeLinecap="round"/>
<path d="M47.7617 37.2476H55.5807L58.2144 34.6152H65.3544" stroke="#0077E6" strokeWidth="2.66667" stroke-miterlimit="10" strokeLinecap="round"/>
<path d="M47.002 52.8613H54.2775L56.9112 55.4937" stroke="#0077E6" strokeWidth="2.66667" stroke-miterlimit="10" strokeLinecap="round"/>
<path d="M47.002 47.6494H55.5807L58.2144 50.2818H65.3544" stroke="#0077E6" strokeWidth="2.66667" stroke-miterlimit="10" strokeLinecap="round"/>
<path d="M65.3545 60.7055H55.608L53.6264 58.0723L47.1645 58.0724V65.9593C47.1645 67.6874 46.478 69.3447 45.256 70.5667C44.0341 71.7886 42.3767 72.4751 40.6486 72.4751C38.9205 72.4751 37.2632 71.7886 36.0413 70.5667C34.8193 69.3447 34.1328 67.6874 34.1328 65.9593" stroke="#0077E6" strokeWidth="2.66667" stroke-miterlimit="10" strokeLinecap="round"/>
<path d="M36.7402 16.5615C37.0341 15.299 37.7821 14.1886 38.8417 13.4419C39.9013 12.6951 41.1986 12.3642 42.4864 12.512C43.7743 12.6598 44.9628 13.2761 45.8256 14.2436C46.6885 15.211 47.1654 16.462 47.1656 17.7583V26.8254L52.9759 26.8255L55.6092 24.1924H65.3556" stroke="#0077E6" strokeWidth="2.66667" stroke-miterlimit="10" strokeLinecap="round"/>
<path d="M61.4465 42.4512H47.166" stroke="#0077E6" strokeWidth="2.66667" stroke-miterlimit="10" strokeLinecap="round"/>
<path d="M29.5061 37.2377C29.5061 37.5893 29.2211 37.8742 28.8696 37.8742C28.518 37.8742 28.2331 37.5893 28.2331 37.2377C28.2331 36.8862 28.518 36.6012 28.8696 36.6012C29.2211 36.6012 29.5061 36.8862 29.5061 37.2377Z" fill="#353535" stroke="#0077E6" strokeWidth="1.33333"/>
<path d="M30.5354 67.8608C30.5354 68.2123 30.2504 68.4973 29.8989 68.4973C29.5473 68.4973 29.2624 68.2123 29.2624 67.8608C29.2624 67.5093 29.5473 67.2243 29.8989 67.2243C30.2504 67.2243 30.5354 67.5093 30.5354 67.8608Z" fill="#353535" stroke="#0077E6" strokeWidth="1.33333"/>
<path d="M68.5868 26.8113C70.0262 26.8113 71.1931 25.6444 71.1931 24.205C71.1931 22.7655 70.0262 21.5986 68.5868 21.5986C67.1474 21.5986 65.9805 22.7655 65.9805 24.205C65.9805 25.6444 67.1474 26.8113 68.5868 26.8113Z" stroke="#0077E6" strokeWidth="2.66667" stroke-miterlimit="10" strokeLinecap="round"/>
<path d="M68.5868 37.238C70.0262 37.238 71.1931 36.0712 71.1931 34.6317C71.1931 33.1923 70.0262 32.0254 68.5868 32.0254C67.1474 32.0254 65.9805 33.1923 65.9805 34.6317C65.9805 36.0712 67.1474 37.238 68.5868 37.238Z" stroke="#0077E6" strokeWidth="2.66667" stroke-miterlimit="10" strokeLinecap="round"/>
<path d="M68.5868 52.8757C70.0262 52.8757 71.1931 51.7089 71.1931 50.2694C71.1931 48.83 70.0262 47.6631 68.5868 47.6631C67.1474 47.6631 65.9805 48.83 65.9805 50.2694C65.9805 51.7089 67.1474 52.8757 68.5868 52.8757Z" stroke="#0077E6" strokeWidth="2.66667" stroke-miterlimit="10" strokeLinecap="round"/>
<path d="M68.5868 63.3025C70.0262 63.3025 71.1931 62.1356 71.1931 60.6962C71.1931 59.2567 70.0262 58.0898 68.5868 58.0898C67.1474 58.0898 65.9805 59.2567 65.9805 60.6962C65.9805 62.1356 67.1474 63.3025 68.5868 63.3025Z" stroke="#0077E6" strokeWidth="2.66667" stroke-miterlimit="10" strokeLinecap="round"/>
</svg>
