<svg width="87" height="87" viewBox="0 0 87 87" fill="none" xmlns="http://www.w3.org/2000/svg">
<path fillRule="evenodd" clipRule="evenodd" d="M36.8906 33.2744C36.8906 30.5698 39.1861 28.2744 41.8906 28.2744H44.8906C45.9952 28.2744 46.8906 29.1698 46.8906 30.2744C46.8906 31.379 45.9952 32.2744 44.8906 32.2744H41.8906C41.3952 32.2744 40.8906 32.779 40.8906 33.2744C40.8906 33.7698 41.3952 34.2744 41.8906 34.2744H43.8906C46.5952 34.2744 48.8906 36.5698 48.8906 39.2744C48.8906 41.979 46.5952 44.2744 43.8906 44.2744H40.8906C39.7861 44.2744 38.8906 43.379 38.8906 42.2744C38.8906 41.1698 39.7861 40.2744 40.8906 40.2744H43.8906C44.3861 40.2744 44.8906 39.7698 44.8906 39.2744C44.8906 38.779 44.3861 38.2744 43.8906 38.2744H41.8906C39.1861 38.2744 36.8906 35.979 36.8906 33.2744Z" fill="#0077E6"/>
<path fillRule="evenodd" clipRule="evenodd" d="M40.8502 16.4924C51.6776 15.1452 60.8879 23.7174 60.8879 34.2782C60.8879 39.2682 58.8349 43.5188 55.793 46.9952C55.7638 47.0286 55.7335 47.061 55.7021 47.0924C53.9402 48.8543 52.8879 51.7123 52.8879 54.4782C52.8879 55.5828 51.9924 56.4782 50.8879 56.4782H34.8879C33.7833 56.4782 32.8879 55.5828 32.8879 54.4782C32.8879 51.556 31.8629 48.8817 29.8736 46.8924C29.8594 46.8781 29.8453 46.8636 29.8315 46.8489C26.2317 43.0242 24.2127 37.4141 25.1111 31.5741L25.1166 31.5403C26.4621 23.6919 32.9474 17.4005 40.8502 16.4924ZM56.8879 34.2782C56.8879 26.0424 49.704 19.4168 41.3359 20.4628L41.315 20.4654C35.2282 21.161 30.1224 26.0591 29.062 32.1993C28.3686 36.7428 29.9403 41.1158 32.725 44.087C35.0341 46.4067 36.369 49.3459 36.7634 52.4782H49.0208C49.4166 49.4793 50.6944 46.4704 52.8234 44.3146C55.3573 41.402 56.8879 38.0679 56.8879 34.2782Z" fill="#0077E6"/>
<path fillRule="evenodd" clipRule="evenodd" d="M36.8906 60.2744C37.9952 60.2744 38.8906 61.1698 38.8906 62.2744C38.8906 64.5698 40.5952 66.2744 42.8906 66.2744C45.1861 66.2744 46.8906 64.5698 46.8906 62.2744C46.8906 61.1698 47.7861 60.2744 48.8906 60.2744C49.9952 60.2744 50.8906 61.1698 50.8906 62.2744C50.8906 66.779 47.3952 70.2744 42.8906 70.2744C38.3861 70.2744 34.8906 66.779 34.8906 62.2744C34.8906 61.1698 35.7861 60.2744 36.8906 60.2744Z" fill="#0077E6"/>
<path fillRule="evenodd" clipRule="evenodd" d="M12.8906 36.2744C12.8906 35.1698 13.7861 34.2744 14.8906 34.2744H18.8906C19.9952 34.2744 20.8906 35.1698 20.8906 36.2744C20.8906 37.379 19.9952 38.2744 18.8906 38.2744H14.8906C13.7861 38.2744 12.8906 37.379 12.8906 36.2744Z" fill="#0077E6"/>
<path fillRule="evenodd" clipRule="evenodd" d="M27.308 51.8602C28.089 52.6412 28.089 53.9076 27.308 54.6886L24.508 57.4886C23.7269 58.2697 22.4606 58.2697 21.6795 57.4886C20.8985 56.7076 20.8985 55.4412 21.6795 54.6602L24.4795 51.8602C25.2606 51.0792 26.5269 51.0792 27.308 51.8602Z" fill="#0077E6"/>
<path fillRule="evenodd" clipRule="evenodd" d="M58.4764 51.8602C59.2575 51.0792 60.5238 51.0792 61.3048 51.8602L64.1048 54.6602C64.8859 55.4412 64.8859 56.7076 64.1048 57.4886C63.3238 58.2697 62.0575 58.2697 61.2764 57.4886L58.4764 54.6886C57.6954 53.9076 57.6954 52.6412 58.4764 51.8602Z" fill="#0077E6"/>
<path fillRule="evenodd" clipRule="evenodd" d="M64.8906 36.2744C64.8906 35.1698 65.7861 34.2744 66.8906 34.2744H70.8906C71.9952 34.2744 72.8906 35.1698 72.8906 36.2744C72.8906 37.379 71.9952 38.2744 70.8906 38.2744H66.8906C65.7861 38.2744 64.8906 37.379 64.8906 36.2744Z" fill="#0077E6"/>
<path fillRule="evenodd" clipRule="evenodd" d="M64.1048 15.0633C64.8859 15.8444 64.8859 17.1107 64.1048 17.8918L61.3048 20.6918C60.5238 21.4728 59.2575 21.4728 58.4764 20.6918C57.6954 19.9107 57.6954 18.6444 58.4764 17.8633L61.2764 15.0633C62.0575 14.2823 63.3238 14.2823 64.1048 15.0633Z" fill="#0077E6"/>
<path fillRule="evenodd" clipRule="evenodd" d="M21.6795 15.0633C22.4606 14.2823 23.7269 14.2823 24.508 15.0633L27.308 17.8633C28.089 18.6444 28.089 19.9107 27.308 20.6918C26.5269 21.4728 25.2606 21.4728 24.4795 20.6918L21.6795 17.8918C20.8985 17.1107 20.8985 15.8444 21.6795 15.0633Z" fill="#0077E6"/>
</svg>
