<svg width="329" height="159" viewBox="0 0 329 159" fill="none" xmlns="http://www.w3.org/2000/svg">
<path d="M25.8957 58C22.319 58 19.4195 60.8995 19.4195 64.4761V90.3807C19.4195 93.9573 22.319 96.8568 25.8957 96.8568H70.5116C74.0883 96.8568 76.9878 93.9573 76.9878 90.3807V64.4761C76.9878 60.8995 74.0883 58 70.5116 58H25.8957ZM23.737 64.4761C23.737 63.2839 24.7035 62.3174 25.8957 62.3174H70.5116C71.7039 62.3174 72.6704 63.2839 72.6704 64.4761V90.3807C72.6704 91.5729 71.7039 92.5394 70.5116 92.5394H25.8957C24.7035 92.5394 23.737 91.5729 23.737 90.3807V64.4761ZM15.8228 99.7351C14.6306 99.7351 13.6641 100.702 13.6641 101.894C13.6641 103.086 14.6306 104.052 15.8228 104.052H80.5846C81.7768 104.052 82.7433 103.086 82.7433 101.894C82.7433 100.702 81.7768 99.7351 80.5846 99.7351H15.8228Z" fill="#FAFAFA"/>
<path d="M104.664 74.5L108.664 79L104.664 83.5" stroke="#A3A3A3" strokeLinejoin="round"/>
<path d="M208.664 74.5L212.664 79L208.664 83.5" stroke="#A3A3A3" strokeLinejoin="round"/>
<path d="M162.064 83.6L157.464 79L162.064 74.4L160.664 73L154.664 79L160.664 85L162.064 83.6ZM167.264 83.6L171.864 79L167.264 74.4L168.664 73L174.664 79L168.664 85L167.264 83.6Z" fill="#FAFAFA"/>
<path d="M316.664 89C322.187 89 326.664 84.5228 326.664 79C326.664 73.4772 322.187 69 316.664 69C311.141 69 306.664 73.4772 306.664 79C306.664 84.5228 311.141 89 316.664 89ZM316.664 70.4286C317.401 70.4286 318.295 71.1057 319.046 72.7333C319.313 73.3117 319.545 73.9784 319.731 74.7143H313.597C313.783 73.9784 314.015 73.3117 314.282 72.7333C315.033 71.1057 315.927 70.4286 316.664 70.4286ZM312.985 72.1347C312.636 72.892 312.346 73.7624 312.127 74.7143H309.239C310.221 73.0178 311.767 71.6889 313.621 70.9846C313.385 71.3406 313.173 71.7285 312.985 72.1347ZM311.863 76.1429C311.733 77.0504 311.664 78.0101 311.664 79C311.664 79.9899 311.733 80.9496 311.863 81.8571H308.58C308.265 80.9635 308.093 80.0018 308.093 79C308.093 77.9982 308.265 77.0365 308.58 76.1429H311.863ZM312.127 83.2857C312.346 84.2376 312.636 85.108 312.985 85.8653C313.173 86.2715 313.385 86.6594 313.621 87.0154C311.767 86.3111 310.221 84.9822 309.239 83.2857H312.127ZM313.597 83.2857H319.731C319.545 84.0216 319.313 84.6883 319.046 85.2667C318.295 86.8943 317.401 87.5714 316.664 87.5714C315.927 87.5714 315.033 86.8943 314.282 85.2667C314.015 84.6883 313.783 84.0216 313.597 83.2857ZM320.021 81.8571H313.308C313.169 80.9656 313.093 80.0049 313.093 79C313.093 77.9951 313.169 77.0344 313.308 76.1429H320.021C320.159 77.0344 320.235 77.9951 320.235 79C320.235 80.0049 320.159 80.9656 320.021 81.8571ZM321.201 83.2857H324.089C323.107 84.9822 321.561 86.3111 319.708 87.0154C319.943 86.6594 320.156 86.2715 320.343 85.8653C320.693 85.108 320.982 84.2376 321.201 83.2857ZM324.748 81.8571H321.465C321.595 80.9496 321.664 79.9899 321.664 79C321.664 78.0101 321.595 77.0504 321.465 76.1429H324.748C325.064 77.0365 325.235 77.9982 325.235 79C325.235 80.0018 325.064 80.9635 324.748 81.8571ZM319.708 70.9846C321.561 71.6889 323.107 73.0178 324.089 74.7143H321.201C320.982 73.7624 320.693 72.892 320.343 72.1347C320.156 71.7285 319.943 71.3406 319.708 70.9846Z" fill="#FAFAFA"/>
<rect x="39.6641" y="69" width="18" height="18" rx="2" fill="white"/>
<path d="M41.6641 76.5821L48.6641 71.5V73.8983L41.6641 78.9804V76.5821Z" fill="black"/>
<path d="M55.6641 76.5821L48.6641 71.5V73.8983L55.6641 78.9805V76.5821Z" fill="black"/>
<path d="M41.6641 82.1016L48.664 77.0196V79.4179L41.6641 84.5V82.1016Z" fill="black"/>
<path d="M55.664 82.1017L48.664 77.0196V79.4179L55.664 84.5V82.1017Z" fill="black"/>
<path d="M85.6641 79L149.664 79" stroke="#A3A3A3"/>
<path fillRule="evenodd" clipRule="evenodd" d="M274.75 136.447L274.75 136.447L274.753 136.45L274.92 136.641L274.923 136.644L275.092 136.832L275.094 136.835L275.263 137.022L275.266 137.025L275.436 137.21L275.438 137.213L275.608 137.395L275.611 137.398L275.782 137.578L275.782 137.578L275.785 137.581L275.956 137.76L275.956 137.76L275.958 137.763L276.13 137.939L276.133 137.942L276.305 138.116L276.305 138.116L276.308 138.119L276.481 138.291L276.481 138.291L276.483 138.294L276.657 138.464L276.657 138.464L276.66 138.466L276.833 138.634L276.836 138.637L277.011 138.803L277.013 138.806L277.188 138.97L277.191 138.972L277.367 139.134L277.369 139.137L277.545 139.296L277.548 139.299L277.725 139.457L277.727 139.459L277.904 139.615L277.907 139.617L278.085 139.771L278.087 139.774L278.266 139.926L278.268 139.928L278.447 140.078L278.45 140.08L278.629 140.228L278.632 140.23L278.811 140.376L278.814 140.378L278.994 140.522L278.997 140.524L279.178 140.666L279.18 140.668L279.361 140.808L279.364 140.81L279.546 140.949L279.548 140.951L279.731 141.087L279.733 141.089L279.916 141.223L279.918 141.225L280.102 141.358L280.104 141.359L280.288 141.49L280.29 141.492L280.475 141.621L280.477 141.622L280.662 141.749L280.664 141.751L280.85 141.876L280.852 141.878L281.038 142.001L281.04 142.003L281.226 142.124L281.228 142.126L281.415 142.246L281.417 142.247L281.605 142.365L281.607 142.367L281.794 142.483L281.797 142.485L281.985 142.599L281.987 142.601L282.175 142.714L282.177 142.715L282.366 142.826L282.368 142.828L282.558 142.937L282.56 142.939L282.75 143.047L282.752 143.048L282.942 143.154L282.944 143.155L283.135 143.26L283.137 143.261L283.328 143.365L283.33 143.366L283.521 143.467L283.523 143.468L283.715 143.569L283.717 143.57L283.909 143.668L283.911 143.669L284.104 143.767L284.105 143.767L284.299 143.863L284.3 143.864L284.494 143.959L284.495 143.959L284.689 144.052L284.691 144.053L284.885 144.145L284.887 144.145L285.081 144.236L285.083 144.236L285.278 144.325L285.28 144.326L285.475 144.414L285.476 144.414L285.672 144.501L285.673 144.501L285.869 144.586L285.871 144.587L286.067 144.671L286.069 144.671L286.265 144.754L286.267 144.755L286.463 144.836L286.465 144.837L286.662 144.917L286.663 144.917L286.861 144.996L286.862 144.997L287.06 145.075L287.061 145.076L287.259 145.153L287.26 145.153L287.459 145.229L287.46 145.229L287.659 145.304L287.66 145.305L287.859 145.379L287.86 145.379L288.059 145.452L288.06 145.452L288.259 145.525L288.26 145.525L288.46 145.596L288.461 145.596L288.661 145.667L288.662 145.667L288.862 145.737L288.863 145.737L289.063 145.805L289.064 145.806L289.264 145.874L289.265 145.874L289.466 145.941L289.467 145.941L289.667 146.008L289.668 146.008L289.869 146.074L289.87 146.074L290.071 146.139L290.072 146.139L290.273 146.204L290.274 146.204L290.476 146.268L290.476 146.268L290.678 146.331L290.678 146.332L290.88 146.394L290.881 146.394L291.083 146.457L291.083 146.457L291.285 146.519L291.286 146.519L291.488 146.58L291.489 146.58L291.691 146.641L291.691 146.642L291.894 146.702L291.894 146.702L292.097 146.763L292.097 146.763L292.3 146.823L292.3 146.823L292.502 146.882L292.503 146.882L292.705 146.942C292.9 146.999 293.038 146.775 293.015 146.442C292.991 146.108 292.815 145.792 292.621 145.735L292.418 145.676L292.418 145.676L292.216 145.616L292.216 145.616L292.014 145.556L292.013 145.556L291.812 145.496L291.811 145.496L291.61 145.436L291.609 145.436L291.408 145.375L291.407 145.375L291.206 145.314L291.205 145.313L291.004 145.252L291.004 145.252L290.803 145.19L290.802 145.19L290.602 145.127L290.601 145.127L290.401 145.064L290.4 145.064L290.2 145.001L290.199 145L289.999 144.936L289.998 144.936L289.799 144.871L289.798 144.871L289.598 144.806L289.598 144.806L289.398 144.74L289.398 144.74L289.199 144.673L289.198 144.673L288.999 144.605L288.998 144.605L288.8 144.537L288.799 144.537L288.601 144.468L288.6 144.468L288.402 144.398L288.401 144.398L288.203 144.327L288.202 144.327L288.005 144.256L288.004 144.255L287.807 144.183L287.806 144.183L287.609 144.109L287.608 144.109L287.412 144.035L287.411 144.035L287.215 143.96L287.213 143.959L287.018 143.883L287.017 143.883L286.821 143.806L286.82 143.805L286.625 143.727L286.624 143.726L286.429 143.647L286.428 143.647L286.234 143.566L286.233 143.566L286.039 143.484L286.037 143.484L285.844 143.401L285.843 143.401L285.65 143.317L285.648 143.316L285.456 143.231L285.454 143.231L285.262 143.145L285.261 143.144L285.069 143.056L285.067 143.056L284.876 142.967L284.874 142.966L284.684 142.876L284.682 142.875L284.492 142.784L284.49 142.783L284.3 142.691L284.298 142.69L284.109 142.596L284.107 142.595L283.918 142.499L283.916 142.498L283.728 142.402L283.726 142.401L283.538 142.302L283.536 142.301L283.348 142.202L283.346 142.201L283.159 142.1L283.157 142.098L282.97 141.996L282.968 141.995L282.782 141.891L282.78 141.889L282.595 141.784L282.593 141.783L282.407 141.675L282.405 141.674L282.221 141.565L282.219 141.564L282.034 141.454L282.032 141.452L281.849 141.34L281.846 141.339L281.663 141.225L281.661 141.224L281.479 141.109L281.476 141.107L281.294 140.99L281.292 140.989L281.111 140.87L281.108 140.869L280.927 140.748L280.925 140.747L280.744 140.625L280.742 140.623L280.562 140.499L280.56 140.498L280.38 140.372L280.378 140.371L280.199 140.243L280.197 140.242L280.018 140.113L280.016 140.111L279.838 139.98L279.836 139.978L279.659 139.846L279.656 139.844L279.479 139.71L279.477 139.708L279.301 139.572L279.298 139.57L279.123 139.432L279.12 139.43L278.945 139.29L278.942 139.288L278.768 139.146L278.765 139.144L278.592 139L278.589 138.998L278.416 138.853L278.413 138.851L278.24 138.703L278.238 138.701L278.065 138.552L278.063 138.55L277.891 138.399L277.888 138.396L277.717 138.243L277.715 138.241L277.544 138.086L277.541 138.083L277.372 137.927L277.369 137.924L277.199 137.765L277.197 137.763L277.028 137.602L277.025 137.599L276.857 137.437L276.854 137.434L276.686 137.27L276.684 137.267L276.517 137.1L276.514 137.098L276.347 136.929L276.344 136.926L276.178 136.756L276.176 136.753L276.01 136.58L276.007 136.577L275.842 136.403L275.84 136.4L275.675 136.224L275.672 136.221L275.509 136.042L275.506 136.039L275.343 135.859L275.34 135.856L275.177 135.673L275.174 135.67L275.011 135.484L275.009 135.483L274.848 135.296L274.845 135.293L274.684 135.105L274.681 135.101L274.52 134.911L274.518 134.908L274.357 134.715L274.355 134.712L274.195 134.517L274.192 134.514L274.033 134.318L274.031 134.314L273.872 134.116L273.87 134.112L273.712 133.912L273.709 133.908L273.551 133.706L273.549 133.702L273.392 133.498L273.389 133.494L273.233 133.288L273.23 133.284L273.074 133.076L273.071 133.072L272.916 132.862L272.913 132.858L272.758 132.645L272.756 132.642L272.601 132.427L272.599 132.424L272.445 132.207L272.442 132.204L272.289 131.985L272.286 131.982L272.133 131.761L272.131 131.757L271.978 131.535L271.976 131.531L271.824 131.307L271.821 131.303L271.67 131.077L271.667 131.073L271.516 130.844L271.514 130.841L271.363 130.61L271.361 130.607L271.211 130.375L271.208 130.371L271.059 130.137L271.056 130.133L270.907 129.897L270.905 129.893L270.756 129.655L270.754 129.652L270.605 129.411L270.603 129.408L270.455 129.166L270.453 129.162L270.305 128.918L270.303 128.915L270.156 128.669L270.154 128.666L270.007 128.418L270.005 128.414L269.859 128.165L269.857 128.161L269.711 127.91L269.709 127.907L269.564 127.653L269.562 127.65L269.416 127.395L269.415 127.392L269.27 127.135L269.268 127.131L269.124 126.873L269.122 126.87L268.978 126.609L268.976 126.606L268.833 126.344L268.831 126.34L268.688 126.076L268.686 126.073L268.543 125.808L268.541 125.804L268.399 125.537L268.397 125.534L268.255 125.265L268.254 125.262L268.112 124.991L268.11 124.988L267.969 124.716L267.967 124.713L267.826 124.439L267.825 124.436L267.684 124.16L267.683 124.157L267.542 123.88L267.541 123.877L267.401 123.598L267.399 123.595L267.26 123.315L267.258 123.312L267.119 123.03L267.118 123.028L266.978 122.744L266.977 122.742L266.838 122.457L266.837 122.454L266.699 122.168L266.697 122.165L266.559 121.877L266.558 121.875L266.42 121.586L266.419 121.583L266.281 121.292L266.28 121.29L266.143 120.998L266.142 120.996L266.004 120.702L266.003 120.7L265.867 120.405L265.866 120.403L265.729 120.107L265.728 120.105L265.592 119.808L265.591 119.806L265.455 119.507L265.454 119.505L265.318 119.206L265.317 119.204L265.181 118.903L265.18 118.901L265.045 118.599L265.044 118.597L264.909 118.294L264.908 118.292L264.773 117.988L264.772 117.986L264.637 117.68L264.637 117.679L264.502 117.372L264.501 117.371L264.367 117.063L264.366 117.062L264.232 116.753L264.231 116.752L264.097 116.442L264.096 116.441L263.962 116.131L263.962 116.129L263.828 115.818L263.828 115.817L263.694 115.505L263.693 115.503L263.56 115.19L263.559 115.189L263.426 114.876L263.425 114.874L263.292 114.56L263.292 114.559L263.159 114.244L263.158 114.242L263.025 113.926L263.025 113.925L262.892 113.609L262.891 113.608L262.759 113.291L262.758 113.29L262.625 112.972L262.625 112.971L262.492 112.653L262.492 112.652L262.36 112.333L262.359 112.332L262.227 112.012L262.226 112.012L262.094 111.692L262.094 111.691L261.961 111.371L261.961 111.37L261.829 111.049L261.828 111.049L261.696 110.727L261.696 110.727L261.564 110.405L261.563 110.405L261.431 110.083L261.431 110.082L261.299 109.76L261.298 109.76L261.166 109.437L261.166 109.437L261.034 109.114L261.034 109.114L260.901 108.791L260.901 108.791L260.769 108.468L260.769 108.468L260.636 108.144L260.367 108.392L260.636 108.144L260.504 107.821L260.504 107.821L260.371 107.498L260.371 107.498L260.239 107.174L260.239 107.174L260.106 106.851L260.106 106.851L259.973 106.528L259.973 106.527L259.841 106.205L259.84 106.204L259.708 105.882L259.708 105.881L259.575 105.559L259.575 105.559L259.442 105.236L259.442 105.236L259.309 104.914L259.308 104.914L259.175 104.592L259.175 104.591L259.042 104.27L259.042 104.27L258.909 103.949L258.908 103.948L258.775 103.628L258.775 103.627L258.641 103.307L258.641 103.307L258.507 102.987L258.507 102.986L258.373 102.668L258.373 102.667L258.239 102.348L258.239 102.347L258.104 102.03L258.104 102.029L257.97 101.712L257.969 101.711L257.835 101.394L257.834 101.393L257.7 101.077L257.699 101.076L257.565 100.761L257.564 100.76L257.429 100.446L257.429 100.444L257.293 100.131L257.293 100.13L257.157 99.8169L257.157 99.8154L257.021 99.5037L257.021 99.5021L256.885 99.1913L256.884 99.1897L256.748 98.8797L256.747 98.878L256.611 98.5689L256.61 98.5672L256.474 98.2591L256.473 98.2573L256.336 97.9502L256.335 97.9484L256.198 97.6423L256.197 97.6404L256.06 97.3353L256.059 97.3334L255.922 97.0294L255.921 97.0274L255.783 96.7245L255.782 96.7224L255.644 96.4206L255.643 96.4185L255.504 96.1179L255.503 96.1158L255.364 95.8163L255.363 95.8141L255.224 95.5159L255.223 95.5136L255.084 95.2166L255.082 95.2143L254.943 94.9185L254.941 94.9162L254.801 94.6217L254.8 94.6193L254.66 94.3261L254.658 94.3236L254.518 94.0318L254.516 94.0293L254.375 93.7388L254.374 93.7363L254.232 93.4472L254.231 93.4446L254.089 93.1569L254.088 93.1543L253.945 92.868L253.944 92.8653L253.801 92.5805L253.8 92.5778L253.657 92.2945L253.655 92.2917L253.512 92.0099L253.51 92.007L253.366 91.7267L253.365 91.7239L253.221 91.4451L253.219 91.4422L253.074 91.165L253.073 91.1621L252.928 90.8865L252.926 90.8835L252.78 90.6095L252.779 90.6065L252.633 90.3341L252.631 90.331L252.485 90.0603L252.483 90.0572L252.336 89.7882L252.334 89.7851L252.187 89.5177L252.185 89.5145L252.037 89.2489L252.035 89.2457L251.887 88.9818L251.885 88.9785L251.737 88.7164L251.735 88.7131L251.585 88.4527L251.584 88.4494L251.434 88.1908L251.432 88.1875L251.282 87.9306L251.28 87.9273L251.129 87.6723L251.127 87.6689L250.976 87.4157L250.974 87.4123L250.822 87.161L250.82 87.1575L250.668 86.9081L250.666 86.9046L250.513 86.657L250.511 86.6535L250.358 86.4078L250.356 86.4044L250.202 86.1605L250.2 86.157L250.046 85.9151L250.044 85.9116L249.889 85.6716L249.887 85.6681L249.732 85.4301L249.729 85.4266L249.574 85.1905L249.571 85.1869L249.415 84.9528L249.413 84.9493L249.256 84.7171L249.253 84.7136L249.096 84.4834L249.094 84.4799L248.936 84.2517L248.934 84.2481L248.775 84.0219L248.773 84.0184L248.614 83.7942L248.611 83.7907L248.452 83.5685L248.449 83.565L248.289 83.3449L248.287 83.3414L248.126 83.1232L248.124 83.1198L247.963 82.9037L247.96 82.9002L247.799 82.6861L247.796 82.6827L247.634 82.4707L247.631 82.4673L247.469 82.2573L247.466 82.2539L247.303 82.046L247.3 82.0426L247.136 81.8368L247.134 81.8334L246.969 81.6297L246.967 81.6264L246.802 81.4247L246.799 81.4213L246.634 81.2217L246.631 81.2184L246.465 81.0209L246.462 81.0176L246.296 80.8222L246.293 80.819L246.126 80.6256L246.123 80.6224L245.955 80.4311L245.952 80.4279L245.784 80.2387L245.782 80.2356L245.613 80.0484L245.61 80.0453L245.441 79.8603L245.438 79.8572L245.268 79.6742L245.265 79.6712L245.095 79.4903L245.092 79.4873L244.921 79.3085L244.918 79.3056L244.747 79.1288L244.744 79.1259L244.664 79.0444V80.2767L244.697 80.3109L244.7 80.3138L244.865 80.4867L244.868 80.4897L245.033 80.6646L245.035 80.6676L245.2 80.8446L245.202 80.8476L245.366 81.0265L245.369 81.0296L245.532 81.2105L245.535 81.2137L245.697 81.3966L245.699 81.3982L245.862 81.5847L245.865 81.5879L246.026 81.7748L246.029 81.7781L246.19 81.967L246.193 81.9703L246.353 82.1612L246.356 82.1645L246.516 82.3575L246.519 82.3608L246.678 82.5559L246.681 82.5592L246.84 82.7562L246.843 82.7596L247.001 82.9586L247.004 82.962L247.161 83.1631L247.164 83.1665L247.321 83.3696L247.324 83.373L247.481 83.5782L247.484 83.5816L247.64 83.7887L247.643 83.7922L247.798 84.0013L247.801 84.0048L247.956 84.216L247.959 84.2194L248.114 84.4326L248.116 84.4361L248.271 84.6513L248.273 84.6548L248.427 84.872L248.429 84.8755L248.583 85.0946L248.585 85.0982L248.738 85.3193L248.741 85.3228L248.893 85.546L248.896 85.5495L249.048 85.7746L249.05 85.7782L249.201 86.0053L249.204 86.0088L249.355 86.2379L249.357 86.2414L249.508 86.4724L249.51 86.4759L249.66 86.7089L249.662 86.7124L249.812 86.9473L249.814 86.9508L249.964 87.1877L249.966 87.1912L250.115 87.43L250.117 87.4334L250.265 87.6741L250.267 87.6776L250.415 87.9202L250.417 87.9236L250.565 88.1681L250.567 88.1715L250.714 88.4179L250.716 88.4213L250.863 88.6696L250.865 88.673L251.011 88.9231L251.013 88.9264L251.159 89.1784L251.16 89.1817L251.306 89.4355L251.308 89.4388L251.453 89.6944L251.455 89.6977L251.599 89.9551L251.601 89.9584L251.745 90.2176L251.747 90.2208L251.891 90.4818L251.893 90.4849L252.036 90.7477L252.038 90.7508L252.181 91.0153L252.183 91.0184L252.326 91.2846L252.327 91.2876L252.47 91.5556L252.471 91.5586L252.613 91.8282L252.615 91.8312L252.757 92.1024L252.758 92.1054L252.899 92.3783L252.901 92.3812L253.042 92.6557L253.043 92.6586L253.184 92.9348L253.185 92.9375L253.326 93.2153L253.327 93.2181L253.467 93.4974L253.468 93.5001L253.608 93.781L253.609 93.7836L253.749 94.066L253.75 94.0686L253.889 94.3526L253.89 94.3551L254.029 94.6405L254.03 94.643L254.169 94.9299L254.17 94.9323L254.308 95.2206L254.309 95.223L254.447 95.5127L254.448 95.5151L254.586 95.8061L254.587 95.8084L254.724 96.1009L254.725 96.1031L254.863 96.3969L254.864 96.3991L255 96.6942L255.001 96.6963L255.138 96.9927L255.139 96.9948L255.275 97.2924L255.276 97.2945L255.412 97.5933L255.413 97.5953L255.549 97.8953L255.55 97.8973L255.685 98.1985L255.686 98.2004L255.822 98.5028L255.822 98.5046L255.958 98.8081L255.958 98.8099L256.093 99.1145L256.094 99.1162L256.229 99.4218L256.23 99.4235L256.364 99.7302L256.365 99.7318L256.499 100.04L256.5 100.041L256.634 100.35L256.635 100.351L256.769 100.661L256.77 100.662L256.904 100.973L256.904 100.974L257.038 101.286L257.038 101.287L257.172 101.599L257.173 101.601L257.306 101.914L257.307 101.915L257.44 102.229L257.44 102.23L257.574 102.545L257.574 102.546L257.707 102.861L257.708 102.862L257.841 103.178L257.841 103.179L257.974 103.496L257.974 103.497L258.107 103.815L258.108 103.815L258.24 104.133L258.241 104.134L258.373 104.453L258.374 104.454L258.506 104.773L258.506 104.774L258.639 105.093L258.639 105.094L258.772 105.414L258.772 105.415L258.904 105.735L258.905 105.736L259.037 106.057L259.037 106.057L259.17 106.379L259.17 106.379L259.302 106.701L259.302 106.701L259.435 107.023L259.435 107.024L259.567 107.346L259.567 107.346L259.699 107.669L259.7 107.669L259.832 107.992L259.832 107.992L259.964 108.315L259.964 108.315L260.097 108.639L260.229 108.962L260.229 108.962L260.362 109.285L260.362 109.286L260.494 109.609L260.494 109.609L260.627 109.932L260.627 109.932L260.76 110.255L260.76 110.256L260.892 110.579L260.892 110.579L261.025 110.902L261.025 110.902L261.158 111.225L261.158 111.225L261.291 111.547L261.291 111.548L261.424 111.87L261.424 111.87L261.557 112.192L261.557 112.193L261.69 112.514L261.691 112.515L261.824 112.836L261.824 112.836L261.957 113.157L261.958 113.158L262.091 113.478L262.091 113.479L262.225 113.798L262.225 113.799L262.359 114.118L262.359 114.119L262.493 114.438L262.493 114.439L262.627 114.757L262.628 114.758L262.762 115.075L262.762 115.076L262.896 115.393L262.897 115.394L263.031 115.71L263.032 115.712L263.166 116.027L263.167 116.028L263.302 116.343L263.302 116.345L263.437 116.658L263.438 116.66L263.573 116.973L263.574 116.975L263.709 117.287L263.71 117.288L263.845 117.6L263.846 117.601L263.982 117.912L263.983 117.914L264.119 118.223L264.119 118.225L264.256 118.534L264.257 118.536L264.393 118.844L264.394 118.845L264.531 119.152L264.532 119.154L264.669 119.46L264.67 119.462L264.807 119.767L264.808 119.769L264.946 120.072L264.947 120.074L265.085 120.377L265.085 120.379L265.224 120.68L265.225 120.683L265.363 120.983L265.364 120.985L265.503 121.284L265.504 121.286L265.644 121.584L265.645 121.587L265.784 121.883L265.785 121.886L265.925 122.181L265.926 122.183L266.067 122.477L266.068 122.48L266.208 122.773L266.21 122.775L266.351 123.067L266.352 123.069L266.493 123.359L266.494 123.362L266.636 123.651L266.637 123.653L266.779 123.94L266.781 123.943L266.923 124.229L266.925 124.232L267.067 124.516L267.069 124.519L267.212 124.802L267.213 124.805L267.357 125.086L267.359 125.089L267.503 125.369L267.504 125.372L267.649 125.65L267.65 125.653L267.795 125.93L267.797 125.933L267.942 126.208L267.943 126.211L268.089 126.484L268.091 126.487L268.237 126.759L268.239 126.762L268.385 127.033L268.387 127.036L268.534 127.304L268.536 127.307L268.683 127.574L268.685 127.577L268.833 127.843L268.835 127.846L268.983 128.109L268.985 128.113L269.134 128.374L269.136 128.378L269.285 128.637L269.287 128.641L269.437 128.899L269.439 128.902L269.589 129.159L269.591 129.162L269.742 129.416L269.744 129.42L269.895 129.673L269.897 129.676L270.049 129.927L270.051 129.93L270.203 130.179L270.206 130.183L270.358 130.43L270.36 130.433L270.514 130.678L270.516 130.682L270.67 130.925L270.672 130.929L270.826 131.17L270.828 131.174L270.983 131.413L270.985 131.417L271.141 131.654L271.141 131.654L271.143 131.658L271.299 131.893L271.301 131.897L271.458 132.13L271.46 132.134L271.617 132.366L271.617 132.366L271.619 132.369L271.777 132.599L271.777 132.599L271.779 132.602L271.937 132.83L271.937 132.83L271.94 132.833L272.098 133.059L272.098 133.059L272.101 133.063L272.26 133.286L272.26 133.286L272.262 133.29L272.422 133.511L272.422 133.511L272.424 133.515L272.584 133.735L272.584 133.735L272.587 133.738L272.747 133.956L272.747 133.956L272.75 133.959L272.911 134.175L272.911 134.175L272.914 134.178L273.075 134.392L273.075 134.392L273.078 134.395L273.24 134.607L273.24 134.607L273.243 134.61L273.406 134.819L273.406 134.819L273.408 134.823L273.572 135.03L273.572 135.03L273.575 135.033L273.738 135.239L273.738 135.239L273.741 135.242L273.906 135.445L273.906 135.445L273.908 135.449L274.073 135.65L274.073 135.65L274.076 135.653L274.242 135.852L274.242 135.852L274.244 135.855L274.411 136.052L274.41 136.052L274.413 136.056L274.58 136.251L274.58 136.251L274.583 136.254L274.75 136.447Z" fill="#A3A3A3"/>
<path fillRule="evenodd" clipRule="evenodd" d="M275.083 22.6955L275.25 22.5026L275.253 22.4994L275.42 22.3087L275.423 22.3055L275.592 22.1169L275.594 22.1138L275.763 21.9272L275.766 21.9241L275.936 21.7396L275.938 21.7365L276.108 21.5541L276.111 21.5511L276.282 21.3708L276.285 21.3678L276.456 21.1895L276.458 21.1866L276.63 21.0104L276.633 21.0075L276.805 20.8333L276.808 20.8305L276.981 20.6584L276.983 20.6556L277.157 20.4856L277.16 20.4828L277.333 20.3148L277.336 20.3121L277.511 20.1462L277.513 20.1435L277.688 19.9796L277.691 19.977L277.867 19.8151L277.869 19.8126L278.045 19.6527L278.048 19.6502L278.225 19.4924L278.227 19.49L278.404 19.3341L278.407 19.3317L278.585 19.1779L278.587 19.1755L278.766 19.0237L278.768 19.0214L278.947 18.8715L278.95 18.8693L279.129 18.7214L279.132 18.7192L279.311 18.5733L279.314 18.5711L279.494 18.4271L279.497 18.425L279.678 18.283L279.68 18.2809L279.861 18.1408L279.864 18.1388L280.046 18.0006L280.048 17.9987L280.231 17.8624L280.233 17.8605L280.416 17.726L280.418 17.7242L280.602 17.5916L280.604 17.5899L280.788 17.4591L280.79 17.4574L280.975 17.3285L280.977 17.3269L281.162 17.1998L281.164 17.1982L281.35 17.073L281.352 17.0714L281.538 16.9479L281.54 16.9464L281.726 16.8247L281.728 16.8232L281.915 16.7033L281.917 16.7019L282.105 16.5837L282.107 16.5823L282.294 16.4659L282.297 16.4645L282.485 16.3498L282.487 16.3485L282.675 16.2355L282.677 16.2342L282.866 16.1228L282.868 16.1216L283.058 16.0119L283.06 16.0107L283.25 15.9026L283.252 15.9015L283.442 15.795L283.444 15.7939L283.635 15.689L283.637 15.6879L283.828 15.5846L283.83 15.5836L284.021 15.4818L284.023 15.4808L284.215 15.3806L284.217 15.3796L284.409 15.2809L284.411 15.2799L284.604 15.1827L284.605 15.1817L284.799 15.0859L284.8 15.0851L284.994 14.9907L284.995 14.9899L285.189 14.8969L285.191 14.8961L285.385 14.8045L285.387 14.8037L285.581 14.7135L285.583 14.7128L285.778 14.6239L285.78 14.6232L285.975 14.5356L285.976 14.5349L286.172 14.4486L286.173 14.4479L286.369 14.3629L286.371 14.3623L286.567 14.2785L286.569 14.2778L286.765 14.1952L286.767 14.1947L286.963 14.1132L286.965 14.1127L287.162 14.0324L287.163 14.0319L287.361 13.9527L287.362 13.9522L287.56 13.8742L287.561 13.8737L287.759 13.7967L287.76 13.7962L287.959 13.7203L287.96 13.7198L288.159 13.6449L288.16 13.6445L288.359 13.5705L288.36 13.5701L288.559 13.4972L288.56 13.4968L288.759 13.4247L288.76 13.4243L288.96 13.3532L288.961 13.3528L289.161 13.2825L289.162 13.2822L289.362 13.2127L289.363 13.2124L289.563 13.1437L289.564 13.1434L289.764 13.0756L289.765 13.0753L289.966 13.0081L289.967 13.0079L290.167 12.9414L290.168 12.9412L290.369 12.8755L290.37 12.8752L290.571 12.8101L290.572 12.8099L290.773 12.7455L290.774 12.7452L290.976 12.6814L290.976 12.6812L291.178 12.6179L291.178 12.6177L291.38 12.5549L291.381 12.5547L291.583 12.4925L291.583 12.4923L291.785 12.4305L291.786 12.4303L291.988 12.369L291.989 12.3688L292.191 12.3078L292.191 12.3077L292.394 12.2471L292.394 12.247L292.597 12.1867L292.597 12.1866L292.8 12.1266L292.8 12.1266L293.002 12.0669L293.003 12.0668L293.205 12.0073C293.4 11.9504 293.538 12.1743 293.515 12.5076C293.491 12.8408 293.315 13.1571 293.121 13.214L292.918 13.2734L292.918 13.2735L292.716 13.333L292.716 13.3331L292.514 13.3928L292.513 13.3929L292.312 13.453L292.311 13.4531L292.11 13.5135L292.109 13.5136L291.908 13.5743L291.907 13.5745L291.706 13.6356L291.705 13.6357L291.504 13.6972L291.504 13.6974L291.303 13.7593L291.302 13.7595L291.102 13.8219L291.101 13.8221L290.901 13.885L290.9 13.8852L290.7 13.9487L290.699 13.9489L290.499 14.0129L290.498 14.0131L290.299 14.0777L290.298 14.078L290.098 14.1432L290.098 14.1435L289.898 14.2094L289.898 14.2096L289.699 14.2762L289.698 14.2765L289.499 14.3438L289.498 14.3441L289.3 14.4121L289.299 14.4124L289.101 14.4812L289.1 14.4816L288.902 14.5512L288.901 14.5515L288.703 14.622L288.702 14.6224L288.505 14.6936L288.504 14.694L288.307 14.7662L288.306 14.7666L288.109 14.8397L288.108 14.8402L287.912 14.9142L287.911 14.9146L287.715 14.9897L287.713 14.9901L287.518 15.0661L287.517 15.0666L287.321 15.1437L287.32 15.1442L287.125 15.2223L287.124 15.2228L286.929 15.3019L286.928 15.3025L286.734 15.3828L286.733 15.3834L286.539 15.4647L286.537 15.4654L286.344 15.5479L286.343 15.5485L286.15 15.6323L286.148 15.6329L285.956 15.7179L285.954 15.7185L285.762 15.8047L285.761 15.8054L285.569 15.8928L285.567 15.8936L285.376 15.9822L285.374 15.983L285.184 16.073L285.182 16.0738L284.992 16.1651L284.99 16.166L284.8 16.2586L284.798 16.2595L284.609 16.3535L284.607 16.3544L284.418 16.4498L284.416 16.4507L284.228 16.5475L284.226 16.5485L284.038 16.6467L284.036 16.6477L283.848 16.7474L283.846 16.7485L283.659 16.8496L283.657 16.8507L283.47 16.9534L283.468 16.9545L283.282 17.0586L283.28 17.0598L283.095 17.1655L283.093 17.1667L282.907 17.2739L282.905 17.2752L282.721 17.384L282.719 17.3853L282.534 17.4957L282.532 17.497L282.349 17.609L282.346 17.6104L282.163 17.724L282.161 17.7254L281.979 17.8406L281.976 17.8421L281.794 17.959L281.792 17.9605L281.611 18.0791L281.608 18.0806L281.427 18.2009L281.425 18.2025L281.244 18.3244L281.242 18.3261L281.062 18.4498L281.06 18.4515L280.88 18.5769L280.878 18.5786L280.699 18.7058L280.697 18.7075L280.518 18.8365L280.516 18.8383L280.338 18.969L280.336 18.9709L280.159 19.1033L280.156 19.1053L279.979 19.2396L279.977 19.2416L279.801 19.3776L279.798 19.3797L279.623 19.5176L279.62 19.5197L279.445 19.6594L279.442 19.6616L279.268 19.8031L279.265 19.8053L279.092 19.9488L279.089 19.951L278.916 20.0963L278.913 20.0986L278.74 20.2458L278.738 20.2482L278.565 20.3973L278.563 20.3997L278.391 20.5507L278.388 20.5531L278.217 20.706L278.215 20.7085L278.044 20.8633L278.041 20.8658L277.872 21.0226L277.869 21.0252L277.699 21.1838L277.697 21.1865L277.528 21.3471L277.525 21.3498L277.357 21.5124L277.354 21.5151L277.186 21.6796L277.184 21.6824L277.017 21.8489L277.014 21.8517L276.847 22.0201L276.844 22.023L276.678 22.1934L276.676 22.1964L276.51 22.3688L276.507 22.3717L276.342 22.5461L276.34 22.5491L276.175 22.7255L276.172 22.7286L276.009 22.9069L276.006 22.91L275.842 23.0904L275.84 23.0935L275.677 23.2759L275.674 23.2791L275.511 23.4651L275.509 23.4666L275.348 23.653L275.345 23.6563L275.184 23.8447L275.181 23.8479L275.02 24.0384L275.018 24.0417L274.857 24.2341L274.855 24.2374L274.695 24.4319L274.692 24.4352L274.533 24.6317L274.531 24.6351L274.372 24.8336L274.37 24.837L274.212 25.0375L274.209 25.0409L274.051 25.2435L274.049 25.2469L273.892 25.4514L273.889 25.4549L273.733 25.6615L273.73 25.6649L273.574 25.8735L273.571 25.877L273.416 26.0876L273.413 26.0911L273.258 26.3037L273.256 26.3072L273.101 26.5219L273.099 26.5254L272.945 26.742L272.942 26.7455L272.789 26.9642L272.786 26.9677L272.633 27.1883L272.631 27.1918L272.478 27.4144L272.476 27.418L272.324 27.6426L272.321 27.6461L272.17 27.8727L272.167 27.8762L272.016 28.1047L272.014 28.1082L271.863 28.3387L271.861 28.3423L271.711 28.5747L271.708 28.5782L271.559 28.8126L271.556 28.8161L271.407 29.0525L271.405 29.056L271.256 29.2942L271.254 29.2977L271.105 29.5379L271.103 29.5413L270.955 29.7835L270.953 29.7869L270.805 30.0309L270.803 30.0343L270.656 30.2802L270.654 30.2836L270.507 30.5314L270.505 30.5347L270.359 30.7844L270.357 30.7877L270.211 31.0392L270.209 31.0425L270.064 31.2959L270.062 31.2991L269.916 31.5543L269.915 31.5575L269.77 31.8145L269.768 31.8177L269.624 32.0765L269.622 32.0797L269.478 32.3402L269.476 32.3434L269.333 32.6057L269.331 32.6088L269.188 32.8728L269.186 32.8759L269.043 33.1417L269.041 33.1447L268.899 33.4122L268.897 33.4152L268.755 33.6844L268.754 33.6874L268.612 33.9582L268.61 33.9611L268.469 34.2336L268.467 34.2365L268.326 34.5106L268.325 34.5135L268.184 34.7892L268.183 34.792L268.042 35.0694L268.041 35.0721L267.901 35.3511L267.899 35.3538L267.76 35.6342L267.758 35.6369L267.619 35.9189L267.618 35.9215L267.478 36.205L267.477 36.2076L267.338 36.4926L267.337 36.4951L267.199 36.7816L267.197 36.7841L267.059 37.072L267.058 37.0744L266.92 37.3637L266.919 37.3661L266.781 37.6568L266.78 37.6591L266.643 37.9512L266.642 37.9535L266.505 38.2469L266.503 38.2491L266.367 38.5438L266.366 38.546L266.229 38.842L266.228 38.8441L266.092 39.1414L266.091 39.1435L265.955 39.442L265.954 39.444L265.818 39.7437L265.817 39.7457L265.681 40.0466L265.68 40.0485L265.545 40.3506L265.544 40.3524L265.409 40.6556L265.408 40.6574L265.273 40.9617L265.272 40.9634L265.137 41.2688L265.137 41.2705L265.002 41.5769L265.001 41.5785L264.867 41.886L264.866 41.8875L264.732 42.1959L264.731 42.1975L264.597 42.5068L264.596 42.5083L264.462 42.8186L264.462 42.82L264.328 43.1312L264.328 43.1325L264.194 43.4446L264.193 43.4459L264.06 43.7588L264.059 43.76L263.926 44.0737L263.925 44.0749L263.792 44.3894L263.792 44.3905L263.659 44.7057L263.658 44.7068L263.525 45.0227L263.525 45.0237L263.392 45.3403L263.391 45.3413L263.259 45.6586L263.258 45.6595L263.125 45.9773L263.125 45.9782L262.992 46.2967L262.992 46.2975L262.86 46.6165L262.859 46.6172L262.727 46.9368L262.726 46.9374L262.594 47.2575L262.594 47.2581L262.461 47.5786L262.461 47.5792L262.329 47.9001L262.328 47.9006L262.196 48.2219L262.196 48.2224L262.064 48.5441L262.063 48.5444L261.931 48.8665L261.931 48.8668L261.799 49.1891L261.798 49.1894L261.666 49.512L261.666 49.5122L261.534 49.835L261.534 49.8352L261.401 50.1582L261.401 50.1583L261.269 50.4815L261.269 50.4815L261.136 50.8048L260.867 50.5577L261.136 50.8049L261.004 51.1282L261.004 51.1283L260.871 51.4516L260.871 51.4517L260.739 51.7749L260.739 51.7751L260.606 52.0982L260.606 52.0985L260.473 52.4214L260.473 52.4217L260.341 52.7445L260.34 52.7449L260.208 53.0675L260.208 53.0679L260.075 53.3902L260.075 53.3907L259.942 53.7128L259.942 53.7133L259.809 54.0351L259.808 54.0357L259.675 54.3571L259.675 54.3578L259.542 54.6788L259.542 54.6795L259.409 55.0002L259.408 55.001L259.275 55.3212L259.275 55.322L259.141 55.6418L259.141 55.6427L259.007 55.9619L259.007 55.9628L258.873 56.2816L258.873 56.2826L258.739 56.6007L258.739 56.6018L258.604 56.9194L258.604 56.9205L258.47 57.2375L258.469 57.2386L258.335 57.5549L258.334 57.5562L258.2 57.8718L258.199 57.8731L258.065 58.188L258.064 58.1893L257.929 58.5035L257.929 58.5049L257.793 58.8182L257.793 58.8197L257.657 59.1323L257.657 59.1338L257.521 59.4455L257.521 59.4471L257.385 59.7579L257.384 59.7596L257.248 60.0695L257.247 60.0712L257.111 60.3803L257.11 60.382L256.974 60.6901L256.973 60.6919L256.836 60.999L256.835 61.0008L256.698 61.3069L256.697 61.3088L256.56 61.6139L256.559 61.6158L256.422 61.9198L256.421 61.9218L256.283 62.2247L256.282 62.2268L256.144 62.5286L256.143 62.5307L256.004 62.8313L256.003 62.8335L255.864 63.1329L255.863 63.1351L255.724 63.4334L255.723 63.4356L255.584 63.7326L255.582 63.735L255.443 64.0307L255.441 64.0331L255.301 64.3275L255.3 64.3299L255.16 64.6231L255.158 64.6256L255.018 64.9174L255.016 64.9199L254.875 65.2104L254.874 65.2129L254.732 65.502L254.731 65.5046L254.589 65.7923L254.588 65.795L254.445 66.0812L254.444 66.0839L254.301 66.3687L254.3 66.3715L254.157 66.6548L254.155 66.6576L254.012 66.9394L254.01 66.9422L253.866 67.2225L253.865 67.2254L253.721 67.5041L253.719 67.507L253.574 67.7842L253.573 67.7872L253.428 68.0627L253.426 68.0657L253.28 68.3397L253.279 68.3428L253.133 68.6151L253.131 68.6182L252.985 68.8889L252.983 68.892L252.836 69.161L252.834 69.1642L252.687 69.4315L252.685 69.4347L252.537 69.7003L252.535 69.7035L252.387 69.9674L252.385 69.9707L252.237 70.2328L252.235 70.2361L252.085 70.4965L252.084 70.4998L251.934 70.7584L251.932 70.7618L251.782 71.0186L251.78 71.0219L251.629 71.2769L251.627 71.2803L251.476 71.5335L251.474 71.5369L251.322 71.7883L251.32 71.7917L251.168 72.0412L251.166 72.0446L251.013 72.2922L251.011 72.2957L250.858 72.5414L250.856 72.5449L250.702 72.7887L250.7 72.7922L250.546 73.0341L250.544 73.0376L250.389 73.2776L250.387 73.2811L250.232 73.5191L250.229 73.5227L250.074 73.7588L250.071 73.7623L249.915 73.9964L249.913 73.9999L249.756 74.2321L249.753 74.2356L249.596 74.4658L249.594 74.4694L249.436 74.6976L249.434 74.7011L249.275 74.9273L249.273 74.9308L249.114 75.155L249.111 75.1585L248.952 75.3807L248.949 75.3842L248.789 75.6044L248.787 75.6079L248.626 75.826L248.624 75.8295L248.463 76.0455L248.46 76.049L248.299 76.2631L248.296 76.2665L248.134 76.4785L248.131 76.4819L247.969 76.6919L247.966 76.6953L247.803 76.9032L247.8 76.9066L247.636 77.1124L247.634 77.1158L247.469 77.3195L247.467 77.3229L247.302 77.5246L247.299 77.5279L247.134 77.7275L247.131 77.7308L246.965 77.9283L246.962 77.9316L246.796 78.127L246.793 78.1303L246.626 78.3236L246.623 78.3268L246.455 78.5181L246.452 78.5213L246.284 78.7105L246.282 78.7136L246.113 78.9008L246.11 78.9039L245.941 79.0889L245.938 79.092L245.768 79.275L245.765 79.278L245.595 79.4589L245.592 79.4619L245.421 79.6407L245.418 79.6437L245.247 79.8204L245.244 79.8233L245.164 79.9049V78.6726L245.197 78.6384L245.2 78.6354L245.365 78.4625L245.368 78.4595L245.533 78.2846L245.535 78.2816L245.7 78.1047L245.702 78.1016L245.866 77.9227L245.869 77.9196L246.032 77.7387L246.035 77.7355L246.197 77.5526L246.199 77.5511L246.362 77.3645L246.365 77.3613L246.526 77.1744L246.529 77.1712L246.69 76.9822L246.693 76.9789L246.853 76.788L246.856 76.7847L247.016 76.5917L247.019 76.5884L247.178 76.3934L247.181 76.39L247.34 76.193L247.343 76.1896L247.501 75.9906L247.504 75.9872L247.661 75.7861L247.664 75.7827L247.821 75.5796L247.824 75.5762L247.981 75.3711L247.984 75.3676L248.14 75.1605L248.143 75.157L248.298 74.9479L248.301 74.9444L248.456 74.7333L248.459 74.7298L248.614 74.5166L248.616 74.5131L248.771 74.298L248.773 74.2944L248.927 74.0773L248.929 74.0737L249.083 73.8546L249.085 73.8511L249.238 73.6299L249.241 73.6264L249.393 73.4032L249.396 73.3997L249.548 73.1746L249.55 73.1711L249.701 72.944L249.704 72.9404L249.855 72.7114L249.857 72.7079L250.008 72.4768L250.01 72.4733L250.16 72.2403L250.162 72.2368L250.312 72.0019L250.314 71.9984L250.464 71.7615L250.466 71.7581L250.615 71.5193L250.617 71.5158L250.765 71.2751L250.767 71.2716L250.915 71.029L250.917 71.0256L251.065 70.7811L251.067 70.7777L251.214 70.5313L251.216 70.5279L251.363 70.2796L251.365 70.2763L251.511 70.0261L251.513 70.0228L251.659 69.7708L251.66 69.7675L251.806 69.5137L251.808 69.5104L251.953 69.2548L251.955 69.2515L252.099 68.9941L252.101 68.9909L252.245 68.7316L252.247 68.7285L252.391 68.4674L252.393 68.4643L252.536 68.2015L252.538 68.1984L252.681 67.9339L252.683 67.9309L252.826 67.6646L252.827 67.6616L252.97 67.3936L252.971 67.3906L253.113 67.121L253.115 67.1181L253.257 66.8468L253.258 66.8439L253.399 66.5709L253.401 66.568L253.542 66.2935L253.543 66.2906L253.684 66.0145L253.685 66.0117L253.826 65.7339L253.827 65.7312L253.967 65.4518L253.968 65.4491L254.108 65.1682L254.109 65.1656L254.249 64.8832L254.25 64.8806L254.389 64.5967L254.39 64.5941L254.529 64.3087L254.53 64.3062L254.669 64.0194L254.67 64.0169L254.808 63.7286L254.809 63.7262L254.947 63.4365L254.948 63.4342L255.086 63.1431L255.087 63.1408L255.224 62.8484L255.225 62.8461L255.363 62.5523L255.364 62.5501L255.5 62.255L255.501 62.2529L255.638 61.9565L255.639 61.9544L255.775 61.6568L255.776 61.6548L255.912 61.3559L255.913 61.3539L256.049 61.0539L256.05 61.0519L256.185 60.7507L256.186 60.7488L256.322 60.4464L256.322 60.4446L256.458 60.1411L256.458 60.1393L256.593 59.8348L256.594 59.833L256.729 59.5274L256.73 59.5257L256.864 59.219L256.865 59.2174L256.999 58.9097L257 58.9081L257.134 58.5995L257.135 58.598L257.269 58.2884L257.27 58.2869L257.404 57.9764L257.404 57.975L257.538 57.6636L257.538 57.6622L257.672 57.3499L257.673 57.3486L257.806 57.0355L257.807 57.0343L257.94 56.7204L257.94 56.7192L258.074 56.4046L258.074 56.4035L258.207 56.088L258.208 56.087L258.341 55.7709L258.341 55.7699L258.474 55.4531L258.474 55.4521L258.607 55.1347L258.608 55.1338L258.74 54.8158L258.741 54.8149L258.873 54.4963L258.874 54.4955L259.006 54.1764L259.006 54.1757L259.139 53.856L259.139 53.8553L259.272 53.5351L259.272 53.5345L259.404 53.2139L259.405 53.2134L259.537 52.8923L259.537 52.8919L259.67 52.5704L259.67 52.57L259.802 52.2482L259.802 52.2478L259.935 51.9257L259.935 51.9254L260.067 51.603L260.067 51.6028L260.199 51.2801L260.2 51.2799L260.332 50.957L260.332 50.9569L260.464 50.6338L260.464 50.6337L260.597 50.3105L260.729 49.9872L260.729 49.9871L260.862 49.6638L260.862 49.6637L260.994 49.3404L260.994 49.3403L261.127 49.0171L261.127 49.0169L261.26 48.6938L261.26 48.6935L261.392 48.3706L261.392 48.3703L261.525 48.0476L261.525 48.0472L261.658 47.7247L261.658 47.7242L261.791 47.402L261.791 47.4015L261.924 47.0795L261.924 47.0789L262.057 46.7572L262.057 46.7566L262.19 46.4353L262.191 46.4346L262.324 46.1137L262.324 46.1129L262.457 45.7924L262.458 45.7916L262.591 45.4715L262.591 45.4707L262.725 45.151L262.725 45.1501L262.859 44.831L262.859 44.8301L262.993 44.5115L262.993 44.5105L263.127 44.1924L263.128 44.1914L263.262 43.874L263.262 43.8728L263.396 43.556L263.397 43.5549L263.531 43.2387L263.532 43.2375L263.666 42.9221L263.667 42.9208L263.802 42.6061L263.802 42.6047L263.937 42.2908L263.938 42.2893L264.073 41.9762L264.074 41.9747L264.209 41.6623L264.21 41.6608L264.345 41.3493L264.346 41.3477L264.482 41.0371L264.483 41.0355L264.619 40.7257L264.619 40.724L264.756 40.4152L264.757 40.4135L264.893 40.1057L264.894 40.1039L265.031 39.797L265.032 39.7952L265.169 39.4893L265.17 39.4874L265.307 39.1826L265.308 39.1807L265.446 38.877L265.447 38.875L265.585 38.5724L265.585 38.5703L265.724 38.2688L265.725 38.2667L265.863 37.9664L265.864 37.9642L266.003 37.6651L266.004 37.6629L266.144 37.365L266.145 37.3627L266.284 37.066L266.285 37.0637L266.425 36.7683L266.426 36.7659L266.567 36.4718L266.568 36.4693L266.708 36.1765L266.71 36.1741L266.851 35.8826L266.852 35.8801L266.993 35.59L266.994 35.5874L267.136 35.2987L267.137 35.2961L267.279 35.0088L267.281 35.0061L267.423 34.7202L267.425 34.7175L267.567 34.4331L267.569 34.4304L267.712 34.1475L267.713 34.1446L267.857 33.8632L267.859 33.8604L268.003 33.5805L268.004 33.5776L268.149 33.2993L268.15 33.2964L268.295 33.0196L268.297 33.0167L268.442 32.7415L268.443 32.7385L268.589 32.465L268.591 32.4619L268.737 32.19L268.739 32.1869L268.885 31.9167L268.887 31.9135L269.034 31.645L269.036 31.6418L269.183 31.3749L269.185 31.3717L269.333 31.1066L269.335 31.1033L269.483 30.8399L269.485 30.8366L269.634 30.575L269.636 30.5717L269.785 30.3117L269.787 30.3084L269.937 30.0503L269.939 30.047L270.089 29.7906L270.091 29.7873L270.242 29.5327L270.244 29.5294L270.395 29.2766L270.397 29.2733L270.549 29.0224L270.551 29.019L270.703 28.77L270.706 28.7666L270.858 28.5194L270.86 28.516L271.014 28.2708L271.016 28.2673L271.17 28.024L271.172 28.0205L271.326 27.7791L271.328 27.7756L271.483 27.5361L271.485 27.5326L271.641 27.2951L271.643 27.2916L271.799 27.056L271.801 27.0525L271.958 26.8188L271.96 26.8153L272.117 26.5837L272.119 26.5801L272.277 26.3505L272.279 26.347L272.437 26.1193L272.44 26.1158L272.598 25.8901L272.601 25.8866L272.76 25.6629L272.762 25.6594L272.922 25.4378L272.924 25.4343L273.084 25.2146L273.087 25.2112L273.247 24.9936L273.25 24.9901L273.411 24.7745L273.414 24.7711L273.575 24.5576L273.578 24.5541L273.74 24.3427L273.743 24.3393L273.906 24.1299L273.908 24.1265L274.072 23.9191L274.075 23.9157L274.238 23.7105L274.241 23.7071L274.406 23.5039L274.408 23.5006L274.573 23.2994L274.576 23.2961L274.742 23.0971L274.744 23.0938L274.91 22.8968L274.913 22.8936L275.08 22.6987L275.083 22.6955ZM227.716 62.75H228.391H227.716Z" fill="#A3A3A3"/>
<line x1="179.664" y1="79" x2="292.664" y2="79" stroke="#A3A3A3"/>
<rect x="138.664" y="92" width="52" height="24" rx="4" fill="#0E0F13"/>
<rect x="139.164" y="92.5" width="51" height="23" rx="3.5" stroke="white" stroke-opacity="0.1"/>
<path d="M175.753 105.317L177.707 103.414H182.56L178.261 107.713L175.753 105.317Z" fill="#40D0FD"/>
<path d="M169.664 104.044L172.105 106.542L182.56 96H177.707L169.664 104.044Z" fill="#41D0FD"/>
<path d="M173.308 107.737L175.784 110.176L178.261 107.713L175.753 105.317L173.308 107.737Z" fill="#1FBCFD"/>
<path d="M175.784 110.176L178.261 107.713L182.5 112H177.619L175.784 110.176Z" fill="#095A9D"/>
<path d="M175.348 110.004L177.581 109.261L176.829 108.531L175.348 110.004Z" fill="#0E5199"/>
<path d="M161.664 104.111C161.664 102.985 160.36 102.037 158.286 101.444C158.82 99.3704 158.642 97.7704 157.694 97.1778C157.457 97.0593 157.22 97 156.923 97C156.034 97 154.849 97.6519 153.664 98.7778C152.479 97.6519 151.353 97 150.405 97C150.109 97 149.871 97.0593 149.634 97.1778C148.746 97.7704 148.568 99.3704 149.042 101.444C147.027 102.037 145.664 103.044 145.664 104.111C145.664 105.237 146.968 106.185 149.042 106.778C148.568 108.852 148.746 110.511 149.694 111.044C149.931 111.163 150.168 111.222 150.464 111.222C151.353 111.222 152.538 110.57 153.723 109.444C154.909 110.57 156.034 111.222 156.983 111.222C157.279 111.222 157.516 111.163 157.753 111.044C158.701 110.511 158.879 108.852 158.405 106.778C160.36 106.185 161.664 105.178 161.664 104.111ZM156.923 97.7704C157.101 97.7704 157.22 97.7704 157.279 97.8889C157.753 98.1259 157.931 99.0741 157.753 100.319C157.694 100.615 157.634 100.97 157.575 101.267C156.923 101.089 156.271 101.03 155.501 100.911C155.086 100.319 154.671 99.7852 154.197 99.3111C155.264 98.3037 156.271 97.7704 156.923 97.7704ZM155.857 105.356C155.62 105.77 155.383 106.185 155.086 106.541C154.612 106.6 154.138 106.6 153.664 106.6C153.19 106.6 152.716 106.6 152.242 106.541C152.005 106.185 151.768 105.77 151.471 105.356C151.234 104.941 150.997 104.526 150.82 104.111C150.997 103.696 151.234 103.281 151.471 102.867C151.709 102.452 152.005 102.037 152.242 101.622C152.716 101.563 153.19 101.563 153.664 101.563C154.138 101.563 154.612 101.563 155.086 101.622C155.323 101.978 155.62 102.393 155.857 102.867C156.094 103.281 156.331 103.696 156.509 104.111C156.331 104.526 156.094 104.941 155.857 105.356ZM156.923 105C157.101 105.415 157.22 105.83 157.338 106.185C156.923 106.304 156.509 106.363 156.094 106.422C156.212 106.185 156.39 105.948 156.509 105.711C156.686 105.533 156.805 105.237 156.923 105ZM153.664 108.378C153.368 108.081 153.071 107.726 152.834 107.37C153.131 107.37 153.427 107.37 153.664 107.37C153.96 107.37 154.257 107.37 154.494 107.37C154.257 107.726 153.96 108.081 153.664 108.378ZM151.234 106.481C150.82 106.422 150.405 106.363 149.99 106.244C150.109 105.83 150.286 105.415 150.405 105.059C150.523 105.296 150.642 105.533 150.82 105.77C150.997 106.007 151.116 106.244 151.234 106.481ZM150.405 103.222C150.227 102.807 150.109 102.393 149.931 101.978C150.346 101.859 150.76 101.8 151.234 101.741C151.057 101.978 150.938 102.215 150.76 102.452C150.701 102.748 150.583 102.985 150.405 103.222ZM153.664 99.8444C153.96 100.141 154.197 100.496 154.494 100.793C154.197 100.793 153.96 100.793 153.664 100.793C153.368 100.793 153.131 100.793 152.834 100.793C153.131 100.496 153.427 100.141 153.664 99.8444ZM156.509 102.452C156.331 102.215 156.212 101.978 156.034 101.741C156.509 101.8 156.923 101.859 157.338 101.978C157.22 102.393 157.042 102.807 156.864 103.222C156.805 102.985 156.686 102.748 156.509 102.452ZM149.634 100.259C149.457 99.0148 149.634 98.1259 150.109 97.8296C150.227 97.7704 150.346 97.7111 150.464 97.7111C151.116 97.7111 152.064 98.2444 153.131 99.2519C152.716 99.7259 152.242 100.259 151.827 100.852C151.116 100.911 150.405 101.03 149.753 101.207C149.694 100.911 149.634 100.556 149.634 100.259ZM148.331 105.711C147.205 105.237 146.434 104.585 146.434 104.111C146.434 103.578 147.146 102.985 148.271 102.511C148.568 102.393 148.864 102.274 149.22 102.215C149.397 102.867 149.634 103.519 149.99 104.17C149.694 104.822 149.457 105.474 149.279 106.067C148.923 105.948 148.627 105.83 148.331 105.711ZM150.049 110.393C149.575 110.156 149.397 109.207 149.575 107.963C149.634 107.667 149.694 107.311 149.753 106.956C150.405 107.074 151.057 107.193 151.768 107.252C152.183 107.844 152.657 108.378 153.071 108.852C152.005 109.859 151.057 110.393 150.405 110.393C150.286 110.452 150.168 110.393 150.049 110.393ZM157.753 107.963C157.931 109.207 157.753 110.096 157.279 110.393C157.16 110.452 157.042 110.511 156.923 110.511C156.271 110.511 155.323 109.978 154.257 108.97C154.731 108.496 155.146 107.963 155.56 107.37C156.271 107.311 156.983 107.193 157.575 107.074C157.634 107.311 157.694 107.607 157.753 107.963ZM159.057 105.711C158.76 105.83 158.464 105.948 158.109 106.007C157.931 105.415 157.694 104.763 157.397 104.111C157.694 103.459 157.931 102.807 158.168 102.156C158.464 102.274 158.82 102.333 159.116 102.452C160.242 102.926 160.953 103.519 160.953 104.052C160.894 104.585 160.183 105.237 159.057 105.711Z" fill="#53C1DE"/>
<path d="M153.797 105.273C154.427 105.273 154.922 104.778 154.922 104.148C154.922 103.518 154.427 103.023 153.797 103.023C153.167 103.023 152.672 103.518 152.672 104.148C152.672 104.778 153.167 105.273 153.797 105.273Z" fill="#53C1DE"/>
<path d="M306.918 152.276H308.578V145.18H306.918M307.748 144.252C307.868 144.255 307.987 144.233 308.099 144.189C308.21 144.145 308.312 144.078 308.397 143.994C308.483 143.909 308.551 143.808 308.598 143.697C308.644 143.585 308.668 143.466 308.668 143.345C308.668 142.841 308.268 142.438 307.748 142.438C307.628 142.435 307.509 142.457 307.398 142.501C307.286 142.545 307.184 142.612 307.099 142.696C307.013 142.781 306.945 142.882 306.898 142.993C306.852 143.104 306.828 143.224 306.828 143.345C306.828 143.849 307.228 144.252 307.748 144.252ZM314.078 142.458C311.288 142.458 309.528 144.373 309.528 147.438C309.528 150.522 311.288 152.437 314.078 152.437C316.868 152.437 318.628 150.522 318.628 147.438C318.628 144.373 316.868 142.458 314.078 142.458ZM314.078 143.909C315.788 143.909 316.878 145.29 316.878 147.438C316.878 149.605 315.788 150.966 314.078 150.966C312.368 150.966 311.288 149.605 311.288 147.438C311.288 145.29 312.368 143.909 314.078 143.909ZM319.328 149.565C319.398 151.339 320.828 152.437 323.048 152.437C325.368 152.437 326.828 151.288 326.828 149.454C326.828 148.012 326.008 147.206 324.058 146.752L322.958 146.5C321.778 146.218 321.298 145.845 321.298 145.2C321.298 144.413 322.028 143.859 323.108 143.859C324.208 143.859 324.958 144.413 325.038 145.311H326.668C326.628 143.607 325.238 142.458 323.118 142.458C321.038 142.458 319.558 143.617 319.558 145.331C319.558 146.712 320.388 147.569 322.158 147.972L323.398 148.264C324.608 148.556 325.098 148.95 325.098 149.655C325.098 150.462 324.298 151.036 323.138 151.036C321.978 151.036 321.088 150.462 320.988 149.565H319.328Z" fill="white"/>
<path fillRule="evenodd" clipRule="evenodd" d="M319.289 5.94551C319.289 6.29098 319.009 6.57066 318.664 6.57066C318.318 6.57066 318.039 6.29098 318.039 5.94551C318.039 5.60004 318.318 5.32051 318.664 5.32051C319.009 5.32051 319.289 5.60004 319.289 5.94551ZM315.538 5.94551C315.538 6.29098 315.259 6.57066 314.913 6.57066C314.569 6.57066 314.289 6.29098 314.289 5.94551C314.289 5.60004 314.569 5.32051 314.913 5.32051C315.259 5.32051 315.538 5.60004 315.538 5.94551ZM324.365 14.771L324.364 14.7704C324.25 14.8839 324.094 14.9547 323.92 14.9547C323.573 14.9547 323.292 14.6737 323.292 14.3267C323.292 14.1412 323.375 13.9758 323.504 13.8607C323.602 13.7499 323.664 13.6056 323.664 13.446V9.69519C323.664 9.3505 323.384 9.07019 323.039 9.07019C322.694 9.07019 322.414 9.3505 322.414 9.69519V15.3203C322.414 16.1376 322.02 16.8599 321.414 17.3162C321.412 17.3183 321.41 17.3232 321.407 17.3253C321.26 17.4395 321.163 17.6189 321.163 17.8206V19.6959C321.163 20.7308 320.324 21.5703 319.289 21.5703C318.253 21.5703 317.414 20.7308 317.414 19.6959V18.2894C317.414 18.0303 317.204 17.8206 316.945 17.8206H316.633C316.374 17.8206 316.164 18.0303 316.164 18.2894V19.6959C316.164 20.7308 315.324 21.5703 314.289 21.5703C313.253 21.5703 312.414 20.7308 312.414 19.6959V17.8206C312.414 17.6189 312.319 17.4395 312.17 17.3253C312.167 17.3232 312.166 17.3183 312.164 17.3162C311.557 16.8599 311.164 16.1376 311.164 15.3203V15.2062C310.967 15.2764 310.758 15.3203 310.539 15.3203C309.504 15.3203 308.664 14.4808 308.664 13.446V9.69519C308.664 8.70367 309.438 7.9 310.412 7.83332C310.454 7.82487 310.496 7.82068 310.539 7.82082H319.289C319.979 7.82082 320.539 7.26082 320.539 6.57066C320.539 6.305 320.454 6.06043 320.314 5.85867C319.517 4.77532 318.237 4.07036 316.789 4.07036C315.06 4.07036 313.567 5.07379 312.857 6.5293L312.855 6.52851C312.753 6.73742 312.54 6.88312 312.292 6.88312C311.944 6.88312 311.662 6.6007 311.662 6.25309C311.662 6.09898 311.719 5.95949 311.811 5.85027C312.273 4.96586 312.959 4.21905 313.802 3.68551L313.122 2.50829C312.95 2.20907 313.052 1.82712 313.351 1.65411C313.65 1.48169 314.032 1.58392 314.205 1.88314L314.93 3.13891C315.512 2.9343 316.136 2.82075 316.789 2.82075C317.44 2.82075 318.064 2.93778 318.646 3.1418L319.372 1.8831C319.545 1.58388 319.927 1.48165 320.227 1.65407C320.525 1.82712 320.627 2.20903 320.455 2.50825L319.773 3.68899C320.373 4.06817 320.901 4.55094 321.32 5.12211C321.612 5.53211 321.789 6.02953 321.789 6.57062C321.789 7.95109 320.669 9.07015 319.289 9.07015H310.539C310.194 9.07015 309.913 9.35046 309.913 9.69515V13.4459C309.913 13.7905 310.194 14.0709 310.539 14.0709C310.884 14.0709 311.164 13.7905 311.164 13.4459V10.9455C311.164 10.6006 311.443 10.3203 311.789 10.3203C312.134 10.3203 312.414 10.6006 312.414 10.9455V15.3203C312.414 15.7884 312.674 16.1913 313.054 16.4058C313.42 16.6252 313.664 17.0226 313.664 17.4788V19.6959C313.664 20.0407 313.944 20.3203 314.289 20.3203C314.634 20.3203 314.913 20.0407 314.913 19.6959V18.1331C314.913 17.2697 315.614 16.5706 316.476 16.5706H317.101C317.965 16.5706 318.664 17.2697 318.664 18.1331V19.6959C318.664 20.0407 318.944 20.3203 319.289 20.3203C319.634 20.3203 319.914 20.0407 319.914 19.6959V17.4788C319.914 17.0226 320.157 16.6252 320.524 16.4058C320.903 16.1913 321.163 15.7884 321.163 15.3203V9.69515C321.163 8.66015 322.003 7.82078 323.039 7.82078C324.075 7.82078 324.914 8.66019 324.914 9.69519V13.446C324.914 13.9638 324.704 14.432 324.365 14.771Z" fill="white"/>
</svg>
