<svg width="25" height="24" viewBox="0 0 25 24" fill="none" xmlns="http://www.w3.org/2000/svg">
<g clipPath="url(#clip0_10695_24330)">
<path d="M7.07932 9.11462L3.61619 12.0002L7.07932 14.8859C7.19417 14.98 7.28925 15.0959 7.35908 15.227C7.42891 15.358 7.4721 15.5016 7.48617 15.6494C7.50024 15.7973 7.4849 15.9464 7.44104 16.0883C7.39718 16.2301 7.32567 16.3619 7.23063 16.476C7.13559 16.5901 7.01891 16.6843 6.8873 16.753C6.75569 16.8218 6.61178 16.8639 6.46384 16.8768C6.31591 16.8896 6.16689 16.8731 6.02537 16.8281C5.88386 16.7831 5.75265 16.7106 5.63932 16.6146L1.13932 12.8646C1.01258 12.759 0.910608 12.6269 0.840629 12.4775C0.77065 12.3281 0.734375 12.1652 0.734375 12.0002C0.734375 11.8353 0.77065 11.6724 0.840629 11.523C0.910608 11.3736 1.01258 11.2414 1.13932 11.1359L5.63932 7.38587C5.86889 7.19773 6.1635 7.10794 6.45898 7.13606C6.75446 7.16417 7.02685 7.30792 7.21681 7.53597C7.40678 7.76403 7.49892 8.05792 7.47317 8.35361C7.44741 8.6493 7.30585 8.92284 7.07932 9.11462ZM23.5793 11.1359L19.0793 7.38587C18.966 7.28992 18.8348 7.21736 18.6933 7.17237C18.5518 7.12738 18.4027 7.11085 18.2548 7.12373C18.1069 7.13662 17.9629 7.17866 17.8313 7.24744C17.6997 7.31622 17.583 7.41037 17.488 7.52447C17.393 7.63856 17.3215 7.77034 17.2776 7.91221C17.2337 8.05408 17.2184 8.20323 17.2325 8.35106C17.2465 8.49888 17.2897 8.64246 17.3596 8.77351C17.4294 8.90456 17.5245 9.02049 17.6393 9.11462L21.1024 12.0002L17.6393 14.8859C17.5245 14.98 17.4294 15.0959 17.3596 15.227C17.2897 15.358 17.2465 15.5016 17.2325 15.6494C17.2184 15.7973 17.2337 15.9464 17.2776 16.0883C17.3215 16.2301 17.393 16.3619 17.488 16.476C17.583 16.5901 17.6997 16.6843 17.8313 16.753C17.9629 16.8218 18.1069 16.8639 18.2548 16.8768C18.4027 16.8896 18.5518 16.8731 18.6933 16.8281C18.8348 16.7831 18.966 16.7106 19.0793 16.6146L23.5793 12.8646C23.7061 12.759 23.808 12.6269 23.878 12.4775C23.948 12.3281 23.9843 12.1652 23.9843 12.0002C23.9843 11.8353 23.948 11.6724 23.878 11.523C23.808 11.3736 23.7061 11.2414 23.5793 11.1359ZM15.7437 2.69274C15.6048 2.64224 15.4574 2.61959 15.3097 2.62609C15.1621 2.63259 15.0172 2.6681 14.8833 2.73061C14.7494 2.79312 14.6291 2.88139 14.5294 2.99039C14.4296 3.09939 14.3523 3.22698 14.3018 3.36587L8.30182 19.8659C8.20012 20.1462 8.21389 20.4555 8.34011 20.7257C8.46633 20.9959 8.69467 21.2049 8.97494 21.3068C9.09799 21.3522 9.22815 21.3754 9.35932 21.3752C9.5903 21.3753 9.81569 21.3042 10.0049 21.1717C10.1941 21.0392 10.3379 20.8517 10.4168 20.6346L16.4168 4.13462C16.4673 3.99575 16.49 3.84829 16.4835 3.70066C16.477 3.55303 16.4415 3.40813 16.379 3.27424C16.3164 3.14034 16.2282 3.02007 16.1192 2.9203C16.0102 2.82052 15.8826 2.7432 15.7437 2.69274Z" fill="white"/>
</g>
<defs>
<clipPath id="clip0_10695_24330">
<rect width="24" height="24" fill="white" transform="translate(0.164062)"/>
</clipPath>
</defs>
</svg>
