<svg width="24" height="24" viewBox="0 0 24 24" fill="none" xmlns="http://www.w3.org/2000/svg">
<path d="M22 7.45455V2H16.5455V3.81818H7.45455V2H2V7.45455H3.81818V16.5455H2V22H7.45455V20.1818H16.5455V22H22V16.5455H20.1818V7.45455H22ZM3.81818 3.81818H5.63636V5.63636H3.81818V3.81818ZM5.63636 20.1818H3.81818V18.3636H5.63636V20.1818ZM16.5455 18.3636H7.45455V16.5455H5.63636V7.45455H7.45455V5.63636H16.5455V7.45455H18.3636V16.5455H16.5455V18.3636ZM20.1818 20.1818H18.3636V18.3636H20.1818V20.1818ZM18.3636 5.63636V3.81818H20.1818V5.63636H18.3636ZM13.5727 13.8182H10.4L9.73636 15.6364H8.26364L11.3545 7.45455H12.6273L15.7273 15.6364H14.2455L13.5727 13.8182ZM10.8091 12.6727H13.1818L12 9.19091L10.8091 12.6727Z" fill="#FAFAFA"/>
</svg>
