<svg width="384" height="140" viewBox="0 0 384 140" fill="none" xmlns="http://www.w3.org/2000/svg">
<rect width="384" height="139.999" rx="11.2454" fill="#111213" fill-opacity="0.4"/>
<rect x="25.5" y="54" width="32" height="32" rx="4" fill="white" fill-opacity="0.2"/>
<path fillRule="evenodd" clipRule="evenodd" d="M41.2955 60C38.2621 60 35.803 62.4591 35.803 65.4925C35.803 67.9968 37.4792 70.1097 39.7708 70.7706C37.9617 70.991 36.41 71.6309 35.241 72.7829C33.7532 74.2492 33 76.4319 33 79.2803C33 79.6779 33.3222 80 33.7197 80C34.1172 80 34.4394 79.6779 34.4394 79.2803C34.4394 76.6742 35.1255 74.9177 36.2514 73.8081C37.3793 72.6965 39.0633 72.1213 41.2954 72.1213C43.5276 72.1213 45.2116 72.6965 46.3396 73.8082C47.4654 74.9177 48.1516 76.6742 48.1516 79.2803C48.1516 79.6779 48.4737 80 48.8713 80C49.2687 80.0002 49.591 79.6779 49.591 79.2805C49.591 76.4319 48.8377 74.2492 47.3499 72.7829C46.181 71.6309 44.6292 70.991 42.8201 70.7706C45.1117 70.1098 46.788 67.9969 46.788 65.4925C46.788 62.4591 44.3289 60 41.2955 60ZM37.2424 65.4925C37.2424 63.254 39.057 61.4394 41.2955 61.4394C43.5339 61.4394 45.3486 63.254 45.3486 65.4925C45.3486 67.7309 43.5339 69.5455 41.2955 69.5455C39.057 69.5455 37.2424 67.7309 37.2424 65.4925Z" fill="#FAFAFA"/>
<line x1="61.5" y1="70.3945" x2="179.5" y2="70.3945" stroke="#A3A3A3"/>
<path d="M92.5 65.8945L96.5 70.3945L92.5 74.8945" stroke="#A3A3A3" strokeLinejoin="round"/>
<path fillRule="evenodd" clipRule="evenodd" d="M160.412 42.2859L160.58 42.1924L160.583 42.191L160.751 42.0984L160.754 42.097L160.923 42.0055L160.925 42.0041L161.095 41.9136L161.097 41.9121L161.268 41.8226L161.27 41.8213L161.441 41.7328L161.443 41.7314L161.615 41.6439L161.617 41.6426L161.789 41.5561L161.792 41.5548L161.964 41.4693L161.966 41.468L162.139 41.3835L162.142 41.3822L162.315 41.2987L162.318 41.2974L162.492 41.2149L162.494 41.2137L162.669 41.1322L162.671 41.131L162.846 41.0505L162.849 41.0493L163.025 40.9698L163.027 40.9686L163.203 40.89L163.206 40.8889L163.383 40.8113L163.385 40.8102L163.562 40.7336L163.565 40.7325L163.743 40.6569L163.745 40.6558L163.923 40.5812L163.926 40.5801L164.105 40.5064L164.107 40.5054L164.287 40.4327L164.289 40.4316L164.469 40.3599L164.472 40.3589L164.652 40.2881L164.655 40.2871L164.835 40.2172L164.838 40.2162L165.019 40.1473L165.022 40.1464L165.204 40.0784L165.206 40.0775L165.389 40.0104L165.391 40.0095L165.574 39.9434L165.577 39.9425L165.76 39.8773L165.762 39.8764L165.946 39.8121L165.949 39.8113L166.133 39.7479L166.136 39.747L166.32 39.6845L166.323 39.6837L166.508 39.6221L166.511 39.6213L166.697 39.5606L166.699 39.5598L166.885 39.4999L166.888 39.4992L167.074 39.4402L167.077 39.4395L167.264 39.3813L167.266 39.3806L167.454 39.3233L167.456 39.3226L167.645 39.2661L167.647 39.2655L167.835 39.2098L167.838 39.2092L168.027 39.1544L168.029 39.1537L168.219 39.0997L168.221 39.0991L168.411 39.0459L168.413 39.0453L168.603 38.9929L168.605 38.9923L168.796 38.9407L168.798 38.9401L168.99 38.8892L168.992 38.8887L169.183 38.8386L169.185 38.8381L169.378 38.7887L169.38 38.7882L169.572 38.7396L169.574 38.7391L169.767 38.6912L169.769 38.6907L169.962 38.6436L169.964 38.6431L170.158 38.5966L170.16 38.5962L170.354 38.5504L170.356 38.55L170.55 38.5049L170.552 38.5045L170.747 38.4601L170.748 38.4597L170.944 38.4159L170.945 38.4155L171.141 38.3724L171.143 38.372L171.339 38.3296L171.34 38.3292L171.536 38.2873L171.538 38.287L171.735 38.2458L171.736 38.2454L171.933 38.2048L171.935 38.2045L172.132 38.1644L172.133 38.1641L172.331 38.1246L172.332 38.1243L172.53 38.0854L172.532 38.0851L172.73 38.0467L172.731 38.0464L172.93 38.0086L172.931 38.0083L173.13 37.971L173.131 37.9707L173.33 37.9339L173.332 37.9337L173.531 37.8973L173.532 37.8971L173.732 37.8612L173.733 37.861L173.933 37.8256L173.934 37.8254L174.134 37.7904L174.135 37.7902L174.335 37.7557L174.336 37.7555L174.537 37.7214L174.538 37.7213L174.739 37.6876L174.74 37.6874L174.941 37.6541L174.942 37.6539L175.143 37.621L175.144 37.6208L175.345 37.5883L175.346 37.5881L175.548 37.5559L175.548 37.5558L175.75 37.5239L175.751 37.5238L175.953 37.4922L175.954 37.4921L176.156 37.4608L176.157 37.4607L176.359 37.4297L176.359 37.4296L176.562 37.3989L176.563 37.3988L176.765 37.3684L176.766 37.3683L176.968 37.338L176.969 37.338L177.172 37.308L177.172 37.3079L177.375 37.2781L177.376 37.2781L177.579 37.2485L177.579 37.2484L177.782 37.219L177.783 37.2189L177.986 37.1897L177.986 37.1896L178.19 37.1606L178.19 37.1605L178.393 37.1316L178.394 37.1315L178.597 37.1027C178.87 37.0639 179.123 37.2541 179.162 37.5275C179.201 37.8009 179.011 38.054 178.737 38.0928L178.534 38.1216L178.534 38.1216L178.331 38.1505L178.331 38.1505L178.128 38.1795L178.128 38.1796L177.926 38.2087L177.925 38.2087L177.723 38.238L177.722 38.2381L177.52 38.2675L177.52 38.2676L177.318 38.2972L177.317 38.2973L177.116 38.3271L177.115 38.3272L176.914 38.3572L176.913 38.3573L176.712 38.3876L176.711 38.3877L176.51 38.4182L176.509 38.4183L176.309 38.4491L176.308 38.4492L176.107 38.4802L176.107 38.4803L175.906 38.5116L175.905 38.5118L175.705 38.5434L175.705 38.5435L175.505 38.5755L175.504 38.5756L175.304 38.6079L175.303 38.608L175.104 38.6406L175.103 38.6408L174.904 38.6738L174.903 38.6739L174.705 38.7073L174.703 38.7075L174.505 38.7412L174.504 38.7414L174.306 38.7755L174.305 38.7757L174.107 38.8103L174.106 38.8105L173.909 38.8455L173.907 38.8457L173.71 38.8811L173.709 38.8813L173.512 38.9172L173.511 38.9174L173.315 38.9538L173.313 38.954L173.117 38.9909L173.116 38.9911L172.92 39.0284L172.919 39.0287L172.723 39.0666L172.722 39.0668L172.527 39.1052L172.526 39.1055L172.331 39.1444L172.329 39.1447L172.135 39.1841L172.134 39.1844L171.94 39.2244L171.938 39.2248L171.745 39.2654L171.743 39.2657L171.55 39.3068L171.549 39.3072L171.356 39.349L171.355 39.3493L171.162 39.3917L171.161 39.3921L170.969 39.435L170.967 39.4354L170.776 39.4791L170.774 39.4795L170.583 39.5237L170.581 39.5241L170.391 39.569L170.389 39.5695L170.199 39.6151L170.197 39.6155L170.008 39.6618L170.006 39.6622L169.817 39.7092L169.815 39.7096L169.626 39.7573L169.624 39.7578L169.436 39.8061L169.434 39.8066L169.247 39.8557L169.245 39.8562L169.057 39.906L169.055 39.9065L168.869 39.957L168.867 39.9576L168.68 40.0089L168.678 40.0095L168.493 40.0615L168.49 40.0621L168.305 40.1148L168.303 40.1155L168.118 40.169L168.116 40.1696L167.932 40.224L167.93 40.2246L167.746 40.2797L167.744 40.2804L167.561 40.3363L167.558 40.337L167.376 40.3938L167.373 40.3945L167.191 40.452L167.189 40.4528L167.007 40.5111L167.005 40.5119L166.824 40.5711L166.821 40.5719L166.641 40.6319L166.638 40.6327L166.458 40.6935L166.456 40.6944L166.276 40.7561L166.274 40.7569L166.095 40.8195L166.092 40.8204L165.914 40.8838L165.912 40.8847L165.734 40.949L165.731 40.9499L165.554 41.0151L165.551 41.0161L165.374 41.0821L165.372 41.0831L165.196 41.1501L165.193 41.151L165.017 41.2189L165.015 41.2199L164.84 41.2887L164.837 41.2897L164.662 41.3594L164.66 41.3604L164.486 41.431L164.483 41.4321L164.31 41.5036L164.307 41.5046L164.134 41.5771L164.132 41.5782L163.959 41.6515L163.956 41.6527L163.785 41.7269L163.782 41.7281L163.611 41.8033L163.608 41.8045L163.437 41.8806L163.435 41.8818L163.264 41.9589L163.262 41.9602L163.092 42.0382L163.089 42.0394L162.92 42.1184L162.918 42.1197L162.749 42.1997L162.746 42.2009L162.578 42.2818L162.576 42.2831L162.408 42.365L162.406 42.3663L162.239 42.4492L162.236 42.4505L162.07 42.5343L162.067 42.5356L161.901 42.6204L161.899 42.6218L161.733 42.7075L161.731 42.7089L161.566 42.7956L161.563 42.797L161.399 42.8847L161.397 42.8861L161.233 42.9748L161.23 42.9762L161.066 43.0666L161.065 43.0673L160.902 43.1579L160.899 43.1594L160.737 43.251L160.735 43.2525L160.573 43.345L160.571 43.3465L160.41 43.4401L160.407 43.4416L160.247 43.5361L160.244 43.5377L160.084 43.6332L160.082 43.6347L159.922 43.7312L159.92 43.7327L159.761 43.8302L159.758 43.8318L159.6 43.9302L159.597 43.9318L159.44 44.0312L159.437 44.0328L159.28 44.1332L159.277 44.1348L159.121 44.2361L159.118 44.2377L158.962 44.3401L158.959 44.3417L158.804 44.445L158.801 44.4466L158.646 44.5509L158.644 44.5525L158.489 44.6578L158.486 44.6594L158.332 44.7656L158.33 44.7672L158.176 44.8744L158.174 44.876L158.02 44.9842L158.018 44.9858L157.865 45.0949L157.863 45.0965L157.71 45.2066L157.708 45.2082L157.556 45.3192L157.554 45.3209L157.403 45.4328L157.4 45.4345L157.249 45.5473L157.247 45.549L157.097 45.6628L157.095 45.6644L156.945 45.7792L156.943 45.7808L156.793 45.8965L156.791 45.8982L156.642 46.0148L156.64 46.0164L156.491 46.1339L156.489 46.1355L156.341 46.254L156.339 46.2556L156.191 46.3749L156.189 46.3766L156.041 46.4968L156.04 46.4984L155.893 46.6196L155.891 46.6211L155.744 46.7432L155.742 46.7448L155.596 46.8677L155.594 46.8693L155.449 46.9931L155.447 46.9946L155.301 47.1193L155.3 47.1208L155.155 47.2464L155.153 47.2479L155.008 47.3743L155.007 47.3758L154.863 47.503L154.861 47.5046L154.717 47.6326L154.716 47.6341L154.572 47.763L154.571 47.7645L154.428 47.8942L154.426 47.8957L154.283 48.0262L154.282 48.0277L154.14 48.159L154.138 48.1605L153.996 48.2926L153.995 48.294L153.853 48.4269L153.852 48.4284L153.71 48.562L153.709 48.5634L153.568 48.6979L153.567 48.6993L153.426 48.8345L153.425 48.8358L153.285 48.9718L153.283 48.9731L153.143 49.1098L153.142 49.1112L153.003 49.2486L153.001 49.2499L152.862 49.388L152.861 49.3893L152.722 49.5281L152.721 49.5294L152.582 49.6689L152.581 49.6702L152.442 49.8104L152.441 49.8116L152.303 49.9525L152.302 49.9537L152.164 50.0952L152.163 50.0964L152.026 50.2386L152.025 50.2397L151.887 50.3826L151.886 50.3837L151.749 50.5271L151.748 50.5282L151.612 50.6723L151.611 50.6734L151.474 50.818L151.473 50.8191L151.337 50.9643L151.336 50.9653L151.2 51.1112L151.199 51.1122L151.063 51.2585L151.062 51.2595L150.927 51.4064L150.926 51.4074L150.791 51.5549L150.79 51.5558L150.655 51.7038L150.654 51.7046L150.519 51.8531L150.518 51.854L150.383 52.003L150.382 52.0038L150.248 52.1533L150.247 52.1541L150.113 52.304L150.112 52.3048L149.978 52.4552L149.977 52.4559L149.843 52.6068L149.842 52.6075L149.708 52.7587L149.708 52.7594L149.574 52.9111L149.573 52.9117L149.439 53.0638L149.439 53.0644L149.305 53.2168L149.305 53.2174L149.171 53.3702L149.171 53.3708L149.037 53.5239L149.037 53.5245L148.904 53.678L148.903 53.6785L148.77 53.8323L148.77 53.8328L148.636 53.9869L148.636 53.9873L148.503 54.1417L148.503 54.1421L148.37 54.2968L148.369 54.2972L148.236 54.4521L148.236 54.4525L148.103 54.6077L148.103 54.608L147.97 54.7634L147.97 54.7637L147.837 54.9193L147.837 54.9196L147.704 55.0754L147.704 55.0757L147.571 55.2317L147.571 55.2319L147.438 55.388L147.438 55.3882L147.305 55.5445L147.305 55.5447L147.172 55.7011L147.172 55.7013L147.039 55.8578L147.039 55.8579L146.907 56.0146L146.906 56.0146L146.774 56.1714L146.641 56.3283L146.259 56.005L146.641 56.3283L146.508 56.4851L146.508 56.4852L146.375 56.642L146.375 56.642L146.242 56.7988L146.242 56.7989L146.109 56.9557L146.109 56.9558L145.975 57.1125L145.975 57.1126L145.842 57.2692L145.842 57.2694L145.709 57.4259L145.709 57.4261L145.576 57.5825L145.575 57.5827L145.442 57.739L145.442 57.7393L145.308 57.8953L145.308 57.8957L145.175 58.0516L145.174 58.0519L145.041 58.2077L145.041 58.2081L144.907 58.3636L144.907 58.364L144.773 58.5193L144.772 58.5198L144.639 58.6749L144.638 58.6754L144.504 58.8302L144.504 58.8307L144.369 58.9854L144.369 58.9859L144.235 59.1402L144.234 59.1408L144.1 59.2949L144.099 59.2954L143.965 59.4492L143.964 59.4498L143.829 59.6033L143.829 59.6039L143.694 59.757L143.693 59.7577L143.558 59.9104L143.557 59.9112L143.422 60.0636L143.421 60.0643L143.286 60.2163L143.285 60.2171L143.149 60.3687L143.148 60.3695L143.012 60.5207L143.012 60.5216L142.875 60.6723L142.875 60.6732L142.738 60.8236L142.737 60.8244L142.601 60.9744L142.6 60.9753L142.463 61.1247L142.462 61.1257L142.325 61.2746L142.324 61.2756L142.186 61.4241L142.185 61.4251L142.047 61.5731L142.046 61.5741L141.908 61.7215L141.907 61.7226L141.769 61.8695L141.768 61.8706L141.629 62.017L141.628 62.018L141.489 62.1639L141.488 62.165L141.349 62.3102L141.348 62.3114L141.208 62.4561L141.207 62.4572L141.067 62.6013L141.066 62.6025L140.926 62.7459L140.924 62.7472L140.784 62.89L140.782 62.8912L140.642 63.0334L140.64 63.0347L140.499 63.1762L140.498 63.1775L140.356 63.3184L140.355 63.3197L140.213 63.4599L140.211 63.4613L140.069 63.6008L140.067 63.6021L139.925 63.741L139.923 63.7424L139.78 63.8805L139.778 63.8819L139.635 64.0193L139.633 64.0207L139.489 64.1574L139.488 64.1588L139.343 64.2948L139.342 64.2962L139.197 64.4314L139.195 64.4329L139.05 64.5673L139.049 64.5688L138.903 64.7024L138.901 64.7039L138.755 64.8368L138.754 64.8383L138.607 64.9704L138.605 64.9719L138.458 65.1032L138.457 65.1048L138.309 65.2353L138.307 65.2368L138.16 65.3665L138.158 65.368L138.009 65.4969L138.008 65.4984L137.859 65.6264L137.857 65.628L137.708 65.7552L137.706 65.7567L137.556 65.8831L137.554 65.8846L137.404 66.0101L137.402 66.0117L137.251 66.1363L137.249 66.1379L137.098 66.2616L137.096 66.2632L136.945 66.386L136.943 66.3876L136.79 66.5095L136.788 66.5112L136.636 66.6322L136.634 66.6338L136.481 66.7539L136.478 66.7555L136.325 66.8747L136.323 66.8764L136.168 66.9946L136.166 66.9963L136.012 67.1136L136.009 67.1153L135.854 67.2317L135.852 67.2333L135.696 67.3488L135.694 67.3504L135.538 67.465L135.536 67.4666L135.379 67.5802L135.377 67.5818L135.219 67.6944L135.217 67.6961L135.059 67.8077L135.057 67.8094L134.899 67.9201L134.896 67.9217L134.737 68.0314L134.735 68.033L134.576 68.1418L134.573 68.1434L134.413 68.2512L134.411 68.2528L134.25 68.3596L134.248 68.3612L134.087 68.467L134.084 68.4686L133.923 68.5734L133.92 68.575L133.758 68.6788L133.756 68.6804L133.593 68.7832L133.591 68.7848L133.427 68.8866L133.425 68.8882L133.261 68.989L133.259 68.9906L133.094 69.0904L133.092 69.092L132.927 69.1908L132.924 69.1923L132.759 69.2901L132.756 69.2917L132.59 69.3885L132.588 69.39L132.421 69.4858L132.419 69.4873L132.251 69.5821L132.249 69.5836L132.081 69.6774L132.079 69.6788L131.91 69.7716L131.908 69.7731L131.739 69.8648L131.736 69.8663L131.567 69.957L131.564 69.9585L131.395 70.0482L131.392 70.0496L131.221 70.1384L131.219 70.1397L131.048 70.2275L131.045 70.2289L130.874 70.3156L130.871 70.3169L130.699 70.4027L130.696 70.404L130.524 70.4888L130.521 70.4901L130.5 70.5002V69.384L130.591 69.3378L130.594 69.3365L130.76 69.2515L130.762 69.2501L130.927 69.1641L130.93 69.1627L131.095 69.0757L131.097 69.0743L131.261 68.9864L131.264 68.9849L131.427 68.896L131.429 68.8953L131.593 68.8047L131.596 68.8032L131.758 68.7124L131.761 68.7109L131.922 68.619L131.925 68.6175L132.086 68.5247L132.089 68.5232L132.25 68.4294L132.252 68.4279L132.413 68.3331L132.415 68.3316L132.575 68.2358L132.578 68.2343L132.737 68.1375L132.739 68.136L132.898 68.0382L132.901 68.0367L133.059 67.938L133.061 67.9364L133.219 67.8367L133.221 67.8351L133.379 67.7345L133.381 67.7329L133.538 67.6312L133.54 67.6297L133.696 67.527L133.699 67.5254L133.854 67.4219L133.857 67.4203L134.012 67.3157L134.014 67.3141L134.169 67.2086L134.171 67.207L134.326 67.1005L134.328 67.0988L134.482 66.9914L134.484 66.9898L134.637 66.8814L134.639 66.8797L134.792 66.7704L134.794 66.7688L134.947 66.6584L134.949 66.6568L135.101 66.5456L135.103 66.5439L135.254 66.4317L135.256 66.4301L135.407 66.3169L135.409 66.3153L135.56 66.2012L135.562 66.1996L135.712 66.0846L135.714 66.083L135.863 65.967L135.865 65.9654L136.015 65.8485L136.017 65.8469L136.165 65.7291L136.167 65.7275L136.315 65.6088L136.317 65.6072L136.465 65.4876L136.467 65.486L136.614 65.3655L136.616 65.3639L136.763 65.2425L136.765 65.2409L136.911 65.1187L136.913 65.1171L137.059 64.9939L137.061 64.9924L137.207 64.8683L137.208 64.8668L137.354 64.7419L137.355 64.7403L137.5 64.6146L137.502 64.613L137.646 64.4864L137.648 64.4849L137.792 64.3575L137.794 64.3559L137.937 64.2277L137.939 64.2262L138.082 64.097L138.084 64.0955L138.227 63.9656L138.228 63.9641L138.371 63.8334L138.373 63.8319L138.515 63.7004L138.516 63.699L138.658 63.5666L138.659 63.5652L138.801 63.4321L138.802 63.4307L138.943 63.2968L138.945 63.2954L139.086 63.1607L139.087 63.1593L139.227 63.0239L139.229 63.0226L139.369 62.8864L139.37 62.8851L139.51 62.7482L139.511 62.7469L139.651 62.6093L139.652 62.608L139.791 62.4696L139.793 62.4684L139.931 62.3294L139.933 62.3281L140.071 62.1884L140.072 62.1871L140.211 62.0468L140.212 62.0455L140.35 61.9045L140.351 61.9033L140.489 61.7616L140.49 61.7604L140.627 61.618L140.628 61.6169L140.765 61.4739L140.766 61.4728L140.903 61.3292L140.904 61.3281L141.041 61.1839L141.042 61.1828L141.178 61.038L141.179 61.0369L141.316 60.8915L141.317 60.8905L141.452 60.7445L141.453 60.7435L141.589 60.597L141.59 60.5961L141.726 60.449L141.726 60.448L141.862 60.3004L141.863 60.2995L141.998 60.1514L141.998 60.1505L142.133 60.0019L142.134 60.001L142.269 59.8519L142.27 59.8511L142.404 59.7015L142.405 59.7007L142.539 59.5507L142.54 59.5499L142.674 59.3994L142.675 59.3986L142.809 59.2477L142.81 59.247L142.944 59.0956L142.944 59.095L143.078 58.9432L143.079 58.9425L143.212 58.7904L143.213 58.7898L143.346 58.6372L143.347 58.6366L143.48 58.4838L143.481 58.4832L143.614 58.33L143.615 58.3294L143.748 58.1759L143.748 58.1754L143.882 58.0215L143.882 58.021L144.015 57.8668L144.015 57.8664L144.148 57.7119L144.149 57.7115L144.282 57.5567L144.282 57.5563L144.415 57.4013L144.415 57.401L144.548 57.2458L144.548 57.2454L144.681 57.09L144.682 57.0897L144.814 56.934L144.815 56.9337L144.947 56.7779L144.948 56.7776L145.08 56.6216L145.08 56.6214L145.213 56.4652L145.213 56.465L145.346 56.3087L145.346 56.3085L145.479 56.152L145.479 56.1519L145.612 55.9953L145.612 55.9953L145.745 55.8385L145.745 55.8385L145.878 55.6817L146.011 55.5249L146.392 55.8481L146.011 55.5248L146.144 55.368L146.144 55.368L146.277 55.2111L146.277 55.2111L146.41 55.0543L146.41 55.0542L146.543 54.8975L146.543 54.8973L146.676 54.7407L146.676 54.7405L146.809 54.5839L146.809 54.5837L146.943 54.4273L146.943 54.4271L147.076 54.2707L147.076 54.2705L147.209 54.1143L147.21 54.114L147.343 53.9579L147.343 53.9576L147.477 53.8017L147.477 53.8014L147.611 53.6457L147.611 53.6453L147.745 53.4898L147.745 53.4894L147.879 53.3341L147.879 53.3336L148.013 53.1786L148.014 53.1781L148.148 53.0233L148.148 53.0228L148.282 52.8683L148.283 52.8677L148.417 52.7135L148.418 52.7129L148.552 52.5589L148.553 52.5583L148.687 52.4046L148.688 52.404L148.823 52.2507L148.823 52.25L148.958 52.097L148.959 52.0963L149.094 51.9436L149.095 51.9429L149.23 51.7906L149.231 51.7899L149.367 51.638L149.367 51.6372L149.503 51.4857L149.504 51.4849L149.64 51.3338L149.641 51.3329L149.777 51.1822L149.778 51.1814L149.915 51.0311L149.915 51.0302L150.052 50.8804L150.053 50.8795L150.19 50.7302L150.191 50.7293L150.328 50.5804L150.329 50.5794L150.467 50.4311L150.468 50.4301L150.606 50.2823L150.607 50.2812L150.745 50.1339L150.746 50.1329L150.884 49.9861L150.885 49.985L151.024 49.8388L151.025 49.8377L151.164 49.692L151.165 49.6909L151.305 49.5458L151.306 49.5446L151.445 49.4001L151.447 49.3989L151.587 49.255L151.588 49.2538L151.728 49.1105L151.729 49.1093L151.87 48.9667L151.871 48.9654L152.012 48.8234L152.014 48.8221L152.155 48.6807L152.156 48.6795L152.298 48.5387L152.3 48.5374L152.442 48.3974L152.443 48.3961L152.586 48.2567L152.587 48.2554L152.73 48.1167L152.731 48.1153L152.875 47.9774L152.876 47.976L153.02 47.8388L153.021 47.8374L153.166 47.7009L153.167 47.6995L153.312 47.5637L153.313 47.5623L153.458 47.4272L153.46 47.4258L153.605 47.2916L153.607 47.2901L153.752 47.1566L153.754 47.1551L153.9 47.0224L153.902 47.0209L154.049 46.8891L154.05 46.8875L154.197 46.7564L154.199 46.7549L154.347 46.6246L154.348 46.6231L154.496 46.4936L154.498 46.4921L154.647 46.3635L154.648 46.3619L154.797 46.2341L154.799 46.2326L154.949 46.1056L154.951 46.104L155.1 45.978L155.102 45.9764L155.253 45.8511L155.255 45.8496L155.405 45.7252L155.407 45.7236L155.559 45.6001L155.561 45.5985L155.712 45.4759L155.714 45.4743L155.867 45.3527L155.869 45.351L156.022 45.2303L156.024 45.2286L156.177 45.1088L156.179 45.1071L156.333 44.9882L156.335 44.9865L156.489 44.8685L156.491 44.8669L156.646 44.7498L156.648 44.7481L156.804 44.632L156.806 44.6303L156.962 44.5151L156.964 44.5135L157.12 44.3992L157.123 44.3976L157.28 44.2842L157.282 44.2826L157.439 44.1702L157.442 44.1686L157.599 44.0572L157.602 44.0556L157.76 43.9451L157.763 43.9435L157.922 43.834L157.924 43.8324L158.084 43.7239L158.086 43.7223L158.246 43.6148L158.249 43.6132L158.409 43.5067L158.412 43.5051L158.573 43.3995L158.575 43.3979L158.737 43.2934L158.739 43.2918L158.902 43.1882L158.904 43.1867L159.067 43.0841L159.069 43.0825L159.233 42.9809L159.235 42.9794L159.399 42.8788L159.402 42.8773L159.566 42.7777L159.569 42.7762L159.734 42.6776L159.736 42.6761L159.902 42.5785L159.905 42.577L160.071 42.4805L160.073 42.479L160.24 42.3834L160.243 42.3819L160.41 42.2874L160.412 42.2859Z" fill="#A3A3A3"/>
<path fillRule="evenodd" clipRule="evenodd" d="M160.411 97.7102L160.579 97.8037L160.582 97.8051L160.75 97.8977L160.753 97.8991L160.922 97.9906L160.924 97.992L161.094 98.0825L161.097 98.0839L161.267 98.1734L161.269 98.1748L161.44 98.2633L161.442 98.2647L161.614 98.3522L161.616 98.3535L161.788 98.44L161.791 98.4413L161.963 98.5268L161.965 98.5281L162.138 98.6126L162.141 98.6139L162.314 98.6974L162.317 98.6987L162.491 98.7812L162.493 98.7824L162.668 98.8639L162.67 98.8651L162.845 98.9456L162.848 98.9468L163.024 99.0263L163.026 99.0275L163.202 99.1061L163.205 99.1072L163.382 99.1848L163.384 99.1859L163.561 99.2625L163.564 99.2636L163.742 99.3392L163.744 99.3403L163.923 99.4149L163.925 99.416L164.104 99.4897L164.106 99.4907L164.286 99.5634L164.288 99.5645L164.468 99.6362L164.471 99.6372L164.651 99.708L164.654 99.709L164.834 99.7789L164.837 99.7799L165.018 99.8488L165.021 99.8497L165.203 99.9177L165.205 99.9186L165.388 99.9857L165.39 99.9866L165.573 100.053L165.576 100.054L165.759 100.119L165.761 100.12L165.945 100.184L165.948 100.185L166.132 100.248L166.135 100.249L166.319 100.312L166.322 100.312L166.507 100.374L166.51 100.375L166.696 100.436L166.698 100.436L166.884 100.496L166.887 100.497L167.073 100.556L167.076 100.557L167.263 100.615L167.265 100.615L167.453 100.673L167.455 100.673L167.644 100.73L167.646 100.731L167.834 100.786L167.837 100.787L168.026 100.842L168.028 100.842L168.218 100.896L168.22 100.897L168.41 100.95L168.412 100.951L168.602 101.003L168.604 101.004L168.795 101.055L168.797 101.056L168.989 101.107L168.991 101.107L169.182 101.157L169.184 101.158L169.377 101.207L169.379 101.208L169.571 101.257L169.573 101.257L169.766 101.305L169.768 101.305L169.961 101.353L169.963 101.353L170.157 101.399L170.159 101.4L170.353 101.446L170.355 101.446L170.549 101.491L170.551 101.492L170.746 101.536L170.747 101.536L170.943 101.58L170.944 101.581L171.14 101.624L171.142 101.624L171.338 101.667L171.339 101.667L171.535 101.709L171.537 101.709L171.734 101.75L171.735 101.751L171.932 101.791L171.934 101.792L172.131 101.832L172.132 101.832L172.33 101.871L172.331 101.872L172.529 101.911L172.531 101.911L172.729 101.949L172.73 101.95L172.929 101.988L172.93 101.988L173.129 102.025L173.13 102.025L173.329 102.062L173.331 102.062L173.53 102.099L173.531 102.099L173.731 102.135L173.732 102.135L173.932 102.17L173.933 102.171L174.133 102.206L174.134 102.206L174.334 102.24L174.335 102.241L174.536 102.275L174.537 102.275L174.738 102.309L174.739 102.309L174.94 102.342L174.941 102.342L175.142 102.375L175.143 102.375L175.344 102.408L175.345 102.408L175.547 102.44L175.547 102.44L175.749 102.472L175.75 102.472L175.952 102.504L175.953 102.504L176.155 102.535L176.156 102.535L176.358 102.566L176.359 102.566L176.561 102.597L176.562 102.597L176.764 102.628L176.765 102.628L176.967 102.658L176.968 102.658L177.171 102.688L177.171 102.688L177.374 102.718L177.375 102.718L177.578 102.748L177.578 102.748L177.781 102.777L177.782 102.777L177.985 102.806L177.985 102.806L178.189 102.836L178.189 102.836L178.392 102.865L178.393 102.865L178.596 102.893C178.869 102.932 179.122 102.742 179.161 102.469C179.2 102.195 179.01 101.942 178.736 101.903L178.533 101.875L178.533 101.874L178.33 101.846L178.33 101.846L178.127 101.817L178.127 101.817L177.925 101.787L177.924 101.787L177.722 101.758L177.721 101.758L177.519 101.729L177.519 101.728L177.317 101.699L177.316 101.699L177.115 101.669L177.114 101.669L176.913 101.639L176.912 101.639L176.711 101.609L176.71 101.608L176.509 101.578L176.509 101.578L176.308 101.547L176.307 101.547L176.106 101.516L176.106 101.516L175.905 101.484L175.905 101.484L175.704 101.453L175.704 101.453L175.504 101.421L175.503 101.42L175.303 101.388L175.302 101.388L175.103 101.355L175.102 101.355L174.903 101.322L174.902 101.322L174.704 101.289L174.703 101.289L174.504 101.255L174.503 101.255L174.305 101.221L174.304 101.22L174.106 101.186L174.105 101.186L173.908 101.151L173.906 101.15L173.709 101.115L173.708 101.115L173.511 101.079L173.51 101.079L173.314 101.042L173.312 101.042L173.116 101.005L173.115 101.005L172.919 100.968L172.918 100.967L172.722 100.93L172.721 100.929L172.526 100.891L172.525 100.891L172.33 100.852L172.328 100.851L172.134 100.812L172.133 100.812L171.939 100.772L171.937 100.771L171.744 100.731L171.742 100.73L171.549 100.689L171.548 100.689L171.355 100.647L171.354 100.647L171.161 100.604L171.16 100.604L170.968 100.561L170.966 100.561L170.775 100.517L170.773 100.517L170.582 100.472L170.58 100.472L170.39 100.427L170.388 100.427L170.198 100.381L170.196 100.381L170.007 100.334L170.005 100.334L169.816 100.287L169.814 100.286L169.625 100.239L169.623 100.238L169.435 100.19L169.433 100.189L169.246 100.14L169.244 100.14L169.056 100.09L169.054 100.09L168.868 100.039L168.866 100.038L168.679 99.9872L168.677 99.9866L168.492 99.9346L168.489 99.934L168.304 99.8813L168.302 99.8806L168.117 99.8271L168.115 99.8264L167.931 99.7721L167.929 99.7715L167.745 99.7163L167.743 99.7157L167.56 99.6598L167.557 99.659L167.375 99.6023L167.372 99.6016L167.19 99.5441L167.188 99.5433L167.006 99.485L167.004 99.4842L166.823 99.425L166.82 99.4242L166.64 99.3642L166.637 99.3634L166.457 99.3026L166.455 99.3017L166.275 99.24L166.273 99.2392L166.094 99.1766L166.091 99.1757L165.913 99.1123L165.911 99.1114L165.733 99.0471L165.73 99.0462L165.553 98.981L165.55 98.98L165.374 98.914L165.371 98.913L165.195 98.846L165.192 98.8451L165.016 98.7772L165.014 98.7762L164.839 98.7074L164.836 98.7064L164.662 98.6367L164.659 98.6357L164.485 98.5651L164.482 98.564L164.309 98.4925L164.306 98.4914L164.133 98.419L164.131 98.4179L163.958 98.3446L163.955 98.3434L163.784 98.2691L163.781 98.268L163.61 98.1928L163.607 98.1916L163.436 98.1154L163.434 98.1143L163.263 98.0371L163.261 98.0359L163.091 97.9579L163.088 97.9567L162.919 97.8776L162.917 97.8764L162.748 97.7964L162.745 97.7952L162.577 97.7142L162.575 97.713L162.407 97.6311L162.405 97.6298L162.238 97.5469L162.235 97.5456L162.069 97.4618L162.066 97.4604L161.9 97.3757L161.898 97.3743L161.732 97.2886L161.73 97.2872L161.565 97.2005L161.562 97.1991L161.398 97.1114L161.396 97.11L161.232 97.0213L161.229 97.0199L161.065 96.9295L161.064 96.9288L160.901 96.8382L160.898 96.8367L160.736 96.7451L160.734 96.7436L160.572 96.651L160.57 96.6496L160.409 96.556L160.406 96.5545L160.246 96.46L160.243 96.4584L160.083 96.3629L160.081 96.3614L159.921 96.2649L159.919 96.2634L159.76 96.1659L159.757 96.1643L159.599 96.0659L159.597 96.0643L159.439 95.9649L159.436 95.9633L159.279 95.8629L159.276 95.8613L159.12 95.76L159.117 95.7584L158.961 95.656L158.958 95.6544L158.803 95.5511L158.8 95.5495L158.645 95.4452L158.643 95.4436L158.488 95.3383L158.485 95.3367L158.331 95.2305L158.329 95.2289L158.175 95.1217L158.173 95.1201L158.019 95.0119L158.017 95.0103L157.864 94.9012L157.862 94.8996L157.709 94.7895L157.707 94.7879L157.555 94.6769L157.553 94.6752L157.402 94.5633L157.399 94.5616L157.249 94.4488L157.246 94.4471L157.096 94.3333L157.094 94.3317L156.944 94.2169L156.942 94.2153L156.792 94.0996L156.79 94.0979L156.641 93.9813L156.639 93.9797L156.49 93.8622L156.488 93.8606L156.34 93.7421L156.338 93.7405L156.19 93.6212L156.188 93.6195L156.041 93.4993L156.039 93.4977L155.892 93.3765L155.89 93.3749L155.743 93.2529L155.741 93.2513L155.595 93.1284L155.593 93.1268L155.448 93.003L155.446 93.0015L155.3 92.8768L155.299 92.8752L155.154 92.7497L155.152 92.7482L155.008 92.6218L155.006 92.6203L154.862 92.4931L154.86 92.4915L154.716 92.3635L154.715 92.362L154.571 92.2331L154.57 92.2316L154.427 92.1019L154.425 92.1004L154.282 91.9699L154.281 91.9684L154.139 91.8371L154.137 91.8356L153.995 91.7035L153.994 91.7021L153.852 91.5692L153.851 91.5677L153.709 91.4341L153.708 91.4327L153.567 91.2982L153.566 91.2968L153.425 91.1616L153.424 91.1602L153.284 91.0243L153.282 91.023L153.142 90.8863L153.141 90.8849L153.002 90.7475L153 90.7462L152.861 90.6081L152.86 90.6068L152.721 90.468L152.72 90.4667L152.581 90.3272L152.58 90.3259L152.442 90.1857L152.44 90.1845L152.302 90.0436L152.301 90.0424L152.163 89.9009L152.162 89.8997L152.025 89.7575L152.024 89.7564L151.886 89.6135L151.885 89.6124L151.748 89.469L151.747 89.4679L151.611 89.3238L151.61 89.3227L151.473 89.1781L151.472 89.177L151.336 89.0318L151.335 89.0307L151.199 88.8849L151.198 88.8839L151.062 88.7375L151.061 88.7366L150.926 88.5897L150.925 88.5887L150.79 88.4412L150.789 88.4403L150.654 88.2923L150.653 88.2914L150.518 88.143L150.517 88.1421L150.382 87.9931L150.381 87.9923L150.247 87.8428L150.246 87.842L150.112 87.6921L150.111 87.6913L149.977 87.5409L149.976 87.5402L149.842 87.3893L149.841 87.3886L149.707 87.2374L149.707 87.2367L149.573 87.085L149.572 87.0844L149.438 86.9323L149.438 86.9317L149.304 86.7793L149.304 86.7787L149.17 86.6259L149.17 86.6253L149.036 86.4721L149.036 86.4716L148.903 86.3181L148.902 86.3176L148.769 86.1638L148.769 86.1633L148.636 86.0092L148.635 86.0088L148.502 85.8544L148.502 85.8539L148.369 85.6993L148.368 85.6989L148.235 85.5439L148.235 85.5436L148.102 85.3884L148.102 85.3881L147.969 85.2327L147.969 85.2324L147.836 85.0768L147.836 85.0765L147.703 84.9207L147.703 84.9204L147.57 84.7644L147.57 84.7642L147.437 84.6081L147.437 84.6079L147.304 84.4516L147.304 84.4514L147.171 84.295L147.171 84.2948L147.038 84.1383L147.038 84.1382L146.906 83.9815L146.906 83.9815L146.773 83.8247L146.64 83.6678L146.258 83.9911L146.64 83.6678L146.507 83.511L146.507 83.5109L146.374 83.3541L146.374 83.354L146.241 83.1973L146.241 83.1972L146.108 83.0404L146.108 83.0403L145.975 82.8836L145.974 82.8835L145.841 82.7269L145.841 82.7267L145.708 82.5702L145.708 82.57L145.575 82.4136L145.574 82.4134L145.441 82.2571L145.441 82.2568L145.307 82.1008L145.307 82.1004L145.174 81.9445L145.173 81.9442L145.04 81.7884L145.04 81.788L144.906 81.6325L144.906 81.6321L144.772 81.4768L144.771 81.4763L144.638 81.3212L144.637 81.3207L144.503 81.1658L144.503 81.1653L144.369 81.0107L144.368 81.0102L144.234 80.8559L144.233 80.8553L144.099 80.7012L144.098 80.7006L143.964 80.5469L143.963 80.5463L143.828 80.3928L143.828 80.3922L143.693 80.2391L143.692 80.2384L143.557 80.0856L143.556 80.0849L143.421 79.9325L143.42 79.9318L143.285 79.7798L143.284 79.779L143.148 79.6274L143.147 79.6266L143.011 79.4754L143.011 79.4745L142.874 79.3237L142.874 79.3229L142.737 79.1725L142.736 79.1716L142.6 79.0217L142.599 79.0208L142.462 78.8714L142.461 78.8704L142.324 78.7215L142.323 78.7205L142.185 78.572L142.184 78.571L142.046 78.423L142.045 78.422L141.907 78.2746L141.906 78.2735L141.768 78.1266L141.767 78.1255L141.628 77.9791L141.627 77.978L141.488 77.8322L141.487 77.8311L141.348 77.6859L141.347 77.6847L141.207 77.54L141.206 77.5389L141.066 77.3948L141.065 77.3936L140.925 77.2502L140.923 77.2489L140.783 77.1061L140.782 77.1049L140.641 76.9627L140.639 76.9614L140.498 76.8199L140.497 76.8186L140.355 76.6777L140.354 76.6764L140.212 76.5362L140.21 76.5348L140.068 76.3953L140.066 76.3939L139.924 76.2551L139.922 76.2537L139.779 76.1156L139.777 76.1142L139.634 75.9768L139.632 75.9754L139.488 75.8387L139.487 75.8373L139.342 75.7013L139.341 75.6999L139.196 75.5647L139.194 75.5632L139.049 75.4288L139.048 75.4273L138.902 75.2937L138.9 75.2922L138.754 75.1593L138.753 75.1578L138.606 75.0257L138.604 75.0242L138.457 74.8929L138.456 74.8913L138.308 74.7608L138.306 74.7593L138.159 74.6296L138.157 74.6281L138.008 74.4992L138.007 74.4977L137.858 74.3697L137.856 74.3681L137.707 74.2409L137.705 74.2394L137.555 74.113L137.553 74.1115L137.403 73.986L137.401 73.9844L137.25 73.8598L137.248 73.8582L137.097 73.7345L137.095 73.7329L136.944 73.6101L136.942 73.6085L136.789 73.4866L136.787 73.4849L136.635 73.3639L136.633 73.3623L136.48 73.2422L136.477 73.2406L136.324 73.1214L136.322 73.1197L136.167 73.0014L136.165 72.9998L136.011 72.8825L136.009 72.8808L135.853 72.7644L135.851 72.7628L135.695 72.6473L135.693 72.6457L135.537 72.5311L135.535 72.5295L135.378 72.4159L135.376 72.4143L135.218 72.3017L135.216 72.3L135.058 72.1884L135.056 72.1867L134.898 72.076L134.895 72.0744L134.736 71.9647L134.734 71.9631L134.575 71.8543L134.572 71.8527L134.412 71.7449L134.41 71.7433L134.249 71.6365L134.247 71.6349L134.086 71.5291L134.083 71.5275L133.922 71.4227L133.919 71.4211L133.757 71.3173L133.755 71.3157L133.592 71.2129L133.59 71.2113L133.426 71.1095L133.424 71.1079L133.26 71.0071L133.258 71.0055L133.093 70.9057L133.091 70.9041L132.926 70.8053L132.923 70.8038L132.758 70.7059L132.755 70.7044L132.589 70.6076L132.587 70.6061L132.42 70.5103L132.418 70.5088L132.251 70.414L132.248 70.4125L132.08 70.3187L132.078 70.3173L131.909 70.2245L131.907 70.223L131.738 70.1313L131.735 70.1298L131.566 70.0391L131.563 70.0376L131.394 69.9479L131.391 69.9465L131.221 69.8577L131.218 69.8563L131.047 69.7686L131.044 69.7672L130.873 69.6805L130.87 69.6792L130.698 69.5934L130.695 69.5921L130.523 69.5073L130.52 69.506L130.5 69.4964V70.6126L130.59 70.6582L130.593 70.6596L130.759 70.7446L130.761 70.746L130.926 70.832L130.929 70.8334L131.094 70.9204L131.096 70.9218L131.26 71.0097L131.263 71.0111L131.426 71.1001L131.428 71.1008L131.592 71.1914L131.595 71.1929L131.757 71.2837L131.76 71.2852L131.921 71.3771L131.924 71.3785L132.085 71.4714L132.088 71.4729L132.249 71.5667L132.251 71.5682L132.412 71.663L132.414 71.6645L132.574 71.7603L132.577 71.7618L132.736 71.8586L132.738 71.8601L132.897 71.9579L132.9 71.9594L133.058 72.0581L133.06 72.0597L133.218 72.1594L133.22 72.161L133.378 72.2616L133.38 72.2632L133.537 72.3648L133.539 72.3664L133.695 72.469L133.698 72.4707L133.853 72.5742L133.856 72.5758L134.011 72.6804L134.013 72.682L134.168 72.7875L134.17 72.7891L134.325 72.8956L134.327 72.8972L134.481 73.0047L134.483 73.0063L134.636 73.1147L134.638 73.1164L134.791 73.2257L134.793 73.2273L134.946 73.3376L134.948 73.3393L135.1 73.4505L135.102 73.4522L135.253 73.5644L135.255 73.566L135.406 73.6791L135.408 73.6808L135.559 73.7949L135.561 73.7965L135.711 73.9115L135.713 73.9131L135.862 74.0291L135.865 74.0307L136.014 74.1476L136.016 74.1492L136.164 74.267L136.166 74.2686L136.314 74.3873L136.316 74.3889L136.464 74.5085L136.466 74.5101L136.613 74.6306L136.615 74.6322L136.762 74.7535L136.764 74.7551L136.91 74.8774L136.912 74.879L137.058 75.0021L137.06 75.0037L137.206 75.1277L137.208 75.1293L137.353 75.2542L137.354 75.2558L137.499 75.3815L137.501 75.3831L137.645 75.5097L137.647 75.5112L137.791 75.6386L137.793 75.6402L137.936 75.7684L137.938 75.7699L138.081 75.8991L138.083 75.9005L138.226 76.0305L138.227 76.032L138.37 76.1627L138.372 76.1642L138.514 76.2957L138.515 76.2971L138.657 76.4295L138.659 76.4309L138.8 76.564L138.801 76.5654L138.942 76.6993L138.944 76.7007L139.085 76.8354L139.086 76.8368L139.227 76.9722L139.228 76.9735L139.368 77.1097L139.369 77.111L139.509 77.2479L139.51 77.2492L139.65 77.3868L139.651 77.3881L139.79 77.5264L139.792 77.5277L139.93 77.6667L139.932 77.668L140.07 77.8077L140.071 77.8089L140.21 77.9493L140.211 77.9506L140.349 78.0916L140.35 78.0928L140.488 78.2345L140.489 78.2357L140.626 78.378L140.627 78.3792L140.764 78.5222L140.765 78.5233L140.902 78.6669L140.903 78.668L141.04 78.8122L141.041 78.8133L141.177 78.9581L141.178 78.9592L141.315 79.1046L141.316 79.1056L141.452 79.2516L141.452 79.2525L141.588 79.3991L141.589 79.4L141.725 79.5471L141.725 79.548L141.861 79.6957L141.862 79.6966L141.997 79.8447L141.997 79.8456L142.132 79.9942L142.133 79.995L142.268 80.1442L142.269 80.145L142.403 80.2946L142.404 80.2954L142.538 80.4454L142.539 80.4462L142.673 80.5967L142.674 80.5974L142.808 80.7484L142.809 80.7491L142.943 80.9004L142.943 80.9011L143.077 81.0529L143.078 81.0535L143.211 81.2057L143.212 81.2063L143.345 81.3588L143.346 81.3594L143.479 81.5123L143.48 81.5129L143.613 81.6661L143.614 81.6667L143.747 81.8202L143.747 81.8207L143.881 81.9746L143.881 81.9751L144.014 82.1293L144.014 82.1297L144.147 82.2842L144.148 82.2846L144.281 82.4394L144.281 82.4397L144.414 82.5947L144.414 82.5951L144.547 82.7503L144.547 82.7507L144.68 82.9061L144.681 82.9064L144.813 83.0621L144.814 83.0624L144.946 83.2182L144.947 83.2185L145.079 83.3745L145.079 83.3747L145.212 83.5309L145.212 83.5311L145.345 83.6874L145.345 83.6876L145.478 83.8441L145.478 83.8442L145.611 84.0008L145.611 84.0008L145.744 84.1575L145.744 84.1576L145.877 84.3144L146.01 84.4712L146.391 84.148L146.01 84.4712L146.143 84.6281L146.143 84.6281L146.276 84.785L146.276 84.785L146.409 84.9418L146.409 84.9419L146.542 85.0986L146.542 85.0988L146.675 85.2554L146.675 85.2556L146.808 85.4121L146.808 85.4124L146.942 85.5688L146.942 85.569L147.075 85.7254L147.075 85.7256L147.209 85.8818L147.209 85.8821L147.342 86.0382L147.342 86.0385L147.476 86.1944L147.476 86.1947L147.61 86.3504L147.61 86.3508L147.744 86.5063L147.744 86.5067L147.878 86.662L147.878 86.6625L148.012 86.8175L148.013 86.818L148.147 86.9728L148.147 86.9733L148.281 87.1278L148.282 87.1284L148.416 87.2826L148.417 87.2832L148.551 87.4372L148.552 87.4378L148.686 87.5915L148.687 87.5921L148.822 87.7454L148.822 87.7461L148.958 87.8991L148.958 87.8998L149.093 88.0525L149.094 88.0532L149.229 88.2055L149.23 88.2062L149.366 88.3581L149.366 88.3589L149.502 88.5104L149.503 88.5112L149.639 88.6623L149.64 88.6632L149.776 88.8139L149.777 88.8147L149.914 88.965L149.914 88.9659L150.051 89.1156L150.052 89.1166L150.189 89.2659L150.19 89.2668L150.327 89.4157L150.328 89.4166L150.466 89.565L150.467 89.566L150.605 89.7138L150.606 89.7149L150.744 89.8622L150.745 89.8632L150.883 90.01L150.884 90.0111L151.023 90.1573L151.024 90.1584L151.163 90.3041L151.164 90.3052L151.304 90.4503L151.305 90.4515L151.444 90.596L151.446 90.5971L151.586 90.7411L151.587 90.7423L151.727 90.8856L151.728 90.8868L151.869 91.0294L151.87 91.0307L152.011 91.1727L152.013 91.174L152.154 91.3154L152.155 91.3166L152.297 91.4574L152.299 91.4587L152.441 91.5987L152.442 91.6L152.585 91.7394L152.586 91.7407L152.729 91.8794L152.73 91.8808L152.874 92.0187L152.875 92.0201L153.019 92.1573L153.02 92.1587L153.165 92.2952L153.166 92.2966L153.311 92.4324L153.312 92.4338L153.457 92.5688L153.459 92.5703L153.604 92.7045L153.606 92.706L153.751 92.8395L153.753 92.841L153.899 92.9736L153.901 92.9751L154.048 93.107L154.049 93.1085L154.196 93.2396L154.198 93.2412L154.346 93.3715L154.347 93.373L154.495 93.5024L154.497 93.504L154.646 93.6326L154.647 93.6342L154.796 93.762L154.798 93.7635L154.948 93.8905L154.95 93.8921L155.099 94.0181L155.101 94.0197L155.252 94.1449L155.254 94.1465L155.404 94.2709L155.406 94.2725L155.558 94.396L155.56 94.3976L155.711 94.5201L155.713 94.5218L155.866 94.6434L155.868 94.6451L156.021 94.7658L156.023 94.7675L156.176 94.8873L156.178 94.889L156.332 95.0079L156.334 95.0095L156.488 95.1276L156.49 95.1292L156.645 95.2463L156.647 95.2479L156.803 95.3641L156.805 95.3657L156.961 95.481L156.963 95.4826L157.119 95.5969L157.122 95.5985L157.279 95.7118L157.281 95.7135L157.438 95.8259L157.441 95.8275L157.599 95.9389L157.601 95.9405L157.759 96.051L157.762 96.0526L157.921 96.162L157.923 96.1637L158.083 96.2722L158.085 96.2738L158.245 96.3813L158.248 96.3829L158.408 96.4894L158.411 96.491L158.572 96.5966L158.574 96.5982L158.736 96.7027L158.738 96.7043L158.901 96.8079L158.903 96.8094L159.066 96.912L159.069 96.9136L159.232 97.0152L159.234 97.0167L159.398 97.1173L159.401 97.1188L159.565 97.2184L159.568 97.2199L159.733 97.3185L159.735 97.32L159.901 97.4176L159.904 97.4191L160.07 97.5156L160.072 97.5171L160.239 97.6127L160.242 97.6142L160.409 97.7087L160.411 97.7102Z" fill="#A3A3A3"/>
<path d="M195.141 40C193.774 40 192.482 39.7375 191.266 39.2125C190.049 38.6875 188.986 37.9708 188.078 37.0625C187.17 36.1542 186.453 35.0917 185.928 33.875C185.403 32.6583 185.141 31.3667 185.141 30C185.141 28.6167 185.411 27.3167 185.953 26.1C186.495 24.8833 187.228 23.825 188.153 22.925C189.078 22.025 190.157 21.3125 191.391 20.7875C192.624 20.2625 193.941 20 195.341 20C196.674 20 197.932 20.2292 199.116 20.6875C200.299 21.1458 201.336 21.7792 202.228 22.5875C203.12 23.3958 203.828 24.3542 204.353 25.4625C204.878 26.5708 205.141 27.7667 205.141 29.05C205.141 30.9667 204.557 32.4375 203.391 33.4625C202.224 34.4875 200.807 35 199.141 35H197.291C197.141 35 197.036 35.0417 196.978 35.125C196.92 35.2083 196.891 35.3 196.891 35.4C196.891 35.6 197.016 35.8875 197.266 36.2625C197.516 36.6375 197.641 37.0667 197.641 37.55C197.641 38.3833 197.411 39 196.953 39.4C196.495 39.8 195.891 40 195.141 40ZM189.641 31C190.074 31 190.432 30.8583 190.716 30.575C190.999 30.2917 191.141 29.9333 191.141 29.5C191.141 29.0667 190.999 28.7083 190.716 28.425C190.432 28.1417 190.074 28 189.641 28C189.207 28 188.849 28.1417 188.566 28.425C188.282 28.7083 188.141 29.0667 188.141 29.5C188.141 29.9333 188.282 30.2917 188.566 30.575C188.849 30.8583 189.207 31 189.641 31ZM192.641 27C193.074 27 193.432 26.8583 193.716 26.575C193.999 26.2917 194.141 25.9333 194.141 25.5C194.141 25.0667 193.999 24.7083 193.716 24.425C193.432 24.1417 193.074 24 192.641 24C192.207 24 191.849 24.1417 191.566 24.425C191.282 24.7083 191.141 25.0667 191.141 25.5C191.141 25.9333 191.282 26.2917 191.566 26.575C191.849 26.8583 192.207 27 192.641 27ZM197.641 27C198.074 27 198.432 26.8583 198.716 26.575C198.999 26.2917 199.141 25.9333 199.141 25.5C199.141 25.0667 198.999 24.7083 198.716 24.425C198.432 24.1417 198.074 24 197.641 24C197.207 24 196.849 24.1417 196.566 24.425C196.282 24.7083 196.141 25.0667 196.141 25.5C196.141 25.9333 196.282 26.2917 196.566 26.575C196.849 26.8583 197.207 27 197.641 27ZM200.641 31C201.074 31 201.432 30.8583 201.716 30.575C201.999 30.2917 202.141 29.9333 202.141 29.5C202.141 29.0667 201.999 28.7083 201.716 28.425C201.432 28.1417 201.074 28 200.641 28C200.207 28 199.849 28.1417 199.566 28.425C199.282 28.7083 199.141 29.0667 199.141 29.5C199.141 29.9333 199.282 30.2917 199.566 30.575C199.849 30.8583 200.207 31 200.641 31ZM195.141 38C195.291 38 195.411 37.9583 195.503 37.875C195.595 37.7917 195.641 37.6833 195.641 37.55C195.641 37.3167 195.516 37.0417 195.266 36.725C195.016 36.4083 194.891 35.9333 194.891 35.3C194.891 34.6 195.132 34.0417 195.616 33.625C196.099 33.2083 196.691 33 197.391 33H199.141C200.241 33 201.182 32.6792 201.966 32.0375C202.749 31.3958 203.141 30.4 203.141 29.05C203.141 27.0333 202.37 25.3542 200.828 24.0125C199.286 22.6708 197.457 22 195.341 22C193.074 22 191.141 22.775 189.541 24.325C187.941 25.875 187.141 27.7667 187.141 30C187.141 32.2167 187.92 34.1042 189.478 35.6625C191.036 37.2208 192.924 38 195.141 38Z" fill="#FAFAFA"/>
<path d="M218.301 27.3636C218.241 26.8598 218 26.4688 217.575 26.1903C217.151 25.9119 216.631 25.7727 216.014 25.7727C215.563 25.7727 215.169 25.8456 214.831 25.9915C214.496 26.1373 214.234 26.3378 214.045 26.593C213.86 26.8482 213.767 27.1383 213.767 27.4631C213.767 27.7348 213.832 27.9685 213.961 28.1641C214.094 28.3563 214.263 28.517 214.468 28.6463C214.674 28.7723 214.889 28.8767 215.114 28.9595C215.34 29.0391 215.547 29.1037 215.736 29.1534L216.77 29.4318C217.035 29.5014 217.33 29.5975 217.655 29.7202C217.983 29.8428 218.296 30.0102 218.594 30.2223C218.896 30.4311 219.145 30.6996 219.34 31.0277C219.536 31.3558 219.634 31.7585 219.634 32.2358C219.634 32.786 219.489 33.2831 219.201 33.7273C218.916 34.1714 218.498 34.5244 217.948 34.7862C217.401 35.0481 216.737 35.179 215.955 35.179C215.225 35.179 214.594 35.0613 214.06 34.826C213.53 34.5907 213.112 34.2625 212.808 33.8416C212.506 33.4207 212.335 32.9318 212.295 32.375H213.568C213.601 32.7595 213.731 33.0777 213.956 33.3295C214.185 33.5781 214.473 33.7637 214.821 33.8864C215.172 34.0057 215.55 34.0653 215.955 34.0653C216.425 34.0653 216.848 33.9891 217.222 33.8366C217.597 33.6809 217.893 33.4654 218.112 33.1903C218.331 32.9119 218.44 32.5871 218.44 32.2159C218.44 31.8778 218.346 31.6027 218.157 31.3906C217.968 31.1785 217.719 31.0062 217.411 30.8736C217.103 30.741 216.77 30.625 216.412 30.5256L215.159 30.1676C214.364 29.9389 213.734 29.6125 213.27 29.1882C212.806 28.764 212.574 28.2088 212.574 27.5227C212.574 26.9527 212.728 26.4555 213.036 26.0312C213.348 25.6037 213.765 25.2723 214.289 25.0369C214.816 24.7983 215.404 24.679 216.054 24.679C216.71 24.679 217.294 24.7966 217.804 25.032C218.314 25.264 218.719 25.5821 219.017 25.9865C219.319 26.3909 219.478 26.8499 219.494 27.3636H218.301ZM224.823 27.3636V28.358H220.865V27.3636H224.823ZM222.019 25.5341H223.192V32.8125C223.192 33.1439 223.24 33.3925 223.336 33.5582C223.436 33.7206 223.561 33.83 223.714 33.8864C223.87 33.9394 224.034 33.9659 224.206 33.9659C224.335 33.9659 224.441 33.9593 224.524 33.946C224.607 33.9295 224.673 33.9162 224.723 33.9062L224.962 34.9602C224.882 34.9901 224.771 35.0199 224.629 35.0497C224.486 35.0829 224.306 35.0994 224.087 35.0994C223.755 35.0994 223.431 35.0282 223.112 34.8857C222.798 34.7431 222.536 34.526 222.327 34.2344C222.121 33.9427 222.019 33.5748 222.019 33.1307V25.5341ZM227.343 37.8636C227.144 37.8636 226.967 37.8471 226.811 37.8139C226.655 37.7841 226.548 37.7543 226.488 37.7244L226.786 36.6903C227.071 36.7633 227.323 36.7898 227.542 36.7699C227.761 36.75 227.955 36.6522 228.124 36.4766C228.296 36.3042 228.454 36.0241 228.596 35.6364L228.815 35.0398L225.991 27.3636H227.264L229.372 33.4489H229.451L231.559 27.3636H232.832L229.59 36.1136C229.445 36.508 229.264 36.8345 229.048 37.093C228.833 37.3549 228.583 37.5488 228.298 37.6747C228.016 37.8007 227.698 37.8636 227.343 37.8636ZM235.554 24.8182V35H234.381V24.8182H235.554ZM237.703 35V27.3636H238.876V35H237.703ZM238.299 26.0909C238.071 26.0909 237.873 26.013 237.708 25.8572C237.545 25.7015 237.464 25.5142 237.464 25.2955C237.464 25.0767 237.545 24.8894 237.708 24.7337C237.873 24.5779 238.071 24.5 238.299 24.5C238.528 24.5 238.724 24.5779 238.886 24.7337C239.052 24.8894 239.135 25.0767 239.135 25.2955C239.135 25.5142 239.052 25.7015 238.886 25.8572C238.724 26.013 238.528 26.0909 238.299 26.0909ZM242.198 30.4062V35H241.025V27.3636H242.159V28.5568H242.258C242.437 28.169 242.709 27.8575 243.073 27.6222C243.438 27.3835 243.909 27.2642 244.485 27.2642C245.002 27.2642 245.455 27.3703 245.843 27.5824C246.23 27.7912 246.532 28.1094 246.747 28.5369C246.963 28.9612 247.07 29.4981 247.07 30.1477V35H245.897V30.2273C245.897 29.6274 245.741 29.16 245.43 28.8253C245.118 28.4872 244.691 28.3182 244.147 28.3182C243.773 28.3182 243.438 28.3994 243.143 28.5618C242.851 28.7242 242.621 28.9612 242.452 29.2727C242.283 29.5843 242.198 29.9621 242.198 30.4062ZM252.297 38.0227C251.73 38.0227 251.243 37.9498 250.835 37.804C250.428 37.6615 250.088 37.4725 249.816 37.2372C249.548 37.0052 249.334 36.7566 249.175 36.4915L250.109 35.8352C250.215 35.9744 250.35 36.1335 250.512 36.3125C250.674 36.4948 250.897 36.6522 251.178 36.7848C251.463 36.9207 251.836 36.9886 252.297 36.9886C252.913 36.9886 253.422 36.8395 253.823 36.5412C254.224 36.2429 254.425 35.7756 254.425 35.1392V33.5881H254.325C254.239 33.7273 254.116 33.8996 253.957 34.1051C253.802 34.3073 253.576 34.4879 253.281 34.647C252.99 34.8028 252.595 34.8807 252.098 34.8807C251.482 34.8807 250.928 34.7348 250.438 34.4432C249.95 34.1515 249.564 33.7273 249.279 33.1705C248.997 32.6136 248.857 31.9375 248.857 31.142C248.857 30.3598 248.994 29.6787 249.269 29.0987C249.544 28.5154 249.927 28.0646 250.418 27.7464C250.908 27.425 251.475 27.2642 252.118 27.2642C252.615 27.2642 253.009 27.3471 253.301 27.5128C253.596 27.6752 253.821 27.8608 253.977 28.0696C254.136 28.2751 254.259 28.4441 254.345 28.5767H254.464V27.3636H255.598V35.2188C255.598 35.875 255.449 36.4086 255.151 36.8196C254.856 37.2339 254.458 37.5372 253.957 37.7294C253.46 37.925 252.907 38.0227 252.297 38.0227ZM252.257 33.8267C252.728 33.8267 253.125 33.719 253.45 33.5036C253.775 33.2881 254.022 32.9782 254.191 32.5739C254.36 32.1695 254.445 31.6856 254.445 31.1222C254.445 30.572 254.362 30.0864 254.196 29.6655C254.03 29.2446 253.785 28.9148 253.46 28.6761C253.135 28.4375 252.734 28.3182 252.257 28.3182C251.76 28.3182 251.346 28.4441 251.014 28.696C250.686 28.9479 250.439 29.286 250.273 29.7102C250.111 30.1345 250.03 30.6051 250.03 31.1222C250.03 31.6525 250.113 32.1214 250.278 32.5291C250.447 32.9335 250.696 33.2517 251.024 33.4837C251.356 33.7124 251.767 33.8267 252.257 33.8267Z" fill="#D4D4D4"/>
<path d="M189.202 65.9931L185.431 69.7643C185.369 69.8268 185.333 69.9116 185.333 70C185.333 70.0884 185.369 70.1732 185.431 70.2357L189.202 74.0069C189.265 74.0695 189.35 74.1046 189.438 74.1046C189.526 74.1046 189.611 74.0695 189.674 74.0069L193.445 70.2357C193.507 70.1732 193.543 70.0884 193.543 70C193.543 69.9116 193.507 69.8268 193.445 69.7643L189.674 65.9931C189.611 65.9305 189.526 65.8954 189.438 65.8954C189.35 65.8954 189.265 65.9305 189.202 65.9931ZM192.738 70L189.438 73.2998L186.138 70L189.438 66.7002L192.738 70ZM194.859 60.3362L191.088 64.1074C191.025 64.17 190.99 64.2547 190.99 64.3431C190.99 64.4316 191.025 64.5163 191.088 64.5788L194.859 68.3501C194.922 68.4126 195.006 68.4477 195.095 68.4477C195.183 68.4477 195.268 68.4126 195.331 68.3501L199.102 64.5788C199.164 64.5163 199.199 64.4316 199.199 64.3431C199.199 64.2547 199.164 64.17 199.102 64.1074L195.331 60.3362C195.268 60.2737 195.183 60.2386 195.095 60.2386C195.006 60.2386 194.922 60.2737 194.859 60.3362ZM198.395 64.3431L195.095 67.643L191.795 64.3431L195.095 61.0433L198.395 64.3431ZM194.859 71.6499L191.088 75.4212C191.025 75.4837 190.99 75.5684 190.99 75.6569C190.99 75.7453 191.025 75.83 191.088 75.8926L194.859 79.6638C194.922 79.7263 195.006 79.7614 195.095 79.7614C195.183 79.7614 195.268 79.7263 195.331 79.6638L199.102 75.8926C199.164 75.83 199.199 75.7453 199.199 75.6569C199.199 75.5685 199.164 75.4837 199.102 75.4212L195.331 71.6499C195.268 71.5874 195.183 71.5523 195.095 71.5523C195.006 71.5523 194.922 71.5874 194.859 71.6499ZM198.395 75.6569L195.095 78.9567L191.795 75.6569L195.095 72.357L198.395 75.6569ZM200.516 65.9931L196.745 69.7643C196.682 69.8268 196.647 69.9116 196.647 70C196.647 70.0884 196.682 70.1732 196.745 70.2357L200.516 74.0069C200.578 74.0694 200.663 74.1046 200.752 74.1046C200.84 74.1046 200.925 74.0694 200.987 74.0069L204.759 70.2357C204.821 70.1732 204.856 70.0884 204.856 70C204.856 69.9116 204.821 69.8268 204.759 69.7643L200.987 65.9931C200.925 65.9305 200.84 65.8954 200.752 65.8954C200.663 65.8954 200.578 65.9305 200.516 65.9931ZM204.051 70L200.752 73.2998L197.452 70L200.752 66.7002L204.051 70Z" fill="white" stroke="white" strokeWidth="0.32"/>
<path d="M220.926 68H219.693C219.62 67.6454 219.493 67.3338 219.31 67.0653C219.131 66.7969 218.913 66.5715 218.654 66.3892C218.399 66.2036 218.116 66.0644 217.804 65.9716C217.492 65.8788 217.168 65.8324 216.83 65.8324C216.213 65.8324 215.655 65.9882 215.154 66.2997C214.657 66.6113 214.261 67.0703 213.966 67.6768C213.674 68.2834 213.528 69.0275 213.528 69.9091C213.528 70.7907 213.674 71.5348 213.966 72.1413C214.261 72.7479 214.657 73.2069 215.154 73.5185C215.655 73.83 216.213 73.9858 216.83 73.9858C217.168 73.9858 217.492 73.9394 217.804 73.8466C218.116 73.7538 218.399 73.6162 218.654 73.4339C218.913 73.2483 219.131 73.0213 219.31 72.7528C219.493 72.4811 219.62 72.1695 219.693 71.8182H220.926C220.833 72.3385 220.664 72.8042 220.419 73.2152C220.174 73.6262 219.869 73.9759 219.504 74.2642C219.14 74.5492 218.73 74.7663 218.276 74.9155C217.826 75.0646 217.343 75.1392 216.83 75.1392C215.961 75.1392 215.189 74.9271 214.513 74.5028C213.837 74.0786 213.305 73.4754 212.917 72.6932C212.529 71.911 212.335 70.983 212.335 69.9091C212.335 68.8352 212.529 67.9072 212.917 67.125C213.305 66.3428 213.837 65.7396 214.513 65.3153C215.189 64.8911 215.961 64.679 216.83 64.679C217.343 64.679 217.826 64.7536 218.276 64.9027C218.73 65.0518 219.14 65.2706 219.504 65.5589C219.869 65.844 220.174 66.192 220.419 66.603C220.664 67.0107 220.833 67.4763 220.926 68ZM225.862 75.1591C225.172 75.1591 224.567 74.995 224.047 74.6669C223.53 74.3388 223.126 73.8797 222.834 73.2898C222.546 72.6998 222.401 72.0104 222.401 71.2216C222.401 70.4261 222.546 69.7318 222.834 69.1385C223.126 68.5452 223.53 68.0845 224.047 67.7564C224.567 67.4283 225.172 67.2642 225.862 67.2642C226.551 67.2642 227.154 67.4283 227.671 67.7564C228.192 68.0845 228.596 68.5452 228.884 69.1385C229.176 69.7318 229.322 70.4261 229.322 71.2216C229.322 72.0104 229.176 72.6998 228.884 73.2898C228.596 73.8797 228.192 74.3388 227.671 74.6669C227.154 74.995 226.551 75.1591 225.862 75.1591ZM225.862 74.1051C226.385 74.1051 226.816 73.9709 227.154 73.7024C227.492 73.4339 227.743 73.081 227.905 72.6435C228.067 72.206 228.149 71.732 228.149 71.2216C228.149 70.7112 228.067 70.2356 227.905 69.7947C227.743 69.3539 227.492 68.9976 227.154 68.7259C226.816 68.4541 226.385 68.3182 225.862 68.3182C225.338 68.3182 224.907 68.4541 224.569 68.7259C224.231 68.9976 223.981 69.3539 223.818 69.7947C223.656 70.2356 223.575 70.7112 223.575 71.2216C223.575 71.732 223.656 72.206 223.818 72.6435C223.981 73.081 224.231 73.4339 224.569 73.7024C224.907 73.9709 225.338 74.1051 225.862 74.1051ZM231.113 75V67.3636H232.246V68.5568H232.346C232.505 68.1491 232.762 67.8326 233.116 67.6072C233.471 67.3786 233.897 67.2642 234.394 67.2642C234.898 67.2642 235.317 67.3786 235.652 67.6072C235.99 67.8326 236.254 68.1491 236.442 68.5568H236.522C236.718 68.1624 237.011 67.8492 237.402 67.6172C237.793 67.3819 238.262 67.2642 238.809 67.2642C239.492 67.2642 240.05 67.478 240.484 67.9055C240.919 68.3298 241.136 68.991 241.136 69.8892V75H239.962V69.8892C239.962 69.3258 239.808 68.9231 239.5 68.6811C239.192 68.4392 238.829 68.3182 238.411 68.3182C237.874 68.3182 237.458 68.4806 237.163 68.8054C236.868 69.1269 236.721 69.5346 236.721 70.0284V75H235.528V69.7699C235.528 69.3357 235.387 68.986 235.105 68.7209C234.823 68.4524 234.46 68.3182 234.016 68.3182C233.711 68.3182 233.426 68.3994 233.161 68.5618C232.899 68.7242 232.687 68.9496 232.525 69.2379C232.366 69.523 232.286 69.8527 232.286 70.2273V75H231.113ZM243.281 77.8636V67.3636H244.414V68.5767H244.554C244.64 68.4441 244.759 68.2751 244.912 68.0696C245.067 67.8608 245.289 67.6752 245.578 67.5128C245.869 67.3471 246.264 67.2642 246.761 67.2642C247.404 67.2642 247.971 67.425 248.461 67.7464C248.952 68.0679 249.335 68.5237 249.61 69.1136C249.885 69.7036 250.022 70.3996 250.022 71.2017C250.022 72.0104 249.885 72.7114 249.61 73.3047C249.335 73.8946 248.953 74.352 248.466 74.6768C247.979 74.9983 247.417 75.1591 246.781 75.1591C246.29 75.1591 245.898 75.0779 245.603 74.9155C245.308 74.7498 245.081 74.5625 244.922 74.3537C244.762 74.1416 244.64 73.9659 244.554 73.8267H244.454V77.8636H243.281ZM244.434 71.1818C244.434 71.7585 244.519 72.2673 244.688 72.7081C244.857 73.1456 245.104 73.4886 245.429 73.7372C245.753 73.9825 246.151 74.1051 246.622 74.1051C247.112 74.1051 247.522 73.9759 247.85 73.7173C248.181 73.4555 248.43 73.1042 248.596 72.6634C248.765 72.2192 248.849 71.7254 248.849 71.1818C248.849 70.6449 248.766 70.161 248.6 69.7301C248.438 69.2959 248.191 68.9529 247.86 68.701C247.532 68.4458 247.119 68.3182 246.622 68.3182C246.145 68.3182 245.743 68.4392 245.419 68.6811C245.094 68.9197 244.849 69.2545 244.683 69.6854C244.517 70.1129 244.434 70.6117 244.434 71.1818ZM254.914 75.1591C254.225 75.1591 253.62 74.995 253.1 74.6669C252.583 74.3388 252.178 73.8797 251.887 73.2898C251.598 72.6998 251.454 72.0104 251.454 71.2216C251.454 70.4261 251.598 69.7318 251.887 69.1385C252.178 68.5452 252.583 68.0845 253.1 67.7564C253.62 67.4283 254.225 67.2642 254.914 67.2642C255.604 67.2642 256.207 67.4283 256.724 67.7564C257.244 68.0845 257.649 68.5452 257.937 69.1385C258.229 69.7318 258.375 70.4261 258.375 71.2216C258.375 72.0104 258.229 72.6998 257.937 73.2898C257.649 73.8797 257.244 74.3388 256.724 74.6669C256.207 74.995 255.604 75.1591 254.914 75.1591ZM254.914 74.1051C255.438 74.1051 255.869 73.9709 256.207 73.7024C256.545 73.4339 256.795 73.081 256.958 72.6435C257.12 72.206 257.201 71.732 257.201 71.2216C257.201 70.7112 257.12 70.2356 256.958 69.7947C256.795 69.3539 256.545 68.9976 256.207 68.7259C255.869 68.4541 255.438 68.3182 254.914 68.3182C254.391 68.3182 253.96 68.4541 253.622 68.7259C253.284 68.9976 253.033 69.3539 252.871 69.7947C252.709 70.2356 252.627 70.7112 252.627 71.2216C252.627 71.732 252.709 72.206 252.871 72.6435C253.033 73.081 253.284 73.4339 253.622 73.7024C253.96 73.9709 254.391 74.1051 254.914 74.1051ZM261.339 70.4062V75H260.166V67.3636H261.299V68.5568H261.399C261.578 68.169 261.849 67.8575 262.214 67.6222C262.579 67.3835 263.049 67.2642 263.626 67.2642C264.143 67.2642 264.595 67.3703 264.983 67.5824C265.371 67.7912 265.673 68.1094 265.888 68.5369C266.103 68.9612 266.211 69.4981 266.211 70.1477V75H265.038V70.2273C265.038 69.6274 264.882 69.16 264.57 68.8253C264.259 68.4872 263.831 68.3182 263.288 68.3182C262.913 68.3182 262.579 68.3994 262.284 68.5618C261.992 68.7242 261.762 68.9612 261.593 69.2727C261.423 69.5843 261.339 69.9621 261.339 70.4062ZM271.557 75.1591C270.821 75.1591 270.186 74.9967 269.653 74.6719C269.122 74.3438 268.713 73.8864 268.425 73.2997C268.14 72.7098 267.997 72.0237 267.997 71.2415C267.997 70.4593 268.14 69.7699 268.425 69.1733C268.713 68.5734 269.114 68.1061 269.628 67.7713C270.145 67.4332 270.748 67.2642 271.438 67.2642C271.835 67.2642 272.228 67.3305 272.616 67.4631C273.004 67.5956 273.357 67.8111 273.675 68.1094C273.993 68.4044 274.246 68.7955 274.435 69.2827C274.624 69.7699 274.719 70.3698 274.719 71.0824V71.5795H268.832V70.5653H273.526C273.526 70.1345 273.439 69.75 273.267 69.4119C273.098 69.0739 272.856 68.8071 272.541 68.6115C272.23 68.416 271.862 68.3182 271.438 68.3182C270.97 68.3182 270.566 68.4342 270.224 68.6662C269.886 68.8949 269.626 69.1932 269.444 69.5611C269.262 69.929 269.17 70.3234 269.17 70.7443V71.4205C269.17 71.9972 269.27 72.486 269.469 72.8871C269.671 73.2848 269.951 73.5881 270.309 73.7969C270.667 74.0024 271.083 74.1051 271.557 74.1051C271.865 74.1051 272.143 74.062 272.392 73.9759C272.644 73.8864 272.861 73.7538 273.043 73.5781C273.226 73.3991 273.366 73.1771 273.466 72.9119L274.599 73.2301C274.48 73.6146 274.28 73.9527 273.998 74.2443C273.716 74.5327 273.368 74.758 272.954 74.9205C272.54 75.0795 272.074 75.1591 271.557 75.1591ZM277.677 70.4062V75H276.504V67.3636H277.637V68.5568H277.737C277.915 68.169 278.187 67.8575 278.552 67.6222C278.916 67.3835 279.387 67.2642 279.964 67.2642C280.481 67.2642 280.933 67.3703 281.321 67.5824C281.709 67.7912 282.01 68.1094 282.226 68.5369C282.441 68.9612 282.549 69.4981 282.549 70.1477V75H281.376V70.2273C281.376 69.6274 281.22 69.16 280.908 68.8253C280.597 68.4872 280.169 68.3182 279.626 68.3182C279.251 68.3182 278.916 68.3994 278.621 68.5618C278.33 68.7242 278.099 68.9612 277.93 69.2727C277.761 69.5843 277.677 69.9621 277.677 70.4062ZM288.014 67.3636V68.358H284.057V67.3636H288.014ZM285.21 65.5341H286.383V72.8125C286.383 73.1439 286.431 73.3925 286.528 73.5582C286.627 73.7206 286.753 73.83 286.905 73.8864C287.061 73.9394 287.225 73.9659 287.398 73.9659C287.527 73.9659 287.633 73.9593 287.716 73.946C287.799 73.9295 287.865 73.9162 287.915 73.9062L288.153 74.9602C288.074 74.9901 287.963 75.0199 287.82 75.0497C287.678 75.0829 287.497 75.0994 287.278 75.0994C286.947 75.0994 286.622 75.0282 286.304 74.8857C285.989 74.7431 285.727 74.526 285.518 74.2344C285.313 73.9427 285.21 73.5748 285.21 73.1307V65.5341ZM295.051 69.0739L293.997 69.3722C293.931 69.1965 293.833 69.0258 293.704 68.8601C293.578 68.6911 293.406 68.5518 293.187 68.4425C292.968 68.3331 292.688 68.2784 292.347 68.2784C291.879 68.2784 291.49 68.3861 291.178 68.6016C290.87 68.8137 290.716 69.0838 290.716 69.4119C290.716 69.7036 290.822 69.9339 291.034 70.103C291.246 70.272 291.578 70.4129 292.029 70.5256L293.162 70.804C293.845 70.9697 294.354 71.2232 294.688 71.5646C295.023 71.9027 295.191 72.3385 295.191 72.8722C295.191 73.3097 295.065 73.7008 294.813 74.0455C294.564 74.3902 294.216 74.6619 293.769 74.8608C293.321 75.0597 292.801 75.1591 292.208 75.1591C291.429 75.1591 290.784 74.9901 290.274 74.652C289.763 74.3139 289.44 73.8201 289.304 73.1705L290.418 72.892C290.524 73.303 290.724 73.6113 291.019 73.8168C291.318 74.0223 291.707 74.125 292.188 74.125C292.735 74.125 293.169 74.009 293.49 73.777C293.815 73.5417 293.977 73.2599 293.977 72.9318C293.977 72.6667 293.885 72.4446 293.699 72.2656C293.513 72.0833 293.228 71.9474 292.844 71.858L291.571 71.5597C290.872 71.3939 290.358 71.1371 290.03 70.7891C289.705 70.4377 289.543 69.9986 289.543 69.4716C289.543 69.0407 289.664 68.6596 289.906 68.3281C290.151 67.9967 290.484 67.7365 290.905 67.5476C291.329 67.3587 291.81 67.2642 292.347 67.2642C293.102 67.2642 293.696 67.4299 294.127 67.7614C294.561 68.0928 294.869 68.5303 295.051 69.0739Z" fill="#D4D4D4"/>
<path d="M198.669 101.548C198.302 101.181 197.707 101.181 197.34 101.548L187.653 111.234C187.286 111.601 187.286 112.196 187.653 112.563L188.623 113.533C188.624 113.534 188.624 113.534 188.624 113.534C188.628 113.535 188.638 113.539 188.658 113.54C188.7 113.541 188.762 113.529 188.823 113.496C189.225 113.276 189.686 113.151 190.175 113.151C191.731 113.151 192.993 114.413 192.993 115.97C192.993 116.459 192.869 116.92 192.649 117.322C192.615 117.382 192.603 117.444 192.605 117.487C192.606 117.507 192.609 117.517 192.611 117.52C192.611 117.521 192.611 117.521 192.611 117.521L193.581 118.492C193.948 118.858 194.543 118.858 194.91 118.492L204.597 108.805C204.964 108.438 204.964 107.843 204.597 107.476L203.627 106.506C203.626 106.506 203.626 106.505 203.626 106.505C203.622 106.504 203.612 106.5 203.592 106.5C203.55 106.498 203.488 106.51 203.427 106.543C203.025 106.763 202.564 106.888 202.076 106.888C200.519 106.888 199.257 105.626 199.257 104.069C199.257 103.58 199.382 103.119 199.602 102.718C199.635 102.657 199.647 102.595 199.645 102.552C199.644 102.533 199.641 102.522 199.639 102.519C199.639 102.519 199.639 102.518 199.639 102.518L198.669 101.548ZM196.454 100.662C197.31 99.8055 198.698 99.8055 199.554 100.662L200.526 101.633C201.035 102.142 200.948 102.867 200.701 103.319C200.579 103.541 200.51 103.796 200.51 104.069C200.51 104.934 201.211 105.635 202.076 105.635C202.349 105.635 202.604 105.565 202.826 105.444C203.277 105.197 204.003 105.11 204.512 105.619L205.483 106.59C206.339 107.446 206.339 108.834 205.483 109.691L195.796 119.377C194.94 120.234 193.552 120.234 192.696 119.377L191.725 118.406C191.215 117.897 191.303 117.172 191.55 116.72C191.671 116.498 191.74 116.243 191.74 115.97C191.74 115.105 191.039 114.404 190.175 114.404C189.901 114.404 189.647 114.474 189.424 114.595C188.973 114.842 188.248 114.929 187.738 114.42L186.767 113.449C185.911 112.593 185.911 111.205 186.767 110.348L196.454 100.662Z" fill="#FAFAFA"/>
<path d="M212.176 106.912V105.818H219.812V106.912H216.611V116H215.378V106.912H212.176ZM223.551 116.159C222.862 116.159 222.257 115.995 221.737 115.667C221.219 115.339 220.815 114.88 220.523 114.29C220.235 113.7 220.091 113.01 220.091 112.222C220.091 111.426 220.235 110.732 220.523 110.138C220.815 109.545 221.219 109.085 221.737 108.756C222.257 108.428 222.862 108.264 223.551 108.264C224.241 108.264 224.844 108.428 225.361 108.756C225.881 109.085 226.286 109.545 226.574 110.138C226.866 110.732 227.011 111.426 227.011 112.222C227.011 113.01 226.866 113.7 226.574 114.29C226.286 114.88 225.881 115.339 225.361 115.667C224.844 115.995 224.241 116.159 223.551 116.159ZM223.551 115.105C224.075 115.105 224.506 114.971 224.844 114.702C225.182 114.434 225.432 114.081 225.594 113.643C225.757 113.206 225.838 112.732 225.838 112.222C225.838 111.711 225.757 111.236 225.594 110.795C225.432 110.354 225.182 109.998 224.844 109.726C224.506 109.454 224.075 109.318 223.551 109.318C223.027 109.318 222.597 109.454 222.259 109.726C221.92 109.998 221.67 110.354 221.508 110.795C221.345 111.236 221.264 111.711 221.264 112.222C221.264 112.732 221.345 113.206 221.508 113.643C221.67 114.081 221.92 114.434 222.259 114.702C222.597 114.971 223.027 115.105 223.551 115.105ZM229.896 113.216L229.876 111.764H230.115L233.456 108.364H234.907L231.348 111.963H231.248L229.896 113.216ZM228.802 116V105.818H229.976V116H228.802ZM233.655 116L230.672 112.222L231.507 111.406L235.146 116H233.655ZM239.305 116.159C238.569 116.159 237.934 115.997 237.401 115.672C236.87 115.344 236.461 114.886 236.173 114.3C235.888 113.71 235.745 113.024 235.745 112.241C235.745 111.459 235.888 110.77 236.173 110.173C236.461 109.573 236.862 109.106 237.376 108.771C237.893 108.433 238.496 108.264 239.186 108.264C239.583 108.264 239.976 108.33 240.364 108.463C240.752 108.596 241.105 108.811 241.423 109.109C241.741 109.404 241.994 109.795 242.183 110.283C242.372 110.77 242.467 111.37 242.467 112.082V112.58H236.58V111.565H241.274C241.274 111.134 241.187 110.75 241.015 110.412C240.846 110.074 240.604 109.807 240.289 109.612C239.978 109.416 239.61 109.318 239.186 109.318C238.718 109.318 238.314 109.434 237.972 109.666C237.634 109.895 237.374 110.193 237.192 110.561C237.01 110.929 236.919 111.323 236.919 111.744V112.42C236.919 112.997 237.018 113.486 237.217 113.887C237.419 114.285 237.699 114.588 238.057 114.797C238.415 115.002 238.831 115.105 239.305 115.105C239.613 115.105 239.892 115.062 240.14 114.976C240.392 114.886 240.609 114.754 240.791 114.578C240.974 114.399 241.115 114.177 241.214 113.912L242.347 114.23C242.228 114.615 242.028 114.953 241.746 115.244C241.464 115.533 241.116 115.758 240.702 115.92C240.288 116.08 239.822 116.159 239.305 116.159ZM245.425 111.406V116H244.252V108.364H245.385V109.557H245.485C245.664 109.169 245.935 108.857 246.3 108.622C246.664 108.384 247.135 108.264 247.712 108.264C248.229 108.264 248.681 108.37 249.069 108.582C249.457 108.791 249.758 109.109 249.974 109.537C250.189 109.961 250.297 110.498 250.297 111.148V116H249.124V111.227C249.124 110.627 248.968 110.16 248.656 109.825C248.345 109.487 247.917 109.318 247.374 109.318C246.999 109.318 246.664 109.399 246.369 109.562C246.078 109.724 245.847 109.961 245.678 110.273C245.509 110.584 245.425 110.962 245.425 111.406ZM257.85 110.074L256.796 110.372C256.73 110.196 256.632 110.026 256.503 109.86C256.377 109.691 256.205 109.552 255.986 109.442C255.767 109.333 255.487 109.278 255.146 109.278C254.678 109.278 254.289 109.386 253.977 109.602C253.669 109.814 253.515 110.084 253.515 110.412C253.515 110.704 253.621 110.934 253.833 111.103C254.045 111.272 254.377 111.413 254.827 111.526L255.961 111.804C256.644 111.97 257.152 112.223 257.487 112.565C257.822 112.903 257.989 113.339 257.989 113.872C257.989 114.31 257.863 114.701 257.612 115.045C257.363 115.39 257.015 115.662 256.567 115.861C256.12 116.06 255.6 116.159 255.006 116.159C254.228 116.159 253.583 115.99 253.072 115.652C252.562 115.314 252.239 114.82 252.103 114.17L253.217 113.892C253.323 114.303 253.523 114.611 253.818 114.817C254.116 115.022 254.506 115.125 254.987 115.125C255.533 115.125 255.968 115.009 256.289 114.777C256.614 114.542 256.776 114.26 256.776 113.932C256.776 113.667 256.683 113.445 256.498 113.266C256.312 113.083 256.027 112.947 255.643 112.858L254.37 112.56C253.671 112.394 253.157 112.137 252.829 111.789C252.504 111.438 252.342 110.999 252.342 110.472C252.342 110.041 252.463 109.66 252.705 109.328C252.95 108.997 253.283 108.737 253.704 108.548C254.128 108.359 254.609 108.264 255.146 108.264C255.901 108.264 256.495 108.43 256.925 108.761C257.36 109.093 257.668 109.53 257.85 110.074Z" fill="#D4D4D4"/>
<path fillRule="evenodd" clipRule="evenodd" d="M310.501 64.168C310.962 64.168 311.335 64.5411 311.335 65.0013V69.168H315.501C315.962 69.168 316.335 69.5411 316.335 70.0013C316.335 70.4615 315.962 70.8346 315.501 70.8346H311.335V75.0013C311.335 75.4615 310.962 75.8346 310.501 75.8346C310.041 75.8346 309.668 75.4615 309.668 75.0013V70.8346H305.501C305.041 70.8346 304.668 70.4615 304.668 70.0013C304.668 69.5411 305.041 69.168 305.501 69.168H309.668V65.0013C309.668 64.5411 310.041 64.168 310.501 64.168Z" fill="#FAFAFA"/>
<path d="M325.733 64.8182H327.205L330.665 73.2699H330.784L334.244 64.8182H335.716V75H334.562V67.2642H334.463L331.281 75H330.168L326.986 67.2642H326.886V75H325.733V64.8182ZM341.131 75.1591C340.442 75.1591 339.837 74.995 339.317 74.6669C338.8 74.3388 338.395 73.8797 338.104 73.2898C337.815 72.6998 337.671 72.0104 337.671 71.2216C337.671 70.4261 337.815 69.7318 338.104 69.1385C338.395 68.5452 338.8 68.0845 339.317 67.7564C339.837 67.4283 340.442 67.2642 341.131 67.2642C341.821 67.2642 342.424 67.4283 342.941 67.7564C343.461 68.0845 343.866 68.5452 344.154 69.1385C344.446 69.7318 344.591 70.4261 344.591 71.2216C344.591 72.0104 344.446 72.6998 344.154 73.2898C343.866 73.8797 343.461 74.3388 342.941 74.6669C342.424 74.995 341.821 75.1591 341.131 75.1591ZM341.131 74.1051C341.655 74.1051 342.086 73.9709 342.424 73.7024C342.762 73.4339 343.012 73.081 343.175 72.6435C343.337 72.206 343.418 71.732 343.418 71.2216C343.418 70.7112 343.337 70.2356 343.175 69.7947C343.012 69.3539 342.762 68.9976 342.424 68.7259C342.086 68.4541 341.655 68.3182 341.131 68.3182C340.608 68.3182 340.177 68.4541 339.839 68.7259C339.501 68.9976 339.25 69.3539 339.088 69.7947C338.925 70.2356 338.844 70.7112 338.844 71.2216C338.844 71.732 338.925 72.206 339.088 72.6435C339.25 73.081 339.501 73.4339 339.839 73.7024C340.177 73.9709 340.608 74.1051 341.131 74.1051ZM346.382 75V67.3636H347.516V68.517H347.596C347.735 68.1392 347.987 67.8326 348.351 67.5973C348.716 67.362 349.127 67.2443 349.584 67.2443C349.67 67.2443 349.778 67.246 349.907 67.2493C350.037 67.2526 350.134 67.2576 350.201 67.2642V68.4574C350.161 68.4474 350.07 68.4325 349.927 68.4126C349.788 68.3894 349.641 68.3778 349.485 68.3778C349.114 68.3778 348.782 68.4557 348.49 68.6115C348.202 68.764 347.973 68.9761 347.804 69.2479C347.639 69.5163 347.556 69.8229 347.556 70.1676V75H346.382ZM354.561 75.1591C353.825 75.1591 353.19 74.9967 352.657 74.6719C352.126 74.3438 351.717 73.8864 351.429 73.2997C351.144 72.7098 351.001 72.0237 351.001 71.2415C351.001 70.4593 351.144 69.7699 351.429 69.1733C351.717 68.5734 352.118 68.1061 352.632 67.7713C353.149 67.4332 353.752 67.2642 354.441 67.2642C354.839 67.2642 355.232 67.3305 355.62 67.4631C356.007 67.5956 356.36 67.8111 356.679 68.1094C356.997 68.4044 357.25 68.7955 357.439 69.2827C357.628 69.7699 357.723 70.3698 357.723 71.0824V71.5795H351.836V70.5653H356.529C356.529 70.1345 356.443 69.75 356.271 69.4119C356.102 69.0739 355.86 68.8071 355.545 68.6115C355.234 68.416 354.866 68.3182 354.441 68.3182C353.974 68.3182 353.57 68.4342 353.228 68.6662C352.89 68.8949 352.63 69.1932 352.448 69.5611C352.266 69.929 352.174 70.3234 352.174 70.7443V71.4205C352.174 71.9972 352.274 72.486 352.473 72.8871C352.675 73.2848 352.955 73.5881 353.313 73.7969C353.671 74.0024 354.087 74.1051 354.561 74.1051C354.869 74.1051 355.147 74.062 355.396 73.9759C355.648 73.8864 355.865 73.7538 356.047 73.5781C356.23 73.3991 356.37 73.1771 356.47 72.9119L357.603 73.2301C357.484 73.6146 357.283 73.9527 357.002 74.2443C356.72 74.5327 356.372 74.758 355.958 74.9205C355.543 75.0795 355.078 75.1591 354.561 75.1591Z" fill="#D4D4D4"/>
</svg>
