<svg width="25" height="24" viewBox="0 0 25 24" fill="none" xmlns="http://www.w3.org/2000/svg">
<g clipPath="url(#clip0_10695_24454)">
<path fillRule="evenodd" clipRule="evenodd" d="M6.84942 20.7122L5.29629 19.1591L6.84942 17.606L8.40256 19.1591L6.84942 20.7122ZM6.84942 18.3825L6.07286 19.1591L6.84942 19.9357L7.62599 19.1591L6.84942 18.3825ZM4.908 18.7708L3.35487 17.2177L4.908 15.6645L6.46114 17.2177L4.908 18.7708ZM4.908 16.4411L4.13144 17.2177L4.908 17.9942L5.68457 17.2177L4.908 16.4411ZM8.79084 18.7708L7.23771 17.2177L8.79084 15.6645L10.344 17.2177L8.79084 18.7708ZM8.79084 16.4411L8.01427 17.2177L8.79084 17.9942L9.56741 17.2177L8.79084 16.4411ZM6.84942 16.8294L5.29629 15.2763L6.84942 13.7231L8.40256 15.2763L6.84942 16.8294ZM6.84942 14.4997L6.07286 15.2763L6.84942 16.0528L7.62599 15.2763L6.84942 14.4997Z" fill="#FAFAFA"/>
<path fillRule="evenodd" clipRule="evenodd" d="M6.2952 0H18.0058L24.4141 6.4083V23.5245H6.2952V23.506C3.00546 23.2557 0.414062 20.5071 0.414062 17.1533C0.414062 13.7995 3.00546 11.0509 6.2952 10.8006V0ZM7.49639 10.8213V1.20126H17.2066V7.25758H23.2128V22.3233H10.5095C12.1129 21.1662 13.1565 19.2816 13.1565 17.1533C13.1565 13.8749 10.6804 11.1749 7.49639 10.8213ZM6.78529 11.7623C3.8079 11.7623 1.39425 14.1759 1.39425 17.1533C1.39425 20.1307 3.8079 22.5443 6.78529 22.5443C9.76268 22.5443 12.1763 20.1307 12.1763 17.1533C12.1763 14.1759 9.76268 11.7623 6.78529 11.7623ZM18.4078 2.10063V6.05632H22.3635L18.4078 2.10063Z" fill="#FAFAFA"/>
</g>
<defs>
<clipPath id="clip0_10695_24454">
<rect width="24" height="24" fill="white" transform="translate(0.164062)"/>
</clipPath>
</defs>
</svg>
