<svg width="25" height="24" viewBox="0 0 25 24" fill="none" xmlns="http://www.w3.org/2000/svg">
<g clipPath="url(#clip0_10695_24450)">
<path d="M3.36481 19H4.46481C6.06481 18.8 8.46481 17.8 19.1648 6.8V9.4L14.7648 13.7L15.4648 14.4L20.1648 9.8V5.8L20.8648 5C21.2648 4.6 21.2648 4 20.8648 3.6L20.7648 3.5L21.1648 3.1L19.5648 1.5L19.1648 1.9L19.0648 1.8C18.8648 1.6 18.5648 1.5 18.3648 1.5C18.0648 1.5 17.8648 1.6 17.6648 1.8L14.8648 4.6C10.1648 9.4 4.26481 15.3 3.56481 17.2C3.46481 17.6 3.36481 17.9 3.36481 18.3V19ZM18.3648 2.5L20.1648 4.3C16.7648 7.8 14.1648 10.4 12.1648 12.3L10.4648 10.6C12.1648 8.8 17.5648 3.3 18.3648 2.5ZM4.46481 17.6C4.86481 16.6 7.06481 14.1 9.76481 11.3L11.4648 13C6.86481 17.3 5.36481 17.9 4.46481 18H4.36481C4.36481 17.8 4.46481 17.7 4.46481 17.6ZM22.7648 22.9C20.8648 23.7 18.7648 24 16.6648 23.9C13.2648 23.9 11.8648 23 11.2648 22.5C10.9648 22.3 10.9648 21.8 11.2648 21.6C11.3648 21.5 11.5648 21.4 11.7648 21.4C15.0648 21.4 16.2648 20.7 16.2648 20C16.2648 19.5 15.0648 19 13.6648 19C12.0648 19.1 10.5648 19.7 9.46481 20.9C8.16481 22.2 6.46481 23 4.66481 23C3.96481 23 3.26481 23 2.56481 22.8C1.76481 22.6 1.16481 21.8 1.26481 20.9C1.26481 20 2.06481 19.4 2.46481 19.2L3.16481 19.9L3.06481 20C2.46481 20.4 2.16481 20.7 2.16481 20.9C2.16481 21.3 2.36481 21.7 2.86481 21.8C3.36481 22 3.96481 22 4.56481 22C6.16481 21.9 7.66481 21.3 8.76481 20.1C10.0648 18.8 11.7648 18 13.5648 18C15.1648 18 17.1648 18.5 17.1648 20C17.1648 20.8 16.5648 22.1 12.8648 22.4C14.0648 22.8 15.3648 23 16.6648 23C18.6648 23.1 20.5648 22.8 22.4648 22.1L22.7648 22.9Z" fill="#FAFAFA"/>
</g>
<defs>
<clipPath id="clip0_10695_24450">
<rect width="24" height="24" fill="white" transform="translate(0.164062)"/>
</clipPath>
</defs>
</svg>
