<svg width="25" height="24" viewBox="0 0 25 24" fill="none" xmlns="http://www.w3.org/2000/svg">
<g clipPath="url(#clip0_10695_24457)">
<path d="M13.7125 20.2465C13.7082 20.2451 13.335 20.1306 13.335 20.1306C13.1987 20.0887 13.0516 20.0995 12.9228 20.1606L12.1637 20.5216L11.4046 20.1606C11.2758 20.0995 11.1287 20.0888 10.9924 20.1306C10.9924 20.1306 10.6193 20.2452 10.6149 20.2465C9.96435 20.4634 9.52734 21.0697 9.52734 21.7553V23.4304C9.52734 23.7454 9.78262 24.0006 10.0976 24.0006H14.2297C14.5447 24.0006 14.8 23.7454 14.8 23.4304V21.7553C14.8 21.0697 14.363 20.4634 13.7125 20.2465Z" fill="#FAFAFA"/>
<path d="M10.3711 17.9942C10.3711 18.9819 11.1746 19.7853 12.1622 19.7853C13.1498 19.7853 13.9533 18.9819 13.9533 17.9942C13.9533 17.0066 13.1498 16.2031 12.1622 16.2031C11.1746 16.2031 10.3711 17.0066 10.3711 17.9942Z" fill="#FAFAFA"/>
<path d="M10.0977 7.86792H14.2298C14.5448 7.86792 14.8001 7.61264 14.8001 7.29765V5.62258C14.8001 4.93693 14.3631 4.33062 13.7125 4.11382C13.7082 4.11236 13.335 3.99786 13.335 3.99786C13.1987 3.95592 13.0516 3.96666 12.9228 4.02792L12.1637 4.38881L11.4046 4.02784C11.2758 3.96666 11.1287 3.95592 10.9924 3.99778C10.9924 3.99778 10.6193 4.11236 10.6149 4.11373C9.96435 4.33054 9.52734 4.93685 9.52734 5.6225V7.29757C9.52742 7.61264 9.7827 7.86792 10.0977 7.86792Z" fill="#FAFAFA"/>
<path d="M12.1622 3.58222C13.1498 3.58222 13.9533 2.77875 13.9533 1.79111C13.9533 0.803475 13.1498 0 12.1622 0C11.1746 0 10.3711 0.803475 10.3711 1.79111C10.3711 2.77875 11.1746 3.58222 12.1622 3.58222Z" fill="#FAFAFA"/>
<path d="M5.02498 20.2465C5.02069 20.2451 4.64744 20.1305 4.64744 20.1305C4.51112 20.0888 4.36405 20.0994 4.23524 20.1607L3.47621 20.5216L2.7171 20.1606C2.58829 20.0995 2.4413 20.0888 2.30489 20.1306C2.30489 20.1306 1.9318 20.2452 1.92744 20.2465C1.27685 20.4634 0.839844 21.0697 0.839844 21.7553V23.4304C0.839844 23.7454 1.09512 24.0006 1.41011 24.0006H5.54215C5.85714 24.0006 6.11241 23.7454 6.11241 23.4304V21.7553C6.11249 21.0697 5.6754 20.4633 5.02498 20.2465Z" fill="#FAFAFA"/>
<path d="M3.4747 19.7853C4.46234 19.7853 5.26582 18.9819 5.26582 17.9942C5.26582 17.0066 4.46234 16.2031 3.4747 16.2031C2.48707 16.2031 1.68359 17.0066 1.68359 17.9942C1.68359 18.9819 2.48707 19.7853 3.4747 19.7853Z" fill="#FAFAFA"/>
<path d="M22.3999 20.2465C22.3956 20.2451 22.0224 20.1306 22.0224 20.1306C21.886 20.0887 21.739 20.0995 21.6102 20.1606L20.8511 20.5216L20.0921 20.1607C19.9633 20.0995 19.8162 20.0889 19.6799 20.1305C19.6799 20.1305 19.3067 20.2452 19.3024 20.2465C18.6519 20.4633 18.2148 21.0697 18.2148 21.7553V23.4304C18.2148 23.7454 18.4701 24.0006 18.7851 24.0006H22.9171C23.2321 24.0006 23.4874 23.7454 23.4874 23.4304V21.7553C23.4874 21.0697 23.0504 20.4634 22.3999 20.2465Z" fill="#FAFAFA"/>
<path d="M19.0586 17.9942C19.0586 18.9819 19.8621 19.7853 20.8497 19.7853C21.8373 19.7853 22.6408 18.9819 22.6408 17.9942C22.6408 17.0066 21.8373 16.2031 20.8497 16.2031C19.8621 16.2031 19.0586 17.0066 19.0586 17.9942Z" fill="#FAFAFA"/>
<path d="M3.4776 14.7139C3.86007 14.7139 4.17004 14.4038 4.17004 14.0214V12.6354H11.4728V14.0213C11.4728 14.4038 11.7828 14.7138 12.1652 14.7138C12.5476 14.7138 12.8576 14.4037 12.8576 14.0213V12.6353H20.1603V14.0213C20.1603 14.4038 20.4704 14.7138 20.8528 14.7138C21.2353 14.7138 21.5452 14.4037 21.5452 14.0213V11.9429C21.5452 11.5604 21.2352 11.2504 20.8528 11.2504H12.8576V9.33698C12.8576 8.95451 12.5475 8.64453 12.1651 8.64453C11.7827 8.64453 11.4727 8.95459 11.4727 9.33698V11.2504H3.4776C3.09514 11.2504 2.78516 11.5605 2.78516 11.9429V14.0213C2.78516 14.4038 3.09514 14.7139 3.4776 14.7139Z" fill="#FAFAFA"/>
</g>
<defs>
<clipPath id="clip0_10695_24457">
<rect width="24" height="24" fill="white" transform="translate(0.164062)"/>
</clipPath>
</defs>
</svg>
