<svg width="298" height="255" viewBox="0 0 298 255" fill="none" xmlns="http://www.w3.org/2000/svg">
<path d="M126.689 17.2695C123.112 17.2695 120.213 20.169 120.213 23.7457V49.6502C120.213 53.2269 123.112 56.1263 126.689 56.1263H171.305C174.881 56.1263 177.781 53.2269 177.781 49.6502V23.7457C177.781 20.169 174.881 17.2695 171.305 17.2695H126.689ZM124.53 23.7457C124.53 22.5534 125.496 21.587 126.689 21.587H171.305C172.497 21.587 173.463 22.5534 173.463 23.7457V49.6502C173.463 50.8424 172.497 51.8089 171.305 51.8089H126.689C125.496 51.8089 124.53 50.8424 124.53 49.6502V23.7457ZM116.616 59.0046C115.424 59.0046 114.457 59.9711 114.457 61.1633C114.457 62.3555 115.424 63.322 116.616 63.322H181.378C182.57 63.322 183.536 62.3555 183.536 61.1633C183.536 59.9711 182.57 59.0046 181.378 59.0046H116.616Z" fill="#FAFAFA"/>
<line x1="149.156" y1="72" x2="149.156" y2="108" stroke="#A3A3A3" strokeWidth="1.87424"/>
<g filter="url(#filter0_d_10695_24528)">
<rect x="62.5" y="116" width="173" height="26" rx="4" fill="#171717"/>
<path d="M110.25 133H107.557V124.273H110.369C111.216 124.273 111.94 124.447 112.543 124.797C113.145 125.143 113.607 125.642 113.928 126.293C114.249 126.94 114.409 127.716 114.409 128.619C114.409 129.528 114.247 130.311 113.923 130.967C113.599 131.621 113.128 132.124 112.509 132.476C111.889 132.825 111.136 133 110.25 133ZM108.614 132.062H110.182C110.903 132.062 111.501 131.923 111.976 131.645C112.45 131.366 112.804 130.97 113.037 130.456C113.27 129.942 113.386 129.33 113.386 128.619C113.386 127.915 113.271 127.308 113.041 126.8C112.811 126.288 112.467 125.896 112.01 125.624C111.553 125.348 110.983 125.21 110.301 125.21H108.614V132.062ZM118.79 133.136C118.159 133.136 117.615 132.997 117.158 132.719C116.703 132.438 116.352 132.045 116.105 131.543C115.861 131.037 115.739 130.449 115.739 129.778C115.739 129.108 115.861 128.517 116.105 128.006C116.352 127.491 116.696 127.091 117.136 126.804C117.58 126.514 118.097 126.369 118.688 126.369C119.028 126.369 119.365 126.426 119.697 126.54C120.03 126.653 120.332 126.838 120.605 127.094C120.878 127.347 121.095 127.682 121.257 128.099C121.419 128.517 121.5 129.031 121.5 129.642V130.068H116.455V129.199H120.477C120.477 128.83 120.403 128.5 120.256 128.21C120.111 127.92 119.903 127.692 119.634 127.524C119.366 127.357 119.051 127.273 118.688 127.273C118.287 127.273 117.94 127.372 117.648 127.571C117.358 127.767 117.135 128.023 116.979 128.338C116.822 128.653 116.744 128.991 116.744 129.352V129.932C116.744 130.426 116.83 130.845 117 131.189C117.173 131.53 117.413 131.79 117.72 131.969C118.027 132.145 118.384 132.233 118.79 132.233C119.054 132.233 119.293 132.196 119.506 132.122C119.722 132.045 119.908 131.932 120.064 131.781C120.22 131.628 120.341 131.437 120.426 131.21L121.398 131.483C121.295 131.812 121.124 132.102 120.882 132.352C120.641 132.599 120.342 132.793 119.987 132.932C119.632 133.068 119.233 133.136 118.79 133.136ZM127.666 127.92L126.763 128.176C126.706 128.026 126.622 127.879 126.511 127.737C126.403 127.592 126.256 127.473 126.068 127.379C125.881 127.286 125.641 127.239 125.348 127.239C124.947 127.239 124.614 127.331 124.347 127.516C124.082 127.697 123.95 127.929 123.95 128.21C123.95 128.46 124.041 128.658 124.223 128.803C124.405 128.947 124.689 129.068 125.075 129.165L126.047 129.403C126.632 129.545 127.068 129.763 127.355 130.055C127.642 130.345 127.786 130.719 127.786 131.176C127.786 131.551 127.678 131.886 127.462 132.182C127.249 132.477 126.95 132.71 126.567 132.881C126.183 133.051 125.737 133.136 125.229 133.136C124.561 133.136 124.009 132.991 123.571 132.702C123.134 132.412 122.857 131.989 122.74 131.432L123.695 131.193C123.786 131.545 123.957 131.81 124.21 131.986C124.466 132.162 124.8 132.25 125.212 132.25C125.68 132.25 126.053 132.151 126.328 131.952C126.607 131.75 126.746 131.509 126.746 131.227C126.746 131 126.666 130.81 126.507 130.656C126.348 130.5 126.104 130.384 125.774 130.307L124.683 130.051C124.084 129.909 123.643 129.689 123.362 129.391C123.084 129.089 122.945 128.713 122.945 128.261C122.945 127.892 123.048 127.565 123.256 127.281C123.466 126.997 123.751 126.774 124.112 126.612C124.476 126.45 124.888 126.369 125.348 126.369C125.996 126.369 126.504 126.511 126.874 126.795C127.246 127.08 127.51 127.455 127.666 127.92ZM129.299 133V126.455H130.305V133H129.299ZM129.811 125.364C129.615 125.364 129.446 125.297 129.304 125.163C129.164 125.03 129.095 124.869 129.095 124.682C129.095 124.494 129.164 124.334 129.304 124.2C129.446 124.067 129.615 124 129.811 124C130.007 124 130.174 124.067 130.314 124.2C130.456 124.334 130.527 124.494 130.527 124.682C130.527 124.869 130.456 125.03 130.314 125.163C130.174 125.297 130.007 125.364 129.811 125.364ZM134.789 135.591C134.303 135.591 133.886 135.528 133.536 135.403C133.187 135.281 132.896 135.119 132.663 134.918C132.433 134.719 132.249 134.506 132.113 134.278L132.914 133.716C133.005 133.835 133.12 133.972 133.259 134.125C133.398 134.281 133.589 134.416 133.83 134.53C134.075 134.646 134.394 134.705 134.789 134.705C135.317 134.705 135.754 134.577 136.097 134.321C136.441 134.065 136.613 133.665 136.613 133.119V131.79H136.528C136.454 131.909 136.349 132.057 136.212 132.233C136.079 132.406 135.886 132.561 135.633 132.697C135.383 132.831 135.045 132.898 134.619 132.898C134.09 132.898 133.616 132.773 133.195 132.523C132.778 132.273 132.447 131.909 132.202 131.432C131.961 130.955 131.84 130.375 131.84 129.693C131.84 129.023 131.958 128.439 132.194 127.942C132.43 127.442 132.758 127.055 133.178 126.783C133.599 126.507 134.085 126.369 134.636 126.369C135.062 126.369 135.4 126.44 135.65 126.582C135.903 126.722 136.096 126.881 136.229 127.06C136.366 127.236 136.471 127.381 136.545 127.494H136.647V126.455H137.619V133.188C137.619 133.75 137.491 134.207 137.235 134.56C136.982 134.915 136.641 135.175 136.212 135.339C135.786 135.507 135.312 135.591 134.789 135.591ZM134.755 131.994C135.158 131.994 135.499 131.902 135.778 131.717C136.056 131.533 136.268 131.267 136.413 130.92C136.558 130.574 136.63 130.159 136.63 129.676C136.63 129.205 136.559 128.788 136.417 128.428C136.275 128.067 136.065 127.784 135.786 127.58C135.508 127.375 135.164 127.273 134.755 127.273C134.329 127.273 133.974 127.381 133.69 127.597C133.408 127.812 133.197 128.102 133.055 128.466C132.915 128.83 132.846 129.233 132.846 129.676C132.846 130.131 132.917 130.533 133.059 130.882C133.204 131.229 133.417 131.501 133.698 131.7C133.982 131.896 134.335 131.994 134.755 131.994ZM140.465 129.062V133H139.46V126.455H140.431V127.477H140.516C140.67 127.145 140.903 126.878 141.215 126.676C141.528 126.472 141.931 126.369 142.425 126.369C142.869 126.369 143.256 126.46 143.589 126.642C143.921 126.821 144.18 127.094 144.364 127.46C144.549 127.824 144.641 128.284 144.641 128.841V133H143.636V128.909C143.636 128.395 143.502 127.994 143.235 127.707C142.968 127.418 142.602 127.273 142.136 127.273C141.815 127.273 141.528 127.342 141.275 127.482C141.025 127.621 140.827 127.824 140.683 128.091C140.538 128.358 140.465 128.682 140.465 129.062ZM154.763 126.455C154.712 126.023 154.505 125.688 154.141 125.449C153.777 125.21 153.331 125.091 152.803 125.091C152.417 125.091 152.078 125.153 151.789 125.278C151.502 125.403 151.277 125.575 151.115 125.794C150.956 126.013 150.877 126.261 150.877 126.54C150.877 126.773 150.932 126.973 151.043 127.141C151.157 127.305 151.301 127.443 151.478 127.554C151.654 127.662 151.838 127.751 152.032 127.822C152.225 127.891 152.402 127.946 152.564 127.989L153.451 128.227C153.678 128.287 153.931 128.369 154.209 128.474C154.49 128.58 154.759 128.723 155.015 128.905C155.273 129.084 155.486 129.314 155.654 129.595C155.821 129.876 155.905 130.222 155.905 130.631C155.905 131.102 155.782 131.528 155.534 131.909C155.29 132.29 154.932 132.592 154.461 132.817C153.992 133.041 153.422 133.153 152.752 133.153C152.127 133.153 151.586 133.053 151.128 132.851C150.674 132.649 150.316 132.368 150.054 132.007C149.796 131.646 149.65 131.227 149.615 130.75H150.706C150.735 131.08 150.846 131.352 151.039 131.568C151.235 131.781 151.482 131.94 151.78 132.045C152.081 132.148 152.405 132.199 152.752 132.199C153.155 132.199 153.517 132.134 153.838 132.003C154.159 131.869 154.414 131.685 154.601 131.449C154.789 131.21 154.882 130.932 154.882 130.614C154.882 130.324 154.801 130.088 154.64 129.906C154.478 129.724 154.265 129.577 154 129.463C153.736 129.349 153.451 129.25 153.144 129.165L152.07 128.858C151.388 128.662 150.848 128.382 150.451 128.018C150.053 127.655 149.854 127.179 149.854 126.591C149.854 126.102 149.986 125.676 150.25 125.312C150.517 124.946 150.875 124.662 151.324 124.46C151.776 124.256 152.28 124.153 152.837 124.153C153.4 124.153 153.9 124.254 154.337 124.456C154.775 124.655 155.121 124.928 155.377 125.274C155.635 125.621 155.772 126.014 155.786 126.455H154.763ZM158.154 135.455C157.984 135.455 157.832 135.44 157.698 135.412C157.565 135.386 157.472 135.361 157.421 135.335L157.677 134.449C157.921 134.511 158.137 134.534 158.325 134.517C158.512 134.5 158.678 134.416 158.823 134.266C158.971 134.118 159.106 133.878 159.228 133.545L159.415 133.034L156.995 126.455H158.086L159.893 131.67H159.961L161.768 126.455H162.859L160.08 133.955C159.955 134.293 159.8 134.572 159.616 134.794C159.431 135.018 159.217 135.185 158.972 135.293C158.731 135.401 158.458 135.455 158.154 135.455ZM168.822 127.92L167.919 128.176C167.862 128.026 167.778 127.879 167.668 127.737C167.56 127.592 167.412 127.473 167.224 127.379C167.037 127.286 166.797 127.239 166.504 127.239C166.104 127.239 165.77 127.331 165.503 127.516C165.239 127.697 165.107 127.929 165.107 128.21C165.107 128.46 165.197 128.658 165.379 128.803C165.561 128.947 165.845 129.068 166.232 129.165L167.203 129.403C167.788 129.545 168.224 129.763 168.511 130.055C168.798 130.345 168.942 130.719 168.942 131.176C168.942 131.551 168.834 131.886 168.618 132.182C168.405 132.477 168.107 132.71 167.723 132.881C167.339 133.051 166.893 133.136 166.385 133.136C165.717 133.136 165.165 132.991 164.727 132.702C164.29 132.412 164.013 131.989 163.896 131.432L164.851 131.193C164.942 131.545 165.114 131.81 165.366 131.986C165.622 132.162 165.956 132.25 166.368 132.25C166.837 132.25 167.209 132.151 167.484 131.952C167.763 131.75 167.902 131.509 167.902 131.227C167.902 131 167.822 130.81 167.663 130.656C167.504 130.5 167.26 130.384 166.93 130.307L165.839 130.051C165.24 129.909 164.8 129.689 164.518 129.391C164.24 129.089 164.101 128.713 164.101 128.261C164.101 127.892 164.205 127.565 164.412 127.281C164.622 126.997 164.908 126.774 165.268 126.612C165.632 126.45 166.044 126.369 166.504 126.369C167.152 126.369 167.661 126.511 168.03 126.795C168.402 127.08 168.666 127.455 168.822 127.92ZM173.302 126.455V127.307H169.91V126.455H173.302ZM170.899 124.886H171.904V131.125C171.904 131.409 171.946 131.622 172.028 131.764C172.113 131.903 172.221 131.997 172.352 132.045C172.485 132.091 172.626 132.114 172.774 132.114C172.885 132.114 172.975 132.108 173.047 132.097C173.118 132.082 173.174 132.071 173.217 132.062L173.422 132.966C173.353 132.991 173.258 133.017 173.136 133.043C173.014 133.071 172.859 133.085 172.672 133.085C172.387 133.085 172.109 133.024 171.836 132.902C171.566 132.78 171.342 132.594 171.163 132.344C170.987 132.094 170.899 131.778 170.899 131.398V124.886ZM177.489 133.136C176.858 133.136 176.314 132.997 175.857 132.719C175.402 132.438 175.051 132.045 174.804 131.543C174.56 131.037 174.438 130.449 174.438 129.778C174.438 129.108 174.56 128.517 174.804 128.006C175.051 127.491 175.395 127.091 175.836 126.804C176.279 126.514 176.796 126.369 177.387 126.369C177.728 126.369 178.064 126.426 178.397 126.54C178.729 126.653 179.032 126.838 179.304 127.094C179.577 127.347 179.794 127.682 179.956 128.099C180.118 128.517 180.199 129.031 180.199 129.642V130.068H175.154V129.199H179.176C179.176 128.83 179.103 128.5 178.955 128.21C178.81 127.92 178.603 127.692 178.333 127.524C178.066 127.357 177.75 127.273 177.387 127.273C176.986 127.273 176.64 127.372 176.347 127.571C176.057 127.767 175.834 128.023 175.678 128.338C175.522 128.653 175.444 128.991 175.444 129.352V129.932C175.444 130.426 175.529 130.845 175.699 131.189C175.873 131.53 176.113 131.79 176.419 131.969C176.726 132.145 177.083 132.233 177.489 132.233C177.753 132.233 177.992 132.196 178.205 132.122C178.421 132.045 178.607 131.932 178.763 131.781C178.919 131.628 179.04 131.437 179.125 131.21L180.097 131.483C179.995 131.812 179.823 132.102 179.581 132.352C179.34 132.599 179.042 132.793 178.686 132.932C178.331 133.068 177.932 133.136 177.489 133.136ZM181.729 133V126.455H182.701V127.477H182.786C182.922 127.128 183.142 126.857 183.446 126.663C183.75 126.467 184.115 126.369 184.542 126.369C184.973 126.369 185.333 126.467 185.62 126.663C185.909 126.857 186.135 127.128 186.297 127.477H186.365C186.533 127.139 186.784 126.871 187.12 126.672C187.455 126.47 187.857 126.369 188.326 126.369C188.911 126.369 189.39 126.553 189.762 126.919C190.134 127.283 190.32 127.849 190.32 128.619V133H189.314V128.619C189.314 128.136 189.182 127.791 188.918 127.584C188.654 127.376 188.343 127.273 187.985 127.273C187.525 127.273 187.168 127.412 186.915 127.69C186.662 127.966 186.536 128.315 186.536 128.739V133H185.513V128.517C185.513 128.145 185.392 127.845 185.151 127.618C184.909 127.388 184.598 127.273 184.218 127.273C183.956 127.273 183.712 127.342 183.485 127.482C183.26 127.621 183.078 127.814 182.939 128.061C182.803 128.305 182.735 128.588 182.735 128.909V133H181.729Z" fill="#FAFAFA"/>
</g>
<path fillRule="evenodd" clipRule="evenodd" d="M43.168 193L37.3162 198.852L43.168 204.704L49.0197 198.852L43.168 193ZM43.168 201.778L40.2421 198.852L43.168 195.926L46.0939 198.852L43.168 201.778ZM35.8532 200.315L30.0015 206.167L35.8532 212.018L41.705 206.167L35.8532 200.315ZM35.8532 209.092L32.9274 206.167L35.8532 203.241L38.7791 206.167L35.8532 209.092ZM50.4827 200.315L44.6309 206.167L50.4827 212.018L56.3345 206.167L50.4827 200.315ZM50.4827 209.092L47.5568 206.167L50.4827 203.241L53.4086 206.167L50.4827 209.092ZM43.168 207.629L37.3162 213.481L43.168 219.333L49.0197 213.481L43.168 207.629ZM43.168 216.407L40.2421 213.481L43.168 210.555L46.0939 213.481L43.168 216.407Z" fill="#FAFAFA"/>
<path d="M9.92614 241H8.69318C8.62027 240.645 8.49266 240.334 8.31037 240.065C8.13139 239.797 7.91264 239.571 7.65412 239.389C7.39891 239.204 7.11553 239.064 6.80398 238.972C6.49242 238.879 6.16761 238.832 5.82955 238.832C5.21307 238.832 4.65459 238.988 4.15412 239.3C3.65696 239.611 3.26089 240.07 2.96591 240.677C2.67424 241.283 2.52841 242.027 2.52841 242.909C2.52841 243.791 2.67424 244.535 2.96591 245.141C3.26089 245.748 3.65696 246.207 4.15412 246.518C4.65459 246.83 5.21307 246.986 5.82955 246.986C6.16761 246.986 6.49242 246.939 6.80398 246.847C7.11553 246.754 7.39891 246.616 7.65412 246.434C7.91264 246.248 8.13139 246.021 8.31037 245.753C8.49266 245.481 8.62027 245.17 8.69318 244.818H9.92614C9.83333 245.339 9.6643 245.804 9.41903 246.215C9.17377 246.626 8.86885 246.976 8.50426 247.264C8.13968 247.549 7.73035 247.766 7.27628 247.915C6.82552 248.065 6.34328 248.139 5.82955 248.139C4.96117 248.139 4.18892 247.927 3.51278 247.503C2.83665 247.079 2.30469 246.475 1.9169 245.693C1.52912 244.911 1.33523 243.983 1.33523 242.909C1.33523 241.835 1.52912 240.907 1.9169 240.125C2.30469 239.343 2.83665 238.74 3.51278 238.315C4.18892 237.891 4.96117 237.679 5.82955 237.679C6.34328 237.679 6.82552 237.754 7.27628 237.903C7.73035 238.052 8.13968 238.271 8.50426 238.559C8.86885 238.844 9.17377 239.192 9.41903 239.603C9.6643 240.011 9.83333 240.476 9.92614 241ZM14.8617 248.159C14.1723 248.159 13.5674 247.995 13.0471 247.667C12.53 247.339 12.1257 246.88 11.834 246.29C11.5456 245.7 11.4015 245.01 11.4015 244.222C11.4015 243.426 11.5456 242.732 11.834 242.138C12.1257 241.545 12.53 241.085 13.0471 240.756C13.5674 240.428 14.1723 240.264 14.8617 240.264C15.5511 240.264 16.1543 240.428 16.6713 240.756C17.1917 241.085 17.5961 241.545 17.8844 242.138C18.1761 242.732 18.3219 243.426 18.3219 244.222C18.3219 245.01 18.1761 245.7 17.8844 246.29C17.5961 246.88 17.1917 247.339 16.6713 247.667C16.1543 247.995 15.5511 248.159 14.8617 248.159ZM14.8617 247.105C15.3854 247.105 15.8162 246.971 16.1543 246.702C16.4924 246.434 16.7426 246.081 16.905 245.643C17.0674 245.206 17.1486 244.732 17.1486 244.222C17.1486 243.711 17.0674 243.236 16.905 242.795C16.7426 242.354 16.4924 241.998 16.1543 241.726C15.8162 241.454 15.3854 241.318 14.8617 241.318C14.338 241.318 13.9071 241.454 13.5691 241.726C13.231 241.998 12.9808 242.354 12.8184 242.795C12.656 243.236 12.5748 243.711 12.5748 244.222C12.5748 244.732 12.656 245.206 12.8184 245.643C12.9808 246.081 13.231 246.434 13.5691 246.702C13.9071 246.971 14.338 247.105 14.8617 247.105ZM20.1129 248V240.364H21.2464V241.557H21.3459C21.505 241.149 21.7618 240.833 22.1165 240.607C22.4711 240.379 22.897 240.264 23.3942 240.264C23.898 240.264 24.3172 240.379 24.652 240.607C24.9901 240.833 25.2536 241.149 25.4425 241.557H25.522C25.7176 241.162 26.0109 240.849 26.402 240.617C26.7931 240.382 27.2621 240.264 27.8089 240.264C28.4917 240.264 29.0502 240.478 29.4844 240.906C29.9186 241.33 30.1357 241.991 30.1357 242.889V248H28.9624V242.889C28.9624 242.326 28.8082 241.923 28.5 241.681C28.1918 241.439 27.8288 241.318 27.4112 241.318C26.8743 241.318 26.4583 241.481 26.1634 241.805C25.8684 242.127 25.7209 242.535 25.7209 243.028V248H24.5277V242.77C24.5277 242.336 24.3868 241.986 24.1051 241.721C23.8234 241.452 23.4605 241.318 23.0163 241.318C22.7114 241.318 22.4264 241.399 22.1612 241.562C21.8994 241.724 21.6873 241.95 21.5249 242.238C21.3658 242.523 21.2862 242.853 21.2862 243.227V248H20.1129ZM32.2809 250.864V240.364H33.4144V241.577H33.5536C33.6398 241.444 33.7591 241.275 33.9116 241.07C34.0674 240.861 34.2894 240.675 34.5778 240.513C34.8694 240.347 35.2638 240.264 35.761 240.264C36.404 240.264 36.9708 240.425 37.4613 240.746C37.9518 241.068 38.3346 241.524 38.6097 242.114C38.8848 242.704 39.0224 243.4 39.0224 244.202C39.0224 245.01 38.8848 245.711 38.6097 246.305C38.3346 246.895 37.9535 247.352 37.4663 247.677C36.979 247.998 36.4173 248.159 35.7809 248.159C35.2904 248.159 34.8976 248.078 34.6026 247.915C34.3076 247.75 34.0806 247.562 33.9215 247.354C33.7624 247.142 33.6398 246.966 33.5536 246.827H33.4542V250.864H32.2809ZM33.4343 244.182C33.4343 244.759 33.5188 245.267 33.6879 245.708C33.8569 246.146 34.1038 246.489 34.4286 246.737C34.7534 246.982 35.1512 247.105 35.6218 247.105C36.1123 247.105 36.5217 246.976 36.8498 246.717C37.1812 246.455 37.4298 246.104 37.5955 245.663C37.7646 245.219 37.8491 244.725 37.8491 244.182C37.8491 243.645 37.7662 243.161 37.6005 242.73C37.4381 242.296 37.1912 241.953 36.8597 241.701C36.5316 241.446 36.119 241.318 35.6218 241.318C35.1445 241.318 34.7435 241.439 34.4187 241.681C34.0939 241.92 33.8486 242.254 33.6829 242.685C33.5172 243.113 33.4343 243.612 33.4343 244.182ZM43.9144 248.159C43.225 248.159 42.6201 247.995 42.0998 247.667C41.5827 247.339 41.1784 246.88 40.8867 246.29C40.5984 245.7 40.4542 245.01 40.4542 244.222C40.4542 243.426 40.5984 242.732 40.8867 242.138C41.1784 241.545 41.5827 241.085 42.0998 240.756C42.6201 240.428 43.225 240.264 43.9144 240.264C44.6038 240.264 45.207 240.428 45.7241 240.756C46.2444 241.085 46.6488 241.545 46.9371 242.138C47.2288 242.732 47.3746 243.426 47.3746 244.222C47.3746 245.01 47.2288 245.7 46.9371 246.29C46.6488 246.88 46.2444 247.339 45.7241 247.667C45.207 247.995 44.6038 248.159 43.9144 248.159ZM43.9144 247.105C44.4381 247.105 44.869 246.971 45.207 246.702C45.5451 246.434 45.7953 246.081 45.9577 245.643C46.1201 245.206 46.2013 244.732 46.2013 244.222C46.2013 243.711 46.1201 243.236 45.9577 242.795C45.7953 242.354 45.5451 241.998 45.207 241.726C44.869 241.454 44.4381 241.318 43.9144 241.318C43.3907 241.318 42.9599 241.454 42.6218 241.726C42.2837 241.998 42.0335 242.354 41.8711 242.795C41.7087 243.236 41.6275 243.711 41.6275 244.222C41.6275 244.732 41.7087 245.206 41.8711 245.643C42.0335 246.081 42.2837 246.434 42.6218 246.702C42.9599 246.971 43.3907 247.105 43.9144 247.105ZM50.339 243.406V248H49.1657V240.364H50.2992V241.557H50.3986C50.5776 241.169 50.8494 240.857 51.214 240.622C51.5785 240.384 52.0492 240.264 52.6259 240.264C53.1429 240.264 53.5953 240.37 53.9831 240.582C54.3709 240.791 54.6725 241.109 54.888 241.537C55.1034 241.961 55.2111 242.498 55.2111 243.148V248H54.0378V243.227C54.0378 242.627 53.882 242.16 53.5705 241.825C53.2589 241.487 52.8314 241.318 52.2878 241.318C51.9133 241.318 51.5785 241.399 51.2836 241.562C50.9919 241.724 50.7615 241.961 50.5925 242.273C50.4235 242.584 50.339 242.962 50.339 243.406ZM60.5568 248.159C59.821 248.159 59.1863 247.997 58.6527 247.672C58.1224 247.344 57.7131 246.886 57.4247 246.3C57.1397 245.71 56.9972 245.024 56.9972 244.241C56.9972 243.459 57.1397 242.77 57.4247 242.173C57.7131 241.573 58.1141 241.106 58.6278 240.771C59.1449 240.433 59.7481 240.264 60.4375 240.264C60.8352 240.264 61.228 240.33 61.6158 240.463C62.0036 240.596 62.3565 240.811 62.6747 241.109C62.9929 241.404 63.2464 241.795 63.4354 242.283C63.6243 242.77 63.7188 243.37 63.7188 244.082V244.58H57.8324V243.565H62.5256C62.5256 243.134 62.4394 242.75 62.267 242.412C62.098 242.074 61.8561 241.807 61.5412 241.612C61.2296 241.416 60.8617 241.318 60.4375 241.318C59.9702 241.318 59.5658 241.434 59.2244 241.666C58.8864 241.895 58.6262 242.193 58.4439 242.561C58.2616 242.929 58.1705 243.323 58.1705 243.744V244.42C58.1705 244.997 58.2699 245.486 58.4688 245.887C58.6709 246.285 58.951 246.588 59.3089 246.797C59.6669 247.002 60.0829 247.105 60.5568 247.105C60.8651 247.105 61.1435 247.062 61.392 246.976C61.6439 246.886 61.861 246.754 62.0433 246.578C62.2256 246.399 62.3665 246.177 62.4659 245.912L63.5994 246.23C63.4801 246.615 63.2796 246.953 62.9979 247.244C62.7161 247.533 62.3681 247.758 61.9538 247.92C61.5395 248.08 61.0739 248.159 60.5568 248.159ZM66.6768 243.406V248H65.5036V240.364H66.6371V241.557H66.7365C66.9155 241.169 67.1873 240.857 67.5518 240.622C67.9164 240.384 68.3871 240.264 68.9638 240.264C69.4808 240.264 69.9332 240.37 70.321 240.582C70.7088 240.791 71.0104 241.109 71.2259 241.537C71.4413 241.961 71.549 242.498 71.549 243.148V248H70.3757V243.227C70.3757 242.627 70.2199 242.16 69.9084 241.825C69.5968 241.487 69.1693 241.318 68.6257 241.318C68.2512 241.318 67.9164 241.399 67.6214 241.562C67.3298 241.724 67.0994 241.961 66.9304 242.273C66.7614 242.584 66.6768 242.962 66.6768 243.406ZM77.014 240.364V241.358H73.0566V240.364H77.014ZM74.21 238.534H75.3833V245.812C75.3833 246.144 75.4314 246.393 75.5275 246.558C75.627 246.721 75.7529 246.83 75.9054 246.886C76.0611 246.939 76.2252 246.966 76.3975 246.966C76.5268 246.966 76.6329 246.959 76.7157 246.946C76.7986 246.929 76.8649 246.916 76.9146 246.906L77.1532 247.96C77.0737 247.99 76.9627 248.02 76.8201 248.05C76.6776 248.083 76.497 248.099 76.2782 248.099C75.9468 248.099 75.622 248.028 75.3038 247.886C74.9889 247.743 74.7271 247.526 74.5183 247.234C74.3128 246.943 74.21 246.575 74.21 246.131V238.534ZM84.0513 242.074L82.9973 242.372C82.931 242.196 82.8333 242.026 82.704 241.86C82.5781 241.691 82.4057 241.552 82.187 241.442C81.9682 241.333 81.6882 241.278 81.3468 241.278C80.8794 241.278 80.49 241.386 80.1784 241.602C79.8702 241.814 79.7161 242.084 79.7161 242.412C79.7161 242.704 79.8221 242.934 80.0343 243.103C80.2464 243.272 80.5778 243.413 81.0286 243.526L82.1621 243.804C82.8449 243.97 83.3536 244.223 83.6884 244.565C84.0231 244.903 84.1905 245.339 84.1905 245.872C84.1905 246.31 84.0646 246.701 83.8127 247.045C83.5641 247.39 83.2161 247.662 82.7686 247.861C82.3212 248.06 81.8008 248.159 81.2076 248.159C80.4287 248.159 79.784 247.99 79.2736 247.652C78.7632 247.314 78.44 246.82 78.3042 246.17L79.4178 245.892C79.5239 246.303 79.7244 246.611 80.0194 246.817C80.3176 247.022 80.7071 247.125 81.1877 247.125C81.7346 247.125 82.1687 247.009 82.4902 246.777C82.815 246.542 82.9775 246.26 82.9775 245.932C82.9775 245.667 82.8846 245.445 82.699 245.266C82.5134 245.083 82.2284 244.947 81.8439 244.858L80.5712 244.56C79.8719 244.394 79.3581 244.137 79.03 243.789C78.7052 243.438 78.5428 242.999 78.5428 242.472C78.5428 242.041 78.6638 241.66 78.9057 241.328C79.151 240.997 79.4841 240.737 79.905 240.548C80.3292 240.359 80.8098 240.264 81.3468 240.264C82.1025 240.264 82.6957 240.43 83.1266 240.761C83.5608 241.093 83.869 241.53 84.0513 242.074Z" fill="#D4D4D4"/>
<path d="M48.5589 153.046C48.3663 152.709 47.937 152.592 47.5999 152.784C42.6276 155.625 42.5602 160.44 42.5602 163.703V170.908L38.1373 166.486C37.8628 166.211 37.4178 166.211 37.1434 166.486C36.8689 166.76 36.8689 167.205 37.1434 167.479L42.7661 173.102C43.0405 173.377 43.4856 173.377 43.76 173.102L49.3827 167.479C49.6572 167.205 49.6572 166.76 49.3827 166.486C49.1083 166.211 48.6632 166.211 48.3888 166.486L43.9659 170.908V163.703C43.9659 160.406 44.0859 156.411 48.2973 154.005C48.6344 153.812 48.7515 153.383 48.5589 153.046Z" fill="#A3A3A3"/>
<path d="M151.526 151.875C152.463 151.875 152.463 152.344 152.463 152.812C152.463 159.841 152.463 160.561 152.463 163.823V171.029L156.886 166.606C157.161 166.332 157.606 166.332 157.88 166.606C158.155 166.881 158.155 167.326 157.88 167.6L152.257 173.223C151.983 173.497 151.538 173.497 151.263 173.223L145.641 167.6C145.366 167.326 145.366 166.881 145.641 166.606C145.915 166.332 146.36 166.332 146.635 166.606L151.058 171.029V163.823C151.058 160.526 151.058 156.092 151.058 152.812C151.058 152.344 151.173 151.875 151.526 151.875Z" fill="#A3A3A3"/>
<g clipPath="url(#clip0_10695_24528)">
<g clipPath="url(#clip1_10695_24528)">
<g clipPath="url(#clip2_10695_24528)">
<path d="M147.765 212.663L141.785 206.683L147.765 200.703L145.945 198.883L138.145 206.683L145.945 214.483L147.765 212.663ZM154.525 212.663L160.505 206.683L154.525 200.703L156.345 198.883L164.145 206.683L156.345 214.483L154.525 212.663Z" fill="#FAFAFA"/>
</g>
</g>
<path d="M126.926 241.238H125.693C125.62 240.884 125.493 240.572 125.31 240.304C125.131 240.035 124.913 239.81 124.654 239.627C124.399 239.442 124.116 239.303 123.804 239.21C123.492 239.117 123.168 239.071 122.83 239.071C122.213 239.071 121.655 239.226 121.154 239.538C120.657 239.85 120.261 240.309 119.966 240.915C119.674 241.522 119.528 242.266 119.528 243.147C119.528 244.029 119.674 244.773 119.966 245.38C120.261 245.986 120.657 246.445 121.154 246.757C121.655 247.068 122.213 247.224 122.83 247.224C123.168 247.224 123.492 247.178 123.804 247.085C124.116 246.992 124.399 246.855 124.654 246.672C124.913 246.487 125.131 246.26 125.31 245.991C125.493 245.719 125.62 245.408 125.693 245.056H126.926C126.833 245.577 126.664 246.042 126.419 246.453C126.174 246.864 125.869 247.214 125.504 247.502C125.14 247.788 124.73 248.005 124.276 248.154C123.826 248.303 123.343 248.377 122.83 248.377C121.961 248.377 121.189 248.165 120.513 247.741C119.837 247.317 119.305 246.714 118.917 245.931C118.529 245.149 118.335 244.221 118.335 243.147C118.335 242.074 118.529 241.145 118.917 240.363C119.305 239.581 119.837 238.978 120.513 238.554C121.189 238.129 121.961 237.917 122.83 237.917C123.343 237.917 123.826 237.992 124.276 238.141C124.73 238.29 125.14 238.509 125.504 238.797C125.869 239.082 126.174 239.43 126.419 239.841C126.664 240.249 126.833 240.715 126.926 241.238ZM131.862 248.397C131.172 248.397 130.567 248.233 130.047 247.905C129.53 247.577 129.126 247.118 128.834 246.528C128.546 245.938 128.401 245.249 128.401 244.46C128.401 243.664 128.546 242.97 128.834 242.377C129.126 241.783 129.53 241.323 130.047 240.995C130.567 240.667 131.172 240.502 131.862 240.502C132.551 240.502 133.154 240.667 133.671 240.995C134.192 241.323 134.596 241.783 134.884 242.377C135.176 242.97 135.322 243.664 135.322 244.46C135.322 245.249 135.176 245.938 134.884 246.528C134.596 247.118 134.192 247.577 133.671 247.905C133.154 248.233 132.551 248.397 131.862 248.397ZM131.862 247.343C132.385 247.343 132.816 247.209 133.154 246.941C133.492 246.672 133.743 246.319 133.905 245.882C134.067 245.444 134.149 244.97 134.149 244.46C134.149 243.949 134.067 243.474 133.905 243.033C133.743 242.592 133.492 242.236 133.154 241.964C132.816 241.692 132.385 241.556 131.862 241.556C131.338 241.556 130.907 241.692 130.569 241.964C130.231 242.236 129.981 242.592 129.818 243.033C129.656 243.474 129.575 243.949 129.575 244.46C129.575 244.97 129.656 245.444 129.818 245.882C129.981 246.319 130.231 246.672 130.569 246.941C130.907 247.209 131.338 247.343 131.862 247.343ZM139.996 248.397C139.36 248.397 138.798 248.237 138.311 247.915C137.824 247.59 137.443 247.133 137.168 246.543C136.893 245.95 136.755 245.249 136.755 244.44C136.755 243.638 136.893 242.942 137.168 242.352C137.443 241.762 137.826 241.306 138.316 240.985C138.807 240.663 139.373 240.502 140.016 240.502C140.513 240.502 140.906 240.585 141.195 240.751C141.486 240.913 141.708 241.099 141.861 241.308C142.017 241.513 142.138 241.682 142.224 241.815H142.323V238.056H143.496V248.238H142.363V247.065H142.224C142.138 247.204 142.015 247.38 141.856 247.592C141.697 247.801 141.47 247.988 141.175 248.154C140.88 248.316 140.487 248.397 139.996 248.397ZM140.156 247.343C140.626 247.343 141.024 247.221 141.349 246.975C141.674 246.727 141.92 246.384 142.089 245.946C142.259 245.506 142.343 244.997 142.343 244.42C142.343 243.85 142.26 243.351 142.094 242.924C141.929 242.493 141.683 242.158 141.359 241.919C141.034 241.677 140.633 241.556 140.156 241.556C139.658 241.556 139.244 241.684 138.913 241.939C138.585 242.191 138.338 242.534 138.172 242.968C138.009 243.399 137.928 243.883 137.928 244.42C137.928 244.964 138.011 245.458 138.177 245.902C138.346 246.342 138.594 246.694 138.923 246.956C139.254 247.214 139.665 247.343 140.156 247.343ZM149.01 248.397C148.274 248.397 147.639 248.235 147.106 247.91C146.576 247.582 146.166 247.125 145.878 246.538C145.593 245.948 145.45 245.262 145.45 244.48C145.45 243.698 145.593 243.008 145.878 242.412C146.166 241.812 146.567 241.344 147.081 241.01C147.598 240.672 148.201 240.502 148.891 240.502C149.288 240.502 149.681 240.569 150.069 240.701C150.457 240.834 150.81 241.049 151.128 241.348C151.446 241.643 151.7 242.034 151.888 242.521C152.077 243.008 152.172 243.608 152.172 244.321V244.818H146.286V243.804H150.979C150.979 243.373 150.893 242.988 150.72 242.65C150.551 242.312 150.309 242.045 149.994 241.85C149.683 241.654 149.315 241.556 148.891 241.556C148.423 241.556 148.019 241.672 147.678 241.904C147.339 242.133 147.079 242.431 146.897 242.799C146.715 243.167 146.624 243.562 146.624 243.983V244.659C146.624 245.235 146.723 245.724 146.922 246.125C147.124 246.523 147.404 246.826 147.762 247.035C148.12 247.241 148.536 247.343 149.01 247.343C149.318 247.343 149.597 247.3 149.845 247.214C150.097 247.125 150.314 246.992 150.496 246.816C150.679 246.637 150.82 246.415 150.919 246.15L152.053 246.468C151.933 246.853 151.733 247.191 151.451 247.483C151.169 247.771 150.821 247.996 150.407 248.159C149.993 248.318 149.527 248.397 149.01 248.397ZM154.116 248.238V238.056H155.289V241.815H155.388C155.475 241.682 155.594 241.513 155.746 241.308C155.902 241.099 156.124 240.913 156.413 240.751C156.704 240.585 157.099 240.502 157.596 240.502C158.239 240.502 158.806 240.663 159.296 240.985C159.787 241.306 160.17 241.762 160.445 242.352C160.72 242.942 160.857 243.638 160.857 244.44C160.857 245.249 160.72 245.95 160.445 246.543C160.17 247.133 159.788 247.59 159.301 247.915C158.814 248.237 158.252 248.397 157.616 248.397C157.125 248.397 156.732 248.316 156.438 248.154C156.143 247.988 155.915 247.801 155.756 247.592C155.597 247.38 155.475 247.204 155.388 247.065H155.249V248.238H154.116ZM155.269 244.42C155.269 244.997 155.354 245.506 155.523 245.946C155.692 246.384 155.939 246.727 156.263 246.975C156.588 247.221 156.986 247.343 157.457 247.343C157.947 247.343 158.357 247.214 158.685 246.956C159.016 246.694 159.265 246.342 159.43 245.902C159.599 245.458 159.684 244.964 159.684 244.42C159.684 243.883 159.601 243.399 159.435 242.968C159.273 242.534 159.026 242.191 158.695 241.939C158.366 241.684 157.954 241.556 157.457 241.556C156.979 241.556 156.578 241.677 156.254 241.919C155.929 242.158 155.683 242.493 155.518 242.924C155.352 243.351 155.269 243.85 155.269 244.42ZM164.899 248.417C164.415 248.417 163.976 248.326 163.582 248.144C163.187 247.958 162.874 247.691 162.642 247.343C162.41 246.992 162.294 246.568 162.294 246.071C162.294 245.633 162.38 245.279 162.553 245.007C162.725 244.732 162.955 244.516 163.244 244.36C163.532 244.205 163.85 244.089 164.198 244.012C164.549 243.933 164.902 243.87 165.257 243.824C165.721 243.764 166.097 243.719 166.386 243.689C166.677 243.656 166.889 243.601 167.022 243.525C167.158 243.449 167.226 243.316 167.226 243.127V243.088C167.226 242.597 167.092 242.216 166.823 241.944C166.558 241.672 166.155 241.537 165.615 241.537C165.055 241.537 164.616 241.659 164.298 241.904C163.979 242.15 163.756 242.412 163.626 242.69L162.513 242.292C162.712 241.828 162.977 241.467 163.308 241.208C163.643 240.947 164.008 240.764 164.402 240.662C164.8 240.556 165.191 240.502 165.575 240.502C165.821 240.502 166.102 240.532 166.42 240.592C166.742 240.648 167.052 240.766 167.35 240.945C167.652 241.124 167.902 241.394 168.101 241.755C168.3 242.117 168.399 242.6 168.399 243.207V248.238H167.226V247.204H167.166C167.087 247.37 166.954 247.547 166.768 247.736C166.583 247.925 166.336 248.086 166.028 248.218C165.719 248.351 165.343 248.417 164.899 248.417ZM165.078 247.363C165.542 247.363 165.933 247.272 166.251 247.09C166.573 246.908 166.815 246.672 166.977 246.384C167.143 246.096 167.226 245.792 167.226 245.474V244.4C167.176 244.46 167.067 244.515 166.898 244.564C166.732 244.611 166.54 244.652 166.321 244.689C166.106 244.722 165.895 244.752 165.69 244.778C165.487 244.801 165.323 244.821 165.197 244.838C164.893 244.877 164.607 244.942 164.342 245.032C164.08 245.118 163.868 245.249 163.706 245.424C163.547 245.597 163.467 245.832 163.467 246.13C163.467 246.538 163.618 246.846 163.92 247.055C164.225 247.261 164.611 247.363 165.078 247.363ZM175.95 242.312L174.896 242.61C174.829 242.435 174.732 242.264 174.602 242.098C174.477 241.929 174.304 241.79 174.085 241.681C173.867 241.571 173.587 241.517 173.245 241.517C172.778 241.517 172.388 241.624 172.077 241.84C171.769 242.052 171.615 242.322 171.615 242.65C171.615 242.942 171.721 243.172 171.933 243.341C172.145 243.51 172.476 243.651 172.927 243.764L174.061 244.042C174.743 244.208 175.252 244.462 175.587 244.803C175.922 245.141 176.089 245.577 176.089 246.11C176.089 246.548 175.963 246.939 175.711 247.284C175.463 247.628 175.115 247.9 174.667 248.099C174.22 248.298 173.699 248.397 173.106 248.397C172.327 248.397 171.682 248.228 171.172 247.89C170.662 247.552 170.338 247.058 170.203 246.409L171.316 246.13C171.422 246.541 171.623 246.85 171.918 247.055C172.216 247.261 172.606 247.363 173.086 247.363C173.633 247.363 174.067 247.247 174.389 247.015C174.713 246.78 174.876 246.498 174.876 246.17C174.876 245.905 174.783 245.683 174.597 245.504C174.412 245.322 174.127 245.186 173.742 245.096L172.47 244.798C171.77 244.632 171.257 244.375 170.928 244.027C170.604 243.676 170.441 243.237 170.441 242.71C170.441 242.279 170.562 241.898 170.804 241.566C171.049 241.235 171.383 240.975 171.803 240.786C172.228 240.597 172.708 240.502 173.245 240.502C174.001 240.502 174.594 240.668 175.025 241C175.459 241.331 175.767 241.769 175.95 242.312ZM181.057 248.397C180.321 248.397 179.686 248.235 179.153 247.91C178.622 247.582 178.213 247.125 177.925 246.538C177.64 245.948 177.497 245.262 177.497 244.48C177.497 243.698 177.64 243.008 177.925 242.412C178.213 241.812 178.614 241.344 179.128 241.01C179.645 240.672 180.248 240.502 180.938 240.502C181.335 240.502 181.728 240.569 182.116 240.701C182.504 240.834 182.857 241.049 183.175 241.348C183.493 241.643 183.746 242.034 183.935 242.521C184.124 243.008 184.219 243.608 184.219 244.321V244.818H178.332V243.804H183.026C183.026 243.373 182.939 242.988 182.767 242.65C182.598 242.312 182.356 242.045 182.041 241.85C181.73 241.654 181.362 241.556 180.938 241.556C180.47 241.556 180.066 241.672 179.724 241.904C179.386 242.133 179.126 242.431 178.944 242.799C178.762 243.167 178.67 243.562 178.67 243.983V244.659C178.67 245.235 178.77 245.724 178.969 246.125C179.171 246.523 179.451 246.826 179.809 247.035C180.167 247.241 180.583 247.343 181.057 247.343C181.365 247.343 181.643 247.3 181.892 247.214C182.144 247.125 182.361 246.992 182.543 246.816C182.726 246.637 182.866 246.415 182.966 246.15L184.099 246.468C183.98 246.853 183.78 247.191 183.498 247.483C183.216 247.771 182.868 247.996 182.454 248.159C182.04 248.318 181.574 248.397 181.057 248.397Z" fill="#D4D4D4"/>
</g>
<path d="M252.679 153.046C252.872 152.709 253.301 152.592 253.638 152.784C258.611 155.625 258.678 160.44 258.678 163.703V170.908L263.101 166.486C263.375 166.211 263.82 166.211 264.095 166.486C264.369 166.76 264.369 167.205 264.095 167.479L258.472 173.102C258.198 173.377 257.753 173.377 257.478 173.102L251.856 167.479C251.581 167.205 251.581 166.76 251.856 166.486C252.13 166.211 252.575 166.211 252.85 166.486L257.272 170.908V163.703C257.272 160.406 257.152 156.411 252.941 154.005C252.604 153.812 252.487 153.383 252.679 153.046Z" fill="#A3A3A3"/>
<path d="M268.545 196.078H247.745C246.315 196.078 245.158 197.248 245.158 198.678L245.145 214.278C245.145 215.708 246.315 216.878 247.745 216.878H268.545C269.975 216.878 271.145 215.708 271.145 214.278V198.678C271.145 197.248 269.975 196.078 268.545 196.078ZM262.045 214.278H247.745V209.078H262.045V214.278ZM262.045 207.778H247.745V202.578H262.045V207.778ZM268.545 214.278H263.345V202.578H268.545V214.278Z" fill="#FAFAFA"/>
<path d="M233.582 248L230.798 237.818H232.051L234.179 246.111H234.278L236.446 237.818H237.838L240.006 246.111H240.105L242.233 237.818H243.486L240.702 248H239.429L237.182 239.886H237.102L234.855 248H233.582ZM247.354 248.159C246.618 248.159 245.983 247.997 245.45 247.672C244.919 247.344 244.51 246.886 244.222 246.3C243.937 245.71 243.794 245.024 243.794 244.241C243.794 243.459 243.937 242.77 244.222 242.173C244.51 241.573 244.911 241.106 245.425 240.771C245.942 240.433 246.545 240.264 247.234 240.264C247.632 240.264 248.025 240.33 248.413 240.463C248.8 240.596 249.153 240.811 249.472 241.109C249.79 241.404 250.043 241.795 250.232 242.283C250.421 242.77 250.516 243.37 250.516 244.082V244.58H244.629V243.565H249.322C249.322 243.134 249.236 242.75 249.064 242.412C248.895 242.074 248.653 241.807 248.338 241.612C248.027 241.416 247.659 241.318 247.234 241.318C246.767 241.318 246.363 241.434 246.021 241.666C245.683 241.895 245.423 242.193 245.241 242.561C245.058 242.929 244.967 243.323 244.967 243.744V244.42C244.967 244.997 245.067 245.486 245.266 245.887C245.468 246.285 245.748 246.588 246.106 246.797C246.464 247.002 246.88 247.105 247.354 247.105C247.662 247.105 247.94 247.062 248.189 246.976C248.441 246.886 248.658 246.754 248.84 246.578C249.022 246.399 249.163 246.177 249.263 245.912L250.396 246.23C250.277 246.615 250.076 246.953 249.795 247.244C249.513 247.533 249.165 247.758 248.751 247.92C248.336 248.08 247.871 248.159 247.354 248.159ZM252.46 248V237.818H253.633V241.577H253.732C253.818 241.444 253.938 241.275 254.09 241.07C254.246 240.861 254.468 240.675 254.756 240.513C255.048 240.347 255.442 240.264 255.94 240.264C256.583 240.264 257.149 240.425 257.64 240.746C258.13 241.068 258.513 241.524 258.788 242.114C259.063 242.704 259.201 243.4 259.201 244.202C259.201 245.01 259.063 245.711 258.788 246.305C258.513 246.895 258.132 247.352 257.645 247.677C257.158 247.998 256.596 248.159 255.96 248.159C255.469 248.159 255.076 248.078 254.781 247.915C254.486 247.75 254.259 247.562 254.1 247.354C253.941 247.142 253.818 246.966 253.732 246.827H253.593V248H252.46ZM253.613 244.182C253.613 244.759 253.697 245.267 253.866 245.708C254.036 246.146 254.282 246.489 254.607 246.737C254.932 246.982 255.33 247.105 255.8 247.105C256.291 247.105 256.7 246.976 257.028 246.717C257.36 246.455 257.608 246.104 257.774 245.663C257.943 245.219 258.028 244.725 258.028 244.182C258.028 243.645 257.945 243.161 257.779 242.73C257.617 242.296 257.37 241.953 257.038 241.701C256.71 241.446 256.298 241.318 255.8 241.318C255.323 241.318 254.922 241.439 254.597 241.681C254.272 241.92 254.027 242.254 253.862 242.685C253.696 243.113 253.613 243.612 253.613 244.182ZM266.405 242.074L265.351 242.372C265.285 242.196 265.187 242.026 265.058 241.86C264.932 241.691 264.759 241.552 264.54 241.442C264.322 241.333 264.042 241.278 263.7 241.278C263.233 241.278 262.844 241.386 262.532 241.602C262.224 241.814 262.07 242.084 262.07 242.412C262.07 242.704 262.176 242.934 262.388 243.103C262.6 243.272 262.931 243.413 263.382 243.526L264.516 243.804C265.198 243.97 265.707 244.223 266.042 244.565C266.377 244.903 266.544 245.339 266.544 245.872C266.544 246.31 266.418 246.701 266.166 247.045C265.918 247.39 265.57 247.662 265.122 247.861C264.675 248.06 264.154 248.159 263.561 248.159C262.782 248.159 262.138 247.99 261.627 247.652C261.117 247.314 260.794 246.82 260.658 246.17L261.771 245.892C261.877 246.303 262.078 246.611 262.373 246.817C262.671 247.022 263.061 247.125 263.541 247.125C264.088 247.125 264.522 247.009 264.844 246.777C265.169 246.542 265.331 246.26 265.331 245.932C265.331 245.667 265.238 245.445 265.053 245.266C264.867 245.083 264.582 244.947 264.197 244.858L262.925 244.56C262.225 244.394 261.712 244.137 261.384 243.789C261.059 243.438 260.896 242.999 260.896 242.472C260.896 242.041 261.017 241.66 261.259 241.328C261.504 240.997 261.838 240.737 262.259 240.548C262.683 240.359 263.163 240.264 263.7 240.264C264.456 240.264 265.049 240.43 265.48 240.761C265.914 241.093 266.223 241.53 266.405 242.074ZM268.31 248V240.364H269.483V248H268.31ZM268.907 239.091C268.678 239.091 268.481 239.013 268.315 238.857C268.153 238.701 268.072 238.514 268.072 238.295C268.072 238.077 268.153 237.889 268.315 237.734C268.481 237.578 268.678 237.5 268.907 237.5C269.135 237.5 269.331 237.578 269.493 237.734C269.659 237.889 269.742 238.077 269.742 238.295C269.742 238.514 269.659 238.701 269.493 238.857C269.331 239.013 269.135 239.091 268.907 239.091ZM274.953 240.364V241.358H270.996V240.364H274.953ZM272.15 238.534H273.323V245.812C273.323 246.144 273.371 246.393 273.467 246.558C273.566 246.721 273.692 246.83 273.845 246.886C274.001 246.939 274.165 246.966 274.337 246.966C274.466 246.966 274.572 246.959 274.655 246.946C274.738 246.929 274.804 246.916 274.854 246.906L275.093 247.96C275.013 247.99 274.902 248.02 274.76 248.05C274.617 248.083 274.436 248.099 274.218 248.099C273.886 248.099 273.561 248.028 273.243 247.886C272.928 247.743 272.667 247.526 272.458 247.234C272.252 246.943 272.15 246.575 272.15 246.131V238.534ZM279.838 248.159C279.102 248.159 278.468 247.997 277.934 247.672C277.404 247.344 276.994 246.886 276.706 246.3C276.421 245.71 276.278 245.024 276.278 244.241C276.278 243.459 276.421 242.77 276.706 242.173C276.994 241.573 277.395 241.106 277.909 240.771C278.426 240.433 279.029 240.264 279.719 240.264C280.116 240.264 280.509 240.33 280.897 240.463C281.285 240.596 281.638 240.811 281.956 241.109C282.274 241.404 282.528 241.795 282.717 242.283C282.906 242.77 283 243.37 283 244.082V244.58H277.114V243.565H281.807C281.807 243.134 281.721 242.75 281.548 242.412C281.379 242.074 281.137 241.807 280.822 241.612C280.511 241.416 280.143 241.318 279.719 241.318C279.251 241.318 278.847 241.434 278.506 241.666C278.168 241.895 277.907 242.193 277.725 242.561C277.543 242.929 277.452 243.323 277.452 243.744V244.42C277.452 244.997 277.551 245.486 277.75 245.887C277.952 246.285 278.232 246.588 278.59 246.797C278.948 247.002 279.364 247.105 279.838 247.105C280.146 247.105 280.425 247.062 280.673 246.976C280.925 246.886 281.142 246.754 281.325 246.578C281.507 246.399 281.648 246.177 281.747 245.912L282.881 246.23C282.761 246.615 282.561 246.953 282.279 247.244C281.997 247.533 281.649 247.758 281.235 247.92C280.821 248.08 280.355 248.159 279.838 248.159Z" fill="#D4D4D4"/>
<defs>
<filter id="filter0_d_10695_24528" x="52.5" y="109" width="193" height="46" filterUnits="userSpaceOnUse" color-interpolation-filters="sRGB">
<feFlood flood-opacity="0" result="BackgroundImageFix"/>
<feColorMatrix in="SourceAlpha" type="matrix" values="0 0 0 0 0 0 0 0 0 0 0 0 0 0 0 0 0 0 127 0" result="hardAlpha"/>
<feOffset dy="3"/>
<feGaussianBlur stdDeviation="5"/>
<feComposite in2="hardAlpha" operator="out"/>
<feColorMatrix type="matrix" values="0 0 0 0 0.14902 0 0 0 0 0.14902 0 0 0 0 0.14902 0 0 0 0.2 0"/>
<feBlend mode="normal" in2="BackgroundImageFix" result="effect1_dropShadow_10695_24528"/>
<feBlend mode="normal" in="SourceGraphic" in2="effect1_dropShadow_10695_24528" result="shape"/>
</filter>
<clipPath id="clip0_10695_24528">
<rect width="84" height="70" fill="white" transform="translate(109.5 184.238)"/>
</clipPath>
<clipPath id="clip1_10695_24528">
<rect width="26.2394" height="26.2392" fill="white" transform="translate(138.504 193.152)"/>
</clipPath>
<clipPath id="clip2_10695_24528">
<rect width="26" height="26" fill="white" transform="translate(138.145 193.312)"/>
</clipPath>
</defs>
</svg>
