<svg width="25" height="24" viewBox="0 0 25 24" fill="none" xmlns="http://www.w3.org/2000/svg">
<path d="M16.9297 14.5C16.9297 16.5 14.4297 18 14.4297 19.5H12.4297C12.4297 18 9.92969 16.5 9.92969 14.5C9.92969 12.57 11.4997 11 13.4297 11C15.3597 11 16.9297 12.57 16.9297 14.5ZM14.4297 20.5H12.4297V22H14.4297V20.5ZM20.4297 14C20.4297 15.68 19.8397 17.21 18.8497 18.42L20.2697 19.84C21.6097 18.27 22.4297 16.23 22.4297 14C22.4297 11.26 21.1997 8.81 19.2697 7.16L17.8497 8.58C19.4197 9.86 20.4297 11.82 20.4297 14ZM17.4297 6L13.4297 2V5C8.45969 5 4.42969 9.03 4.42969 14C4.42969 16.23 5.24969 18.27 6.58969 19.84L8.00969 18.42C7.01969 17.21 6.42969 15.68 6.42969 14C6.42969 10.14 9.56969 7 13.4297 7V10L17.4297 6Z" fill="#FAFAFA"/>
</svg>
