<svg width="25" height="24" viewBox="0 0 25 24" fill="none" xmlns="http://www.w3.org/2000/svg">
<path fillRule="evenodd" clipRule="evenodd" d="M8.7253 0.00111761C7.75745 0.000400263 6.81449 0.307796 6.03301 0.878783C5.25152 1.44977 4.67209 2.2547 4.37863 3.17699C4.08517 4.09928 4.09291 5.09105 4.40075 6.00864C4.70858 6.92624 5.30052 7.72202 6.09083 8.28073C5.4958 8.70163 5.01053 9.25925 4.67583 9.9067C4.34112 10.5542 4.16677 11.2725 4.16744 12.0014C4.16744 13.5374 4.92764 14.897 6.09306 15.722C5.45462 16.1739 4.94323 16.7826 4.60809 17.4893C4.27295 18.1961 4.12535 18.9772 4.17949 19.7576C4.23362 20.5379 4.48767 21.2912 4.91719 21.9449C5.34671 22.5986 5.93724 23.1308 6.63197 23.4903C7.3267 23.8497 8.10225 24.0243 8.88399 23.9973C9.66573 23.9702 10.4274 23.7425 11.0956 23.3359C11.7638 22.9293 12.3162 22.3576 12.6995 21.6757C13.0828 20.9939 13.2842 20.2248 13.2843 19.4426V15.5311C13.7585 15.9153 14.3049 16.2003 14.8913 16.3693C15.4777 16.5382 16.0921 16.5877 16.698 16.5148C17.3039 16.4419 17.889 16.2481 18.4185 15.9448C18.9481 15.6415 19.4114 15.235 19.7809 14.7493C20.1504 14.2636 20.4186 13.7087 20.5696 13.1174C20.7206 12.5261 20.7513 11.9105 20.6599 11.3071C20.5685 10.7037 20.3569 10.1249 20.0376 9.6048C19.7183 9.08474 19.2978 8.6341 18.801 8.27961C19.5913 7.7209 20.1833 6.92512 20.4911 6.00753C20.799 5.08993 20.8067 4.09817 20.5132 3.17587C20.2198 2.25358 19.6403 1.44865 18.8589 0.877666C18.0774 0.30668 17.1344 -0.000716091 16.1666 1.25265e-06H8.72753L8.7253 0.00111761ZM11.6087 14.8848H8.7253C8.34665 14.8848 7.9717 14.8102 7.62187 14.6653C7.27204 14.5204 6.95417 14.308 6.68642 14.0402C6.41867 13.7725 6.20628 13.4546 6.06138 13.1048C5.91647 12.755 5.84189 12.38 5.84189 12.0014C5.84189 11.6227 5.91647 11.2478 6.06138 10.8979C6.20628 10.5481 6.41867 10.2302 6.68642 9.96248C6.95417 9.69473 7.27204 9.48234 7.62187 9.33744C7.9717 9.19253 8.34665 9.11795 8.7253 9.11795H11.6087V14.8848ZM8.7253 7.4435H11.6087V1.67557H8.7253C7.96042 1.67557 7.22688 1.97942 6.68603 2.52026C6.14518 3.06111 5.84133 3.79466 5.84133 4.55953C5.84133 5.32441 6.14518 6.05796 6.68603 6.59881C7.22688 7.13965 7.96042 7.4435 8.7253 7.4435ZM19.0511 4.55898C19.0514 5.32332 18.7482 6.0565 18.2081 6.59739C17.6681 7.13828 16.9354 7.44261 16.171 7.4435H13.2832V1.67557H16.1677C16.5463 1.67557 16.9213 1.75015 17.2711 1.89506C17.6209 2.03996 17.9388 2.25235 18.2066 2.5201C18.4743 2.78785 18.6867 3.10571 18.8316 3.45554C18.9765 3.80538 19.0511 4.18032 19.0511 4.55898ZM13.2832 11.998C13.284 11.2344 13.5878 10.5024 14.1277 9.96248C14.6676 9.42256 15.3997 9.11884 16.1632 9.11795H16.1699C16.7399 9.11861 17.2969 9.2882 17.7706 9.60529C18.2442 9.92238 18.6133 10.3727 18.8311 10.8995C19.0489 11.4262 19.1058 12.0057 18.9944 12.5647C18.883 13.1237 18.6085 13.6372 18.2054 14.0402C17.8024 14.4433 17.2889 14.7178 16.7299 14.8292C16.1709 14.9406 15.5914 14.8837 15.0647 14.6659C14.5379 14.4481 14.0876 14.079 13.7705 13.6054C13.4534 13.1317 13.2838 12.5747 13.2832 12.0047V11.998ZM8.7253 16.5592C8.15506 16.5592 7.59763 16.7283 7.12348 17.0451C6.64933 17.3619 6.27976 17.8121 6.06149 18.3389C5.84322 18.8657 5.78605 19.4454 5.89722 20.0047C6.00838 20.564 6.28289 21.0778 6.68603 21.4811C7.08917 21.8844 7.60284 22.1591 8.16209 22.2705C8.72134 22.3819 9.30107 22.3249 9.82796 22.1069C10.3549 21.8888 10.8053 21.5194 11.1222 21.0454C11.4392 20.5713 11.6085 20.014 11.6087 19.4437V16.5592H8.7253Z" fill="#FAFAFA"/>
</svg>
