<svg width="25" height="24" viewBox="0 0 25 24" fill="none" xmlns="http://www.w3.org/2000/svg">
<path fillRule="evenodd" clipRule="evenodd" d="M14.8712 1.29289C14.6836 1.10536 14.4293 1 14.1641 1H6.16406C4.50716 1 3.16406 2.34315 3.16406 4V20C3.16406 21.6569 4.50716 23 6.16406 23H18.1641C19.8209 23 21.1641 21.6569 21.1641 20V8C21.1641 7.73478 21.0587 7.48043 20.8712 7.29289L14.8712 1.29289ZM6.16406 3H13.1641V8C13.1641 8.55228 13.6118 9 14.1641 9H19.1641V20C19.1641 20.5523 18.7163 21 18.1641 21H6.16406C5.61176 21 5.16406 20.5523 5.16406 20V4C5.16406 3.44772 5.61176 3 6.16406 3ZM17.7499 7H15.1641V4.41421L17.7499 7ZM17.1641 13C17.1641 12.4477 16.7163 12 16.1641 12H8.16406C7.61176 12 7.16406 12.4477 7.16406 13C7.16406 13.5523 7.61176 14 8.16406 14H16.1641C16.7163 14 17.1641 13.5523 17.1641 13ZM17.1641 17C17.1641 16.4477 16.7163 16 16.1641 16H8.16406C7.61176 16 7.16406 16.4477 7.16406 17C7.16406 17.5523 7.61176 18 8.16406 18H16.1641C16.7163 18 17.1641 17.5523 17.1641 17Z" fill="#FAFAFA"/>
</svg>
