<svg width="25" height="24" viewBox="0 0 25 24" fill="none" xmlns="http://www.w3.org/2000/svg">
<path fillRule="evenodd" clipRule="evenodd" d="M12.2188 2L7.70117 6.51758L12.2188 11.0352L16.7363 6.51758L12.2188 2ZM12.2188 8.77637L9.95996 6.51758L12.2188 4.25879L14.4775 6.51758L12.2188 8.77637ZM6.57178 7.64697L2.0542 12.1646L6.57178 16.6821L11.0894 12.1646L6.57178 7.64697ZM6.57178 14.4233L4.31299 12.1646L6.57178 9.90576L8.83057 12.1646L6.57178 14.4233ZM17.8657 7.64697L13.3481 12.1646L17.8657 16.6821L22.3833 12.1646L17.8657 7.64697ZM17.8657 14.4233L15.6069 12.1646L17.8657 9.90576L20.1245 12.1646L17.8657 14.4233ZM12.2188 13.2939L7.70117 17.8115L12.2188 22.3291L16.7363 17.8115L12.2188 13.2939ZM12.2188 20.0703L9.95996 17.8115L12.2188 15.5527L14.4775 17.8115L12.2188 20.0703Z" fill="#FAFAFA"/>
</svg>
