<svg width="375" height="54" viewBox="0 0 375 54" fill="none" xmlns="http://www.w3.org/2000/svg">
<g clipPath="url(#clip0_10695_24485)">
<path d="M40.2355 9.23348C40.2355 4.47634 36.3998 0.640625 31.6641 0.640625C26.9283 0.640625 23.0926 4.47634 23.0926 9.21205C23.0926 9.21205 23.0926 9.21205 23.0926 9.23348C21.1855 9.34062 19.6641 10.9263 19.6641 12.8549V13.2835C19.6641 15.2978 21.2926 16.9263 23.3069 16.9263H23.4998L25.0212 19.3478C26.0926 21.0621 27.9141 22.0692 29.9283 22.0692H30.2283C30.4212 22.7978 31.0855 23.3549 31.8783 23.3549C32.8212 23.3549 33.5926 22.5835 33.5926 21.6406C33.5926 20.6978 32.8212 19.9263 31.8783 19.9263C31.0855 19.9263 30.4212 20.4835 30.2283 21.2121H29.9283C28.2141 21.2121 26.6498 20.3335 25.7498 18.8763L24.5069 16.9263H24.8069C25.2783 16.9263 25.6641 16.5406 25.6641 16.0692V10.0692C25.6641 9.59777 25.2783 9.21205 24.8069 9.21205H23.9498C23.9498 4.94777 27.3998 1.49777 31.6641 1.49777C35.9283 1.49777 39.3783 4.94777 39.3783 9.21205H38.5212C38.0498 9.21205 37.6641 9.59777 37.6641 10.0692V16.0692C37.6641 16.5406 38.0498 16.9263 38.5212 16.9263H40.0212C42.0355 16.9263 43.6641 15.2978 43.6641 13.2835V12.8549C43.6641 10.9263 42.1426 9.34062 40.2355 9.23348ZM31.8783 20.7835C32.3498 20.7835 32.7355 21.1692 32.7355 21.6406C32.7355 22.1121 32.3498 22.4978 31.8783 22.4978C31.4069 22.4978 31.0212 22.1121 31.0212 21.6406C31.0212 21.1692 31.4069 20.7835 31.8783 20.7835ZM24.8069 10.0692V16.0692H23.3069C21.7641 16.0692 20.5212 14.8263 20.5212 13.2835V12.8549C20.5212 11.3121 21.7641 10.0692 23.3069 10.0692H24.8069ZM42.8069 13.2835C42.8069 14.8263 41.5641 16.0692 40.0212 16.0692H38.5212V10.0692H40.0212C41.5641 10.0692 42.8069 11.3121 42.8069 12.8549V13.2835Z" fill="#FAFAFA"/>
<path d="M35.2201 3.87791C35.1772 3.85648 35.1129 3.81362 35.0486 3.77077C34.9844 3.72791 34.9201 3.68505 34.8772 3.66362C34.6844 3.53505 34.4058 3.59934 34.2986 3.81362C34.1915 4.02791 34.2344 4.26362 34.4486 4.3922C34.4915 4.41362 34.5558 4.45648 34.6201 4.49934C34.6844 4.5422 34.7486 4.58505 34.8129 4.60648C34.8772 4.64934 34.9629 4.67077 35.0272 4.67077C35.1772 4.67077 35.3058 4.60648 35.3915 4.45648C35.4986 4.26362 35.4344 4.00648 35.2201 3.87791Z" fill="#FAFAFA"/>
<path d="M31.6623 2.78516C29.8408 2.78516 28.1265 3.57801 26.948 4.94944C26.798 5.12087 26.8194 5.39944 26.9908 5.54944C27.0765 5.61373 27.1623 5.65658 27.2694 5.65658C27.398 5.65658 27.5051 5.61373 27.5908 5.50659C28.6194 4.32801 30.098 3.6423 31.6623 3.6423C32.048 3.6423 32.4337 3.68516 32.8194 3.77087C33.0551 3.81373 33.2694 3.66373 33.3337 3.44944C33.398 3.23516 33.2265 2.99944 33.0123 2.93516C32.5623 2.82801 32.1123 2.78516 31.6623 2.78516Z" fill="#FAFAFA"/>
</g>
<path d="M12.147 42.0739L11.093 42.3722C11.0268 42.1965 10.929 42.0258 10.7997 41.8601C10.6738 41.6911 10.5014 41.5518 10.2827 41.4425C10.0639 41.3331 9.78385 41.2784 9.44247 41.2784C8.97514 41.2784 8.5857 41.3861 8.27415 41.6016C7.96591 41.8137 7.81179 42.0838 7.81179 42.4119C7.81179 42.7036 7.91785 42.9339 8.12997 43.103C8.34209 43.272 8.67353 43.4129 9.12429 43.5256L10.2578 43.804C10.9406 43.9697 11.4493 44.2232 11.7841 44.5646C12.1188 44.9027 12.2862 45.3385 12.2862 45.8722C12.2862 46.3097 12.1603 46.7008 11.9084 47.0455C11.6598 47.3902 11.3118 47.6619 10.8643 47.8608C10.4169 48.0597 9.89654 48.1591 9.30327 48.1591C8.52438 48.1591 7.87973 47.9901 7.36932 47.652C6.8589 47.3139 6.53575 46.8201 6.39986 46.1705L7.51349 45.892C7.61955 46.303 7.82008 46.6113 8.11506 46.8168C8.41335 47.0223 8.80279 47.125 9.28338 47.125C9.83026 47.125 10.2644 47.009 10.5859 46.777C10.9107 46.5417 11.0732 46.2599 11.0732 45.9318C11.0732 45.6667 10.9804 45.4446 10.7947 45.2656C10.6091 45.0833 10.3241 44.9474 9.93963 44.858L8.6669 44.5597C7.96757 44.3939 7.45384 44.1371 7.12571 43.7891C6.8009 43.4377 6.63849 42.9986 6.63849 42.4716C6.63849 42.0407 6.75947 41.6596 7.00142 41.3281C7.24669 40.9967 7.57978 40.7365 8.00071 40.5476C8.42495 40.3587 8.90554 40.2642 9.44247 40.2642C10.1982 40.2642 10.7914 40.4299 11.2223 40.7614C11.6565 41.0928 11.9647 41.5303 12.147 42.0739ZM18.8649 44.8778V40.3636H20.0382V48H18.8649V46.7074H18.7853C18.6064 47.0952 18.3279 47.425 17.9501 47.6967C17.5723 47.9652 17.095 48.0994 16.5183 48.0994C16.041 48.0994 15.6168 47.995 15.2456 47.7862C14.8743 47.5741 14.5827 47.2559 14.3706 46.8317C14.1584 46.4041 14.0524 45.8655 14.0524 45.2159V40.3636H15.2257V45.1364C15.2257 45.6932 15.3815 46.1373 15.693 46.4688C16.0079 46.8002 16.4089 46.9659 16.8961 46.9659C17.1878 46.9659 17.4844 46.8913 17.786 46.7422C18.091 46.593 18.3462 46.3643 18.5517 46.0561C18.7605 45.7479 18.8649 45.3551 18.8649 44.8778ZM22.1871 50.8636V40.3636H23.3207V41.5767H23.4599C23.546 41.4441 23.6654 41.2751 23.8178 41.0696C23.9736 40.8608 24.1957 40.6752 24.484 40.5128C24.7757 40.3471 25.1701 40.2642 25.6673 40.2642C26.3103 40.2642 26.877 40.425 27.3675 40.7464C27.8581 41.0679 28.2409 41.5237 28.516 42.1136C28.7911 42.7036 28.9286 43.3996 28.9286 44.2017C28.9286 45.0104 28.7911 45.7114 28.516 46.3047C28.2409 46.8946 27.8597 47.352 27.3725 47.6768C26.8853 47.9983 26.3235 48.1591 25.6871 48.1591C25.1966 48.1591 24.8039 48.0779 24.5089 47.9155C24.2139 47.7498 23.9869 47.5625 23.8278 47.3537C23.6687 47.1416 23.546 46.9659 23.4599 46.8267H23.3604V50.8636H22.1871ZM23.3406 44.1818C23.3406 44.7585 23.4251 45.2673 23.5941 45.7081C23.7631 46.1456 24.0101 46.4886 24.3349 46.7372C24.6597 46.9825 25.0574 47.1051 25.5281 47.1051C26.0186 47.1051 26.4279 46.9759 26.756 46.7173C27.0875 46.4555 27.3361 46.1042 27.5018 45.6634C27.6708 45.2192 27.7553 44.7254 27.7553 44.1818C27.7553 43.6449 27.6725 43.161 27.5067 42.7301C27.3443 42.2959 27.0974 41.9529 26.766 41.701C26.4379 41.4458 26.0252 41.3182 25.5281 41.3182C25.0508 41.3182 24.6497 41.4392 24.3249 41.6811C24.0001 41.9197 23.7549 42.2545 23.5891 42.6854C23.4234 43.1129 23.3406 43.6117 23.3406 44.1818ZM30.7184 50.8636V40.3636H31.8519V41.5767H31.9911C32.0773 41.4441 32.1966 41.2751 32.3491 41.0696C32.5049 40.8608 32.7269 40.6752 33.0153 40.5128C33.3069 40.3471 33.7013 40.2642 34.1985 40.2642C34.8415 40.2642 35.4083 40.425 35.8988 40.7464C36.3893 41.0679 36.7721 41.5237 37.0472 42.1136C37.3223 42.7036 37.4599 43.3996 37.4599 44.2017C37.4599 45.0104 37.3223 45.7114 37.0472 46.3047C36.7721 46.8946 36.391 47.352 35.9038 47.6768C35.4165 47.9983 34.8548 48.1591 34.2184 48.1591C33.7279 48.1591 33.3351 48.0779 33.0401 47.9155C32.7451 47.7498 32.5181 47.5625 32.359 47.3537C32.1999 47.1416 32.0773 46.9659 31.9911 46.8267H31.8917V50.8636H30.7184ZM31.8718 44.1818C31.8718 44.7585 31.9563 45.2673 32.1254 45.7081C32.2944 46.1456 32.5413 46.4886 32.8661 46.7372C33.1909 46.9825 33.5887 47.1051 34.0593 47.1051C34.5498 47.1051 34.9592 46.9759 35.2873 46.7173C35.6187 46.4555 35.8673 46.1042 36.033 45.6634C36.2021 45.2192 36.2866 44.7254 36.2866 44.1818C36.2866 43.6449 36.2037 43.161 36.038 42.7301C35.8756 42.2959 35.6287 41.9529 35.2972 41.701C34.9691 41.4458 34.5565 41.3182 34.0593 41.3182C33.582 41.3182 33.181 41.4392 32.8562 41.6811C32.5314 41.9197 32.2861 42.2545 32.1204 42.6854C31.9547 43.1129 31.8718 43.6117 31.8718 44.1818ZM42.3519 48.1591C41.6625 48.1591 41.0576 47.995 40.5373 47.6669C40.0202 47.3388 39.6159 46.8797 39.3242 46.2898C39.0359 45.6998 38.8917 45.0104 38.8917 44.2216C38.8917 43.4261 39.0359 42.7318 39.3242 42.1385C39.6159 41.5452 40.0202 41.0845 40.5373 40.7564C41.0576 40.4283 41.6625 40.2642 42.3519 40.2642C43.0413 40.2642 43.6445 40.4283 44.1616 40.7564C44.6819 41.0845 45.0863 41.5452 45.3746 42.1385C45.6663 42.7318 45.8121 43.4261 45.8121 44.2216C45.8121 45.0104 45.6663 45.6998 45.3746 46.2898C45.0863 46.8797 44.6819 47.3388 44.1616 47.6669C43.6445 47.995 43.0413 48.1591 42.3519 48.1591ZM42.3519 47.1051C42.8756 47.1051 43.3065 46.9709 43.6445 46.7024C43.9826 46.4339 44.2328 46.081 44.3952 45.6435C44.5576 45.206 44.6388 44.732 44.6388 44.2216C44.6388 43.7112 44.5576 43.2356 44.3952 42.7947C44.2328 42.3539 43.9826 41.9976 43.6445 41.7259C43.3065 41.4541 42.8756 41.3182 42.3519 41.3182C41.8282 41.3182 41.3974 41.4541 41.0593 41.7259C40.7212 41.9976 40.471 42.3539 40.3086 42.7947C40.1462 43.2356 40.065 43.7112 40.065 44.2216C40.065 44.732 40.1462 45.206 40.3086 45.6435C40.471 46.081 40.7212 46.4339 41.0593 46.7024C41.3974 46.9709 41.8282 47.1051 42.3519 47.1051ZM47.6032 48V40.3636H48.7367V41.517H48.8162C48.9554 41.1392 49.2073 40.8326 49.5719 40.5973C49.9365 40.362 50.3475 40.2443 50.8049 40.2443C50.891 40.2443 50.9988 40.246 51.128 40.2493C51.2573 40.2526 51.3551 40.2576 51.4213 40.2642V41.4574C51.3816 41.4474 51.2904 41.4325 51.1479 41.4126C51.0087 41.3894 50.8612 41.3778 50.7054 41.3778C50.3342 41.3778 50.0028 41.4557 49.7111 41.6115C49.4228 41.764 49.1941 41.9761 49.025 42.2479C48.8593 42.5163 48.7765 42.8229 48.7765 43.1676V48H47.6032ZM56.6117 40.3636V41.358H52.6543V40.3636H56.6117ZM53.8077 38.5341H54.981V45.8125C54.981 46.1439 55.0291 46.3925 55.1252 46.5582C55.2246 46.7206 55.3506 46.83 55.503 46.8864C55.6588 46.9394 55.8229 46.9659 55.9952 46.9659C56.1245 46.9659 56.2305 46.9593 56.3134 46.946C56.3962 46.9295 56.4625 46.9162 56.5123 46.9062L56.7509 47.9602C56.6713 47.9901 56.5603 48.0199 56.4178 48.0497C56.2753 48.0829 56.0946 48.0994 55.8759 48.0994C55.5444 48.0994 55.2196 48.0282 54.9015 47.8857C54.5866 47.7431 54.3248 47.526 54.1159 47.2344C53.9105 46.9427 53.8077 46.5748 53.8077 46.1307V38.5341Z" fill="#D4D4D4"/>
<path fillRule="evenodd" clipRule="evenodd" d="M81.1654 21.168C81.6256 21.168 81.9987 21.5411 81.9987 22.0013V26.168H86.1654C86.6256 26.168 86.9987 26.5411 86.9987 27.0013C86.9987 27.4615 86.6256 27.8346 86.1654 27.8346H81.9987V32.0013C81.9987 32.4615 81.6256 32.8346 81.1654 32.8346C80.7051 32.8346 80.332 32.4615 80.332 32.0013V27.8346H76.1654C75.7051 27.8346 75.332 27.4615 75.332 27.0013C75.332 26.5411 75.7051 26.168 76.1654 26.168H80.332V22.0013C80.332 21.5411 80.7051 21.168 81.1654 21.168Z" fill="#FAFAFA"/>
<path fillRule="evenodd" clipRule="evenodd" d="M121.711 11.6759C121.711 16.5467 125.242 19.8646 129.208 20.5514C129.662 20.6299 129.966 21.0614 129.887 21.5154C129.809 21.9691 129.377 22.2733 128.923 22.1947C124.265 21.388 120.043 17.4614 120.043 11.6759C120.043 9.21726 121.162 7.28503 122.468 5.81514C123.404 4.7622 124.474 3.90727 125.335 3.25234H122.717C122.275 3.25234 121.917 2.89417 121.917 2.45234C121.917 2.01052 122.275 1.65234 122.717 1.65234H127.517C127.959 1.65234 128.317 2.01052 128.317 2.45234V7.25234C128.317 7.69417 127.959 8.05234 127.517 8.05234C127.075 8.05234 126.717 7.69417 126.717 7.25234V4.29943L126.714 4.30126C125.8 4.99087 124.683 5.83372 123.714 6.92303C122.571 8.20945 121.711 9.76358 121.711 11.6759ZM139.483 12.3262C139.483 7.50695 136.026 4.20847 132.112 3.47358C131.659 3.3886 131.361 2.95278 131.446 2.50012C131.531 2.04748 131.967 1.74943 132.419 1.83441C137.018 2.69777 141.151 6.60279 141.151 12.3262C141.151 14.7849 140.032 16.7171 138.726 18.187C137.79 19.24 136.72 20.0949 135.859 20.7499H138.477C138.919 20.7499 139.277 21.108 139.277 21.5499C139.277 21.9917 138.919 22.3499 138.477 22.3499H133.677C133.235 22.3499 132.877 21.9917 132.877 21.5499V16.7499C132.877 16.308 133.235 15.9498 133.677 15.9498C134.119 15.9498 134.477 16.308 134.477 16.7499V19.7027L134.479 19.7008C135.394 19.0112 136.511 18.1685 137.479 17.0792C138.623 15.7927 139.483 14.2386 139.483 12.3262Z" fill="#FAFAFA" stroke="#FAFAFA" strokeWidth="0.00015"/>
<path d="M109.55 44.8778V40.3636H110.724V48H109.55V46.7074H109.471C109.292 47.0952 109.013 47.425 108.636 47.6967C108.258 47.9652 107.781 48.0994 107.204 48.0994C106.727 48.0994 106.302 47.995 105.931 47.7862C105.56 47.5741 105.268 47.2559 105.056 46.8317C104.844 46.4041 104.738 45.8655 104.738 45.2159V40.3636H105.911V45.1364C105.911 45.6932 106.067 46.1373 106.379 46.4688C106.693 46.8002 107.094 46.9659 107.582 46.9659C107.873 46.9659 108.17 46.8913 108.472 46.7422C108.777 46.593 109.032 46.3643 109.237 46.0561C109.446 45.7479 109.55 45.3551 109.55 44.8778ZM112.873 50.8636V40.3636H114.006V41.5767H114.145C114.232 41.4441 114.351 41.2751 114.503 41.0696C114.659 40.8608 114.881 40.6752 115.17 40.5128C115.461 40.3471 115.856 40.2642 116.353 40.2642C116.996 40.2642 117.563 40.425 118.053 40.7464C118.544 41.0679 118.926 41.5237 119.202 42.1136C119.477 42.7036 119.614 43.3996 119.614 44.2017C119.614 45.0104 119.477 45.7114 119.202 46.3047C118.926 46.8946 118.545 47.352 118.058 47.6768C117.571 47.9983 117.009 48.1591 116.373 48.1591C115.882 48.1591 115.489 48.0779 115.194 47.9155C114.899 47.7498 114.672 47.5625 114.513 47.3537C114.354 47.1416 114.232 46.9659 114.145 46.8267H114.046V50.8636H112.873ZM114.026 44.1818C114.026 44.7585 114.111 45.2673 114.28 45.7081C114.449 46.1456 114.696 46.4886 115.02 46.7372C115.345 46.9825 115.743 47.1051 116.214 47.1051C116.704 47.1051 117.113 46.9759 117.442 46.7173C117.773 46.4555 118.022 46.1042 118.187 45.6634C118.356 45.2192 118.441 44.7254 118.441 44.1818C118.441 43.6449 118.358 43.161 118.192 42.7301C118.03 42.2959 117.783 41.9529 117.452 41.701C117.123 41.4458 116.711 41.3182 116.214 41.3182C115.736 41.3182 115.335 41.4392 115.01 41.6811C114.686 41.9197 114.44 42.2545 114.275 42.6854C114.109 43.1129 114.026 43.6117 114.026 44.1818ZM124.287 48.1591C123.651 48.1591 123.089 47.9983 122.602 47.6768C122.115 47.352 121.734 46.8946 121.459 46.3047C121.184 45.7114 121.046 45.0104 121.046 44.2017C121.046 43.3996 121.184 42.7036 121.459 42.1136C121.734 41.5237 122.117 41.0679 122.607 40.7464C123.098 40.425 123.664 40.2642 124.307 40.2642C124.805 40.2642 125.197 40.3471 125.486 40.5128C125.777 40.6752 125.999 40.8608 126.152 41.0696C126.308 41.2751 126.429 41.4441 126.515 41.5767H126.614V37.8182H127.787V48H126.654V46.8267H126.515C126.429 46.9659 126.306 47.1416 126.147 47.3537C125.988 47.5625 125.761 47.7498 125.466 47.9155C125.171 48.0779 124.778 48.1591 124.287 48.1591ZM124.447 47.1051C124.917 47.1051 125.315 46.9825 125.64 46.7372C125.965 46.4886 126.211 46.1456 126.381 45.7081C126.55 45.2673 126.634 44.7585 126.634 44.1818C126.634 43.6117 126.551 43.1129 126.385 42.6854C126.22 42.2545 125.974 41.9197 125.65 41.6811C125.325 41.4392 124.924 41.3182 124.447 41.3182C123.949 41.3182 123.535 41.4458 123.204 41.701C122.876 41.9529 122.629 42.2959 122.463 42.7301C122.3 43.161 122.219 43.6449 122.219 44.1818C122.219 44.7254 122.302 45.2192 122.468 45.6634C122.637 46.1042 122.885 46.4555 123.214 46.7173C123.545 46.9759 123.956 47.1051 124.447 47.1051ZM132.346 48.179C131.863 48.179 131.423 48.0878 131.029 47.9055C130.635 47.7199 130.321 47.4531 130.089 47.1051C129.857 46.7538 129.741 46.3295 129.741 45.8324C129.741 45.3949 129.827 45.0402 130 44.7685C130.172 44.4934 130.403 44.2779 130.691 44.1222C130.979 43.9664 131.297 43.8504 131.645 43.7741C131.997 43.6946 132.35 43.6316 132.704 43.5852C133.168 43.5256 133.545 43.4808 133.833 43.451C134.125 43.4179 134.337 43.3632 134.469 43.2869C134.605 43.2107 134.673 43.0781 134.673 42.8892V42.8494C134.673 42.3589 134.539 41.9777 134.27 41.706C134.005 41.4342 133.603 41.2983 133.062 41.2983C132.502 41.2983 132.063 41.4209 131.745 41.6662C131.427 41.9115 131.203 42.1733 131.074 42.4517L129.96 42.054C130.159 41.59 130.424 41.2287 130.756 40.9702C131.09 40.7083 131.455 40.526 131.849 40.4233C132.247 40.3172 132.638 40.2642 133.023 40.2642C133.268 40.2642 133.55 40.294 133.868 40.3537C134.189 40.41 134.499 40.5277 134.797 40.7067C135.099 40.8857 135.349 41.1558 135.548 41.517C135.747 41.8783 135.846 42.3622 135.846 42.9688V48H134.673V46.9659H134.613C134.534 47.1316 134.401 47.3089 134.216 47.4979C134.03 47.6868 133.783 47.8475 133.475 47.9801C133.167 48.1127 132.791 48.179 132.346 48.179ZM132.525 47.125C132.989 47.125 133.381 47.0339 133.699 46.8516C134.02 46.6693 134.262 46.4339 134.425 46.1456C134.59 45.8572 134.673 45.554 134.673 45.2358V44.1619C134.623 44.2216 134.514 44.2763 134.345 44.326C134.179 44.3724 133.987 44.4138 133.768 44.4503C133.553 44.4834 133.342 44.5133 133.137 44.5398C132.935 44.563 132.771 44.5829 132.645 44.5994C132.34 44.6392 132.055 44.7038 131.79 44.7933C131.528 44.8795 131.316 45.0104 131.153 45.1861C130.994 45.3584 130.915 45.5937 130.915 45.892C130.915 46.2997 131.065 46.608 131.367 46.8168C131.672 47.0223 132.058 47.125 132.525 47.125ZM141.309 40.3636V41.358H137.352V40.3636H141.309ZM138.505 38.5341H139.678V45.8125C139.678 46.1439 139.726 46.3925 139.822 46.5582C139.922 46.7206 140.048 46.83 140.2 46.8864C140.356 46.9394 140.52 46.9659 140.692 46.9659C140.822 46.9659 140.928 46.9593 141.011 46.946C141.094 46.9295 141.16 46.9162 141.21 46.9062L141.448 47.9602C141.369 47.9901 141.258 48.0199 141.115 48.0497C140.973 48.0829 140.792 48.0994 140.573 48.0994C140.242 48.0994 139.917 48.0282 139.599 47.8857C139.284 47.7431 139.022 47.526 138.813 47.2344C138.608 46.9427 138.505 46.5748 138.505 46.1307V38.5341ZM146.194 48.1591C145.458 48.1591 144.823 47.9967 144.289 47.6719C143.759 47.3438 143.35 46.8864 143.061 46.2997C142.776 45.7098 142.634 45.0237 142.634 44.2415C142.634 43.4593 142.776 42.7699 143.061 42.1733C143.35 41.5734 143.751 41.1061 144.265 40.7713C144.782 40.4332 145.385 40.2642 146.074 40.2642C146.472 40.2642 146.865 40.3305 147.252 40.4631C147.64 40.5956 147.993 40.8111 148.311 41.1094C148.63 41.4044 148.883 41.7955 149.072 42.2827C149.261 42.7699 149.355 43.3698 149.355 44.0824V44.5795H143.469V43.5653H148.162C148.162 43.1345 148.076 42.75 147.904 42.4119C147.735 42.0739 147.493 41.8071 147.178 41.6115C146.866 41.416 146.498 41.3182 146.074 41.3182C145.607 41.3182 145.203 41.4342 144.861 41.6662C144.523 41.8949 144.263 42.1932 144.081 42.5611C143.898 42.929 143.807 43.3234 143.807 43.7443V44.4205C143.807 44.9972 143.907 45.486 144.105 45.8871C144.308 46.2848 144.588 46.5881 144.946 46.7969C145.304 47.0024 145.72 47.1051 146.194 47.1051C146.502 47.1051 146.78 47.062 147.029 46.9759C147.281 46.8864 147.498 46.7538 147.68 46.5781C147.862 46.3991 148.003 46.1771 148.103 45.9119L149.236 46.2301C149.117 46.6146 148.916 46.9527 148.635 47.2443C148.353 47.5327 148.005 47.758 147.591 47.9205C147.176 48.0795 146.711 48.1591 146.194 48.1591ZM156.549 42.0739L155.495 42.3722C155.429 42.1965 155.331 42.0258 155.202 41.8601C155.076 41.6911 154.904 41.5518 154.685 41.4425C154.466 41.3331 154.186 41.2784 153.845 41.2784C153.377 41.2784 152.988 41.3861 152.676 41.6016C152.368 41.8137 152.214 42.0838 152.214 42.4119C152.214 42.7036 152.32 42.9339 152.532 43.103C152.744 43.272 153.076 43.4129 153.527 43.5256L154.66 43.804C155.343 43.9697 155.852 44.2232 156.186 44.5646C156.521 44.9027 156.689 45.3385 156.689 45.8722C156.689 46.3097 156.563 46.7008 156.311 47.0455C156.062 47.3902 155.714 47.6619 155.267 47.8608C154.819 48.0597 154.299 48.1591 153.706 48.1591C152.927 48.1591 152.282 47.9901 151.772 47.652C151.261 47.3139 150.938 46.8201 150.802 46.1705L151.916 45.892C152.022 46.303 152.222 46.6113 152.517 46.8168C152.816 47.0223 153.205 47.125 153.686 47.125C154.233 47.125 154.667 47.009 154.988 46.777C155.313 46.5417 155.475 46.2599 155.475 45.9318C155.475 45.6667 155.383 45.4446 155.197 45.2656C155.011 45.0833 154.726 44.9474 154.342 44.858L153.069 44.5597C152.37 44.3939 151.856 44.1371 151.528 43.7891C151.203 43.4377 151.041 42.9986 151.041 42.4716C151.041 42.0407 151.162 41.6596 151.404 41.3281C151.649 40.9967 151.982 40.7365 152.403 40.5476C152.827 40.3587 153.308 40.2642 153.845 40.2642C154.6 40.2642 155.194 40.4299 155.625 40.7614C156.059 41.0928 156.367 41.5303 156.549 42.0739Z" fill="#D4D4D4"/>
<path d="M193.584 27.6739C193.925 27.6678 194.262 27.6667 194.591 27.6667L201.773 27.6667L197.365 31.8619C197.091 32.1223 197.091 32.5444 197.365 32.8047C197.638 33.0651 198.082 33.0651 198.355 32.8047L203.959 27.4714C204.232 27.2111 204.232 26.7889 203.959 26.5286L198.355 21.1953C198.082 20.9349 197.638 20.9349 197.365 21.1953C197.091 21.4556 197.091 21.8777 197.365 22.1381L201.773 26.3333L194.591 26.3333C194.27 26.3333 193.933 26.334 193.584 26.3397L193.584 27.6739Z" fill="#A3A3A3"/>
<path d="M188.657 27.6666C187.141 27.6666 174.226 27.6676 170.825 27.6725C170.456 27.673 170.164 27.3738 170.164 27.0045C170.164 26.6369 170.453 26.3388 170.821 26.3384C174.23 26.3338 187.175 26.3333 188.657 26.3333L193.584 26.3333L193.584 27.6666L188.657 27.6666Z" fill="#A3A3A3"/>
<path fillRule="evenodd" clipRule="evenodd" d="M251.561 18.7152L247.392 16.6311C246.999 16.4343 246.755 16.039 246.755 15.5991V14.1238C246.855 14.0016 246.96 13.8624 247.069 13.7088C247.609 12.9452 248.043 12.0951 248.358 11.1783C248.973 10.896 249.373 10.2873 249.373 9.6V7.85454C249.373 7.43433 249.216 7.0272 248.937 6.70909V4.38807C248.961 4.14807 249.057 2.71942 248.024 1.5408C247.128 0.5184 245.673 0 243.7 0C241.728 0 240.273 0.5184 239.377 1.54036C238.751 2.25469 238.54 3.05935 238.476 3.63709L238.475 3.63644V5.09276H238.464V6.70909C238.185 7.0272 238.028 7.43433 238.028 7.85454V9.6C238.028 9.73265 238.043 9.86313 238.072 9.98967C238.079 10.0208 238.091 10.0503 238.102 10.0797C238.11 10.0982 238.117 10.1166 238.123 10.1354C238.129 10.1539 238.135 10.1724 238.141 10.191C238.158 10.2463 238.175 10.3017 238.2 10.3536C238.2 10.3539 238.2 10.3543 238.2 10.3543L238.201 10.3547C238.201 10.355 238.201 10.3553 238.201 10.3558C238.313 10.5862 238.476 10.7921 238.681 10.9567C238.682 10.9612 238.683 10.9656 238.685 10.9698C238.686 10.9733 238.687 10.9767 238.688 10.9802C238.714 11.0801 238.742 11.1796 238.771 11.2769L238.807 11.3908C238.81 11.4032 238.815 11.4157 238.819 11.4282C238.822 11.436 238.824 11.4438 238.827 11.4515L238.837 11.4833C238.849 11.5196 238.86 11.5557 238.872 11.5916C238.899 11.6679 238.926 11.7469 238.958 11.8329C238.966 11.853 238.974 11.872 238.982 11.8911C238.988 11.906 238.994 11.9208 239 11.9363C239.036 12.0275 239.072 12.1156 239.109 12.2029C239.114 12.2129 239.118 12.2233 239.122 12.2337C239.126 12.245 239.131 12.2564 239.136 12.2671L239.16 12.322C239.166 12.3355 239.172 12.3483 239.178 12.361C239.182 12.3688 239.186 12.3766 239.19 12.3846C239.191 12.388 239.193 12.3914 239.195 12.3949C239.237 12.4883 239.279 12.5786 239.323 12.6659C239.326 12.6729 239.33 12.6802 239.333 12.6875C239.336 12.6948 239.34 12.7021 239.343 12.7091C239.365 12.7514 239.386 12.7919 239.407 12.8324L239.407 12.8326C239.414 12.8442 239.42 12.8558 239.426 12.8675C239.473 12.9574 239.519 13.042 239.565 13.1241C239.588 13.1642 239.61 13.2035 239.633 13.2415C239.695 13.3488 239.755 13.4474 239.813 13.5391C239.819 13.5484 239.825 13.5579 239.831 13.5673C239.833 13.5707 239.835 13.574 239.837 13.5774C239.842 13.5844 239.846 13.5913 239.85 13.598C239.956 13.7616 240.048 13.8943 240.124 13.9977C240.138 14.0172 240.151 14.0347 240.163 14.0515L240.178 14.0719C240.185 14.0808 240.193 14.0926 240.201 14.1027L240.209 14.1142V15.5581C240.209 15.9805 239.979 16.368 239.608 16.5705L238.454 17.2001L238.252 17.1823L238.17 17.3546L235.715 18.6938C234.45 19.385 233.664 20.7089 233.664 22.1507V22.7227H233.673V24H253.737V22.2358C253.737 20.7356 252.903 19.3863 251.561 18.7152ZM234.537 23.1273V22.1507C234.537 21.0288 235.149 19.9977 236.133 19.4609L240.026 17.3376C240.678 16.982 241.082 16.2999 241.082 15.5585V13.8052L240.998 13.7036L240.981 13.6839C240.981 13.6836 240.979 13.6819 240.977 13.6787C240.968 13.6672 240.944 13.6374 240.909 13.5923C240.906 13.5888 240.904 13.5853 240.901 13.5818C240.878 13.5517 240.851 13.5155 240.82 13.4723C240.819 13.4714 240.819 13.471 240.818 13.4701C240.753 13.3798 240.672 13.2624 240.581 13.121C240.58 13.1195 240.579 13.1179 240.578 13.1162C240.577 13.1146 240.576 13.1129 240.575 13.1114C240.532 13.0447 240.487 12.9718 240.44 12.8945C240.439 12.8916 240.437 12.8887 240.435 12.8857C240.433 12.8829 240.432 12.88 240.43 12.8771C240.331 12.7117 240.227 12.5245 240.122 12.3172C240.122 12.3172 240.122 12.3171 240.122 12.3168L240.122 12.3164C240.066 12.2051 240.011 12.0881 239.957 11.9664C239.953 11.9579 239.949 11.9495 239.946 11.9411C239.942 11.9327 239.938 11.9243 239.934 11.9158C239.91 11.8612 239.886 11.8041 239.862 11.7452C239.856 11.7309 239.85 11.7162 239.844 11.7016L239.828 11.6597C239.807 11.609 239.787 11.5573 239.765 11.4991C239.721 11.3804 239.679 11.2564 239.639 11.1286L239.615 11.0509C239.614 11.0471 239.612 11.0434 239.611 11.0396C239.61 11.0346 239.608 11.0295 239.606 11.0243C239.565 10.8864 239.526 10.7455 239.493 10.6006L239.453 10.4278L239.304 10.3318C239.051 10.1686 238.9 9.89498 238.9 9.6V7.85454C238.9 7.60974 239.004 7.38153 239.193 7.21091L239.337 7.08131V4.20916L239.325 4.2C239.31 3.88495 239.329 2.91927 240.033 2.11593C240.756 1.29076 241.99 0.872727 243.7 0.872727C245.404 0.872727 246.636 1.28771 247.36 2.10676C248.197 3.05327 248.073 4.26042 248.068 4.30525L248.068 4.30647L248.064 7.08131L248.208 7.21134C248.397 7.38153 248.5 7.60974 248.5 7.85454V9.6C248.5 9.98094 248.251 10.3143 247.88 10.4287L247.663 10.4954L247.593 10.7114C247.301 11.6195 246.885 12.4582 246.356 13.2044C246.227 13.3881 246.1 13.5508 245.991 13.6752L245.882 13.7991V15.5991C245.882 16.3715 246.311 17.0657 247.002 17.4113L251.171 19.4954C252.215 20.0177 252.864 21.0676 252.864 22.2358V23.1273H234.537Z" fill="#FAFAFA"/>
<path d="M213.238 48V40.3636H214.411V48H213.238ZM213.835 39.0909C213.606 39.0909 213.409 39.013 213.243 38.8572C213.08 38.7015 212.999 38.5142 212.999 38.2955C212.999 38.0767 213.08 37.8894 213.243 37.7337C213.409 37.5779 213.606 37.5 213.835 37.5C214.063 37.5 214.259 37.5779 214.421 37.7337C214.587 37.8894 214.67 38.0767 214.67 38.2955C214.67 38.5142 214.587 38.7015 214.421 38.8572C214.259 39.013 214.063 39.0909 213.835 39.0909ZM217.733 43.4062V48H216.56V40.3636H217.694V41.5568H217.793C217.972 41.169 218.244 40.8575 218.608 40.6222C218.973 40.3835 219.444 40.2642 220.02 40.2642C220.537 40.2642 220.99 40.3703 221.378 40.5824C221.765 40.7912 222.067 41.1094 222.282 41.5369C222.498 41.9612 222.606 42.4981 222.606 43.1477V48H221.432V43.2273C221.432 42.6274 221.277 42.16 220.965 41.8253C220.653 41.4872 220.226 41.3182 219.682 41.3182C219.308 41.3182 218.973 41.3994 218.678 41.5618C218.386 41.7242 218.156 41.9612 217.987 42.2727C217.818 42.5843 217.733 42.9621 217.733 43.4062ZM227.633 48.1591C226.997 48.1591 226.435 47.9983 225.948 47.6768C225.461 47.352 225.079 46.8946 224.804 46.3047C224.529 45.7114 224.392 45.0104 224.392 44.2017C224.392 43.3996 224.529 42.7036 224.804 42.1136C225.079 41.5237 225.462 41.0679 225.953 40.7464C226.443 40.425 227.01 40.2642 227.653 40.2642C228.15 40.2642 228.543 40.3471 228.831 40.5128C229.123 40.6752 229.345 40.8608 229.498 41.0696C229.653 41.2751 229.774 41.4441 229.86 41.5767H229.96V37.8182H231.133V48H230V46.8267H229.86C229.774 46.9659 229.652 47.1416 229.493 47.3537C229.333 47.5625 229.106 47.7498 228.811 47.9155C228.516 48.0779 228.124 48.1591 227.633 48.1591ZM227.792 47.1051C228.263 47.1051 228.661 46.9825 228.985 46.7372C229.31 46.4886 229.557 46.1456 229.726 45.7081C229.895 45.2673 229.98 44.7585 229.98 44.1818C229.98 43.6117 229.897 43.1129 229.731 42.6854C229.565 42.2545 229.32 41.9197 228.995 41.6811C228.671 41.4392 228.27 41.3182 227.792 41.3182C227.295 41.3182 226.881 41.4458 226.549 41.701C226.221 41.9529 225.974 42.2959 225.809 42.7301C225.646 43.161 225.565 43.6449 225.565 44.1818C225.565 44.7254 225.648 45.2192 225.814 45.6634C225.983 46.1042 226.231 46.4555 226.559 46.7173C226.891 46.9759 227.302 47.1051 227.792 47.1051ZM233.445 48V40.3636H234.618V48H233.445ZM234.042 39.0909C233.813 39.0909 233.616 39.013 233.45 38.8572C233.288 38.7015 233.206 38.5142 233.206 38.2955C233.206 38.0767 233.288 37.8894 233.45 37.7337C233.616 37.5779 233.813 37.5 234.042 37.5C234.27 37.5 234.466 37.5779 234.628 37.7337C234.794 37.8894 234.877 38.0767 234.877 38.2955C234.877 38.5142 234.794 38.7015 234.628 38.8572C234.466 39.013 234.27 39.0909 234.042 39.0909ZM243.012 40.3636L240.188 48H238.994L236.171 40.3636H237.443L239.551 46.4489H239.631L241.739 40.3636H243.012ZM244.56 48V40.3636H245.733V48H244.56ZM245.157 39.0909C244.928 39.0909 244.731 39.013 244.565 38.8572C244.403 38.7015 244.322 38.5142 244.322 38.2955C244.322 38.0767 244.403 37.8894 244.565 37.7337C244.731 37.5779 244.928 37.5 245.157 37.5C245.385 37.5 245.581 37.5779 245.743 37.7337C245.909 37.8894 245.992 38.0767 245.992 38.2955C245.992 38.5142 245.909 38.7015 245.743 38.8572C245.581 39.013 245.385 39.0909 245.157 39.0909ZM250.766 48.1591C250.13 48.1591 249.568 47.9983 249.081 47.6768C248.593 47.352 248.212 46.8946 247.937 46.3047C247.662 45.7114 247.525 45.0104 247.525 44.2017C247.525 43.3996 247.662 42.7036 247.937 42.1136C248.212 41.5237 248.595 41.0679 249.086 40.7464C249.576 40.425 250.143 40.2642 250.786 40.2642C251.283 40.2642 251.676 40.3471 251.964 40.5128C252.256 40.6752 252.478 40.8608 252.63 41.0696C252.786 41.2751 252.907 41.4441 252.993 41.5767H253.093V37.8182H254.266V48H253.132V46.8267H252.993C252.907 46.9659 252.784 47.1416 252.625 47.3537C252.466 47.5625 252.239 47.7498 251.944 47.9155C251.649 48.0779 251.257 48.1591 250.766 48.1591ZM250.925 47.1051C251.396 47.1051 251.793 46.9825 252.118 46.7372C252.443 46.4886 252.69 46.1456 252.859 45.7081C253.028 45.2673 253.113 44.7585 253.113 44.1818C253.113 43.6117 253.03 43.1129 252.864 42.6854C252.698 42.2545 252.453 41.9197 252.128 41.6811C251.803 41.4392 251.402 41.3182 250.925 41.3182C250.428 41.3182 250.014 41.4458 249.682 41.701C249.354 41.9529 249.107 42.2959 248.941 42.7301C248.779 43.161 248.698 43.6449 248.698 44.1818C248.698 44.7254 248.781 45.2192 248.946 45.6634C249.115 46.1042 249.364 46.4555 249.692 46.7173C250.024 46.9759 250.435 47.1051 250.925 47.1051ZM261.39 44.8778V40.3636H262.564V48H261.39V46.7074H261.311C261.132 47.0952 260.853 47.425 260.475 47.6967C260.098 47.9652 259.62 48.0994 259.044 48.0994C258.566 48.0994 258.142 47.995 257.771 47.7862C257.4 47.5741 257.108 47.2559 256.896 46.8317C256.684 46.4041 256.578 45.8655 256.578 45.2159V40.3636H257.751V45.1364C257.751 45.6932 257.907 46.1373 258.218 46.4688C258.533 46.8002 258.934 46.9659 259.422 46.9659C259.713 46.9659 260.01 46.8913 260.311 46.7422C260.616 46.593 260.872 46.3643 261.077 46.0561C261.286 45.7479 261.39 45.3551 261.39 44.8778ZM266.96 48.179C266.476 48.179 266.037 48.0878 265.642 47.9055C265.248 47.7199 264.935 47.4531 264.703 47.1051C264.471 46.7538 264.355 46.3295 264.355 45.8324C264.355 45.3949 264.441 45.0402 264.613 44.7685C264.785 44.4934 265.016 44.2779 265.304 44.1222C265.593 43.9664 265.911 43.8504 266.259 43.7741C266.61 43.6946 266.963 43.6316 267.318 43.5852C267.782 43.5256 268.158 43.4808 268.446 43.451C268.738 43.4179 268.95 43.3632 269.083 43.2869C269.218 43.2107 269.286 43.0781 269.286 42.8892V42.8494C269.286 42.3589 269.152 41.9777 268.884 41.706C268.619 41.4342 268.216 41.2983 267.676 41.2983C267.115 41.2983 266.676 41.4209 266.358 41.6662C266.04 41.9115 265.816 42.1733 265.687 42.4517L264.573 42.054C264.772 41.59 265.037 41.2287 265.369 40.9702C265.704 40.7083 266.068 40.526 266.463 40.4233C266.86 40.3172 267.251 40.2642 267.636 40.2642C267.881 40.2642 268.163 40.294 268.481 40.3537C268.802 40.41 269.112 40.5277 269.411 40.7067C269.712 40.8857 269.963 41.1558 270.161 41.517C270.36 41.8783 270.46 42.3622 270.46 42.9688V48H269.286V46.9659H269.227C269.147 47.1316 269.015 47.3089 268.829 47.4979C268.643 47.6868 268.396 47.8475 268.088 47.9801C267.78 48.1127 267.404 48.179 266.96 48.179ZM267.139 47.125C267.603 47.125 267.994 47.0339 268.312 46.8516C268.633 46.6693 268.875 46.4339 269.038 46.1456C269.204 45.8572 269.286 45.554 269.286 45.2358V44.1619C269.237 44.2216 269.127 44.2763 268.958 44.326C268.793 44.3724 268.6 44.4138 268.382 44.4503C268.166 44.4834 267.956 44.5133 267.75 44.5398C267.548 44.563 267.384 44.5829 267.258 44.5994C266.953 44.6392 266.668 44.7038 266.403 44.7933C266.141 44.8795 265.929 45.0104 265.767 45.1861C265.607 45.3584 265.528 45.5937 265.528 45.892C265.528 46.2997 265.679 46.608 265.98 46.8168C266.285 47.0223 266.671 47.125 267.139 47.125ZM273.775 37.8182V48H272.601V37.8182H273.775Z" fill="#D4D4D4"/>
<path fillRule="evenodd" clipRule="evenodd" d="M293.165 21.168C293.626 21.168 293.999 21.5411 293.999 22.0013V26.168H298.165C298.626 26.168 298.999 26.5411 298.999 27.0013C298.999 27.4615 298.626 27.8346 298.165 27.8346H293.999V32.0013C293.999 32.4615 293.626 32.8346 293.165 32.8346C292.705 32.8346 292.332 32.4615 292.332 32.0013V27.8346H288.165C287.705 27.8346 287.332 27.4615 287.332 27.0013C287.332 26.5411 287.705 26.168 288.165 26.168H292.332V22.0013C292.332 21.5411 292.705 21.168 293.165 21.168Z" fill="#FAFAFA"/>
<path fillRule="evenodd" clipRule="evenodd" d="M342.664 0.00215482C342.592 0.000718522 342.52 0 342.446 0C340.473 0 339.019 0.5184 338.123 1.54036C337.497 2.25469 337.286 3.05935 337.222 3.63709C336.474 3.25047 335.593 3.05455 334.592 3.05455C330.058 3.05455 329.794 6.91855 329.792 6.98182V8.97993C329.509 9.288 329.355 9.64364 329.355 9.99665V11.5039C329.355 11.9747 329.566 12.4137 329.927 12.7104C330.287 14.0675 331.173 15.0929 331.518 15.4529V16.6499C331.518 16.9933 331.331 17.3084 331.007 17.4855L328.103 19.3065C326.992 19.913 326.301 21.0768 326.301 22.3431V24H342.664V23.1273H333.283V22.1507C333.283 21.0288 333.894 19.9977 334.879 19.4609L338.772 17.3376C339.424 16.982 339.828 16.2999 339.828 15.5585V13.8052L339.743 13.7036L339.727 13.6839C339.727 13.6839 339.699 13.6499 339.655 13.5923C339.652 13.5888 339.65 13.5853 339.647 13.5818C339.623 13.5517 339.596 13.5155 339.565 13.4723L339.564 13.4701C339.499 13.3798 339.417 13.2624 339.327 13.121C339.324 13.118 339.323 13.1145 339.321 13.1114C339.278 13.0447 339.232 12.9718 339.186 12.8945C339.183 12.8889 339.179 12.8832 339.176 12.8771C339.077 12.7117 338.972 12.5245 338.868 12.3172L338.868 12.3164C338.812 12.2051 338.757 12.0881 338.703 11.9664C338.699 11.9579 338.695 11.9495 338.691 11.9411C338.688 11.9327 338.684 11.9243 338.68 11.9158C338.656 11.8612 338.632 11.8041 338.608 11.7452C338.599 11.7238 338.59 11.7015 338.581 11.6797C338.579 11.6731 338.576 11.6664 338.573 11.6597C338.553 11.609 338.533 11.5573 338.511 11.4991C338.467 11.3804 338.425 11.2564 338.385 11.1286L338.361 11.0509C338.359 11.0471 338.358 11.0434 338.357 11.0396C338.355 11.0346 338.354 11.0295 338.352 11.0243C338.311 10.8864 338.272 10.7455 338.239 10.6006L338.199 10.4278L338.05 10.3318C337.797 10.1686 337.646 9.89498 337.646 9.6V7.85455C337.646 7.60975 337.75 7.38153 337.939 7.21091L338.083 7.08131V4.20916L338.071 4.2C338.056 3.88495 338.075 2.91927 338.779 2.11593C339.502 1.29076 340.736 0.872727 342.446 0.872727C342.52 0.872727 342.593 0.873502 342.664 0.87505V0.00215482ZM332.41 23.1273V22.1507C332.41 20.7089 333.196 19.385 334.461 18.6938L336.916 17.3546L336.998 17.1823L337.199 17.2001L338.354 16.5705C338.724 16.368 338.955 15.9805 338.955 15.5581V14.1142C338.949 14.1065 338.941 14.0955 338.934 14.0854C338.93 14.0806 338.927 14.0759 338.924 14.0719C338.907 14.0487 338.889 14.0252 338.869 13.9977C338.793 13.8943 338.702 13.7616 338.596 13.598C338.59 13.5881 338.583 13.5778 338.577 13.5673C338.571 13.5579 338.565 13.5484 338.559 13.5391C338.501 13.4474 338.441 13.3488 338.378 13.2415C338.356 13.2035 338.334 13.1642 338.311 13.1241C338.265 13.042 338.219 12.9574 338.172 12.8675C338.165 12.8558 338.159 12.8442 338.153 12.8326C338.132 12.792 338.111 12.7515 338.089 12.7091C338.086 12.7021 338.082 12.6948 338.079 12.6875C338.076 12.6802 338.072 12.6729 338.069 12.6659C338.025 12.5786 337.983 12.4883 337.94 12.3949C337.935 12.3833 337.93 12.3722 337.924 12.361C337.918 12.3483 337.912 12.3355 337.906 12.322L337.881 12.2671C337.877 12.2564 337.872 12.2451 337.868 12.2338C337.864 12.2234 337.86 12.213 337.855 12.2029C337.818 12.1156 337.782 12.0275 337.746 11.9363C337.74 11.9208 337.734 11.906 337.728 11.8911C337.719 11.872 337.711 11.853 337.704 11.8329C337.672 11.7469 337.644 11.6679 337.618 11.5916C337.606 11.5557 337.594 11.5196 337.583 11.4833C337.579 11.4727 337.576 11.4621 337.572 11.4515C337.57 11.4438 337.567 11.436 337.565 11.4282C337.56 11.4157 337.556 11.4032 337.552 11.3908L337.517 11.2769C337.487 11.1796 337.46 11.0801 337.434 10.9802C337.433 10.9767 337.432 10.9733 337.431 10.9698C337.429 10.9656 337.428 10.9612 337.427 10.9567C337.222 10.7921 337.059 10.5862 336.947 10.3558L336.946 10.3536C336.921 10.3017 336.904 10.2463 336.887 10.191C336.881 10.1724 336.875 10.1539 336.869 10.1354C336.863 10.1166 336.856 10.0982 336.848 10.0797C336.837 10.0503 336.825 10.0208 336.818 9.98967C336.789 9.86313 336.774 9.73265 336.774 9.6V7.85455C336.774 7.43433 336.931 7.0272 337.21 6.70909V4.64465C336.515 4.16858 335.636 3.92727 334.592 3.92727C330.899 3.92727 330.671 6.88189 330.664 7.00713L330.664 9.35476L330.521 9.48436C330.335 9.6528 330.228 9.83956 330.228 9.99665V11.5039C330.228 11.7382 330.348 11.9559 330.549 12.086L330.698 12.182L330.738 12.3548C331.08 13.8476 332.24 14.9428 332.251 14.9533L332.39 15.0829V16.6499C332.39 17.3132 332.028 17.9215 331.447 18.2387L328.544 20.0596C327.69 20.5261 327.174 21.3962 327.174 22.3431V23.1273H332.41Z" fill="#FAFAFA"/>
<path fillRule="evenodd" clipRule="evenodd" d="M342.664 0.00215482C342.736 0.000718522 342.809 0 342.883 0C344.855 0 346.31 0.5184 347.206 1.54036C347.832 2.25469 348.043 3.05935 348.107 3.63709C348.855 3.25047 349.736 3.05455 350.737 3.05455C355.271 3.05455 355.535 6.91855 355.537 6.98182V8.97993C355.82 9.288 355.974 9.64364 355.974 9.99665V11.5039C355.974 11.9747 355.763 12.4137 355.401 12.7104C355.041 14.0675 354.156 15.0929 353.811 15.4529V16.6499C353.811 16.9933 353.998 17.3084 354.322 17.4855L357.225 19.3065C358.337 19.913 359.028 21.0768 359.028 22.3431V24H342.664V23.1273H352.046V22.1507C352.046 21.0288 351.434 19.9977 350.45 19.4609L346.557 17.3376C345.905 16.982 345.501 16.2999 345.501 15.5585V13.8052L345.585 13.7036L345.602 13.6839C345.602 13.6839 345.63 13.6499 345.674 13.5923C345.677 13.5888 345.679 13.5853 345.682 13.5818C345.705 13.5517 345.732 13.5155 345.763 13.4723L345.765 13.4701C345.83 13.3798 345.911 13.2624 346.002 13.121C346.004 13.118 346.006 13.1145 346.008 13.1114C346.051 13.0447 346.096 12.9718 346.143 12.8945C346.146 12.8889 346.15 12.8832 346.153 12.8771C346.252 12.7117 346.356 12.5245 346.461 12.3172L346.461 12.3164C346.517 12.2051 346.572 12.0881 346.626 11.9664C346.63 11.9579 346.634 11.9495 346.638 11.9411C346.641 11.9327 346.645 11.9243 346.649 11.9158C346.673 11.8612 346.697 11.8041 346.721 11.7452C346.73 11.7238 346.739 11.7015 346.747 11.6797C346.75 11.6731 346.753 11.6664 346.755 11.6597C346.776 11.609 346.796 11.5573 346.818 11.4991C346.862 11.3804 346.904 11.2564 346.944 11.1286L346.968 11.0509C346.969 11.0471 346.971 11.0434 346.972 11.0396C346.973 11.0346 346.975 11.0295 346.977 11.0243C347.018 10.8864 347.057 10.7455 347.09 10.6006L347.13 10.4278L347.279 10.3318C347.532 10.1686 347.683 9.89498 347.683 9.6V7.85455C347.683 7.60975 347.579 7.38153 347.39 7.21091L347.246 7.08131V4.20916L347.258 4.2C347.273 3.88495 347.254 2.91927 346.55 2.11593C345.827 1.29076 344.593 0.872727 342.883 0.872727C342.809 0.872727 342.736 0.873502 342.664 0.87505V0.00215482ZM352.919 23.1273V22.1507C352.919 20.7089 352.133 19.385 350.868 18.6938L348.413 17.3546L348.331 17.1823L348.129 17.2001L346.975 16.5705C346.604 16.368 346.374 15.9805 346.374 15.5581V14.1142C346.38 14.1065 346.387 14.0955 346.395 14.0854C346.398 14.0806 346.402 14.0759 346.405 14.0719C346.422 14.0487 346.439 14.0252 346.459 13.9977C346.535 13.8943 346.627 13.7616 346.733 13.598C346.739 13.5881 346.745 13.5778 346.752 13.5673C346.758 13.5579 346.764 13.5484 346.77 13.5391C346.828 13.4474 346.888 13.3488 346.95 13.2415C346.973 13.2035 346.995 13.1642 347.018 13.1241C347.064 13.042 347.11 12.9574 347.157 12.8675C347.163 12.8558 347.169 12.8442 347.176 12.8326C347.197 12.792 347.218 12.7515 347.24 12.7091C347.243 12.7021 347.247 12.6948 347.25 12.6875C347.253 12.6802 347.257 12.6729 347.26 12.6659C347.304 12.5786 347.346 12.4883 347.388 12.3949C347.394 12.3833 347.399 12.3722 347.405 12.361C347.411 12.3483 347.417 12.3355 347.423 12.322L347.447 12.2671C347.452 12.2564 347.457 12.2451 347.461 12.2338C347.465 12.2234 347.469 12.213 347.474 12.2029C347.511 12.1156 347.547 12.0275 347.583 11.9363C347.589 11.9208 347.595 11.906 347.601 11.8911C347.609 11.872 347.617 11.853 347.625 11.8329C347.657 11.7469 347.684 11.6679 347.711 11.5916C347.723 11.5557 347.734 11.5196 347.746 11.4833C347.749 11.4727 347.753 11.4621 347.756 11.4515C347.759 11.4438 347.762 11.436 347.764 11.4282C347.768 11.4157 347.773 11.4032 347.776 11.3908L347.812 11.2769C347.841 11.1796 347.869 11.0801 347.895 10.9802C347.896 10.9767 347.897 10.9733 347.898 10.9698C347.9 10.9656 347.901 10.9612 347.902 10.9567C348.107 10.7921 348.27 10.5862 348.382 10.3558L348.383 10.3536C348.408 10.3017 348.425 10.2463 348.442 10.191C348.448 10.1724 348.454 10.1539 348.46 10.1354C348.466 10.1166 348.473 10.0982 348.481 10.0797C348.492 10.0503 348.504 10.0208 348.511 9.98967C348.54 9.86313 348.555 9.73265 348.555 9.6V7.85455C348.555 7.43433 348.398 7.0272 348.119 6.70909V4.64465C348.814 4.16858 349.693 3.92727 350.737 3.92727C354.43 3.92727 354.657 6.88189 354.665 7.00713L354.664 9.35476L354.808 9.48436C354.994 9.6528 355.101 9.83956 355.101 9.99665V11.5039C355.101 11.7382 354.981 11.9559 354.78 12.086L354.631 12.182L354.591 12.3548C354.249 13.8476 353.089 14.9428 353.078 14.9533L352.939 15.0829V16.6499C352.939 17.3132 353.3 17.9215 353.882 18.2387L356.785 20.0596C357.639 20.5261 358.155 21.3962 358.155 22.3431V23.1273H352.919Z" fill="#FAFAFA"/>
<path d="M330.059 40.3636V41.358H326.102V40.3636H330.059ZM327.255 38.5341H328.428V45.8125C328.428 46.1439 328.476 46.3925 328.572 46.5582C328.672 46.7206 328.798 46.83 328.95 46.8864C329.106 46.9394 329.27 46.9659 329.442 46.9659C329.572 46.9659 329.678 46.9593 329.761 46.946C329.844 46.9295 329.91 46.9162 329.96 46.9062L330.198 47.9602C330.119 47.9901 330.008 48.0199 329.865 48.0497C329.723 48.0829 329.542 48.0994 329.323 48.0994C328.992 48.0994 328.667 48.0282 328.349 47.8857C328.034 47.7431 327.772 47.526 327.563 47.2344C327.358 46.9427 327.255 46.5748 327.255 46.1307V38.5341ZM334.944 48.1591C334.208 48.1591 333.573 47.9967 333.039 47.6719C332.509 47.3438 332.1 46.8864 331.811 46.2997C331.526 45.7098 331.384 45.0237 331.384 44.2415C331.384 43.4593 331.526 42.7699 331.811 42.1733C332.1 41.5734 332.501 41.1061 333.015 40.7713C333.532 40.4332 334.135 40.2642 334.824 40.2642C335.222 40.2642 335.615 40.3305 336.002 40.4631C336.39 40.5956 336.743 40.8111 337.061 41.1094C337.38 41.4044 337.633 41.7955 337.822 42.2827C338.011 42.7699 338.105 43.3698 338.105 44.0824V44.5795H332.219V43.5653H336.912C336.912 43.1345 336.826 42.75 336.654 42.4119C336.485 42.0739 336.243 41.8071 335.928 41.6115C335.616 41.416 335.248 41.3182 334.824 41.3182C334.357 41.3182 333.953 41.4342 333.611 41.6662C333.273 41.8949 333.013 42.1932 332.831 42.5611C332.648 42.929 332.557 43.3234 332.557 43.7443V44.4205C332.557 44.9972 332.657 45.486 332.855 45.8871C333.058 46.2848 333.338 46.5881 333.696 46.7969C334.054 47.0024 334.47 47.1051 334.944 47.1051C335.252 47.1051 335.53 47.062 335.779 46.9759C336.031 46.8864 336.248 46.7538 336.43 46.5781C336.612 46.3991 336.753 46.1771 336.853 45.9119L337.986 46.2301C337.867 46.6146 337.666 46.9527 337.385 47.2443C337.103 47.5327 336.755 47.758 336.341 47.9205C335.926 48.0795 335.461 48.1591 334.944 48.1591ZM342.137 48.179C341.654 48.179 341.214 48.0878 340.82 47.9055C340.426 47.7199 340.112 47.4531 339.88 47.1051C339.648 46.7538 339.532 46.3295 339.532 45.8324C339.532 45.3949 339.618 45.0402 339.791 44.7685C339.963 44.4934 340.194 44.2779 340.482 44.1222C340.77 43.9664 341.088 43.8504 341.436 43.7741C341.788 43.6946 342.141 43.6316 342.495 43.5852C342.959 43.5256 343.336 43.4808 343.624 43.451C343.916 43.4179 344.128 43.3632 344.26 43.2869C344.396 43.2107 344.464 43.0781 344.464 42.8892V42.8494C344.464 42.3589 344.33 41.9777 344.061 41.706C343.796 41.4342 343.394 41.2983 342.853 41.2983C342.293 41.2983 341.854 41.4209 341.536 41.6662C341.218 41.9115 340.994 42.1733 340.865 42.4517L339.751 42.054C339.95 41.59 340.215 41.2287 340.547 40.9702C340.881 40.7083 341.246 40.526 341.64 40.4233C342.038 40.3172 342.429 40.2642 342.814 40.2642C343.059 40.2642 343.341 40.294 343.659 40.3537C343.98 40.41 344.29 40.5277 344.588 40.7067C344.89 40.8857 345.14 41.1558 345.339 41.517C345.538 41.8783 345.637 42.3622 345.637 42.9688V48H344.464V46.9659H344.404C344.325 47.1316 344.192 47.3089 344.007 47.4979C343.821 47.6868 343.574 47.8475 343.266 47.9801C342.958 48.1127 342.582 48.179 342.137 48.179ZM342.316 47.125C342.78 47.125 343.172 47.0339 343.49 46.8516C343.811 46.6693 344.053 46.4339 344.216 46.1456C344.381 45.8572 344.464 45.554 344.464 45.2358V44.1619C344.414 44.2216 344.305 44.2763 344.136 44.326C343.97 44.3724 343.778 44.4138 343.559 44.4503C343.344 44.4834 343.133 44.5133 342.928 44.5398C342.726 44.563 342.562 44.5829 342.436 44.5994C342.131 44.6392 341.846 44.7038 341.581 44.7933C341.319 44.8795 341.107 45.0104 340.944 45.1861C340.785 45.3584 340.706 45.5937 340.706 45.892C340.706 46.2997 340.856 46.608 341.158 46.8168C341.463 47.0223 341.849 47.125 342.316 47.125ZM347.779 48V40.3636H348.912V41.5568H349.012C349.171 41.1491 349.428 40.8326 349.782 40.6072C350.137 40.3786 350.563 40.2642 351.06 40.2642C351.564 40.2642 351.983 40.3786 352.318 40.6072C352.656 40.8326 352.92 41.1491 353.108 41.5568H353.188C353.384 41.1624 353.677 40.8492 354.068 40.6172C354.459 40.3819 354.928 40.2642 355.475 40.2642C356.158 40.2642 356.716 40.478 357.15 40.9055C357.585 41.3298 357.802 41.991 357.802 42.8892V48H356.628V42.8892C356.628 42.3258 356.474 41.9231 356.166 41.6811C355.858 41.4392 355.495 41.3182 355.077 41.3182C354.54 41.3182 354.124 41.4806 353.829 41.8054C353.534 42.1269 353.387 42.5346 353.387 43.0284V48H352.194V42.7699C352.194 42.3357 352.053 41.986 351.771 41.7209C351.489 41.4524 351.126 41.3182 350.682 41.3182C350.377 41.3182 350.092 41.3994 349.827 41.5618C349.565 41.7242 349.353 41.9496 349.191 42.2379C349.032 42.523 348.952 42.8527 348.952 43.2273V48H347.779Z" fill="#D4D4D4"/>
<defs>
<clipPath id="clip0_10695_24485">
<rect width="24" height="24" fill="white" transform="translate(19.6641)"/>
</clipPath>
</defs>
</svg>
