<svg width="25" height="24" viewBox="0 0 25 24" fill="none" xmlns="http://www.w3.org/2000/svg">
<path d="M21.0648 18.3556L16.0178 13.3086H15.075L12.6562 15.7274V16.6701L17.7033 21.7171C18.0747 22.0885 18.6746 22.0885 19.046 21.7171L21.0648 19.6983C21.4362 19.3364 21.4362 18.727 21.0648 18.3556Z" fill="#FAFAFA"/>
<path d="M16.9359 10.7513L18.2786 9.40864L20.2974 11.4274C21.4116 10.3133 21.4116 8.50399 20.2974 7.38983L16.9264 4.01881L15.5837 5.36151V2.67611L14.9171 2L11.5461 5.37103L12.2222 6.04714H14.9171L13.5744 7.38983L14.5838 8.39924L11.8318 11.1513L7.89889 7.21843V5.86621L5.02304 2.99036L2.32812 5.68528L5.2135 8.57065H6.55619L10.4891 12.5035L9.67963 13.3129H7.66082L2.61381 18.36C2.24242 18.7313 2.24242 19.3313 2.61381 19.7027L4.63261 21.7215C5.004 22.0928 5.60393 22.0928 5.97531 21.7215L11.0223 16.6744V14.6556L15.9265 9.75146L16.9359 10.7513Z" fill="#FAFAFA"/>
</svg>
