<svg width="87" height="87" viewBox="0 0 87 87" fill="none" xmlns="http://www.w3.org/2000/svg">
<path d="M72.2811 66.008L65.0961 58.823C64.8617 58.5886 64.5438 58.457 64.2123 58.457C63.8809 58.457 63.563 58.5886 63.3286 58.823L62.4161 59.7355L60.5473 57.8667C61.8612 56.2987 62.8095 54.4579 63.3236 52.4779H64.6411C64.9726 52.4779 65.2906 52.3462 65.525 52.1118C65.7594 51.8774 65.8911 51.5594 65.8911 51.2279V13.7276C65.8911 13.396 65.7594 13.0781 65.525 12.8437C65.2906 12.6092 64.9726 12.4775 64.6411 12.4775C53.9697 12.4775 43.2221 14.8001 39.6409 19.8839C36.0596 14.8001 25.312 12.4775 14.6406 12.4775C14.3091 12.4775 13.9912 12.6092 13.7567 12.8437C13.5223 13.0781 13.3906 13.396 13.3906 13.7276V51.2279C13.3906 51.5594 13.5223 51.8774 13.7567 52.1118C13.9912 52.3462 14.3091 52.4779 14.6406 52.4779C15.4931 52.4779 16.3265 52.4875 17.1407 52.5066V61.228C17.141 61.4354 17.1929 61.6394 17.2917 61.8218C17.3905 62.0041 17.5332 62.159 17.7068 62.2724C17.8804 62.3859 18.0795 62.4544 18.2862 62.4717C18.4929 62.4891 18.7006 62.4547 18.8907 62.3717C23.0157 60.558 34.6408 56.7467 38.7534 60.8617C38.9282 61.0366 39.1509 61.1558 39.3935 61.2041C39.636 61.2523 39.8874 61.2276 40.1159 61.133C40.1434 61.1217 40.1646 61.1005 40.1921 61.0867V61.0967L41.7759 60.3042C44.2841 62.0897 47.3139 62.9925 50.3903 62.8713C53.4668 62.75 56.4161 61.6115 58.776 59.6342L60.6448 61.503L59.7323 62.4155C59.4979 62.6499 59.3663 62.9678 59.3663 63.2992C59.3663 63.6307 59.4979 63.9486 59.7323 64.183L66.9161 71.3668C67.268 71.7188 67.6857 71.9981 68.1455 72.1887C68.6053 72.3793 69.0981 72.4774 69.5959 72.4775C70.0936 72.4777 70.5865 72.3797 71.0464 72.1894C71.5062 71.999 71.9241 71.7199 72.2761 71.3681C72.6282 71.0162 72.9074 70.5984 73.098 70.1386C73.2886 69.6789 73.3868 69.186 73.3869 68.6883C73.387 68.1906 73.2891 67.6977 73.0987 67.2378C72.9083 66.7779 72.6293 66.36 72.2774 66.008H72.2811ZM40.8909 23.7276C40.8909 18.8938 50.4772 15.2126 63.3911 14.9888V45.6478C62.8354 43.3413 61.6999 41.2148 60.0923 39.4699C58.4847 37.7251 56.4581 36.4196 54.2047 35.6772C51.9513 34.9349 49.5456 34.7802 47.2157 35.2278C44.8858 35.6755 42.7087 36.7107 40.8909 38.2353V23.7276ZM15.8906 49.9854V14.9851C28.8045 15.2126 38.3908 18.8938 38.3908 23.7276V40.9778C37.0996 42.8262 36.2782 44.9615 35.9979 47.1988C35.7176 49.4361 35.9868 51.708 36.7821 53.8179C31.5983 50.7891 22.5595 50.0604 15.8906 49.9854ZM19.6407 59.3767V52.6029C28.2733 53.0379 34.3808 54.6329 36.9846 57.0779C31.3345 55.3979 23.1957 58.0292 19.6407 59.3767ZM57.9398 57.0267C56.0665 58.9001 53.6015 60.066 50.965 60.3258C48.3284 60.5855 45.6834 59.9231 43.4805 58.4513C41.2776 56.9795 39.6532 54.7893 38.8841 52.2541C38.1149 49.7189 38.2486 46.9954 39.2624 44.5477C40.2761 42.1 42.1072 40.0796 44.4437 38.8306C46.7801 37.5816 49.4774 37.1814 52.0758 37.6982C54.6742 38.215 57.0131 39.6167 58.6939 41.6646C60.3747 43.7125 61.2934 46.2798 61.2935 48.9291C61.2978 50.4336 61.0036 51.9239 60.4279 53.3139C59.8522 54.7038 59.0065 55.9658 57.9398 57.0267ZM66.9073 67.818L62.3911 63.2992L64.2161 61.4742L68.7349 65.9943L66.9073 67.818ZM70.5161 69.603C70.2708 69.8383 69.9441 69.9696 69.6042 69.9696C69.2644 69.9696 68.9377 69.8383 68.6924 69.603L68.6786 69.5893L70.5024 67.7655L70.5174 67.7793C70.6372 67.899 70.7323 68.0411 70.7972 68.1976C70.8621 68.3541 70.8954 68.5218 70.8954 68.6912C70.8954 68.8605 70.8621 69.0283 70.7972 69.1847C70.7323 69.3412 70.636 69.4834 70.5161 69.603Z" fill="#0077E6"/>
<path d="M43.5723 42.6569L45.3398 44.4244C46.5351 43.2306 48.1554 42.56 49.8448 42.56C51.5342 42.56 53.1545 43.2306 54.3499 44.4244L56.1174 42.6569C54.4532 40.9944 52.1971 40.0605 49.8448 40.0605C47.4925 40.0605 45.2364 40.9944 43.5723 42.6569Z" fill="#0077E6"/>
<path d="M20.8906 17.4775H18.3906V24.9776H20.8906V17.4775Z" fill="#0077E6"/>
<path d="M20.8906 27.4775H18.3906V29.9776H20.8906V27.4775Z" fill="#0077E6"/>
</svg>
