<svg width="24" height="24" viewBox="0 0 24 24" fill="none" xmlns="http://www.w3.org/2000/svg">
<g clipPath="url(#clip0_5197_3370)">
<path d="M8 24C10.208 24 12 22.208 12 20V16H8C5.792 16 4 17.792 4 20C4 22.208 5.792 24 8 24Z" fill="#75D065"/>
<path d="M4 12C4 9.792 5.792 8 8 8H12V16H8C5.792 16 4 14.208 4 12Z" fill="#A259FF"/>
<path d="M4 4C4 1.792 5.792 0 8 0H12V8H8C5.792 8 4 6.208 4 4Z" fill="#F24E1E"/>
<path d="M12 0H16C18.208 0 20 1.792 20 4C20 6.208 18.208 8 16 8H12V0Z" fill="#FF7262"/>
<path d="M20 12C20 14.208 18.208 16 16 16C13.792 16 12 14.208 12 12C12 9.792 13.792 8 16 8C18.208 8 20 9.792 20 12Z" fill="#1ABCFE"/>
</g>
<defs>
<clipPath id="clip0_5197_3370">
<rect width="16" height="24" fill="white" transform="translate(4)"/>
</clipPath>
</defs>
</svg>
