<svg width="24" height="24" viewBox="0 0 24 24" fill="none" xmlns="http://www.w3.org/2000/svg">
<path fillRule="evenodd" clipRule="evenodd" d="M9.33008 9.76574C9.02432 9.76574 8.72157 9.82352 8.43909 9.93578C8.15661 10.048 7.89994 10.2126 7.68374 10.42C7.46754 10.6274 7.29604 10.8737 7.17903 11.1447C7.06203 11.4157 7.0018 11.7062 7.0018 11.9996C7.0018 12.2929 7.06203 12.5834 7.17903 12.8544C7.29604 13.1254 7.46754 13.3717 7.68374 13.5791C7.89994 13.7866 8.15661 13.9511 8.43909 14.0634C8.72157 14.1756 9.02432 14.2334 9.33008 14.2334H11.6584V12.0445C11.658 12.0146 11.658 11.9846 11.6584 11.9546V9.76574H9.33008ZM11.6584 8.46852H9.33008C8.71246 8.46852 8.12014 8.23312 7.68342 7.81412C7.2467 7.39511 7.00135 6.82682 7.00135 6.23426C7.00135 5.6417 7.2467 5.0734 7.68342 4.6544C8.12014 4.23539 8.71246 4 9.33008 4H11.6584V8.46852ZM13.0104 4V8.46852H15.3387C15.9484 8.45701 16.529 8.21655 16.956 7.7988C17.3829 7.38105 17.6221 6.81932 17.6221 6.23426C17.6221 5.64919 17.3829 5.08746 16.956 4.66971C16.529 4.25196 15.9484 4.01151 15.3387 4H13.0104ZM15.3387 9.76488C14.7276 9.7648 14.1409 9.99528 13.7053 10.4066C13.2697 10.8179 13.0201 11.377 13.0104 11.9632V12.035C13.0179 12.4752 13.1608 12.9035 13.4211 13.266C13.6814 13.6286 14.0476 13.9092 14.4736 14.0727C14.8997 14.2362 15.3666 14.2753 15.8157 14.1851C16.2648 14.0948 16.6761 13.8793 16.998 13.5655C17.3198 13.2517 17.5378 12.8536 17.6246 12.4213C17.7114 11.989 17.6632 11.5417 17.4859 11.1357C17.3086 10.7296 17.0102 10.3829 16.6282 10.139C16.2462 9.89508 15.7976 9.76494 15.3387 9.76488ZM9.33008 15.5306C8.86937 15.5304 8.41896 15.6614 8.03581 15.9068C7.65266 16.1523 7.35399 16.5012 7.17756 16.9095C7.00113 17.3179 6.95488 17.7672 7.04465 18.2007C7.13442 18.6343 7.35618 19.0326 7.68188 19.3452C8.00759 19.6578 8.42261 19.8707 8.87445 19.957C9.32629 20.0433 9.79465 19.9991 10.2203 19.83C10.646 19.6609 11.0098 19.3744 11.2658 19.0069C11.5217 18.6394 11.6584 18.2073 11.6584 17.7653V15.5306H9.33008Z" fill="white"/>
</svg>
