<svg width="24" height="24" viewBox="0 0 24 24" fill="none" xmlns="http://www.w3.org/2000/svg">
<path d="M12.0005 2H8.66748C7.78339 2 6.9355 2.35121 6.31034 2.97636C5.68519 3.60151 5.33398 4.4494 5.33398 5.3335C5.33398 6.2176 5.68519 7.06549 6.31034 7.69064C6.9355 8.31579 7.78339 8.667 8.66748 8.667H12.0005V2Z" stroke="black" strokeWidth="1.5"/>
<path d="M12.0005 8.66602H8.66748C7.78339 8.66602 6.9355 9.01722 6.31034 9.64237C5.68519 10.2675 5.33398 11.1154 5.33398 11.9995C5.33398 12.8836 5.68519 13.7315 6.31034 14.3567C6.9355 14.9818 7.78339 15.333 8.66748 15.333H12.0005V8.66602Z" stroke="black" strokeWidth="1.5"/>
<path d="M18.667 12C18.667 12.8841 18.3158 13.732 17.6906 14.3571C17.0655 14.9823 16.2176 15.3335 15.3335 15.3335C14.4494 15.3335 13.6015 14.9823 12.9763 14.3571C12.3512 13.732 12 12.8841 12 12C12 11.1159 12.3512 10.268 12.9763 9.64286C13.6015 9.01771 14.4494 8.6665 15.3335 8.6665C16.2176 8.6665 17.0655 9.01771 17.6906 9.64286C18.3158 10.268 18.667 11.1159 18.667 12ZM8.66699 15.334H12V18.667C11.9998 19.3262 11.8041 19.9705 11.4378 20.5184C11.0714 21.0664 10.5508 21.4935 9.94178 21.7456C9.33273 21.9977 8.66261 22.0636 8.01614 21.9348C7.36966 21.8061 6.77587 21.4886 6.30985 21.0224C5.84382 20.5563 5.52648 19.9624 5.39796 19.3159C5.26943 18.6694 5.33549 17.9993 5.58779 17.3903C5.84009 16.7813 6.26729 16.2608 6.81537 15.8946C7.36346 15.5285 8.00782 15.334 8.66699 15.334Z" stroke="black" strokeWidth="1.5"/>
<path d="M12 2H15.333C16.2171 2 17.065 2.35121 17.6901 2.97636C18.3153 3.60151 18.6665 4.4494 18.6665 5.3335C18.6665 6.2176 18.3153 7.06549 17.6901 7.69064C17.065 8.31579 16.2171 8.667 15.333 8.667H12V2Z" stroke="black" strokeWidth="1.5"/>
</svg>
