<?xml version="1.0" standalone="no"?>
<!DOCTYPE svg PUBLIC "-//W3C//DTD SVG 20010904//EN"
 "http://www.w3.org/TR/2001/REC-SVG-20010904/DTD/svg10.dtd">
<svg version="1.0" xmlns="http://www.w3.org/2000/svg"
 width="512.000000pt" height="512.000000pt" viewBox="0 0 512.000000 512.000000"
 preserveAspectRatio="xMidYMid meet">

<g transform="translate(0.000000,512.000000) scale(0.100000,-0.100000)"
fill="#000000" stroke="none">
<path d="M75 5093 c10 -16 448 -653 973 -1418 525 -765 955 -1395 955 -1400 0
-6 -431 -512 -959 -1126 -527 -613 -965 -1123 -973 -1132 -13 -16 1 -17 206
-17 l220 0 849 987 c467 542 854 988 859 989 6 2 316 -442 689 -986 l679 -990
744 0 c705 0 743 1 734 18 -5 9 -460 672 -1010 1472 -550 800 -1001 1457
-1001 1460 0 4 418 492 929 1085 l928 1080 -215 3 c-177 2 -218 0 -231 -12 -9
-8 -374 -431 -811 -939 -437 -509 -798 -923 -802 -921 -4 3 -296 425 -649 939
l-642 935 -745 0 -744 0 17 -27z m2815 -2529 c855 -1224 1557 -2229 1558
-2235 3 -6 -118 -8 -334 -7 l-338 3 -1558 2228 c-857 1226 -1558 2231 -1558
2233 0 2 152 4 338 4 l337 -1 1555 -2225z"/>
</g>
</svg>
