<svg width="22" height="24" viewBox="0 0 22 24" fill="none"
  xmlns="http://www.w3.org/2000/svg">
  <path d="M0 6.83375C0 6.63105 0.10618 6.44315 0.279827 6.33857L10.6672 0.0828648C10.8507 -0.0276217 11.0802 -0.0276215 11.2637 0.0828649L21.6511 6.33857C21.8247 6.44315 21.9309 6.63104 21.9309 6.83375V17.1663C21.9309 17.369 21.8247 17.5568 21.6511 17.6614L11.2637 23.9171C11.0802 24.0276 10.8507 24.0276 10.6672 23.9171L0.279828 17.6614C0.106181 17.5569 0 17.369 0 17.1663V6.83375Z" fill="url(#paint0_linear_600_3152)"/>
  <path d="M4.00986 15.7726C3.76556 15.6341 3.76556 15.2816 4.00986 15.1431L10.7348 11.3319C10.9112 11.2319 11.1271 11.2319 11.3035 11.3319L18.0284 15.1431C18.2727 15.2816 18.2727 15.6341 18.0284 15.7726L11.3035 19.5839C11.1271 19.6838 10.9112 19.6838 10.7348 19.5839L4.00986 15.7726Z" fill="#131769"/>
  <path d="M4.00986 12.4049C3.76556 12.2664 3.76556 11.9138 4.00986 11.7754L10.7348 7.96412C10.9112 7.86413 11.1271 7.86413 11.3035 7.96412L18.0284 11.7754C18.2727 11.9138 18.2727 12.2664 18.0284 12.4049L11.3035 16.2161C11.1271 16.3161 10.9112 16.3161 10.7348 16.2161L4.00986 12.4049Z" fill="#B7BDFF"/>
  <path d="M4.00986 12.4049C3.76556 12.2664 3.76556 11.9138 4.00986 11.7754L10.7348 7.96412C10.9112 7.86413 11.1271 7.86413 11.3035 7.96412L18.0284 11.7754C18.2727 11.9138 18.2727 12.2664 18.0284 12.4049L11.3035 16.2161C11.1271 16.3161 10.9112 16.3161 10.7348 16.2161L4.00986 12.4049Z" fill="#796AFF"/>
  <path d="M4.00986 9.03712C3.76556 8.89867 3.76556 8.54609 4.00986 8.40764L10.7348 4.59638C10.9112 4.49639 11.1271 4.49639 11.3035 4.59638L18.0284 8.40764C18.2727 8.54609 18.2727 8.89867 18.0284 9.03712L11.3035 12.8484C11.1271 12.9484 10.9112 12.9484 10.7348 12.8484L4.00986 9.03712Z" fill="#BCB7FF"/>
  <defs>
    <linearGradient id="paint0_linear_600_3152" x1="5.49296" y1="2.85714" x2="18.8308" y2="19.1757" gradientUnits="userSpaceOnUse">
      <stop stop-color="#17056D"/>
      <stop offset="1" stop-color="#6861E7"/>
    </linearGradient>
  </defs>
</svg>
