<svg width="300" height="300" viewBox="0 0 300 300" fill="none"
  xmlns="http://www.w3.org/2000/svg">
  <circle cx="150" cy="150" r="150" fill="url(#paint0_radial_10952_4863)" fill-opacity="0.3"/>
  <circle cx="150" cy="150" r="127" fill="url(#paint1_linear_10952_4863)" fill-opacity="0.4" stroke="url(#paint2_linear_10952_4863)" stroke-width="4"/>
  <circle cx="149" cy="150" r="100" fill="#0E1D30"/>
  <g filter="url(#filter0_d_10952_4863)">
    <path d="M167.834 163.416L152.209 147.791C151.92 147.499 151.576 147.268 151.197 147.11C150.817 146.952 150.411 146.87 150 146.87C149.589 146.87 149.183 146.952 148.803 147.11C148.424 147.268 148.08 147.499 147.791 147.791L106.25 189.331L110.669 193.75L150 154.419L161.206 165.625L143.75 183.081L148.169 187.5L155.331 180.337L167.834 167.834C168.126 167.545 168.357 167.2 168.514 166.821C168.672 166.442 168.753 166.036 168.753 165.625C168.753 165.214 168.672 164.808 168.514 164.428C168.357 164.049 168.126 163.705 167.834 163.416Z" fill="#12F48E"/>
    <path d="M189.331 128.125L171.875 145.581L153.122 126.825C152.538 126.243 151.845 125.782 151.082 125.469C150.32 125.155 149.503 124.996 148.678 125C147.029 125.005 145.449 125.661 144.281 126.825L125 146.125L129.419 150.544L148.7 131.247L169.669 152.209C169.958 152.5 170.302 152.731 170.681 152.888C171.06 153.046 171.466 153.127 171.877 153.127C172.287 153.127 172.693 153.046 173.072 152.888C173.451 152.731 173.795 152.5 174.084 152.209L193.75 132.544L189.331 128.125Z" fill="#12F48E"/>
    <path d="M170.312 128.125C164.281 128.125 159.375 123.219 159.375 117.188C159.375 111.156 164.281 106.25 170.312 106.25C176.344 106.25 181.25 111.156 181.25 117.188C181.25 123.219 176.344 128.125 170.312 128.125ZM170.312 112.5C167.728 112.5 165.625 114.603 165.625 117.188C165.625 119.772 167.728 121.875 170.312 121.875C172.897 121.875 175 119.772 175 117.188C175 114.603 172.897 112.5 170.312 112.5Z" fill="#12F48E"/>
  </g>
  <defs>
    <filter id="filter0_d_10952_4863" x="78.25" y="90.25" width="127.5" height="127.5" filterUnits="userSpaceOnUse" color-interpolation-filters="sRGB">
      <feFlood flood-opacity="0" result="BackgroundImageFix"/>
      <feColorMatrix in="SourceAlpha" type="matrix" values="0 0 0 0 0 0 0 0 0 0 0 0 0 0 0 0 0 0 127 0" result="hardAlpha"/>
      <feOffset dx="-8" dy="4"/>
      <feGaussianBlur stdDeviation="10"/>
      <feComposite in2="hardAlpha" operator="out"/>
      <feColorMatrix type="matrix" values="0 0 0 0 0.0705882 0 0 0 0 0.956863 0 0 0 0 0.556863 0 0 0 0.6 0"/>
      <feBlend mode="normal" in2="BackgroundImageFix" result="effect1_dropShadow_10952_4863"/>
      <feBlend mode="normal" in="SourceGraphic" in2="effect1_dropShadow_10952_4863" result="shape"/>
    </filter>
    <radialGradient id="paint0_radial_10952_4863" cx="0" cy="0" r="1" gradientUnits="userSpaceOnUse" gradientTransform="translate(150 163.5) rotate(-90) scale(250 516.319)">
      <stop stop-color="#8FC4FF"/>
      <stop offset="1" stop-opacity="0"/>
    </radialGradient>
    <linearGradient id="paint1_linear_10952_4863" x1="100" y1="259.375" x2="206.25" y2="40.625" gradientUnits="userSpaceOnUse">
      <stop stop-color="#81BAFF"/>
      <stop offset="1" stop-color="#02DF57"/>
    </linearGradient>
    <linearGradient id="paint2_linear_10952_4863" x1="150" y1="25" x2="150" y2="275" gradientUnits="userSpaceOnUse">
      <stop stop-color="#8FC4FF"/>
      <stop offset="1" stop-color="#12F48E"/>
    </linearGradient>
  </defs>
</svg>
