<svg width="25" height="24" viewBox="0 0 25 24" fill="none" xmlns="http://www.w3.org/2000/svg">
<g clipPath="url(#clip0_10880_41090)">
<path d="M5.38569 17L0.770267 13.0575C0.597215 12.9096 0.5 12.7091 0.5 12.5C0.5 12.2909 0.597215 12.0904 0.770267 11.9425L5.38569 8L6.69094 9.11495L2.72813 12.5L6.69094 15.8851L5.38569 17Z" fill="white"/>
<path d="M19.6138 17L18.3086 15.8851L22.2714 12.5L18.3086 9.11495L19.6138 8L24.2293 11.9425C24.4023 12.0904 24.4995 12.2909 24.4995 12.5C24.4995 12.7091 24.4023 12.9096 24.2293 13.0575L19.6138 17Z" fill="white"/>
<path d="M14.5016 8.12002L8.96289 15.2168L10.499 16.0916L16.0377 8.99478L14.5016 8.12002Z" fill="white"/>
</g>
<defs>
<clipPath id="clip0_10880_41090">
<rect width="24" height="24" fill="white" transform="translate(0.78125)"/>
</clipPath>
</defs>
</svg>
