<svg width="25" height="24" viewBox="0 0 25 24" fill="none" xmlns="http://www.w3.org/2000/svg">
<path d="M22.5736 7.76335C22.1736 7.31786 23.5191 7.45424 3.69937 7.45424C3.56847 7.45295 3.43884 7.47994 3.31933 7.53337C3.19983 7.5868 3.09327 7.66541 3.00694 7.76382C2.92062 7.86223 2.85656 7.97812 2.81916 8.10357C2.78175 8.22902 2.77188 8.36107 2.79021 8.49068L4.60854 21.219C4.63941 21.4374 4.74867 21.6372 4.91594 21.781C5.08322 21.9249 5.29709 22.003 5.5177 22.0009H20.0643C20.2849 22.003 20.4988 21.9249 20.6661 21.781C20.8333 21.6372 20.9426 21.4374 20.9735 21.219C22.9282 7.45424 22.9555 8.21793 22.5736 7.76335ZM19.2733 20.1825H6.30867L4.74491 9.27256H20.8371L19.2733 20.1825Z" fill="#FAFAFA"/>
<path d="M10.3137 15.7508L8.71104 14.1079C8.65095 14.0463 8.61719 13.9628 8.61719 13.8756C8.61719 13.7885 8.65095 13.705 8.71104 13.6433L10.3137 12.0005L10.767 12.4651L9.39091 13.8756L10.767 15.2862L10.3137 15.7508Z" fill="#FAFAFA"/>
<path d="M15.254 15.7508L14.8008 15.2862L16.1769 13.8756L14.8008 12.4651L15.254 12.0005L16.8567 13.6433C16.9168 13.705 16.9506 13.7885 16.9506 13.8756C16.9506 13.9628 16.9168 14.0463 16.8567 14.1079L15.254 15.7508Z" fill="#FAFAFA"/>
<path d="M13.48 12.0506L11.5566 15.0078L12.0901 15.3723L14.0134 12.4151L13.48 12.0506Z" fill="#FAFAFA"/>
<path d="M4.60643 6.54684H20.9714C21.2125 6.54684 21.4437 6.45106 21.6143 6.28055C21.7848 6.11005 21.8805 5.8788 21.8805 5.63768C21.8805 5.39655 21.7848 5.1653 21.6143 4.9948C21.4437 4.8243 21.2125 4.72852 20.9714 4.72852H4.60643C4.3653 4.72852 4.13405 4.8243 3.96355 4.9948C3.79305 5.1653 3.69727 5.39655 3.69727 5.63768C3.69727 5.8788 3.79305 6.11005 3.96355 6.28055C4.13405 6.45106 4.3653 6.54684 4.60643 6.54684Z" fill="#FAFAFA"/>
<path d="M6.42479 3.81833H19.1531C19.3942 3.81833 19.6255 3.72254 19.796 3.55204C19.9665 3.38154 20.0622 3.15029 20.0622 2.90916C20.0622 2.66804 19.9665 2.43679 19.796 2.26629C19.6255 2.09579 19.3942 2 19.1531 2H6.42479C6.18366 2 5.95241 2.09579 5.78191 2.26629C5.61141 2.43679 5.51562 2.66804 5.51562 2.90916C5.51562 3.15029 5.61141 3.38154 5.78191 3.55204C5.95241 3.72254 6.18366 3.81833 6.42479 3.81833Z" fill="#FAFAFA"/>
</svg>
