<svg width="237" height="454" viewBox="0 0 237 454" fill="none" xmlns="http://www.w3.org/2000/svg">
<rect x="102.781" y="0.675781" width="32" height="32" rx="4" fill="white" fill-opacity="0.2"/>
<rect x="108.781" y="7.17578" width="20" height="20" rx="2" fill="white"/>
<path d="M111.781 15.3998L118.873 10.1758V12.6411L111.781 17.8651V15.3998Z" fill="black"/>
<path d="M125.963 15.3998L118.871 10.1758V12.6411L125.963 17.8651V15.3998Z" fill="black"/>
<path d="M111.781 21.0755L118.873 15.8516V18.3169L111.781 23.5409V21.0755Z" fill="black"/>
<path d="M125.963 21.0755L118.871 15.8516V18.3169L125.963 23.5409V21.0755Z" fill="black"/>
<path d="M90.9375 55.6985C90.3707 55.6985 89.8835 55.6256 89.4759 55.4798C89.0682 55.3372 88.7285 55.1483 88.4567 54.913C88.1882 54.681 87.9744 54.4324 87.8153 54.1673L88.75 53.511C88.8561 53.6502 88.9903 53.8093 89.1527 53.9883C89.3151 54.1706 89.5372 54.328 89.8189 54.4606C90.1039 54.5965 90.4768 54.6644 90.9375 54.6644C91.554 54.6644 92.0627 54.5153 92.4638 54.217C92.8648 53.9187 93.0653 53.4513 93.0653 52.815V51.2638H92.9659C92.8797 51.4031 92.7571 51.5754 92.598 51.7809C92.4422 51.9831 92.2169 52.1637 91.9219 52.3228C91.6302 52.4786 91.2358 52.5565 90.7386 52.5565C90.1222 52.5565 89.5687 52.4106 89.0781 52.119C88.5909 51.8273 88.2048 51.4031 87.9197 50.8462C87.638 50.2894 87.4972 49.6133 87.4972 48.8178C87.4972 48.0356 87.6347 47.3545 87.9098 46.7745C88.1849 46.1912 88.5677 45.7404 89.0582 45.4222C89.5488 45.1007 90.1155 44.94 90.7585 44.94C91.2557 44.94 91.6501 45.0228 91.9418 45.1886C92.2367 45.351 92.4621 45.5366 92.6179 45.7454C92.777 45.9509 92.8996 46.1199 92.9858 46.2525H93.1051V45.0394H94.2386V52.8945C94.2386 53.5508 94.0895 54.0844 93.7912 54.4954C93.4962 54.9097 93.0985 55.2129 92.598 55.4052C92.1009 55.6007 91.5473 55.6985 90.9375 55.6985ZM90.8977 51.5025C91.3684 51.5025 91.7661 51.3948 92.0909 51.1793C92.4157 50.9639 92.6626 50.654 92.8317 50.2496C93.0007 49.8453 93.0852 49.3614 93.0852 48.7979C93.0852 48.2478 93.0024 47.7622 92.8366 47.3413C92.6709 46.9203 92.4257 46.5906 92.1009 46.3519C91.776 46.1133 91.375 45.994 90.8977 45.994C90.4006 45.994 89.9863 46.1199 89.6548 46.3718C89.3267 46.6237 89.0798 46.9618 88.9141 47.386C88.7517 47.8103 88.6705 48.2809 88.6705 48.7979C88.6705 49.3282 88.7533 49.7972 88.919 50.2049C89.0881 50.6093 89.3366 50.9274 89.6648 51.1594C89.9962 51.3881 90.4072 51.5025 90.8977 51.5025ZM97.5597 42.494V52.6758H96.3864V42.494H97.5597ZM104.521 49.5536V45.0394H105.694V52.6758H104.521V51.3832H104.442C104.263 51.771 103.984 52.1007 103.606 52.3725C103.229 52.641 102.751 52.7752 102.175 52.7752C101.697 52.7752 101.273 52.6708 100.902 52.462C100.531 52.2499 100.239 51.9317 100.027 51.5075C99.8147 51.0799 99.7086 50.5413 99.7086 49.8917V45.0394H100.882V49.8121C100.882 50.369 101.038 50.8131 101.349 51.1445C101.664 51.476 102.065 51.6417 102.552 51.6417C102.844 51.6417 103.141 51.5671 103.442 51.418C103.747 51.2688 104.002 51.0401 104.208 50.7319C104.417 50.4237 104.521 50.0309 104.521 49.5536ZM111.045 52.8349C110.309 52.8349 109.675 52.6725 109.141 52.3477C108.611 52.0195 108.201 51.5621 107.913 50.9755C107.628 50.3855 107.485 49.6995 107.485 48.9173C107.485 48.1351 107.628 47.4457 107.913 46.8491C108.201 46.2492 108.602 45.7818 109.116 45.4471C109.633 45.109 110.236 44.94 110.926 44.94C111.324 44.94 111.716 45.0063 112.104 45.1388C112.492 45.2714 112.845 45.4869 113.163 45.7852C113.481 46.0801 113.735 46.4712 113.924 46.9585C114.113 47.4457 114.207 48.0456 114.207 48.7582V49.2553H108.321V48.2411H113.014C113.014 47.8103 112.928 47.4258 112.755 47.0877C112.586 46.7496 112.344 46.4828 112.029 46.2873C111.718 46.0917 111.35 45.994 110.926 45.994C110.458 45.994 110.054 46.11 109.713 46.342C109.375 46.5707 109.114 46.869 108.932 47.2369C108.75 47.6048 108.659 47.9992 108.659 48.4201V49.0962C108.659 49.6729 108.758 50.1618 108.957 50.5629C109.159 50.9606 109.439 51.2638 109.797 51.4727C110.155 51.6781 110.571 51.7809 111.045 51.7809C111.353 51.7809 111.632 51.7378 111.88 51.6516C112.132 51.5621 112.349 51.4296 112.532 51.2539C112.714 51.0749 112.855 50.8529 112.954 50.5877L114.088 50.9059C113.968 51.2904 113.768 51.6284 113.486 51.9201C113.204 52.2085 112.856 52.4338 112.442 52.5962C112.028 52.7553 111.562 52.8349 111.045 52.8349ZM121.401 46.7496L120.347 47.0479C120.281 46.8723 120.183 46.7016 120.054 46.5359C119.928 46.3668 119.755 46.2276 119.537 46.1183C119.318 46.0089 119.038 45.9542 118.696 45.9542C118.229 45.9542 117.84 46.0619 117.528 46.2773C117.22 46.4895 117.066 46.7596 117.066 47.0877C117.066 47.3794 117.172 47.6097 117.384 47.7788C117.596 47.9478 117.927 48.0887 118.378 48.2013L119.512 48.4798C120.194 48.6455 120.703 48.899 121.038 49.2404C121.373 49.5785 121.54 50.0143 121.54 50.5479C121.54 50.9854 121.414 51.3765 121.162 51.7212C120.914 52.0659 120.566 52.3377 120.118 52.5366C119.671 52.7354 119.15 52.8349 118.557 52.8349C117.778 52.8349 117.134 52.6658 116.623 52.3278C116.113 51.9897 115.79 51.4959 115.654 50.8462L116.767 50.5678C116.873 50.9788 117.074 51.2871 117.369 51.4925C117.667 51.698 118.057 51.8008 118.537 51.8008C119.084 51.8008 119.518 51.6848 119.84 51.4528C120.165 51.2174 120.327 50.9357 120.327 50.6076C120.327 50.3424 120.234 50.1204 120.049 49.9414C119.863 49.7591 119.578 49.6232 119.194 49.5337L117.921 49.2354C117.221 49.0697 116.708 48.8129 116.38 48.4648C116.055 48.1135 115.892 47.6744 115.892 47.1474C115.892 46.7165 116.013 46.3353 116.255 46.0039C116.501 45.6725 116.834 45.4123 117.255 45.2234C117.679 45.0344 118.159 44.94 118.696 44.94C119.452 44.94 120.045 45.1057 120.476 45.4371C120.91 45.7686 121.219 46.2061 121.401 46.7496ZM126.627 45.0394V46.0337H122.67V45.0394H126.627ZM123.823 43.2099H124.997V50.4883C124.997 50.8197 125.045 51.0683 125.141 51.234C125.24 51.3964 125.366 51.5058 125.519 51.5621C125.674 51.6152 125.838 51.6417 126.011 51.6417C126.14 51.6417 126.246 51.6351 126.329 51.6218C126.412 51.6052 126.478 51.592 126.528 51.582L126.767 52.636C126.687 52.6658 126.576 52.6957 126.433 52.7255C126.291 52.7586 126.11 52.7752 125.892 52.7752C125.56 52.7752 125.235 52.704 124.917 52.5614C124.602 52.4189 124.34 52.2018 124.132 51.9102C123.926 51.6185 123.823 51.2506 123.823 50.8065V43.2099ZM130.639 52.8548C130.155 52.8548 129.716 52.7636 129.322 52.5813C128.927 52.3957 128.614 52.1289 128.382 51.7809C128.15 51.4296 128.034 51.0053 128.034 50.5082C128.034 50.0707 128.12 49.716 128.293 49.4442C128.465 49.1692 128.695 48.9537 128.984 48.7979C129.272 48.6422 129.59 48.5262 129.938 48.4499C130.29 48.3704 130.643 48.3074 130.997 48.261C131.461 48.2013 131.838 48.1566 132.126 48.1268C132.418 48.0936 132.63 48.0389 132.762 47.9627C132.898 47.8865 132.966 47.7539 132.966 47.565V47.5252C132.966 47.0347 132.832 46.6535 132.563 46.3817C132.298 46.11 131.896 45.9741 131.355 45.9741C130.795 45.9741 130.356 46.0967 130.038 46.342C129.72 46.5872 129.496 46.8491 129.367 47.1275L128.253 46.7298C128.452 46.2657 128.717 45.9045 129.048 45.646C129.383 45.3841 129.748 45.2018 130.142 45.0991C130.54 44.993 130.931 44.94 131.316 44.94C131.561 44.94 131.843 44.9698 132.161 45.0295C132.482 45.0858 132.792 45.2035 133.09 45.3825C133.392 45.5614 133.642 45.8316 133.841 46.1928C134.04 46.5541 134.139 47.038 134.139 47.6445V52.6758H132.966V51.6417H132.906C132.827 51.8074 132.694 51.9847 132.509 52.1737C132.323 52.3626 132.076 52.5233 131.768 52.6559C131.46 52.7885 131.084 52.8548 130.639 52.8548ZM130.818 51.8008C131.282 51.8008 131.673 51.7096 131.992 51.5273C132.313 51.3451 132.555 51.1097 132.718 50.8214C132.883 50.533 132.966 50.2298 132.966 49.9116V48.8377C132.916 48.8974 132.807 48.9521 132.638 49.0018C132.472 49.0482 132.28 49.0896 132.061 49.1261C131.846 49.1592 131.635 49.189 131.43 49.2156C131.228 49.2388 131.064 49.2586 130.938 49.2752C130.633 49.315 130.348 49.3796 130.083 49.4691C129.821 49.5553 129.609 49.6862 129.446 49.8619C129.287 50.0342 129.208 50.2695 129.208 50.5678C129.208 50.9755 129.358 51.2837 129.66 51.4925C129.965 51.698 130.351 51.8008 130.818 51.8008ZM139.383 52.8349C138.667 52.8349 138.051 52.6658 137.534 52.3278C137.017 51.9897 136.619 51.524 136.341 50.9308C136.062 50.3375 135.923 49.6597 135.923 48.8974C135.923 48.1218 136.065 47.4374 136.35 46.8441C136.639 46.2475 137.04 45.7818 137.554 45.4471C138.071 45.109 138.674 44.94 139.363 44.94C139.9 44.94 140.384 45.0394 140.815 45.2383C141.246 45.4371 141.599 45.7156 141.874 46.0735C142.149 46.4315 142.32 46.8491 142.386 47.3263H141.213C141.123 46.9783 140.924 46.6701 140.616 46.4016C140.311 46.1299 139.9 45.994 139.383 45.994C138.926 45.994 138.525 46.1133 138.18 46.3519C137.839 46.5872 137.572 46.9203 137.38 47.3512C137.191 47.7788 137.096 48.2809 137.096 48.8576C137.096 49.4476 137.189 49.9613 137.375 50.3988C137.564 50.8363 137.829 51.176 138.17 51.418C138.515 51.6599 138.919 51.7809 139.383 51.7809C139.688 51.7809 139.965 51.7279 140.213 51.6218C140.462 51.5157 140.672 51.3633 140.845 51.1644C141.017 50.9656 141.14 50.7269 141.213 50.4485H142.386C142.32 50.8993 142.156 51.3053 141.894 51.6665C141.635 52.0245 141.292 52.3095 140.865 52.5217C140.44 52.7305 139.947 52.8349 139.383 52.8349ZM145.195 49.8917L145.175 48.44H145.414L148.755 45.0394H150.206L146.647 48.6388H146.547L145.195 49.8917ZM144.101 52.6758V42.494H145.275V52.6758H144.101ZM148.953 52.6758L145.971 48.8974L146.806 48.082L150.445 52.6758H148.953Z" fill="#D4D4D4"/>
<path d="M118.781 94.6758L118.891 62.6758" stroke="#A3A3A3"/>
<path d="M114.281 93.3379L118.781 97.3379L123.281 93.3379" stroke="#A3A3A3" strokeLinejoin="round"/>
<path d="M60.9835 137.331L57.2123 141.102C57.1498 141.165 57.1146 141.249 57.1146 141.338C57.1146 141.426 57.1498 141.511 57.2123 141.574L60.9835 145.345C61.046 145.407 61.1308 145.442 61.2192 145.442C61.3076 145.442 61.3924 145.407 61.4549 145.345L65.2261 141.574C65.2887 141.511 65.3238 141.426 65.3238 141.338C65.3238 141.249 65.2887 141.165 65.2261 141.102L61.4549 137.331C61.3924 137.268 61.3076 137.233 61.2192 137.233C61.1308 137.233 61.046 137.268 60.9835 137.331ZM64.519 141.338L61.2192 144.638L57.9194 141.338L61.2192 138.038L64.519 141.338ZM66.6404 131.674L62.8691 135.445C62.8066 135.508 62.7715 135.593 62.7715 135.681C62.7715 135.769 62.8066 135.854 62.8691 135.917L66.6404 139.688C66.7029 139.75 66.7877 139.786 66.8761 139.786C66.9645 139.786 67.0492 139.75 67.1118 139.688L70.883 135.917C70.9455 135.854 70.9806 135.769 70.9806 135.681C70.9806 135.593 70.9455 135.508 70.883 135.445L67.1118 131.674C67.0492 131.612 66.9645 131.576 66.8761 131.576C66.7877 131.576 66.7029 131.612 66.6404 131.674ZM70.1759 135.681L66.8761 138.981L63.5762 135.681L66.8761 132.381L70.1759 135.681ZM66.6404 142.988L62.8691 146.759C62.8066 146.822 62.7715 146.906 62.7715 146.995C62.7715 147.083 62.8066 147.168 62.8691 147.23L66.6404 151.002C66.7029 151.064 66.7877 151.099 66.8761 151.099C66.9645 151.099 67.0492 151.064 67.1118 151.002L70.883 147.23C70.9455 147.168 70.9806 147.083 70.9806 146.995C70.9806 146.906 70.9455 146.822 70.883 146.759L67.1118 142.988C67.0492 142.925 66.9645 142.89 66.8761 142.89C66.7877 142.89 66.7029 142.925 66.6404 142.988ZM70.1759 146.995L66.8761 150.295L63.5762 146.995L66.8761 143.695L70.1759 146.995ZM72.2972 137.331L68.526 141.102C68.4635 141.165 68.4283 141.249 68.4283 141.338C68.4283 141.426 68.4635 141.511 68.526 141.574L72.2972 145.345C72.3597 145.407 72.4445 145.442 72.5329 145.442C72.6213 145.442 72.7061 145.407 72.7686 145.345L76.5399 141.574C76.6024 141.511 76.6375 141.426 76.6375 141.338C76.6375 141.249 76.6024 141.165 76.5399 141.102L72.7686 137.331C72.7061 137.268 72.6213 137.233 72.5329 137.233C72.4445 137.233 72.3597 137.268 72.2972 137.331ZM75.8327 141.338L72.5329 144.638L69.2331 141.338L72.5329 138.038L75.8327 141.338Z" fill="white" stroke="white" strokeWidth="0.32"/>
<path d="M34.516 166.338H33.283C33.2101 165.983 33.0825 165.672 32.9002 165.403C32.7212 165.135 32.5025 164.909 32.244 164.727C31.9888 164.541 31.7054 164.402 31.3938 164.309C31.0823 164.217 30.7575 164.17 30.4194 164.17C29.8029 164.17 29.2444 164.326 28.744 164.638C28.2468 164.949 27.8507 165.408 27.5558 166.015C27.2641 166.621 27.1183 167.365 27.1183 168.247C27.1183 169.129 27.2641 169.873 27.5558 170.479C27.8507 171.086 28.2468 171.545 28.744 171.856C29.2444 172.168 29.8029 172.324 30.4194 172.324C30.7575 172.324 31.0823 172.277 31.3938 172.184C31.7054 172.092 31.9888 171.954 32.244 171.772C32.5025 171.586 32.7212 171.359 32.9002 171.091C33.0825 170.819 33.2101 170.507 33.283 170.156H34.516C34.4232 170.676 34.2541 171.142 34.0089 171.553C33.7636 171.964 33.4587 172.314 33.0941 172.602C32.7295 172.887 32.3202 173.104 31.8661 173.253C31.4154 173.403 30.9331 173.477 30.4194 173.477C29.551 173.477 28.7788 173.265 28.1026 172.841C27.4265 172.416 26.8945 171.813 26.5067 171.031C26.119 170.249 25.9251 169.321 25.9251 168.247C25.9251 167.173 26.119 166.245 26.5067 165.463C26.8945 164.681 27.4265 164.077 28.1026 163.653C28.7788 163.229 29.551 163.017 30.4194 163.017C30.9331 163.017 31.4154 163.091 31.8661 163.241C32.3202 163.39 32.7295 163.608 33.0941 163.897C33.4587 164.182 33.7636 164.53 34.0089 164.941C34.2541 165.349 34.4232 165.814 34.516 166.338ZM39.4515 173.497C38.7621 173.497 38.1573 173.333 37.6369 173.005C37.1199 172.677 36.7155 172.218 36.4238 171.628C36.1355 171.038 35.9913 170.348 35.9913 169.559C35.9913 168.764 36.1355 168.07 36.4238 167.476C36.7155 166.883 37.1199 166.422 37.6369 166.094C38.1573 165.766 38.7621 165.602 39.4515 165.602C40.1409 165.602 40.7441 165.766 41.2612 166.094C41.7815 166.422 42.1859 166.883 42.4743 167.476C42.7659 168.07 42.9118 168.764 42.9118 169.559C42.9118 170.348 42.7659 171.038 42.4743 171.628C42.1859 172.218 41.7815 172.677 41.2612 173.005C40.7441 173.333 40.1409 173.497 39.4515 173.497ZM39.4515 172.443C39.9752 172.443 40.4061 172.309 40.7441 172.04C41.0822 171.772 41.3324 171.419 41.4949 170.981C41.6573 170.544 41.7385 170.07 41.7385 169.559C41.7385 169.049 41.6573 168.573 41.4949 168.133C41.3324 167.692 41.0822 167.336 40.7441 167.064C40.4061 166.792 39.9752 166.656 39.4515 166.656C38.9279 166.656 38.497 166.792 38.1589 167.064C37.8208 167.336 37.5706 167.692 37.4082 168.133C37.2458 168.573 37.1646 169.049 37.1646 169.559C37.1646 170.07 37.2458 170.544 37.4082 170.981C37.5706 171.419 37.8208 171.772 38.1589 172.04C38.497 172.309 38.9279 172.443 39.4515 172.443ZM44.7028 173.338V165.702H45.8363V166.895H45.9357C46.0948 166.487 46.3517 166.171 46.7063 165.945C47.061 165.716 47.4869 165.602 47.984 165.602C48.4878 165.602 48.9071 165.716 49.2418 165.945C49.5799 166.171 49.8434 166.487 50.0323 166.895H50.1119C50.3074 166.5 50.6007 166.187 50.9918 165.955C51.3829 165.72 51.8519 165.602 52.3988 165.602C53.0816 165.602 53.64 165.816 54.0742 166.243C54.5084 166.668 54.7255 167.329 54.7255 168.227V173.338H53.5522V168.227C53.5522 167.664 53.3981 167.261 53.0898 167.019C52.7816 166.777 52.4187 166.656 52.0011 166.656C51.4641 166.656 51.0482 166.818 50.7532 167.143C50.4582 167.465 50.3107 167.872 50.3107 168.366V173.338H49.1175V168.108C49.1175 167.674 48.9767 167.324 48.695 167.059C48.4132 166.79 48.0503 166.656 47.6062 166.656C47.3013 166.656 47.0162 166.737 46.7511 166.9C46.4892 167.062 46.2771 167.287 46.1147 167.576C45.9556 167.861 45.8761 168.191 45.8761 168.565V173.338H44.7028ZM56.8707 176.202V165.702H58.0043V166.915H58.1435C58.2296 166.782 58.349 166.613 58.5014 166.407C58.6572 166.199 58.8793 166.013 59.1676 165.851C59.4593 165.685 59.8537 165.602 60.3509 165.602C60.9938 165.602 61.5606 165.763 62.0511 166.084C62.5417 166.406 62.9245 166.862 63.1996 167.452C63.4747 168.041 63.6122 168.738 63.6122 169.54C63.6122 170.348 63.4747 171.049 63.1996 171.643C62.9245 172.233 62.5433 172.69 62.0561 173.015C61.5689 173.336 61.0071 173.497 60.3707 173.497C59.8802 173.497 59.4875 173.416 59.1925 173.253C58.8975 173.088 58.6705 172.9 58.5114 172.692C58.3523 172.479 58.2296 172.304 58.1435 172.165H58.044V176.202H56.8707ZM58.0241 169.52C58.0241 170.096 58.1087 170.605 58.2777 171.046C58.4467 171.483 58.6937 171.827 59.0185 172.075C59.3433 172.32 59.741 172.443 60.2116 172.443C60.7022 172.443 61.1115 172.314 61.4396 172.055C61.7711 171.793 62.0196 171.442 62.1854 171.001C62.3544 170.557 62.4389 170.063 62.4389 169.52C62.4389 168.983 62.3561 168.499 62.1903 168.068C62.0279 167.634 61.781 167.291 61.4496 167.039C61.1214 166.784 60.7088 166.656 60.2116 166.656C59.7344 166.656 59.3333 166.777 59.0085 167.019C58.6837 167.258 58.4384 167.592 58.2727 168.023C58.107 168.451 58.0241 168.95 58.0241 169.52ZM68.5043 173.497C67.8149 173.497 67.21 173.333 66.6896 173.005C66.1726 172.677 65.7682 172.218 65.4766 171.628C65.1882 171.038 65.044 170.348 65.044 169.559C65.044 168.764 65.1882 168.07 65.4766 167.476C65.7682 166.883 66.1726 166.422 66.6896 166.094C67.21 165.766 67.8149 165.602 68.5043 165.602C69.1937 165.602 69.7969 165.766 70.3139 166.094C70.8343 166.422 71.2386 166.883 71.527 167.476C71.8187 168.07 71.9645 168.764 71.9645 169.559C71.9645 170.348 71.8187 171.038 71.527 171.628C71.2386 172.218 70.8343 172.677 70.3139 173.005C69.7969 173.333 69.1937 173.497 68.5043 173.497ZM68.5043 172.443C69.0279 172.443 69.4588 172.309 69.7969 172.04C70.1349 171.772 70.3852 171.419 70.5476 170.981C70.71 170.544 70.7912 170.07 70.7912 169.559C70.7912 169.049 70.71 168.573 70.5476 168.133C70.3852 167.692 70.1349 167.336 69.7969 167.064C69.4588 166.792 69.0279 166.656 68.5043 166.656C67.9806 166.656 67.5497 166.792 67.2116 167.064C66.8736 167.336 66.6233 167.692 66.4609 168.133C66.2985 168.573 66.2173 169.049 66.2173 169.559C66.2173 170.07 66.2985 170.544 66.4609 170.981C66.6233 171.419 66.8736 171.772 67.2116 172.04C67.5497 172.309 67.9806 172.443 68.5043 172.443ZM74.9288 168.744V173.338H73.7555V165.702H74.889V166.895H74.9885C75.1674 166.507 75.4392 166.195 75.8038 165.96C76.1684 165.721 76.639 165.602 77.2157 165.602C77.7328 165.602 78.1852 165.708 78.573 165.92C78.9608 166.129 79.2624 166.447 79.4778 166.875C79.6932 167.299 79.801 167.836 79.801 168.486V173.338H78.6277V168.565C78.6277 167.965 78.4719 167.498 78.1603 167.163C77.8488 166.825 77.4212 166.656 76.8777 166.656C76.5031 166.656 76.1684 166.737 75.8734 166.9C75.5817 167.062 75.3514 167.299 75.1824 167.611C75.0133 167.922 74.9288 168.3 74.9288 168.744ZM85.1467 173.497C84.4109 173.497 83.7762 173.335 83.2425 173.01C82.7122 172.682 82.3029 172.224 82.0146 171.638C81.7295 171.048 81.587 170.362 81.587 169.579C81.587 168.797 81.7295 168.108 82.0146 167.511C82.3029 166.911 82.704 166.444 83.2177 166.109C83.7347 165.771 84.3379 165.602 85.0273 165.602C85.4251 165.602 85.8178 165.668 86.2056 165.801C86.5934 165.934 86.9464 166.149 87.2646 166.447C87.5827 166.742 87.8363 167.133 88.0252 167.621C88.2141 168.108 88.3086 168.708 88.3086 169.42V169.917H82.4222V168.903H87.1154C87.1154 168.472 87.0292 168.088 86.8569 167.75C86.6879 167.412 86.4459 167.145 86.131 166.949C85.8195 166.754 85.4516 166.656 85.0273 166.656C84.56 166.656 84.1557 166.772 83.8143 167.004C83.4762 167.233 83.216 167.531 83.0337 167.899C82.8514 168.267 82.7603 168.661 82.7603 169.082V169.758C82.7603 170.335 82.8597 170.824 83.0586 171.225C83.2608 171.623 83.5408 171.926 83.8988 172.135C84.2567 172.34 84.6727 172.443 85.1467 172.443C85.4549 172.443 85.7333 172.4 85.9819 172.314C86.2338 172.224 86.4509 172.092 86.6332 171.916C86.8155 171.737 86.9563 171.515 87.0558 171.25L88.1893 171.568C88.07 171.952 87.8694 172.291 87.5877 172.582C87.306 172.871 86.958 173.096 86.5437 173.258C86.1294 173.417 85.6637 173.497 85.1467 173.497ZM91.2667 168.744V173.338H90.0934V165.702H91.2269V166.895H91.3263C91.5053 166.507 91.7771 166.195 92.1417 165.96C92.5063 165.721 92.9769 165.602 93.5536 165.602C94.0707 165.602 94.5231 165.708 94.9109 165.92C95.2987 166.129 95.6003 166.447 95.8157 166.875C96.0311 167.299 96.1388 167.836 96.1388 168.486V173.338H94.9656V168.565C94.9656 167.965 94.8098 167.498 94.4982 167.163C94.1867 166.825 93.7591 166.656 93.2156 166.656C92.841 166.656 92.5063 166.737 92.2113 166.9C91.9196 167.062 91.6893 167.299 91.5202 167.611C91.3512 167.922 91.2667 168.3 91.2667 168.744ZM101.604 165.702V166.696H97.6465V165.702H101.604ZM98.7999 163.872H99.9732V171.15C99.9732 171.482 100.021 171.73 100.117 171.896C100.217 172.059 100.343 172.168 100.495 172.224C100.651 172.277 100.815 172.304 100.987 172.304C101.117 172.304 101.223 172.297 101.306 172.284C101.388 172.267 101.455 172.254 101.504 172.244L101.743 173.298C101.664 173.328 101.552 173.358 101.41 173.388C101.267 173.421 101.087 173.437 100.868 173.437C100.537 173.437 100.212 173.366 99.8936 173.224C99.5788 173.081 99.3169 172.864 99.1081 172.572C98.9026 172.281 98.7999 171.913 98.7999 171.469V163.872ZM108.641 167.412L107.587 167.71C107.521 167.534 107.423 167.364 107.294 167.198C107.168 167.029 106.996 166.89 106.777 166.78C106.558 166.671 106.278 166.616 105.937 166.616C105.469 166.616 105.08 166.724 104.768 166.939C104.46 167.152 104.306 167.422 104.306 167.75C104.306 168.041 104.412 168.272 104.624 168.441C104.836 168.61 105.168 168.751 105.618 168.863L106.752 169.142C107.435 169.308 107.943 169.561 108.278 169.903C108.613 170.241 108.78 170.676 108.78 171.21C108.78 171.648 108.654 172.039 108.403 172.383C108.154 172.728 107.806 173 107.358 173.199C106.911 173.398 106.391 173.497 105.797 173.497C105.019 173.497 104.374 173.328 103.863 172.99C103.353 172.652 103.03 172.158 102.894 171.508L104.008 171.23C104.114 171.641 104.314 171.949 104.609 172.155C104.907 172.36 105.297 172.463 105.778 172.463C106.324 172.463 106.759 172.347 107.08 172.115C107.405 171.88 107.567 171.598 107.567 171.27C107.567 171.005 107.474 170.782 107.289 170.604C107.103 170.421 106.818 170.285 106.434 170.196L105.161 169.898C104.462 169.732 103.948 169.475 103.62 169.127C103.295 168.776 103.133 168.336 103.133 167.809C103.133 167.379 103.254 166.997 103.496 166.666C103.741 166.335 104.074 166.074 104.495 165.885C104.919 165.697 105.4 165.602 105.937 165.602C106.692 165.602 107.286 165.768 107.716 166.099C108.151 166.431 108.459 166.868 108.641 167.412Z" fill="#A3A3A3"/>
<rect x="117.781" y="144.338" width="2" height="20" rx="1" fill="white" fill-opacity="0.1"/>
<path d="M169.922 151.338C168.555 151.338 167.264 151.075 166.047 150.55C164.83 150.025 163.768 149.309 162.859 148.4C161.951 147.492 161.234 146.43 160.709 145.213C160.184 143.996 159.922 142.705 159.922 141.338C159.922 139.955 160.193 138.655 160.734 137.438C161.276 136.221 162.009 135.163 162.934 134.263C163.859 133.363 164.939 132.65 166.172 132.125C167.405 131.6 168.722 131.338 170.122 131.338C171.455 131.338 172.714 131.567 173.897 132.025C175.08 132.484 176.118 133.117 177.009 133.925C177.901 134.734 178.609 135.692 179.134 136.8C179.659 137.909 179.922 139.105 179.922 140.388C179.922 142.305 179.339 143.775 178.172 144.8C177.005 145.825 175.589 146.338 173.922 146.338H172.072C171.922 146.338 171.818 146.38 171.759 146.463C171.701 146.546 171.672 146.638 171.672 146.738C171.672 146.938 171.797 147.225 172.047 147.6C172.297 147.975 172.422 148.405 172.422 148.888C172.422 149.721 172.193 150.338 171.734 150.738C171.276 151.138 170.672 151.338 169.922 151.338ZM164.422 142.338C164.855 142.338 165.214 142.196 165.497 141.913C165.78 141.63 165.922 141.271 165.922 140.838C165.922 140.405 165.78 140.046 165.497 139.763C165.214 139.48 164.855 139.338 164.422 139.338C163.989 139.338 163.63 139.48 163.347 139.763C163.064 140.046 162.922 140.405 162.922 140.838C162.922 141.271 163.064 141.63 163.347 141.913C163.63 142.196 163.989 142.338 164.422 142.338ZM167.422 138.338C167.855 138.338 168.214 138.196 168.497 137.913C168.78 137.63 168.922 137.271 168.922 136.838C168.922 136.405 168.78 136.046 168.497 135.763C168.214 135.48 167.855 135.338 167.422 135.338C166.989 135.338 166.63 135.48 166.347 135.763C166.064 136.046 165.922 136.405 165.922 136.838C165.922 137.271 166.064 137.63 166.347 137.913C166.63 138.196 166.989 138.338 167.422 138.338ZM172.422 138.338C172.855 138.338 173.214 138.196 173.497 137.913C173.78 137.63 173.922 137.271 173.922 136.838C173.922 136.405 173.78 136.046 173.497 135.763C173.214 135.48 172.855 135.338 172.422 135.338C171.989 135.338 171.63 135.48 171.347 135.763C171.064 136.046 170.922 136.405 170.922 136.838C170.922 137.271 171.064 137.63 171.347 137.913C171.63 138.196 171.989 138.338 172.422 138.338ZM175.422 142.338C175.855 142.338 176.214 142.196 176.497 141.913C176.78 141.63 176.922 141.271 176.922 140.838C176.922 140.405 176.78 140.046 176.497 139.763C176.214 139.48 175.855 139.338 175.422 139.338C174.989 139.338 174.63 139.48 174.347 139.763C174.064 140.046 173.922 140.405 173.922 140.838C173.922 141.271 174.064 141.63 174.347 141.913C174.63 142.196 174.989 142.338 175.422 142.338ZM169.922 149.338C170.072 149.338 170.193 149.296 170.284 149.213C170.376 149.13 170.422 149.021 170.422 148.888C170.422 148.655 170.297 148.38 170.047 148.063C169.797 147.746 169.672 147.271 169.672 146.638C169.672 145.938 169.914 145.38 170.397 144.963C170.88 144.546 171.472 144.338 172.172 144.338H173.922C175.022 144.338 175.964 144.017 176.747 143.375C177.53 142.734 177.922 141.738 177.922 140.388C177.922 138.371 177.151 136.692 175.609 135.35C174.068 134.009 172.239 133.338 170.122 133.338C167.855 133.338 165.922 134.113 164.322 135.663C162.722 137.213 161.922 139.105 161.922 141.338C161.922 143.555 162.701 145.442 164.259 147C165.818 148.559 167.705 149.338 169.922 149.338Z" fill="#FAFAFA"/>
<path d="M154.496 165.702C154.437 165.198 154.195 164.807 153.771 164.528C153.346 164.25 152.826 164.111 152.21 164.111C151.759 164.111 151.364 164.184 151.026 164.329C150.692 164.475 150.43 164.676 150.241 164.931C150.055 165.186 149.962 165.476 149.962 165.801C149.962 166.073 150.027 166.306 150.156 166.502C150.289 166.694 150.458 166.855 150.663 166.984C150.869 167.11 151.084 167.215 151.31 167.297C151.535 167.377 151.742 167.442 151.931 167.491L152.965 167.77C153.23 167.839 153.525 167.935 153.85 168.058C154.178 168.181 154.491 168.348 154.79 168.56C155.091 168.769 155.34 169.037 155.536 169.366C155.731 169.694 155.829 170.096 155.829 170.574C155.829 171.124 155.685 171.621 155.396 172.065C155.111 172.509 154.694 172.862 154.143 173.124C153.597 173.386 152.932 173.517 152.15 173.517C151.421 173.517 150.789 173.399 150.256 173.164C149.725 172.929 149.308 172.6 149.003 172.18C148.701 171.759 148.531 171.27 148.491 170.713H149.763C149.797 171.097 149.926 171.416 150.151 171.667C150.38 171.916 150.668 172.102 151.016 172.224C151.368 172.344 151.746 172.403 152.15 172.403C152.621 172.403 153.043 172.327 153.418 172.175C153.792 172.019 154.089 171.803 154.308 171.528C154.526 171.25 154.636 170.925 154.636 170.554C154.636 170.216 154.541 169.941 154.352 169.729C154.163 169.516 153.915 169.344 153.607 169.211C153.298 169.079 152.965 168.963 152.607 168.863L151.354 168.506C150.559 168.277 149.929 167.95 149.465 167.526C149.001 167.102 148.769 166.547 148.769 165.861C148.769 165.291 148.923 164.793 149.232 164.369C149.543 163.942 149.961 163.61 150.484 163.375C151.011 163.136 151.6 163.017 152.249 163.017C152.906 163.017 153.489 163.135 153.999 163.37C154.51 163.602 154.914 163.92 155.212 164.324C155.514 164.729 155.673 165.188 155.69 165.702H154.496ZM161.018 165.702V166.696H157.061V165.702H161.018ZM158.214 163.872H159.387V171.15C159.387 171.482 159.435 171.73 159.531 171.896C159.631 172.059 159.757 172.168 159.909 172.224C160.065 172.277 160.229 172.304 160.401 172.304C160.531 172.304 160.637 172.297 160.72 172.284C160.802 172.267 160.869 172.254 160.919 172.244L161.157 173.298C161.078 173.328 160.967 173.358 160.824 173.388C160.682 173.421 160.501 173.437 160.282 173.437C159.951 173.437 159.626 173.366 159.308 173.224C158.993 173.081 158.731 172.864 158.522 172.572C158.317 172.281 158.214 171.913 158.214 171.469V163.872ZM163.539 176.202C163.34 176.202 163.162 176.185 163.007 176.152C162.851 176.122 162.743 176.092 162.683 176.062L162.982 175.028C163.267 175.101 163.519 175.128 163.737 175.108C163.956 175.088 164.15 174.99 164.319 174.814C164.491 174.642 164.649 174.362 164.791 173.974L165.01 173.378L162.186 165.702H163.459L165.567 171.787H165.646L167.754 165.702H169.027L165.786 174.452C165.64 174.846 165.459 175.172 165.244 175.431C165.028 175.693 164.778 175.887 164.493 176.013C164.211 176.139 163.893 176.202 163.539 176.202ZM171.749 163.156V173.338H170.576V163.156H171.749ZM173.898 173.338V165.702H175.071V173.338H173.898ZM174.495 164.429C174.266 164.429 174.069 164.351 173.903 164.195C173.741 164.039 173.659 163.852 173.659 163.633C173.659 163.415 173.741 163.227 173.903 163.072C174.069 162.916 174.266 162.838 174.495 162.838C174.723 162.838 174.919 162.916 175.081 163.072C175.247 163.227 175.33 163.415 175.33 163.633C175.33 163.852 175.247 164.039 175.081 164.195C174.919 164.351 174.723 164.429 174.495 164.429ZM178.394 168.744V173.338H177.22V165.702H178.354V166.895H178.453C178.632 166.507 178.904 166.195 179.269 165.96C179.633 165.721 180.104 165.602 180.681 165.602C181.198 165.602 181.65 165.708 182.038 165.92C182.426 166.129 182.727 166.447 182.943 166.875C183.158 167.299 183.266 167.836 183.266 168.486V173.338H182.093V168.565C182.093 167.965 181.937 167.498 181.625 167.163C181.314 166.825 180.886 166.656 180.343 166.656C179.968 166.656 179.633 166.737 179.338 166.9C179.047 167.062 178.816 167.299 178.647 167.611C178.478 167.922 178.394 168.3 178.394 168.744ZM188.492 176.361C187.925 176.361 187.438 176.288 187.031 176.142C186.623 175.999 186.283 175.81 186.011 175.575C185.743 175.343 185.529 175.095 185.37 174.829L186.305 174.173C186.411 174.312 186.545 174.471 186.707 174.65C186.87 174.833 187.092 174.99 187.374 175.123C187.659 175.259 188.031 175.327 188.492 175.327C189.109 175.327 189.617 175.177 190.018 174.879C190.42 174.581 190.62 174.113 190.62 173.477V171.926H190.521C190.434 172.065 190.312 172.238 190.153 172.443C189.997 172.645 189.772 172.826 189.477 172.985C189.185 173.141 188.79 173.219 188.293 173.219C187.677 173.219 187.123 173.073 186.633 172.781C186.146 172.489 185.759 172.065 185.474 171.508C185.193 170.952 185.052 170.275 185.052 169.48C185.052 168.698 185.189 168.017 185.464 167.437C185.74 166.853 186.122 166.403 186.613 166.084C187.103 165.763 187.67 165.602 188.313 165.602C188.81 165.602 189.205 165.685 189.496 165.851C189.791 166.013 190.017 166.199 190.173 166.407C190.332 166.613 190.454 166.782 190.54 166.915H190.66V165.702H191.793V173.557C191.793 174.213 191.644 174.747 191.346 175.157C191.051 175.572 190.653 175.875 190.153 176.067C189.656 176.263 189.102 176.361 188.492 176.361ZM188.452 172.165C188.923 172.165 189.321 172.057 189.646 171.841C189.97 171.626 190.217 171.316 190.386 170.912C190.555 170.507 190.64 170.023 190.64 169.46C190.64 168.91 190.557 168.424 190.391 168.003C190.226 167.582 189.98 167.253 189.656 167.014C189.331 166.775 188.93 166.656 188.452 166.656C187.955 166.656 187.541 166.782 187.21 167.034C186.881 167.286 186.634 167.624 186.469 168.048C186.306 168.472 186.225 168.943 186.225 169.46C186.225 169.99 186.308 170.459 186.474 170.867C186.643 171.271 186.891 171.59 187.219 171.822C187.551 172.05 187.962 172.165 188.452 172.165Z" fill="#A3A3A3"/>
<path fillRule="evenodd" clipRule="evenodd" d="M61.1602 206.401C60.0043 206.401 59.0672 207.338 59.0672 208.494C59.0672 209.65 60.0043 210.587 61.1602 210.587C62.3162 210.587 63.2533 209.65 63.2533 208.494C63.2533 207.338 62.3162 206.401 61.1602 206.401ZM57.6719 208.494C57.6719 206.568 59.2337 205.006 61.1602 205.006C63.0868 205.006 64.6486 206.568 64.6486 208.494C64.6486 210.421 63.0868 211.983 61.1602 211.983C59.2337 211.983 57.6719 210.421 57.6719 208.494Z" fill="white"/>
<path fillRule="evenodd" clipRule="evenodd" d="M74.1835 206.401C73.0275 206.401 72.0905 207.338 72.0905 208.494C72.0905 209.65 73.0275 210.587 74.1835 210.587C75.3395 210.587 76.2765 209.65 76.2765 208.494C76.2765 207.338 75.3395 206.401 74.1835 206.401ZM70.6951 208.494C70.6951 206.568 72.2569 205.006 74.1835 205.006C76.1101 205.006 77.6719 206.568 77.6719 208.494C77.6719 210.421 76.1101 211.983 74.1835 211.983C72.2569 211.983 70.6951 210.421 70.6951 208.494Z" fill="white"/>
<path fillRule="evenodd" clipRule="evenodd" d="M61.1602 219.424C60.0043 219.424 59.0672 220.362 59.0672 221.517C59.0672 222.673 60.0043 223.611 61.1602 223.611C62.3162 223.611 63.2533 222.673 63.2533 221.517C63.2533 220.362 62.3162 219.424 61.1602 219.424ZM57.6719 221.517C57.6719 219.591 59.2337 218.029 61.1602 218.029C63.0868 218.029 64.6486 219.591 64.6486 221.517C64.6486 223.444 63.0868 225.006 61.1602 225.006C59.2337 225.006 57.6719 223.444 57.6719 221.517Z" fill="white"/>
<path fillRule="evenodd" clipRule="evenodd" d="M74.1835 219.424C73.0275 219.424 72.0905 220.361 72.0905 221.517C72.0905 222.673 73.0275 223.611 74.1835 223.611C75.3395 223.611 76.2765 222.673 76.2765 221.517C76.2765 220.361 75.3395 219.424 74.1835 219.424ZM70.6951 221.517C70.6951 219.591 72.2569 218.029 74.1835 218.029C76.1101 218.029 77.6719 219.591 77.6719 221.517C77.6719 223.444 76.1101 225.006 74.1835 225.006C72.2569 225.006 70.6951 223.444 70.6951 221.517Z" fill="white"/>
<path fillRule="evenodd" clipRule="evenodd" d="M63.2533 221.517C63.2533 221.132 63.5656 220.82 63.9509 220.82H71.3928C71.7781 220.82 72.0905 221.132 72.0905 221.517C72.0905 221.903 71.7781 222.215 71.3928 222.215H63.9509C63.5656 222.215 63.2533 221.903 63.2533 221.517Z" fill="white"/>
<path fillRule="evenodd" clipRule="evenodd" d="M63.2533 208.494C63.2533 208.109 63.5656 207.797 63.9509 207.797H71.3928C71.7781 207.797 72.0905 208.109 72.0905 208.494C72.0905 208.88 71.7781 209.192 71.3928 209.192H63.9509C63.5656 209.192 63.2533 208.88 63.2533 208.494Z" fill="white"/>
<path fillRule="evenodd" clipRule="evenodd" d="M74.1835 210.587C74.5688 210.587 74.8812 210.9 74.8812 211.285V218.727C74.8812 219.112 74.5688 219.424 74.1835 219.424C73.7982 219.424 73.4858 219.112 73.4858 218.727V211.285C73.4858 210.9 73.7982 210.587 74.1835 210.587Z" fill="white"/>
<path fillRule="evenodd" clipRule="evenodd" d="M61.1602 210.587C61.5456 210.587 61.8579 210.9 61.8579 211.285V218.727C61.8579 219.112 61.5456 219.424 61.1602 219.424C60.7749 219.424 60.4626 219.112 60.4626 218.727V211.285C60.4626 210.9 60.7749 210.587 61.1602 210.587Z" fill="white"/>
<path d="M31.5796 247.338V237.156H37.6847V238.25H32.8126V241.69H37.2274V242.784H32.8126V247.338H31.5796ZM42.1791 247.497C41.4897 247.497 40.8848 247.333 40.3644 247.005C39.8474 246.677 39.443 246.218 39.1514 245.628C38.863 245.038 38.7188 244.348 38.7188 243.559C38.7188 242.764 38.863 242.07 39.1514 241.476C39.443 240.883 39.8474 240.422 40.3644 240.094C40.8848 239.766 41.4897 239.602 42.1791 239.602C42.8685 239.602 43.4717 239.766 43.9887 240.094C44.5091 240.422 44.9134 240.883 45.2018 241.476C45.4935 242.07 45.6393 242.764 45.6393 243.559C45.6393 244.348 45.4935 245.038 45.2018 245.628C44.9134 246.218 44.5091 246.677 43.9887 247.005C43.4717 247.333 42.8685 247.497 42.1791 247.497ZM42.1791 246.443C42.7027 246.443 43.1336 246.309 43.4717 246.04C43.8097 245.772 44.06 245.419 44.2224 244.981C44.3848 244.544 44.466 244.07 44.466 243.559C44.466 243.049 44.3848 242.573 44.2224 242.133C44.06 241.692 43.8097 241.336 43.4717 241.064C43.1336 240.792 42.7027 240.656 42.1791 240.656C41.6554 240.656 41.2245 240.792 40.8865 241.064C40.5484 241.336 40.2981 241.692 40.1357 242.133C39.9733 242.573 39.8921 243.049 39.8921 243.559C39.8921 244.07 39.9733 244.544 40.1357 244.981C40.2981 245.419 40.5484 245.772 40.8865 246.04C41.2245 246.309 41.6554 246.443 42.1791 246.443ZM52.2428 244.216V239.702H53.4161V247.338H52.2428V246.045H52.1633C51.9843 246.433 51.7059 246.763 51.328 247.035C50.9502 247.303 50.4729 247.437 49.8962 247.437C49.4189 247.437 48.9947 247.333 48.6235 247.124C48.2523 246.912 47.9606 246.594 47.7485 246.17C47.5364 245.742 47.4303 245.203 47.4303 244.554V239.702H48.6036V244.474C48.6036 245.031 48.7594 245.475 49.0709 245.807C49.3858 246.138 49.7868 246.304 50.2741 246.304C50.5657 246.304 50.8624 246.229 51.164 246.08C51.4689 245.931 51.7241 245.702 51.9296 245.394C52.1384 245.086 52.2428 244.693 52.2428 244.216ZM56.7384 242.744V247.338H55.5651V239.702H56.6986V240.895H56.798C56.977 240.507 57.2488 240.195 57.6134 239.96C57.978 239.721 58.4486 239.602 59.0253 239.602C59.5423 239.602 59.9948 239.708 60.3825 239.92C60.7703 240.129 61.0719 240.447 61.2874 240.875C61.5028 241.299 61.6105 241.836 61.6105 242.486V247.338H60.4372V242.565C60.4372 241.965 60.2815 241.498 59.9699 241.163C59.6584 240.825 59.2308 240.656 58.6872 240.656C58.3127 240.656 57.978 240.737 57.683 240.9C57.3913 241.062 57.161 241.299 56.9919 241.611C56.8229 241.922 56.7384 242.3 56.7384 242.744ZM66.6381 247.497C66.0017 247.497 65.4399 247.336 64.9527 247.015C64.4655 246.69 64.0843 246.233 63.8092 245.643C63.5341 245.049 63.3966 244.348 63.3966 243.54C63.3966 242.738 63.5341 242.041 63.8092 241.452C64.0843 240.862 64.4671 240.406 64.9577 240.084C65.4482 239.763 66.0149 239.602 66.6579 239.602C67.1551 239.602 67.5479 239.685 67.8362 239.851C68.1279 240.013 68.3499 240.199 68.5024 240.407C68.6582 240.613 68.7791 240.782 68.8653 240.915H68.9648V237.156H70.1381V247.338H69.0045V246.165H68.8653C68.7791 246.304 68.6565 246.479 68.4974 246.692C68.3383 246.9 68.1113 247.088 67.8163 247.253C67.5213 247.416 67.1286 247.497 66.6381 247.497ZM66.7971 246.443C67.2678 246.443 67.6655 246.32 67.9903 246.075C68.3151 245.827 68.5621 245.483 68.7311 245.046C68.9001 244.605 68.9846 244.096 68.9846 243.52C68.9846 242.95 68.9018 242.451 68.7361 242.023C68.5703 241.592 68.3251 241.258 68.0003 241.019C67.6755 240.777 67.2744 240.656 66.7971 240.656C66.3 240.656 65.8857 240.784 65.5542 241.039C65.2261 241.291 64.9792 241.634 64.8135 242.068C64.6511 242.499 64.5699 242.983 64.5699 243.52C64.5699 244.063 64.6527 244.557 64.8184 245.001C64.9875 245.442 65.2361 245.793 65.5642 246.055C65.8956 246.314 66.3066 246.443 66.7971 246.443ZM74.697 247.517C74.2131 247.517 73.7739 247.426 73.3795 247.243C72.9851 247.058 72.6719 246.791 72.4399 246.443C72.2079 246.092 72.0919 245.667 72.0919 245.17C72.0919 244.733 72.1781 244.378 72.3504 244.106C72.5228 243.831 72.7531 243.616 73.0415 243.46C73.3298 243.304 73.648 243.188 73.996 243.112C74.3473 243.032 74.7003 242.97 75.055 242.923C75.519 242.863 75.8952 242.819 76.1835 242.789C76.4752 242.756 76.6873 242.701 76.8199 242.625C76.9558 242.549 77.0237 242.416 77.0237 242.227V242.187C77.0237 241.697 76.8895 241.316 76.621 241.044C76.3559 240.772 75.9532 240.636 75.4129 240.636C74.8528 240.636 74.4136 240.759 74.0954 241.004C73.7773 241.249 73.5535 241.511 73.4243 241.79L72.3106 241.392C72.5095 240.928 72.7747 240.567 73.1061 240.308C73.4408 240.046 73.8054 239.864 74.1998 239.761C74.5976 239.655 74.9887 239.602 75.3731 239.602C75.6184 239.602 75.9001 239.632 76.2183 239.692C76.5398 239.748 76.8497 239.866 77.148 240.045C77.4496 240.224 77.6998 240.494 77.8987 240.855C78.0976 241.216 78.197 241.7 78.197 242.307V247.338H77.0237V246.304H76.964C76.8845 246.47 76.7519 246.647 76.5663 246.836C76.3807 247.025 76.1338 247.185 75.8256 247.318C75.5173 247.451 75.1411 247.517 74.697 247.517ZM74.876 246.463C75.34 246.463 75.7311 246.372 76.0493 246.189C76.3708 246.007 76.6127 245.772 76.7751 245.483C76.9408 245.195 77.0237 244.892 77.0237 244.574V243.5C76.974 243.559 76.8646 243.614 76.6956 243.664C76.5299 243.71 76.3376 243.752 76.1189 243.788C75.9034 243.821 75.693 243.851 75.4875 243.878C75.2853 243.901 75.1212 243.921 74.9953 243.937C74.6904 243.977 74.4053 244.042 74.1402 244.131C73.8783 244.217 73.6662 244.348 73.5038 244.524C73.3447 244.696 73.2652 244.932 73.2652 245.23C73.2652 245.638 73.416 245.946 73.7176 246.155C74.0225 246.36 74.4086 246.463 74.876 246.463ZM83.6595 239.702V240.696H79.7021V239.702H83.6595ZM80.8556 237.872H82.0289V245.15C82.0289 245.482 82.0769 245.73 82.173 245.896C82.2725 246.059 82.3984 246.168 82.5509 246.224C82.7066 246.277 82.8707 246.304 83.0431 246.304C83.1723 246.304 83.2784 246.297 83.3612 246.284C83.4441 246.267 83.5104 246.254 83.5601 246.244L83.7987 247.298C83.7192 247.328 83.6082 247.358 83.4656 247.388C83.3231 247.421 83.1425 247.437 82.9237 247.437C82.5923 247.437 82.2675 247.366 81.9493 247.224C81.6344 247.081 81.3726 246.864 81.1638 246.572C80.9583 246.281 80.8556 245.913 80.8556 245.469V237.872ZM85.4244 247.338V239.702H86.5977V247.338H85.4244ZM86.021 238.429C85.7923 238.429 85.5951 238.351 85.4294 238.195C85.267 238.039 85.1858 237.852 85.1858 237.633C85.1858 237.415 85.267 237.227 85.4294 237.072C85.5951 236.916 85.7923 236.838 86.021 236.838C86.2497 236.838 86.4453 236.916 86.6077 237.072C86.7734 237.227 86.8563 237.415 86.8563 237.633C86.8563 237.852 86.7734 238.039 86.6077 238.195C86.4453 238.351 86.2497 238.429 86.021 238.429ZM91.849 247.497C91.1596 247.497 90.5547 247.333 90.0344 247.005C89.5173 246.677 89.113 246.218 88.8213 245.628C88.5329 245.038 88.3888 244.348 88.3888 243.559C88.3888 242.764 88.5329 242.07 88.8213 241.476C89.113 240.883 89.5173 240.422 90.0344 240.094C90.5547 239.766 91.1596 239.602 91.849 239.602C92.5384 239.602 93.1416 239.766 93.6586 240.094C94.179 240.422 94.5834 240.883 94.8717 241.476C95.1634 242.07 95.3092 242.764 95.3092 243.559C95.3092 244.348 95.1634 245.038 94.8717 245.628C94.5834 246.218 94.179 246.677 93.6586 247.005C93.1416 247.333 92.5384 247.497 91.849 247.497ZM91.849 246.443C92.3727 246.443 92.8035 246.309 93.1416 246.04C93.4797 245.772 93.7299 245.419 93.8923 244.981C94.0547 244.544 94.1359 244.07 94.1359 243.559C94.1359 243.049 94.0547 242.573 93.8923 242.133C93.7299 241.692 93.4797 241.336 93.1416 241.064C92.8035 240.792 92.3727 240.656 91.849 240.656C91.3253 240.656 90.8944 240.792 90.5564 241.064C90.2183 241.336 89.9681 241.692 89.8057 242.133C89.6433 242.573 89.5621 243.049 89.5621 243.559C89.5621 244.07 89.6433 244.544 89.8057 244.981C89.9681 245.419 90.2183 245.772 90.5564 246.04C90.8944 246.309 91.3253 246.443 91.849 246.443ZM98.2735 242.744V247.338H97.1002V239.702H98.2338V240.895H98.3332C98.5122 240.507 98.7839 240.195 99.1485 239.96C99.5131 239.721 99.9838 239.602 100.56 239.602C101.078 239.602 101.53 239.708 101.918 239.92C102.305 240.129 102.607 240.447 102.823 240.875C103.038 241.299 103.146 241.836 103.146 242.486V247.338H101.972V242.565C101.972 241.965 101.817 241.498 101.505 241.163C101.194 240.825 100.766 240.656 100.222 240.656C99.8479 240.656 99.5131 240.737 99.2181 240.9C98.9265 241.062 98.6961 241.299 98.5271 241.611C98.358 241.922 98.2735 242.3 98.2735 242.744Z" fill="#A3A3A3"/>
<rect x="117.781" y="218.338" width="2" height="20" rx="1" fill="white" fill-opacity="0.1"/>
<path d="M160.672 208.094V222.094" stroke="white" strokeLinecap="round"/>
<path d="M179.672 208.094V222.094" stroke="white" strokeLinecap="round"/>
<line x1="176.672" y1="205.594" x2="163.672" y2="205.594" stroke="white" strokeLinecap="round"/>
<path d="M177.172 224.594L163.172 224.594" stroke="white" strokeLinecap="round"/>
<path d="M134.471 247.338H133.178L136.917 237.156H138.19L141.928 247.338H140.636L137.593 238.767H137.513L134.471 247.338ZM134.948 243.361H140.158V244.454H134.948V243.361ZM148.168 244.216V239.702H149.341V247.338H148.168V246.045H148.088C147.909 246.433 147.631 246.763 147.253 247.035C146.875 247.303 146.398 247.437 145.821 247.437C145.344 247.437 144.92 247.333 144.548 247.124C144.177 246.912 143.885 246.594 143.673 246.17C143.461 245.742 143.355 245.203 143.355 244.554V239.702H144.528V244.474C144.528 245.031 144.684 245.475 144.996 245.807C145.311 246.138 145.712 246.304 146.199 246.304C146.491 246.304 146.787 246.229 147.089 246.08C147.394 245.931 147.649 245.702 147.854 245.394C148.063 245.086 148.168 244.693 148.168 244.216ZM154.811 239.702V240.696H150.854V239.702H154.811ZM152.007 237.872H153.18V245.15C153.18 245.482 153.228 245.73 153.324 245.896C153.424 246.059 153.55 246.168 153.702 246.224C153.858 246.277 154.022 246.304 154.194 246.304C154.324 246.304 154.43 246.297 154.513 246.284C154.595 246.267 154.662 246.254 154.711 246.244L154.95 247.298C154.871 247.328 154.76 247.358 154.617 247.388C154.474 247.421 154.294 247.437 154.075 247.437C153.744 247.437 153.419 247.366 153.101 247.224C152.786 247.081 152.524 246.864 152.315 246.572C152.11 246.281 152.007 245.913 152.007 245.469V237.872ZM159.596 247.497C158.907 247.497 158.302 247.333 157.781 247.005C157.264 246.677 156.86 246.218 156.568 245.628C156.28 245.038 156.136 244.348 156.136 243.559C156.136 242.764 156.28 242.07 156.568 241.476C156.86 240.883 157.264 240.422 157.781 240.094C158.302 239.766 158.907 239.602 159.596 239.602C160.285 239.602 160.889 239.766 161.406 240.094C161.926 240.422 162.33 240.883 162.619 241.476C162.91 242.07 163.056 242.764 163.056 243.559C163.056 244.348 162.91 245.038 162.619 245.628C162.33 246.218 161.926 246.677 161.406 247.005C160.889 247.333 160.285 247.497 159.596 247.497ZM159.596 246.443C160.12 246.443 160.551 246.309 160.889 246.04C161.227 245.772 161.477 245.419 161.639 244.981C161.802 244.544 161.883 244.07 161.883 243.559C161.883 243.049 161.802 242.573 161.639 242.133C161.477 241.692 161.227 241.336 160.889 241.064C160.551 240.792 160.12 240.656 159.596 240.656C159.072 240.656 158.642 240.792 158.303 241.064C157.965 241.336 157.715 241.692 157.553 242.133C157.39 242.573 157.309 243.049 157.309 243.559C157.309 244.07 157.39 244.544 157.553 244.981C157.715 245.419 157.965 245.772 158.303 246.04C158.642 246.309 159.072 246.443 159.596 246.443ZM169.958 237.156V247.338H168.785V237.156H169.958ZM174.354 247.517C173.87 247.517 173.431 247.426 173.037 247.243C172.642 247.058 172.329 246.791 172.097 246.443C171.865 246.092 171.749 245.667 171.749 245.17C171.749 244.733 171.835 244.378 172.008 244.106C172.18 243.831 172.41 243.616 172.699 243.46C172.987 243.304 173.305 243.188 173.653 243.112C174.005 243.032 174.358 242.97 174.712 242.923C175.176 242.863 175.552 242.819 175.841 242.789C176.132 242.756 176.345 242.701 176.477 242.625C176.613 242.549 176.681 242.416 176.681 242.227V242.187C176.681 241.697 176.547 241.316 176.278 241.044C176.013 240.772 175.61 240.636 175.07 240.636C174.51 240.636 174.071 240.759 173.753 241.004C173.434 241.249 173.211 241.511 173.081 241.79L171.968 241.392C172.167 240.928 172.432 240.567 172.763 240.308C173.098 240.046 173.463 239.864 173.857 239.761C174.255 239.655 174.646 239.602 175.03 239.602C175.276 239.602 175.557 239.632 175.876 239.692C176.197 239.748 176.507 239.866 176.805 240.045C177.107 240.224 177.357 240.494 177.556 240.855C177.755 241.216 177.854 241.7 177.854 242.307V247.338H176.681V246.304H176.621C176.542 246.47 176.409 246.647 176.224 246.836C176.038 247.025 175.791 247.185 175.483 247.318C175.175 247.451 174.798 247.517 174.354 247.517ZM174.533 246.463C174.997 246.463 175.388 246.372 175.706 246.189C176.028 246.007 176.27 245.772 176.432 245.483C176.598 245.195 176.681 244.892 176.681 244.574V243.5C176.631 243.559 176.522 243.614 176.353 243.664C176.187 243.71 175.995 243.752 175.776 243.788C175.561 243.821 175.35 243.851 175.145 243.878C174.943 243.901 174.778 243.921 174.653 243.937C174.348 243.977 174.063 244.042 173.797 244.131C173.536 244.217 173.323 244.348 173.161 244.524C173.002 244.696 172.922 244.932 172.922 245.23C172.922 245.638 173.073 245.946 173.375 246.155C173.68 246.36 174.066 246.463 174.533 246.463ZM180.478 250.202C180.279 250.202 180.102 250.185 179.946 250.152C179.79 250.122 179.683 250.092 179.623 250.062L179.921 249.028C180.206 249.101 180.458 249.128 180.677 249.108C180.896 249.088 181.089 248.99 181.259 248.814C181.431 248.642 181.588 248.362 181.731 247.974L181.95 247.378L179.126 239.702H180.398L182.506 245.787H182.586L184.694 239.702H185.967L182.725 248.452C182.579 248.846 182.399 249.172 182.183 249.431C181.968 249.693 181.718 249.887 181.433 250.013C181.151 250.139 180.833 250.202 180.478 250.202ZM190.344 247.497C189.655 247.497 189.05 247.333 188.529 247.005C188.012 246.677 187.608 246.218 187.316 245.628C187.028 245.038 186.884 244.348 186.884 243.559C186.884 242.764 187.028 242.07 187.316 241.476C187.608 240.883 188.012 240.422 188.529 240.094C189.05 239.766 189.655 239.602 190.344 239.602C191.033 239.602 191.637 239.766 192.154 240.094C192.674 240.422 193.078 240.883 193.367 241.476C193.658 242.07 193.804 242.764 193.804 243.559C193.804 244.348 193.658 245.038 193.367 245.628C193.078 246.218 192.674 246.677 192.154 247.005C191.637 247.333 191.033 247.497 190.344 247.497ZM190.344 246.443C190.868 246.443 191.299 246.309 191.637 246.04C191.975 245.772 192.225 245.419 192.387 244.981C192.55 244.544 192.631 244.07 192.631 243.559C192.631 243.049 192.55 242.573 192.387 242.133C192.225 241.692 191.975 241.336 191.637 241.064C191.299 240.792 190.868 240.656 190.344 240.656C189.82 240.656 189.39 240.792 189.051 241.064C188.713 241.336 188.463 241.692 188.301 242.133C188.138 242.573 188.057 243.049 188.057 243.559C188.057 244.07 188.138 244.544 188.301 244.981C188.463 245.419 188.713 245.772 189.051 246.04C189.39 246.309 189.82 246.443 190.344 246.443ZM200.408 244.216V239.702H201.581V247.338H200.408V246.045H200.328C200.149 246.433 199.871 246.763 199.493 247.035C199.115 247.303 198.638 247.437 198.061 247.437C197.584 247.437 197.16 247.333 196.789 247.124C196.417 246.912 196.126 246.594 195.914 246.17C195.701 245.742 195.595 245.203 195.595 244.554V239.702H196.769V244.474C196.769 245.031 196.924 245.475 197.236 245.807C197.551 246.138 197.952 246.304 198.439 246.304C198.731 246.304 199.027 246.229 199.329 246.08C199.634 245.931 199.889 245.702 200.095 245.394C200.303 245.086 200.408 244.693 200.408 244.216ZM207.051 239.702V240.696H203.094V239.702H207.051ZM204.247 237.872H205.42V245.15C205.42 245.482 205.469 245.73 205.565 245.896C205.664 246.059 205.79 246.168 205.942 246.224C206.098 246.277 206.262 246.304 206.435 246.304C206.564 246.304 206.67 246.297 206.753 246.284C206.836 246.267 206.902 246.254 206.952 246.244L207.19 247.298C207.111 247.328 207 247.358 206.857 247.388C206.715 247.421 206.534 247.437 206.315 247.437C205.984 247.437 205.659 247.366 205.341 247.224C205.026 247.081 204.764 246.864 204.555 246.572C204.35 246.281 204.247 245.913 204.247 245.469V237.872Z" fill="#A3A3A3"/>
<rect x="57.4805" y="289.094" width="13" height="13" rx="0.6" transform="rotate(-45 57.4805 289.094)" stroke="#FAFAFA"/>
<path d="M45.7648 311.156L48.7876 319.727H48.9069L51.9296 311.156H53.2222L49.4836 321.338H48.2108L44.4722 311.156H45.7648ZM56.1853 321.517C55.7014 321.517 55.2622 321.426 54.8678 321.243C54.4734 321.058 54.1602 320.791 53.9282 320.443C53.6962 320.092 53.5802 319.667 53.5802 319.17C53.5802 318.733 53.6663 318.378 53.8387 318.106C54.011 317.831 54.2414 317.616 54.5297 317.46C54.8181 317.304 55.1363 317.188 55.4843 317.112C55.8356 317.032 56.1886 316.97 56.5432 316.923C57.0073 316.863 57.3834 316.819 57.6718 316.789C57.9635 316.756 58.1756 316.701 58.3081 316.625C58.444 316.549 58.512 316.416 58.512 316.227V316.187C58.512 315.697 58.3778 315.316 58.1093 315.044C57.8441 314.772 57.4414 314.636 56.9012 314.636C56.3411 314.636 55.9019 314.759 55.5837 315.004C55.2655 315.249 55.0418 315.511 54.9126 315.79L53.7989 315.392C53.9978 314.928 54.2629 314.567 54.5944 314.308C54.9291 314.046 55.2937 313.864 55.6881 313.761C56.0858 313.655 56.4769 313.602 56.8614 313.602C57.1067 313.602 57.3884 313.632 57.7066 313.692C58.0281 313.748 58.338 313.866 58.6363 314.045C58.9379 314.224 59.1881 314.494 59.387 314.855C59.5858 315.216 59.6853 315.7 59.6853 316.307V321.338H58.512V320.304H58.4523C58.3728 320.47 58.2402 320.647 58.0546 320.836C57.869 321.025 57.6221 321.185 57.3138 321.318C57.0056 321.451 56.6294 321.517 56.1853 321.517ZM56.3643 320.463C56.8283 320.463 57.2194 320.372 57.5376 320.189C57.859 320.007 58.101 319.772 58.2634 319.483C58.4291 319.195 58.512 318.892 58.512 318.574V317.5C58.4623 317.559 58.3529 317.614 58.1839 317.664C58.0181 317.71 57.8259 317.752 57.6072 317.788C57.3917 317.821 57.1813 317.851 56.9758 317.878C56.7736 317.901 56.6095 317.921 56.4836 317.937C56.1787 317.977 55.8936 318.042 55.6285 318.131C55.3666 318.217 55.1545 318.348 54.9921 318.524C54.833 318.696 54.7535 318.932 54.7535 319.23C54.7535 319.638 54.9043 319.946 55.2059 320.155C55.5108 320.36 55.8969 320.463 56.3643 320.463ZM61.8268 321.338V313.702H62.9603V314.855H63.0399C63.1791 314.477 63.431 314.171 63.7955 313.935C64.1601 313.7 64.5711 313.582 65.0285 313.582C65.1147 313.582 65.2224 313.584 65.3517 313.587C65.4809 313.59 65.5787 313.595 65.645 313.602V314.795C65.6052 314.785 65.5141 314.77 65.3715 314.751C65.2323 314.727 65.0848 314.716 64.9291 314.716C64.5579 314.716 64.2264 314.794 63.9347 314.949C63.6464 315.102 63.4177 315.314 63.2487 315.586C63.0829 315.854 63.0001 316.161 63.0001 316.506V321.338H61.8268ZM67.0358 321.338V313.702H68.2091V321.338H67.0358ZM67.6324 312.429C67.4037 312.429 67.2065 312.351 67.0407 312.195C66.8783 312.039 66.7971 311.852 66.7971 311.633C66.7971 311.415 66.8783 311.227 67.0407 311.072C67.2065 310.916 67.4037 310.838 67.6324 310.838C67.8611 310.838 68.0566 310.916 68.219 311.072C68.3847 311.227 68.4676 311.415 68.4676 311.633C68.4676 311.852 68.3847 312.039 68.219 312.195C68.0566 312.351 67.8611 312.429 67.6324 312.429ZM72.6052 321.517C72.1213 321.517 71.6821 321.426 71.2877 321.243C70.8933 321.058 70.5801 320.791 70.3481 320.443C70.1161 320.092 70.0001 319.667 70.0001 319.17C70.0001 318.733 70.0863 318.378 70.2586 318.106C70.431 317.831 70.6613 317.616 70.9497 317.46C71.238 317.304 71.5562 317.188 71.9042 317.112C72.2555 317.032 72.6085 316.97 72.9632 316.923C73.4272 316.863 73.8034 316.819 74.0917 316.789C74.3834 316.756 74.5955 316.701 74.7281 316.625C74.864 316.549 74.9319 316.416 74.9319 316.227V316.187C74.9319 315.697 74.7977 315.316 74.5292 315.044C74.2641 314.772 73.8614 314.636 73.3211 314.636C72.761 314.636 72.3218 314.759 72.0036 315.004C71.6855 315.249 71.4617 315.511 71.3325 315.79L70.2188 315.392C70.4177 314.928 70.6829 314.567 71.0143 314.308C71.349 314.046 71.7136 313.864 72.108 313.761C72.5058 313.655 72.8969 313.602 73.2813 313.602C73.5266 313.602 73.8083 313.632 74.1265 313.692C74.448 313.748 74.7579 313.866 75.0562 314.045C75.3578 314.224 75.608 314.494 75.8069 314.855C76.0058 315.216 76.1052 315.7 76.1052 316.307V321.338H74.9319V320.304H74.8722C74.7927 320.47 74.6601 320.647 74.4745 320.836C74.2889 321.025 74.042 321.185 73.7338 321.318C73.4255 321.451 73.0493 321.517 72.6052 321.517ZM72.7842 320.463C73.2482 320.463 73.6393 320.372 73.9575 320.189C74.279 320.007 74.5209 319.772 74.6833 319.483C74.849 319.195 74.9319 318.892 74.9319 318.574V317.5C74.8822 317.559 74.7728 317.614 74.6038 317.664C74.4381 317.71 74.2458 317.752 74.0271 317.788C73.8116 317.821 73.6012 317.851 73.3957 317.878C73.1935 317.901 73.0294 317.921 72.9035 317.937C72.5986 317.977 72.3135 318.042 72.0484 318.131C71.7865 318.217 71.5744 318.348 71.412 318.524C71.2529 318.696 71.1734 318.932 71.1734 319.23C71.1734 319.638 71.3242 319.946 71.6258 320.155C71.9307 320.36 72.3169 320.463 72.7842 320.463ZM79.42 316.744V321.338H78.2467V313.702H79.3802V314.895H79.4797C79.6586 314.507 79.9304 314.195 80.295 313.96C80.6596 313.721 81.1302 313.602 81.7069 313.602C82.224 313.602 82.6764 313.708 83.0642 313.92C83.452 314.129 83.7536 314.447 83.969 314.875C84.1845 315.299 84.2922 315.836 84.2922 316.486V321.338H83.1189V316.565C83.1189 315.965 82.9631 315.498 82.6515 315.163C82.34 314.825 81.9124 314.656 81.3689 314.656C80.9943 314.656 80.6596 314.737 80.3646 314.9C80.0729 315.062 79.8426 315.299 79.6736 315.611C79.5045 315.922 79.42 316.3 79.42 316.744ZM89.7572 313.702V314.696H85.7998V313.702H89.7572ZM86.9532 311.872H88.1265V319.15C88.1265 319.482 88.1746 319.73 88.2707 319.896C88.3701 320.059 88.4961 320.168 88.6485 320.224C88.8043 320.277 88.9684 320.304 89.1407 320.304C89.27 320.304 89.376 320.297 89.4589 320.284C89.5418 320.267 89.608 320.254 89.6578 320.244L89.8964 321.298C89.8169 321.328 89.7058 321.358 89.5633 321.388C89.4208 321.421 89.2401 321.437 89.0214 321.437C88.69 321.437 88.3651 321.366 88.047 321.224C87.7321 321.081 87.4703 320.864 87.2615 320.572C87.056 320.281 86.9532 319.913 86.9532 319.469V311.872Z" fill="#A3A3A3"/>
<rect x="117.781" y="292.338" width="2" height="20" rx="1" fill="white" fill-opacity="0.1"/>
<path fillRule="evenodd" clipRule="evenodd" d="M165.839 287.277C166.062 287.033 166.424 287.033 166.647 287.277L169.672 290.585L172.696 287.277C172.92 287.033 173.281 287.033 173.505 287.277C173.728 287.521 173.728 287.917 173.505 288.161L170.076 291.911C169.853 292.155 169.491 292.155 169.268 291.911L165.839 288.161C165.616 287.917 165.616 287.521 165.839 287.277Z" fill="#FAFAFA"/>
<rect x="160.222" y="279.644" width="18.9" height="18.9" rx="0.55" stroke="#FAFAFA" strokeWidth="1.1"/>
<path d="M159.555 313.702C159.495 313.198 159.253 312.807 158.829 312.528C158.405 312.25 157.885 312.111 157.268 312.111C156.817 312.111 156.423 312.184 156.085 312.329C155.75 312.475 155.488 312.676 155.299 312.931C155.114 313.186 155.021 313.476 155.021 313.801C155.021 314.073 155.086 314.306 155.215 314.502C155.347 314.694 155.516 314.855 155.722 314.984C155.927 315.11 156.143 315.215 156.368 315.297C156.594 315.377 156.801 315.442 156.99 315.491L158.024 315.77C158.289 315.839 158.584 315.935 158.909 316.058C159.237 316.181 159.55 316.348 159.848 316.56C160.15 316.769 160.399 317.037 160.594 317.366C160.79 317.694 160.887 318.096 160.887 318.574C160.887 319.124 160.743 319.621 160.455 320.065C160.17 320.509 159.752 320.862 159.202 321.124C158.655 321.386 157.991 321.517 157.208 321.517C156.479 321.517 155.848 321.399 155.314 321.164C154.784 320.929 154.366 320.6 154.061 320.18C153.76 319.759 153.589 319.27 153.549 318.713H154.822C154.855 319.097 154.984 319.416 155.21 319.667C155.439 319.916 155.727 320.102 156.075 320.224C156.426 320.344 156.804 320.403 157.208 320.403C157.679 320.403 158.102 320.327 158.476 320.175C158.851 320.019 159.147 319.803 159.366 319.528C159.585 319.25 159.694 318.925 159.694 318.554C159.694 318.216 159.6 317.941 159.411 317.729C159.222 317.516 158.973 317.344 158.665 317.211C158.357 317.079 158.024 316.963 157.666 316.863L156.413 316.506C155.618 316.277 154.988 315.95 154.524 315.526C154.06 315.102 153.828 314.547 153.828 313.861C153.828 313.291 153.982 312.793 154.29 312.369C154.602 311.942 155.019 311.61 155.543 311.375C156.07 311.136 156.658 311.017 157.308 311.017C157.964 311.017 158.547 311.135 159.058 311.37C159.568 311.602 159.973 311.92 160.271 312.324C160.573 312.729 160.732 313.188 160.748 313.702H159.555ZM166.077 313.702V314.696H162.119V313.702H166.077ZM163.273 311.872H164.446V319.15C164.446 319.482 164.494 319.73 164.59 319.896C164.689 320.059 164.815 320.168 164.968 320.224C165.124 320.277 165.288 320.304 165.46 320.304C165.589 320.304 165.695 320.297 165.778 320.284C165.861 320.267 165.927 320.254 165.977 320.244L166.216 321.298C166.136 321.328 166.025 321.358 165.883 321.388C165.74 321.421 165.559 321.437 165.341 321.437C165.009 321.437 164.684 321.366 164.366 321.224C164.051 321.081 163.79 320.864 163.581 320.572C163.375 320.281 163.273 319.913 163.273 319.469V311.872ZM170.089 321.517C169.605 321.517 169.166 321.426 168.771 321.243C168.377 321.058 168.064 320.791 167.831 320.443C167.599 320.092 167.483 319.667 167.483 319.17C167.483 318.733 167.57 318.378 167.742 318.106C167.914 317.831 168.145 317.616 168.433 317.46C168.721 317.304 169.04 317.188 169.388 317.112C169.739 317.032 170.092 316.97 170.447 316.923C170.911 316.863 171.287 316.819 171.575 316.789C171.867 316.756 172.079 316.701 172.211 316.625C172.347 316.549 172.415 316.416 172.415 316.227V316.187C172.415 315.697 172.281 315.316 172.013 315.044C171.747 314.772 171.345 314.636 170.805 314.636C170.244 314.636 169.805 314.759 169.487 315.004C169.169 315.249 168.945 315.511 168.816 315.79L167.702 315.392C167.901 314.928 168.166 314.567 168.498 314.308C168.832 314.046 169.197 313.864 169.591 313.761C169.989 313.655 170.38 313.602 170.765 313.602C171.01 313.602 171.292 313.632 171.61 313.692C171.931 313.748 172.241 313.866 172.54 314.045C172.841 314.224 173.091 314.494 173.29 314.855C173.489 315.216 173.589 315.7 173.589 316.307V321.338H172.415V320.304H172.356C172.276 320.47 172.144 320.647 171.958 320.836C171.772 321.025 171.525 321.185 171.217 321.318C170.909 321.451 170.533 321.517 170.089 321.517ZM170.268 320.463C170.732 320.463 171.123 320.372 171.441 320.189C171.762 320.007 172.004 319.772 172.167 319.483C172.332 319.195 172.415 318.892 172.415 318.574V317.5C172.366 317.559 172.256 317.614 172.087 317.664C171.921 317.71 171.729 317.752 171.51 317.788C171.295 317.821 171.085 317.851 170.879 317.878C170.677 317.901 170.513 317.921 170.387 317.937C170.082 317.977 169.797 318.042 169.532 318.131C169.27 318.217 169.058 318.348 168.895 318.524C168.736 318.696 168.657 318.932 168.657 319.23C168.657 319.638 168.808 319.946 169.109 320.155C169.414 320.36 169.8 320.463 170.268 320.463ZM179.051 313.702V314.696H175.094V313.702H179.051ZM176.247 311.872H177.42V319.15C177.42 319.482 177.469 319.73 177.565 319.896C177.664 320.059 177.79 320.168 177.942 320.224C178.098 320.277 178.262 320.304 178.435 320.304C178.564 320.304 178.67 320.297 178.753 320.284C178.836 320.267 178.902 320.254 178.952 320.244L179.19 321.298C179.111 321.328 179 321.358 178.857 321.388C178.715 321.421 178.534 321.437 178.315 321.437C177.984 321.437 177.659 321.366 177.341 321.224C177.026 321.081 176.764 320.864 176.555 320.572C176.35 320.281 176.247 319.913 176.247 319.469V311.872ZM183.936 321.497C183.2 321.497 182.565 321.335 182.032 321.01C181.501 320.682 181.092 320.224 180.804 319.638C180.519 319.048 180.376 318.362 180.376 317.579C180.376 316.797 180.519 316.108 180.804 315.511C181.092 314.911 181.493 314.444 182.007 314.109C182.524 313.771 183.127 313.602 183.816 313.602C184.214 313.602 184.607 313.668 184.995 313.801C185.382 313.934 185.735 314.149 186.054 314.447C186.372 314.742 186.625 315.133 186.814 315.621C187.003 316.108 187.098 316.708 187.098 317.42V317.917H181.211V316.903H185.904C185.904 316.472 185.818 316.088 185.646 315.75C185.477 315.412 185.235 315.145 184.92 314.949C184.609 314.754 184.241 314.656 183.816 314.656C183.349 314.656 182.945 314.772 182.603 315.004C182.265 315.233 182.005 315.531 181.823 315.899C181.641 316.267 181.549 316.661 181.549 317.082V317.758C181.549 318.335 181.649 318.824 181.848 319.225C182.05 319.623 182.33 319.926 182.688 320.135C183.046 320.34 183.462 320.443 183.936 320.443C184.244 320.443 184.522 320.4 184.771 320.314C185.023 320.224 185.24 320.092 185.422 319.916C185.605 319.737 185.745 319.515 185.845 319.25L186.978 319.568C186.859 319.952 186.658 320.291 186.377 320.582C186.095 320.871 185.747 321.096 185.333 321.258C184.918 321.417 184.453 321.497 183.936 321.497Z" fill="#A3A3A3"/>
<rect x="1.28125" y="105.838" width="235" height="245" rx="3.5" stroke="#5A5A5A" stroke-dasharray="10 5"/>
<path d="M118.781 391.338V359.338" stroke="#A3A3A3"/>
<path d="M114.281 387.338L118.781 391.338L123.281 387.338" stroke="#A3A3A3" strokeLinejoin="round"/>
<rect x="102.781" y="395.338" width="32" height="32" rx="4" fill="white" fill-opacity="0.2"/>
<g clipPath="url(#clip0_11217_118210)">
<path fillRule="evenodd" clipRule="evenodd" d="M116.082 401.839C115.276 401.838 114.49 402.094 113.839 402.57C113.187 403.046 112.705 403.717 112.46 404.485C112.216 405.254 112.222 406.08 112.478 406.845C112.735 407.61 113.228 408.273 113.887 408.738C113.391 409.089 112.987 409.554 112.708 410.093C112.429 410.633 112.284 411.232 112.284 411.839C112.284 413.119 112.918 414.252 113.889 414.94C113.357 415.316 112.931 415.823 112.651 416.412C112.372 417.001 112.249 417.652 112.294 418.303C112.339 418.953 112.551 419.581 112.909 420.125C113.267 420.67 113.759 421.114 114.338 421.413C114.917 421.713 115.563 421.858 116.215 421.836C116.866 421.813 117.501 421.623 118.058 421.284C118.614 420.946 119.075 420.469 119.394 419.901C119.714 419.333 119.881 418.692 119.881 418.04V414.78C120.277 415.101 120.732 415.338 121.221 415.479C121.709 415.62 122.221 415.661 122.726 415.6C123.231 415.539 123.719 415.378 124.16 415.125C124.601 414.872 124.987 414.534 125.295 414.129C125.603 413.724 125.827 413.262 125.952 412.769C126.078 412.276 126.104 411.763 126.028 411.26C125.952 410.758 125.775 410.275 125.509 409.842C125.243 409.409 124.893 409.033 124.479 408.738C125.137 408.272 125.631 407.609 125.887 406.844C126.144 406.08 126.15 405.253 125.906 404.484C125.661 403.716 125.178 403.045 124.527 402.569C123.876 402.093 123.09 401.837 122.283 401.838H116.084L116.082 401.839ZM118.485 414.242H116.082C115.767 414.242 115.454 414.18 115.163 414.059C114.871 413.938 114.606 413.761 114.383 413.538C114.16 413.315 113.983 413.05 113.862 412.759C113.742 412.467 113.679 412.155 113.679 411.839C113.679 411.523 113.742 411.211 113.862 410.919C113.983 410.628 114.16 410.363 114.383 410.14C114.606 409.917 114.871 409.74 115.163 409.619C115.454 409.498 115.767 409.436 116.082 409.436H118.485V414.242ZM116.082 408.041H118.485V403.234H116.082C115.445 403.234 114.834 403.487 114.383 403.938C113.932 404.389 113.679 405 113.679 405.638C113.679 406.275 113.932 406.886 114.383 407.337C114.834 407.788 115.445 408.041 116.082 408.041ZM124.687 405.637C124.687 406.274 124.435 406.885 123.985 407.336C123.535 407.786 122.924 408.04 122.287 408.041H119.88V403.234H122.284C122.6 403.234 122.912 403.296 123.204 403.417C123.495 403.538 123.76 403.715 123.983 403.938C124.206 404.161 124.383 404.426 124.504 404.718C124.625 405.009 124.687 405.321 124.687 405.637ZM119.88 411.836C119.881 411.2 120.134 410.59 120.584 410.14C121.034 409.69 121.644 409.437 122.281 409.436H122.286C122.761 409.437 123.225 409.578 123.62 409.842C124.015 410.107 124.322 410.482 124.504 410.921C124.685 411.36 124.733 411.843 124.64 412.308C124.547 412.774 124.318 413.202 123.982 413.538C123.647 413.874 123.219 414.103 122.753 414.196C122.287 414.288 121.804 414.241 121.365 414.059C120.926 413.878 120.551 413.57 120.287 413.176C120.022 412.781 119.881 412.317 119.88 411.842V411.836ZM116.082 415.637C115.607 415.637 115.143 415.778 114.747 416.042C114.352 416.306 114.044 416.681 113.862 417.12C113.681 417.559 113.633 418.042 113.726 418.509C113.818 418.975 114.047 419.403 114.383 419.739C114.719 420.075 115.147 420.304 115.613 420.397C116.079 420.489 116.562 420.442 117.001 420.26C117.44 420.079 117.816 419.771 118.08 419.376C118.344 418.981 118.485 418.516 118.485 418.041V415.637H116.082Z" fill="#FAFAFA"/>
</g>
<path d="M107.196 437.156H108.429V443.898C108.429 444.594 108.265 445.215 107.937 445.762C107.612 446.305 107.153 446.735 106.56 447.05C105.966 447.361 105.27 447.517 104.472 447.517C103.673 447.517 102.977 447.361 102.384 447.05C101.79 446.735 101.33 446.305 101.001 445.762C100.677 445.215 100.514 444.594 100.514 443.898V437.156H101.747V443.798C101.747 444.295 101.857 444.738 102.075 445.126C102.294 445.51 102.606 445.813 103.01 446.035C103.418 446.254 103.905 446.363 104.472 446.363C105.038 446.363 105.526 446.254 105.933 446.035C106.341 445.813 106.652 445.51 106.868 445.126C107.087 444.738 107.196 444.295 107.196 443.798V437.156ZM112.124 437.156V447.338H110.891V437.156H112.124ZM118.812 441.7V442.794H114.358V441.7H118.812ZM121.036 447.338V437.156H122.269V442.207H122.388L126.962 437.156H128.573L124.297 441.75L128.573 447.338H127.081L123.541 442.605L122.269 444.037V447.338H121.036ZM130.488 447.338V439.702H131.661V447.338H130.488ZM131.085 438.429C130.856 438.429 130.659 438.351 130.493 438.195C130.33 438.039 130.249 437.852 130.249 437.633C130.249 437.415 130.33 437.227 130.493 437.072C130.659 436.916 130.856 436.838 131.085 436.838C131.313 436.838 131.509 436.916 131.671 437.072C131.837 437.227 131.92 437.415 131.92 437.633C131.92 437.852 131.837 438.039 131.671 438.195C131.509 438.351 131.313 438.429 131.085 438.429ZM137.131 439.702V440.696H133.174V439.702H137.131ZM134.327 437.872H135.501V445.15C135.501 445.482 135.549 445.73 135.645 445.896C135.744 446.059 135.87 446.168 136.023 446.224C136.178 446.277 136.342 446.304 136.515 446.304C136.644 446.304 136.75 446.297 136.833 446.284C136.916 446.267 136.982 446.254 137.032 446.244L137.27 447.298C137.191 447.328 137.08 447.358 136.937 447.388C136.795 447.421 136.614 447.437 136.395 447.437C136.064 447.437 135.739 447.366 135.421 447.224C135.106 447.081 134.844 446.864 134.635 446.572C134.43 446.281 134.327 445.913 134.327 445.469V437.872Z" fill="#A3A3A3"/>
<defs>
<clipPath id="clip0_11217_118210">
<rect width="20" height="20" fill="white" transform="translate(109.281 401.838)"/>
</clipPath>
</defs>
</svg>
