<svg width="25" height="24" viewBox="0 0 25 24" fill="none" xmlns="http://www.w3.org/2000/svg">
<path d="M12.6684 14.9347C13.4166 14.9347 14.0252 14.326 14.0252 13.5779C14.0252 13.5464 14.0246 13.5143 14.0221 13.4834L18.6371 11.5815C18.8575 11.4901 18.9624 11.2364 18.8717 11.0167C18.805 10.8543 18.6482 10.75 18.4729 10.75C18.4155 10.75 18.3599 10.7611 18.3081 10.7821L13.6919 12.6852C13.4357 12.3933 13.0567 12.2204 12.6684 12.2204C12.4301 12.2204 12.2369 12.4136 12.2369 12.6519C12.2369 12.8896 12.4301 13.0828 12.6684 13.0828C12.8511 13.0828 13.0184 13.184 13.1054 13.3464C13.1233 13.4087 13.1369 13.434 13.1523 13.46C13.1567 13.4847 13.1635 13.5334 13.1635 13.5779C13.1635 13.8501 12.9412 14.0723 12.6684 14.0723C12.3955 14.0723 12.1739 13.8507 12.1739 13.5779C12.1739 13.3396 11.9807 13.1464 11.7424 13.1464C11.5041 13.1464 11.3109 13.3396 11.3109 13.5779C11.3109 14.326 11.9196 14.9347 12.6684 14.9347Z" fill="#FAFAFA"/>
<path d="M20.675 19.2564C20.5904 19.2564 20.5077 19.2317 20.4361 19.1848C20.3398 19.1212 20.2738 19.0249 20.2509 18.9125C20.2275 18.799 20.2497 18.6835 20.3145 18.5872C20.5485 18.2298 20.759 17.8539 20.9411 17.4687L20.2083 17.1668C20.1003 17.1211 20.017 17.0378 19.9737 16.931C19.9305 16.8236 19.9305 16.7063 19.9756 16.6007C20.0404 16.439 20.1978 16.3347 20.3744 16.3347C20.4305 16.3347 20.4855 16.3458 20.538 16.3668L21.2719 16.6711C21.58 15.8143 21.7571 14.9192 21.7991 14.0087H21.0077C20.7701 14.0087 20.5768 13.8155 20.5768 13.5778C20.5768 13.3395 20.7701 13.1463 21.0077 13.1463H21.7997C21.7577 12.2309 21.5812 11.3352 21.2738 10.4833L20.5392 10.7876C20.4886 10.8092 20.4324 10.8203 20.3738 10.8203C20.1978 10.8203 20.041 10.716 19.9744 10.5536C19.9305 10.4475 19.9305 10.3302 19.9744 10.2234C20.0182 10.1172 20.1009 10.0339 20.2083 9.98943L20.9448 9.68387C20.5565 8.86409 20.0484 8.10604 19.4318 7.43071L18.8719 7.98999C18.791 8.07147 18.6823 8.11592 18.5675 8.11592C18.4515 8.11592 18.3428 8.07147 18.262 7.98999C18.1805 7.90912 18.1354 7.79986 18.1354 7.68442C18.1354 7.56899 18.1805 7.46034 18.2626 7.37886L18.8219 6.81958C18.1465 6.20413 17.3885 5.69609 16.5681 5.30781L16.2631 6.04425C16.1958 6.20598 16.0391 6.31031 15.8644 6.31031C15.8076 6.31031 15.7514 6.2992 15.6989 6.27821C15.5921 6.23438 15.5088 6.15104 15.4643 6.04363C15.4211 5.93684 15.4205 5.82017 15.4637 5.71338L15.7693 4.97755C14.9162 4.67137 14.0211 4.49544 13.1062 4.45284V5.24484C13.1062 5.4825 12.913 5.67572 12.6748 5.67572C12.4371 5.67572 12.2439 5.4825 12.2439 5.24484V4.45223C11.3253 4.4942 10.4302 4.67075 9.58021 4.97693L9.8864 5.71276C9.9759 5.93252 9.87035 6.18623 9.65059 6.27759C9.5975 6.29858 9.54194 6.30907 9.48515 6.30907C9.31107 6.30907 9.15427 6.20537 9.08699 6.04487L8.78081 5.30719C7.96041 5.69486 7.20236 6.2029 6.52703 6.81897L7.08693 7.37948C7.16779 7.46034 7.21347 7.56837 7.21347 7.68381C7.21347 7.79986 7.16841 7.90789 7.08693 7.98937C7.00668 8.07086 6.89803 8.1153 6.78136 8.1153C6.66469 8.1153 6.55605 8.07086 6.4758 7.98937L5.91529 7.4301C5.29798 8.10789 4.78994 8.86471 4.40413 9.68325L5.13995 9.9882C5.24613 10.032 5.32947 10.1147 5.37329 10.2215C5.41774 10.3283 5.41836 10.4456 5.37329 10.553C5.30663 10.7154 5.14983 10.8197 4.97452 10.8197C4.91526 10.8197 4.85908 10.808 4.80723 10.7858L4.07325 10.482C3.76707 11.3333 3.59052 12.229 3.54793 13.1457H4.34055C4.57883 13.1457 4.77266 13.3389 4.77266 13.5772C4.77266 13.8149 4.57883 14.0081 4.34055 14.0081H3.54793C3.59052 14.9217 3.76831 15.8168 4.07634 16.6705L4.80908 16.3662C4.8634 16.3452 4.91834 16.3341 4.9739 16.3341C5.14983 16.3341 5.30724 16.439 5.37391 16.6014C5.41836 16.7075 5.41836 16.8242 5.37391 16.931C5.33008 17.0378 5.24675 17.1211 5.14057 17.1656L4.40783 17.4681C4.58932 17.8526 4.80044 18.2286 5.03563 18.5872C5.09921 18.6829 5.12082 18.799 5.09736 18.9113C5.0739 19.0243 5.00785 19.1212 4.91155 19.1842C4.8418 19.2305 4.75908 19.2552 4.67451 19.2552C4.52882 19.2552 4.39363 19.1823 4.31338 19.0601C3.24051 17.4298 2.67383 15.5334 2.67383 13.5778C2.67383 10.9061 3.71398 8.39494 5.60293 6.50661C7.49126 4.61766 10.0024 3.57812 12.6741 3.57812C15.3471 3.57812 17.8582 4.61828 19.7453 6.50661C21.6343 8.39494 22.6738 10.9061 22.6738 13.5778C22.6738 15.534 22.1078 17.4298 21.0361 19.0613C20.9559 19.1835 20.8207 19.2564 20.675 19.2564Z" fill="#FAFAFA"/>
<path d="M15.4532 20.1712C16.0322 20.1712 16.502 19.7008 16.502 19.123V17.8896C16.502 17.3106 16.0316 16.8408 15.4532 16.8408H9.90113C9.32272 16.8408 8.85295 17.3112 8.85295 17.8896V19.123C8.85295 19.7014 9.32334 20.1712 9.90113 20.1712H15.4532ZM15.4532 17.7038C15.5556 17.7038 15.639 17.7871 15.639 17.8896V19.123C15.639 19.2255 15.5556 19.3088 15.4532 19.3088H9.90113C9.79866 19.3088 9.71532 19.2255 9.71532 19.123V17.8896C9.71532 17.7871 9.79866 17.7038 9.90113 17.7038H15.4532Z" fill="#FAFAFA"/>
<path d="M12.9884 18.9381C13.2267 18.9381 13.4199 18.7448 13.4199 18.5072C13.4199 18.2689 13.2267 18.0757 12.9884 18.0757H12.3711C12.1335 18.0757 11.9402 18.2689 11.9402 18.5072C11.9402 18.7448 12.1335 18.9381 12.3711 18.9381H12.9884Z" fill="#FAFAFA"/>
<path d="M14.5275 18.9381C14.7658 18.9381 14.959 18.7448 14.959 18.5072C14.959 18.2689 14.7658 18.0757 14.5275 18.0757H13.9102C13.6719 18.0757 13.4787 18.2689 13.4787 18.5072C13.4787 18.7448 13.6719 18.9381 13.9102 18.9381H14.5275Z" fill="#FAFAFA"/>
<path d="M11.4396 18.9381C11.6779 18.9381 11.8711 18.7448 11.8711 18.5072C11.8711 18.2689 11.6779 18.0757 11.4396 18.0757H10.8229C10.5846 18.0757 10.3914 18.2689 10.3914 18.5072C10.3914 18.7448 10.5846 18.9381 10.8229 18.9381H11.4396Z" fill="#FAFAFA"/>
</svg>
