<svg width="25" height="24" viewBox="0 0 25 24" fill="none" xmlns="http://www.w3.org/2000/svg">
<g clipPath="url(#clip0_10918_28033)">
<path d="M5.10446 20.346L5.29446 19.903C4.54627 19.5889 3.9081 19.0599 3.46075 18.3829C3.0134 17.7059 2.777 16.9114 2.78146 16.1C2.78146 13.68 4.67646 11.984 6.50846 10.344C7.86324 9.33262 8.96255 8.01825 9.71846 6.506C11.3831 5.90868 12.7932 4.75969 13.7145 3.25L12.8485 2.75C12.1492 3.89478 11.1212 4.80224 9.89846 5.354C9.87657 4.89185 9.72666 4.44489 9.46546 4.063C9.21791 3.71883 8.88876 3.44152 8.50756 3.25599C8.12636 3.07045 7.70505 2.98249 7.28146 3C5.48246 3 3.78146 4.336 3.78146 5.75C3.78046 5.88378 3.80641 6.0164 3.85779 6.13993C3.90916 6.26346 3.98489 6.37538 4.08046 6.469C4.84094 6.94194 5.74442 7.13008 6.63046 7H6.78146C7.33613 7.0016 7.88977 6.9524 8.43546 6.853C7.69916 7.88159 6.82651 8.80537 5.84146 9.599C3.93846 11.303 1.78146 13.233 1.78146 16.1C1.77204 17.1284 2.07528 18.1354 2.65103 18.9876C3.22677 19.8398 4.04784 20.4969 5.00546 20.872C5.00335 20.6922 5.037 20.5127 5.10446 20.346ZM6.78146 6H6.62646C5.50746 6.006 4.88646 5.92 4.78146 5.75C4.78146 4.962 5.93546 4 7.28146 4C7.54299 3.98491 7.80419 4.03472 8.04182 4.14498C8.27945 4.25524 8.48613 4.42255 8.64346 4.632C8.85724 4.95249 8.94487 5.34076 8.88946 5.722C8.20279 5.9105 7.49353 6.00404 6.78146 6ZM22.3175 3.52C22.2295 3.42534 22.1235 3.3493 22.0056 3.29638C21.8878 3.24347 21.7605 3.21476 21.6313 3.21196C21.5021 3.20917 21.3737 3.23233 21.2537 3.28009C21.1336 3.32785 21.0244 3.39923 20.9325 3.49L7.77946 16.644L6.02346 20.74C5.99416 20.8082 5.986 20.8837 6.00005 20.9566C6.0141 21.0295 6.04972 21.0966 6.10228 21.149C6.15485 21.2015 6.22195 21.2369 6.2949 21.2509C6.36785 21.2648 6.44329 21.2564 6.51146 21.227L10.6075 19.471L23.7605 6.32C23.8512 6.22806 23.9226 6.11882 23.9704 5.99878C24.0181 5.87873 24.0413 5.75032 24.0385 5.62115C24.0357 5.49199 24.007 5.3647 23.9541 5.24683C23.9012 5.12897 23.8251 5.02293 23.7305 4.935L22.3175 3.52ZM7.56146 19.688L8.52346 17.448L9.80346 18.728L7.56146 19.688ZM10.5765 18.088L9.16346 16.674L19.4605 6.376L20.8745 7.79L10.5765 18.088ZM22.7335 5.932L21.5815 7.083L20.1675 5.669L21.3365 4.5C21.376 4.46069 21.423 4.42966 21.4747 4.4087C21.5263 4.38774 21.5817 4.37728 21.6374 4.37794C21.6932 4.37859 21.7483 4.39034 21.7994 4.41249C21.8506 4.43465 21.8968 4.46678 21.9355 4.507L22.7395 5.345C22.8153 5.42425 22.8572 5.53003 22.856 5.63972C22.8549 5.74942 22.8109 5.85432 22.7335 5.932Z" fill="white"/>
</g>
<defs>
<clipPath id="clip0_10918_28033">
<rect width="24" height="24" fill="white" transform="translate(0.78125)"/>
</clipPath>
</defs>
</svg>
