<svg width="1200" height="600" viewBox="0 0 1200 600" fill="none" xmlns="http://www.w3.org/2000/svg">
<g clip-path="url(#clip0_7173_65837)">
<rect width="1200" height="600" fill="black"/>
<g opacity="0.3">
<rect x="899" y="319" width="121.502" height="121.502" rx="16.8758" fill="#262626" fill-opacity="0.3"/>
<rect x="899" y="460.757" width="121.502" height="121.502" rx="16.8758" fill="#262626" fill-opacity="0.3"/>
<rect x="1040.76" y="319" width="121.502" height="121.502" rx="16.8758" fill="#262626" fill-opacity="0.3"/>
<rect x="1040.76" y="460.757" width="121.502" height="121.502" rx="16.8758" fill="#262626" fill-opacity="0.3"/>
<rect x="1182.49" y="319" width="121.502" height="121.502" rx="16.8758" fill="#262626" fill-opacity="0.3"/>
<rect x="1182.49" y="460.757" width="121.502" height="121.502" rx="16.8758" fill="#262626" fill-opacity="0.3"/>
<path d="M1090.78 502.691L1115.37 389.868L1010.39 540.3H1102.13L1077.54 653.123L1182.52 502.691H1090.78Z" fill="#262626" stroke="#1A91FF" stroke-width="10.5474" stroke-linecap="round" stroke-linejoin="round"/>
</g>
<g opacity="0.2">
<rect width="1089" height="858" transform="translate(-692 -90)" fill="url(#paint0_radial_7173_65837)" fill-opacity="0.4"/>
<rect width="1089" height="858" transform="translate(-692 -90)" fill="url(#paint1_radial_7173_65837)" fill-opacity="0.4"/>
<rect width="1089" height="858" transform="translate(-692 -90)" fill="url(#paint2_radial_7173_65837)" fill-opacity="0.4"/>
<rect width="1089" height="858" transform="translate(-692 -90)" fill="url(#paint3_radial_7173_65837)" fill-opacity="0.4"/>
<rect width="1089" height="858" transform="translate(-692 -90)" fill="url(#paint4_radial_7173_65837)" fill-opacity="0.4"/>
</g>
<g opacity="0.2">
<rect width="1073" height="846" transform="translate(401 301)" fill="url(#paint5_radial_7173_65837)" fill-opacity="0.4"/>
<rect width="1073" height="846" transform="translate(401 301)" fill="url(#paint6_radial_7173_65837)" fill-opacity="0.4"/>
<rect width="1073" height="846" transform="translate(401 301)" fill="url(#paint7_radial_7173_65837)" fill-opacity="0.4"/>
<rect width="1073" height="846" transform="translate(401 301)" fill="url(#paint8_radial_7173_65837)" fill-opacity="0.4"/>
<rect width="1073" height="846" transform="translate(401 301)" fill="url(#paint9_radial_7173_65837)" fill-opacity="0.4"/>
</g>
<g opacity="0.5">
<rect width="1459.29" height="1150.1" transform="translate(-130 -592)" fill="url(#paint10_radial_7173_65837)" fill-opacity="0.4"/>
<rect width="1459.29" height="1150.1" transform="translate(-130 -592)" fill="url(#paint11_radial_7173_65837)" fill-opacity="0.4"/>
<rect width="1459.29" height="1150.1" transform="translate(-130 -592)" fill="url(#paint12_radial_7173_65837)" fill-opacity="0.4"/>
<rect width="1459.29" height="1150.1" transform="translate(-130 -592)" fill="url(#paint13_radial_7173_65837)" fill-opacity="0.4"/>
<rect width="1459.29" height="1150.1" transform="translate(-130 -592)" fill="url(#paint14_radial_7173_65837)" fill-opacity="0.4"/>
</g>
<g opacity="0.5">
<rect x="1066.87" y="453.955" width="0.501051" height="780.452" transform="rotate(90 1066.87 453.955)" fill="url(#paint15_linear_7173_65837)" fill-opacity="0.56"/>
<rect x="1200" y="276.096" width="0.501051" height="780.452" transform="rotate(90 1200 276.096)" fill="url(#paint16_linear_7173_65837)" fill-opacity="0.56"/>
<rect x="1066.87" y="584.723" width="0.501051" height="780.452" transform="rotate(90 1066.87 584.723)" fill="#8395BC" fill-opacity="0.1"/>
<rect x="1066.87" y="526.603" width="0.501051" height="780.452" transform="rotate(90 1066.87 526.603)" fill="url(#paint17_linear_7173_65837)" fill-opacity="0.48"/>
<rect x="1066.87" y="570.193" width="0.501051" height="780.452" transform="rotate(90 1066.87 570.193)" fill="#8395BC" fill-opacity="0.1"/>
<rect x="1066.87" y="352.246" width="0.501051" height="780.452" transform="rotate(90 1066.87 352.246)" fill="url(#paint18_linear_7173_65837)" fill-opacity="0.48"/>
<rect x="1066.87" y="420.824" width="0.501051" height="780.452" transform="rotate(90 1066.87 420.824)" fill="#8395BC" fill-opacity="0.1"/>
<rect x="1066.87" y="235.256" width="0.501051" height="780.452" transform="rotate(90 1066.87 235.256)" fill="#8395BC" fill-opacity="0.1"/>
<rect x="1066.87" y="489.406" width="0.501051" height="780.452" transform="rotate(90 1066.87 489.406)" fill="#8395BC" fill-opacity="0.1"/>
<rect x="780.445" y="194.91" width="0.501051" height="780.452" transform="rotate(90 780.445 194.91)" fill="url(#paint19_linear_7173_65837)" fill-opacity="0.48"/>
<rect x="571.199" y="113.418" width="0.550389" height="450.928" fill="#8395BC" fill-opacity="0.1"/>
<rect x="737.148" y="113.418" width="0.550389" height="450.928" fill="#8395BC" fill-opacity="0.1"/>
<rect x="293.574" y="149.322" width="0.550389" height="450.928" fill="#8395BC" fill-opacity="0.1"/>
<rect x="309.533" y="149.32" width="0.550389" height="450.928" fill="#8395BC" fill-opacity="0.1"/>
<rect x="325.498" y="149.32" width="0.550389" height="450.928" fill="#8395BC" fill-opacity="0.1"/>
<rect width="0.550389" height="450.928" transform="matrix(1 0 0 -1 396.887 600.252)" fill="url(#paint20_linear_7173_65837)" fill-opacity="0.48"/>
<rect width="0.550389" height="450.928" transform="matrix(1 0 0 -1 461.98 600.252)" fill="url(#paint21_linear_7173_65837)" fill-opacity="0.56"/>
<rect x="788.375" y="149.322" width="0.550389" height="450.928" fill="url(#paint22_linear_7173_65837)" fill-opacity="0.48"/>
<rect x="836.258" y="149.322" width="0.550389" height="450.928" fill="url(#paint23_linear_7173_65837)" fill-opacity="0.44"/>
<rect x="995.873" y="149.322" width="0.550389" height="450.928" fill="url(#paint24_linear_7173_65837)" fill-opacity="0.48"/>
<rect x="1027.79" y="149.32" width="0.550389" height="450.928" fill="#8395BC" fill-opacity="0.1"/>
<rect x="1043.75" y="149.32" width="0.550389" height="450.928" fill="#8395BC" fill-opacity="0.1"/>
<rect x="1059.71" y="149.32" width="0.550389" height="450.928" fill="#8395BC" fill-opacity="0.1"/>
</g>
<path d="M102.236 269.307C97.66 269.307 93.578 268.345 89.99 266.421C86.402 264.497 83.568 261.871 81.488 258.543C79.46 255.163 78.446 251.341 78.446 247.077V210.261H90.536V246.297C90.536 248.585 91.03 250.665 92.018 252.537C93.058 254.357 94.462 255.787 96.23 256.827C97.998 257.867 100 258.387 102.236 258.387C104.524 258.387 106.526 257.867 108.242 256.827C110.01 255.787 111.388 254.357 112.376 252.537C113.416 250.665 113.936 248.585 113.936 246.297V210.261H126.026V247.077C126.026 251.341 124.986 255.163 122.906 258.543C120.878 261.871 118.07 264.497 114.482 266.421C110.894 268.345 106.812 269.307 102.236 269.307ZM134.733 268.371V225.783H145.653V234.207L145.029 232.335C146.017 229.787 147.603 227.915 149.787 226.719C152.023 225.471 154.623 224.847 157.587 224.847C160.811 224.847 163.619 225.523 166.011 226.875C168.455 228.227 170.353 230.125 171.705 232.569C173.057 234.961 173.733 237.769 173.733 240.993V268.371H162.033V243.489C162.033 241.825 161.695 240.395 161.019 239.199C160.395 238.003 159.485 237.067 158.289 236.391C157.145 235.715 155.793 235.377 154.233 235.377C152.725 235.377 151.373 235.715 150.177 236.391C148.981 237.067 148.045 238.003 147.369 239.199C146.745 240.395 146.433 241.825 146.433 243.489V268.371H134.733ZM181.427 268.371V225.783H193.127V268.371H181.427ZM181.427 221.961V210.261H193.127V221.961H181.427ZM215.026 268.371L198.256 225.783H210.892L222.514 257.997H217.678L229.3 225.783H241.936L225.166 268.371H215.026ZM266.839 269.307C262.315 269.307 258.389 268.319 255.061 266.343C251.733 264.315 249.159 261.611 247.339 258.231C245.519 254.851 244.609 251.107 244.609 246.999C244.609 242.735 245.545 238.939 247.417 235.611C249.341 232.283 251.915 229.657 255.139 227.733C258.363 225.809 262.003 224.847 266.059 224.847C269.439 224.847 272.429 225.393 275.029 226.485C277.629 227.525 279.813 229.007 281.581 230.931C283.401 232.855 284.779 235.091 285.715 237.639C286.651 240.135 287.119 242.865 287.119 245.829C287.119 246.661 287.067 247.493 286.963 248.325C286.911 249.105 286.781 249.781 286.573 250.353H254.671V241.773H279.943L274.405 245.829C274.925 243.593 274.899 241.617 274.327 239.901C273.755 238.133 272.741 236.755 271.285 235.767C269.881 234.727 268.139 234.207 266.059 234.207C264.031 234.207 262.289 234.701 260.833 235.689C259.377 236.677 258.285 238.133 257.557 240.057C256.829 241.981 256.543 244.321 256.699 247.077C256.491 249.469 256.777 251.575 257.557 253.395C258.337 255.215 259.533 256.645 261.145 257.685C262.757 258.673 264.707 259.167 266.995 259.167C269.075 259.167 270.843 258.751 272.299 257.919C273.807 257.087 274.977 255.943 275.809 254.487L285.169 258.933C284.337 261.013 283.011 262.833 281.191 264.393C279.423 265.953 277.317 267.175 274.873 268.059C272.429 268.891 269.751 269.307 266.839 269.307ZM294.009 268.371V225.783H304.929V236.001L304.149 234.519C305.085 230.931 306.619 228.513 308.751 227.265C310.935 225.965 313.509 225.315 316.473 225.315H318.969V235.455H315.303C312.443 235.455 310.129 236.339 308.361 238.107C306.593 239.823 305.709 242.267 305.709 245.439V268.371H294.009ZM340.789 269.307C336.109 269.307 332.027 268.215 328.543 266.031C325.111 263.795 322.771 260.805 321.523 257.061L330.103 253.005C331.195 255.293 332.677 257.087 334.549 258.387C336.421 259.687 338.501 260.337 340.789 260.337C342.453 260.337 343.727 259.999 344.611 259.323C345.495 258.647 345.937 257.711 345.937 256.515C345.937 255.891 345.781 255.371 345.469 254.955C345.157 254.487 344.689 254.071 344.065 253.707C343.441 253.343 342.661 253.031 341.725 252.771L334.471 250.743C330.987 249.755 328.309 248.169 326.437 245.985C324.565 243.749 323.629 241.123 323.629 238.107C323.629 235.455 324.305 233.141 325.657 231.165C327.009 229.189 328.907 227.655 331.351 226.563C333.795 225.419 336.603 224.847 339.775 224.847C343.935 224.847 347.575 225.835 350.695 227.811C353.867 229.735 356.103 232.465 357.403 236.001L348.745 240.057C348.121 238.289 346.977 236.885 345.313 235.845C343.701 234.753 341.855 234.207 339.775 234.207C338.267 234.207 337.071 234.519 336.187 235.143C335.355 235.767 334.939 236.625 334.939 237.717C334.939 238.289 335.095 238.809 335.407 239.277C335.719 239.745 336.213 240.161 336.889 240.525C337.617 240.889 338.501 241.227 339.541 241.539L346.327 243.567C349.863 244.607 352.567 246.193 354.439 248.325C356.311 250.405 357.247 252.979 357.247 256.047C357.247 258.699 356.545 261.013 355.141 262.989C353.789 264.965 351.891 266.525 349.447 267.669C347.003 268.761 344.117 269.307 340.789 269.307ZM377.421 269.307C374.353 269.307 371.701 268.813 369.465 267.825C367.229 266.837 365.513 265.433 364.317 263.613C363.121 261.741 362.523 259.531 362.523 256.983C362.523 254.591 363.069 252.485 364.161 250.665C365.253 248.793 366.917 247.233 369.153 245.985C371.441 244.737 374.275 243.853 377.655 243.333L390.681 241.227V249.807L379.761 251.757C378.097 252.069 376.823 252.615 375.939 253.395C375.055 254.123 374.613 255.189 374.613 256.593C374.613 257.893 375.107 258.907 376.095 259.635C377.083 260.363 378.305 260.727 379.761 260.727C381.685 260.727 383.375 260.311 384.831 259.479C386.287 258.647 387.405 257.529 388.185 256.125C389.017 254.669 389.433 253.083 389.433 251.367V240.291C389.433 238.679 388.783 237.327 387.483 236.235C386.235 235.143 384.519 234.597 382.335 234.597C380.255 234.597 378.409 235.169 376.797 236.313C375.237 237.457 374.093 238.965 373.365 240.837L364.005 236.391C364.837 233.999 366.163 231.945 367.983 230.229C369.803 228.513 371.987 227.187 374.535 226.251C377.083 225.315 379.865 224.847 382.881 224.847C386.469 224.847 389.641 225.497 392.397 226.797C395.153 228.097 397.285 229.917 398.793 232.257C400.353 234.545 401.133 237.223 401.133 240.291V268.371H390.213V261.507L392.865 261.039C391.617 262.911 390.239 264.471 388.731 265.719C387.223 266.915 385.533 267.799 383.661 268.371C381.789 268.995 379.709 269.307 377.421 269.307ZM409.714 268.371V209.325H421.414V268.371H409.714ZM457.173 269.307C454.105 269.307 451.453 268.813 449.217 267.825C446.981 266.837 445.265 265.433 444.069 263.613C442.873 261.741 442.275 259.531 442.275 256.983C442.275 254.591 442.821 252.485 443.913 250.665C445.005 248.793 446.669 247.233 448.905 245.985C451.193 244.737 454.027 243.853 457.407 243.333L470.433 241.227V249.807L459.513 251.757C457.849 252.069 456.575 252.615 455.691 253.395C454.807 254.123 454.365 255.189 454.365 256.593C454.365 257.893 454.859 258.907 455.847 259.635C456.835 260.363 458.057 260.727 459.513 260.727C461.437 260.727 463.127 260.311 464.583 259.479C466.039 258.647 467.157 257.529 467.937 256.125C468.769 254.669 469.185 253.083 469.185 251.367V240.291C469.185 238.679 468.535 237.327 467.235 236.235C465.987 235.143 464.271 234.597 462.087 234.597C460.007 234.597 458.161 235.169 456.549 236.313C454.989 237.457 453.845 238.965 453.117 240.837L443.757 236.391C444.589 233.999 445.915 231.945 447.735 230.229C449.555 228.513 451.739 227.187 454.287 226.251C456.835 225.315 459.617 224.847 462.633 224.847C466.221 224.847 469.393 225.497 472.149 226.797C474.905 228.097 477.037 229.917 478.545 232.257C480.105 234.545 480.885 237.223 480.885 240.291V268.371H469.965V261.507L472.617 261.039C471.369 262.911 469.991 264.471 468.483 265.719C466.975 266.915 465.285 267.799 463.413 268.371C461.541 268.995 459.461 269.307 457.173 269.307ZM489.466 268.371V225.783H500.386V234.207L499.762 232.335C500.75 229.787 502.336 227.915 504.52 226.719C506.756 225.471 509.356 224.847 512.32 224.847C515.544 224.847 518.352 225.523 520.744 226.875C523.188 228.227 525.086 230.125 526.438 232.569C527.79 234.961 528.466 237.769 528.466 240.993V268.371H516.766V243.489C516.766 241.825 516.428 240.395 515.752 239.199C515.128 238.003 514.218 237.067 513.022 236.391C511.878 235.715 510.526 235.377 508.966 235.377C507.458 235.377 506.106 235.715 504.91 236.391C503.714 237.067 502.778 238.003 502.102 239.199C501.478 240.395 501.166 241.825 501.166 243.489V268.371H489.466ZM556.205 269.307C552.045 269.307 548.327 268.319 545.051 266.343C541.775 264.367 539.175 261.689 537.251 258.309C535.379 254.929 534.443 251.185 534.443 247.077C534.443 242.917 535.405 239.173 537.329 235.845C539.253 232.465 541.853 229.787 545.129 227.811C548.405 225.835 552.071 224.847 556.127 224.847C559.247 224.847 562.003 225.445 564.395 226.641C566.839 227.785 568.763 229.423 570.167 231.555L568.373 233.895V209.325H580.073V268.371H569.153V260.571L570.245 262.989C568.789 265.069 566.813 266.655 564.317 267.747C561.821 268.787 559.117 269.307 556.205 269.307ZM557.609 258.777C559.741 258.777 561.613 258.283 563.225 257.295C564.837 256.307 566.085 254.929 566.969 253.161C567.905 251.393 568.373 249.365 568.373 247.077C568.373 244.789 567.905 242.761 566.969 240.993C566.085 239.225 564.837 237.847 563.225 236.859C561.613 235.871 559.741 235.377 557.609 235.377C555.477 235.377 553.553 235.897 551.837 236.937C550.173 237.925 548.873 239.303 547.937 241.071C547.001 242.787 546.533 244.789 546.533 247.077C546.533 249.365 547.001 251.393 547.937 253.161C548.873 254.929 550.173 256.307 551.837 257.295C553.553 258.283 555.477 258.777 557.609 258.777ZM603.515 268.371V210.261H625.823C629.827 210.261 633.363 210.963 636.431 212.367C639.551 213.771 641.995 215.851 643.763 218.607C645.531 221.363 646.415 224.769 646.415 228.825C646.415 232.777 645.505 236.131 643.685 238.887C641.917 241.643 639.473 243.749 636.353 245.205C633.285 246.609 629.775 247.311 625.823 247.311H615.605V268.371H603.515ZM615.605 236.781H625.901C627.617 236.781 629.099 236.443 630.347 235.767C631.595 235.091 632.557 234.155 633.233 232.959C633.961 231.763 634.325 230.385 634.325 228.825C634.325 227.213 633.961 225.809 633.233 224.613C632.557 223.417 631.595 222.481 630.347 221.805C629.099 221.129 627.617 220.791 625.901 220.791H615.605V236.781ZM672.302 269.307C667.778 269.307 663.852 268.319 660.524 266.343C657.196 264.315 654.622 261.611 652.802 258.231C650.982 254.851 650.072 251.107 650.072 246.999C650.072 242.735 651.008 238.939 652.88 235.611C654.804 232.283 657.378 229.657 660.602 227.733C663.826 225.809 667.466 224.847 671.522 224.847C674.902 224.847 677.892 225.393 680.492 226.485C683.092 227.525 685.276 229.007 687.044 230.931C688.864 232.855 690.242 235.091 691.178 237.639C692.114 240.135 692.582 242.865 692.582 245.829C692.582 246.661 692.53 247.493 692.426 248.325C692.374 249.105 692.244 249.781 692.036 250.353H660.134V241.773H685.406L679.868 245.829C680.388 243.593 680.362 241.617 679.79 239.901C679.218 238.133 678.204 236.755 676.748 235.767C675.344 234.727 673.602 234.207 671.522 234.207C669.494 234.207 667.752 234.701 666.296 235.689C664.84 236.677 663.748 238.133 663.02 240.057C662.292 241.981 662.006 244.321 662.162 247.077C661.954 249.469 662.24 251.575 663.02 253.395C663.8 255.215 664.996 256.645 666.608 257.685C668.22 258.673 670.17 259.167 672.458 259.167C674.538 259.167 676.306 258.751 677.762 257.919C679.27 257.087 680.44 255.943 681.272 254.487L690.632 258.933C689.8 261.013 688.474 262.833 686.654 264.393C684.886 265.953 682.78 267.175 680.336 268.059C677.892 268.891 675.214 269.307 672.302 269.307ZM699.472 268.371V225.783H710.392V236.001L709.612 234.519C710.548 230.931 712.082 228.513 714.214 227.265C716.398 225.965 718.972 225.315 721.936 225.315H724.432V235.455H720.766C717.906 235.455 715.592 236.339 713.824 238.107C712.056 239.823 711.172 242.267 711.172 245.439V268.371H699.472ZM734.708 268.371V235.923H727.532V225.783H734.708V225.159C734.708 221.779 735.358 218.919 736.658 216.579C738.01 214.239 739.934 212.445 742.43 211.197C744.926 209.949 747.942 209.325 751.478 209.325C752.154 209.325 752.882 209.377 753.662 209.481C754.442 209.533 755.092 209.611 755.612 209.715V219.699C755.092 219.595 754.624 219.543 754.208 219.543C753.844 219.491 753.454 219.465 753.038 219.465C750.854 219.465 749.19 219.959 748.046 220.947C746.954 221.883 746.408 223.287 746.408 225.159V225.783H755.534V235.923H746.408V268.371H734.708ZM781.852 269.307C777.64 269.307 773.792 268.345 770.308 266.421C766.876 264.497 764.12 261.871 762.04 258.543C760.012 255.163 758.998 251.341 758.998 247.077C758.998 242.761 760.012 238.939 762.04 235.611C764.12 232.283 766.876 229.657 770.308 227.733C773.792 225.809 777.64 224.847 781.852 224.847C786.064 224.847 789.886 225.809 793.318 227.733C796.75 229.657 799.48 232.283 801.508 235.611C803.588 238.939 804.628 242.761 804.628 247.077C804.628 251.341 803.588 255.163 801.508 258.543C799.48 261.871 796.75 264.497 793.318 266.421C789.886 268.345 786.064 269.307 781.852 269.307ZM781.852 258.777C783.984 258.777 785.83 258.283 787.39 257.295C789.002 256.307 790.25 254.929 791.134 253.161C792.07 251.393 792.538 249.365 792.538 247.077C792.538 244.789 792.07 242.787 791.134 241.071C790.25 239.303 789.002 237.925 787.39 236.937C785.83 235.897 783.984 235.377 781.852 235.377C779.72 235.377 777.848 235.897 776.236 236.937C774.624 237.925 773.35 239.303 772.414 241.071C771.53 242.787 771.088 244.789 771.088 247.077C771.088 249.365 771.53 251.393 772.414 253.161C773.35 254.929 774.624 256.307 776.236 257.295C777.848 258.283 779.72 258.777 781.852 258.777ZM811.52 268.371V225.783H822.44V236.001L821.66 234.519C822.596 230.931 824.13 228.513 826.262 227.265C828.446 225.965 831.02 225.315 833.984 225.315H836.48V235.455H832.814C829.954 235.455 827.64 236.339 825.872 238.107C824.104 239.823 823.22 242.267 823.22 245.439V268.371H811.52ZM841.608 268.371V225.783H852.528V236.157L851.358 234.441C851.982 231.165 853.49 228.747 855.882 227.187C858.274 225.627 861.134 224.847 864.462 224.847C867.998 224.847 871.092 225.757 873.744 227.577C876.448 229.345 878.138 231.737 878.814 234.753L875.46 235.065C876.864 231.581 878.866 229.007 881.466 227.343C884.066 225.679 887.108 224.847 890.592 224.847C893.66 224.847 896.364 225.523 898.704 226.875C901.096 228.227 902.968 230.125 904.32 232.569C905.672 234.961 906.348 237.769 906.348 240.993V268.371H894.648V243.489C894.648 241.825 894.336 240.395 893.712 239.199C893.14 238.003 892.308 237.067 891.216 236.391C890.124 235.715 888.798 235.377 887.238 235.377C885.73 235.377 884.404 235.715 883.26 236.391C882.168 237.067 881.31 238.003 880.686 239.199C880.114 240.395 879.828 241.825 879.828 243.489V268.371H868.128V243.489C868.128 241.825 867.816 240.395 867.192 239.199C866.62 238.003 865.788 237.067 864.696 236.391C863.604 235.715 862.278 235.377 860.718 235.377C859.21 235.377 857.884 235.715 856.74 236.391C855.648 237.067 854.79 238.003 854.166 239.199C853.594 240.395 853.308 241.825 853.308 243.489V268.371H841.608ZM927.23 269.307C924.162 269.307 921.51 268.813 919.274 267.825C917.038 266.837 915.322 265.433 914.126 263.613C912.93 261.741 912.332 259.531 912.332 256.983C912.332 254.591 912.878 252.485 913.97 250.665C915.062 248.793 916.726 247.233 918.962 245.985C921.25 244.737 924.084 243.853 927.464 243.333L940.49 241.227V249.807L929.57 251.757C927.906 252.069 926.632 252.615 925.748 253.395C924.864 254.123 924.422 255.189 924.422 256.593C924.422 257.893 924.916 258.907 925.904 259.635C926.892 260.363 928.114 260.727 929.57 260.727C931.494 260.727 933.184 260.311 934.64 259.479C936.096 258.647 937.214 257.529 937.994 256.125C938.826 254.669 939.242 253.083 939.242 251.367V240.291C939.242 238.679 938.592 237.327 937.292 236.235C936.044 235.143 934.328 234.597 932.144 234.597C930.064 234.597 928.218 235.169 926.606 236.313C925.046 237.457 923.902 238.965 923.174 240.837L913.814 236.391C914.646 233.999 915.972 231.945 917.792 230.229C919.612 228.513 921.796 227.187 924.344 226.251C926.892 225.315 929.674 224.847 932.69 224.847C936.278 224.847 939.45 225.497 942.206 226.797C944.962 228.097 947.094 229.917 948.602 232.257C950.162 234.545 950.942 237.223 950.942 240.291V268.371H940.022V261.507L942.674 261.039C941.426 262.911 940.048 264.471 938.54 265.719C937.032 266.915 935.342 267.799 933.47 268.371C931.598 268.995 929.518 269.307 927.23 269.307ZM959.522 268.371V225.783H970.442V234.207L969.818 232.335C970.806 229.787 972.392 227.915 974.576 226.719C976.812 225.471 979.412 224.847 982.376 224.847C985.6 224.847 988.408 225.523 990.8 226.875C993.244 228.227 995.142 230.125 996.494 232.569C997.846 234.961 998.522 237.769 998.522 240.993V268.371H986.822V243.489C986.822 241.825 986.484 240.395 985.808 239.199C985.184 238.003 984.274 237.067 983.078 236.391C981.934 235.715 980.582 235.377 979.022 235.377C977.514 235.377 976.162 235.715 974.966 236.391C973.77 237.067 972.834 238.003 972.158 239.199C971.534 240.395 971.222 241.825 971.222 243.489V268.371H959.522ZM1026.73 268.839C1021.58 268.839 1017.58 267.461 1014.72 264.705C1011.91 261.897 1010.51 257.997 1010.51 253.005V235.923H1003.33V225.783H1003.72C1005.9 225.783 1007.57 225.237 1008.71 224.145C1009.91 223.053 1010.51 221.415 1010.51 219.231V216.111H1022.21V225.783H1032.19V235.923H1022.21V252.225C1022.21 253.681 1022.47 254.903 1022.99 255.891C1023.51 256.827 1024.31 257.529 1025.4 257.997C1026.5 258.465 1027.85 258.699 1029.46 258.699C1029.82 258.699 1030.24 258.673 1030.71 258.621C1031.18 258.569 1031.67 258.517 1032.19 258.465V268.371C1031.41 268.475 1030.53 268.579 1029.54 268.683C1028.55 268.787 1027.61 268.839 1026.73 268.839ZM100.286 376.307C96.646 376.307 93.214 375.657 89.99 374.357C86.818 373.005 84.062 371.107 81.722 368.663C79.434 366.219 77.718 363.333 76.574 360.005L86.48 355.559C87.936 358.731 89.938 361.227 92.486 363.047C95.086 364.867 97.946 365.777 101.066 365.777C102.73 365.777 104.16 365.517 105.356 364.997C106.552 364.477 107.488 363.775 108.164 362.891C108.84 361.955 109.178 360.863 109.178 359.615C109.178 358.263 108.762 357.119 107.93 356.183C107.098 355.195 105.798 354.415 104.03 353.843L92.642 350.099C88.014 348.591 84.53 346.459 82.19 343.703C79.85 340.895 78.68 337.541 78.68 333.641C78.68 330.209 79.512 327.193 81.176 324.593C82.892 321.993 85.258 319.965 88.274 318.509C91.342 317.053 94.852 316.325 98.804 316.325C102.288 316.325 105.512 316.923 108.476 318.119C111.44 319.315 113.988 321.005 116.12 323.189C118.304 325.373 119.942 327.999 121.034 331.067L111.206 335.513C110.114 332.809 108.476 330.703 106.292 329.195C104.108 327.635 101.612 326.855 98.804 326.855C97.192 326.855 95.762 327.115 94.514 327.635C93.266 328.155 92.304 328.909 91.628 329.897C90.952 330.833 90.614 331.925 90.614 333.173C90.614 334.525 91.056 335.721 91.94 336.761C92.824 337.749 94.15 338.529 95.918 339.101L107.072 342.689C111.752 344.197 115.236 346.303 117.524 349.007C119.864 351.711 121.034 355.013 121.034 358.913C121.034 362.293 120.15 365.309 118.382 367.961C116.614 370.561 114.17 372.615 111.05 374.123C107.982 375.579 104.394 376.307 100.286 376.307ZM149.306 375.839C144.158 375.839 140.154 374.461 137.294 371.705C134.486 368.897 133.082 364.997 133.082 360.005V342.923H125.906V332.783H126.296C128.48 332.783 130.144 332.237 131.288 331.145C132.484 330.053 133.082 328.415 133.082 326.231V323.111H144.782V332.783H154.766V342.923H144.782V359.225C144.782 360.681 145.042 361.903 145.562 362.891C146.082 363.827 146.888 364.529 147.98 364.997C149.072 365.465 150.424 365.699 152.036 365.699C152.4 365.699 152.816 365.673 153.284 365.621C153.752 365.569 154.246 365.517 154.766 365.465V375.371C153.986 375.475 153.102 375.579 152.114 375.683C151.126 375.787 150.19 375.839 149.306 375.839ZM168.252 392.687C167.004 392.687 165.782 392.583 164.586 392.375C163.442 392.167 162.428 391.829 161.544 391.361V381.767C162.272 381.975 163.13 382.157 164.118 382.313C165.106 382.469 166.016 382.547 166.848 382.547C169.136 382.547 170.774 382.001 171.762 380.909C172.75 379.817 173.556 378.569 174.18 377.165L177.066 370.535L176.91 380.285L158.19 332.783H170.748L183.15 366.557H178.47L190.872 332.783H203.43L185.178 379.349C184.034 382.313 182.63 384.783 180.966 386.759C179.302 388.735 177.404 390.217 175.272 391.205C173.192 392.193 170.852 392.687 168.252 392.687ZM208.544 375.371V316.325H220.244V375.371H208.544ZM228.806 375.371V332.783H240.506V375.371H228.806ZM228.806 328.961V317.261H240.506V328.961H228.806ZM249.067 375.371V332.783H259.987V341.207L259.363 339.335C260.351 336.787 261.937 334.915 264.121 333.719C266.357 332.471 268.957 331.847 271.921 331.847C275.145 331.847 277.953 332.523 280.345 333.875C282.789 335.227 284.687 337.125 286.039 339.569C287.391 341.961 288.067 344.769 288.067 347.993V375.371H276.367V350.489C276.367 348.825 276.029 347.395 275.353 346.199C274.729 345.003 273.819 344.067 272.623 343.391C271.479 342.715 270.127 342.377 268.567 342.377C267.059 342.377 265.707 342.715 264.511 343.391C263.315 344.067 262.379 345.003 261.703 346.199C261.079 347.395 260.767 348.825 260.767 350.489V375.371H249.067ZM316.665 392.531C313.389 392.531 310.347 391.985 307.539 390.893C304.731 389.801 302.313 388.267 300.285 386.291C298.309 384.367 296.879 382.079 295.995 379.427L306.837 375.605C307.409 377.581 308.579 379.141 310.347 380.285C312.115 381.429 314.221 382.001 316.665 382.001C318.589 382.001 320.253 381.637 321.657 380.909C323.061 380.233 324.127 379.219 324.855 377.867C325.635 376.515 326.025 374.929 326.025 373.109V363.359L328.287 366.167C326.831 368.559 324.959 370.353 322.671 371.549C320.383 372.693 317.705 373.265 314.637 373.265C310.685 373.265 307.149 372.381 304.029 370.613C300.909 368.793 298.465 366.323 296.697 363.203C294.929 360.031 294.045 356.443 294.045 352.439C294.045 348.435 294.929 344.899 296.697 341.831C298.465 338.711 300.883 336.267 303.951 334.499C307.019 332.731 310.503 331.847 314.403 331.847C317.471 331.847 320.149 332.471 322.437 333.719C324.725 334.915 326.675 336.761 328.287 339.257L326.805 342.065V332.783H337.725V373.109C337.725 376.853 336.815 380.181 334.995 383.093C333.175 386.057 330.679 388.371 327.507 390.035C324.387 391.699 320.773 392.531 316.665 392.531ZM316.275 362.657C318.251 362.657 319.967 362.241 321.423 361.409C322.879 360.577 323.997 359.407 324.777 357.899C325.609 356.391 326.025 354.623 326.025 352.595C326.025 350.567 325.609 348.799 324.777 347.291C323.945 345.731 322.801 344.535 321.345 343.703C319.889 342.819 318.199 342.377 316.275 342.377C314.299 342.377 312.531 342.819 310.971 343.703C309.463 344.535 308.267 345.731 307.383 347.291C306.551 348.799 306.135 350.567 306.135 352.595C306.135 354.571 306.551 356.313 307.383 357.821C308.267 359.329 309.463 360.525 310.971 361.409C312.531 362.241 314.299 362.657 316.275 362.657ZM375.228 375.371V317.261H387.318V364.841H411.888V375.371H375.228ZM417.026 375.371V332.783H428.726V375.371H417.026ZM417.026 328.961V317.261H428.726V328.961H417.026ZM461.156 376.307C458.244 376.307 455.54 375.787 453.044 374.747C450.6 373.655 448.624 372.069 447.116 369.989L448.208 367.571V375.371H437.288V316.325H448.988V340.895L447.194 338.555C448.598 336.423 450.496 334.785 452.888 333.641C455.332 332.445 458.114 331.847 461.234 331.847C465.29 331.847 468.956 332.835 472.232 334.811C475.508 336.787 478.108 339.465 480.032 342.845C481.956 346.173 482.918 349.917 482.918 354.077C482.918 358.185 481.956 361.929 480.032 365.309C478.16 368.689 475.586 371.367 472.31 373.343C469.034 375.319 465.316 376.307 461.156 376.307ZM459.752 365.777C461.936 365.777 463.86 365.283 465.524 364.295C467.188 363.307 468.488 361.929 469.424 360.161C470.36 358.393 470.828 356.365 470.828 354.077C470.828 351.789 470.36 349.787 469.424 348.071C468.488 346.303 467.188 344.925 465.524 343.937C463.86 342.897 461.936 342.377 459.752 342.377C457.672 342.377 455.8 342.871 454.136 343.859C452.524 344.847 451.25 346.225 450.314 347.993C449.43 349.761 448.988 351.789 448.988 354.077C448.988 356.365 449.43 358.393 450.314 360.161C451.25 361.929 452.524 363.307 454.136 364.295C455.8 365.283 457.672 365.777 459.752 365.777ZM489.77 375.371V332.783H500.69V343.001L499.91 341.519C500.846 337.931 502.38 335.513 504.512 334.265C506.696 332.965 509.27 332.315 512.234 332.315H514.73V342.455H511.064C508.204 342.455 505.89 343.339 504.122 345.107C502.354 346.823 501.47 349.267 501.47 352.439V375.371H489.77ZM533.04 376.307C529.972 376.307 527.32 375.813 525.084 374.825C522.848 373.837 521.132 372.433 519.936 370.613C518.74 368.741 518.142 366.531 518.142 363.983C518.142 361.591 518.688 359.485 519.78 357.665C520.872 355.793 522.536 354.233 524.772 352.985C527.06 351.737 529.894 350.853 533.274 350.333L546.3 348.227V356.807L535.38 358.757C533.716 359.069 532.442 359.615 531.558 360.395C530.674 361.123 530.232 362.189 530.232 363.593C530.232 364.893 530.726 365.907 531.714 366.635C532.702 367.363 533.924 367.727 535.38 367.727C537.304 367.727 538.994 367.311 540.45 366.479C541.906 365.647 543.024 364.529 543.804 363.125C544.636 361.669 545.052 360.083 545.052 358.367V347.291C545.052 345.679 544.402 344.327 543.102 343.235C541.854 342.143 540.138 341.597 537.954 341.597C535.874 341.597 534.028 342.169 532.416 343.313C530.856 344.457 529.712 345.965 528.984 347.837L519.624 343.391C520.456 340.999 521.782 338.945 523.602 337.229C525.422 335.513 527.606 334.187 530.154 333.251C532.702 332.315 535.484 331.847 538.5 331.847C542.088 331.847 545.26 332.497 548.016 333.797C550.772 335.097 552.904 336.917 554.412 339.257C555.972 341.545 556.752 344.223 556.752 347.291V375.371H545.832V368.507L548.484 368.039C547.236 369.911 545.858 371.471 544.35 372.719C542.842 373.915 541.152 374.799 539.28 375.371C537.408 375.995 535.328 376.307 533.04 376.307ZM565.333 375.371V332.783H576.253V343.001L575.473 341.519C576.409 337.931 577.943 335.513 580.075 334.265C582.259 332.965 584.833 332.315 587.797 332.315H590.293V342.455H586.627C583.767 342.455 581.453 343.339 579.685 345.107C577.917 346.823 577.033 349.267 577.033 352.439V375.371H565.333ZM602.051 392.687C600.803 392.687 599.581 392.583 598.385 392.375C597.241 392.167 596.227 391.829 595.343 391.361V381.767C596.071 381.975 596.929 382.157 597.917 382.313C598.905 382.469 599.815 382.547 600.647 382.547C602.935 382.547 604.573 382.001 605.561 380.909C606.549 379.817 607.355 378.569 607.979 377.165L610.865 370.535L610.709 380.285L591.989 332.783H604.547L616.949 366.557H612.269L624.671 332.783H637.229L618.977 379.349C617.833 382.313 616.429 384.783 614.765 386.759C613.101 388.735 611.203 390.217 609.071 391.205C606.991 392.193 604.651 392.687 602.051 392.687Z" fill="#FAFAFA"/>
<path d="M77.6754 445.545H83.8011L94.4517 471.551H94.8438L105.494 445.545H111.62V479H106.817V454.791H106.507L96.6406 478.951H92.6548L82.7884 454.775H82.478V479H77.6754V445.545ZM125.868 479.555C124.278 479.555 122.841 479.261 121.556 478.673C120.271 478.074 119.253 477.209 118.501 476.076C117.761 474.943 117.39 473.555 117.39 471.911C117.39 470.495 117.663 469.33 118.207 468.415C118.752 467.5 119.487 466.776 120.412 466.242C121.338 465.709 122.373 465.306 123.516 465.033C124.66 464.761 125.825 464.554 127.012 464.413C128.515 464.238 129.734 464.097 130.671 463.988C131.608 463.868 132.288 463.678 132.713 463.416C133.138 463.155 133.35 462.73 133.35 462.142V462.028C133.35 460.601 132.947 459.496 132.141 458.712C131.346 457.928 130.159 457.536 128.58 457.536C126.936 457.536 125.64 457.9 124.692 458.63C123.756 459.349 123.108 460.149 122.748 461.031L118.158 459.986C118.703 458.461 119.498 457.231 120.543 456.294C121.599 455.347 122.814 454.661 124.186 454.236C125.558 453.8 127.001 453.582 128.515 453.582C129.517 453.582 130.578 453.702 131.7 453.942C132.833 454.17 133.889 454.595 134.869 455.216C135.86 455.837 136.671 456.724 137.303 457.879C137.935 459.022 138.251 460.509 138.251 462.338V479H133.481V475.57H133.285C132.969 476.201 132.495 476.822 131.863 477.432C131.232 478.042 130.421 478.548 129.43 478.951C128.439 479.354 127.251 479.555 125.868 479.555ZM126.93 475.635C128.281 475.635 129.435 475.368 130.393 474.835C131.363 474.301 132.098 473.604 132.599 472.744C133.11 471.872 133.366 470.941 133.366 469.95V466.716C133.192 466.89 132.854 467.054 132.354 467.206C131.863 467.348 131.303 467.473 130.671 467.582C130.039 467.68 129.424 467.772 128.825 467.859C128.226 467.936 127.725 468.001 127.322 468.055C126.375 468.175 125.509 468.377 124.725 468.66C123.952 468.943 123.331 469.351 122.863 469.885C122.405 470.408 122.177 471.105 122.177 471.976C122.177 473.185 122.623 474.099 123.516 474.72C124.409 475.33 125.547 475.635 126.93 475.635ZM154.149 479.49C152.123 479.49 150.315 478.973 148.725 477.938C147.146 476.893 145.905 475.406 145.001 473.479C144.108 471.54 143.662 469.215 143.662 466.504C143.662 463.792 144.114 461.472 145.017 459.545C145.932 457.617 147.185 456.142 148.775 455.118C150.364 454.094 152.167 453.582 154.181 453.582C155.739 453.582 156.991 453.844 157.939 454.366C158.897 454.878 159.637 455.477 160.16 456.163C160.694 456.849 161.108 457.454 161.402 457.977H161.696V445.545H166.58V479H161.81V475.096H161.402C161.108 475.629 160.683 476.239 160.127 476.925C159.583 477.612 158.832 478.21 157.873 478.722C156.915 479.234 155.673 479.49 154.149 479.49ZM155.227 475.325C156.632 475.325 157.819 474.954 158.788 474.214C159.768 473.462 160.509 472.422 161.01 471.094C161.521 469.765 161.777 468.219 161.777 466.455C161.777 464.712 161.527 463.187 161.026 461.881C160.525 460.574 159.79 459.556 158.821 458.826C157.851 458.096 156.654 457.732 155.227 457.732C153.757 457.732 152.532 458.113 151.551 458.875C150.571 459.637 149.831 460.677 149.33 461.995C148.84 463.313 148.595 464.799 148.595 466.455C148.595 468.132 148.845 469.64 149.346 470.979C149.847 472.319 150.588 473.381 151.568 474.165C152.559 474.938 153.779 475.325 155.227 475.325ZM184.365 479.506C181.893 479.506 179.764 478.978 177.978 477.922C176.203 476.855 174.831 475.357 173.861 473.43C172.903 471.491 172.424 469.221 172.424 466.618C172.424 464.048 172.903 461.783 173.861 459.822C174.831 457.862 176.181 456.332 177.912 455.232C179.655 454.132 181.691 453.582 184.022 453.582C185.438 453.582 186.81 453.817 188.138 454.285C189.467 454.753 190.659 455.488 191.716 456.49C192.772 457.492 193.605 458.793 194.215 460.394C194.825 461.984 195.13 463.917 195.13 466.193V467.925H175.184V464.266H190.344C190.344 462.981 190.082 461.843 189.559 460.852C189.037 459.85 188.302 459.06 187.354 458.483C186.418 457.906 185.318 457.617 184.055 457.617C182.682 457.617 181.484 457.955 180.461 458.63C179.448 459.294 178.664 460.165 178.108 461.244C177.564 462.311 177.292 463.471 177.292 464.723V467.582C177.292 469.259 177.586 470.685 178.174 471.862C178.773 473.038 179.606 473.936 180.673 474.557C181.74 475.167 182.987 475.472 184.414 475.472C185.34 475.472 186.184 475.341 186.946 475.08C187.708 474.807 188.367 474.404 188.922 473.871C189.478 473.337 189.903 472.678 190.197 471.894L194.819 472.727C194.449 474.089 193.785 475.281 192.827 476.305C191.879 477.317 190.687 478.107 189.249 478.673C187.823 479.229 186.194 479.506 184.365 479.506ZM224.664 453.909V457.83H210.485V453.909H224.664ZM214.373 479V451.001C214.373 449.433 214.716 448.132 215.402 447.097C216.088 446.052 216.997 445.273 218.13 444.761C219.262 444.239 220.493 443.977 221.822 443.977C222.802 443.977 223.64 444.059 224.337 444.222C225.034 444.375 225.551 444.516 225.889 444.647L224.746 448.6C224.517 448.535 224.223 448.459 223.863 448.371C223.504 448.273 223.068 448.224 222.557 448.224C221.37 448.224 220.52 448.518 220.008 449.107C219.507 449.695 219.257 450.544 219.257 451.655V479H214.373ZM239.284 479.506C236.932 479.506 234.879 478.967 233.126 477.889C231.372 476.811 230.011 475.303 229.042 473.364C228.073 471.426 227.588 469.161 227.588 466.569C227.588 463.966 228.073 461.69 229.042 459.741C230.011 457.791 231.372 456.278 233.126 455.2C234.879 454.121 236.932 453.582 239.284 453.582C241.636 453.582 243.689 454.121 245.442 455.2C247.196 456.278 248.557 457.791 249.526 459.741C250.495 461.69 250.98 463.966 250.98 466.569C250.98 469.161 250.495 471.426 249.526 473.364C248.557 475.303 247.196 476.811 245.442 477.889C243.689 478.967 241.636 479.506 239.284 479.506ZM239.3 475.406C240.825 475.406 242.088 475.003 243.09 474.197C244.092 473.392 244.832 472.319 245.312 470.979C245.802 469.64 246.047 468.164 246.047 466.553C246.047 464.952 245.802 463.482 245.312 462.142C244.832 460.792 244.092 459.708 243.09 458.891C242.088 458.075 240.825 457.666 239.3 457.666C237.765 457.666 236.491 458.075 235.478 458.891C234.476 459.708 233.73 460.792 233.24 462.142C232.761 463.482 232.521 464.952 232.521 466.553C232.521 468.164 232.761 469.64 233.24 470.979C233.73 472.319 234.476 473.392 235.478 474.197C236.491 475.003 237.765 475.406 239.3 475.406ZM256.432 479V453.909H261.153V457.895H261.414C261.871 456.545 262.677 455.483 263.832 454.71C264.997 453.925 266.315 453.533 267.785 453.533C268.09 453.533 268.449 453.544 268.863 453.566C269.288 453.588 269.62 453.615 269.859 453.648V458.32C269.663 458.265 269.315 458.205 268.814 458.14C268.313 458.064 267.812 458.026 267.311 458.026C266.157 458.026 265.128 458.271 264.224 458.761C263.331 459.24 262.623 459.91 262.1 460.77C261.577 461.619 261.316 462.589 261.316 463.678V479H256.432Z" fill="#6F6F6F"/>
<path d="M286.652 479V445.545H298.577C301.169 445.545 303.319 445.992 305.029 446.885C306.75 447.778 308.035 449.014 308.884 450.593C309.734 452.161 310.158 453.974 310.158 456.033C310.158 458.08 309.728 459.882 308.868 461.44C308.018 462.986 306.733 464.189 305.013 465.05C303.303 465.91 301.152 466.34 298.56 466.34H289.527V461.995H298.103C299.737 461.995 301.065 461.761 302.089 461.293C303.123 460.824 303.88 460.144 304.359 459.251C304.839 458.358 305.078 457.285 305.078 456.033C305.078 454.769 304.833 453.675 304.343 452.749C303.864 451.824 303.107 451.116 302.072 450.626C301.049 450.125 299.704 449.874 298.038 449.874H291.7V479H286.652ZM303.167 463.906L311.433 479H305.683L297.58 463.906H303.167ZM326.408 479.506C323.936 479.506 321.807 478.978 320.021 477.922C318.246 476.855 316.874 475.357 315.904 473.43C314.946 471.491 314.467 469.221 314.467 466.618C314.467 464.048 314.946 461.783 315.904 459.822C316.874 457.862 318.224 456.332 319.955 455.232C321.698 454.132 323.734 453.582 326.065 453.582C327.481 453.582 328.853 453.817 330.181 454.285C331.51 454.753 332.702 455.488 333.759 456.49C334.815 457.492 335.648 458.793 336.258 460.394C336.868 461.984 337.173 463.917 337.173 466.193V467.925H317.227V464.266H332.387C332.387 462.981 332.125 461.843 331.602 460.852C331.08 459.85 330.345 459.06 329.397 458.483C328.461 457.906 327.361 457.617 326.097 457.617C324.725 457.617 323.527 457.955 322.504 458.63C321.491 459.294 320.707 460.165 320.151 461.244C319.607 462.311 319.335 463.471 319.335 464.723V467.582C319.335 469.259 319.629 470.685 320.217 471.862C320.816 473.038 321.649 473.936 322.716 474.557C323.783 475.167 325.03 475.472 326.457 475.472C327.383 475.472 328.227 475.341 328.989 475.08C329.751 474.807 330.41 474.404 330.965 473.871C331.521 473.337 331.945 472.678 332.24 471.894L336.862 472.727C336.492 474.089 335.828 475.281 334.869 476.305C333.922 477.317 332.73 478.107 331.292 478.673C329.865 479.229 328.237 479.506 326.408 479.506ZM349.894 479.555C348.304 479.555 346.866 479.261 345.581 478.673C344.296 478.074 343.278 477.209 342.527 476.076C341.786 474.943 341.416 473.555 341.416 471.911C341.416 470.495 341.688 469.33 342.233 468.415C342.777 467.5 343.512 466.776 344.438 466.242C345.364 465.709 346.398 465.306 347.542 465.033C348.685 464.761 349.85 464.554 351.037 464.413C352.54 464.238 353.76 464.097 354.696 463.988C355.633 463.868 356.314 463.678 356.738 463.416C357.163 463.155 357.375 462.73 357.375 462.142V462.028C357.375 460.601 356.972 459.496 356.167 458.712C355.372 457.928 354.185 457.536 352.605 457.536C350.961 457.536 349.665 457.9 348.718 458.63C347.781 459.349 347.133 460.149 346.774 461.031L342.184 459.986C342.728 458.461 343.523 457.231 344.569 456.294C345.625 455.347 346.839 454.661 348.211 454.236C349.583 453.8 351.026 453.582 352.54 453.582C353.542 453.582 354.604 453.702 355.725 453.942C356.858 454.17 357.914 454.595 358.895 455.216C359.886 455.837 360.697 456.724 361.328 457.879C361.96 459.022 362.276 460.509 362.276 462.338V479H357.506V475.57H357.31C356.994 476.201 356.52 476.822 355.889 477.432C355.257 478.042 354.446 478.548 353.455 478.951C352.464 479.354 351.277 479.555 349.894 479.555ZM350.956 475.635C352.306 475.635 353.46 475.368 354.419 474.835C355.388 474.301 356.123 473.604 356.624 472.744C357.136 471.872 357.392 470.941 357.392 469.95V466.716C357.217 466.89 356.88 467.054 356.379 467.206C355.889 467.348 355.328 467.473 354.696 467.582C354.065 467.68 353.449 467.772 352.85 467.859C352.252 467.936 351.751 468.001 351.348 468.055C350.4 468.175 349.534 468.377 348.75 468.66C347.977 468.943 347.356 469.351 346.888 469.885C346.431 470.408 346.202 471.105 346.202 471.976C346.202 473.185 346.649 474.099 347.542 474.72C348.435 475.33 349.573 475.635 350.956 475.635ZM379.35 479.506C376.922 479.506 374.831 478.956 373.078 477.857C371.335 476.746 369.996 475.216 369.059 473.266C368.123 471.317 367.654 469.085 367.654 466.569C367.654 464.021 368.133 461.772 369.092 459.822C370.05 457.862 371.401 456.332 373.143 455.232C374.885 454.132 376.938 453.582 379.301 453.582C381.207 453.582 382.906 453.936 384.398 454.644C385.89 455.341 387.093 456.321 388.008 457.585C388.934 458.848 389.484 460.323 389.658 462.011H384.904C384.643 460.835 384.044 459.822 383.107 458.973C382.182 458.124 380.94 457.699 379.383 457.699C378.022 457.699 376.829 458.058 375.806 458.777C374.793 459.485 374.003 460.498 373.437 461.815C372.871 463.122 372.588 464.669 372.588 466.455C372.588 468.284 372.865 469.863 373.421 471.192C373.976 472.52 374.76 473.549 375.773 474.279C376.797 475.009 378 475.374 379.383 475.374C380.309 475.374 381.147 475.205 381.899 474.867C382.661 474.519 383.298 474.023 383.81 473.381C384.333 472.738 384.697 471.965 384.904 471.061H389.658C389.484 472.684 388.955 474.132 388.073 475.406C387.191 476.68 386.01 477.682 384.529 478.412C383.058 479.142 381.332 479.506 379.35 479.506ZM406.593 453.909V457.83H392.888V453.909H406.593ZM396.564 447.898H401.448V471.633C401.448 472.58 401.589 473.294 401.873 473.773C402.156 474.241 402.52 474.562 402.967 474.737C403.424 474.9 403.92 474.982 404.453 474.982C404.846 474.982 405.189 474.954 405.483 474.9C405.777 474.845 406.005 474.802 406.169 474.769L407.051 478.804C406.768 478.913 406.365 479.022 405.842 479.131C405.319 479.25 404.666 479.316 403.882 479.327C402.597 479.348 401.399 479.12 400.288 478.641C399.177 478.161 398.279 477.421 397.593 476.419C396.907 475.417 396.564 474.159 396.564 472.646V447.898ZM451.564 445.545V479H446.925L429.92 454.464H429.61V479H424.562V445.545H429.234L446.255 470.114H446.566V445.545H451.564ZM465.837 479.555C464.247 479.555 462.81 479.261 461.525 478.673C460.24 478.074 459.221 477.209 458.47 476.076C457.729 474.943 457.359 473.555 457.359 471.911C457.359 470.495 457.631 469.33 458.176 468.415C458.72 467.5 459.456 466.776 460.381 466.242C461.307 465.709 462.341 465.306 463.485 465.033C464.628 464.761 465.794 464.554 466.981 464.413C468.483 464.238 469.703 464.097 470.64 463.988C471.576 463.868 472.257 463.678 472.682 463.416C473.106 463.155 473.319 462.73 473.319 462.142V462.028C473.319 460.601 472.916 459.496 472.11 458.712C471.315 457.928 470.128 457.536 468.549 457.536C466.904 457.536 465.608 457.9 464.661 458.63C463.724 459.349 463.077 460.149 462.717 461.031L458.127 459.986C458.671 458.461 459.466 457.231 460.512 456.294C461.568 455.347 462.782 454.661 464.155 454.236C465.527 453.8 466.97 453.582 468.483 453.582C469.485 453.582 470.547 453.702 471.669 453.942C472.801 454.17 473.858 454.595 474.838 455.216C475.829 455.837 476.64 456.724 477.272 457.879C477.903 459.022 478.219 460.509 478.219 462.338V479H473.449V475.57H473.253C472.938 476.201 472.464 476.822 471.832 477.432C471.201 478.042 470.389 478.548 469.398 478.951C468.407 479.354 467.22 479.555 465.837 479.555ZM466.899 475.635C468.249 475.635 469.404 475.368 470.362 474.835C471.331 474.301 472.066 473.604 472.567 472.744C473.079 471.872 473.335 470.941 473.335 469.95V466.716C473.161 466.89 472.823 467.054 472.322 467.206C471.832 467.348 471.271 467.473 470.64 467.582C470.008 467.68 469.393 467.772 468.794 467.859C468.195 467.936 467.694 468.001 467.291 468.055C466.344 468.175 465.478 468.377 464.694 468.66C463.921 468.943 463.3 469.351 462.831 469.885C462.374 470.408 462.145 471.105 462.145 471.976C462.145 473.185 462.592 474.099 463.485 474.72C464.378 475.33 465.516 475.635 466.899 475.635ZM496.437 453.909V457.83H482.732V453.909H496.437ZM486.407 447.898H491.292V471.633C491.292 472.58 491.433 473.294 491.716 473.773C491.999 474.241 492.364 474.562 492.811 474.737C493.268 474.9 493.764 474.982 494.297 474.982C494.689 474.982 495.032 474.954 495.326 474.9C495.62 474.845 495.849 474.802 496.012 474.769L496.895 478.804C496.611 478.913 496.208 479.022 495.686 479.131C495.163 479.25 494.51 479.316 493.725 479.327C492.44 479.348 491.243 479.12 490.132 478.641C489.021 478.161 488.123 477.421 487.436 476.419C486.75 475.417 486.407 474.159 486.407 472.646V447.898ZM501.84 479V453.909H506.724V479H501.84ZM504.307 450.038C503.457 450.038 502.728 449.754 502.118 449.188C501.519 448.611 501.219 447.925 501.219 447.13C501.219 446.324 501.519 445.638 502.118 445.072C502.728 444.495 503.457 444.206 504.307 444.206C505.156 444.206 505.88 444.495 506.479 445.072C507.089 445.638 507.394 446.324 507.394 447.13C507.394 447.925 507.089 448.611 506.479 449.188C505.88 449.754 505.156 450.038 504.307 450.038ZM534.76 453.909L525.661 479H520.434L511.319 453.909H516.562L522.917 473.217H523.178L529.516 453.909H534.76ZM549.31 479.506C546.838 479.506 544.709 478.978 542.923 477.922C541.148 476.855 539.776 475.357 538.807 473.43C537.848 471.491 537.369 469.221 537.369 466.618C537.369 464.048 537.848 461.783 538.807 459.822C539.776 457.862 541.126 456.332 542.858 455.232C544.6 454.132 546.637 453.582 548.967 453.582C550.383 453.582 551.755 453.817 553.084 454.285C554.412 454.753 555.605 455.488 556.661 456.49C557.717 457.492 558.55 458.793 559.16 460.394C559.77 461.984 560.075 463.917 560.075 466.193V467.925H540.13V464.266H555.289C555.289 462.981 555.028 461.843 554.505 460.852C553.982 459.85 553.247 459.06 552.3 458.483C551.363 457.906 550.263 457.617 549 457.617C547.628 457.617 546.43 457.955 545.406 458.63C544.393 459.294 543.609 460.165 543.054 461.244C542.509 462.311 542.237 463.471 542.237 464.723V467.582C542.237 469.259 542.531 470.685 543.119 471.862C543.718 473.038 544.551 473.936 545.618 474.557C546.686 475.167 547.933 475.472 549.359 475.472C550.285 475.472 551.129 475.341 551.891 475.08C552.653 474.807 553.312 474.404 553.868 473.871C554.423 473.337 554.848 472.678 555.142 471.894L559.765 472.727C559.394 474.089 558.73 475.281 557.772 476.305C556.824 477.317 555.632 478.107 554.194 478.673C552.768 479.229 551.14 479.506 549.31 479.506ZM571.849 474.426L571.604 476.207C571.44 477.513 571.163 478.875 570.771 480.29C570.389 481.717 569.992 483.04 569.578 484.26C569.175 485.48 568.843 486.449 568.582 487.168H565.119C565.26 486.492 565.456 485.578 565.707 484.423C565.957 483.28 566.202 482 566.442 480.585C566.681 479.169 566.861 477.726 566.981 476.256L567.144 474.426H571.849ZM617.775 445.545V479H613.136L596.131 454.464H595.821V479H590.773V445.545H595.445L612.466 470.114H612.777V445.545H617.775ZM635.56 479.506C633.088 479.506 630.959 478.978 629.173 477.922C627.398 476.855 626.026 475.357 625.057 473.43C624.098 471.491 623.619 469.221 623.619 466.618C623.619 464.048 624.098 461.783 625.057 459.822C626.026 457.862 627.376 456.332 629.108 455.232C630.85 454.132 632.887 453.582 635.217 453.582C636.633 453.582 638.005 453.817 639.334 454.285C640.662 454.753 641.855 455.488 642.911 456.49C643.967 457.492 644.8 458.793 645.41 460.394C646.02 461.984 646.325 463.917 646.325 466.193V467.925H626.38V464.266H641.539C641.539 462.981 641.278 461.843 640.755 460.852C640.232 459.85 639.497 459.06 638.55 458.483C637.613 457.906 636.513 457.617 635.25 457.617C633.878 457.617 632.68 457.955 631.656 458.63C630.643 459.294 629.859 460.165 629.304 461.244C628.759 462.311 628.487 463.471 628.487 464.723V467.582C628.487 469.259 628.781 470.685 629.369 471.862C629.968 473.038 630.801 473.936 631.868 474.557C632.936 475.167 634.183 475.472 635.609 475.472C636.535 475.472 637.379 475.341 638.141 475.08C638.903 474.807 639.562 474.404 640.118 473.871C640.673 473.337 641.098 472.678 641.392 471.894L646.015 472.727C645.644 474.089 644.98 475.281 644.022 476.305C643.074 477.317 641.882 478.107 640.444 478.673C639.018 479.229 637.39 479.506 635.56 479.506ZM655.015 453.909L660.553 463.678L666.14 453.909H671.481L663.657 466.455L671.547 479H666.205L660.553 469.624L654.917 479H649.559L657.368 466.455L649.657 453.909H655.015ZM688.209 453.909V457.83H674.503V453.909H688.209ZM678.179 447.898H683.063V471.633C683.063 472.58 683.205 473.294 683.488 473.773C683.771 474.241 684.136 474.562 684.582 474.737C685.04 474.9 685.535 474.982 686.069 474.982C686.461 474.982 686.804 474.954 687.098 474.9C687.392 474.845 687.621 474.802 687.784 474.769L688.666 478.804C688.383 478.913 687.98 479.022 687.457 479.131C686.934 479.25 686.281 479.316 685.497 479.327C684.212 479.348 683.014 479.12 681.903 478.641C680.792 478.161 679.894 477.421 679.208 476.419C678.522 475.417 678.179 474.159 678.179 472.646V447.898ZM696.83 479.31C695.937 479.31 695.169 478.995 694.526 478.363C693.884 477.72 693.562 476.947 693.562 476.043C693.562 475.15 693.884 474.388 694.526 473.756C695.169 473.114 695.937 472.793 696.83 472.793C697.723 472.793 698.49 473.114 699.133 473.756C699.775 474.388 700.097 475.15 700.097 476.043C700.097 476.642 699.944 477.192 699.639 477.693C699.345 478.183 698.953 478.575 698.463 478.869C697.973 479.163 697.429 479.31 696.83 479.31ZM706.639 453.909H711.523V480.634C711.523 482.311 711.218 483.726 710.608 484.881C710.009 486.035 709.116 486.912 707.929 487.511C706.753 488.11 705.299 488.409 703.568 488.409C703.394 488.409 703.23 488.409 703.078 488.409C702.914 488.409 702.746 488.404 702.571 488.393V484.195C702.724 484.195 702.86 484.195 702.98 484.195C703.089 484.195 703.214 484.195 703.355 484.195C704.51 484.195 705.343 483.884 705.855 483.263C706.377 482.654 706.639 481.766 706.639 480.601V453.909ZM709.056 450.038C708.207 450.038 707.477 449.754 706.868 449.188C706.269 448.611 705.969 447.925 705.969 447.13C705.969 446.324 706.269 445.638 706.868 445.072C707.477 444.495 708.207 444.206 709.056 444.206C709.906 444.206 710.63 444.495 711.229 445.072C711.839 445.638 712.144 446.324 712.144 447.13C712.144 447.925 711.839 448.611 711.229 449.188C710.63 449.754 709.906 450.038 709.056 450.038ZM736.896 460.035L732.469 460.819C732.284 460.253 731.99 459.714 731.587 459.202C731.195 458.69 730.661 458.271 729.986 457.944C729.311 457.617 728.467 457.454 727.454 457.454C726.071 457.454 724.917 457.764 723.991 458.385C723.065 458.995 722.602 459.784 722.602 460.754C722.602 461.592 722.913 462.267 723.534 462.779C724.154 463.291 725.156 463.71 726.539 464.037L730.525 464.952C732.834 465.485 734.554 466.308 735.687 467.418C736.82 468.529 737.386 469.972 737.386 471.747C737.386 473.25 736.95 474.589 736.079 475.766C735.219 476.931 734.015 477.846 732.469 478.51C730.933 479.174 729.153 479.506 727.127 479.506C724.318 479.506 722.025 478.907 720.25 477.71C718.475 476.501 717.386 474.786 716.983 472.564L721.704 471.845C721.998 473.076 722.602 474.007 723.517 474.638C724.432 475.259 725.624 475.57 727.095 475.57C728.695 475.57 729.975 475.237 730.933 474.573C731.892 473.898 732.371 473.076 732.371 472.107C732.371 471.322 732.077 470.664 731.489 470.13C730.912 469.596 730.024 469.193 728.826 468.921L724.579 467.99C722.238 467.456 720.506 466.607 719.384 465.442C718.274 464.277 717.718 462.801 717.718 461.015C717.718 459.534 718.132 458.238 718.96 457.127C719.787 456.016 720.931 455.151 722.39 454.53C723.849 453.898 725.521 453.582 727.405 453.582C730.117 453.582 732.251 454.17 733.808 455.347C735.366 456.512 736.395 458.075 736.896 460.035ZM764.666 479.474C762.422 479.474 760.489 479.065 758.867 478.249C757.255 477.432 756.013 476.321 755.142 474.916C754.271 473.5 753.835 471.9 753.835 470.114C753.835 468.752 754.119 467.544 754.685 466.487C755.251 465.42 756.041 464.434 757.053 463.531C758.066 462.627 759.237 461.717 760.566 460.803L765.956 456.996C766.871 456.397 767.584 455.766 768.096 455.102C768.608 454.426 768.864 453.593 768.864 452.602C768.864 451.818 768.526 451.067 767.851 450.348C767.176 449.629 766.272 449.27 765.139 449.27C764.355 449.27 763.664 449.46 763.065 449.842C762.477 450.223 762.014 450.713 761.676 451.312C761.35 451.9 761.186 452.521 761.186 453.174C761.186 453.936 761.393 454.704 761.807 455.477C762.232 456.25 762.776 457.051 763.441 457.879C764.105 458.695 764.802 459.545 765.531 460.427L781.066 479H775.545L762.689 463.89C761.611 462.616 760.609 461.418 759.683 460.296C758.758 459.164 758.006 458.02 757.429 456.866C756.863 455.701 756.58 454.443 756.58 453.092C756.58 451.557 756.928 450.196 757.625 449.009C758.333 447.811 759.319 446.874 760.582 446.199C761.845 445.524 763.326 445.186 765.025 445.186C766.746 445.186 768.221 445.524 769.452 446.199C770.693 446.863 771.646 447.751 772.311 448.862C772.986 449.961 773.323 451.165 773.323 452.472C773.323 454.062 772.926 455.466 772.131 456.686C771.347 457.895 770.263 459.006 768.88 460.018L762.166 464.968C760.86 465.926 759.95 466.874 759.438 467.81C758.937 468.736 758.687 469.46 758.687 469.983C758.687 470.941 758.932 471.829 759.422 472.646C759.923 473.462 760.62 474.116 761.513 474.606C762.417 475.096 763.473 475.341 764.682 475.341C765.923 475.341 767.132 475.074 768.308 474.54C769.495 473.996 770.568 473.217 771.526 472.205C772.496 471.192 773.263 469.978 773.83 468.562C774.396 467.146 774.679 465.562 774.679 463.808H779.09C779.09 465.964 778.845 467.789 778.355 469.281C777.865 470.762 777.271 471.97 776.574 472.907C775.888 473.833 775.24 474.557 774.63 475.08C774.434 475.254 774.249 475.428 774.075 475.602C773.901 475.777 773.715 475.951 773.519 476.125C772.387 477.268 771.015 478.112 769.403 478.657C767.802 479.201 766.223 479.474 764.666 479.474ZM797.459 479V445.545H809.383C811.975 445.545 814.126 445.992 815.836 446.885C817.556 447.778 818.841 449.014 819.691 450.593C820.54 452.161 820.965 453.974 820.965 456.033C820.965 458.08 820.535 459.882 819.675 461.44C818.825 462.986 817.54 464.189 815.819 465.05C814.11 465.91 811.959 466.34 809.367 466.34H800.334V461.995H808.91C810.543 461.995 811.872 461.761 812.895 461.293C813.93 460.824 814.687 460.144 815.166 459.251C815.645 458.358 815.885 457.285 815.885 456.033C815.885 454.769 815.64 453.675 815.15 452.749C814.671 451.824 813.914 451.116 812.879 450.626C811.855 450.125 810.51 449.874 808.844 449.874H802.506V479H797.459ZM813.974 463.906L822.239 479H816.489L808.387 463.906H813.974ZM837.214 479.506C834.742 479.506 832.613 478.978 830.827 477.922C829.052 476.855 827.68 475.357 826.711 473.43C825.753 471.491 825.273 469.221 825.273 466.618C825.273 464.048 825.753 461.783 826.711 459.822C827.68 457.862 829.031 456.332 830.762 455.232C832.504 454.132 834.541 453.582 836.871 453.582C838.287 453.582 839.659 453.817 840.988 454.285C842.317 454.753 843.509 455.488 844.565 456.49C845.622 457.492 846.455 458.793 847.065 460.394C847.674 461.984 847.979 463.917 847.979 466.193V467.925H828.034V464.266H843.193C843.193 462.981 842.932 461.843 842.409 460.852C841.886 459.85 841.151 459.06 840.204 458.483C839.267 457.906 838.167 457.617 836.904 457.617C835.532 457.617 834.334 457.955 833.31 458.63C832.298 459.294 831.513 460.165 830.958 461.244C830.414 462.311 830.141 463.471 830.141 464.723V467.582C830.141 469.259 830.435 470.685 831.023 471.862C831.622 473.038 832.455 473.936 833.523 474.557C834.59 475.167 835.837 475.472 837.263 475.472C838.189 475.472 839.033 475.341 839.795 475.08C840.558 474.807 841.217 474.404 841.772 473.871C842.327 473.337 842.752 472.678 843.046 471.894L847.669 472.727C847.299 474.089 846.634 475.281 845.676 476.305C844.729 477.317 843.536 478.107 842.099 478.673C840.672 479.229 839.044 479.506 837.214 479.506ZM860.7 479.555C859.11 479.555 857.673 479.261 856.388 478.673C855.103 478.074 854.085 477.209 853.333 476.076C852.593 474.943 852.222 473.555 852.222 471.911C852.222 470.495 852.495 469.33 853.039 468.415C853.584 467.5 854.319 466.776 855.244 466.242C856.17 465.709 857.205 465.306 858.348 465.033C859.492 464.761 860.657 464.554 861.844 464.413C863.347 464.238 864.566 464.097 865.503 463.988C866.44 463.868 867.12 463.678 867.545 463.416C867.97 463.155 868.182 462.73 868.182 462.142V462.028C868.182 460.601 867.779 459.496 866.973 458.712C866.178 457.928 864.991 457.536 863.412 457.536C861.768 457.536 860.472 457.9 859.524 458.63C858.588 459.349 857.94 460.149 857.58 461.031L852.99 459.986C853.535 458.461 854.33 457.231 855.375 456.294C856.432 455.347 857.646 454.661 859.018 454.236C860.39 453.8 861.833 453.582 863.347 453.582C864.349 453.582 865.41 453.702 866.532 453.942C867.665 454.17 868.721 454.595 869.701 455.216C870.692 455.837 871.503 456.724 872.135 457.879C872.767 459.022 873.083 460.509 873.083 462.338V479H868.313V475.57H868.117C867.801 476.201 867.327 476.822 866.695 477.432C866.064 478.042 865.253 478.548 864.262 478.951C863.271 479.354 862.084 479.555 860.7 479.555ZM861.762 475.635C863.113 475.635 864.267 475.368 865.225 474.835C866.195 474.301 866.93 473.604 867.431 472.744C867.942 471.872 868.198 470.941 868.198 469.95V466.716C868.024 466.89 867.686 467.054 867.186 467.206C866.695 467.348 866.135 467.473 865.503 467.582C864.871 467.68 864.256 467.772 863.657 467.859C863.058 467.936 862.557 468.001 862.154 468.055C861.207 468.175 860.341 468.377 859.557 468.66C858.784 468.943 858.163 469.351 857.695 469.885C857.237 470.408 857.009 471.105 857.009 471.976C857.009 473.185 857.455 474.099 858.348 474.72C859.241 475.33 860.379 475.635 861.762 475.635ZM890.157 479.506C887.728 479.506 885.638 478.956 883.884 477.857C882.142 476.746 880.802 475.216 879.866 473.266C878.929 471.317 878.461 469.085 878.461 466.569C878.461 464.021 878.94 461.772 879.898 459.822C880.857 457.862 882.207 456.332 883.95 455.232C885.692 454.132 887.745 453.582 890.108 453.582C892.014 453.582 893.713 453.936 895.205 454.644C896.696 455.341 897.9 456.321 898.815 457.585C899.74 458.848 900.29 460.323 900.464 462.011H895.711C895.45 460.835 894.851 459.822 893.914 458.973C892.988 458.124 891.747 457.699 890.19 457.699C888.828 457.699 887.636 458.058 886.612 458.777C885.599 459.485 884.81 460.498 884.244 461.815C883.677 463.122 883.394 464.669 883.394 466.455C883.394 468.284 883.672 469.863 884.227 471.192C884.783 472.52 885.567 473.549 886.58 474.279C887.603 475.009 888.807 475.374 890.19 475.374C891.115 475.374 891.954 475.205 892.705 474.867C893.468 474.519 894.105 474.023 894.616 473.381C895.139 472.738 895.504 471.965 895.711 471.061H900.464C900.29 472.684 899.762 474.132 898.88 475.406C897.998 476.68 896.816 477.682 895.335 478.412C893.865 479.142 892.139 479.506 890.157 479.506ZM917.4 453.909V457.83H903.695V453.909H917.4ZM907.37 447.898H912.254V471.633C912.254 472.58 912.396 473.294 912.679 473.773C912.962 474.241 913.327 474.562 913.774 474.737C914.231 474.9 914.727 474.982 915.26 474.982C915.652 474.982 915.995 474.954 916.289 474.9C916.583 474.845 916.812 474.802 916.975 474.769L917.857 478.804C917.574 478.913 917.171 479.022 916.649 479.131C916.126 479.25 915.472 479.316 914.688 479.327C913.403 479.348 912.205 479.12 911.095 478.641C909.984 478.161 909.085 477.421 908.399 476.419C907.713 475.417 907.37 474.159 907.37 472.646V447.898Z" fill="#C2C2C2"/>
<path d="M148.569 144.88C146.802 144.88 145.171 144.596 143.673 144.027C142.176 143.458 140.889 142.665 139.811 141.647C138.733 140.659 137.925 139.491 137.386 138.144L142.057 136.213C142.476 137.35 143.239 138.293 144.347 139.042C145.485 139.791 146.877 140.165 148.524 140.165C149.811 140.165 150.964 139.91 151.982 139.401C153 138.922 153.808 138.204 154.407 137.246C155.006 136.317 155.306 135.195 155.306 133.877V128.398L156.204 129.431C155.365 130.988 154.198 132.171 152.701 132.979C151.234 133.787 149.572 134.192 147.715 134.192C145.47 134.192 143.449 133.668 141.652 132.62C139.856 131.572 138.434 130.135 137.386 128.308C136.368 126.482 135.859 124.431 135.859 122.155C135.859 119.85 136.368 117.799 137.386 116.003C138.434 114.206 139.841 112.784 141.608 111.736C143.374 110.688 145.395 110.164 147.671 110.164C149.527 110.164 151.174 110.568 152.611 111.377C154.078 112.155 155.276 113.293 156.204 114.79L155.53 116.047V110.703H160.336V133.877C160.336 135.973 159.827 137.844 158.809 139.491C157.821 141.168 156.443 142.485 154.677 143.443C152.91 144.401 150.874 144.88 148.569 144.88ZM148.299 129.476C149.647 129.476 150.844 129.162 151.892 128.533C152.94 127.874 153.764 127.006 154.362 125.928C154.991 124.82 155.306 123.578 155.306 122.2C155.306 120.823 154.991 119.58 154.362 118.473C153.734 117.365 152.895 116.497 151.847 115.868C150.799 115.209 149.617 114.88 148.299 114.88C146.922 114.88 145.694 115.209 144.617 115.868C143.539 116.497 142.685 117.365 142.057 118.473C141.458 119.551 141.158 120.793 141.158 122.2C141.158 123.548 141.458 124.775 142.057 125.883C142.685 126.991 143.539 127.874 144.617 128.533C145.694 129.162 146.922 129.476 148.299 129.476ZM166.276 135V101.002H171.351V135H166.276ZM185.953 135.539C184.126 135.539 182.524 135.135 181.147 134.326C179.77 133.488 178.692 132.335 177.913 130.868C177.165 129.371 176.791 127.65 176.791 125.703V110.703H181.866V125.254C181.866 126.362 182.09 127.335 182.539 128.173C182.988 129.012 183.617 129.671 184.426 130.15C185.234 130.599 186.162 130.823 187.21 130.823C188.288 130.823 189.231 130.584 190.039 130.105C190.848 129.626 191.477 128.952 191.926 128.084C192.405 127.215 192.644 126.197 192.644 125.03V110.703H197.674V135H192.869V130.239L193.408 130.868C192.839 132.365 191.896 133.518 190.578 134.326C189.261 135.135 187.719 135.539 185.953 135.539ZM215.007 135.539C212.582 135.539 210.426 134.985 208.54 133.877C206.684 132.739 205.232 131.212 204.184 129.296C203.136 127.35 202.612 125.179 202.612 122.784C202.612 120.329 203.136 118.158 204.184 116.272C205.262 114.386 206.699 112.904 208.495 111.826C210.292 110.718 212.328 110.164 214.603 110.164C216.43 110.164 218.061 110.478 219.499 111.107C220.936 111.736 222.148 112.604 223.136 113.712C224.124 114.79 224.873 116.032 225.382 117.44C225.921 118.847 226.19 120.344 226.19 121.931C226.19 122.32 226.175 122.724 226.145 123.143C226.115 123.563 226.056 123.952 225.966 124.311H206.609V120.269H223.091L220.666 122.11C220.966 120.643 220.861 119.341 220.352 118.203C219.873 117.035 219.124 116.122 218.106 115.464C217.118 114.775 215.951 114.431 214.603 114.431C213.256 114.431 212.058 114.775 211.01 115.464C209.962 116.122 209.154 117.08 208.585 118.338C208.016 119.565 207.792 121.063 207.911 122.829C207.762 124.476 207.986 125.913 208.585 127.141C209.214 128.368 210.082 129.326 211.19 130.015C212.328 130.703 213.615 131.048 215.052 131.048C216.519 131.048 217.762 130.718 218.78 130.06C219.828 129.401 220.651 128.548 221.25 127.5L225.382 129.521C224.903 130.659 224.154 131.692 223.136 132.62C222.148 133.518 220.951 134.237 219.543 134.775C218.166 135.284 216.654 135.539 215.007 135.539ZM240.125 135.539C237.64 135.539 235.455 134.925 233.568 133.698C231.712 132.47 230.41 130.823 229.661 128.757L233.568 126.916C234.227 128.293 235.125 129.386 236.263 130.194C237.431 131.003 238.718 131.407 240.125 131.407C241.323 131.407 242.296 131.138 243.045 130.599C243.793 130.06 244.167 129.326 244.167 128.398C244.167 127.799 244.003 127.32 243.673 126.961C243.344 126.572 242.925 126.257 242.416 126.018C241.937 125.778 241.443 125.599 240.934 125.479L237.116 124.401C235.021 123.802 233.449 122.904 232.401 121.706C231.383 120.479 230.874 119.056 230.874 117.44C230.874 115.973 231.248 114.7 231.996 113.622C232.745 112.514 233.778 111.661 235.095 111.062C236.413 110.463 237.895 110.164 239.542 110.164C241.757 110.164 243.733 110.718 245.47 111.826C247.206 112.904 248.434 114.416 249.153 116.362L245.245 118.203C244.766 117.035 244.003 116.107 242.955 115.419C241.937 114.73 240.784 114.386 239.497 114.386C238.389 114.386 237.506 114.655 236.847 115.194C236.188 115.703 235.859 116.377 235.859 117.215C235.859 117.784 236.009 118.263 236.308 118.652C236.607 119.012 236.997 119.311 237.476 119.551C237.955 119.76 238.449 119.94 238.958 120.089L242.91 121.257C244.916 121.826 246.458 122.724 247.536 123.952C248.614 125.149 249.153 126.587 249.153 128.263C249.153 129.7 248.763 130.973 247.985 132.081C247.236 133.159 246.188 134.012 244.841 134.641C243.494 135.24 241.922 135.539 240.125 135.539ZM264.634 135.269C262.089 135.269 260.113 134.551 258.706 133.114C257.299 131.677 256.595 129.656 256.595 127.051V115.284H252.329V110.703H253.002C254.14 110.703 255.023 110.374 255.652 109.715C256.281 109.056 256.595 108.158 256.595 107.02V105.134H261.67V110.703H267.194V115.284H261.67V126.826C261.67 127.664 261.805 128.383 262.074 128.982C262.344 129.551 262.778 130 263.377 130.329C263.976 130.629 264.754 130.778 265.712 130.778C265.952 130.778 266.221 130.763 266.521 130.733C266.82 130.703 267.104 130.674 267.374 130.644V135C266.955 135.06 266.491 135.12 265.982 135.18C265.473 135.24 265.024 135.269 264.634 135.269ZM279.383 135.539C277.736 135.539 276.284 135.254 275.026 134.686C273.799 134.087 272.841 133.278 272.152 132.26C271.463 131.212 271.119 129.985 271.119 128.578C271.119 127.26 271.404 126.078 271.972 125.03C272.571 123.982 273.484 123.099 274.712 122.38C275.94 121.661 277.482 121.152 279.338 120.853L287.781 119.461V123.458L280.326 124.76C278.979 125 277.991 125.434 277.362 126.063C276.733 126.661 276.419 127.44 276.419 128.398C276.419 129.326 276.763 130.09 277.452 130.689C278.17 131.257 279.083 131.542 280.191 131.542C281.568 131.542 282.766 131.242 283.784 130.644C284.832 130.045 285.64 129.251 286.209 128.263C286.778 127.245 287.063 126.123 287.063 124.895V118.652C287.063 117.455 286.614 116.482 285.715 115.733C284.847 114.955 283.679 114.565 282.212 114.565C280.865 114.565 279.682 114.925 278.664 115.643C277.676 116.332 276.943 117.23 276.464 118.338L272.242 116.227C272.691 115.029 273.425 113.982 274.443 113.083C275.461 112.155 276.643 111.437 277.991 110.928C279.368 110.419 280.82 110.164 282.347 110.164C284.263 110.164 285.955 110.523 287.422 111.242C288.919 111.96 290.072 112.964 290.88 114.251C291.718 115.508 292.138 116.976 292.138 118.652V135H287.287V130.599L288.32 130.733C287.751 131.721 287.018 132.575 286.12 133.293C285.251 134.012 284.248 134.566 283.11 134.955C282.003 135.344 280.76 135.539 279.383 135.539ZM309.614 135.539C307.189 135.539 305.033 134.985 303.147 133.877C301.29 132.739 299.808 131.212 298.7 129.296C297.622 127.38 297.083 125.209 297.083 122.784C297.083 120.389 297.622 118.233 298.7 116.317C299.778 114.401 301.26 112.904 303.147 111.826C305.033 110.718 307.189 110.164 309.614 110.164C311.26 110.164 312.802 110.463 314.24 111.062C315.677 111.631 316.919 112.425 317.967 113.443C319.045 114.461 319.839 115.643 320.348 116.991L315.901 119.056C315.392 117.799 314.569 116.796 313.431 116.047C312.323 115.269 311.051 114.88 309.614 114.88C308.236 114.88 306.994 115.224 305.886 115.913C304.808 116.571 303.955 117.515 303.326 118.742C302.697 119.94 302.383 121.302 302.383 122.829C302.383 124.356 302.697 125.733 303.326 126.961C303.955 128.159 304.808 129.102 305.886 129.79C306.994 130.479 308.236 130.823 309.614 130.823C311.081 130.823 312.353 130.449 313.431 129.7C314.539 128.922 315.362 127.889 315.901 126.602L320.348 128.712C319.868 130 319.09 131.168 318.012 132.215C316.964 133.233 315.722 134.042 314.285 134.641C312.847 135.24 311.29 135.539 309.614 135.539ZM325.308 135V101.002H330.383V123.772L328.407 123.278L340.578 110.703H346.91L337.748 120.449L347.314 135H341.476L332.943 122.11L335.952 121.706L328.766 129.341L330.383 125.973V135H325.308ZM351.553 125.075V120.583H369.518V125.075H351.553ZM385.21 135.539C382.725 135.539 380.539 134.925 378.653 133.698C376.797 132.47 375.494 130.823 374.746 128.757L378.653 126.916C379.312 128.293 380.21 129.386 381.348 130.194C382.515 131.003 383.803 131.407 385.21 131.407C386.408 131.407 387.381 131.138 388.129 130.599C388.878 130.06 389.252 129.326 389.252 128.398C389.252 127.799 389.087 127.32 388.758 126.961C388.429 126.572 388.009 126.257 387.5 126.018C387.021 125.778 386.527 125.599 386.018 125.479L382.201 124.401C380.105 123.802 378.533 122.904 377.485 121.706C376.467 120.479 375.958 119.056 375.958 117.44C375.958 115.973 376.333 114.7 377.081 113.622C377.83 112.514 378.863 111.661 380.18 111.062C381.497 110.463 382.979 110.164 384.626 110.164C386.842 110.164 388.818 110.718 390.554 111.826C392.291 112.904 393.519 114.416 394.237 116.362L390.33 118.203C389.851 117.035 389.087 116.107 388.039 115.419C387.021 114.73 385.869 114.386 384.581 114.386C383.473 114.386 382.59 114.655 381.931 115.194C381.273 115.703 380.943 116.377 380.943 117.215C380.943 117.784 381.093 118.263 381.393 118.652C381.692 119.012 382.081 119.311 382.56 119.551C383.039 119.76 383.533 119.94 384.042 120.089L387.995 121.257C390.001 121.826 391.542 122.724 392.62 123.952C393.698 125.149 394.237 126.587 394.237 128.263C394.237 129.7 393.848 130.973 393.069 132.081C392.321 133.159 391.273 134.012 389.926 134.641C388.578 135.24 387.006 135.539 385.21 135.539ZM409.719 135.269C407.174 135.269 405.198 134.551 403.791 133.114C402.383 131.677 401.68 129.656 401.68 127.051V115.284H397.413V110.703H398.087C399.225 110.703 400.108 110.374 400.737 109.715C401.365 109.056 401.68 108.158 401.68 107.02V105.134H406.755V110.703H412.279V115.284H406.755V126.826C406.755 127.664 406.89 128.383 407.159 128.982C407.428 129.551 407.863 130 408.461 130.329C409.06 130.629 409.839 130.778 410.797 130.778C411.036 130.778 411.306 130.763 411.605 130.733C411.905 130.703 412.189 130.674 412.459 130.644V135C412.039 135.06 411.575 135.12 411.066 135.18C410.557 135.24 410.108 135.269 409.719 135.269ZM419.567 144.925C418.968 144.925 418.369 144.866 417.77 144.746C417.201 144.656 416.677 144.506 416.198 144.297V139.94C416.558 140.03 416.992 140.105 417.501 140.165C418.01 140.255 418.504 140.3 418.983 140.3C420.39 140.3 421.423 139.985 422.082 139.356C422.77 138.758 423.384 137.814 423.923 136.527L425.54 132.844L425.45 137.111L414.941 110.703H420.375L428.145 130.958H426.303L434.028 110.703H439.507L428.774 137.65C428.205 139.087 427.486 140.344 426.618 141.422C425.78 142.53 424.777 143.383 423.609 143.982C422.471 144.611 421.124 144.925 419.567 144.925ZM442.981 135V101.002H448.056V135H442.981ZM465.397 135.539C462.971 135.539 460.816 134.985 458.929 133.877C457.073 132.739 455.621 131.212 454.573 129.296C453.525 127.35 453.001 125.179 453.001 122.784C453.001 120.329 453.525 118.158 454.573 116.272C455.651 114.386 457.088 112.904 458.885 111.826C460.681 110.718 462.717 110.164 464.992 110.164C466.819 110.164 468.451 110.478 469.888 111.107C471.325 111.736 472.538 112.604 473.526 113.712C474.514 114.79 475.262 116.032 475.771 117.44C476.31 118.847 476.58 120.344 476.58 121.931C476.58 122.32 476.565 122.724 476.535 123.143C476.505 123.563 476.445 123.952 476.355 124.311H456.998V120.269H473.481L471.055 122.11C471.355 120.643 471.25 119.341 470.741 118.203C470.262 117.035 469.514 116.122 468.496 115.464C467.508 114.775 466.34 114.431 464.992 114.431C463.645 114.431 462.447 114.775 461.4 115.464C460.352 116.122 459.543 117.08 458.974 118.338C458.405 119.565 458.181 121.063 458.301 122.829C458.151 124.476 458.376 125.913 458.974 127.141C459.603 128.368 460.471 129.326 461.579 130.015C462.717 130.703 464.004 131.048 465.442 131.048C466.909 131.048 468.151 130.718 469.169 130.06C470.217 129.401 471.041 128.548 471.639 127.5L475.771 129.521C475.292 130.659 474.544 131.692 473.526 132.62C472.538 133.518 471.34 134.237 469.933 134.775C468.555 135.284 467.043 135.539 465.397 135.539Z" fill="white"/>
<rect x="74" y="93.6129" width="13.473" height="13.473" rx="1.8713" fill="#262626"/>
<rect x="74" y="109.332" width="13.473" height="13.473" rx="1.8713" fill="#262626"/>
<rect x="74" y="125.049" width="13.473" height="13.473" rx="1.8713" fill="#262626"/>
<rect x="89.7192" y="93.6129" width="13.473" height="13.473" rx="1.8713" fill="#262626"/>
<rect x="89.7192" y="109.332" width="13.473" height="13.473" rx="1.8713" fill="#262626"/>
<rect x="89.7192" y="125.049" width="13.473" height="13.473" rx="1.8713" fill="#262626"/>
<rect x="105.437" y="93.6129" width="13.473" height="13.473" rx="1.8713" fill="#262626"/>
<rect x="105.437" y="109.332" width="13.473" height="13.473" rx="1.8713" fill="#262626"/>
<rect x="105.437" y="125.049" width="13.473" height="13.473" rx="1.8713" fill="#262626"/>
<path d="M95.2656 113.984L97.9923 101.473L86.3516 118.154H96.5241L93.7975 130.665L105.438 113.984H95.2656Z" fill="#262626" stroke="#1A91FF" stroke-width="1.16957" stroke-linecap="round" stroke-linejoin="round"/>
</g>
<defs>
<radialGradient id="paint0_radial_7173_65837" cx="0" cy="0" r="1" gradientUnits="userSpaceOnUse" gradientTransform="translate(544.5 429) rotate(38.2338) scale(693.196 673.952)">
<stop stop-color="#4F1D9E"/>
<stop offset="0.5" stop-opacity="0"/>
</radialGradient>
<radialGradient id="paint1_radial_7173_65837" cx="0" cy="0" r="1" gradientUnits="userSpaceOnUse" gradientTransform="translate(544.5 429) rotate(38.2338) scale(693.196 673.952)">
<stop stop-color="#1D979E"/>
<stop offset="1" stop-opacity="0"/>
</radialGradient>
<radialGradient id="paint2_radial_7173_65837" cx="0" cy="0" r="1" gradientUnits="userSpaceOnUse" gradientTransform="translate(544.5 429) rotate(38.2338) scale(693.196 673.952)">
<stop stop-color="#2AB4D9"/>
<stop offset="0.5" stop-opacity="0"/>
</radialGradient>
<radialGradient id="paint3_radial_7173_65837" cx="0" cy="0" r="1" gradientUnits="userSpaceOnUse" gradientTransform="translate(544.5 429) rotate(38.2338) scale(693.196 673.952)">
<stop stop-color="#2AB4D9"/>
<stop offset="0.6" stop-opacity="0"/>
</radialGradient>
<radialGradient id="paint4_radial_7173_65837" cx="0" cy="0" r="1" gradientUnits="userSpaceOnUse" gradientTransform="translate(544.5 429) rotate(38.2338) scale(693.196 673.952)">
<stop offset="0.3" stop-color="#4F1D9E"/>
<stop offset="0.8" stop-opacity="0"/>
</radialGradient>
<radialGradient id="paint5_radial_7173_65837" cx="0" cy="0" r="1" gradientUnits="userSpaceOnUse" gradientTransform="translate(536.5 423) rotate(38.2538) scale(683.199 664.344)">
<stop stop-color="#4F1D9E"/>
<stop offset="0.5" stop-opacity="0"/>
</radialGradient>
<radialGradient id="paint6_radial_7173_65837" cx="0" cy="0" r="1" gradientUnits="userSpaceOnUse" gradientTransform="translate(536.5 423) rotate(38.2538) scale(683.199 664.344)">
<stop stop-color="#1D979E"/>
<stop offset="1" stop-opacity="0"/>
</radialGradient>
<radialGradient id="paint7_radial_7173_65837" cx="0" cy="0" r="1" gradientUnits="userSpaceOnUse" gradientTransform="translate(536.5 423) rotate(38.2538) scale(683.199 664.344)">
<stop stop-color="#2AB4D9"/>
<stop offset="0.5" stop-opacity="0"/>
</radialGradient>
<radialGradient id="paint8_radial_7173_65837" cx="0" cy="0" r="1" gradientUnits="userSpaceOnUse" gradientTransform="translate(536.5 423) rotate(38.2538) scale(683.199 664.344)">
<stop stop-color="#2AB4D9"/>
<stop offset="0.6" stop-opacity="0"/>
</radialGradient>
<radialGradient id="paint9_radial_7173_65837" cx="0" cy="0" r="1" gradientUnits="userSpaceOnUse" gradientTransform="translate(536.5 423) rotate(38.2538) scale(683.199 664.344)">
<stop offset="0.3" stop-color="#4F1D9E"/>
<stop offset="0.8" stop-opacity="0"/>
</radialGradient>
<radialGradient id="paint10_radial_7173_65837" cx="0" cy="0" r="1" gradientUnits="userSpaceOnUse" gradientTransform="translate(729.645 575.049) rotate(38.2424) scale(929.012 903.286)">
<stop stop-color="#4F1D9E"/>
<stop offset="0.5" stop-opacity="0"/>
</radialGradient>
<radialGradient id="paint11_radial_7173_65837" cx="0" cy="0" r="1" gradientUnits="userSpaceOnUse" gradientTransform="translate(729.645 575.049) rotate(38.2424) scale(929.012 903.286)">
<stop stop-color="#1D979E"/>
<stop offset="1" stop-opacity="0"/>
</radialGradient>
<radialGradient id="paint12_radial_7173_65837" cx="0" cy="0" r="1" gradientUnits="userSpaceOnUse" gradientTransform="translate(729.645 575.049) rotate(38.2424) scale(929.012 903.286)">
<stop stop-color="#2AB4D9"/>
<stop offset="0.5" stop-opacity="0"/>
</radialGradient>
<radialGradient id="paint13_radial_7173_65837" cx="0" cy="0" r="1" gradientUnits="userSpaceOnUse" gradientTransform="translate(729.645 575.049) rotate(38.2424) scale(929.012 903.286)">
<stop stop-color="#2AB4D9"/>
<stop offset="0.6" stop-opacity="0"/>
</radialGradient>
<radialGradient id="paint14_radial_7173_65837" cx="0" cy="0" r="1" gradientUnits="userSpaceOnUse" gradientTransform="translate(729.645 575.049) rotate(38.2424) scale(929.012 903.286)">
<stop offset="0.3" stop-color="#4F1D9E"/>
<stop offset="0.8" stop-opacity="0"/>
</radialGradient>
<linearGradient id="paint15_linear_7173_65837" x1="1067.12" y1="453.955" x2="1067.12" y2="1234.41" gradientUnits="userSpaceOnUse">
<stop stop-color="#63A2DC" stop-opacity="0"/>
<stop offset="0.287409" stop-color="#63A2DC"/>
<stop offset="0.471153" stop-color="#63A2DC" stop-opacity="0.24504"/>
<stop offset="0.840574" stop-color="#63A2DC" stop-opacity="0"/>
</linearGradient>
<linearGradient id="paint16_linear_7173_65837" x1="1200.25" y1="276.096" x2="1200.25" y2="1056.55" gradientUnits="userSpaceOnUse">
<stop stop-color="#63A2DC" stop-opacity="0"/>
<stop offset="0.287409" stop-color="#63A2DC"/>
<stop offset="0.471153" stop-color="#63A2DC" stop-opacity="0.24504"/>
<stop offset="0.840574" stop-color="#63A2DC" stop-opacity="0"/>
</linearGradient>
<linearGradient id="paint17_linear_7173_65837" x1="1067.12" y1="526.603" x2="1067.12" y2="1307.06" gradientUnits="userSpaceOnUse">
<stop offset="0.402056" stop-color="#63BDC3" stop-opacity="0"/>
<stop offset="0.765238" stop-color="#63BDC3"/>
<stop offset="1" stop-color="#63BDC3" stop-opacity="0"/>
</linearGradient>
<linearGradient id="paint18_linear_7173_65837" x1="1067.12" y1="687.81" x2="1067.12" y2="1132.7" gradientUnits="userSpaceOnUse">
<stop offset="0.184672" stop-color="#63BDC3" stop-opacity="0"/>
<stop offset="0.67064" stop-color="#63BDC3"/>
<stop offset="1" stop-color="#63BDC3" stop-opacity="0"/>
</linearGradient>
<linearGradient id="paint19_linear_7173_65837" x1="780.696" y1="194.91" x2="780.696" y2="975.362" gradientUnits="userSpaceOnUse">
<stop offset="0.269769" stop-color="#DE5E85" stop-opacity="0"/>
<stop offset="0.769063" stop-color="#DE5E85"/>
<stop offset="1" stop-color="#DE5E85" stop-opacity="0"/>
</linearGradient>
<linearGradient id="paint20_linear_7173_65837" x1="0.275195" y1="0" x2="0.275195" y2="450.928" gradientUnits="userSpaceOnUse">
<stop offset="0.269769" stop-color="#DE5E85" stop-opacity="0"/>
<stop offset="0.769063" stop-color="#DE5E85"/>
<stop offset="1" stop-color="#DE5E85" stop-opacity="0"/>
</linearGradient>
<linearGradient id="paint21_linear_7173_65837" x1="0.275195" y1="0" x2="0.275195" y2="450.928" gradientUnits="userSpaceOnUse">
<stop offset="0.274492" stop-color="#B063C3" stop-opacity="0"/>
<stop offset="0.639592" stop-color="#B063C3"/>
<stop offset="1" stop-color="#B063C3" stop-opacity="0"/>
</linearGradient>
<linearGradient id="paint22_linear_7173_65837" x1="788.65" y1="149.322" x2="788.65" y2="600.25" gradientUnits="userSpaceOnUse">
<stop offset="0.31182" stop-color="#63BDC3" stop-opacity="0"/>
<stop offset="0.681076" stop-color="#63BDC3"/>
<stop offset="1" stop-color="#63BDC3" stop-opacity="0"/>
</linearGradient>
<linearGradient id="paint23_linear_7173_65837" x1="836.533" y1="149.322" x2="836.533" y2="600.25" gradientUnits="userSpaceOnUse">
<stop stop-color="#63BDC3" stop-opacity="0"/>
<stop offset="0.130208" stop-color="#63BDC3"/>
<stop offset="1" stop-color="#63BDC3" stop-opacity="0"/>
</linearGradient>
<linearGradient id="paint24_linear_7173_65837" x1="996.148" y1="149.322" x2="996.148" y2="600.25" gradientUnits="userSpaceOnUse">
<stop stop-color="#63BDC3" stop-opacity="0"/>
<stop offset="0.515626" stop-color="#63BDC3"/>
<stop offset="1" stop-color="#63BDC3" stop-opacity="0"/>
</linearGradient>
<clipPath id="clip0_7173_65837">
<rect width="1200" height="600" fill="white"/>
</clipPath>
</defs>
</svg>
