<svg width="1200" height="600" viewBox="0 0 1200 600" fill="none" xmlns="http://www.w3.org/2000/svg">
<g clip-path="url(#clip0_7955_77214)">
<rect width="1200" height="600" fill="black"/>
<g opacity="0.2">
<rect width="1089" height="858" transform="translate(-692 -90)" fill="url(#paint0_radial_7955_77214)" fill-opacity="0.4"/>
<rect width="1089" height="858" transform="translate(-692 -90)" fill="url(#paint1_radial_7955_77214)" fill-opacity="0.4"/>
<rect width="1089" height="858" transform="translate(-692 -90)" fill="url(#paint2_radial_7955_77214)" fill-opacity="0.4"/>
<rect width="1089" height="858" transform="translate(-692 -90)" fill="url(#paint3_radial_7955_77214)" fill-opacity="0.4"/>
<rect width="1089" height="858" transform="translate(-692 -90)" fill="url(#paint4_radial_7955_77214)" fill-opacity="0.4"/>
</g>
<g opacity="0.2">
<rect width="1073" height="846" transform="translate(401 301)" fill="url(#paint5_radial_7955_77214)" fill-opacity="0.4"/>
<rect width="1073" height="846" transform="translate(401 301)" fill="url(#paint6_radial_7955_77214)" fill-opacity="0.4"/>
<rect width="1073" height="846" transform="translate(401 301)" fill="url(#paint7_radial_7955_77214)" fill-opacity="0.4"/>
<rect width="1073" height="846" transform="translate(401 301)" fill="url(#paint8_radial_7955_77214)" fill-opacity="0.4"/>
<rect width="1073" height="846" transform="translate(401 301)" fill="url(#paint9_radial_7955_77214)" fill-opacity="0.4"/>
</g>
<g opacity="0.5">
<rect width="1459.29" height="1150.1" transform="translate(-130 -592)" fill="url(#paint10_radial_7955_77214)" fill-opacity="0.4"/>
<rect width="1459.29" height="1150.1" transform="translate(-130 -592)" fill="url(#paint11_radial_7955_77214)" fill-opacity="0.4"/>
<rect width="1459.29" height="1150.1" transform="translate(-130 -592)" fill="url(#paint12_radial_7955_77214)" fill-opacity="0.4"/>
<rect width="1459.29" height="1150.1" transform="translate(-130 -592)" fill="url(#paint13_radial_7955_77214)" fill-opacity="0.4"/>
<rect width="1459.29" height="1150.1" transform="translate(-130 -592)" fill="url(#paint14_radial_7955_77214)" fill-opacity="0.4"/>
</g>
<g opacity="0.5">
<rect x="1066.87" y="453.955" width="0.501051" height="780.452" transform="rotate(90 1066.87 453.955)" fill="url(#paint15_linear_7955_77214)" fill-opacity="0.56"/>
<rect x="1200" y="276.096" width="0.501051" height="780.452" transform="rotate(90 1200 276.096)" fill="url(#paint16_linear_7955_77214)" fill-opacity="0.56"/>
<rect x="1066.87" y="584.723" width="0.501051" height="780.452" transform="rotate(90 1066.87 584.723)" fill="#8395BC" fill-opacity="0.1"/>
<rect x="1066.87" y="526.604" width="0.501051" height="780.452" transform="rotate(90 1066.87 526.604)" fill="url(#paint17_linear_7955_77214)" fill-opacity="0.48"/>
<rect x="1066.87" y="570.193" width="0.501051" height="780.452" transform="rotate(90 1066.87 570.193)" fill="#8395BC" fill-opacity="0.1"/>
<rect x="1066.87" y="352.246" width="0.501051" height="780.452" transform="rotate(90 1066.87 352.246)" fill="url(#paint18_linear_7955_77214)" fill-opacity="0.48"/>
<rect x="1066.87" y="420.824" width="0.501051" height="780.452" transform="rotate(90 1066.87 420.824)" fill="#8395BC" fill-opacity="0.1"/>
<rect x="1066.87" y="235.256" width="0.501051" height="780.452" transform="rotate(90 1066.87 235.256)" fill="#8395BC" fill-opacity="0.1"/>
<rect x="1066.87" y="489.406" width="0.501051" height="780.452" transform="rotate(90 1066.87 489.406)" fill="#8395BC" fill-opacity="0.1"/>
<rect x="780.445" y="194.91" width="0.501051" height="780.452" transform="rotate(90 780.445 194.91)" fill="url(#paint19_linear_7955_77214)" fill-opacity="0.48"/>
<rect x="571.199" y="113.418" width="0.550389" height="450.928" fill="#8395BC" fill-opacity="0.1"/>
<rect x="737.148" y="113.418" width="0.550389" height="450.928" fill="#8395BC" fill-opacity="0.1"/>
<rect x="293.574" y="149.322" width="0.550389" height="450.928" fill="#8395BC" fill-opacity="0.1"/>
<rect x="309.533" y="149.32" width="0.550389" height="450.928" fill="#8395BC" fill-opacity="0.1"/>
<rect x="325.498" y="149.32" width="0.550389" height="450.928" fill="#8395BC" fill-opacity="0.1"/>
<rect width="0.550389" height="450.928" transform="matrix(1 0 0 -1 396.887 600.252)" fill="url(#paint20_linear_7955_77214)" fill-opacity="0.48"/>
<rect width="0.550389" height="450.928" transform="matrix(1 0 0 -1 461.98 600.252)" fill="url(#paint21_linear_7955_77214)" fill-opacity="0.56"/>
<rect x="788.375" y="149.322" width="0.550389" height="450.928" fill="url(#paint22_linear_7955_77214)" fill-opacity="0.48"/>
<rect x="836.258" y="149.322" width="0.550389" height="450.928" fill="url(#paint23_linear_7955_77214)" fill-opacity="0.44"/>
<rect x="995.873" y="149.322" width="0.550389" height="450.928" fill="url(#paint24_linear_7955_77214)" fill-opacity="0.48"/>
<rect x="1027.79" y="149.32" width="0.550389" height="450.928" fill="#8395BC" fill-opacity="0.1"/>
<rect x="1043.75" y="149.32" width="0.550389" height="450.928" fill="#8395BC" fill-opacity="0.1"/>
<rect x="1059.71" y="149.32" width="0.550389" height="450.928" fill="#8395BC" fill-opacity="0.1"/>
</g>
<path d="M102.236 269.307C97.66 269.307 93.578 268.345 89.99 266.421C86.402 264.497 83.568 261.871 81.488 258.543C79.46 255.163 78.446 251.341 78.446 247.077V210.261H90.536V246.297C90.536 248.585 91.03 250.665 92.018 252.537C93.058 254.357 94.462 255.787 96.23 256.827C97.998 257.867 100 258.387 102.236 258.387C104.524 258.387 106.526 257.867 108.242 256.827C110.01 255.787 111.388 254.357 112.376 252.537C113.416 250.665 113.936 248.585 113.936 246.297V210.261H126.026V247.077C126.026 251.341 124.986 255.163 122.906 258.543C120.878 261.871 118.07 264.497 114.482 266.421C110.894 268.345 106.812 269.307 102.236 269.307ZM134.733 268.371V225.783H145.653V234.207L145.029 232.335C146.017 229.787 147.603 227.915 149.787 226.719C152.023 225.471 154.623 224.847 157.587 224.847C160.811 224.847 163.619 225.523 166.011 226.875C168.455 228.227 170.353 230.125 171.705 232.569C173.057 234.961 173.733 237.769 173.733 240.993V268.371H162.033V243.489C162.033 241.825 161.695 240.395 161.019 239.199C160.395 238.003 159.485 237.067 158.289 236.391C157.145 235.715 155.793 235.377 154.233 235.377C152.725 235.377 151.373 235.715 150.177 236.391C148.981 237.067 148.045 238.003 147.369 239.199C146.745 240.395 146.433 241.825 146.433 243.489V268.371H134.733ZM181.427 268.371V225.783H193.127V268.371H181.427ZM181.427 221.961V210.261H193.127V221.961H181.427ZM215.026 268.371L198.256 225.783H210.892L222.514 257.997H217.678L229.3 225.783H241.936L225.166 268.371H215.026ZM266.839 269.307C262.315 269.307 258.389 268.319 255.061 266.343C251.733 264.315 249.159 261.611 247.339 258.231C245.519 254.851 244.609 251.107 244.609 246.999C244.609 242.735 245.545 238.939 247.417 235.611C249.341 232.283 251.915 229.657 255.139 227.733C258.363 225.809 262.003 224.847 266.059 224.847C269.439 224.847 272.429 225.393 275.029 226.485C277.629 227.525 279.813 229.007 281.581 230.931C283.401 232.855 284.779 235.091 285.715 237.639C286.651 240.135 287.119 242.865 287.119 245.829C287.119 246.661 287.067 247.493 286.963 248.325C286.911 249.105 286.781 249.781 286.573 250.353H254.671V241.773H279.943L274.405 245.829C274.925 243.593 274.899 241.617 274.327 239.901C273.755 238.133 272.741 236.755 271.285 235.767C269.881 234.727 268.139 234.207 266.059 234.207C264.031 234.207 262.289 234.701 260.833 235.689C259.377 236.677 258.285 238.133 257.557 240.057C256.829 241.981 256.543 244.321 256.699 247.077C256.491 249.469 256.777 251.575 257.557 253.395C258.337 255.215 259.533 256.645 261.145 257.685C262.757 258.673 264.707 259.167 266.995 259.167C269.075 259.167 270.843 258.751 272.299 257.919C273.807 257.087 274.977 255.943 275.809 254.487L285.169 258.933C284.337 261.013 283.011 262.833 281.191 264.393C279.423 265.953 277.317 267.175 274.873 268.059C272.429 268.891 269.751 269.307 266.839 269.307ZM294.009 268.371V225.783H304.929V236.001L304.149 234.519C305.085 230.931 306.619 228.513 308.751 227.265C310.935 225.965 313.509 225.315 316.473 225.315H318.969V235.455H315.303C312.443 235.455 310.129 236.339 308.361 238.107C306.593 239.823 305.709 242.267 305.709 245.439V268.371H294.009ZM340.789 269.307C336.109 269.307 332.027 268.215 328.543 266.031C325.111 263.795 322.771 260.805 321.523 257.061L330.103 253.005C331.195 255.293 332.677 257.087 334.549 258.387C336.421 259.687 338.501 260.337 340.789 260.337C342.453 260.337 343.727 259.999 344.611 259.323C345.495 258.647 345.937 257.711 345.937 256.515C345.937 255.891 345.781 255.371 345.469 254.955C345.157 254.487 344.689 254.071 344.065 253.707C343.441 253.343 342.661 253.031 341.725 252.771L334.471 250.743C330.987 249.755 328.309 248.169 326.437 245.985C324.565 243.749 323.629 241.123 323.629 238.107C323.629 235.455 324.305 233.141 325.657 231.165C327.009 229.189 328.907 227.655 331.351 226.563C333.795 225.419 336.603 224.847 339.775 224.847C343.935 224.847 347.575 225.835 350.695 227.811C353.867 229.735 356.103 232.465 357.403 236.001L348.745 240.057C348.121 238.289 346.977 236.885 345.313 235.845C343.701 234.753 341.855 234.207 339.775 234.207C338.267 234.207 337.071 234.519 336.187 235.143C335.355 235.767 334.939 236.625 334.939 237.717C334.939 238.289 335.095 238.809 335.407 239.277C335.719 239.745 336.213 240.161 336.889 240.525C337.617 240.889 338.501 241.227 339.541 241.539L346.327 243.567C349.863 244.607 352.567 246.193 354.439 248.325C356.311 250.405 357.247 252.979 357.247 256.047C357.247 258.699 356.545 261.013 355.141 262.989C353.789 264.965 351.891 266.525 349.447 267.669C347.003 268.761 344.117 269.307 340.789 269.307ZM377.421 269.307C374.353 269.307 371.701 268.813 369.465 267.825C367.229 266.837 365.513 265.433 364.317 263.613C363.121 261.741 362.523 259.531 362.523 256.983C362.523 254.591 363.069 252.485 364.161 250.665C365.253 248.793 366.917 247.233 369.153 245.985C371.441 244.737 374.275 243.853 377.655 243.333L390.681 241.227V249.807L379.761 251.757C378.097 252.069 376.823 252.615 375.939 253.395C375.055 254.123 374.613 255.189 374.613 256.593C374.613 257.893 375.107 258.907 376.095 259.635C377.083 260.363 378.305 260.727 379.761 260.727C381.685 260.727 383.375 260.311 384.831 259.479C386.287 258.647 387.405 257.529 388.185 256.125C389.017 254.669 389.433 253.083 389.433 251.367V240.291C389.433 238.679 388.783 237.327 387.483 236.235C386.235 235.143 384.519 234.597 382.335 234.597C380.255 234.597 378.409 235.169 376.797 236.313C375.237 237.457 374.093 238.965 373.365 240.837L364.005 236.391C364.837 233.999 366.163 231.945 367.983 230.229C369.803 228.513 371.987 227.187 374.535 226.251C377.083 225.315 379.865 224.847 382.881 224.847C386.469 224.847 389.641 225.497 392.397 226.797C395.153 228.097 397.285 229.917 398.793 232.257C400.353 234.545 401.133 237.223 401.133 240.291V268.371H390.213V261.507L392.865 261.039C391.617 262.911 390.239 264.471 388.731 265.719C387.223 266.915 385.533 267.799 383.661 268.371C381.789 268.995 379.709 269.307 377.421 269.307ZM409.714 268.371V209.325H421.414V268.371H409.714ZM457.173 269.307C454.105 269.307 451.453 268.813 449.217 267.825C446.981 266.837 445.265 265.433 444.069 263.613C442.873 261.741 442.275 259.531 442.275 256.983C442.275 254.591 442.821 252.485 443.913 250.665C445.005 248.793 446.669 247.233 448.905 245.985C451.193 244.737 454.027 243.853 457.407 243.333L470.433 241.227V249.807L459.513 251.757C457.849 252.069 456.575 252.615 455.691 253.395C454.807 254.123 454.365 255.189 454.365 256.593C454.365 257.893 454.859 258.907 455.847 259.635C456.835 260.363 458.057 260.727 459.513 260.727C461.437 260.727 463.127 260.311 464.583 259.479C466.039 258.647 467.157 257.529 467.937 256.125C468.769 254.669 469.185 253.083 469.185 251.367V240.291C469.185 238.679 468.535 237.327 467.235 236.235C465.987 235.143 464.271 234.597 462.087 234.597C460.007 234.597 458.161 235.169 456.549 236.313C454.989 237.457 453.845 238.965 453.117 240.837L443.757 236.391C444.589 233.999 445.915 231.945 447.735 230.229C449.555 228.513 451.739 227.187 454.287 226.251C456.835 225.315 459.617 224.847 462.633 224.847C466.221 224.847 469.393 225.497 472.149 226.797C474.905 228.097 477.037 229.917 478.545 232.257C480.105 234.545 480.885 237.223 480.885 240.291V268.371H469.965V261.507L472.617 261.039C471.369 262.911 469.991 264.471 468.483 265.719C466.975 266.915 465.285 267.799 463.413 268.371C461.541 268.995 459.461 269.307 457.173 269.307ZM489.466 268.371V225.783H500.386V234.207L499.762 232.335C500.75 229.787 502.336 227.915 504.52 226.719C506.756 225.471 509.356 224.847 512.32 224.847C515.544 224.847 518.352 225.523 520.744 226.875C523.188 228.227 525.086 230.125 526.438 232.569C527.79 234.961 528.466 237.769 528.466 240.993V268.371H516.766V243.489C516.766 241.825 516.428 240.395 515.752 239.199C515.128 238.003 514.218 237.067 513.022 236.391C511.878 235.715 510.526 235.377 508.966 235.377C507.458 235.377 506.106 235.715 504.91 236.391C503.714 237.067 502.778 238.003 502.102 239.199C501.478 240.395 501.166 241.825 501.166 243.489V268.371H489.466ZM556.205 269.307C552.045 269.307 548.327 268.319 545.051 266.343C541.775 264.367 539.175 261.689 537.251 258.309C535.379 254.929 534.443 251.185 534.443 247.077C534.443 242.917 535.405 239.173 537.329 235.845C539.253 232.465 541.853 229.787 545.129 227.811C548.405 225.835 552.071 224.847 556.127 224.847C559.247 224.847 562.003 225.445 564.395 226.641C566.839 227.785 568.763 229.423 570.167 231.555L568.373 233.895V209.325H580.073V268.371H569.153V260.571L570.245 262.989C568.789 265.069 566.813 266.655 564.317 267.747C561.821 268.787 559.117 269.307 556.205 269.307ZM557.609 258.777C559.741 258.777 561.613 258.283 563.225 257.295C564.837 256.307 566.085 254.929 566.969 253.161C567.905 251.393 568.373 249.365 568.373 247.077C568.373 244.789 567.905 242.761 566.969 240.993C566.085 239.225 564.837 237.847 563.225 236.859C561.613 235.871 559.741 235.377 557.609 235.377C555.477 235.377 553.553 235.897 551.837 236.937C550.173 237.925 548.873 239.303 547.937 241.071C547.001 242.787 546.533 244.789 546.533 247.077C546.533 249.365 547.001 251.393 547.937 253.161C548.873 254.929 550.173 256.307 551.837 257.295C553.553 258.283 555.477 258.777 557.609 258.777ZM603.515 268.371V210.261H625.823C629.827 210.261 633.363 210.963 636.431 212.367C639.551 213.771 641.995 215.851 643.763 218.607C645.531 221.363 646.415 224.769 646.415 228.825C646.415 232.777 645.505 236.131 643.685 238.887C641.917 241.643 639.473 243.749 636.353 245.205C633.285 246.609 629.775 247.311 625.823 247.311H615.605V268.371H603.515ZM615.605 236.781H625.901C627.617 236.781 629.099 236.443 630.347 235.767C631.595 235.091 632.557 234.155 633.233 232.959C633.961 231.763 634.325 230.385 634.325 228.825C634.325 227.213 633.961 225.809 633.233 224.613C632.557 223.417 631.595 222.481 630.347 221.805C629.099 221.129 627.617 220.791 625.901 220.791H615.605V236.781ZM672.302 269.307C667.778 269.307 663.852 268.319 660.524 266.343C657.196 264.315 654.622 261.611 652.802 258.231C650.982 254.851 650.072 251.107 650.072 246.999C650.072 242.735 651.008 238.939 652.88 235.611C654.804 232.283 657.378 229.657 660.602 227.733C663.826 225.809 667.466 224.847 671.522 224.847C674.902 224.847 677.892 225.393 680.492 226.485C683.092 227.525 685.276 229.007 687.044 230.931C688.864 232.855 690.242 235.091 691.178 237.639C692.114 240.135 692.582 242.865 692.582 245.829C692.582 246.661 692.53 247.493 692.426 248.325C692.374 249.105 692.244 249.781 692.036 250.353H660.134V241.773H685.406L679.868 245.829C680.388 243.593 680.362 241.617 679.79 239.901C679.218 238.133 678.204 236.755 676.748 235.767C675.344 234.727 673.602 234.207 671.522 234.207C669.494 234.207 667.752 234.701 666.296 235.689C664.84 236.677 663.748 238.133 663.02 240.057C662.292 241.981 662.006 244.321 662.162 247.077C661.954 249.469 662.24 251.575 663.02 253.395C663.8 255.215 664.996 256.645 666.608 257.685C668.22 258.673 670.17 259.167 672.458 259.167C674.538 259.167 676.306 258.751 677.762 257.919C679.27 257.087 680.44 255.943 681.272 254.487L690.632 258.933C689.8 261.013 688.474 262.833 686.654 264.393C684.886 265.953 682.78 267.175 680.336 268.059C677.892 268.891 675.214 269.307 672.302 269.307ZM699.472 268.371V225.783H710.392V236.001L709.612 234.519C710.548 230.931 712.082 228.513 714.214 227.265C716.398 225.965 718.972 225.315 721.936 225.315H724.432V235.455H720.766C717.906 235.455 715.592 236.339 713.824 238.107C712.056 239.823 711.172 242.267 711.172 245.439V268.371H699.472ZM734.708 268.371V235.923H727.532V225.783H734.708V225.159C734.708 221.779 735.358 218.919 736.658 216.579C738.01 214.239 739.934 212.445 742.43 211.197C744.926 209.949 747.942 209.325 751.478 209.325C752.154 209.325 752.882 209.377 753.662 209.481C754.442 209.533 755.092 209.611 755.612 209.715V219.699C755.092 219.595 754.624 219.543 754.208 219.543C753.844 219.491 753.454 219.465 753.038 219.465C750.854 219.465 749.19 219.959 748.046 220.947C746.954 221.883 746.408 223.287 746.408 225.159V225.783H755.534V235.923H746.408V268.371H734.708ZM781.852 269.307C777.64 269.307 773.792 268.345 770.308 266.421C766.876 264.497 764.12 261.871 762.04 258.543C760.012 255.163 758.998 251.341 758.998 247.077C758.998 242.761 760.012 238.939 762.04 235.611C764.12 232.283 766.876 229.657 770.308 227.733C773.792 225.809 777.64 224.847 781.852 224.847C786.064 224.847 789.886 225.809 793.318 227.733C796.75 229.657 799.48 232.283 801.508 235.611C803.588 238.939 804.628 242.761 804.628 247.077C804.628 251.341 803.588 255.163 801.508 258.543C799.48 261.871 796.75 264.497 793.318 266.421C789.886 268.345 786.064 269.307 781.852 269.307ZM781.852 258.777C783.984 258.777 785.83 258.283 787.39 257.295C789.002 256.307 790.25 254.929 791.134 253.161C792.07 251.393 792.538 249.365 792.538 247.077C792.538 244.789 792.07 242.787 791.134 241.071C790.25 239.303 789.002 237.925 787.39 236.937C785.83 235.897 783.984 235.377 781.852 235.377C779.72 235.377 777.848 235.897 776.236 236.937C774.624 237.925 773.35 239.303 772.414 241.071C771.53 242.787 771.088 244.789 771.088 247.077C771.088 249.365 771.53 251.393 772.414 253.161C773.35 254.929 774.624 256.307 776.236 257.295C777.848 258.283 779.72 258.777 781.852 258.777ZM811.52 268.371V225.783H822.44V236.001L821.66 234.519C822.596 230.931 824.13 228.513 826.262 227.265C828.446 225.965 831.02 225.315 833.984 225.315H836.48V235.455H832.814C829.954 235.455 827.64 236.339 825.872 238.107C824.104 239.823 823.22 242.267 823.22 245.439V268.371H811.52ZM841.608 268.371V225.783H852.528V236.157L851.358 234.441C851.982 231.165 853.49 228.747 855.882 227.187C858.274 225.627 861.134 224.847 864.462 224.847C867.998 224.847 871.092 225.757 873.744 227.577C876.448 229.345 878.138 231.737 878.814 234.753L875.46 235.065C876.864 231.581 878.866 229.007 881.466 227.343C884.066 225.679 887.108 224.847 890.592 224.847C893.66 224.847 896.364 225.523 898.704 226.875C901.096 228.227 902.968 230.125 904.32 232.569C905.672 234.961 906.348 237.769 906.348 240.993V268.371H894.648V243.489C894.648 241.825 894.336 240.395 893.712 239.199C893.14 238.003 892.308 237.067 891.216 236.391C890.124 235.715 888.798 235.377 887.238 235.377C885.73 235.377 884.404 235.715 883.26 236.391C882.168 237.067 881.31 238.003 880.686 239.199C880.114 240.395 879.828 241.825 879.828 243.489V268.371H868.128V243.489C868.128 241.825 867.816 240.395 867.192 239.199C866.62 238.003 865.788 237.067 864.696 236.391C863.604 235.715 862.278 235.377 860.718 235.377C859.21 235.377 857.884 235.715 856.74 236.391C855.648 237.067 854.79 238.003 854.166 239.199C853.594 240.395 853.308 241.825 853.308 243.489V268.371H841.608ZM927.23 269.307C924.162 269.307 921.51 268.813 919.274 267.825C917.038 266.837 915.322 265.433 914.126 263.613C912.93 261.741 912.332 259.531 912.332 256.983C912.332 254.591 912.878 252.485 913.97 250.665C915.062 248.793 916.726 247.233 918.962 245.985C921.25 244.737 924.084 243.853 927.464 243.333L940.49 241.227V249.807L929.57 251.757C927.906 252.069 926.632 252.615 925.748 253.395C924.864 254.123 924.422 255.189 924.422 256.593C924.422 257.893 924.916 258.907 925.904 259.635C926.892 260.363 928.114 260.727 929.57 260.727C931.494 260.727 933.184 260.311 934.64 259.479C936.096 258.647 937.214 257.529 937.994 256.125C938.826 254.669 939.242 253.083 939.242 251.367V240.291C939.242 238.679 938.592 237.327 937.292 236.235C936.044 235.143 934.328 234.597 932.144 234.597C930.064 234.597 928.218 235.169 926.606 236.313C925.046 237.457 923.902 238.965 923.174 240.837L913.814 236.391C914.646 233.999 915.972 231.945 917.792 230.229C919.612 228.513 921.796 227.187 924.344 226.251C926.892 225.315 929.674 224.847 932.69 224.847C936.278 224.847 939.45 225.497 942.206 226.797C944.962 228.097 947.094 229.917 948.602 232.257C950.162 234.545 950.942 237.223 950.942 240.291V268.371H940.022V261.507L942.674 261.039C941.426 262.911 940.048 264.471 938.54 265.719C937.032 266.915 935.342 267.799 933.47 268.371C931.598 268.995 929.518 269.307 927.23 269.307ZM959.522 268.371V225.783H970.442V234.207L969.818 232.335C970.806 229.787 972.392 227.915 974.576 226.719C976.812 225.471 979.412 224.847 982.376 224.847C985.6 224.847 988.408 225.523 990.8 226.875C993.244 228.227 995.142 230.125 996.494 232.569C997.846 234.961 998.522 237.769 998.522 240.993V268.371H986.822V243.489C986.822 241.825 986.484 240.395 985.808 239.199C985.184 238.003 984.274 237.067 983.078 236.391C981.934 235.715 980.582 235.377 979.022 235.377C977.514 235.377 976.162 235.715 974.966 236.391C973.77 237.067 972.834 238.003 972.158 239.199C971.534 240.395 971.222 241.825 971.222 243.489V268.371H959.522ZM1026.73 268.839C1021.58 268.839 1017.58 267.461 1014.72 264.705C1011.91 261.897 1010.51 257.997 1010.51 253.005V235.923H1003.33V225.783H1003.72C1005.9 225.783 1007.57 225.237 1008.71 224.145C1009.91 223.053 1010.51 221.415 1010.51 219.231V216.111H1022.21V225.783H1032.19V235.923H1022.21V252.225C1022.21 253.681 1022.47 254.903 1022.99 255.891C1023.51 256.827 1024.31 257.529 1025.4 257.997C1026.5 258.465 1027.85 258.699 1029.46 258.699C1029.82 258.699 1030.24 258.673 1030.71 258.621C1031.18 258.569 1031.67 258.517 1032.19 258.465V268.371C1031.41 268.475 1030.53 268.579 1029.54 268.683C1028.55 268.787 1027.61 268.839 1026.73 268.839ZM100.286 376.307C96.646 376.307 93.214 375.657 89.99 374.357C86.818 373.005 84.062 371.107 81.722 368.663C79.434 366.219 77.718 363.333 76.574 360.005L86.48 355.559C87.936 358.731 89.938 361.227 92.486 363.047C95.086 364.867 97.946 365.777 101.066 365.777C102.73 365.777 104.16 365.517 105.356 364.997C106.552 364.477 107.488 363.775 108.164 362.891C108.84 361.955 109.178 360.863 109.178 359.615C109.178 358.263 108.762 357.119 107.93 356.183C107.098 355.195 105.798 354.415 104.03 353.843L92.642 350.099C88.014 348.591 84.53 346.459 82.19 343.703C79.85 340.895 78.68 337.541 78.68 333.641C78.68 330.209 79.512 327.193 81.176 324.593C82.892 321.993 85.258 319.965 88.274 318.509C91.342 317.053 94.852 316.325 98.804 316.325C102.288 316.325 105.512 316.923 108.476 318.119C111.44 319.315 113.988 321.005 116.12 323.189C118.304 325.373 119.942 327.999 121.034 331.067L111.206 335.513C110.114 332.809 108.476 330.703 106.292 329.195C104.108 327.635 101.612 326.855 98.804 326.855C97.192 326.855 95.762 327.115 94.514 327.635C93.266 328.155 92.304 328.909 91.628 329.897C90.952 330.833 90.614 331.925 90.614 333.173C90.614 334.525 91.056 335.721 91.94 336.761C92.824 337.749 94.15 338.529 95.918 339.101L107.072 342.689C111.752 344.197 115.236 346.303 117.524 349.007C119.864 351.711 121.034 355.013 121.034 358.913C121.034 362.293 120.15 365.309 118.382 367.961C116.614 370.561 114.17 372.615 111.05 374.123C107.982 375.579 104.394 376.307 100.286 376.307ZM149.306 375.839C144.158 375.839 140.154 374.461 137.294 371.705C134.486 368.897 133.082 364.997 133.082 360.005V342.923H125.906V332.783H126.296C128.48 332.783 130.144 332.237 131.288 331.145C132.484 330.053 133.082 328.415 133.082 326.231V323.111H144.782V332.783H154.766V342.923H144.782V359.225C144.782 360.681 145.042 361.903 145.562 362.891C146.082 363.827 146.888 364.529 147.98 364.997C149.072 365.465 150.424 365.699 152.036 365.699C152.4 365.699 152.816 365.673 153.284 365.621C153.752 365.569 154.246 365.517 154.766 365.465V375.371C153.986 375.475 153.102 375.579 152.114 375.683C151.126 375.787 150.19 375.839 149.306 375.839ZM168.252 392.687C167.004 392.687 165.782 392.583 164.586 392.375C163.442 392.167 162.428 391.829 161.544 391.361V381.767C162.272 381.975 163.13 382.157 164.118 382.313C165.106 382.469 166.016 382.547 166.848 382.547C169.136 382.547 170.774 382.001 171.762 380.909C172.75 379.817 173.556 378.569 174.18 377.165L177.066 370.535L176.91 380.285L158.19 332.783H170.748L183.15 366.557H178.47L190.872 332.783H203.43L185.178 379.349C184.034 382.313 182.63 384.783 180.966 386.759C179.302 388.735 177.404 390.217 175.272 391.205C173.192 392.193 170.852 392.687 168.252 392.687ZM208.544 375.371V316.325H220.244V375.371H208.544ZM228.806 375.371V332.783H240.506V375.371H228.806ZM228.806 328.961V317.261H240.506V328.961H228.806ZM249.067 375.371V332.783H259.987V341.207L259.363 339.335C260.351 336.787 261.937 334.915 264.121 333.719C266.357 332.471 268.957 331.847 271.921 331.847C275.145 331.847 277.953 332.523 280.345 333.875C282.789 335.227 284.687 337.125 286.039 339.569C287.391 341.961 288.067 344.769 288.067 347.993V375.371H276.367V350.489C276.367 348.825 276.029 347.395 275.353 346.199C274.729 345.003 273.819 344.067 272.623 343.391C271.479 342.715 270.127 342.377 268.567 342.377C267.059 342.377 265.707 342.715 264.511 343.391C263.315 344.067 262.379 345.003 261.703 346.199C261.079 347.395 260.767 348.825 260.767 350.489V375.371H249.067ZM316.665 392.531C313.389 392.531 310.347 391.985 307.539 390.893C304.731 389.801 302.313 388.267 300.285 386.291C298.309 384.367 296.879 382.079 295.995 379.427L306.837 375.605C307.409 377.581 308.579 379.141 310.347 380.285C312.115 381.429 314.221 382.001 316.665 382.001C318.589 382.001 320.253 381.637 321.657 380.909C323.061 380.233 324.127 379.219 324.855 377.867C325.635 376.515 326.025 374.929 326.025 373.109V363.359L328.287 366.167C326.831 368.559 324.959 370.353 322.671 371.549C320.383 372.693 317.705 373.265 314.637 373.265C310.685 373.265 307.149 372.381 304.029 370.613C300.909 368.793 298.465 366.323 296.697 363.203C294.929 360.031 294.045 356.443 294.045 352.439C294.045 348.435 294.929 344.899 296.697 341.831C298.465 338.711 300.883 336.267 303.951 334.499C307.019 332.731 310.503 331.847 314.403 331.847C317.471 331.847 320.149 332.471 322.437 333.719C324.725 334.915 326.675 336.761 328.287 339.257L326.805 342.065V332.783H337.725V373.109C337.725 376.853 336.815 380.181 334.995 383.093C333.175 386.057 330.679 388.371 327.507 390.035C324.387 391.699 320.773 392.531 316.665 392.531ZM316.275 362.657C318.251 362.657 319.967 362.241 321.423 361.409C322.879 360.577 323.997 359.407 324.777 357.899C325.609 356.391 326.025 354.623 326.025 352.595C326.025 350.567 325.609 348.799 324.777 347.291C323.945 345.731 322.801 344.535 321.345 343.703C319.889 342.819 318.199 342.377 316.275 342.377C314.299 342.377 312.531 342.819 310.971 343.703C309.463 344.535 308.267 345.731 307.383 347.291C306.551 348.799 306.135 350.567 306.135 352.595C306.135 354.571 306.551 356.313 307.383 357.821C308.267 359.329 309.463 360.525 310.971 361.409C312.531 362.241 314.299 362.657 316.275 362.657ZM375.228 375.371V317.261H387.318V364.841H411.888V375.371H375.228ZM417.026 375.371V332.783H428.726V375.371H417.026ZM417.026 328.961V317.261H428.726V328.961H417.026ZM461.156 376.307C458.244 376.307 455.54 375.787 453.044 374.747C450.6 373.655 448.624 372.069 447.116 369.989L448.208 367.571V375.371H437.288V316.325H448.988V340.895L447.194 338.555C448.598 336.423 450.496 334.785 452.888 333.641C455.332 332.445 458.114 331.847 461.234 331.847C465.29 331.847 468.956 332.835 472.232 334.811C475.508 336.787 478.108 339.465 480.032 342.845C481.956 346.173 482.918 349.917 482.918 354.077C482.918 358.185 481.956 361.929 480.032 365.309C478.16 368.689 475.586 371.367 472.31 373.343C469.034 375.319 465.316 376.307 461.156 376.307ZM459.752 365.777C461.936 365.777 463.86 365.283 465.524 364.295C467.188 363.307 468.488 361.929 469.424 360.161C470.36 358.393 470.828 356.365 470.828 354.077C470.828 351.789 470.36 349.787 469.424 348.071C468.488 346.303 467.188 344.925 465.524 343.937C463.86 342.897 461.936 342.377 459.752 342.377C457.672 342.377 455.8 342.871 454.136 343.859C452.524 344.847 451.25 346.225 450.314 347.993C449.43 349.761 448.988 351.789 448.988 354.077C448.988 356.365 449.43 358.393 450.314 360.161C451.25 361.929 452.524 363.307 454.136 364.295C455.8 365.283 457.672 365.777 459.752 365.777ZM489.77 375.371V332.783H500.69V343.001L499.91 341.519C500.846 337.931 502.38 335.513 504.512 334.265C506.696 332.965 509.27 332.315 512.234 332.315H514.73V342.455H511.064C508.204 342.455 505.89 343.339 504.122 345.107C502.354 346.823 501.47 349.267 501.47 352.439V375.371H489.77ZM533.04 376.307C529.972 376.307 527.32 375.813 525.084 374.825C522.848 373.837 521.132 372.433 519.936 370.613C518.74 368.741 518.142 366.531 518.142 363.983C518.142 361.591 518.688 359.485 519.78 357.665C520.872 355.793 522.536 354.233 524.772 352.985C527.06 351.737 529.894 350.853 533.274 350.333L546.3 348.227V356.807L535.38 358.757C533.716 359.069 532.442 359.615 531.558 360.395C530.674 361.123 530.232 362.189 530.232 363.593C530.232 364.893 530.726 365.907 531.714 366.635C532.702 367.363 533.924 367.727 535.38 367.727C537.304 367.727 538.994 367.311 540.45 366.479C541.906 365.647 543.024 364.529 543.804 363.125C544.636 361.669 545.052 360.083 545.052 358.367V347.291C545.052 345.679 544.402 344.327 543.102 343.235C541.854 342.143 540.138 341.597 537.954 341.597C535.874 341.597 534.028 342.169 532.416 343.313C530.856 344.457 529.712 345.965 528.984 347.837L519.624 343.391C520.456 340.999 521.782 338.945 523.602 337.229C525.422 335.513 527.606 334.187 530.154 333.251C532.702 332.315 535.484 331.847 538.5 331.847C542.088 331.847 545.26 332.497 548.016 333.797C550.772 335.097 552.904 336.917 554.412 339.257C555.972 341.545 556.752 344.223 556.752 347.291V375.371H545.832V368.507L548.484 368.039C547.236 369.911 545.858 371.471 544.35 372.719C542.842 373.915 541.152 374.799 539.28 375.371C537.408 375.995 535.328 376.307 533.04 376.307ZM565.333 375.371V332.783H576.253V343.001L575.473 341.519C576.409 337.931 577.943 335.513 580.075 334.265C582.259 332.965 584.833 332.315 587.797 332.315H590.293V342.455H586.627C583.767 342.455 581.453 343.339 579.685 345.107C577.917 346.823 577.033 349.267 577.033 352.439V375.371H565.333ZM602.051 392.687C600.803 392.687 599.581 392.583 598.385 392.375C597.241 392.167 596.227 391.829 595.343 391.361V381.767C596.071 381.975 596.929 382.157 597.917 382.313C598.905 382.469 599.815 382.547 600.647 382.547C602.935 382.547 604.573 382.001 605.561 380.909C606.549 379.817 607.355 378.569 607.979 377.165L610.865 370.535L610.709 380.285L591.989 332.783H604.547L616.949 366.557H612.269L624.671 332.783H637.229L618.977 379.349C617.833 382.313 616.429 384.783 614.765 386.759C613.101 388.735 611.203 390.217 609.071 391.205C606.991 392.193 604.651 392.687 602.051 392.687Z" fill="#FAFAFA"/>
<path d="M77.6754 456.545H83.8011L94.4517 482.551H94.8438L105.494 456.545H111.62V490H106.817V465.791H106.507L96.6406 489.951H92.6548L82.7884 465.775H82.478V490H77.6754V456.545ZM125.868 490.555C124.278 490.555 122.841 490.261 121.556 489.673C120.271 489.074 119.253 488.209 118.501 487.076C117.761 485.943 117.39 484.555 117.39 482.911C117.39 481.495 117.663 480.33 118.207 479.415C118.752 478.5 119.487 477.776 120.412 477.242C121.338 476.709 122.373 476.306 123.516 476.033C124.66 475.761 125.825 475.554 127.012 475.413C128.515 475.238 129.734 475.097 130.671 474.988C131.608 474.868 132.288 474.678 132.713 474.416C133.138 474.155 133.35 473.73 133.35 473.142V473.028C133.35 471.601 132.947 470.496 132.141 469.712C131.346 468.928 130.159 468.536 128.58 468.536C126.936 468.536 125.64 468.9 124.692 469.63C123.756 470.349 123.108 471.149 122.748 472.031L118.158 470.986C118.703 469.461 119.498 468.231 120.543 467.294C121.599 466.347 122.814 465.661 124.186 465.236C125.558 464.8 127.001 464.582 128.515 464.582C129.517 464.582 130.578 464.702 131.7 464.942C132.833 465.17 133.889 465.595 134.869 466.216C135.86 466.837 136.671 467.724 137.303 468.879C137.935 470.022 138.251 471.509 138.251 473.338V490H133.481V486.57H133.285C132.969 487.201 132.495 487.822 131.863 488.432C131.232 489.042 130.421 489.548 129.43 489.951C128.439 490.354 127.251 490.555 125.868 490.555ZM126.93 486.635C128.281 486.635 129.435 486.368 130.393 485.835C131.363 485.301 132.098 484.604 132.599 483.744C133.11 482.872 133.366 481.941 133.366 480.95V477.716C133.192 477.89 132.854 478.054 132.354 478.206C131.863 478.348 131.303 478.473 130.671 478.582C130.039 478.68 129.424 478.772 128.825 478.859C128.226 478.936 127.725 479.001 127.322 479.055C126.375 479.175 125.509 479.377 124.725 479.66C123.952 479.943 123.331 480.351 122.863 480.885C122.405 481.408 122.177 482.105 122.177 482.976C122.177 484.185 122.623 485.099 123.516 485.72C124.409 486.33 125.547 486.635 126.93 486.635ZM154.149 490.49C152.123 490.49 150.315 489.973 148.725 488.938C147.146 487.893 145.905 486.406 145.001 484.479C144.108 482.54 143.662 480.215 143.662 477.504C143.662 474.792 144.114 472.472 145.017 470.545C145.932 468.617 147.185 467.142 148.775 466.118C150.364 465.094 152.167 464.582 154.181 464.582C155.739 464.582 156.991 464.844 157.939 465.366C158.897 465.878 159.637 466.477 160.16 467.163C160.694 467.849 161.108 468.454 161.402 468.977H161.696V456.545H166.58V490H161.81V486.096H161.402C161.108 486.629 160.683 487.239 160.127 487.925C159.583 488.612 158.832 489.21 157.873 489.722C156.915 490.234 155.673 490.49 154.149 490.49ZM155.227 486.325C156.632 486.325 157.819 485.954 158.788 485.214C159.768 484.462 160.509 483.422 161.01 482.094C161.521 480.765 161.777 479.219 161.777 477.455C161.777 475.712 161.527 474.187 161.026 472.881C160.525 471.574 159.79 470.556 158.821 469.826C157.851 469.096 156.654 468.732 155.227 468.732C153.757 468.732 152.532 469.113 151.551 469.875C150.571 470.637 149.831 471.677 149.33 472.995C148.84 474.313 148.595 475.799 148.595 477.455C148.595 479.132 148.845 480.64 149.346 481.979C149.847 483.319 150.588 484.381 151.568 485.165C152.559 485.938 153.779 486.325 155.227 486.325ZM184.365 490.506C181.893 490.506 179.764 489.978 177.978 488.922C176.203 487.855 174.831 486.357 173.861 484.43C172.903 482.491 172.424 480.221 172.424 477.618C172.424 475.048 172.903 472.783 173.861 470.822C174.831 468.862 176.181 467.332 177.912 466.232C179.655 465.132 181.691 464.582 184.022 464.582C185.438 464.582 186.81 464.817 188.138 465.285C189.467 465.753 190.659 466.488 191.716 467.49C192.772 468.492 193.605 469.793 194.215 471.394C194.825 472.984 195.13 474.917 195.13 477.193V478.925H175.184V475.266H190.344C190.344 473.981 190.082 472.843 189.559 471.852C189.037 470.85 188.302 470.06 187.354 469.483C186.418 468.906 185.318 468.617 184.055 468.617C182.682 468.617 181.484 468.955 180.461 469.63C179.448 470.294 178.664 471.165 178.108 472.244C177.564 473.311 177.292 474.471 177.292 475.723V478.582C177.292 480.259 177.586 481.685 178.174 482.862C178.773 484.038 179.606 484.936 180.673 485.557C181.74 486.167 182.987 486.472 184.414 486.472C185.34 486.472 186.184 486.341 186.946 486.08C187.708 485.807 188.367 485.404 188.922 484.871C189.478 484.337 189.903 483.678 190.197 482.894L194.819 483.727C194.449 485.089 193.785 486.281 192.827 487.305C191.879 488.317 190.687 489.107 189.249 489.673C187.823 490.229 186.194 490.506 184.365 490.506ZM224.664 464.909V468.83H210.485V464.909H224.664ZM214.373 490V462.001C214.373 460.433 214.716 459.132 215.402 458.097C216.088 457.052 216.997 456.273 218.13 455.761C219.262 455.239 220.493 454.977 221.822 454.977C222.802 454.977 223.64 455.059 224.337 455.222C225.034 455.375 225.551 455.516 225.889 455.647L224.746 459.6C224.517 459.535 224.223 459.459 223.863 459.371C223.504 459.273 223.068 459.224 222.557 459.224C221.37 459.224 220.52 459.518 220.008 460.107C219.507 460.695 219.257 461.544 219.257 462.655V490H214.373ZM239.284 490.506C236.932 490.506 234.879 489.967 233.126 488.889C231.372 487.811 230.011 486.303 229.042 484.364C228.073 482.426 227.588 480.161 227.588 477.569C227.588 474.966 228.073 472.69 229.042 470.741C230.011 468.791 231.372 467.278 233.126 466.2C234.879 465.121 236.932 464.582 239.284 464.582C241.636 464.582 243.689 465.121 245.442 466.2C247.196 467.278 248.557 468.791 249.526 470.741C250.495 472.69 250.98 474.966 250.98 477.569C250.98 480.161 250.495 482.426 249.526 484.364C248.557 486.303 247.196 487.811 245.442 488.889C243.689 489.967 241.636 490.506 239.284 490.506ZM239.3 486.406C240.825 486.406 242.088 486.003 243.09 485.197C244.092 484.392 244.832 483.319 245.312 481.979C245.802 480.64 246.047 479.164 246.047 477.553C246.047 475.952 245.802 474.482 245.312 473.142C244.832 471.792 244.092 470.708 243.09 469.891C242.088 469.075 240.825 468.666 239.3 468.666C237.765 468.666 236.491 469.075 235.478 469.891C234.476 470.708 233.73 471.792 233.24 473.142C232.761 474.482 232.521 475.952 232.521 477.553C232.521 479.164 232.761 480.64 233.24 481.979C233.73 483.319 234.476 484.392 235.478 485.197C236.491 486.003 237.765 486.406 239.3 486.406ZM256.432 490V464.909H261.153V468.895H261.414C261.871 467.545 262.677 466.483 263.832 465.71C264.997 464.925 266.315 464.533 267.785 464.533C268.09 464.533 268.449 464.544 268.863 464.566C269.288 464.588 269.62 464.615 269.859 464.648V469.32C269.663 469.265 269.315 469.205 268.814 469.14C268.313 469.064 267.812 469.026 267.311 469.026C266.157 469.026 265.128 469.271 264.224 469.761C263.331 470.24 262.623 470.91 262.1 471.77C261.577 472.619 261.316 473.589 261.316 474.678V490H256.432Z" fill="#6F6F6F"/>
<path d="M286.652 490V456.545H298.577C301.169 456.545 303.319 456.992 305.029 457.885C306.75 458.778 308.035 460.014 308.884 461.593C309.734 463.161 310.158 464.974 310.158 467.033C310.158 469.08 309.728 470.882 308.868 472.44C308.018 473.986 306.733 475.189 305.013 476.05C303.303 476.91 301.152 477.34 298.56 477.34H289.527V472.995H298.103C299.737 472.995 301.065 472.761 302.089 472.293C303.123 471.824 303.88 471.144 304.359 470.251C304.839 469.358 305.078 468.285 305.078 467.033C305.078 465.769 304.833 464.675 304.343 463.749C303.864 462.824 303.107 462.116 302.072 461.626C301.049 461.125 299.704 460.874 298.038 460.874H291.7V490H286.652ZM303.167 474.906L311.433 490H305.683L297.58 474.906H303.167ZM326.408 490.506C323.936 490.506 321.807 489.978 320.021 488.922C318.246 487.855 316.874 486.357 315.904 484.43C314.946 482.491 314.467 480.221 314.467 477.618C314.467 475.048 314.946 472.783 315.904 470.822C316.874 468.862 318.224 467.332 319.955 466.232C321.698 465.132 323.734 464.582 326.065 464.582C327.481 464.582 328.853 464.817 330.181 465.285C331.51 465.753 332.702 466.488 333.759 467.49C334.815 468.492 335.648 469.793 336.258 471.394C336.868 472.984 337.173 474.917 337.173 477.193V478.925H317.227V475.266H332.387C332.387 473.981 332.125 472.843 331.602 471.852C331.08 470.85 330.345 470.06 329.397 469.483C328.461 468.906 327.361 468.617 326.097 468.617C324.725 468.617 323.527 468.955 322.504 469.63C321.491 470.294 320.707 471.165 320.151 472.244C319.607 473.311 319.335 474.471 319.335 475.723V478.582C319.335 480.259 319.629 481.685 320.217 482.862C320.816 484.038 321.649 484.936 322.716 485.557C323.783 486.167 325.03 486.472 326.457 486.472C327.383 486.472 328.227 486.341 328.989 486.08C329.751 485.807 330.41 485.404 330.965 484.871C331.521 484.337 331.945 483.678 332.24 482.894L336.862 483.727C336.492 485.089 335.828 486.281 334.869 487.305C333.922 488.317 332.73 489.107 331.292 489.673C329.865 490.229 328.237 490.506 326.408 490.506ZM349.894 490.555C348.304 490.555 346.866 490.261 345.581 489.673C344.296 489.074 343.278 488.209 342.527 487.076C341.786 485.943 341.416 484.555 341.416 482.911C341.416 481.495 341.688 480.33 342.233 479.415C342.777 478.5 343.512 477.776 344.438 477.242C345.364 476.709 346.398 476.306 347.542 476.033C348.685 475.761 349.85 475.554 351.037 475.413C352.54 475.238 353.76 475.097 354.696 474.988C355.633 474.868 356.314 474.678 356.738 474.416C357.163 474.155 357.375 473.73 357.375 473.142V473.028C357.375 471.601 356.972 470.496 356.167 469.712C355.372 468.928 354.185 468.536 352.605 468.536C350.961 468.536 349.665 468.9 348.718 469.63C347.781 470.349 347.133 471.149 346.774 472.031L342.184 470.986C342.728 469.461 343.523 468.231 344.569 467.294C345.625 466.347 346.839 465.661 348.211 465.236C349.583 464.8 351.026 464.582 352.54 464.582C353.542 464.582 354.604 464.702 355.725 464.942C356.858 465.17 357.914 465.595 358.895 466.216C359.886 466.837 360.697 467.724 361.328 468.879C361.96 470.022 362.276 471.509 362.276 473.338V490H357.506V486.57H357.31C356.994 487.201 356.52 487.822 355.889 488.432C355.257 489.042 354.446 489.548 353.455 489.951C352.464 490.354 351.277 490.555 349.894 490.555ZM350.956 486.635C352.306 486.635 353.46 486.368 354.419 485.835C355.388 485.301 356.123 484.604 356.624 483.744C357.136 482.872 357.392 481.941 357.392 480.95V477.716C357.217 477.89 356.88 478.054 356.379 478.206C355.889 478.348 355.328 478.473 354.696 478.582C354.065 478.68 353.449 478.772 352.85 478.859C352.252 478.936 351.751 479.001 351.348 479.055C350.4 479.175 349.534 479.377 348.75 479.66C347.977 479.943 347.356 480.351 346.888 480.885C346.431 481.408 346.202 482.105 346.202 482.976C346.202 484.185 346.649 485.099 347.542 485.72C348.435 486.33 349.573 486.635 350.956 486.635ZM379.35 490.506C376.922 490.506 374.831 489.956 373.078 488.857C371.335 487.746 369.996 486.216 369.059 484.266C368.123 482.317 367.654 480.085 367.654 477.569C367.654 475.021 368.133 472.772 369.092 470.822C370.05 468.862 371.401 467.332 373.143 466.232C374.885 465.132 376.938 464.582 379.301 464.582C381.207 464.582 382.906 464.936 384.398 465.644C385.89 466.341 387.093 467.321 388.008 468.585C388.934 469.848 389.484 471.323 389.658 473.011H384.904C384.643 471.835 384.044 470.822 383.107 469.973C382.182 469.124 380.94 468.699 379.383 468.699C378.022 468.699 376.829 469.058 375.806 469.777C374.793 470.485 374.003 471.498 373.437 472.815C372.871 474.122 372.588 475.669 372.588 477.455C372.588 479.284 372.865 480.863 373.421 482.192C373.976 483.52 374.76 484.549 375.773 485.279C376.797 486.009 378 486.374 379.383 486.374C380.309 486.374 381.147 486.205 381.899 485.867C382.661 485.519 383.298 485.023 383.81 484.381C384.333 483.738 384.697 482.965 384.904 482.061H389.658C389.484 483.684 388.955 485.132 388.073 486.406C387.191 487.68 386.01 488.682 384.529 489.412C383.058 490.142 381.332 490.506 379.35 490.506ZM406.593 464.909V468.83H392.888V464.909H406.593ZM396.564 458.898H401.448V482.633C401.448 483.58 401.589 484.294 401.873 484.773C402.156 485.241 402.52 485.562 402.967 485.737C403.424 485.9 403.92 485.982 404.453 485.982C404.846 485.982 405.189 485.954 405.483 485.9C405.777 485.845 406.005 485.802 406.169 485.769L407.051 489.804C406.768 489.913 406.365 490.022 405.842 490.131C405.319 490.25 404.666 490.316 403.882 490.327C402.597 490.348 401.399 490.12 400.288 489.641C399.177 489.161 398.279 488.421 397.593 487.419C396.907 486.417 396.564 485.159 396.564 483.646V458.898ZM451.564 456.545V490H446.925L429.92 465.464H429.61V490H424.562V456.545H429.234L446.255 481.114H446.566V456.545H451.564ZM465.837 490.555C464.247 490.555 462.81 490.261 461.525 489.673C460.24 489.074 459.221 488.209 458.47 487.076C457.729 485.943 457.359 484.555 457.359 482.911C457.359 481.495 457.631 480.33 458.176 479.415C458.72 478.5 459.456 477.776 460.381 477.242C461.307 476.709 462.341 476.306 463.485 476.033C464.628 475.761 465.794 475.554 466.981 475.413C468.483 475.238 469.703 475.097 470.64 474.988C471.576 474.868 472.257 474.678 472.682 474.416C473.106 474.155 473.319 473.73 473.319 473.142V473.028C473.319 471.601 472.916 470.496 472.11 469.712C471.315 468.928 470.128 468.536 468.549 468.536C466.904 468.536 465.608 468.9 464.661 469.63C463.724 470.349 463.077 471.149 462.717 472.031L458.127 470.986C458.671 469.461 459.466 468.231 460.512 467.294C461.568 466.347 462.782 465.661 464.155 465.236C465.527 464.8 466.97 464.582 468.483 464.582C469.485 464.582 470.547 464.702 471.669 464.942C472.801 465.17 473.858 465.595 474.838 466.216C475.829 466.837 476.64 467.724 477.272 468.879C477.903 470.022 478.219 471.509 478.219 473.338V490H473.449V486.57H473.253C472.938 487.201 472.464 487.822 471.832 488.432C471.201 489.042 470.389 489.548 469.398 489.951C468.407 490.354 467.22 490.555 465.837 490.555ZM466.899 486.635C468.249 486.635 469.404 486.368 470.362 485.835C471.331 485.301 472.066 484.604 472.567 483.744C473.079 482.872 473.335 481.941 473.335 480.95V477.716C473.161 477.89 472.823 478.054 472.322 478.206C471.832 478.348 471.271 478.473 470.64 478.582C470.008 478.68 469.393 478.772 468.794 478.859C468.195 478.936 467.694 479.001 467.291 479.055C466.344 479.175 465.478 479.377 464.694 479.66C463.921 479.943 463.3 480.351 462.831 480.885C462.374 481.408 462.145 482.105 462.145 482.976C462.145 484.185 462.592 485.099 463.485 485.72C464.378 486.33 465.516 486.635 466.899 486.635ZM496.437 464.909V468.83H482.732V464.909H496.437ZM486.407 458.898H491.292V482.633C491.292 483.58 491.433 484.294 491.716 484.773C491.999 485.241 492.364 485.562 492.811 485.737C493.268 485.9 493.764 485.982 494.297 485.982C494.689 485.982 495.032 485.954 495.326 485.9C495.62 485.845 495.849 485.802 496.012 485.769L496.895 489.804C496.611 489.913 496.208 490.022 495.686 490.131C495.163 490.25 494.51 490.316 493.725 490.327C492.44 490.348 491.243 490.12 490.132 489.641C489.021 489.161 488.123 488.421 487.436 487.419C486.75 486.417 486.407 485.159 486.407 483.646V458.898ZM501.84 490V464.909H506.724V490H501.84ZM504.307 461.038C503.457 461.038 502.728 460.754 502.118 460.188C501.519 459.611 501.219 458.925 501.219 458.13C501.219 457.324 501.519 456.638 502.118 456.072C502.728 455.495 503.457 455.206 504.307 455.206C505.156 455.206 505.88 455.495 506.479 456.072C507.089 456.638 507.394 457.324 507.394 458.13C507.394 458.925 507.089 459.611 506.479 460.188C505.88 460.754 505.156 461.038 504.307 461.038ZM534.76 464.909L525.661 490H520.434L511.319 464.909H516.562L522.917 484.217H523.178L529.516 464.909H534.76ZM549.31 490.506C546.838 490.506 544.709 489.978 542.923 488.922C541.148 487.855 539.776 486.357 538.807 484.43C537.848 482.491 537.369 480.221 537.369 477.618C537.369 475.048 537.848 472.783 538.807 470.822C539.776 468.862 541.126 467.332 542.858 466.232C544.6 465.132 546.637 464.582 548.967 464.582C550.383 464.582 551.755 464.817 553.084 465.285C554.412 465.753 555.605 466.488 556.661 467.49C557.717 468.492 558.55 469.793 559.16 471.394C559.77 472.984 560.075 474.917 560.075 477.193V478.925H540.13V475.266H555.289C555.289 473.981 555.028 472.843 554.505 471.852C553.982 470.85 553.247 470.06 552.3 469.483C551.363 468.906 550.263 468.617 549 468.617C547.628 468.617 546.43 468.955 545.406 469.63C544.393 470.294 543.609 471.165 543.054 472.244C542.509 473.311 542.237 474.471 542.237 475.723V478.582C542.237 480.259 542.531 481.685 543.119 482.862C543.718 484.038 544.551 484.936 545.618 485.557C546.686 486.167 547.933 486.472 549.359 486.472C550.285 486.472 551.129 486.341 551.891 486.08C552.653 485.807 553.312 485.404 553.868 484.871C554.423 484.337 554.848 483.678 555.142 482.894L559.765 483.727C559.394 485.089 558.73 486.281 557.772 487.305C556.824 488.317 555.632 489.107 554.194 489.673C552.768 490.229 551.14 490.506 549.31 490.506ZM571.849 485.426L571.604 487.207C571.44 488.513 571.163 489.875 570.771 491.29C570.389 492.717 569.992 494.04 569.578 495.26C569.175 496.48 568.843 497.449 568.582 498.168H565.119C565.26 497.492 565.456 496.578 565.707 495.423C565.957 494.28 566.202 493 566.442 491.585C566.681 490.169 566.861 488.726 566.981 487.256L567.144 485.426H571.849ZM617.775 456.545V490H613.136L596.131 465.464H595.821V490H590.773V456.545H595.445L612.466 481.114H612.777V456.545H617.775ZM635.56 490.506C633.088 490.506 630.959 489.978 629.173 488.922C627.398 487.855 626.026 486.357 625.057 484.43C624.098 482.491 623.619 480.221 623.619 477.618C623.619 475.048 624.098 472.783 625.057 470.822C626.026 468.862 627.376 467.332 629.108 466.232C630.85 465.132 632.887 464.582 635.217 464.582C636.633 464.582 638.005 464.817 639.334 465.285C640.662 465.753 641.855 466.488 642.911 467.49C643.967 468.492 644.8 469.793 645.41 471.394C646.02 472.984 646.325 474.917 646.325 477.193V478.925H626.38V475.266H641.539C641.539 473.981 641.278 472.843 640.755 471.852C640.232 470.85 639.497 470.06 638.55 469.483C637.613 468.906 636.513 468.617 635.25 468.617C633.878 468.617 632.68 468.955 631.656 469.63C630.643 470.294 629.859 471.165 629.304 472.244C628.759 473.311 628.487 474.471 628.487 475.723V478.582C628.487 480.259 628.781 481.685 629.369 482.862C629.968 484.038 630.801 484.936 631.868 485.557C632.936 486.167 634.183 486.472 635.609 486.472C636.535 486.472 637.379 486.341 638.141 486.08C638.903 485.807 639.562 485.404 640.118 484.871C640.673 484.337 641.098 483.678 641.392 482.894L646.015 483.727C645.644 485.089 644.98 486.281 644.022 487.305C643.074 488.317 641.882 489.107 640.444 489.673C639.018 490.229 637.39 490.506 635.56 490.506ZM655.015 464.909L660.553 474.678L666.14 464.909H671.481L663.657 477.455L671.547 490H666.205L660.553 480.624L654.917 490H649.559L657.368 477.455L649.657 464.909H655.015ZM688.209 464.909V468.83H674.503V464.909H688.209ZM678.179 458.898H683.063V482.633C683.063 483.58 683.205 484.294 683.488 484.773C683.771 485.241 684.136 485.562 684.582 485.737C685.04 485.9 685.535 485.982 686.069 485.982C686.461 485.982 686.804 485.954 687.098 485.9C687.392 485.845 687.621 485.802 687.784 485.769L688.666 489.804C688.383 489.913 687.98 490.022 687.457 490.131C686.934 490.25 686.281 490.316 685.497 490.327C684.212 490.348 683.014 490.12 681.903 489.641C680.792 489.161 679.894 488.421 679.208 487.419C678.522 486.417 678.179 485.159 678.179 483.646V458.898ZM696.83 490.31C695.937 490.31 695.169 489.995 694.526 489.363C693.884 488.72 693.562 487.947 693.562 487.043C693.562 486.15 693.884 485.388 694.526 484.756C695.169 484.114 695.937 483.793 696.83 483.793C697.723 483.793 698.49 484.114 699.133 484.756C699.775 485.388 700.097 486.15 700.097 487.043C700.097 487.642 699.944 488.192 699.639 488.693C699.345 489.183 698.953 489.575 698.463 489.869C697.973 490.163 697.429 490.31 696.83 490.31ZM706.639 464.909H711.523V491.634C711.523 493.311 711.218 494.726 710.608 495.881C710.009 497.035 709.116 497.912 707.929 498.511C706.753 499.11 705.299 499.409 703.568 499.409C703.394 499.409 703.23 499.409 703.078 499.409C702.914 499.409 702.746 499.404 702.571 499.393V495.195C702.724 495.195 702.86 495.195 702.98 495.195C703.089 495.195 703.214 495.195 703.355 495.195C704.51 495.195 705.343 494.884 705.855 494.263C706.377 493.654 706.639 492.766 706.639 491.601V464.909ZM709.056 461.038C708.207 461.038 707.477 460.754 706.868 460.188C706.269 459.611 705.969 458.925 705.969 458.13C705.969 457.324 706.269 456.638 706.868 456.072C707.477 455.495 708.207 455.206 709.056 455.206C709.906 455.206 710.63 455.495 711.229 456.072C711.839 456.638 712.144 457.324 712.144 458.13C712.144 458.925 711.839 459.611 711.229 460.188C710.63 460.754 709.906 461.038 709.056 461.038ZM736.896 471.035L732.469 471.819C732.284 471.253 731.99 470.714 731.587 470.202C731.195 469.69 730.661 469.271 729.986 468.944C729.311 468.617 728.467 468.454 727.454 468.454C726.071 468.454 724.917 468.764 723.991 469.385C723.065 469.995 722.602 470.784 722.602 471.754C722.602 472.592 722.913 473.267 723.534 473.779C724.154 474.291 725.156 474.71 726.539 475.037L730.525 475.952C732.834 476.485 734.554 477.308 735.687 478.418C736.82 479.529 737.386 480.972 737.386 482.747C737.386 484.25 736.95 485.589 736.079 486.766C735.219 487.931 734.015 488.846 732.469 489.51C730.933 490.174 729.153 490.506 727.127 490.506C724.318 490.506 722.025 489.907 720.25 488.71C718.475 487.501 717.386 485.786 716.983 483.564L721.704 482.845C721.998 484.076 722.602 485.007 723.517 485.638C724.432 486.259 725.624 486.57 727.095 486.57C728.695 486.57 729.975 486.237 730.933 485.573C731.892 484.898 732.371 484.076 732.371 483.107C732.371 482.322 732.077 481.664 731.489 481.13C730.912 480.596 730.024 480.193 728.826 479.921L724.579 478.99C722.238 478.456 720.506 477.607 719.384 476.442C718.274 475.277 717.718 473.801 717.718 472.015C717.718 470.534 718.132 469.238 718.96 468.127C719.787 467.016 720.931 466.151 722.39 465.53C723.849 464.898 725.521 464.582 727.405 464.582C730.117 464.582 732.251 465.17 733.808 466.347C735.366 467.512 736.395 469.075 736.896 471.035ZM749.11 485.426L748.865 487.207C748.702 488.513 748.424 489.875 748.032 491.29C747.651 492.717 747.254 494.04 746.84 495.26C746.437 496.48 746.105 497.449 745.843 498.168H742.38C742.522 497.492 742.718 496.578 742.968 495.423C743.219 494.28 743.464 493 743.703 491.585C743.943 490.169 744.123 488.726 744.243 487.256L744.406 485.426H749.11ZM768.035 490V456.545H789.009V460.891H773.082V471.084H787.915V475.413H773.082V485.655H789.205V490H768.035ZM799.215 464.909L804.752 474.678L810.339 464.909H815.681L807.856 477.455L815.746 490H810.404L804.752 480.624L799.117 490H793.759L801.567 477.455L793.857 464.909H799.215ZM820.695 499.409V464.909H825.465V468.977H825.874C826.157 468.454 826.565 467.849 827.099 467.163C827.633 466.477 828.373 465.878 829.32 465.366C830.268 464.844 831.52 464.582 833.078 464.582C835.103 464.582 836.911 465.094 838.501 466.118C840.091 467.142 841.338 468.617 842.242 470.545C843.156 472.472 843.614 474.792 843.614 477.504C843.614 480.215 843.162 482.54 842.258 484.479C841.354 486.406 840.113 487.893 838.534 488.938C836.954 489.973 835.152 490.49 833.127 490.49C831.602 490.49 830.355 490.234 829.386 489.722C828.427 489.21 827.676 488.612 827.132 487.925C826.587 487.239 826.168 486.629 825.874 486.096H825.58V499.409H820.695ZM825.482 477.455C825.482 479.219 825.738 480.765 826.249 482.094C826.761 483.422 827.502 484.462 828.471 485.214C829.44 485.954 830.627 486.325 832.032 486.325C833.491 486.325 834.711 485.938 835.691 485.165C836.671 484.381 837.412 483.319 837.913 481.979C838.425 480.64 838.681 479.132 838.681 477.455C838.681 475.799 838.43 474.313 837.929 472.995C837.439 471.677 836.699 470.637 835.708 469.875C834.727 469.113 833.502 468.732 832.032 468.732C830.616 468.732 829.419 469.096 828.438 469.826C827.469 470.556 826.734 471.574 826.233 472.881C825.732 474.187 825.482 475.712 825.482 477.455ZM859.655 490.506C857.303 490.506 855.25 489.967 853.497 488.889C851.743 487.811 850.382 486.303 849.413 484.364C848.444 482.426 847.959 480.161 847.959 477.569C847.959 474.966 848.444 472.69 849.413 470.741C850.382 468.791 851.743 467.278 853.497 466.2C855.25 465.121 857.303 464.582 859.655 464.582C862.007 464.582 864.06 465.121 865.813 466.2C867.567 467.278 868.928 468.791 869.897 470.741C870.866 472.69 871.351 474.966 871.351 477.569C871.351 480.161 870.866 482.426 869.897 484.364C868.928 486.303 867.567 487.811 865.813 488.889C864.06 489.967 862.007 490.506 859.655 490.506ZM859.671 486.406C861.196 486.406 862.459 486.003 863.461 485.197C864.463 484.392 865.204 483.319 865.683 481.979C866.173 480.64 866.418 479.164 866.418 477.553C866.418 475.952 866.173 474.482 865.683 473.142C865.204 471.792 864.463 470.708 863.461 469.891C862.459 469.075 861.196 468.666 859.671 468.666C858.136 468.666 856.862 469.075 855.849 469.891C854.847 470.708 854.101 471.792 853.611 473.142C853.132 474.482 852.892 475.952 852.892 477.553C852.892 479.164 853.132 480.64 853.611 481.979C854.101 483.319 854.847 484.392 855.849 485.197C856.862 486.003 858.136 486.406 859.671 486.406ZM898.713 490.474C896.469 490.474 894.536 490.065 892.914 489.249C891.302 488.432 890.06 487.321 889.189 485.916C888.318 484.5 887.882 482.9 887.882 481.114C887.882 479.752 888.165 478.544 888.732 477.487C889.298 476.42 890.088 475.434 891.1 474.531C892.113 473.627 893.284 472.717 894.612 471.803L900.003 467.996C900.918 467.397 901.631 466.766 902.143 466.102C902.655 465.426 902.911 464.593 902.911 463.602C902.911 462.818 902.573 462.067 901.898 461.348C901.223 460.629 900.319 460.27 899.186 460.27C898.402 460.27 897.711 460.46 897.112 460.842C896.524 461.223 896.061 461.713 895.723 462.312C895.396 462.9 895.233 463.521 895.233 464.174C895.233 464.936 895.44 465.704 895.854 466.477C896.279 467.25 896.823 468.051 897.487 468.879C898.152 469.695 898.849 470.545 899.578 471.427L915.113 490H909.592L896.736 474.89C895.658 473.616 894.656 472.418 893.73 471.296C892.805 470.164 892.053 469.02 891.476 467.866C890.91 466.701 890.627 465.443 890.627 464.092C890.627 462.557 890.975 461.196 891.672 460.009C892.38 458.811 893.365 457.874 894.629 457.199C895.892 456.524 897.373 456.186 899.072 456.186C900.793 456.186 902.268 456.524 903.499 457.199C904.74 457.863 905.693 458.751 906.357 459.862C907.033 460.961 907.37 462.165 907.37 463.472C907.37 465.062 906.973 466.466 906.178 467.686C905.394 468.895 904.31 470.006 902.927 471.018L896.213 475.968C894.906 476.926 893.997 477.874 893.485 478.81C892.984 479.736 892.734 480.46 892.734 480.983C892.734 481.941 892.979 482.829 893.469 483.646C893.97 484.462 894.667 485.116 895.56 485.606C896.464 486.096 897.52 486.341 898.729 486.341C899.97 486.341 901.179 486.074 902.355 485.54C903.542 484.996 904.615 484.217 905.573 483.205C906.543 482.192 907.31 480.978 907.877 479.562C908.443 478.146 908.726 476.562 908.726 474.808H913.137C913.137 476.964 912.892 478.789 912.401 480.281C911.911 481.762 911.318 482.97 910.621 483.907C909.935 484.833 909.287 485.557 908.677 486.08C908.481 486.254 908.296 486.428 908.122 486.602C907.947 486.777 907.762 486.951 907.566 487.125C906.434 488.268 905.061 489.112 903.45 489.657C901.849 490.201 900.27 490.474 898.713 490.474ZM931.506 490V456.545H943.43C946.022 456.545 948.173 456.992 949.883 457.885C951.603 458.778 952.888 460.014 953.738 461.593C954.587 463.161 955.012 464.974 955.012 467.033C955.012 469.08 954.582 470.882 953.721 472.44C952.872 473.986 951.587 475.189 949.866 476.05C948.157 476.91 946.006 477.34 943.414 477.34H934.381V472.995H942.956C944.59 472.995 945.919 472.761 946.942 472.293C947.977 471.824 948.734 471.144 949.213 470.251C949.692 469.358 949.932 468.285 949.932 467.033C949.932 465.769 949.687 464.675 949.197 463.749C948.717 462.824 947.961 462.116 946.926 461.626C945.902 461.125 944.557 460.874 942.891 460.874H936.553V490H931.506ZM948.02 474.906L956.286 490H950.536L942.434 474.906H948.02ZM971.261 490.506C968.789 490.506 966.66 489.978 964.874 488.922C963.099 487.855 961.727 486.357 960.758 484.43C959.799 482.491 959.32 480.221 959.32 477.618C959.32 475.048 959.799 472.783 960.758 470.822C961.727 468.862 963.077 467.332 964.809 466.232C966.551 465.132 968.588 464.582 970.918 464.582C972.334 464.582 973.706 464.817 975.035 465.285C976.363 465.753 977.556 466.488 978.612 467.49C979.669 468.492 980.502 469.793 981.112 471.394C981.721 472.984 982.026 474.917 982.026 477.193V478.925H962.081V475.266H977.24C977.24 473.981 976.979 472.843 976.456 471.852C975.933 470.85 975.198 470.06 974.251 469.483C973.314 468.906 972.214 468.617 970.951 468.617C969.579 468.617 968.381 468.955 967.357 469.63C966.344 470.294 965.56 471.165 965.005 472.244C964.46 473.311 964.188 474.471 964.188 475.723V478.582C964.188 480.259 964.482 481.685 965.07 482.862C965.669 484.038 966.502 484.936 967.57 485.557C968.637 486.167 969.884 486.472 971.31 486.472C972.236 486.472 973.08 486.341 973.842 486.08C974.605 485.807 975.263 485.404 975.819 484.871C976.374 484.337 976.799 483.678 977.093 482.894L981.716 483.727C981.346 485.089 980.681 486.281 979.723 487.305C978.776 488.317 977.583 489.107 976.146 489.673C974.719 490.229 973.091 490.506 971.261 490.506ZM994.747 490.555C993.157 490.555 991.72 490.261 990.435 489.673C989.15 489.074 988.132 488.209 987.38 487.076C986.64 485.943 986.269 484.555 986.269 482.911C986.269 481.495 986.542 480.33 987.086 479.415C987.631 478.5 988.366 477.776 989.291 477.242C990.217 476.709 991.252 476.306 992.395 476.033C993.539 475.761 994.704 475.554 995.891 475.413C997.394 475.238 998.613 475.097 999.55 474.988C1000.49 474.868 1001.17 474.678 1001.59 474.416C1002.02 474.155 1002.23 473.73 1002.23 473.142V473.028C1002.23 471.601 1001.83 470.496 1001.02 469.712C1000.23 468.928 999.038 468.536 997.459 468.536C995.815 468.536 994.519 468.9 993.571 469.63C992.635 470.349 991.987 471.149 991.627 472.031L987.037 470.986C987.582 469.461 988.377 468.231 989.422 467.294C990.478 466.347 991.693 465.661 993.065 465.236C994.437 464.8 995.88 464.582 997.394 464.582C998.396 464.582 999.457 464.702 1000.58 464.942C1001.71 465.17 1002.77 465.595 1003.75 466.216C1004.74 466.837 1005.55 467.724 1006.18 468.879C1006.81 470.022 1007.13 471.509 1007.13 473.338V490H1002.36V486.57H1002.16C1001.85 487.201 1001.37 487.822 1000.74 488.432C1000.11 489.042 999.299 489.548 998.308 489.951C997.317 490.354 996.13 490.555 994.747 490.555ZM995.809 486.635C997.16 486.635 998.314 486.368 999.272 485.835C1000.24 485.301 1000.98 484.604 1001.48 483.744C1001.99 482.872 1002.25 481.941 1002.25 480.95V477.716C1002.07 477.89 1001.73 478.054 1001.23 478.206C1000.74 478.348 1000.18 478.473 999.55 478.582C998.918 478.68 998.303 478.772 997.704 478.859C997.105 478.936 996.604 479.001 996.201 479.055C995.254 479.175 994.388 479.377 993.604 479.66C992.831 479.943 992.21 480.351 991.742 480.885C991.284 481.408 991.056 482.105 991.056 482.976C991.056 484.185 991.502 485.099 992.395 485.72C993.288 486.33 994.426 486.635 995.809 486.635ZM1024.2 490.506C1021.78 490.506 1019.68 489.956 1017.93 488.857C1016.19 487.746 1014.85 486.216 1013.91 484.266C1012.98 482.317 1012.51 480.085 1012.51 477.569C1012.51 475.021 1012.99 472.772 1013.95 470.822C1014.9 468.862 1016.25 467.332 1018 466.232C1019.74 465.132 1021.79 464.582 1024.15 464.582C1026.06 464.582 1027.76 464.936 1029.25 465.644C1030.74 466.341 1031.95 467.321 1032.86 468.585C1033.79 469.848 1034.34 471.323 1034.51 473.011H1029.76C1029.5 471.835 1028.9 470.822 1027.96 469.973C1027.04 469.124 1025.79 468.699 1024.24 468.699C1022.88 468.699 1021.68 469.058 1020.66 469.777C1019.65 470.485 1018.86 471.498 1018.29 472.815C1017.72 474.122 1017.44 475.669 1017.44 477.455C1017.44 479.284 1017.72 480.863 1018.27 482.192C1018.83 483.52 1019.61 484.549 1020.63 485.279C1021.65 486.009 1022.85 486.374 1024.24 486.374C1025.16 486.374 1026 486.205 1026.75 485.867C1027.51 485.519 1028.15 485.023 1028.66 484.381C1029.19 483.738 1029.55 482.965 1029.76 482.061H1034.51C1034.34 483.684 1033.81 485.132 1032.93 486.406C1032.04 487.68 1030.86 488.682 1029.38 489.412C1027.91 490.142 1026.19 490.506 1024.2 490.506ZM1051.45 464.909V468.83H1037.74V464.909H1051.45ZM1041.42 458.898H1046.3V482.633C1046.3 483.58 1046.44 484.294 1046.73 484.773C1047.01 485.241 1047.37 485.562 1047.82 485.737C1048.28 485.9 1048.77 485.982 1049.31 485.982C1049.7 485.982 1050.04 485.954 1050.34 485.9C1050.63 485.845 1050.86 485.802 1051.02 485.769L1051.9 489.804C1051.62 489.913 1051.22 490.022 1050.7 490.131C1050.17 490.25 1049.52 490.316 1048.74 490.327C1047.45 490.348 1046.25 490.12 1045.14 489.641C1044.03 489.161 1043.13 488.421 1042.45 487.419C1041.76 486.417 1041.42 485.159 1041.42 483.646V458.898Z" fill="#C2C2C2"/>
<rect x="74" y="102.948" width="49.5375" height="48.1037" rx="4.95374" fill="url(#paint25_linear_7955_77214)"/>
<path d="M86.3845 124.455L98.7687 115.333V119.638L86.3845 128.76V124.455Z" fill="white"/>
<path d="M111.153 124.455L98.7689 115.333V119.638L111.153 128.76V124.455Z" fill="white"/>
<path d="M86.3845 134.362L98.7687 125.24V129.545L86.3845 138.667V134.362Z" fill="white"/>
<path d="M111.152 134.363L98.7681 125.24V129.545L111.152 138.668V134.363Z" fill="white"/>
<path d="M155.885 147.721C154.215 147.721 152.672 147.452 151.257 146.914C149.841 146.376 148.624 145.626 147.605 144.664C146.586 143.73 145.822 142.626 145.312 141.352L149.728 139.526C150.124 140.602 150.846 141.493 151.894 142.201C152.969 142.909 154.286 143.263 155.842 143.263C157.06 143.263 158.149 143.022 159.112 142.541C160.074 142.088 160.839 141.408 161.405 140.503C161.971 139.625 162.254 138.564 162.254 137.318V132.138L163.103 133.114C162.311 134.586 161.207 135.705 159.791 136.469C158.404 137.233 156.833 137.615 155.078 137.615C152.955 137.615 151.044 137.12 149.346 136.129C147.647 135.138 146.303 133.78 145.312 132.053C144.35 130.326 143.868 128.387 143.868 126.236C143.868 124.056 144.35 122.117 145.312 120.419C146.303 118.72 147.633 117.376 149.303 116.385C150.974 115.394 152.884 114.899 155.036 114.899C156.791 114.899 158.348 115.281 159.706 116.045C161.093 116.781 162.226 117.857 163.103 119.272L162.466 120.461V115.408H167.01V137.318C167.01 139.3 166.528 141.069 165.566 142.626C164.632 144.211 163.33 145.456 161.66 146.362C159.989 147.268 158.065 147.721 155.885 147.721ZM155.63 133.157C156.904 133.157 158.036 132.86 159.027 132.265C160.018 131.642 160.796 130.822 161.362 129.802C161.957 128.755 162.254 127.58 162.254 126.278C162.254 124.976 161.957 123.801 161.362 122.754C160.768 121.707 159.975 120.886 158.985 120.291C157.994 119.668 156.876 119.357 155.63 119.357C154.328 119.357 153.167 119.668 152.148 120.291C151.129 120.886 150.322 121.707 149.728 122.754C149.162 123.773 148.879 124.948 148.879 126.278C148.879 127.552 149.162 128.713 149.728 129.76C150.322 130.807 151.129 131.642 152.148 132.265C153.167 132.86 154.328 133.157 155.63 133.157Z" fill="white"/>
<path d="M172.626 138.38V106.237H177.424V138.38H172.626Z" fill="white"/>
<path d="M191.229 138.889C189.502 138.889 187.988 138.507 186.686 137.743C185.384 136.95 184.364 135.86 183.629 134.473C182.921 133.058 182.567 131.43 182.567 129.59V115.408H187.365V129.166C187.365 130.213 187.577 131.133 188.002 131.925C188.427 132.718 189.021 133.341 189.785 133.794C190.55 134.218 191.427 134.431 192.418 134.431C193.437 134.431 194.329 134.204 195.093 133.751C195.857 133.298 196.452 132.661 196.876 131.841C197.329 131.02 197.556 130.057 197.556 128.953V115.408H202.311V138.38H197.768V133.879L198.278 134.473C197.74 135.889 196.848 136.978 195.603 137.743C194.357 138.507 192.899 138.889 191.229 138.889Z" fill="white"/>
<path d="M218.699 138.889C216.406 138.889 214.368 138.365 212.584 137.318C210.829 136.242 209.456 134.799 208.466 132.987C207.475 131.147 206.979 129.095 206.979 126.83C206.979 124.509 207.475 122.457 208.466 120.673C209.485 118.89 210.843 117.489 212.542 116.47C214.24 115.422 216.165 114.899 218.317 114.899C220.043 114.899 221.586 115.196 222.945 115.79C224.304 116.385 225.45 117.206 226.384 118.253C227.318 119.272 228.026 120.447 228.507 121.777C229.017 123.108 229.271 124.523 229.271 126.023C229.271 126.391 229.257 126.774 229.229 127.17C229.201 127.566 229.144 127.934 229.059 128.274H210.758V124.452H226.342L224.049 126.193C224.332 124.806 224.233 123.575 223.752 122.499C223.299 121.395 222.591 120.532 221.628 119.909C220.694 119.258 219.59 118.932 218.317 118.932C217.043 118.932 215.91 119.258 214.92 119.909C213.929 120.532 213.165 121.438 212.627 122.627C212.089 123.787 211.877 125.202 211.99 126.873C211.848 128.43 212.061 129.788 212.627 130.949C213.221 132.109 214.042 133.015 215.089 133.666C216.165 134.317 217.382 134.643 218.741 134.643C220.128 134.643 221.303 134.332 222.265 133.709C223.256 133.086 224.035 132.279 224.601 131.289L228.507 133.199C228.054 134.275 227.347 135.252 226.384 136.129C225.45 136.978 224.318 137.658 222.987 138.167C221.685 138.648 220.256 138.889 218.699 138.889Z" fill="white"/>
<path d="M242.446 138.889C240.097 138.889 238.03 138.309 236.247 137.148C234.492 135.988 233.261 134.431 232.553 132.477L236.247 130.737C236.87 132.039 237.719 133.072 238.795 133.836C239.899 134.601 241.116 134.983 242.446 134.983C243.579 134.983 244.499 134.728 245.206 134.218C245.914 133.709 246.268 133.015 246.268 132.138C246.268 131.572 246.112 131.119 245.801 130.779C245.489 130.411 245.093 130.114 244.612 129.887C244.159 129.661 243.692 129.491 243.211 129.378L239.601 128.359C237.62 127.793 236.134 126.943 235.143 125.811C234.181 124.651 233.699 123.306 233.699 121.777C233.699 120.39 234.053 119.187 234.761 118.168C235.469 117.121 236.445 116.314 237.691 115.748C238.936 115.182 240.337 114.899 241.894 114.899C243.989 114.899 245.857 115.422 247.499 116.47C249.141 117.489 250.302 118.918 250.981 120.758L247.287 122.499C246.834 121.395 246.112 120.518 245.121 119.867C244.159 119.215 243.069 118.89 241.852 118.89C240.804 118.89 239.969 119.145 239.347 119.654C238.724 120.135 238.413 120.772 238.413 121.565C238.413 122.103 238.554 122.556 238.837 122.924C239.12 123.263 239.488 123.547 239.941 123.773C240.394 123.971 240.861 124.141 241.342 124.283L245.079 125.386C246.975 125.924 248.433 126.774 249.452 127.934C250.471 129.066 250.981 130.425 250.981 132.01C250.981 133.369 250.613 134.572 249.877 135.62C249.169 136.639 248.179 137.445 246.905 138.04C245.631 138.606 244.145 138.889 242.446 138.889Z" fill="white"/>
<path d="M265.618 138.634C263.212 138.634 261.344 137.955 260.013 136.596C258.683 135.237 258.018 133.327 258.018 130.864V119.739H253.984V115.408H254.621C255.696 115.408 256.531 115.097 257.126 114.474C257.72 113.851 258.018 113.002 258.018 111.926V110.143H262.816V115.408H268.038V119.739H262.816V130.652C262.816 131.444 262.943 132.124 263.198 132.69C263.453 133.228 263.863 133.652 264.429 133.964C264.995 134.247 265.731 134.388 266.637 134.388C266.864 134.388 267.118 134.374 267.401 134.346C267.685 134.317 267.953 134.289 268.208 134.261V138.38C267.812 138.436 267.373 138.493 266.892 138.549C266.411 138.606 265.986 138.634 265.618 138.634Z" fill="white"/>
<path d="M279.562 138.889C278.005 138.889 276.632 138.62 275.443 138.082C274.283 137.516 273.377 136.752 272.726 135.789C272.075 134.799 271.749 133.638 271.749 132.308C271.749 131.062 272.018 129.944 272.556 128.953C273.122 127.962 273.985 127.127 275.146 126.448C276.307 125.769 277.764 125.287 279.519 125.004L287.502 123.688V127.467L280.454 128.698C279.18 128.925 278.246 129.335 277.651 129.93C277.057 130.496 276.759 131.232 276.759 132.138C276.759 133.015 277.085 133.737 277.736 134.303C278.415 134.841 279.279 135.11 280.326 135.11C281.628 135.11 282.761 134.827 283.723 134.261C284.714 133.695 285.478 132.945 286.016 132.01C286.554 131.048 286.823 129.986 286.823 128.826V122.924C286.823 121.791 286.398 120.871 285.549 120.164C284.728 119.428 283.624 119.06 282.237 119.06C280.963 119.06 279.845 119.399 278.882 120.079C277.948 120.73 277.255 121.579 276.802 122.627L272.811 120.631C273.235 119.499 273.929 118.508 274.891 117.659C275.854 116.781 276.972 116.102 278.246 115.62C279.548 115.139 280.921 114.899 282.364 114.899C284.176 114.899 285.775 115.238 287.162 115.918C288.578 116.597 289.668 117.545 290.432 118.763C291.225 119.951 291.621 121.339 291.621 122.924V138.38H287.035V134.218L288.012 134.346C287.474 135.28 286.78 136.087 285.931 136.766C285.11 137.445 284.162 137.969 283.086 138.337C282.039 138.705 280.864 138.889 279.562 138.889Z" fill="white"/>
<path d="M308.143 138.889C305.851 138.889 303.812 138.365 302.029 137.318C300.274 136.242 298.873 134.799 297.825 132.987C296.806 131.175 296.297 129.123 296.297 126.83C296.297 124.566 296.806 122.527 297.825 120.716C298.844 118.904 300.246 117.489 302.029 116.47C303.812 115.422 305.851 114.899 308.143 114.899C309.7 114.899 311.158 115.182 312.517 115.748C313.876 116.286 315.05 117.036 316.041 117.998C317.06 118.961 317.81 120.079 318.292 121.353L314.088 123.306C313.607 122.117 312.828 121.169 311.753 120.461C310.705 119.725 309.502 119.357 308.143 119.357C306.841 119.357 305.667 119.683 304.619 120.334C303.6 120.956 302.793 121.848 302.199 123.009C301.604 124.141 301.307 125.429 301.307 126.873C301.307 128.316 301.604 129.618 302.199 130.779C302.793 131.911 303.6 132.803 304.619 133.454C305.667 134.105 306.841 134.431 308.143 134.431C309.531 134.431 310.734 134.077 311.753 133.369C312.8 132.633 313.578 131.657 314.088 130.439L318.292 132.435C317.839 133.652 317.103 134.756 316.084 135.747C315.093 136.709 313.918 137.474 312.559 138.04C311.201 138.606 309.729 138.889 308.143 138.889Z" fill="white"/>
<path d="M322.981 138.38V106.237H327.779V127.764L325.911 127.297L337.418 115.408H343.405L334.743 124.622L343.787 138.38H338.267L330.2 126.193L333.045 125.811L326.251 133.029L327.779 129.845V138.38H322.981Z" fill="white"/>
<path d="M347.795 128.996V124.75H364.779V128.996H347.795Z" fill="white"/>
<path d="M379.615 138.889C377.266 138.889 375.199 138.309 373.416 137.148C371.661 135.988 370.43 134.431 369.722 132.477L373.416 130.737C374.039 132.039 374.888 133.072 375.964 133.836C377.068 134.601 378.285 134.983 379.615 134.983C380.748 134.983 381.668 134.728 382.375 134.218C383.083 133.709 383.437 133.015 383.437 132.138C383.437 131.572 383.281 131.119 382.97 130.779C382.658 130.411 382.262 130.114 381.781 129.887C381.328 129.661 380.861 129.491 380.38 129.378L376.77 128.359C374.789 127.793 373.303 126.943 372.312 125.811C371.35 124.651 370.868 123.306 370.868 121.777C370.868 120.39 371.222 119.187 371.93 118.168C372.638 117.121 373.614 116.314 374.86 115.748C376.105 115.182 377.506 114.899 379.063 114.899C381.158 114.899 383.026 115.422 384.668 116.47C386.31 117.489 387.471 118.918 388.15 120.758L384.456 122.499C384.003 121.395 383.281 120.518 382.29 119.867C381.328 119.215 380.238 118.89 379.021 118.89C377.973 118.89 377.138 119.145 376.516 119.654C375.893 120.135 375.581 120.772 375.581 121.565C375.581 122.103 375.723 122.556 376.006 122.924C376.289 123.263 376.657 123.547 377.11 123.773C377.563 123.971 378.03 124.141 378.511 124.283L382.248 125.386C384.144 125.924 385.602 126.774 386.621 127.934C387.64 129.066 388.15 130.425 388.15 132.01C388.15 133.369 387.782 134.572 387.046 135.62C386.338 136.639 385.348 137.445 384.074 138.04C382.8 138.606 381.314 138.889 379.615 138.889Z" fill="white"/>
<path d="M402.787 138.634C400.381 138.634 398.513 137.955 397.182 136.596C395.852 135.237 395.187 133.327 395.187 130.864V119.739H391.153V115.408H391.79C392.865 115.408 393.7 115.097 394.295 114.474C394.889 113.851 395.187 113.002 395.187 111.926V110.143H399.985V115.408H405.207V119.739H399.985V130.652C399.985 131.444 400.112 132.124 400.367 132.69C400.622 133.228 401.032 133.652 401.598 133.964C402.164 134.247 402.9 134.388 403.806 134.388C404.033 134.388 404.287 134.374 404.57 134.346C404.853 134.317 405.122 134.289 405.377 134.261V138.38C404.981 138.436 404.542 138.493 404.061 138.549C403.58 138.606 403.155 138.634 402.787 138.634Z" fill="white"/>
<path d="M412.098 147.763C411.531 147.763 410.965 147.707 410.399 147.594C409.861 147.509 409.366 147.367 408.913 147.169V143.05C409.253 143.135 409.663 143.206 410.144 143.263C410.626 143.348 411.093 143.39 411.546 143.39C412.876 143.39 413.853 143.093 414.475 142.498C415.127 141.932 415.707 141.04 416.216 139.823L417.745 136.341L417.66 140.375L407.724 115.408H412.862L420.208 134.558H418.467L425.77 115.408H430.95L420.802 140.885C420.264 142.244 419.585 143.432 418.764 144.451C417.971 145.499 417.023 146.306 415.919 146.872C414.843 147.466 413.57 147.763 412.098 147.763Z" fill="white"/>
<path d="M434.234 138.38V106.237H439.032V138.38H434.234Z" fill="white"/>
<path d="M455.427 138.889C453.134 138.889 451.096 138.365 449.313 137.318C447.558 136.242 446.185 134.799 445.194 132.987C444.203 131.147 443.708 129.095 443.708 126.83C443.708 124.509 444.203 122.457 445.194 120.673C446.213 118.89 447.572 117.489 449.27 116.47C450.969 115.422 452.894 114.899 455.045 114.899C456.772 114.899 458.314 115.196 459.673 115.79C461.032 116.385 462.178 117.206 463.113 118.253C464.047 119.272 464.754 120.447 465.236 121.777C465.745 123.108 466 124.523 466 126.023C466 126.391 465.986 126.774 465.957 127.17C465.929 127.566 465.873 127.934 465.788 128.274H447.487V124.452H463.07L460.777 126.193C461.06 124.806 460.961 123.575 460.48 122.499C460.027 121.395 459.319 120.532 458.357 119.909C457.423 119.258 456.319 118.932 455.045 118.932C453.771 118.932 452.639 119.258 451.648 119.909C450.657 120.532 449.893 121.438 449.355 122.627C448.817 123.787 448.605 125.202 448.718 126.873C448.577 128.43 448.789 129.788 449.355 130.949C449.95 132.109 450.771 133.015 451.818 133.666C452.894 134.317 454.111 134.643 455.47 134.643C456.857 134.643 458.031 134.332 458.994 133.709C459.985 133.086 460.763 132.279 461.329 131.289L465.236 133.199C464.783 134.275 464.075 135.252 463.113 136.129C462.178 136.978 461.046 137.658 459.716 138.167C458.414 138.648 456.984 138.889 455.427 138.889Z" fill="white"/>
<g opacity="0.1">
<path d="M725.005 590.048L1105.2 310V442.161L725.005 722.208V590.048Z" fill="white"/>
<path d="M1485.38 590.048L1105.19 310V442.161L1485.38 722.208V590.048Z" fill="white"/>
<path d="M725 834.532L1105.19 554.485V686.646L725 966.693V834.532Z" fill="white"/>
<path d="M1485.39 834.532L1105.2 554.485V686.646L1485.39 966.693V834.532Z" fill="white"/>
</g>
</g>
<defs>
<radialGradient id="paint0_radial_7955_77214" cx="0" cy="0" r="1" gradientUnits="userSpaceOnUse" gradientTransform="translate(544.5 429) rotate(38.2338) scale(693.196 673.952)">
<stop stop-color="#4F1D9E"/>
<stop offset="0.5" stop-opacity="0"/>
</radialGradient>
<radialGradient id="paint1_radial_7955_77214" cx="0" cy="0" r="1" gradientUnits="userSpaceOnUse" gradientTransform="translate(544.5 429) rotate(38.2338) scale(693.196 673.952)">
<stop stop-color="#1D979E"/>
<stop offset="1" stop-opacity="0"/>
</radialGradient>
<radialGradient id="paint2_radial_7955_77214" cx="0" cy="0" r="1" gradientUnits="userSpaceOnUse" gradientTransform="translate(544.5 429) rotate(38.2338) scale(693.196 673.952)">
<stop stop-color="#2AB4D9"/>
<stop offset="0.5" stop-opacity="0"/>
</radialGradient>
<radialGradient id="paint3_radial_7955_77214" cx="0" cy="0" r="1" gradientUnits="userSpaceOnUse" gradientTransform="translate(544.5 429) rotate(38.2338) scale(693.196 673.952)">
<stop stop-color="#2AB4D9"/>
<stop offset="0.6" stop-opacity="0"/>
</radialGradient>
<radialGradient id="paint4_radial_7955_77214" cx="0" cy="0" r="1" gradientUnits="userSpaceOnUse" gradientTransform="translate(544.5 429) rotate(38.2338) scale(693.196 673.952)">
<stop offset="0.3" stop-color="#4F1D9E"/>
<stop offset="0.8" stop-opacity="0"/>
</radialGradient>
<radialGradient id="paint5_radial_7955_77214" cx="0" cy="0" r="1" gradientUnits="userSpaceOnUse" gradientTransform="translate(536.5 423) rotate(38.2538) scale(683.199 664.344)">
<stop stop-color="#4F1D9E"/>
<stop offset="0.5" stop-opacity="0"/>
</radialGradient>
<radialGradient id="paint6_radial_7955_77214" cx="0" cy="0" r="1" gradientUnits="userSpaceOnUse" gradientTransform="translate(536.5 423) rotate(38.2538) scale(683.199 664.344)">
<stop stop-color="#1D979E"/>
<stop offset="1" stop-opacity="0"/>
</radialGradient>
<radialGradient id="paint7_radial_7955_77214" cx="0" cy="0" r="1" gradientUnits="userSpaceOnUse" gradientTransform="translate(536.5 423) rotate(38.2538) scale(683.199 664.344)">
<stop stop-color="#2AB4D9"/>
<stop offset="0.5" stop-opacity="0"/>
</radialGradient>
<radialGradient id="paint8_radial_7955_77214" cx="0" cy="0" r="1" gradientUnits="userSpaceOnUse" gradientTransform="translate(536.5 423) rotate(38.2538) scale(683.199 664.344)">
<stop stop-color="#2AB4D9"/>
<stop offset="0.6" stop-opacity="0"/>
</radialGradient>
<radialGradient id="paint9_radial_7955_77214" cx="0" cy="0" r="1" gradientUnits="userSpaceOnUse" gradientTransform="translate(536.5 423) rotate(38.2538) scale(683.199 664.344)">
<stop offset="0.3" stop-color="#4F1D9E"/>
<stop offset="0.8" stop-opacity="0"/>
</radialGradient>
<radialGradient id="paint10_radial_7955_77214" cx="0" cy="0" r="1" gradientUnits="userSpaceOnUse" gradientTransform="translate(729.645 575.049) rotate(38.2424) scale(929.012 903.286)">
<stop stop-color="#4F1D9E"/>
<stop offset="0.5" stop-opacity="0"/>
</radialGradient>
<radialGradient id="paint11_radial_7955_77214" cx="0" cy="0" r="1" gradientUnits="userSpaceOnUse" gradientTransform="translate(729.645 575.049) rotate(38.2424) scale(929.012 903.286)">
<stop stop-color="#1D979E"/>
<stop offset="1" stop-opacity="0"/>
</radialGradient>
<radialGradient id="paint12_radial_7955_77214" cx="0" cy="0" r="1" gradientUnits="userSpaceOnUse" gradientTransform="translate(729.645 575.049) rotate(38.2424) scale(929.012 903.286)">
<stop stop-color="#2AB4D9"/>
<stop offset="0.5" stop-opacity="0"/>
</radialGradient>
<radialGradient id="paint13_radial_7955_77214" cx="0" cy="0" r="1" gradientUnits="userSpaceOnUse" gradientTransform="translate(729.645 575.049) rotate(38.2424) scale(929.012 903.286)">
<stop stop-color="#2AB4D9"/>
<stop offset="0.6" stop-opacity="0"/>
</radialGradient>
<radialGradient id="paint14_radial_7955_77214" cx="0" cy="0" r="1" gradientUnits="userSpaceOnUse" gradientTransform="translate(729.645 575.049) rotate(38.2424) scale(929.012 903.286)">
<stop offset="0.3" stop-color="#4F1D9E"/>
<stop offset="0.8" stop-opacity="0"/>
</radialGradient>
<linearGradient id="paint15_linear_7955_77214" x1="1067.12" y1="453.955" x2="1067.12" y2="1234.41" gradientUnits="userSpaceOnUse">
<stop stop-color="#63A2DC" stop-opacity="0"/>
<stop offset="0.287409" stop-color="#63A2DC"/>
<stop offset="0.471153" stop-color="#63A2DC" stop-opacity="0.24504"/>
<stop offset="0.840574" stop-color="#63A2DC" stop-opacity="0"/>
</linearGradient>
<linearGradient id="paint16_linear_7955_77214" x1="1200.25" y1="276.096" x2="1200.25" y2="1056.55" gradientUnits="userSpaceOnUse">
<stop stop-color="#63A2DC" stop-opacity="0"/>
<stop offset="0.287409" stop-color="#63A2DC"/>
<stop offset="0.471153" stop-color="#63A2DC" stop-opacity="0.24504"/>
<stop offset="0.840574" stop-color="#63A2DC" stop-opacity="0"/>
</linearGradient>
<linearGradient id="paint17_linear_7955_77214" x1="1067.12" y1="526.604" x2="1067.12" y2="1307.06" gradientUnits="userSpaceOnUse">
<stop offset="0.402056" stop-color="#63BDC3" stop-opacity="0"/>
<stop offset="0.765238" stop-color="#63BDC3"/>
<stop offset="1" stop-color="#63BDC3" stop-opacity="0"/>
</linearGradient>
<linearGradient id="paint18_linear_7955_77214" x1="1067.12" y1="687.81" x2="1067.12" y2="1132.7" gradientUnits="userSpaceOnUse">
<stop offset="0.184672" stop-color="#63BDC3" stop-opacity="0"/>
<stop offset="0.67064" stop-color="#63BDC3"/>
<stop offset="1" stop-color="#63BDC3" stop-opacity="0"/>
</linearGradient>
<linearGradient id="paint19_linear_7955_77214" x1="780.696" y1="194.91" x2="780.696" y2="975.362" gradientUnits="userSpaceOnUse">
<stop offset="0.269769" stop-color="#DE5E85" stop-opacity="0"/>
<stop offset="0.769063" stop-color="#DE5E85"/>
<stop offset="1" stop-color="#DE5E85" stop-opacity="0"/>
</linearGradient>
<linearGradient id="paint20_linear_7955_77214" x1="0.275195" y1="0" x2="0.275195" y2="450.928" gradientUnits="userSpaceOnUse">
<stop offset="0.269769" stop-color="#DE5E85" stop-opacity="0"/>
<stop offset="0.769063" stop-color="#DE5E85"/>
<stop offset="1" stop-color="#DE5E85" stop-opacity="0"/>
</linearGradient>
<linearGradient id="paint21_linear_7955_77214" x1="0.275195" y1="0" x2="0.275195" y2="450.928" gradientUnits="userSpaceOnUse">
<stop offset="0.274492" stop-color="#B063C3" stop-opacity="0"/>
<stop offset="0.639592" stop-color="#B063C3"/>
<stop offset="1" stop-color="#B063C3" stop-opacity="0"/>
</linearGradient>
<linearGradient id="paint22_linear_7955_77214" x1="788.65" y1="149.322" x2="788.65" y2="600.25" gradientUnits="userSpaceOnUse">
<stop offset="0.31182" stop-color="#63BDC3" stop-opacity="0"/>
<stop offset="0.681076" stop-color="#63BDC3"/>
<stop offset="1" stop-color="#63BDC3" stop-opacity="0"/>
</linearGradient>
<linearGradient id="paint23_linear_7955_77214" x1="836.533" y1="149.322" x2="836.533" y2="600.25" gradientUnits="userSpaceOnUse">
<stop stop-color="#63BDC3" stop-opacity="0"/>
<stop offset="0.130208" stop-color="#63BDC3"/>
<stop offset="1" stop-color="#63BDC3" stop-opacity="0"/>
</linearGradient>
<linearGradient id="paint24_linear_7955_77214" x1="996.148" y1="149.322" x2="996.148" y2="600.25" gradientUnits="userSpaceOnUse">
<stop stop-color="#63BDC3" stop-opacity="0"/>
<stop offset="0.515626" stop-color="#63BDC3"/>
<stop offset="1" stop-color="#63BDC3" stop-opacity="0"/>
</linearGradient>
<linearGradient id="paint25_linear_7955_77214" x1="61.1262" y1="33.7519" x2="145.648" y2="187.213" gradientUnits="userSpaceOnUse">
<stop stop-color="#066B8B"/>
<stop offset="0.885432" stop-color="#4CCCB5"/>
</linearGradient>
<clipPath id="clip0_7955_77214">
<rect width="1200" height="600" fill="white"/>
</clipPath>
</defs>
</svg>
