<svg width="1200" height="600" viewBox="0 0 1200 600" fill="none" xmlns="http://www.w3.org/2000/svg">
<g clip-path="url(#clip0_6755_60524)">
<rect width="1200" height="600" fill="black"/>
<g opacity="0.2">
<rect width="1089" height="858" transform="translate(-692 -90)" fill="url(#paint0_radial_6755_60524)" fill-opacity="0.4"/>
<rect width="1089" height="858" transform="translate(-692 -90)" fill="url(#paint1_radial_6755_60524)" fill-opacity="0.4"/>
<rect width="1089" height="858" transform="translate(-692 -90)" fill="url(#paint2_radial_6755_60524)" fill-opacity="0.4"/>
<rect width="1089" height="858" transform="translate(-692 -90)" fill="url(#paint3_radial_6755_60524)" fill-opacity="0.4"/>
<rect width="1089" height="858" transform="translate(-692 -90)" fill="url(#paint4_radial_6755_60524)" fill-opacity="0.4"/>
</g>
<g opacity="0.2">
<rect width="1073" height="846" transform="translate(401 301)" fill="url(#paint5_radial_6755_60524)" fill-opacity="0.4"/>
<rect width="1073" height="846" transform="translate(401 301)" fill="url(#paint6_radial_6755_60524)" fill-opacity="0.4"/>
<rect width="1073" height="846" transform="translate(401 301)" fill="url(#paint7_radial_6755_60524)" fill-opacity="0.4"/>
<rect width="1073" height="846" transform="translate(401 301)" fill="url(#paint8_radial_6755_60524)" fill-opacity="0.4"/>
<rect width="1073" height="846" transform="translate(401 301)" fill="url(#paint9_radial_6755_60524)" fill-opacity="0.4"/>
</g>
<g opacity="0.5">
<rect width="1459.29" height="1150.1" transform="translate(-130 -550)" fill="url(#paint10_radial_6755_60524)" fill-opacity="0.4"/>
<rect width="1459.29" height="1150.1" transform="translate(-130 -550)" fill="url(#paint11_radial_6755_60524)" fill-opacity="0.4"/>
<rect width="1459.29" height="1150.1" transform="translate(-130 -550)" fill="url(#paint12_radial_6755_60524)" fill-opacity="0.4"/>
<rect width="1459.29" height="1150.1" transform="translate(-130 -550)" fill="url(#paint13_radial_6755_60524)" fill-opacity="0.4"/>
<rect width="1459.29" height="1150.1" transform="translate(-130 -550)" fill="url(#paint14_radial_6755_60524)" fill-opacity="0.4"/>
</g>
<g opacity="0.5">
<rect x="1066.87" y="453.955" width="0.501051" height="780.452" transform="rotate(90 1066.87 453.955)" fill="url(#paint15_linear_6755_60524)" fill-opacity="0.56"/>
<rect x="1200" y="276.096" width="0.501051" height="780.452" transform="rotate(90 1200 276.096)" fill="url(#paint16_linear_6755_60524)" fill-opacity="0.56"/>
<rect x="1066.87" y="584.723" width="0.501051" height="780.452" transform="rotate(90 1066.87 584.723)" fill="#8395BC" fill-opacity="0.1"/>
<rect x="1066.87" y="526.603" width="0.501051" height="780.452" transform="rotate(90 1066.87 526.603)" fill="url(#paint17_linear_6755_60524)" fill-opacity="0.48"/>
<rect x="1066.87" y="570.193" width="0.501051" height="780.452" transform="rotate(90 1066.87 570.193)" fill="#8395BC" fill-opacity="0.1"/>
<rect x="1066.87" y="352.246" width="0.501051" height="780.452" transform="rotate(90 1066.87 352.246)" fill="url(#paint18_linear_6755_60524)" fill-opacity="0.48"/>
<rect x="1066.87" y="420.824" width="0.501051" height="780.452" transform="rotate(90 1066.87 420.824)" fill="#8395BC" fill-opacity="0.1"/>
<rect x="1066.87" y="235.256" width="0.501051" height="780.452" transform="rotate(90 1066.87 235.256)" fill="#8395BC" fill-opacity="0.1"/>
<rect x="1066.87" y="489.406" width="0.501051" height="780.452" transform="rotate(90 1066.87 489.406)" fill="#8395BC" fill-opacity="0.1"/>
<rect x="780.445" y="194.91" width="0.501051" height="780.452" transform="rotate(90 780.445 194.91)" fill="url(#paint19_linear_6755_60524)" fill-opacity="0.48"/>
<rect x="571.199" y="113.418" width="0.550389" height="450.928" fill="#8395BC" fill-opacity="0.1"/>
<rect x="737.148" y="113.418" width="0.550389" height="450.928" fill="#8395BC" fill-opacity="0.1"/>
<rect x="293.574" y="149.322" width="0.550389" height="450.928" fill="#8395BC" fill-opacity="0.1"/>
<rect x="309.533" y="149.32" width="0.550389" height="450.928" fill="#8395BC" fill-opacity="0.1"/>
<rect x="325.498" y="149.32" width="0.550389" height="450.928" fill="#8395BC" fill-opacity="0.1"/>
<rect width="0.550389" height="450.928" transform="matrix(1 0 0 -1 396.887 600.252)" fill="url(#paint20_linear_6755_60524)" fill-opacity="0.48"/>
<rect width="0.550389" height="450.928" transform="matrix(1 0 0 -1 461.98 600.252)" fill="url(#paint21_linear_6755_60524)" fill-opacity="0.56"/>
<rect x="788.375" y="149.322" width="0.550389" height="450.928" fill="url(#paint22_linear_6755_60524)" fill-opacity="0.48"/>
<rect x="836.258" y="149.322" width="0.550389" height="450.928" fill="url(#paint23_linear_6755_60524)" fill-opacity="0.44"/>
<rect x="995.873" y="149.322" width="0.550389" height="450.928" fill="url(#paint24_linear_6755_60524)" fill-opacity="0.48"/>
<rect x="1027.79" y="149.32" width="0.550389" height="450.928" fill="#8395BC" fill-opacity="0.1"/>
<rect x="1043.75" y="149.32" width="0.550389" height="450.928" fill="#8395BC" fill-opacity="0.1"/>
<rect x="1059.71" y="149.32" width="0.550389" height="450.928" fill="#8395BC" fill-opacity="0.1"/>
</g>
<path d="M361.78 352.389C358.492 352.389 355.455 351.859 352.669 350.8C349.883 349.742 347.487 348.265 345.481 346.37C343.475 344.532 341.97 342.358 340.967 339.851L349.66 336.257C350.44 338.374 351.861 340.13 353.923 341.523C356.04 342.916 358.631 343.612 361.696 343.612C364.092 343.612 366.238 343.139 368.132 342.191C370.027 341.3 371.531 339.962 372.646 338.179C373.76 336.452 374.317 334.362 374.317 331.91V321.713L375.989 323.636C374.429 326.533 372.256 328.734 369.47 330.239C366.739 331.743 363.647 332.495 360.192 332.495C356.013 332.495 352.251 331.52 348.908 329.57C345.564 327.62 342.918 324.945 340.967 321.546C339.073 318.147 338.125 314.33 338.125 310.095C338.125 305.804 339.073 301.987 340.967 298.644C342.918 295.3 345.537 292.654 348.824 290.703C352.112 288.753 355.873 287.778 360.108 287.778C363.563 287.778 366.628 288.53 369.302 290.035C372.033 291.483 374.262 293.601 375.989 296.387L374.735 298.727V288.781H383.679V331.91C383.679 335.811 382.732 339.294 380.837 342.358C378.998 345.479 376.435 347.931 373.147 349.714C369.86 351.497 366.07 352.389 361.78 352.389ZM361.278 323.719C363.786 323.719 366.015 323.134 367.965 321.964C369.915 320.738 371.448 319.122 372.562 317.116C373.732 315.054 374.317 312.742 374.317 310.178C374.317 307.615 373.732 305.303 372.562 303.241C371.392 301.179 369.832 299.563 367.881 298.393C365.931 297.167 363.73 296.554 361.278 296.554C358.715 296.554 356.43 297.167 354.424 298.393C352.418 299.563 350.83 301.179 349.66 303.241C348.546 305.247 347.988 307.559 347.988 310.178C347.988 312.686 348.546 314.971 349.66 317.032C350.83 319.094 352.418 320.738 354.424 321.964C356.43 323.134 358.715 323.719 361.278 323.719ZM394.735 334V270.727H404.18V334H394.735ZM431.355 335.003C427.956 335.003 424.974 334.251 422.411 332.746C419.848 331.186 417.842 329.041 416.393 326.31C415 323.524 414.303 320.32 414.303 316.698V288.781H423.748V315.862C423.748 317.924 424.166 319.735 425.002 321.295C425.838 322.855 427.008 324.081 428.513 324.973C430.017 325.809 431.745 326.227 433.695 326.227C435.701 326.227 437.456 325.781 438.961 324.889C440.465 323.998 441.635 322.744 442.471 321.128C443.363 319.512 443.809 317.617 443.809 315.444V288.781H453.17V334H444.227V325.14L445.23 326.31C444.171 329.096 442.416 331.242 439.964 332.746C437.512 334.251 434.642 335.003 431.355 335.003ZM485.428 335.003C480.915 335.003 476.903 333.972 473.392 331.91C469.937 329.793 467.235 326.951 465.285 323.385C463.334 319.763 462.359 315.723 462.359 311.265C462.359 306.696 463.334 302.656 465.285 299.145C467.291 295.635 469.965 292.877 473.309 290.87C476.652 288.809 480.441 287.778 484.676 287.778C488.075 287.778 491.112 288.363 493.787 289.533C496.462 290.703 498.718 292.319 500.557 294.381C502.396 296.387 503.789 298.7 504.736 301.319C505.739 303.938 506.241 306.724 506.241 309.677C506.241 310.401 506.213 311.154 506.157 311.934C506.102 312.714 505.99 313.438 505.823 314.107H469.798V306.584H500.474L495.96 310.011C496.517 307.281 496.322 304.857 495.375 302.739C494.483 300.566 493.09 298.867 491.196 297.641C489.357 296.359 487.184 295.718 484.676 295.718C482.169 295.718 479.94 296.359 477.989 297.641C476.039 298.867 474.535 300.65 473.476 302.99C472.417 305.275 471.999 308.061 472.222 311.349C471.943 314.413 472.361 317.088 473.476 319.373C474.646 321.657 476.262 323.441 478.324 324.722C480.441 326.004 482.837 326.645 485.512 326.645C488.242 326.645 490.555 326.032 492.449 324.806C494.4 323.58 495.932 321.992 497.047 320.041L504.736 323.803C503.845 325.92 502.452 327.843 500.557 329.57C498.718 331.242 496.489 332.579 493.87 333.582C491.307 334.529 488.493 335.003 485.428 335.003ZM532.176 335.003C527.551 335.003 523.483 333.861 519.972 331.576C516.517 329.291 514.093 326.227 512.7 322.382L519.972 318.955C521.198 321.518 522.87 323.552 524.987 325.056C527.16 326.561 529.557 327.313 532.176 327.313C534.404 327.313 536.215 326.812 537.609 325.809C539.002 324.806 539.698 323.441 539.698 321.713C539.698 320.599 539.392 319.707 538.779 319.038C538.166 318.314 537.386 317.729 536.438 317.283C535.547 316.837 534.627 316.503 533.68 316.28L526.575 314.274C522.675 313.16 519.749 311.488 517.799 309.259C515.904 306.974 514.957 304.328 514.957 301.319C514.957 298.588 515.654 296.22 517.047 294.214C518.44 292.152 520.362 290.564 522.814 289.45C525.266 288.335 528.024 287.778 531.089 287.778C535.212 287.778 538.89 288.809 542.122 290.87C545.354 292.877 547.639 295.691 548.976 299.313L541.704 302.739C540.813 300.566 539.392 298.839 537.441 297.557C535.547 296.276 533.401 295.635 531.005 295.635C528.944 295.635 527.3 296.136 526.074 297.139C524.848 298.087 524.235 299.34 524.235 300.901C524.235 301.959 524.514 302.851 525.071 303.575C525.628 304.244 526.353 304.801 527.244 305.247C528.136 305.637 529.055 305.971 530.002 306.25L537.358 308.423C541.091 309.482 543.961 311.154 545.967 313.438C547.973 315.667 548.976 318.342 548.976 321.462C548.976 324.137 548.252 326.505 546.803 328.567C545.41 330.573 543.459 332.161 540.952 333.331C538.444 334.446 535.519 335.003 532.176 335.003ZM577.789 334.502C573.053 334.502 569.375 333.164 566.756 330.489C564.137 327.815 562.827 324.053 562.827 319.206V297.306H554.887V288.781H556.141C558.258 288.781 559.902 288.168 561.072 286.942C562.242 285.716 562.827 284.044 562.827 281.927V278.416H572.273V288.781H582.553V297.306H572.273V318.788C572.273 320.348 572.523 321.685 573.025 322.8C573.526 323.858 574.334 324.694 575.449 325.307C576.563 325.864 578.012 326.143 579.795 326.143C580.241 326.143 580.742 326.115 581.3 326.059C581.857 326.004 582.386 325.948 582.888 325.892V334C582.108 334.111 581.244 334.223 580.297 334.334C579.349 334.446 578.513 334.502 577.789 334.502ZM605.237 335.003C602.173 335.003 599.47 334.474 597.13 333.415C594.845 332.3 593.062 330.796 591.78 328.901C590.499 326.951 589.858 324.666 589.858 322.047C589.858 319.596 590.387 317.395 591.446 315.444C592.56 313.494 594.26 311.85 596.545 310.513C598.829 309.175 601.699 308.228 605.154 307.671L620.868 305.08V312.519L606.993 314.943C604.485 315.389 602.646 316.197 601.476 317.367C600.306 318.481 599.721 319.93 599.721 321.713C599.721 323.441 600.362 324.861 601.643 325.976C602.981 327.035 604.68 327.564 606.742 327.564C609.305 327.564 611.534 327.007 613.429 325.892C615.379 324.778 616.883 323.301 617.942 321.462C619.001 319.568 619.53 317.478 619.53 315.194V303.575C619.53 301.346 618.694 299.535 617.023 298.142C615.407 296.694 613.234 295.969 610.503 295.969C607.996 295.969 605.795 296.638 603.9 297.975C602.061 299.257 600.696 300.928 599.804 302.99L591.947 299.062C592.783 296.833 594.149 294.883 596.043 293.211C597.938 291.483 600.139 290.146 602.646 289.199C605.21 288.252 607.912 287.778 610.754 287.778C614.32 287.778 617.469 288.447 620.199 289.784C622.985 291.121 625.13 292.988 626.635 295.384C628.195 297.724 628.975 300.455 628.975 303.575V334H619.948V325.809L621.871 326.059C620.812 327.898 619.447 329.486 617.775 330.824C616.159 332.161 614.292 333.192 612.175 333.916C610.113 334.641 607.801 335.003 605.237 335.003ZM661.5 335.003C656.986 335.003 652.974 333.972 649.464 331.91C646.009 329.793 643.251 326.951 641.189 323.385C639.183 319.819 638.18 315.779 638.18 311.265C638.18 306.807 639.183 302.795 641.189 299.229C643.195 295.663 645.953 292.877 649.464 290.87C652.974 288.809 656.986 287.778 661.5 287.778C664.565 287.778 667.435 288.335 670.109 289.45C672.784 290.508 675.096 291.985 677.047 293.88C679.053 295.774 680.529 297.975 681.477 300.483L673.202 304.328C672.255 301.987 670.722 300.12 668.605 298.727C666.543 297.279 664.175 296.554 661.5 296.554C658.937 296.554 656.624 297.195 654.563 298.477C652.557 299.703 650.968 301.458 649.798 303.742C648.628 305.971 648.043 308.507 648.043 311.349C648.043 314.191 648.628 316.754 649.798 319.038C650.968 321.267 652.557 323.023 654.563 324.304C656.624 325.586 658.937 326.227 661.5 326.227C664.23 326.227 666.599 325.53 668.605 324.137C670.666 322.688 672.199 320.766 673.202 318.37L681.477 322.298C680.585 324.694 679.136 326.867 677.13 328.818C675.18 330.712 672.868 332.217 670.193 333.331C667.518 334.446 664.621 335.003 661.5 335.003ZM690.708 334V270.727H700.153V313.104L696.476 312.184L719.127 288.781H730.912L713.861 306.919L731.664 334H720.799L704.918 310.011L710.518 309.259L697.144 323.468L700.153 317.2V334H690.708ZM739.553 315.528V307.169H772.987V315.528H739.553ZM802.192 335.003C797.567 335.003 793.499 333.861 789.989 331.576C786.534 329.291 784.11 326.227 782.717 322.382L789.989 318.955C791.215 321.518 792.886 323.552 795.004 325.056C797.177 326.561 799.573 327.313 802.192 327.313C804.421 327.313 806.232 326.812 807.625 325.809C809.018 324.806 809.715 323.441 809.715 321.713C809.715 320.599 809.408 319.707 808.795 319.038C808.182 318.314 807.402 317.729 806.455 317.283C805.563 316.837 804.644 316.503 803.697 316.28L796.592 314.274C792.691 313.16 789.766 311.488 787.816 309.259C785.921 306.974 784.974 304.328 784.974 301.319C784.974 298.588 785.67 296.22 787.063 294.214C788.456 292.152 790.379 290.564 792.831 289.45C795.282 288.335 798.041 287.778 801.105 287.778C805.229 287.778 808.907 288.809 812.139 290.87C815.37 292.877 817.655 295.691 818.992 299.313L811.721 302.739C810.829 300.566 809.408 298.839 807.458 297.557C805.563 296.276 803.418 295.635 801.022 295.635C798.96 295.635 797.316 296.136 796.09 297.139C794.864 298.087 794.252 299.34 794.252 300.901C794.252 301.959 794.53 302.851 795.087 303.575C795.645 304.244 796.369 304.801 797.261 305.247C798.152 305.637 799.072 305.971 800.019 306.25L807.374 308.423C811.108 309.482 813.977 311.154 815.983 313.438C817.989 315.667 818.992 318.342 818.992 321.462C818.992 324.137 818.268 326.505 816.819 328.567C815.426 330.573 813.476 332.161 810.968 333.331C808.461 334.446 805.535 335.003 802.192 335.003ZM847.806 334.502C843.069 334.502 839.391 333.164 836.772 330.489C834.153 327.815 832.844 324.053 832.844 319.206V297.306H824.903V288.781H826.157C828.275 288.781 829.918 288.168 831.089 286.942C832.259 285.716 832.844 284.044 832.844 281.927V278.416H842.289V288.781H852.57V297.306H842.289V318.788C842.289 320.348 842.54 321.685 843.041 322.8C843.543 323.858 844.351 324.694 845.465 325.307C846.58 325.864 848.028 326.143 849.812 326.143C850.257 326.143 850.759 326.115 851.316 326.059C851.873 326.004 852.403 325.948 852.904 325.892V334C852.124 334.111 851.26 334.223 850.313 334.334C849.366 334.446 848.53 334.502 847.806 334.502ZM866.133 352.472C865.019 352.472 863.904 352.361 862.79 352.138C861.731 351.971 860.756 351.692 859.865 351.302V343.194C860.533 343.361 861.341 343.501 862.288 343.612C863.236 343.779 864.155 343.863 865.047 343.863C867.666 343.863 869.588 343.278 870.814 342.108C872.096 340.993 873.238 339.238 874.241 336.842L877.25 329.988L877.083 337.928L857.524 288.781H867.638L882.098 326.477H878.671L893.047 288.781H903.245L883.268 338.931C882.209 341.606 880.872 343.947 879.256 345.953C877.696 348.014 875.829 349.602 873.656 350.717C871.538 351.887 869.031 352.472 866.133 352.472ZM909.709 334V270.727H919.154V334H909.709ZM951.427 335.003C946.914 335.003 942.902 333.972 939.391 331.91C935.936 329.793 933.234 326.951 931.283 323.385C929.333 319.763 928.358 315.723 928.358 311.265C928.358 306.696 929.333 302.656 931.283 299.145C933.289 295.635 935.964 292.877 939.307 290.87C942.651 288.809 946.44 287.778 950.675 287.778C954.074 287.778 957.111 288.363 959.786 289.533C962.46 290.703 964.717 292.319 966.556 294.381C968.395 296.387 969.788 298.7 970.735 301.319C971.738 303.938 972.24 306.724 972.24 309.677C972.24 310.401 972.212 311.154 972.156 311.934C972.1 312.714 971.989 313.438 971.822 314.107H935.797V306.584H966.472L961.959 310.011C962.516 307.281 962.321 304.857 961.374 302.739C960.482 300.566 959.089 298.867 957.195 297.641C955.356 296.359 953.182 295.718 950.675 295.718C948.167 295.718 945.939 296.359 943.988 297.641C942.038 298.867 940.533 300.65 939.475 302.99C938.416 305.275 937.998 308.061 938.221 311.349C937.942 314.413 938.36 317.088 939.475 319.373C940.645 321.657 942.261 323.441 944.323 324.722C946.44 326.004 948.836 326.645 951.511 326.645C954.241 326.645 956.554 326.032 958.448 324.806C960.399 323.58 961.931 321.992 963.045 320.041L970.735 323.803C969.844 325.92 968.451 327.843 966.556 329.57C964.717 331.242 962.488 332.579 959.869 333.582C957.306 334.529 954.492 335.003 951.427 335.003Z" fill="white"/>
<rect x="223" y="258" width="25.0745" height="25.0745" rx="3.48268" fill="#262626"/>
<rect x="223" y="287.256" width="25.0745" height="25.0745" rx="3.48268" fill="#262626"/>
<rect x="223" y="316.509" width="25.0745" height="25.0745" rx="3.48268" fill="#262626"/>
<rect x="252.256" y="258" width="25.0745" height="25.0745" rx="3.48268" fill="#262626"/>
<rect x="252.256" y="287.256" width="25.0745" height="25.0745" rx="3.48268" fill="#262626"/>
<rect x="252.256" y="316.509" width="25.0745" height="25.0745" rx="3.48268" fill="#262626"/>
<rect x="281.506" y="258" width="25.0745" height="25.0745" rx="3.48268" fill="#262626"/>
<rect x="281.506" y="287.256" width="25.0745" height="25.0745" rx="3.48268" fill="#262626"/>
<rect x="281.506" y="316.509" width="25.0745" height="25.0745" rx="3.48268" fill="#262626"/>
<path d="M262.577 295.912L267.651 272.629L245.987 303.673H264.919L259.844 326.957L281.509 295.912H262.577Z" fill="#262626" stroke="#1A91FF" stroke-width="2.17667" stroke-linecap="round" stroke-linejoin="round"/>
</g>
<defs>
<radialGradient id="paint0_radial_6755_60524" cx="0" cy="0" r="1" gradientUnits="userSpaceOnUse" gradientTransform="translate(544.5 429) rotate(38.2338) scale(693.196 673.952)">
<stop stop-color="#4F1D9E"/>
<stop offset="0.5" stop-opacity="0"/>
</radialGradient>
<radialGradient id="paint1_radial_6755_60524" cx="0" cy="0" r="1" gradientUnits="userSpaceOnUse" gradientTransform="translate(544.5 429) rotate(38.2338) scale(693.196 673.952)">
<stop stop-color="#1D979E"/>
<stop offset="1" stop-opacity="0"/>
</radialGradient>
<radialGradient id="paint2_radial_6755_60524" cx="0" cy="0" r="1" gradientUnits="userSpaceOnUse" gradientTransform="translate(544.5 429) rotate(38.2338) scale(693.196 673.952)">
<stop stop-color="#2AB4D9"/>
<stop offset="0.5" stop-opacity="0"/>
</radialGradient>
<radialGradient id="paint3_radial_6755_60524" cx="0" cy="0" r="1" gradientUnits="userSpaceOnUse" gradientTransform="translate(544.5 429) rotate(38.2338) scale(693.196 673.952)">
<stop stop-color="#2AB4D9"/>
<stop offset="0.6" stop-opacity="0"/>
</radialGradient>
<radialGradient id="paint4_radial_6755_60524" cx="0" cy="0" r="1" gradientUnits="userSpaceOnUse" gradientTransform="translate(544.5 429) rotate(38.2338) scale(693.196 673.952)">
<stop offset="0.3" stop-color="#4F1D9E"/>
<stop offset="0.8" stop-opacity="0"/>
</radialGradient>
<radialGradient id="paint5_radial_6755_60524" cx="0" cy="0" r="1" gradientUnits="userSpaceOnUse" gradientTransform="translate(536.5 423) rotate(38.2538) scale(683.199 664.344)">
<stop stop-color="#4F1D9E"/>
<stop offset="0.5" stop-opacity="0"/>
</radialGradient>
<radialGradient id="paint6_radial_6755_60524" cx="0" cy="0" r="1" gradientUnits="userSpaceOnUse" gradientTransform="translate(536.5 423) rotate(38.2538) scale(683.199 664.344)">
<stop stop-color="#1D979E"/>
<stop offset="1" stop-opacity="0"/>
</radialGradient>
<radialGradient id="paint7_radial_6755_60524" cx="0" cy="0" r="1" gradientUnits="userSpaceOnUse" gradientTransform="translate(536.5 423) rotate(38.2538) scale(683.199 664.344)">
<stop stop-color="#2AB4D9"/>
<stop offset="0.5" stop-opacity="0"/>
</radialGradient>
<radialGradient id="paint8_radial_6755_60524" cx="0" cy="0" r="1" gradientUnits="userSpaceOnUse" gradientTransform="translate(536.5 423) rotate(38.2538) scale(683.199 664.344)">
<stop stop-color="#2AB4D9"/>
<stop offset="0.6" stop-opacity="0"/>
</radialGradient>
<radialGradient id="paint9_radial_6755_60524" cx="0" cy="0" r="1" gradientUnits="userSpaceOnUse" gradientTransform="translate(536.5 423) rotate(38.2538) scale(683.199 664.344)">
<stop offset="0.3" stop-color="#4F1D9E"/>
<stop offset="0.8" stop-opacity="0"/>
</radialGradient>
<radialGradient id="paint10_radial_6755_60524" cx="0" cy="0" r="1" gradientUnits="userSpaceOnUse" gradientTransform="translate(729.645 575.049) rotate(38.2424) scale(929.012 903.286)">
<stop stop-color="#4F1D9E"/>
<stop offset="0.5" stop-opacity="0"/>
</radialGradient>
<radialGradient id="paint11_radial_6755_60524" cx="0" cy="0" r="1" gradientUnits="userSpaceOnUse" gradientTransform="translate(729.645 575.049) rotate(38.2424) scale(929.012 903.286)">
<stop stop-color="#1D979E"/>
<stop offset="1" stop-opacity="0"/>
</radialGradient>
<radialGradient id="paint12_radial_6755_60524" cx="0" cy="0" r="1" gradientUnits="userSpaceOnUse" gradientTransform="translate(729.645 575.049) rotate(38.2424) scale(929.012 903.286)">
<stop stop-color="#2AB4D9"/>
<stop offset="0.5" stop-opacity="0"/>
</radialGradient>
<radialGradient id="paint13_radial_6755_60524" cx="0" cy="0" r="1" gradientUnits="userSpaceOnUse" gradientTransform="translate(729.645 575.049) rotate(38.2424) scale(929.012 903.286)">
<stop stop-color="#2AB4D9"/>
<stop offset="0.6" stop-opacity="0"/>
</radialGradient>
<radialGradient id="paint14_radial_6755_60524" cx="0" cy="0" r="1" gradientUnits="userSpaceOnUse" gradientTransform="translate(729.645 575.049) rotate(38.2424) scale(929.012 903.286)">
<stop offset="0.3" stop-color="#4F1D9E"/>
<stop offset="0.8" stop-opacity="0"/>
</radialGradient>
<linearGradient id="paint15_linear_6755_60524" x1="1067.12" y1="453.955" x2="1067.12" y2="1234.41" gradientUnits="userSpaceOnUse">
<stop stop-color="#63A2DC" stop-opacity="0"/>
<stop offset="0.287409" stop-color="#63A2DC"/>
<stop offset="0.471153" stop-color="#63A2DC" stop-opacity="0.24504"/>
<stop offset="0.840574" stop-color="#63A2DC" stop-opacity="0"/>
</linearGradient>
<linearGradient id="paint16_linear_6755_60524" x1="1200.25" y1="276.096" x2="1200.25" y2="1056.55" gradientUnits="userSpaceOnUse">
<stop stop-color="#63A2DC" stop-opacity="0"/>
<stop offset="0.287409" stop-color="#63A2DC"/>
<stop offset="0.471153" stop-color="#63A2DC" stop-opacity="0.24504"/>
<stop offset="0.840574" stop-color="#63A2DC" stop-opacity="0"/>
</linearGradient>
<linearGradient id="paint17_linear_6755_60524" x1="1067.12" y1="526.603" x2="1067.12" y2="1307.06" gradientUnits="userSpaceOnUse">
<stop offset="0.402056" stop-color="#63BDC3" stop-opacity="0"/>
<stop offset="0.765238" stop-color="#63BDC3"/>
<stop offset="1" stop-color="#63BDC3" stop-opacity="0"/>
</linearGradient>
<linearGradient id="paint18_linear_6755_60524" x1="1067.12" y1="687.81" x2="1067.12" y2="1132.7" gradientUnits="userSpaceOnUse">
<stop offset="0.184672" stop-color="#63BDC3" stop-opacity="0"/>
<stop offset="0.67064" stop-color="#63BDC3"/>
<stop offset="1" stop-color="#63BDC3" stop-opacity="0"/>
</linearGradient>
<linearGradient id="paint19_linear_6755_60524" x1="780.696" y1="194.91" x2="780.696" y2="975.362" gradientUnits="userSpaceOnUse">
<stop offset="0.269769" stop-color="#DE5E85" stop-opacity="0"/>
<stop offset="0.769063" stop-color="#DE5E85"/>
<stop offset="1" stop-color="#DE5E85" stop-opacity="0"/>
</linearGradient>
<linearGradient id="paint20_linear_6755_60524" x1="0.275195" y1="0" x2="0.275195" y2="450.928" gradientUnits="userSpaceOnUse">
<stop offset="0.269769" stop-color="#DE5E85" stop-opacity="0"/>
<stop offset="0.769063" stop-color="#DE5E85"/>
<stop offset="1" stop-color="#DE5E85" stop-opacity="0"/>
</linearGradient>
<linearGradient id="paint21_linear_6755_60524" x1="0.275195" y1="0" x2="0.275195" y2="450.928" gradientUnits="userSpaceOnUse">
<stop offset="0.274492" stop-color="#B063C3" stop-opacity="0"/>
<stop offset="0.639592" stop-color="#B063C3"/>
<stop offset="1" stop-color="#B063C3" stop-opacity="0"/>
</linearGradient>
<linearGradient id="paint22_linear_6755_60524" x1="788.65" y1="149.322" x2="788.65" y2="600.25" gradientUnits="userSpaceOnUse">
<stop offset="0.31182" stop-color="#63BDC3" stop-opacity="0"/>
<stop offset="0.681076" stop-color="#63BDC3"/>
<stop offset="1" stop-color="#63BDC3" stop-opacity="0"/>
</linearGradient>
<linearGradient id="paint23_linear_6755_60524" x1="836.533" y1="149.322" x2="836.533" y2="600.25" gradientUnits="userSpaceOnUse">
<stop stop-color="#63BDC3" stop-opacity="0"/>
<stop offset="0.130208" stop-color="#63BDC3"/>
<stop offset="1" stop-color="#63BDC3" stop-opacity="0"/>
</linearGradient>
<linearGradient id="paint24_linear_6755_60524" x1="996.148" y1="149.322" x2="996.148" y2="600.25" gradientUnits="userSpaceOnUse">
<stop stop-color="#63BDC3" stop-opacity="0"/>
<stop offset="0.515626" stop-color="#63BDC3"/>
<stop offset="1" stop-color="#63BDC3" stop-opacity="0"/>
</linearGradient>
<clipPath id="clip0_6755_60524">
<rect width="1200" height="600" fill="white"/>
</clipPath>
</defs>
</svg>
