<?xml version="1.0" encoding="utf-8"?>
<!-- Generator: Adobe Illustrator 27.1.0, SVG Export Plug-In . SVG Version: 6.00 Build 0)  -->
<svg version="1.1" id="Layer_1" xmlns="http://www.w3.org/2000/svg" xmlns:xlink="http://www.w3.org/1999/xlink" x="0px" y="0px"
	 viewBox="0 0 1168.37 334.97" style="enable-background:new 0 0 1168.37 334.97;" xml:space="preserve">
<style type="text/css">
	.st0{fill:none;}
	.st1{fill:#4B579B;}
	.st2{fill:#78AF53;}
	.st3{fill:#8437EC;}
	.st4{fill:#404040;}
	.st5{fill:#00ACB4;}
	.st6{fill:#5158F5;}
	.st7{fill:#FFFFFF;}
	.st8{clip-path:url(#SVGID_00000041990420229182052190000007143553174119037093_);fill:#4B579B;}
	.st9{clip-path:url(#SVGID_00000041990420229182052190000007143553174119037093_);}
	.st10{fill:#709842;}
	.st11{fill:none;stroke:#010101;stroke-miterlimit:10;}
	.st12{fill:#803581;}
	.st13{fill:#0F0D0F;}
	.st14{fill:#6354B9;}
	.st15{fill:#63B5E4;}
	.st16{fill:#3982C6;}
	.st17{fill:#EF8354;}
	.st18{fill:#30677C;}
</style>
<g>
	<polygon class="st3" points="326.01,188.65 229.99,245.81 133.99,188.62 133.98,210.1 229.98,267.29 326,210.13 326.01,188.65 	"/>
	<polygon class="st3" points="326.02,153.55 230,210.71 133.99,153.52 133.99,176.15 229.99,233.34 326.01,176.18 326.02,153.55 	
		"/>
	<g>
		<g>
			<polygon class="st3" points="267.65,112.9 250.11,123.03 213.62,144.08 213.64,144.11 231.16,154.22 267.66,133.16 
				286.64,144.12 231.11,176.17 175.59,144.1 231.12,112.06 248.66,101.94 231.12,91.81 140.52,144.1 231.11,196.42 321.72,144.12 
				285.2,123.04 			"/>
		</g>
	</g>
</g>
<g>
	<path class="st4" d="M423.96,241.86c-9.88,0-18.01-2.16-24.37-6.49c-6.36-4.33-9.97-9.92-10.82-16.78h20.29
		c0.8,2.65,2.61,4.79,5.43,6.42c2.81,1.63,6.16,2.45,10.04,2.45c5.25,0,9.34-1.34,12.27-4.01c2.93-2.67,4.4-6.25,4.4-10.75v-13.34
		h-0.43c-1.8,4.11-4.8,7.41-9.01,9.89c-4.21,2.48-9.03,3.72-14.47,3.72c-9.36,0-16.85-3.4-22.45-10.21
		c-5.6-6.81-8.41-16.1-8.41-27.88c0-12.06,2.79-21.56,8.37-28.52c5.58-6.95,13.19-10.43,22.84-10.43c5.39,0,10.14,1.3,14.26,3.9
		s7.19,6.12,9.22,10.57h0.35v-13.26h20.43v74.98c0,9.03-3.46,16.24-10.39,21.64S435.4,241.86,423.96,241.86z M424.31,197.03
		c5.2,0,9.33-1.95,12.38-5.85c3.05-3.9,4.58-9.28,4.58-16.14c0-6.86-1.54-12.32-4.61-16.39c-3.07-4.07-7.19-6.1-12.34-6.1
		c-5.11,0-9.16,2.02-12.17,6.07c-3,4.04-4.5,9.52-4.5,16.42c0,6.91,1.49,12.3,4.47,16.17C415.09,195.09,419.16,197.03,424.31,197.03
		z"/>
	<path class="st4" d="M474.43,213.2V110.84h20.71V213.2H474.43z"/>
	<path class="st4" d="M577.89,137.16v76.04h-20v-13.69h-0.43c-3.97,10.07-11.56,15.11-22.77,15.11c-8.32,0-14.97-2.54-19.93-7.62
		c-4.96-5.08-7.45-12.02-7.45-20.82v-49.02h20.71v44.69c0,5.06,1.22,8.92,3.65,11.56c2.44,2.65,5.95,3.97,10.53,3.97
		c4.59,0,8.23-1.51,10.92-4.54s4.04-7.07,4.04-12.13v-43.55H577.89z"/>
	<path class="st4" d="M640.28,189.94h19.01c-1.13,7.47-4.86,13.49-11.17,18.05c-6.31,4.56-14.15,6.84-23.52,6.84
		c-11.68,0-20.84-3.5-27.49-10.5c-6.64-7-9.97-16.6-9.97-28.8c0-12.15,3.31-21.86,9.93-29.12c6.62-7.26,15.54-10.89,26.74-10.89
		c11.02,0,19.79,3.45,26.32,10.36c6.53,6.91,9.79,16.15,9.79,27.74v6.31h-52.42v1.28c0,5.44,1.6,9.85,4.79,13.23
		c3.19,3.38,7.41,5.07,12.66,5.07c3.78,0,7.05-0.86,9.79-2.59C637.49,195.2,639.33,192.87,640.28,189.94z M624.03,150.85
		c-4.49,0-8.24,1.54-11.24,4.61c-3,3.08-4.69,7-5.07,11.78h32.28c-0.24-4.87-1.81-8.82-4.72-11.85
		C632.37,152.37,628.62,150.85,624.03,150.85z"/>
	<path class="st4" d="M667.84,159.51c0-7.24,2.91-13.04,8.72-17.42c5.82-4.37,13.6-6.56,23.34-6.56c9.51,0,17.14,2.22,22.91,6.67
		c5.77,4.45,8.72,10.36,8.87,17.73H712.6c-0.24-3.07-1.5-5.49-3.79-7.24c-2.29-1.75-5.36-2.62-9.19-2.62
		c-3.59,0-6.47,0.75-8.62,2.23c-2.15,1.49-3.23,3.46-3.23,5.92c0,3.69,3.31,6.31,9.93,7.87l14.54,3.12
		c7.61,1.7,13.09,4.17,16.42,7.41s5,7.7,5,13.37c0,7.47-3.12,13.48-9.36,18.02c-6.24,4.54-14.4,6.81-24.47,6.81
		c-10.03,0-18.04-2.22-24.05-6.67c-6.01-4.44-9.29-10.43-9.86-17.95h20.22c0.52,3.22,2,5.7,4.43,7.45c2.44,1.75,5.71,2.62,9.83,2.62
		c3.92,0,7.01-0.72,9.26-2.16c2.25-1.44,3.37-3.42,3.37-5.92c0-1.94-0.71-3.49-2.13-4.65c-1.42-1.16-3.83-2.14-7.24-2.94
		l-14.04-3.12C675.1,178.19,667.84,170.86,667.84,159.51z"/>
	<path class="st4" d="M748.03,119.64h20.71v17.52h14.05v15.61h-14.05v36.39c0,5.72,2.98,8.58,8.94,8.58c1.94,0,3.62-0.12,5.04-0.35
		v15.25c-2.41,0.57-5.7,0.85-9.86,0.85c-8.94,0-15.31-1.61-19.12-4.82c-3.81-3.22-5.71-8.54-5.71-15.96v-39.94h-10.71v-15.61h10.71
		V119.64z"/>
	<path class="st4" d="M814.53,214.41c-7.33,0-13.41-2.15-18.23-6.46c-4.82-4.3-7.24-9.84-7.24-16.6c0-6.9,2.55-12.32,7.66-16.24
		c5.11-3.92,12.41-6.17,21.92-6.74l19.15-1.13v-5.04c0-3.5-1.15-6.24-3.44-8.23s-5.4-2.98-9.33-2.98c-3.78,0-6.87,0.85-9.26,2.55
		s-3.84,4-4.36,6.88h-18.94c0.38-7.47,3.57-13.49,9.58-18.05c6-4.56,13.97-6.85,23.91-6.85c9.74,0,17.54,2.32,23.41,6.95
		c5.86,4.64,8.8,10.78,8.8,18.44v52.28h-20v-11.63h-0.42c-2.08,3.97-5.25,7.11-9.51,9.4S819.4,214.41,814.53,214.41z M821.34,199.44
		c4.59,0,8.48-1.34,11.67-4.01c3.19-2.67,4.79-6.04,4.79-10.11v-5.53l-16.03,0.99c-3.88,0.29-6.87,1.25-8.97,2.91
		c-2.11,1.66-3.16,3.83-3.16,6.53c0,2.84,1.06,5.08,3.19,6.74C814.96,198.62,817.8,199.44,821.34,199.44z"/>
	<path class="st4" d="M939.13,165.46h-19.22c-0.62-4.11-2.23-7.42-4.86-9.93c-2.62-2.51-6.02-3.76-10.18-3.76
		c-5.15,0-9.21,2.07-12.17,6.21c-2.96,4.14-4.43,9.85-4.43,17.13c0,7.42,1.48,13.19,4.43,17.31c2.96,4.11,7.03,6.17,12.24,6.17
		c4.11,0,7.47-1.17,10.07-3.51c2.6-2.34,4.23-5.59,4.89-9.75h19.29c-0.52,8.98-3.9,16.15-10.14,21.49
		c-6.24,5.35-14.35,8.02-24.33,8.02c-11.54,0-20.67-3.53-27.38-10.6c-6.72-7.07-10.07-16.78-10.07-29.12
		c0-12.15,3.37-21.79,10.11-28.91c6.74-7.12,15.81-10.68,27.2-10.68c10.12,0,18.29,2.79,24.51,8.37
		C935.31,149.48,938.66,156.67,939.13,165.46z"/>
	<path class="st4" d="M969.24,167.66l25.82-30.5h23.48l-29.01,32.63l30.43,43.41h-23.83l-21.78-30.93l-5.39,5.82v25.11h-20.71
		V110.84h20.71v56.82H969.24z"/>
</g>
</svg>
