<svg width="24" height="24" viewBox="0 0 24 24" fill="none" xmlns="http://www.w3.org/2000/svg">
<circle cx="12" cy="12" r="12" fill="#A3A3A3"/>
<path d="M16.8516 7.88457C15.9593 7.47514 15.0024 7.17349 14.0019 7.00072C13.9837 6.99739 13.9655 7.00572 13.9562 7.02239C13.8331 7.24126 13.6967 7.52681 13.6013 7.75124C12.5252 7.59014 11.4547 7.59014 10.4007 7.75124C10.3052 7.52182 10.1639 7.24126 10.0403 7.02239C10.0309 7.00628 10.0127 6.99795 9.99453 7.00072C8.99461 7.17294 8.03774 7.47459 7.14488 7.88457C7.13715 7.88791 7.13053 7.89347 7.12613 7.90068C5.31115 10.6122 4.81395 13.2571 5.05786 15.8692C5.05896 15.882 5.06613 15.8943 5.07607 15.902C6.27354 16.7814 7.4335 17.3153 8.57191 17.6691C8.59013 17.6747 8.60944 17.6681 8.62103 17.653C8.89033 17.2853 9.13037 16.8975 9.3362 16.4897C9.34834 16.4659 9.33674 16.4375 9.31192 16.4281C8.93116 16.2836 8.5686 16.1075 8.21984 15.9076C8.19226 15.8915 8.19005 15.852 8.21543 15.8331C8.28882 15.7781 8.36223 15.7209 8.43231 15.6631C8.44499 15.6526 8.46266 15.6503 8.47756 15.657C10.7687 16.7031 13.2492 16.7031 15.5134 15.657C15.5283 15.6498 15.546 15.652 15.5592 15.6626C15.6293 15.7203 15.7027 15.7781 15.7766 15.8331C15.802 15.852 15.8004 15.8915 15.7728 15.9076C15.424 16.1114 15.0614 16.2836 14.6801 16.4275C14.6553 16.437 14.6442 16.4659 14.6564 16.4897C14.8667 16.897 15.1067 17.2847 15.371 17.6525C15.382 17.6681 15.4019 17.6747 15.4201 17.6691C16.5641 17.3153 17.724 16.7814 18.9215 15.902C18.932 15.8943 18.9386 15.8825 18.9397 15.8698C19.2316 12.8499 18.4508 10.2267 16.8698 7.90124C16.8659 7.89347 16.8593 7.88791 16.8516 7.88457ZM9.67834 14.2787C8.98854 14.2787 8.42016 13.6455 8.42016 12.8677C8.42016 12.0899 8.97752 11.4566 9.67834 11.4566C10.3847 11.4566 10.9475 12.0955 10.9365 12.8677C10.9365 13.6455 10.3792 14.2787 9.67834 14.2787ZM14.3302 14.2787C13.6405 14.2787 13.0721 13.6455 13.0721 12.8677C13.0721 12.0899 13.6294 11.4566 14.3302 11.4566C15.0366 11.4566 15.5995 12.0955 15.5884 12.8677C15.5884 13.6455 15.0366 14.2787 14.3302 14.2787Z" fill="black"/>
</svg>
