<svg width="24" height="24" viewBox="0 0 24 24" fill="none" xmlns="http://www.w3.org/2000/svg">
<path fillRule="evenodd" clipRule="evenodd" d="M12 24C18.6274 24 24 18.6274 24 12C24 5.37258 18.6274 0 12 0C5.37258 0 0 5.37258 0 12C0 18.6274 5.37258 24 12 24ZM12.2706 14.7298C12.2128 14.6551 12.1502 14.5838 12.0831 14.5166C11.8334 14.266 11.5285 14.0773 11.1928 13.9655L10.0905 13.6075C10.0056 13.5776 9.93202 13.522 9.87998 13.4485C9.82794 13.3751 9.8 13.2873 9.8 13.1972C9.8 13.1072 9.82794 13.0194 9.87998 12.9459C9.93202 12.8725 10.0056 12.8169 10.0905 12.787L11.1928 12.429C11.5238 12.3148 11.8239 12.1256 12.0696 11.8763C12.3086 11.6338 12.4898 11.3408 12.6 11.019L12.6091 10.9917L12.9674 9.89032C12.9973 9.80543 13.0529 9.73192 13.1265 9.67992C13.2 9.62792 13.2879 9.6 13.378 9.6C13.468 9.6 13.5559 9.62792 13.6294 9.67992C13.703 9.73192 13.7586 9.80543 13.7885 9.89032L14.1468 10.9917C14.2582 11.3266 14.4462 11.6308 14.6959 11.8803C14.9456 12.1298 15.2501 12.3177 15.5852 12.429L16.6874 12.787L16.7095 12.7925C16.7944 12.8224 16.868 12.878 16.92 12.9515C16.9721 13.0249 17 13.1127 17 13.2028C17 13.2928 16.9721 13.3806 16.92 13.4541C16.868 13.5275 16.7944 13.5831 16.7095 13.613L15.6072 13.971C15.2721 14.0823 14.9676 14.2702 14.7179 14.5197C14.4682 14.7692 14.2802 15.0734 14.1688 15.4083L13.8106 16.5097C13.8073 16.5188 13.8038 16.5279 13.8 16.5367C13.7684 16.6102 13.7171 16.6737 13.6515 16.7201C13.578 16.7721 13.4901 16.8 13.4 16.8C13.3099 16.8 13.222 16.7721 13.1485 16.7201C13.075 16.6681 13.0194 16.5946 12.9894 16.5097L12.6312 15.4083C12.5503 15.1626 12.4281 14.9333 12.2706 14.7298ZM13.8 8.87431V7.2C13.8 5.43269 12.3673 4 10.6 4C8.83269 4 7.4 5.43269 7.4 7.2V12C7.4 13.7673 8.83269 15.2 10.6 15.2C10.9144 15.2 11.2182 15.1547 11.5052 15.0702C11.3463 14.9142 11.1539 14.7962 10.9424 14.7253L9.83397 14.3653L9.82457 14.362C9.5836 14.2771 9.37483 14.1195 9.22711 13.9109C9.07995 13.7031 9.00061 13.4549 9 13.2002C8.74884 12.8659 8.6 12.4503 8.6 12V7.2C8.6 6.09543 9.49543 5.2 10.6 5.2C11.7046 5.2 12.6 6.09543 12.6 7.2V9.07564C12.6209 9.05867 12.6425 9.04235 12.6646 9.02671C12.8732 8.87918 13.1225 8.8 13.378 8.8C13.5227 8.8 13.6655 8.82543 13.8 8.87431ZM12.0509 16.2106C11.6558 16.3337 11.2356 16.4 10.8 16.4H10.4L10.2269 16.3965C7.98756 16.3057 6.2 14.4616 6.2 12.2V11.8L6.19452 11.7186C6.15479 11.4257 5.90376 11.2 5.6 11.2C5.26863 11.2 5 11.4686 5 11.8V12.2L5.00325 12.3891C5.09827 15.1504 7.26658 17.3853 10 17.5854L10 19.4L10.0055 19.4814C10.0452 19.7743 10.2962 20 10.6 20C10.9314 20 11.2 19.7314 11.2 19.4L11.2008 17.5854C11.684 17.5499 12.1495 17.4509 12.589 17.2966C12.4286 17.157 12.3063 16.9779 12.2351 16.776L12.2317 16.7666L12.0509 16.2106ZM19.2263 17.7705L18.614 17.5717C18.4278 17.5098 18.2587 17.4055 18.1199 17.2669C17.9812 17.1282 17.8768 16.9592 17.8149 16.7732L17.6159 16.1613C17.5992 16.1141 17.5683 16.0733 17.5275 16.0444C17.4866 16.0155 17.4378 16 17.3878 16C17.3377 16 17.2889 16.0155 17.248 16.0444C17.2072 16.0733 17.1763 16.1141 17.1597 16.1613L16.9606 16.7732C16.9 16.9579 16.7974 17.1261 16.6609 17.2646C16.5244 17.4031 16.3577 17.5082 16.1738 17.5717L15.5614 17.7705C15.5142 17.7872 15.4733 17.818 15.4444 17.8589C15.4155 17.8997 15.4 17.9485 15.4 17.9985C15.4 18.0485 15.4155 18.0973 15.4444 18.1381C15.4733 18.1789 15.5142 18.2098 15.5614 18.2264L16.1738 18.4253C16.3603 18.4874 16.5296 18.5922 16.6684 18.7314C16.8071 18.8706 16.9114 19.0402 16.9729 19.2268L17.1719 19.8387C17.1885 19.8859 17.2194 19.9267 17.2603 19.9556C17.3011 19.9845 17.35 20 17.4 20C17.45 20 17.4989 19.9845 17.5397 19.9556C17.5806 19.9267 17.6115 19.8859 17.6281 19.8387L17.8271 19.2268C17.889 19.0408 17.9935 18.8718 18.1322 18.7332C18.2709 18.5945 18.4401 18.4902 18.6262 18.4283L19.2386 18.2295C19.2858 18.2128 19.3267 18.182 19.3556 18.1411C19.3845 18.1003 19.4 18.0515 19.4 18.0015C19.4 17.9515 19.3845 17.9027 19.3556 17.8619C19.3267 17.8211 19.2858 17.7902 19.2386 17.7736L19.2263 17.7705Z" fill="#A3A3A3"/>
</svg>
