<svg xmlns="http://www.w3.org/2000/svg" width="24" height="24" viewBox="0 0 24 24" fill="none">
  <path fillRule="evenodd" clipRule="evenodd" d="M24 12C24 18.6274 18.6274 24 12 24C5.37258 24 0 18.6274 0 12C0 5.37258 5.37258 0 12 0C18.6274 0 24 5.37258 24 12ZM18.2436 10.2456C19.212 10.2456 19.998 11.0315 19.998 12C19.998 12.7157 19.5629 13.3333 18.9874 13.614C19.0155 13.7824 19.0296 13.9508 19.0296 14.1333C19.0296 16.828 15.8997 19.0035 12.026 19.0035C8.15236 19.0035 5.02253 16.828 5.02253 14.1333C5.02253 13.9508 5.03657 13.7684 5.06464 13.6C4.44709 13.3193 4.02604 12.7157 4.02604 12C4.02604 11.0315 4.81201 10.2456 5.78043 10.2456C6.24359 10.2456 6.67867 10.4421 6.98745 10.7368C8.19446 9.85259 9.86464 9.30522 11.7313 9.24908L12.6155 5.06662C12.6436 4.98241 12.6857 4.91224 12.7559 4.87013C12.826 4.82803 12.9103 4.81399 12.9945 4.82803L15.8997 5.44557C16.0962 5.02452 16.5173 4.74381 17.0085 4.74381C17.6962 4.74381 18.2576 5.30522 18.2576 5.99294C18.2576 6.68066 17.6962 7.24206 17.0085 7.24206C16.3348 7.24206 15.7874 6.70873 15.7594 6.04908L13.1629 5.50171L12.3629 9.24908C14.1874 9.31925 15.8436 9.88066 17.0366 10.7368C17.3453 10.428 17.7664 10.2456 18.2436 10.2456ZM9.2471 12C8.55938 12 7.99797 12.5614 7.99797 13.2491C7.99797 13.9368 8.55938 14.4982 9.2471 14.4982C9.93481 14.4982 10.4962 13.9368 10.4962 13.2491C10.4962 12.5614 9.93481 12 9.2471 12ZM12.012 17.4596C12.4892 17.4596 14.1173 17.4035 14.9734 16.5473C15.0997 16.421 15.0997 16.2245 15.0015 16.0842C14.8752 15.9579 14.6646 15.9579 14.5383 16.0842C13.991 16.6175 12.8541 16.814 12.026 16.814C11.198 16.814 10.0471 16.6175 9.51376 16.0842C9.38745 15.9579 9.17692 15.9579 9.0506 16.0842C8.92429 16.2105 8.92429 16.421 9.0506 16.5473C9.89271 17.3894 11.5348 17.4596 12.012 17.4596ZM13.4997 13.2491C13.4997 13.9368 14.0611 14.4982 14.7488 14.4982C15.4366 14.4982 15.998 13.9368 15.998 13.2491C15.998 12.5614 15.4366 12 14.7488 12C14.0611 12 13.4997 12.5614 13.4997 13.2491Z" fill="#A3A3A3"/>
</svg>