<svg width="24" height="24" viewBox="0 0 24 24" fill="none" xmlns="http://www.w3.org/2000/svg">
<path fillRule="evenodd" clipRule="evenodd" d="M15.565 9.47313C15.4529 9.51051 15.2916 9.56541 15.0964 9.63507C14.8933 9.70756 14.6703 9.6005 14.5983 9.39595C14.5263 9.1914 14.6326 8.96681 14.8358 8.89433C15.0368 8.82259 15.2032 8.76591 15.3198 8.72706C15.3781 8.70763 15.4239 8.69264 15.4554 8.68244L15.4917 8.67078L15.5013 8.66772L15.5046 8.66667L15.7381 9.41652L15.7358 9.41726L15.7276 9.41988L15.6943 9.43061C15.6648 9.44016 15.621 9.45445 15.565 9.47313ZM14.0296 9.61566C14.1131 9.81571 14.0198 10.0461 13.8212 10.1302C13.4077 10.3053 12.9825 10.502 12.5996 10.7099C12.41 10.8129 12.1733 10.7415 12.071 10.5505C11.9688 10.3595 12.0396 10.1211 12.2293 10.0181C12.6413 9.79445 13.0909 9.58694 13.5187 9.40578C13.7173 9.32165 13.946 9.41562 14.0296 9.61566ZM11.5507 10.8771C11.7048 11.0288 11.7075 11.2776 11.5569 11.4327C11.3859 11.6088 11.3549 11.7176 11.3546 11.7621C11.3549 11.7647 11.3583 11.789 11.3911 11.8398C11.4299 11.8999 11.4969 11.9769 11.6015 12.0704C11.7626 12.2145 11.7773 12.4628 11.6342 12.6251C11.4911 12.7874 11.2445 12.8022 11.0834 12.6581C10.8383 12.4389 10.5743 12.1359 10.5743 11.7628C10.5743 11.4101 10.7775 11.1114 10.999 10.8833C11.1496 10.7281 11.3966 10.7254 11.5507 10.8771ZM12.2102 12.9837C12.3185 12.7961 12.5574 12.7324 12.7436 12.8415C13.0171 13.0017 13.311 13.1667 13.6187 13.3394C13.746 13.4108 13.8757 13.4836 14.0073 13.5579C14.1952 13.6641 14.2621 13.9036 14.1567 14.0929C14.0513 14.2821 13.8135 14.3495 13.6255 14.2434C13.4986 14.1716 13.3715 14.1004 13.2456 14.0297C12.9351 13.8554 12.6313 13.6849 12.3513 13.5209C12.1651 13.4118 12.1019 13.1713 12.2102 12.9837ZM14.741 14.4327C14.855 14.2485 15.0956 14.1922 15.2785 14.307C15.7148 14.5807 16.1376 14.8705 16.51 15.176C16.677 15.3131 16.7022 15.5606 16.5661 15.7288C16.43 15.8971 16.1842 15.9224 16.0172 15.7853C15.6795 15.5083 15.2866 15.238 14.8659 14.974C14.683 14.8592 14.6271 14.6169 14.741 14.4327ZM17.0448 16.2148C17.2303 16.1044 17.4695 16.1663 17.5792 16.3531C17.7307 16.6111 17.8385 16.889 17.8775 17.1849C17.9309 17.5908 17.7914 17.9621 17.5617 18.281C17.4351 18.4566 17.1911 18.4957 17.0167 18.3682C16.8423 18.2407 16.8036 17.995 16.9301 17.8194C17.0806 17.6106 17.1237 17.4379 17.104 17.2882C17.0815 17.1174 17.017 16.9396 16.9075 16.7531C16.7979 16.5663 16.8593 16.3253 17.0448 16.2148ZM16.2377 18.9383C16.3435 19.1273 16.2772 19.367 16.0895 19.4736C15.6066 19.748 15.0549 20.0042 14.4787 20.2396C14.279 20.3212 14.0515 20.2243 13.9705 20.0232C13.8895 19.8221 13.9857 19.5929 14.1854 19.5113C14.7418 19.284 15.2611 19.042 15.7061 18.7891C15.8938 18.6825 16.1318 18.7493 16.2377 18.9383ZM13.0742 20.3494C13.1417 20.5555 13.0305 20.7777 12.8259 20.8456C12.2475 21.0377 11.6767 21.2095 11.1513 21.3581C10.9439 21.4167 10.7285 21.2949 10.6702 21.086C10.612 20.8771 10.7329 20.6601 10.9404 20.6014C11.457 20.4553 12.0164 20.2869 12.5816 20.0993C12.7862 20.0313 13.0068 20.1433 13.0742 20.3494ZM9.74793 21.3282C9.79848 21.5392 9.66965 21.7515 9.46019 21.8024C9.19706 21.8663 8.98412 21.9156 8.83663 21.949C8.76287 21.9656 8.70547 21.9783 8.66632 21.9869L8.62152 21.9966L8.60674 21.9998L8.44444 21.2311L8.44763 21.2304L8.45816 21.2282L8.50054 21.219C8.53805 21.2108 8.59372 21.1984 8.66566 21.1822C8.80955 21.1496 9.01844 21.1013 9.27712 21.0384C9.48659 20.9875 9.69737 21.1173 9.74793 21.3282Z" fill="#A3A3A3"/>
<path d="M17.3333 8.66667C17.5222 8.66667 18.2606 8.11898 18.849 7.43949C19.6333 6.53436 20.1111 5.5241 20.1111 4.5641C20.1111 3.04462 18.8813 2 17.3333 2C15.7854 2 14.5556 3.04462 14.5556 4.5641C14.5556 5.52821 15.0333 6.53846 15.8177 7.44256C16.4056 8.12051 17.1439 8.66667 17.3333 8.66667ZM17.3333 6.30769C16.9047 6.30769 16.4936 6.1348 16.1905 5.82705C15.8874 5.51929 15.7172 5.10189 15.7172 4.66667C15.7172 4.23144 15.8874 3.81404 16.1905 3.50629C16.4936 3.19853 16.9047 3.02564 17.3333 3.02564C17.762 3.02564 18.173 3.19853 18.4761 3.50629C18.7792 3.81404 18.9495 4.23144 18.9495 4.66667C18.9495 5.10189 18.7792 5.51929 18.4761 5.82705C18.173 6.1348 17.762 6.30769 17.3333 6.30769Z" fill="#A3A3A3"/>
<path d="M6.77778 22C6.96667 22 7.70505 21.4523 8.29343 20.7728C9.07778 19.8677 9.55556 18.8574 9.55556 17.8974C9.55556 16.3779 8.32576 15.3333 6.77778 15.3333C5.2298 15.3333 4 16.3779 4 17.8974C4 18.8615 4.47778 19.8718 5.26212 20.7759C5.85 21.4538 6.58838 22 6.77778 22ZM6.77778 19.641C6.34914 19.641 5.93807 19.4681 5.63498 19.1604C5.33189 18.8526 5.16162 18.4352 5.16162 18C5.16162 17.5648 5.33189 17.1474 5.63498 16.8396C5.93807 16.5319 6.34914 16.359 6.77778 16.359C7.20641 16.359 7.61749 16.5319 7.92058 16.8396C8.22367 17.1474 8.39394 17.5648 8.39394 18C8.39394 18.4352 8.22367 18.8526 7.92058 19.1604C7.61749 19.4681 7.20641 19.641 6.77778 19.641Z" fill="#A3A3A3"/>
</svg>
